G04 #@! TF.GenerationSoftware,KiCad,Pcbnew,(5.0.2)-1*
G04 #@! TF.CreationDate,2019-03-16T14:06:54-07:00*
G04 #@! TF.ProjectId,ModularMatrix,4d6f6475-6c61-4724-9d61-747269782e6b,rev?*
G04 #@! TF.SameCoordinates,Original*
G04 #@! TF.FileFunction,Copper,L2,Inr*
G04 #@! TF.FilePolarity,Positive*
%FSLAX46Y46*%
G04 Gerber Fmt 4.6, Leading zero omitted, Abs format (unit mm)*
G04 Created by KiCad (PCBNEW (5.0.2)-1) date 3/16/2019 2:06:54 PM*
%MOMM*%
%LPD*%
G01*
G04 APERTURE LIST*
G04 #@! TA.AperFunction,ViaPad*
%ADD10O,2.300000X1.200000*%
G04 #@! TD*
G04 #@! TA.AperFunction,ViaPad*
%ADD11R,4.000000X2.000000*%
G04 #@! TD*
G04 #@! TA.AperFunction,ViaPad*
%ADD12O,3.300000X2.000000*%
G04 #@! TD*
G04 #@! TA.AperFunction,ViaPad*
%ADD13O,2.000000X3.500000*%
G04 #@! TD*
G04 #@! TA.AperFunction,ViaPad*
%ADD14O,1.000000X1.000000*%
G04 #@! TD*
G04 #@! TA.AperFunction,ViaPad*
%ADD15R,1.000000X1.000000*%
G04 #@! TD*
G04 #@! TA.AperFunction,ViaPad*
%ADD16C,10.160000*%
G04 #@! TD*
G04 #@! TA.AperFunction,ViaPad*
%ADD17C,0.450000*%
G04 #@! TD*
G04 #@! TA.AperFunction,ViaPad*
%ADD18C,0.800000*%
G04 #@! TD*
G04 #@! TA.AperFunction,ViaPad*
%ADD19C,1.000000*%
G04 #@! TD*
G04 #@! TA.AperFunction,Conductor*
%ADD20C,0.500000*%
G04 #@! TD*
G04 #@! TA.AperFunction,Conductor*
%ADD21C,1.000000*%
G04 #@! TD*
G04 #@! TA.AperFunction,Conductor*
%ADD22C,0.750000*%
G04 #@! TD*
G04 #@! TA.AperFunction,Conductor*
%ADD23C,0.088900*%
G04 #@! TD*
G04 #@! TA.AperFunction,Conductor*
%ADD24C,0.090000*%
G04 #@! TD*
G04 #@! TA.AperFunction,Conductor*
%ADD25C,0.254000*%
G04 #@! TD*
G04 APERTURE END LIST*
D10*
G04 #@! TO.N,GND*
G04 #@! TO.C,J4*
X250710300Y-84807000D03*
X247160300Y-84807000D03*
X250710300Y-92007000D03*
X247160300Y-92007000D03*
G04 #@! TD*
D11*
G04 #@! TO.N,+12V*
G04 #@! TO.C,J3*
X243776500Y-68897500D03*
D12*
G04 #@! TO.N,GND*
X243776500Y-62897500D03*
D13*
X239276500Y-61897500D03*
X248276500Y-61897500D03*
G04 #@! TD*
D14*
G04 #@! TO.N,GND*
G04 #@! TO.C,J6*
X162877500Y-95542100D03*
G04 #@! TO.N,D2-*
X164147500Y-95542100D03*
G04 #@! TO.N,GND*
X162877500Y-96812100D03*
G04 #@! TO.N,D2+*
X164147500Y-96812100D03*
G04 #@! TO.N,MISO0*
X162877500Y-98082100D03*
G04 #@! TO.N,GND*
X164147500Y-98082100D03*
G04 #@! TO.N,MOSI0*
X162877500Y-99352100D03*
G04 #@! TO.N,GND*
X164147500Y-99352100D03*
G04 #@! TO.N,SCLK0*
X162877500Y-100622100D03*
G04 #@! TO.N,+12V*
X164147500Y-100622100D03*
G04 #@! TO.N,S0*
X162877500Y-101892100D03*
G04 #@! TO.N,+12V*
X164147500Y-101892100D03*
G04 #@! TO.N,S1*
X162877500Y-103162100D03*
G04 #@! TO.N,+5V*
X164147500Y-103162100D03*
G04 #@! TO.N,S2*
X162877500Y-104432100D03*
G04 #@! TO.N,+5V*
X164147500Y-104432100D03*
G04 #@! TO.N,S3*
X162877500Y-105702100D03*
G04 #@! TO.N,+5V*
X164147500Y-105702100D03*
G04 #@! TO.N,-5V*
X162877500Y-106972100D03*
X164147500Y-106972100D03*
G04 #@! TO.N,Net-(J6-Pad44)*
X162877500Y-108242100D03*
G04 #@! TO.N,HT*
X164147500Y-108242100D03*
G04 #@! TO.N,GND*
X162877500Y-109512100D03*
G04 #@! TO.N,HT*
X164147500Y-109512100D03*
G04 #@! TO.N,+1V8*
X162877500Y-110782100D03*
X164147500Y-110782100D03*
X162877500Y-112052100D03*
G04 #@! TO.N,-3V3*
X164147500Y-112052100D03*
G04 #@! TO.N,GND*
X162877500Y-113322100D03*
G04 #@! TO.N,-3V3*
X164147500Y-113322100D03*
G04 #@! TO.N,GND*
X162877500Y-114592100D03*
X164147500Y-114592100D03*
G04 #@! TO.N,+3V3*
X162877500Y-115862100D03*
X164147500Y-115862100D03*
X162877500Y-117132100D03*
X164147500Y-117132100D03*
X162877500Y-118402100D03*
G04 #@! TO.N,GND*
X164147500Y-118402100D03*
G04 #@! TO.N,+3V3*
X162877500Y-119672100D03*
G04 #@! TO.N,VAA*
X164147500Y-119672100D03*
G04 #@! TO.N,GND*
X162877500Y-120942100D03*
G04 #@! TO.N,VAA*
X164147500Y-120942100D03*
G04 #@! TO.N,GND*
X162877500Y-122212100D03*
G04 #@! TO.N,VAA*
X164147500Y-122212100D03*
G04 #@! TO.N,GND*
X162877500Y-123482100D03*
G04 #@! TO.N,Net-(J6-Pad19)*
X164147500Y-123482100D03*
G04 #@! TO.N,Net-(J6-Pad18)*
X162877500Y-124752100D03*
G04 #@! TO.N,VD*
X164147500Y-124752100D03*
X162877500Y-126022100D03*
X164147500Y-126022100D03*
X162877500Y-127292100D03*
X164147500Y-127292100D03*
G04 #@! TO.N,Net-(J6-Pad12)*
X162877500Y-128562100D03*
G04 #@! TO.N,Net-(J6-Pad11)*
X164147500Y-128562100D03*
G04 #@! TO.N,VDC*
X162877500Y-129832100D03*
X164147500Y-129832100D03*
X162877500Y-131102100D03*
G04 #@! TO.N,Net-(J6-Pad7)*
X164147500Y-131102100D03*
G04 #@! TO.N,VDC*
X162877500Y-132372100D03*
G04 #@! TO.N,LO*
X164147500Y-132372100D03*
G04 #@! TO.N,VDC*
X162877500Y-133642100D03*
G04 #@! TO.N,LO*
X164147500Y-133642100D03*
G04 #@! TO.N,VDC*
X162877500Y-134912100D03*
D15*
G04 #@! TO.N,LO*
X164147500Y-134912100D03*
G04 #@! TD*
G04 #@! TO.N,D1+*
G04 #@! TO.C,J1*
X251015500Y-95567500D03*
D14*
G04 #@! TO.N,GND*
X252285500Y-95567500D03*
G04 #@! TO.N,D1-*
X251015500Y-96837500D03*
G04 #@! TO.N,GND*
X252285500Y-96837500D03*
G04 #@! TO.N,Net-(J1-Pad5)*
X251015500Y-98107500D03*
G04 #@! TO.N,MISO0*
X252285500Y-98107500D03*
G04 #@! TO.N,GND*
X251015500Y-99377500D03*
G04 #@! TO.N,MOSI0*
X252285500Y-99377500D03*
G04 #@! TO.N,+12V*
X251015500Y-100647500D03*
G04 #@! TO.N,SCLK0*
X252285500Y-100647500D03*
G04 #@! TO.N,+12V*
X251015500Y-101917500D03*
G04 #@! TO.N,S0*
X252285500Y-101917500D03*
G04 #@! TO.N,+5V*
X251015500Y-103187500D03*
G04 #@! TO.N,S1*
X252285500Y-103187500D03*
G04 #@! TO.N,+5V*
X251015500Y-104457500D03*
G04 #@! TO.N,S2*
X252285500Y-104457500D03*
G04 #@! TO.N,+5V*
X251015500Y-105727500D03*
G04 #@! TO.N,S3*
X252285500Y-105727500D03*
G04 #@! TO.N,-5V*
X251015500Y-106997500D03*
X252285500Y-106997500D03*
G04 #@! TO.N,HT*
X251015500Y-108267500D03*
G04 #@! TO.N,Net-(J1-Pad22)*
X252285500Y-108267500D03*
G04 #@! TO.N,HT*
X251015500Y-109537500D03*
G04 #@! TO.N,GND*
X252285500Y-109537500D03*
G04 #@! TO.N,+1V8*
X251015500Y-110807500D03*
X252285500Y-110807500D03*
G04 #@! TO.N,-3V3*
X251015500Y-112077500D03*
G04 #@! TO.N,+1V8*
X252285500Y-112077500D03*
G04 #@! TO.N,-3V3*
X251015500Y-113347500D03*
G04 #@! TO.N,GND*
X252285500Y-113347500D03*
X251015500Y-114617500D03*
X252285500Y-114617500D03*
G04 #@! TO.N,+3V3*
X251015500Y-115887500D03*
X252285500Y-115887500D03*
X251015500Y-117157500D03*
X252285500Y-117157500D03*
G04 #@! TO.N,GND*
X251015500Y-118427500D03*
G04 #@! TO.N,+3V3*
X252285500Y-118427500D03*
G04 #@! TO.N,VAA*
X251015500Y-119697500D03*
G04 #@! TO.N,+3V3*
X252285500Y-119697500D03*
G04 #@! TO.N,VAA*
X251015500Y-120967500D03*
G04 #@! TO.N,GND*
X252285500Y-120967500D03*
G04 #@! TO.N,VAA*
X251015500Y-122237500D03*
G04 #@! TO.N,GND*
X252285500Y-122237500D03*
G04 #@! TO.N,Net-(J1-Pad45)*
X251015500Y-123507500D03*
G04 #@! TO.N,GND*
X252285500Y-123507500D03*
G04 #@! TO.N,VD*
X251015500Y-124777500D03*
G04 #@! TO.N,GND*
X252285500Y-124777500D03*
G04 #@! TO.N,VD*
X251015500Y-126047500D03*
G04 #@! TO.N,GND*
X252285500Y-126047500D03*
G04 #@! TO.N,VD*
X251015500Y-127317500D03*
G04 #@! TO.N,Net-(J1-Pad52)*
X252285500Y-127317500D03*
G04 #@! TO.N,Net-(J1-Pad53)*
X251015500Y-128587500D03*
G04 #@! TO.N,VDC*
X252285500Y-128587500D03*
X251015500Y-129857500D03*
X252285500Y-129857500D03*
G04 #@! TO.N,Net-(J1-Pad57)*
X251015500Y-131127500D03*
G04 #@! TO.N,VDC*
X252285500Y-131127500D03*
G04 #@! TO.N,LO*
X251015500Y-132397500D03*
G04 #@! TO.N,VDC*
X252285500Y-132397500D03*
G04 #@! TO.N,LO*
X251015500Y-133667500D03*
G04 #@! TO.N,VDC*
X252285500Y-133667500D03*
G04 #@! TO.N,LO*
X251015500Y-134937500D03*
G04 #@! TO.N,VDC*
X252285500Y-134937500D03*
G04 #@! TD*
D16*
G04 #@! TO.N,GND*
G04 #@! TO.C,J8*
X213321492Y-160318158D03*
G04 #@! TO.N,VAA*
X232291492Y-160318158D03*
G04 #@! TD*
G04 #@! TO.N,VDC*
G04 #@! TO.C,J7*
X244178160Y-160020000D03*
G04 #@! TO.N,GND*
X244178160Y-141050000D03*
G04 #@! TD*
G04 #@! TO.N,GND*
G04 #@! TO.C,J9*
X182434826Y-160318158D03*
G04 #@! TO.N,LO*
X201404826Y-160318158D03*
G04 #@! TD*
G04 #@! TO.N,VD*
G04 #@! TO.C,J10*
X170518160Y-159048158D03*
G04 #@! TO.N,GND*
X170518160Y-140078158D03*
G04 #@! TD*
D17*
G04 #@! TO.N,GND*
X172212000Y-59690000D03*
G04 #@! TO.N,*
X175641000Y-71374000D03*
X233383160Y-100524158D03*
X232367160Y-115256158D03*
G04 #@! TO.N,/USB/D0+*
X230666749Y-103128261D03*
G04 #@! TO.N,GND*
X223384065Y-68935225D03*
G04 #@! TO.N,+5V*
X231512065Y-63347225D03*
G04 #@! TO.N,*
X194246500Y-96837500D03*
G04 #@! TO.N,GND*
X224216500Y-122775500D03*
X226216500Y-120775500D03*
X212216500Y-122775500D03*
X220216500Y-120775500D03*
X224216500Y-120775500D03*
X208216500Y-122775500D03*
X226216500Y-124775500D03*
X214216500Y-122775500D03*
X208216500Y-120775500D03*
X218216500Y-122775500D03*
X214216500Y-120775500D03*
X226216500Y-122775500D03*
X218216500Y-124775500D03*
X222216500Y-122775500D03*
X220216500Y-124775500D03*
X222216500Y-124775500D03*
X208216500Y-124775500D03*
X210216500Y-124775500D03*
X212216500Y-124775500D03*
X210216500Y-120775500D03*
X212216500Y-120775500D03*
X216216500Y-120775500D03*
X210216500Y-122775500D03*
X220216500Y-122775500D03*
X216216500Y-124775500D03*
X216216500Y-122775500D03*
X222216500Y-120775500D03*
X214216500Y-124775500D03*
X224216500Y-124775500D03*
X218216500Y-120775500D03*
X212914500Y-130587500D03*
X218914500Y-130587500D03*
X206914500Y-132587500D03*
X210914500Y-132587500D03*
X212914500Y-132587500D03*
X214914500Y-132587500D03*
X216914500Y-132587500D03*
X206914500Y-130587500D03*
X208914500Y-130587500D03*
X210914500Y-130587500D03*
X214914500Y-130587500D03*
X216914500Y-130587500D03*
X208914500Y-132587500D03*
X218914500Y-132587500D03*
X204914500Y-132587500D03*
X220914500Y-132587500D03*
X222914500Y-132587500D03*
X204914500Y-130587500D03*
X220914500Y-130587500D03*
X222914500Y-130587500D03*
X187768500Y-84105500D03*
X193768500Y-84105500D03*
X181768500Y-86105500D03*
X185768500Y-86105500D03*
X187768500Y-86105500D03*
X189768500Y-86105500D03*
X191768500Y-86105500D03*
X181768500Y-84105500D03*
X183768500Y-84105500D03*
X185768500Y-84105500D03*
X189768500Y-84105500D03*
X191768500Y-84105500D03*
X183768500Y-86105500D03*
X193768500Y-86105500D03*
X179768500Y-86105500D03*
X195768500Y-86105500D03*
X197768500Y-86105500D03*
X179768500Y-84105500D03*
X195768500Y-84105500D03*
X197768500Y-84105500D03*
X208850500Y-62261500D03*
X214850500Y-62261500D03*
X202850500Y-64261500D03*
X206850500Y-64261500D03*
X208850500Y-64261500D03*
X210850500Y-64261500D03*
X212850500Y-64261500D03*
X202850500Y-62261500D03*
X204850500Y-62261500D03*
X206850500Y-62261500D03*
X210850500Y-62261500D03*
X212850500Y-62261500D03*
X204850500Y-64261500D03*
X214850500Y-64261500D03*
X200850500Y-64261500D03*
G04 #@! TO.N,*
X216850500Y-64261500D03*
X218850500Y-64261500D03*
G04 #@! TO.N,GND*
X200850500Y-62261500D03*
G04 #@! TO.N,*
X216850500Y-62261500D03*
X218850500Y-62261500D03*
G04 #@! TO.N,GND*
X241996500Y-121029500D03*
X239996500Y-123029500D03*
X241996500Y-125029500D03*
X243996500Y-125029500D03*
X241996500Y-123029500D03*
X239996500Y-125029500D03*
X243996500Y-121029500D03*
X243996500Y-123029500D03*
X237996500Y-125029500D03*
X237996500Y-121029500D03*
X239996500Y-121029500D03*
X237996500Y-123029500D03*
X187640500Y-90295500D03*
X189640500Y-94295500D03*
X189640500Y-90295500D03*
X189640500Y-92295500D03*
X183640500Y-90295500D03*
X185640500Y-90295500D03*
X168844500Y-88009500D03*
X166844500Y-90009500D03*
X168844500Y-92009500D03*
X170844500Y-92009500D03*
X168844500Y-90009500D03*
X166844500Y-92009500D03*
X170844500Y-88009500D03*
X170844500Y-90009500D03*
X166844500Y-88009500D03*
X170368500Y-62609500D03*
X168368500Y-64609500D03*
X170368500Y-66609500D03*
X172368500Y-66609500D03*
X170368500Y-64609500D03*
X168368500Y-66609500D03*
X172368500Y-62609500D03*
X172368500Y-64609500D03*
X166368500Y-66609500D03*
X166368500Y-62609500D03*
X168368500Y-62609500D03*
X166368500Y-64609500D03*
X247584500Y-78611500D03*
X245584500Y-80611500D03*
X247584500Y-82611500D03*
X249584500Y-82611500D03*
X247584500Y-80611500D03*
X245584500Y-82611500D03*
X249584500Y-78611500D03*
X249584500Y-80611500D03*
X243584500Y-82611500D03*
X243584500Y-78611500D03*
X245584500Y-78611500D03*
X243584500Y-80611500D03*
X208976500Y-66673500D03*
X206976500Y-68673500D03*
X208976500Y-70673500D03*
X210976500Y-70673500D03*
X208976500Y-68673500D03*
X206976500Y-70673500D03*
X210976500Y-66673500D03*
X210976500Y-68673500D03*
X204976500Y-70673500D03*
X204976500Y-66673500D03*
X206976500Y-66673500D03*
X204976500Y-68673500D03*
X222978500Y-136937500D03*
X222978500Y-134937500D03*
X224978500Y-134937500D03*
X226978500Y-134937500D03*
X222978500Y-138937500D03*
X224978500Y-138937500D03*
X226978500Y-138937500D03*
X224978500Y-136937500D03*
X226978500Y-136937500D03*
X224978500Y-148937500D03*
X226978500Y-146937500D03*
X224978500Y-146937500D03*
X226978500Y-150937500D03*
X226978500Y-140937500D03*
X224978500Y-144937500D03*
G04 #@! TO.N,*
X222978500Y-152937500D03*
G04 #@! TO.N,GND*
X226978500Y-144937500D03*
X222978500Y-144937500D03*
X226978500Y-148937500D03*
X224978500Y-142937500D03*
X222978500Y-148937500D03*
X222978500Y-150937500D03*
X222978500Y-140937500D03*
X222978500Y-142937500D03*
G04 #@! TO.N,*
X224978500Y-152937500D03*
X226978500Y-152937500D03*
G04 #@! TO.N,GND*
X222978500Y-146937500D03*
X224978500Y-140937500D03*
X226978500Y-142937500D03*
X224978500Y-150937500D03*
X174688500Y-91059500D03*
X176688500Y-89059500D03*
X176688500Y-95059500D03*
X174688500Y-95059500D03*
X174688500Y-89059500D03*
X176688500Y-91059500D03*
X176688500Y-93059500D03*
G04 #@! TO.N,*
X174688500Y-93059500D03*
G04 #@! TO.N,GND*
X197262500Y-67373500D03*
X197262500Y-69373500D03*
X195262500Y-69373500D03*
X195262500Y-71373500D03*
X197262500Y-71373500D03*
X195262500Y-67373500D03*
X203358500Y-66611500D03*
X203358500Y-68611500D03*
X201358500Y-68611500D03*
X201358500Y-70611500D03*
X203358500Y-70611500D03*
X201358500Y-66611500D03*
X203358500Y-72199500D03*
X203358500Y-74199500D03*
X201358500Y-74199500D03*
X201358500Y-76199500D03*
X203358500Y-76199500D03*
X201358500Y-72199500D03*
G04 #@! TO.N,*
X208216500Y-79597500D03*
X210216500Y-79597500D03*
X210216500Y-81597500D03*
X212216500Y-81597500D03*
X212216500Y-79597500D03*
X208216500Y-81597500D03*
X174134300Y-102595200D03*
X176134300Y-104595200D03*
X176134300Y-102595200D03*
X174134300Y-104595200D03*
G04 #@! TO.N,GND*
X179743100Y-100672900D03*
X202563000Y-132700300D03*
X200563000Y-130700300D03*
X202563000Y-130700300D03*
X200563000Y-132700300D03*
X173639000Y-131170200D03*
X175639000Y-133170200D03*
X175639000Y-131170200D03*
X173639000Y-133170200D03*
X197489600Y-121175300D03*
X199489600Y-123175300D03*
X199489600Y-121175300D03*
X197489600Y-123175300D03*
X197565800Y-116196900D03*
X199565800Y-118196900D03*
X199565800Y-116196900D03*
X197565800Y-118196900D03*
X173435800Y-118368600D03*
X175435800Y-120368600D03*
X175435800Y-118368600D03*
X173435800Y-120368600D03*
X174413700Y-113148900D03*
X176413700Y-115148900D03*
X176413700Y-113148900D03*
X174413700Y-115148900D03*
X241935000Y-78587600D03*
X241966500Y-80549500D03*
X239966500Y-80549500D03*
X239966500Y-82549500D03*
X241966500Y-82549500D03*
X239966500Y-78549500D03*
X236378500Y-120967500D03*
X236378500Y-122967500D03*
X234378500Y-122967500D03*
X234378500Y-124967500D03*
X236378500Y-124967500D03*
X234378500Y-120967500D03*
X199294500Y-147383500D03*
X199294500Y-149383500D03*
X197294500Y-149383500D03*
X197294500Y-151383500D03*
X199294500Y-151383500D03*
X197294500Y-147383500D03*
X200056500Y-140271500D03*
X200056500Y-142271500D03*
X198056500Y-142271500D03*
X198056500Y-144271500D03*
X200056500Y-144271500D03*
X198056500Y-140271500D03*
X168814500Y-121221500D03*
X166814500Y-123221500D03*
X166814500Y-125221500D03*
X166814500Y-121221500D03*
X172878500Y-121221500D03*
X172878500Y-123221500D03*
X170878500Y-123221500D03*
X170878500Y-125221500D03*
X172878500Y-125221500D03*
X170878500Y-121221500D03*
X195484500Y-137477500D03*
X195484500Y-139477500D03*
X193484500Y-139477500D03*
X193484500Y-141477500D03*
X195484500Y-141477500D03*
X193484500Y-137477500D03*
X205136500Y-121729500D03*
X205136500Y-123729500D03*
X203136500Y-123729500D03*
X203136500Y-125729500D03*
X205136500Y-125729500D03*
X203136500Y-121729500D03*
X235870500Y-136461500D03*
X235870500Y-138461500D03*
X233870500Y-138461500D03*
X233870500Y-140461500D03*
X235870500Y-140461500D03*
X233870500Y-136461500D03*
X229044500Y-138207500D03*
X229044500Y-140207500D03*
X229044500Y-136207500D03*
X248570500Y-121983500D03*
X248570500Y-123983500D03*
X246570500Y-123983500D03*
X246570500Y-125983500D03*
X248570500Y-125983500D03*
X246570500Y-121983500D03*
G04 #@! TO.N,+12V*
X215589063Y-73708225D03*
X227989157Y-65168131D03*
X215503065Y-66140225D03*
G04 #@! TO.N,GND*
X225278160Y-105549352D03*
X226294160Y-105549352D03*
X233357723Y-97976298D03*
X231882160Y-95929158D03*
X227310160Y-94405158D03*
X222230160Y-104057158D03*
X232856160Y-96437158D03*
X222230160Y-101517158D03*
X231882160Y-104565158D03*
X230358160Y-98469158D03*
X231882160Y-94405158D03*
X233406160Y-98977158D03*
X222230160Y-100501158D03*
X229431400Y-105598250D03*
X227979065Y-67434225D03*
X223407065Y-72006225D03*
X219845157Y-70369985D03*
X212231065Y-75562225D03*
X217819065Y-86230225D03*
X216780065Y-75539225D03*
X227448065Y-72491225D03*
X210684065Y-77063225D03*
X232020065Y-84175225D03*
X230496065Y-67411225D03*
X231512065Y-80111225D03*
X214240065Y-79095225D03*
X228464065Y-81127225D03*
X220867065Y-84706225D03*
G04 #@! TO.N,+3V3*
X227118749Y-102870261D03*
X225594749Y-102870261D03*
X228134749Y-102870261D03*
X225278160Y-99485158D03*
X226802160Y-97961158D03*
X222604565Y-80670725D03*
X211723065Y-72514225D03*
X209668065Y-72491225D03*
X220844065Y-77063225D03*
X216780065Y-79095225D03*
X217305157Y-77989985D03*
X216780065Y-84175225D03*
X218829157Y-71385985D03*
X212716065Y-82651225D03*
G04 #@! TO.N,-3V3*
X234823000Y-113626900D03*
G04 #@! TO.N,Net-(IC1-Pad25)*
X224770160Y-103041158D03*
G04 #@! TO.N,Net-(IC1-Pad3)*
X230666749Y-101604261D03*
G04 #@! TO.N,Net-(C50-Pad2)*
X230358160Y-99993158D03*
G04 #@! TO.N,Net-(IC1-Pad10)*
X224062749Y-98048261D03*
X224770160Y-96945158D03*
X224747829Y-98954827D03*
G04 #@! TO.N,+1V8*
X225693065Y-84452225D03*
G04 #@! TO.N,GND*
X230011065Y-62354225D03*
X190690500Y-137045700D03*
D18*
G04 #@! TO.N,+5V*
X177699990Y-106045540D03*
X192024000Y-106172000D03*
X217424000Y-108712000D03*
X241808000Y-108712000D03*
X242779812Y-105708158D03*
X220472000Y-87884000D03*
X233680000Y-86868000D03*
X233326075Y-80163235D03*
X220472000Y-91948000D03*
X196596006Y-91948000D03*
X192024000Y-90424000D03*
X234696000Y-88392000D03*
X224218500Y-63563500D03*
D17*
G04 #@! TO.N,GND*
X198056500Y-100647500D03*
X198056500Y-98107500D03*
X198056500Y-96837500D03*
X199326500Y-103187500D03*
X208216500Y-103187500D03*
X200596500Y-106997500D03*
X206946500Y-122237500D03*
X215836500Y-115887500D03*
X173926500Y-122237500D03*
X182816500Y-94297500D03*
X194246500Y-94297500D03*
X209486500Y-94297500D03*
X176466500Y-84137500D03*
X178701700Y-131635500D03*
X214009065Y-69212225D03*
X222440500Y-72961500D03*
X221424500Y-72961500D03*
X227520500Y-76517500D03*
X232600500Y-76263500D03*
X233616500Y-76263500D03*
X239374342Y-74545924D03*
X238358342Y-74545924D03*
X237596342Y-74545924D03*
X236580342Y-74291924D03*
X235564342Y-74291924D03*
X199072500Y-106997500D03*
X198564500Y-111569500D03*
X200088500Y-115379500D03*
X213550500Y-106489500D03*
X213550500Y-106489500D03*
X213550500Y-106489500D03*
X243522500Y-95059500D03*
X245808500Y-109283500D03*
X248094500Y-109029500D03*
X245808500Y-115379500D03*
X242760500Y-115633500D03*
X202882500Y-134937500D03*
X204882500Y-134937500D03*
X206882500Y-134937500D03*
X208882500Y-134937500D03*
X210882500Y-134937500D03*
X212882500Y-134937500D03*
X214882500Y-134937500D03*
X216882500Y-134937500D03*
X218882500Y-134937500D03*
X220882500Y-134937500D03*
X202882500Y-136937500D03*
X204882500Y-136937500D03*
X206882500Y-136937500D03*
X208882500Y-136937500D03*
X210882500Y-136937500D03*
X212882500Y-136937500D03*
X214882500Y-136937500D03*
X216882500Y-136937500D03*
X218882500Y-136937500D03*
X220882500Y-136937500D03*
X202882500Y-138937500D03*
X204882500Y-138937500D03*
X206882500Y-138937500D03*
X208882500Y-138937500D03*
X210882500Y-138937500D03*
X212882500Y-138937500D03*
X214882500Y-138937500D03*
X216882500Y-138937500D03*
X218882500Y-138937500D03*
X220882500Y-138937500D03*
X202882500Y-140937500D03*
X204882500Y-140937500D03*
X206882500Y-140937500D03*
X208882500Y-140937500D03*
X210882500Y-140937500D03*
X212882500Y-140937500D03*
X214882500Y-140937500D03*
X216882500Y-140937500D03*
X218882500Y-140937500D03*
X220882500Y-140937500D03*
X202882500Y-142937500D03*
X204882500Y-142937500D03*
X206882500Y-142937500D03*
X208882500Y-142937500D03*
X210882500Y-142937500D03*
X212882500Y-142937500D03*
X214882500Y-142937500D03*
X216882500Y-142937500D03*
X218882500Y-142937500D03*
X220882500Y-142937500D03*
X202882500Y-144937500D03*
X204882500Y-144937500D03*
X206882500Y-144937500D03*
X208882500Y-144937500D03*
X210882500Y-144937500D03*
X212882500Y-144937500D03*
X214882500Y-144937500D03*
X216882500Y-144937500D03*
X218882500Y-144937500D03*
X220882500Y-144937500D03*
X202882500Y-146937500D03*
X204882500Y-146937500D03*
X206882500Y-146937500D03*
X208882500Y-146937500D03*
X210882500Y-146937500D03*
X212882500Y-146937500D03*
X214882500Y-146937500D03*
X216882500Y-146937500D03*
X218882500Y-146937500D03*
X220882500Y-146937500D03*
X202882500Y-148937500D03*
X204882500Y-148937500D03*
X206882500Y-148937500D03*
X208882500Y-148937500D03*
X210882500Y-148937500D03*
X212882500Y-148937500D03*
X214882500Y-148937500D03*
X216882500Y-148937500D03*
X218882500Y-148937500D03*
X220882500Y-148937500D03*
X202882500Y-150937500D03*
X204882500Y-150937500D03*
X206882500Y-150937500D03*
X208882500Y-150937500D03*
X210882500Y-150937500D03*
X212882500Y-150937500D03*
X214882500Y-150937500D03*
X216882500Y-150937500D03*
X218882500Y-150937500D03*
X220882500Y-150937500D03*
X202882500Y-152937500D03*
X204882500Y-152937500D03*
X206882500Y-152937500D03*
X208882500Y-152937500D03*
X210882500Y-152937500D03*
X212882500Y-152937500D03*
X214882500Y-152937500D03*
X216882500Y-152937500D03*
X218882500Y-152937500D03*
X220882500Y-152937500D03*
X247840500Y-99720400D03*
X231749600Y-116281200D03*
X222491300Y-77571600D03*
X223227900Y-77597000D03*
X166420800Y-118262400D03*
X166027100Y-115404900D03*
X165608000Y-99237800D03*
X165836600Y-97459800D03*
X163918900Y-94310200D03*
X168630600Y-70586600D03*
X173863000Y-69189600D03*
X253174500Y-121145300D03*
X251663200Y-137477500D03*
X253174500Y-126072900D03*
X253174500Y-124853700D03*
X252933200Y-123494800D03*
X253174500Y-122529600D03*
X248297700Y-98272600D03*
X250710700Y-93903800D03*
X181800500Y-122085100D03*
X177609500Y-122415300D03*
X181457600Y-124752100D03*
X179057300Y-124790200D03*
X183476900Y-97015300D03*
X176517300Y-97764600D03*
X179311300Y-104508300D03*
X181483000Y-115138200D03*
X181521100Y-117894100D03*
X178676300Y-117995700D03*
X178650900Y-123875800D03*
X180809900Y-103187500D03*
X179095400Y-103136700D03*
X180962300Y-100647500D03*
X177787300Y-82664300D03*
X178866800Y-115074700D03*
X181546500Y-123863100D03*
X181889400Y-107302300D03*
D18*
X181940200Y-109753400D03*
X186575700Y-109613700D03*
X168313100Y-123444000D03*
X168617900Y-124866400D03*
X170802300Y-115354100D03*
X181686200Y-89865200D03*
X247243600Y-94589600D03*
D17*
X230772990Y-140207500D03*
X230772990Y-136207500D03*
X230772990Y-138207500D03*
X183222900Y-92341700D03*
X181229000Y-94399100D03*
X189077600Y-95084900D03*
X188620400Y-90119200D03*
D18*
G04 #@! TO.N,+5V*
X179298600Y-139560300D03*
X179920900Y-106045540D03*
X196596006Y-140271500D03*
D17*
G04 #@! TO.N,/USB/D00-*
X239465012Y-91256012D03*
X237172500Y-102075500D03*
X238979500Y-96676699D03*
G04 #@! TO.N,/USB/D00+*
X239959988Y-91750988D03*
X237172500Y-102775500D03*
X239429500Y-96490301D03*
D18*
G04 #@! TO.N,+3V3*
X200660000Y-121920000D03*
X202184000Y-78740000D03*
X204406500Y-117250009D03*
X204216000Y-115697000D03*
X205422500Y-80137000D03*
X220916500Y-85656225D03*
D17*
G04 #@! TO.N,-3V3*
X234823000Y-113626900D03*
X217424000Y-113792000D03*
X212026500Y-114118901D03*
X212026500Y-87984225D03*
G04 #@! TO.N,-5V*
X243840000Y-107188000D03*
X241808000Y-110236000D03*
X217424000Y-110236000D03*
X167640000Y-107696000D03*
X192532000Y-108712000D03*
X244030500Y-99885500D03*
X237426500Y-85407500D03*
G04 #@! TO.N,Net-(C1-Pad1)*
X180577200Y-146934900D03*
G04 #@! TO.N,Net-(C2-Pad1)*
X191185800Y-126123700D03*
D18*
G04 #@! TO.N,HT*
X178816000Y-109728000D03*
X208470500Y-111286000D03*
X172085000Y-85407500D03*
X171704000Y-109673110D03*
X207187800Y-88785700D03*
X215557100Y-111286000D03*
X209232500Y-121539000D03*
X245681500Y-121932700D03*
D17*
G04 #@! TO.N,+1V8*
X217424000Y-112268000D03*
X178816000Y-111252000D03*
X193548000Y-111252000D03*
X242316000Y-112268012D03*
X225996500Y-90487500D03*
X210756500Y-112585500D03*
X210756500Y-94297500D03*
D19*
G04 #@! TO.N,+12V*
X197104000Y-61976000D03*
D18*
X167640000Y-100557550D03*
X178816000Y-100584000D03*
X199136000Y-88392000D03*
X197267500Y-74077500D03*
X178816000Y-88392000D03*
X199535999Y-100584000D03*
X215392000Y-100584000D03*
X215392000Y-107188000D03*
X231648000Y-106680000D03*
X240792000Y-106680000D03*
X240792000Y-101600000D03*
G04 #@! TO.N,VAA*
X232346500Y-119380000D03*
G04 #@! TO.N,VD*
X176720500Y-127179999D03*
X177120499Y-127579998D03*
D17*
X177120499Y-127579998D03*
G04 #@! TO.N,LO*
X201041000Y-133648158D03*
D18*
G04 #@! TO.N,VDC*
X237172500Y-129719999D03*
D17*
G04 #@! TO.N,S3*
X234188000Y-105156000D03*
X216916000Y-105664000D03*
X185420000Y-106860540D03*
G04 #@! TO.N,S2*
X216408000Y-104648000D03*
X233680000Y-104648000D03*
G04 #@! TO.N,S1*
X236728000Y-105664000D03*
X218948000Y-105664000D03*
X236664500Y-103441500D03*
G04 #@! TO.N,S0*
X249428000Y-101092000D03*
X234696000Y-100584000D03*
X218948000Y-101092000D03*
G04 #@! TO.N,SCLK0*
X234738570Y-99102570D03*
X219456000Y-99060000D03*
X249741882Y-99100772D03*
G04 #@! TO.N,MISO0*
X233172000Y-97454807D03*
X219964000Y-97594901D03*
G04 #@! TO.N,S3*
X168071800Y-106860540D03*
G04 #@! TO.N,S2*
X181049868Y-104940100D03*
G04 #@! TO.N,S1*
X181495700Y-126161800D03*
X177038000Y-125996700D03*
X177038000Y-103802609D03*
G04 #@! TO.N,S0*
X181356000Y-121170700D03*
X178181000Y-121119900D03*
X178219100Y-101600000D03*
G04 #@! TO.N,SCLK0*
X190588900Y-118505000D03*
X195591400Y-118505000D03*
X195580000Y-99568000D03*
G04 #@! TO.N,MOSI0*
X190931800Y-123621800D03*
X192671700Y-123723400D03*
X186347100Y-98348800D03*
X193090800Y-99085400D03*
X218236800Y-98933000D03*
X234797600Y-99733100D03*
X249821700Y-100126800D03*
X165696900Y-98358740D03*
G04 #@! TO.N,MISO0*
X190957200Y-97594901D03*
G04 #@! TO.N,D2+*
X217163488Y-95751488D03*
X218282000Y-90424000D03*
G04 #@! TO.N,D2-*
X216668512Y-95256512D03*
X217582000Y-90424000D03*
G04 #@! TD*
D20*
G04 #@! TO.N,-3V3*
X234812957Y-113616857D02*
X234823000Y-113626900D01*
D21*
G04 #@! TO.N,+5V*
X191897540Y-106045540D02*
X192024000Y-106172000D01*
X217424000Y-108712000D02*
X241808000Y-108712000D01*
D20*
G04 #@! TO.N,GND*
X247840500Y-99720400D02*
X247840500Y-98729800D01*
X247840500Y-98729800D02*
X248072701Y-98497599D01*
X249910600Y-98272600D02*
X248615898Y-98272600D01*
X251015500Y-99377500D02*
X249910600Y-98272600D01*
X248615898Y-98272600D02*
X248297700Y-98272600D01*
X248072701Y-98497599D02*
X248297700Y-98272600D01*
D21*
G04 #@! TO.N,+5V*
X178265675Y-106045540D02*
X177699990Y-106045540D01*
X185937662Y-106172000D02*
X185811202Y-106045540D01*
X192024000Y-106172000D02*
X185937662Y-106172000D01*
X185811202Y-106045540D02*
X179920900Y-106045540D01*
X179920900Y-106045540D02*
X178265675Y-106045540D01*
G04 #@! TO.N,-3V3*
X217859090Y-113356910D02*
X217424000Y-113792000D01*
X234823000Y-113626900D02*
X234553010Y-113356910D01*
X234553010Y-113356910D02*
X217859090Y-113356910D01*
G04 #@! TO.N,-5V*
X241808000Y-110236000D02*
X217424000Y-110236000D01*
D22*
X243840000Y-100076000D02*
X244030500Y-99885500D01*
X243840000Y-107188000D02*
X243840000Y-100076000D01*
D21*
X192307001Y-108487001D02*
X192532000Y-108712000D01*
X192214500Y-108394500D02*
X192307001Y-108487001D01*
X167640000Y-107696000D02*
X168338500Y-108394500D01*
X168338500Y-108394500D02*
X192214500Y-108394500D01*
G04 #@! TO.N,+1V8*
X217424000Y-112268000D02*
X242315988Y-112268000D01*
X242315988Y-112268000D02*
X242316000Y-112268012D01*
X211074698Y-94297500D02*
X210756500Y-94297500D01*
X222186500Y-94297500D02*
X211074698Y-94297500D01*
X225996500Y-90487500D02*
X222186500Y-94297500D01*
X179286409Y-111404211D02*
X181911773Y-111404211D01*
X181911773Y-111404211D02*
X182063984Y-111252000D01*
X182063984Y-111252000D02*
X193229802Y-111252000D01*
X193229802Y-111252000D02*
X193548000Y-111252000D01*
X178816000Y-111252000D02*
X179134198Y-111252000D01*
X179134198Y-111252000D02*
X179286409Y-111404211D01*
G04 #@! TO.N,+12V*
X216241526Y-106904159D02*
X225327841Y-106904159D01*
X215392000Y-107188000D02*
X215957685Y-107188000D01*
X215957685Y-107188000D02*
X216241526Y-106904159D01*
X225327841Y-106904159D02*
X231423841Y-106904159D01*
X231423841Y-106904159D02*
X231648000Y-106680000D01*
D23*
G04 #@! TO.N,S3*
X234188000Y-105156000D02*
X217424000Y-105156000D01*
X217424000Y-105156000D02*
X216916000Y-105664000D01*
G04 #@! TO.N,S2*
X233404491Y-104923509D02*
X233680000Y-104648000D01*
X216408000Y-104648000D02*
X216683509Y-104923509D01*
X216683509Y-104923509D02*
X233404491Y-104923509D01*
G04 #@! TO.N,S1*
X224862448Y-105664000D02*
X218948000Y-105664000D01*
X225155049Y-105956601D02*
X224862448Y-105664000D01*
X236728000Y-105664000D02*
X236435399Y-105956601D01*
X236435399Y-105956601D02*
X225155049Y-105956601D01*
G04 #@! TO.N,S0*
X234696000Y-100584000D02*
X234188000Y-101092000D01*
X234188000Y-101092000D02*
X218948000Y-101092000D01*
G04 #@! TO.N,SCLK0*
X219456000Y-99060000D02*
X219709178Y-99313178D01*
X219709178Y-99313178D02*
X224919838Y-99313178D01*
X234505631Y-99335509D02*
X234738570Y-99102570D01*
X224919838Y-99313178D02*
X225173016Y-99060000D01*
X233234151Y-99335509D02*
X234505631Y-99335509D01*
X232958642Y-99060000D02*
X233234151Y-99335509D01*
X225173016Y-99060000D02*
X232958642Y-99060000D01*
G04 #@! TO.N,MISO0*
X220104094Y-97454807D02*
X219964000Y-97594901D01*
X233172000Y-97454807D02*
X220104094Y-97454807D01*
G04 #@! TO.N,S3*
X167547811Y-106336551D02*
X168071800Y-106860540D01*
X163511951Y-106336551D02*
X167547811Y-106336551D01*
X162877500Y-105702100D02*
X163511951Y-106336551D01*
D24*
G04 #@! TO.N,MOSI0*
X186347100Y-98348800D02*
X187083700Y-99085400D01*
X187083700Y-99085400D02*
X193090800Y-99085400D01*
X234698757Y-99634257D02*
X234797600Y-99733100D01*
X230185887Y-99634257D02*
X234698757Y-99634257D01*
X229974985Y-99845159D02*
X230185887Y-99634257D01*
X218236800Y-98933000D02*
X219148959Y-99845159D01*
X219148959Y-99845159D02*
X229974985Y-99845159D01*
D23*
X163398159Y-98858159D02*
X162898160Y-99358158D01*
X163551918Y-98704400D02*
X163398159Y-98858159D01*
X164462560Y-98704400D02*
X164448211Y-98718749D01*
X164448211Y-98718749D02*
X163846789Y-98718749D01*
X164489278Y-98704400D02*
X164462560Y-98704400D01*
X163846789Y-98718749D02*
X163832440Y-98704400D01*
X164641678Y-98552000D02*
X164489278Y-98704400D01*
X163832440Y-98704400D02*
X163551918Y-98704400D01*
D24*
X164641678Y-98552000D02*
X164834938Y-98358740D01*
X165378702Y-98358740D02*
X165696900Y-98358740D01*
X164834938Y-98358740D02*
X165378702Y-98358740D01*
G04 #@! TD*
D25*
G04 #@! TO.N,+5V*
G36*
X229281993Y-62841376D02*
X229523914Y-63083297D01*
X229840000Y-63214225D01*
X230182130Y-63214225D01*
X230498216Y-63083297D01*
X230740137Y-62841376D01*
X230809260Y-62674500D01*
X236029500Y-62674500D01*
X236029500Y-73553742D01*
X235735407Y-73431924D01*
X235393277Y-73431924D01*
X235077191Y-73562852D01*
X234835270Y-73804773D01*
X234704342Y-74120859D01*
X234704342Y-74462989D01*
X234835270Y-74779075D01*
X235077191Y-75020996D01*
X235317413Y-75120500D01*
X223583500Y-75120500D01*
X223583500Y-72864001D01*
X223894216Y-72735297D01*
X224136137Y-72493376D01*
X224207885Y-72320160D01*
X226588065Y-72320160D01*
X226588065Y-72662290D01*
X226718993Y-72978376D01*
X226960914Y-73220297D01*
X227277000Y-73351225D01*
X227619130Y-73351225D01*
X227935216Y-73220297D01*
X228177137Y-72978376D01*
X228308065Y-72662290D01*
X228308065Y-72320160D01*
X228177137Y-72004074D01*
X227935216Y-71762153D01*
X227619130Y-71631225D01*
X227277000Y-71631225D01*
X226960914Y-71762153D01*
X226718993Y-72004074D01*
X226588065Y-72320160D01*
X224207885Y-72320160D01*
X224267065Y-72177290D01*
X224267065Y-71835160D01*
X224136137Y-71519074D01*
X223894216Y-71277153D01*
X223583500Y-71148449D01*
X223583500Y-69783474D01*
X223871216Y-69664297D01*
X224113137Y-69422376D01*
X224244065Y-69106290D01*
X224244065Y-68764160D01*
X224113137Y-68448074D01*
X223871216Y-68206153D01*
X223583500Y-68086976D01*
X223583500Y-67263160D01*
X227119065Y-67263160D01*
X227119065Y-67605290D01*
X227249993Y-67921376D01*
X227491914Y-68163297D01*
X227808000Y-68294225D01*
X228150130Y-68294225D01*
X228466216Y-68163297D01*
X228708137Y-67921376D01*
X228839065Y-67605290D01*
X228839065Y-67263160D01*
X228829539Y-67240160D01*
X229636065Y-67240160D01*
X229636065Y-67582290D01*
X229766993Y-67898376D01*
X230008914Y-68140297D01*
X230325000Y-68271225D01*
X230667130Y-68271225D01*
X230983216Y-68140297D01*
X231225137Y-67898376D01*
X231356065Y-67582290D01*
X231356065Y-67240160D01*
X231225137Y-66924074D01*
X230983216Y-66682153D01*
X230667130Y-66551225D01*
X230325000Y-66551225D01*
X230008914Y-66682153D01*
X229766993Y-66924074D01*
X229636065Y-67240160D01*
X228829539Y-67240160D01*
X228708137Y-66947074D01*
X228466216Y-66705153D01*
X228150130Y-66574225D01*
X227808000Y-66574225D01*
X227491914Y-66705153D01*
X227249993Y-66947074D01*
X227119065Y-67263160D01*
X223583500Y-67263160D01*
X223583500Y-64997066D01*
X227129157Y-64997066D01*
X227129157Y-65339196D01*
X227260085Y-65655282D01*
X227502006Y-65897203D01*
X227818092Y-66028131D01*
X228160222Y-66028131D01*
X228476308Y-65897203D01*
X228718229Y-65655282D01*
X228849157Y-65339196D01*
X228849157Y-64997066D01*
X228718229Y-64680980D01*
X228476308Y-64439059D01*
X228160222Y-64308131D01*
X227818092Y-64308131D01*
X227502006Y-64439059D01*
X227260085Y-64680980D01*
X227129157Y-64997066D01*
X223583500Y-64997066D01*
X223583500Y-62674500D01*
X229212870Y-62674500D01*
X229281993Y-62841376D01*
X229281993Y-62841376D01*
G37*
X229281993Y-62841376D02*
X229523914Y-63083297D01*
X229840000Y-63214225D01*
X230182130Y-63214225D01*
X230498216Y-63083297D01*
X230740137Y-62841376D01*
X230809260Y-62674500D01*
X236029500Y-62674500D01*
X236029500Y-73553742D01*
X235735407Y-73431924D01*
X235393277Y-73431924D01*
X235077191Y-73562852D01*
X234835270Y-73804773D01*
X234704342Y-74120859D01*
X234704342Y-74462989D01*
X234835270Y-74779075D01*
X235077191Y-75020996D01*
X235317413Y-75120500D01*
X223583500Y-75120500D01*
X223583500Y-72864001D01*
X223894216Y-72735297D01*
X224136137Y-72493376D01*
X224207885Y-72320160D01*
X226588065Y-72320160D01*
X226588065Y-72662290D01*
X226718993Y-72978376D01*
X226960914Y-73220297D01*
X227277000Y-73351225D01*
X227619130Y-73351225D01*
X227935216Y-73220297D01*
X228177137Y-72978376D01*
X228308065Y-72662290D01*
X228308065Y-72320160D01*
X228177137Y-72004074D01*
X227935216Y-71762153D01*
X227619130Y-71631225D01*
X227277000Y-71631225D01*
X226960914Y-71762153D01*
X226718993Y-72004074D01*
X226588065Y-72320160D01*
X224207885Y-72320160D01*
X224267065Y-72177290D01*
X224267065Y-71835160D01*
X224136137Y-71519074D01*
X223894216Y-71277153D01*
X223583500Y-71148449D01*
X223583500Y-69783474D01*
X223871216Y-69664297D01*
X224113137Y-69422376D01*
X224244065Y-69106290D01*
X224244065Y-68764160D01*
X224113137Y-68448074D01*
X223871216Y-68206153D01*
X223583500Y-68086976D01*
X223583500Y-67263160D01*
X227119065Y-67263160D01*
X227119065Y-67605290D01*
X227249993Y-67921376D01*
X227491914Y-68163297D01*
X227808000Y-68294225D01*
X228150130Y-68294225D01*
X228466216Y-68163297D01*
X228708137Y-67921376D01*
X228839065Y-67605290D01*
X228839065Y-67263160D01*
X228829539Y-67240160D01*
X229636065Y-67240160D01*
X229636065Y-67582290D01*
X229766993Y-67898376D01*
X230008914Y-68140297D01*
X230325000Y-68271225D01*
X230667130Y-68271225D01*
X230983216Y-68140297D01*
X231225137Y-67898376D01*
X231356065Y-67582290D01*
X231356065Y-67240160D01*
X231225137Y-66924074D01*
X230983216Y-66682153D01*
X230667130Y-66551225D01*
X230325000Y-66551225D01*
X230008914Y-66682153D01*
X229766993Y-66924074D01*
X229636065Y-67240160D01*
X228829539Y-67240160D01*
X228708137Y-66947074D01*
X228466216Y-66705153D01*
X228150130Y-66574225D01*
X227808000Y-66574225D01*
X227491914Y-66705153D01*
X227249993Y-66947074D01*
X227119065Y-67263160D01*
X223583500Y-67263160D01*
X223583500Y-64997066D01*
X227129157Y-64997066D01*
X227129157Y-65339196D01*
X227260085Y-65655282D01*
X227502006Y-65897203D01*
X227818092Y-66028131D01*
X228160222Y-66028131D01*
X228476308Y-65897203D01*
X228718229Y-65655282D01*
X228849157Y-65339196D01*
X228849157Y-64997066D01*
X228718229Y-64680980D01*
X228476308Y-64439059D01*
X228160222Y-64308131D01*
X227818092Y-64308131D01*
X227502006Y-64439059D01*
X227260085Y-64680980D01*
X227129157Y-64997066D01*
X223583500Y-64997066D01*
X223583500Y-62674500D01*
X229212870Y-62674500D01*
X229281993Y-62841376D01*
G04 #@! TO.N,+3V3*
G36*
X206116500Y-70502435D02*
X206116500Y-70844565D01*
X206247428Y-71160651D01*
X206489349Y-71402572D01*
X206805435Y-71533500D01*
X207147565Y-71533500D01*
X207463651Y-71402572D01*
X207705572Y-71160651D01*
X207836500Y-70844565D01*
X207836500Y-70502435D01*
X207750370Y-70294500D01*
X208202630Y-70294500D01*
X208116500Y-70502435D01*
X208116500Y-70844565D01*
X208247428Y-71160651D01*
X208489349Y-71402572D01*
X208805435Y-71533500D01*
X209147565Y-71533500D01*
X209463651Y-71402572D01*
X209705572Y-71160651D01*
X209836500Y-70844565D01*
X209836500Y-70502435D01*
X209750370Y-70294500D01*
X210202630Y-70294500D01*
X210116500Y-70502435D01*
X210116500Y-70844565D01*
X210247428Y-71160651D01*
X210489349Y-71402572D01*
X210805435Y-71533500D01*
X211147565Y-71533500D01*
X211463651Y-71402572D01*
X211705572Y-71160651D01*
X211836500Y-70844565D01*
X211836500Y-70502435D01*
X211750370Y-70294500D01*
X218985157Y-70294500D01*
X218985157Y-70541050D01*
X219116085Y-70857136D01*
X219358006Y-71099057D01*
X219674092Y-71229985D01*
X220016222Y-71229985D01*
X220332308Y-71099057D01*
X220574229Y-70857136D01*
X220705157Y-70541050D01*
X220705157Y-70294500D01*
X222059500Y-70294500D01*
X222059500Y-72188459D01*
X221953349Y-72232428D01*
X221932500Y-72253277D01*
X221911651Y-72232428D01*
X221595565Y-72101500D01*
X221253435Y-72101500D01*
X220937349Y-72232428D01*
X220695428Y-72474349D01*
X220564500Y-72790435D01*
X220564500Y-73132565D01*
X220695428Y-73448651D01*
X220937349Y-73690572D01*
X221253435Y-73821500D01*
X221595565Y-73821500D01*
X221911651Y-73690572D01*
X221932500Y-73669723D01*
X221953349Y-73690572D01*
X222059500Y-73734541D01*
X222059500Y-76819601D01*
X222004149Y-76842528D01*
X221762228Y-77084449D01*
X221631300Y-77400535D01*
X221631300Y-77742665D01*
X221762228Y-78058751D01*
X222004149Y-78300672D01*
X222059500Y-78323599D01*
X222059500Y-86550500D01*
X218617260Y-86550500D01*
X218679065Y-86401290D01*
X218679065Y-86059160D01*
X218548137Y-85743074D01*
X218306216Y-85501153D01*
X217990130Y-85370225D01*
X217648000Y-85370225D01*
X217331914Y-85501153D01*
X217089993Y-85743074D01*
X216959065Y-86059160D01*
X216959065Y-86401290D01*
X217020870Y-86550500D01*
X204533500Y-86550500D01*
X204533500Y-84535160D01*
X220007065Y-84535160D01*
X220007065Y-84877290D01*
X220137993Y-85193376D01*
X220379914Y-85435297D01*
X220696000Y-85566225D01*
X221038130Y-85566225D01*
X221354216Y-85435297D01*
X221596137Y-85193376D01*
X221727065Y-84877290D01*
X221727065Y-84535160D01*
X221596137Y-84219074D01*
X221354216Y-83977153D01*
X221038130Y-83846225D01*
X220696000Y-83846225D01*
X220379914Y-83977153D01*
X220137993Y-84219074D01*
X220007065Y-84535160D01*
X204533500Y-84535160D01*
X204533500Y-81426435D01*
X207356500Y-81426435D01*
X207356500Y-81768565D01*
X207487428Y-82084651D01*
X207729349Y-82326572D01*
X208045435Y-82457500D01*
X208387565Y-82457500D01*
X208703651Y-82326572D01*
X208945572Y-82084651D01*
X209076500Y-81768565D01*
X209076500Y-81426435D01*
X209356500Y-81426435D01*
X209356500Y-81768565D01*
X209487428Y-82084651D01*
X209729349Y-82326572D01*
X210045435Y-82457500D01*
X210387565Y-82457500D01*
X210703651Y-82326572D01*
X210945572Y-82084651D01*
X211076500Y-81768565D01*
X211076500Y-81426435D01*
X211356500Y-81426435D01*
X211356500Y-81768565D01*
X211487428Y-82084651D01*
X211729349Y-82326572D01*
X212045435Y-82457500D01*
X212387565Y-82457500D01*
X212703651Y-82326572D01*
X212945572Y-82084651D01*
X213076500Y-81768565D01*
X213076500Y-81426435D01*
X212945572Y-81110349D01*
X212703651Y-80868428D01*
X212387565Y-80737500D01*
X212045435Y-80737500D01*
X211729349Y-80868428D01*
X211487428Y-81110349D01*
X211356500Y-81426435D01*
X211076500Y-81426435D01*
X210945572Y-81110349D01*
X210703651Y-80868428D01*
X210387565Y-80737500D01*
X210045435Y-80737500D01*
X209729349Y-80868428D01*
X209487428Y-81110349D01*
X209356500Y-81426435D01*
X209076500Y-81426435D01*
X208945572Y-81110349D01*
X208703651Y-80868428D01*
X208387565Y-80737500D01*
X208045435Y-80737500D01*
X207729349Y-80868428D01*
X207487428Y-81110349D01*
X207356500Y-81426435D01*
X204533500Y-81426435D01*
X204533500Y-79426435D01*
X207356500Y-79426435D01*
X207356500Y-79768565D01*
X207487428Y-80084651D01*
X207729349Y-80326572D01*
X208045435Y-80457500D01*
X208387565Y-80457500D01*
X208703651Y-80326572D01*
X208945572Y-80084651D01*
X209076500Y-79768565D01*
X209076500Y-79426435D01*
X209356500Y-79426435D01*
X209356500Y-79768565D01*
X209487428Y-80084651D01*
X209729349Y-80326572D01*
X210045435Y-80457500D01*
X210387565Y-80457500D01*
X210703651Y-80326572D01*
X210945572Y-80084651D01*
X211076500Y-79768565D01*
X211076500Y-79426435D01*
X211356500Y-79426435D01*
X211356500Y-79768565D01*
X211487428Y-80084651D01*
X211729349Y-80326572D01*
X212045435Y-80457500D01*
X212387565Y-80457500D01*
X212703651Y-80326572D01*
X212945572Y-80084651D01*
X213076500Y-79768565D01*
X213076500Y-79426435D01*
X212945572Y-79110349D01*
X212759383Y-78924160D01*
X213380065Y-78924160D01*
X213380065Y-79266290D01*
X213510993Y-79582376D01*
X213752914Y-79824297D01*
X214069000Y-79955225D01*
X214411130Y-79955225D01*
X214727216Y-79824297D01*
X214969137Y-79582376D01*
X215100065Y-79266290D01*
X215100065Y-78924160D01*
X214969137Y-78608074D01*
X214727216Y-78366153D01*
X214411130Y-78235225D01*
X214069000Y-78235225D01*
X213752914Y-78366153D01*
X213510993Y-78608074D01*
X213380065Y-78924160D01*
X212759383Y-78924160D01*
X212703651Y-78868428D01*
X212387565Y-78737500D01*
X212045435Y-78737500D01*
X211729349Y-78868428D01*
X211487428Y-79110349D01*
X211356500Y-79426435D01*
X211076500Y-79426435D01*
X210945572Y-79110349D01*
X210703651Y-78868428D01*
X210387565Y-78737500D01*
X210045435Y-78737500D01*
X209729349Y-78868428D01*
X209487428Y-79110349D01*
X209356500Y-79426435D01*
X209076500Y-79426435D01*
X208945572Y-79110349D01*
X208703651Y-78868428D01*
X208387565Y-78737500D01*
X208045435Y-78737500D01*
X207729349Y-78868428D01*
X207487428Y-79110349D01*
X207356500Y-79426435D01*
X204533500Y-79426435D01*
X204533500Y-76892160D01*
X209824065Y-76892160D01*
X209824065Y-77234290D01*
X209954993Y-77550376D01*
X210196914Y-77792297D01*
X210513000Y-77923225D01*
X210855130Y-77923225D01*
X211171216Y-77792297D01*
X211413137Y-77550376D01*
X211544065Y-77234290D01*
X211544065Y-76892160D01*
X211413137Y-76576074D01*
X211171216Y-76334153D01*
X210855130Y-76203225D01*
X210513000Y-76203225D01*
X210196914Y-76334153D01*
X209954993Y-76576074D01*
X209824065Y-76892160D01*
X204533500Y-76892160D01*
X204533500Y-75391160D01*
X211371065Y-75391160D01*
X211371065Y-75733290D01*
X211501993Y-76049376D01*
X211743914Y-76291297D01*
X212060000Y-76422225D01*
X212402130Y-76422225D01*
X212718216Y-76291297D01*
X212960137Y-76049376D01*
X213091065Y-75733290D01*
X213091065Y-75391160D01*
X213081539Y-75368160D01*
X215920065Y-75368160D01*
X215920065Y-75710290D01*
X216050993Y-76026376D01*
X216292914Y-76268297D01*
X216609000Y-76399225D01*
X216951130Y-76399225D01*
X217267216Y-76268297D01*
X217509137Y-76026376D01*
X217640065Y-75710290D01*
X217640065Y-75368160D01*
X217509137Y-75052074D01*
X217267216Y-74810153D01*
X216951130Y-74679225D01*
X216609000Y-74679225D01*
X216292914Y-74810153D01*
X216050993Y-75052074D01*
X215920065Y-75368160D01*
X213081539Y-75368160D01*
X212960137Y-75075074D01*
X212718216Y-74833153D01*
X212402130Y-74702225D01*
X212060000Y-74702225D01*
X211743914Y-74833153D01*
X211501993Y-75075074D01*
X211371065Y-75391160D01*
X204533500Y-75391160D01*
X204533500Y-73537160D01*
X214729063Y-73537160D01*
X214729063Y-73879290D01*
X214859991Y-74195376D01*
X215101912Y-74437297D01*
X215417998Y-74568225D01*
X215760128Y-74568225D01*
X216076214Y-74437297D01*
X216318135Y-74195376D01*
X216449063Y-73879290D01*
X216449063Y-73537160D01*
X216318135Y-73221074D01*
X216076214Y-72979153D01*
X215760128Y-72848225D01*
X215417998Y-72848225D01*
X215101912Y-72979153D01*
X214859991Y-73221074D01*
X214729063Y-73537160D01*
X204533500Y-73537160D01*
X204533500Y-71420860D01*
X204805435Y-71533500D01*
X205147565Y-71533500D01*
X205463651Y-71402572D01*
X205705572Y-71160651D01*
X205836500Y-70844565D01*
X205836500Y-70502435D01*
X205750370Y-70294500D01*
X206202630Y-70294500D01*
X206116500Y-70502435D01*
X206116500Y-70502435D01*
G37*
X206116500Y-70502435D02*
X206116500Y-70844565D01*
X206247428Y-71160651D01*
X206489349Y-71402572D01*
X206805435Y-71533500D01*
X207147565Y-71533500D01*
X207463651Y-71402572D01*
X207705572Y-71160651D01*
X207836500Y-70844565D01*
X207836500Y-70502435D01*
X207750370Y-70294500D01*
X208202630Y-70294500D01*
X208116500Y-70502435D01*
X208116500Y-70844565D01*
X208247428Y-71160651D01*
X208489349Y-71402572D01*
X208805435Y-71533500D01*
X209147565Y-71533500D01*
X209463651Y-71402572D01*
X209705572Y-71160651D01*
X209836500Y-70844565D01*
X209836500Y-70502435D01*
X209750370Y-70294500D01*
X210202630Y-70294500D01*
X210116500Y-70502435D01*
X210116500Y-70844565D01*
X210247428Y-71160651D01*
X210489349Y-71402572D01*
X210805435Y-71533500D01*
X211147565Y-71533500D01*
X211463651Y-71402572D01*
X211705572Y-71160651D01*
X211836500Y-70844565D01*
X211836500Y-70502435D01*
X211750370Y-70294500D01*
X218985157Y-70294500D01*
X218985157Y-70541050D01*
X219116085Y-70857136D01*
X219358006Y-71099057D01*
X219674092Y-71229985D01*
X220016222Y-71229985D01*
X220332308Y-71099057D01*
X220574229Y-70857136D01*
X220705157Y-70541050D01*
X220705157Y-70294500D01*
X222059500Y-70294500D01*
X222059500Y-72188459D01*
X221953349Y-72232428D01*
X221932500Y-72253277D01*
X221911651Y-72232428D01*
X221595565Y-72101500D01*
X221253435Y-72101500D01*
X220937349Y-72232428D01*
X220695428Y-72474349D01*
X220564500Y-72790435D01*
X220564500Y-73132565D01*
X220695428Y-73448651D01*
X220937349Y-73690572D01*
X221253435Y-73821500D01*
X221595565Y-73821500D01*
X221911651Y-73690572D01*
X221932500Y-73669723D01*
X221953349Y-73690572D01*
X222059500Y-73734541D01*
X222059500Y-76819601D01*
X222004149Y-76842528D01*
X221762228Y-77084449D01*
X221631300Y-77400535D01*
X221631300Y-77742665D01*
X221762228Y-78058751D01*
X222004149Y-78300672D01*
X222059500Y-78323599D01*
X222059500Y-86550500D01*
X218617260Y-86550500D01*
X218679065Y-86401290D01*
X218679065Y-86059160D01*
X218548137Y-85743074D01*
X218306216Y-85501153D01*
X217990130Y-85370225D01*
X217648000Y-85370225D01*
X217331914Y-85501153D01*
X217089993Y-85743074D01*
X216959065Y-86059160D01*
X216959065Y-86401290D01*
X217020870Y-86550500D01*
X204533500Y-86550500D01*
X204533500Y-84535160D01*
X220007065Y-84535160D01*
X220007065Y-84877290D01*
X220137993Y-85193376D01*
X220379914Y-85435297D01*
X220696000Y-85566225D01*
X221038130Y-85566225D01*
X221354216Y-85435297D01*
X221596137Y-85193376D01*
X221727065Y-84877290D01*
X221727065Y-84535160D01*
X221596137Y-84219074D01*
X221354216Y-83977153D01*
X221038130Y-83846225D01*
X220696000Y-83846225D01*
X220379914Y-83977153D01*
X220137993Y-84219074D01*
X220007065Y-84535160D01*
X204533500Y-84535160D01*
X204533500Y-81426435D01*
X207356500Y-81426435D01*
X207356500Y-81768565D01*
X207487428Y-82084651D01*
X207729349Y-82326572D01*
X208045435Y-82457500D01*
X208387565Y-82457500D01*
X208703651Y-82326572D01*
X208945572Y-82084651D01*
X209076500Y-81768565D01*
X209076500Y-81426435D01*
X209356500Y-81426435D01*
X209356500Y-81768565D01*
X209487428Y-82084651D01*
X209729349Y-82326572D01*
X210045435Y-82457500D01*
X210387565Y-82457500D01*
X210703651Y-82326572D01*
X210945572Y-82084651D01*
X211076500Y-81768565D01*
X211076500Y-81426435D01*
X211356500Y-81426435D01*
X211356500Y-81768565D01*
X211487428Y-82084651D01*
X211729349Y-82326572D01*
X212045435Y-82457500D01*
X212387565Y-82457500D01*
X212703651Y-82326572D01*
X212945572Y-82084651D01*
X213076500Y-81768565D01*
X213076500Y-81426435D01*
X212945572Y-81110349D01*
X212703651Y-80868428D01*
X212387565Y-80737500D01*
X212045435Y-80737500D01*
X211729349Y-80868428D01*
X211487428Y-81110349D01*
X211356500Y-81426435D01*
X211076500Y-81426435D01*
X210945572Y-81110349D01*
X210703651Y-80868428D01*
X210387565Y-80737500D01*
X210045435Y-80737500D01*
X209729349Y-80868428D01*
X209487428Y-81110349D01*
X209356500Y-81426435D01*
X209076500Y-81426435D01*
X208945572Y-81110349D01*
X208703651Y-80868428D01*
X208387565Y-80737500D01*
X208045435Y-80737500D01*
X207729349Y-80868428D01*
X207487428Y-81110349D01*
X207356500Y-81426435D01*
X204533500Y-81426435D01*
X204533500Y-79426435D01*
X207356500Y-79426435D01*
X207356500Y-79768565D01*
X207487428Y-80084651D01*
X207729349Y-80326572D01*
X208045435Y-80457500D01*
X208387565Y-80457500D01*
X208703651Y-80326572D01*
X208945572Y-80084651D01*
X209076500Y-79768565D01*
X209076500Y-79426435D01*
X209356500Y-79426435D01*
X209356500Y-79768565D01*
X209487428Y-80084651D01*
X209729349Y-80326572D01*
X210045435Y-80457500D01*
X210387565Y-80457500D01*
X210703651Y-80326572D01*
X210945572Y-80084651D01*
X211076500Y-79768565D01*
X211076500Y-79426435D01*
X211356500Y-79426435D01*
X211356500Y-79768565D01*
X211487428Y-80084651D01*
X211729349Y-80326572D01*
X212045435Y-80457500D01*
X212387565Y-80457500D01*
X212703651Y-80326572D01*
X212945572Y-80084651D01*
X213076500Y-79768565D01*
X213076500Y-79426435D01*
X212945572Y-79110349D01*
X212759383Y-78924160D01*
X213380065Y-78924160D01*
X213380065Y-79266290D01*
X213510993Y-79582376D01*
X213752914Y-79824297D01*
X214069000Y-79955225D01*
X214411130Y-79955225D01*
X214727216Y-79824297D01*
X214969137Y-79582376D01*
X215100065Y-79266290D01*
X215100065Y-78924160D01*
X214969137Y-78608074D01*
X214727216Y-78366153D01*
X214411130Y-78235225D01*
X214069000Y-78235225D01*
X213752914Y-78366153D01*
X213510993Y-78608074D01*
X213380065Y-78924160D01*
X212759383Y-78924160D01*
X212703651Y-78868428D01*
X212387565Y-78737500D01*
X212045435Y-78737500D01*
X211729349Y-78868428D01*
X211487428Y-79110349D01*
X211356500Y-79426435D01*
X211076500Y-79426435D01*
X210945572Y-79110349D01*
X210703651Y-78868428D01*
X210387565Y-78737500D01*
X210045435Y-78737500D01*
X209729349Y-78868428D01*
X209487428Y-79110349D01*
X209356500Y-79426435D01*
X209076500Y-79426435D01*
X208945572Y-79110349D01*
X208703651Y-78868428D01*
X208387565Y-78737500D01*
X208045435Y-78737500D01*
X207729349Y-78868428D01*
X207487428Y-79110349D01*
X207356500Y-79426435D01*
X204533500Y-79426435D01*
X204533500Y-76892160D01*
X209824065Y-76892160D01*
X209824065Y-77234290D01*
X209954993Y-77550376D01*
X210196914Y-77792297D01*
X210513000Y-77923225D01*
X210855130Y-77923225D01*
X211171216Y-77792297D01*
X211413137Y-77550376D01*
X211544065Y-77234290D01*
X211544065Y-76892160D01*
X211413137Y-76576074D01*
X211171216Y-76334153D01*
X210855130Y-76203225D01*
X210513000Y-76203225D01*
X210196914Y-76334153D01*
X209954993Y-76576074D01*
X209824065Y-76892160D01*
X204533500Y-76892160D01*
X204533500Y-75391160D01*
X211371065Y-75391160D01*
X211371065Y-75733290D01*
X211501993Y-76049376D01*
X211743914Y-76291297D01*
X212060000Y-76422225D01*
X212402130Y-76422225D01*
X212718216Y-76291297D01*
X212960137Y-76049376D01*
X213091065Y-75733290D01*
X213091065Y-75391160D01*
X213081539Y-75368160D01*
X215920065Y-75368160D01*
X215920065Y-75710290D01*
X216050993Y-76026376D01*
X216292914Y-76268297D01*
X216609000Y-76399225D01*
X216951130Y-76399225D01*
X217267216Y-76268297D01*
X217509137Y-76026376D01*
X217640065Y-75710290D01*
X217640065Y-75368160D01*
X217509137Y-75052074D01*
X217267216Y-74810153D01*
X216951130Y-74679225D01*
X216609000Y-74679225D01*
X216292914Y-74810153D01*
X216050993Y-75052074D01*
X215920065Y-75368160D01*
X213081539Y-75368160D01*
X212960137Y-75075074D01*
X212718216Y-74833153D01*
X212402130Y-74702225D01*
X212060000Y-74702225D01*
X211743914Y-74833153D01*
X211501993Y-75075074D01*
X211371065Y-75391160D01*
X204533500Y-75391160D01*
X204533500Y-73537160D01*
X214729063Y-73537160D01*
X214729063Y-73879290D01*
X214859991Y-74195376D01*
X215101912Y-74437297D01*
X215417998Y-74568225D01*
X215760128Y-74568225D01*
X216076214Y-74437297D01*
X216318135Y-74195376D01*
X216449063Y-73879290D01*
X216449063Y-73537160D01*
X216318135Y-73221074D01*
X216076214Y-72979153D01*
X215760128Y-72848225D01*
X215417998Y-72848225D01*
X215101912Y-72979153D01*
X214859991Y-73221074D01*
X214729063Y-73537160D01*
X204533500Y-73537160D01*
X204533500Y-71420860D01*
X204805435Y-71533500D01*
X205147565Y-71533500D01*
X205463651Y-71402572D01*
X205705572Y-71160651D01*
X205836500Y-70844565D01*
X205836500Y-70502435D01*
X205750370Y-70294500D01*
X206202630Y-70294500D01*
X206116500Y-70502435D01*
G04 #@! TO.N,+5V*
G36*
X226660500Y-76688565D02*
X226791428Y-77004651D01*
X227033349Y-77246572D01*
X227349435Y-77377500D01*
X227691565Y-77377500D01*
X228007651Y-77246572D01*
X228249572Y-77004651D01*
X228380500Y-76688565D01*
X228380500Y-76644500D01*
X231827459Y-76644500D01*
X231871428Y-76750651D01*
X232113349Y-76992572D01*
X232429435Y-77123500D01*
X232771565Y-77123500D01*
X233087651Y-76992572D01*
X233108500Y-76971723D01*
X233129349Y-76992572D01*
X233445435Y-77123500D01*
X233787565Y-77123500D01*
X234103651Y-76992572D01*
X234345572Y-76750651D01*
X234389541Y-76644500D01*
X236029500Y-76644500D01*
X236029500Y-87058500D01*
X223583500Y-87058500D01*
X223583500Y-84281160D01*
X224833065Y-84281160D01*
X224833065Y-84623290D01*
X224963993Y-84939376D01*
X225205914Y-85181297D01*
X225522000Y-85312225D01*
X225864130Y-85312225D01*
X226180216Y-85181297D01*
X226422137Y-84939376D01*
X226553065Y-84623290D01*
X226553065Y-84281160D01*
X226438328Y-84004160D01*
X231160065Y-84004160D01*
X231160065Y-84346290D01*
X231290993Y-84662376D01*
X231532914Y-84904297D01*
X231849000Y-85035225D01*
X232191130Y-85035225D01*
X232507216Y-84904297D01*
X232749137Y-84662376D01*
X232880065Y-84346290D01*
X232880065Y-84004160D01*
X232749137Y-83688074D01*
X232507216Y-83446153D01*
X232191130Y-83315225D01*
X231849000Y-83315225D01*
X231532914Y-83446153D01*
X231290993Y-83688074D01*
X231160065Y-84004160D01*
X226438328Y-84004160D01*
X226422137Y-83965074D01*
X226180216Y-83723153D01*
X225864130Y-83592225D01*
X225522000Y-83592225D01*
X225205914Y-83723153D01*
X224963993Y-83965074D01*
X224833065Y-84281160D01*
X223583500Y-84281160D01*
X223583500Y-80956160D01*
X227604065Y-80956160D01*
X227604065Y-81298290D01*
X227734993Y-81614376D01*
X227976914Y-81856297D01*
X228293000Y-81987225D01*
X228635130Y-81987225D01*
X228951216Y-81856297D01*
X229193137Y-81614376D01*
X229324065Y-81298290D01*
X229324065Y-80956160D01*
X229193137Y-80640074D01*
X228951216Y-80398153D01*
X228635130Y-80267225D01*
X228293000Y-80267225D01*
X227976914Y-80398153D01*
X227734993Y-80640074D01*
X227604065Y-80956160D01*
X223583500Y-80956160D01*
X223583500Y-79940160D01*
X230652065Y-79940160D01*
X230652065Y-80282290D01*
X230782993Y-80598376D01*
X231024914Y-80840297D01*
X231341000Y-80971225D01*
X231683130Y-80971225D01*
X231999216Y-80840297D01*
X232241137Y-80598376D01*
X232372065Y-80282290D01*
X232372065Y-79940160D01*
X232241137Y-79624074D01*
X231999216Y-79382153D01*
X231683130Y-79251225D01*
X231341000Y-79251225D01*
X231024914Y-79382153D01*
X230782993Y-79624074D01*
X230652065Y-79940160D01*
X223583500Y-79940160D01*
X223583500Y-78380563D01*
X223715051Y-78326072D01*
X223956972Y-78084151D01*
X224087900Y-77768065D01*
X224087900Y-77425935D01*
X223956972Y-77109849D01*
X223715051Y-76867928D01*
X223583500Y-76813437D01*
X223583500Y-76644500D01*
X226660500Y-76644500D01*
X226660500Y-76688565D01*
X226660500Y-76688565D01*
G37*
X226660500Y-76688565D02*
X226791428Y-77004651D01*
X227033349Y-77246572D01*
X227349435Y-77377500D01*
X227691565Y-77377500D01*
X228007651Y-77246572D01*
X228249572Y-77004651D01*
X228380500Y-76688565D01*
X228380500Y-76644500D01*
X231827459Y-76644500D01*
X231871428Y-76750651D01*
X232113349Y-76992572D01*
X232429435Y-77123500D01*
X232771565Y-77123500D01*
X233087651Y-76992572D01*
X233108500Y-76971723D01*
X233129349Y-76992572D01*
X233445435Y-77123500D01*
X233787565Y-77123500D01*
X234103651Y-76992572D01*
X234345572Y-76750651D01*
X234389541Y-76644500D01*
X236029500Y-76644500D01*
X236029500Y-87058500D01*
X223583500Y-87058500D01*
X223583500Y-84281160D01*
X224833065Y-84281160D01*
X224833065Y-84623290D01*
X224963993Y-84939376D01*
X225205914Y-85181297D01*
X225522000Y-85312225D01*
X225864130Y-85312225D01*
X226180216Y-85181297D01*
X226422137Y-84939376D01*
X226553065Y-84623290D01*
X226553065Y-84281160D01*
X226438328Y-84004160D01*
X231160065Y-84004160D01*
X231160065Y-84346290D01*
X231290993Y-84662376D01*
X231532914Y-84904297D01*
X231849000Y-85035225D01*
X232191130Y-85035225D01*
X232507216Y-84904297D01*
X232749137Y-84662376D01*
X232880065Y-84346290D01*
X232880065Y-84004160D01*
X232749137Y-83688074D01*
X232507216Y-83446153D01*
X232191130Y-83315225D01*
X231849000Y-83315225D01*
X231532914Y-83446153D01*
X231290993Y-83688074D01*
X231160065Y-84004160D01*
X226438328Y-84004160D01*
X226422137Y-83965074D01*
X226180216Y-83723153D01*
X225864130Y-83592225D01*
X225522000Y-83592225D01*
X225205914Y-83723153D01*
X224963993Y-83965074D01*
X224833065Y-84281160D01*
X223583500Y-84281160D01*
X223583500Y-80956160D01*
X227604065Y-80956160D01*
X227604065Y-81298290D01*
X227734993Y-81614376D01*
X227976914Y-81856297D01*
X228293000Y-81987225D01*
X228635130Y-81987225D01*
X228951216Y-81856297D01*
X229193137Y-81614376D01*
X229324065Y-81298290D01*
X229324065Y-80956160D01*
X229193137Y-80640074D01*
X228951216Y-80398153D01*
X228635130Y-80267225D01*
X228293000Y-80267225D01*
X227976914Y-80398153D01*
X227734993Y-80640074D01*
X227604065Y-80956160D01*
X223583500Y-80956160D01*
X223583500Y-79940160D01*
X230652065Y-79940160D01*
X230652065Y-80282290D01*
X230782993Y-80598376D01*
X231024914Y-80840297D01*
X231341000Y-80971225D01*
X231683130Y-80971225D01*
X231999216Y-80840297D01*
X232241137Y-80598376D01*
X232372065Y-80282290D01*
X232372065Y-79940160D01*
X232241137Y-79624074D01*
X231999216Y-79382153D01*
X231683130Y-79251225D01*
X231341000Y-79251225D01*
X231024914Y-79382153D01*
X230782993Y-79624074D01*
X230652065Y-79940160D01*
X223583500Y-79940160D01*
X223583500Y-78380563D01*
X223715051Y-78326072D01*
X223956972Y-78084151D01*
X224087900Y-77768065D01*
X224087900Y-77425935D01*
X223956972Y-77109849D01*
X223715051Y-76867928D01*
X223583500Y-76813437D01*
X223583500Y-76644500D01*
X226660500Y-76644500D01*
X226660500Y-76688565D01*
G04 #@! TO.N,GND*
G36*
X203009500Y-80452141D02*
X203009500Y-87947500D01*
X203019167Y-87996101D01*
X203046697Y-88037303D01*
X203087899Y-88064833D01*
X203136500Y-88074500D01*
X206435289Y-88074500D01*
X206310369Y-88199420D01*
X206152800Y-88579826D01*
X206152800Y-88991574D01*
X206310369Y-89371980D01*
X206601520Y-89663131D01*
X206981926Y-89820700D01*
X207393674Y-89820700D01*
X207774080Y-89663131D01*
X208065231Y-89371980D01*
X208222800Y-88991574D01*
X208222800Y-88579826D01*
X208065231Y-88199420D01*
X207940311Y-88074500D01*
X211166500Y-88074500D01*
X211166500Y-88155290D01*
X211297428Y-88471376D01*
X211539349Y-88713297D01*
X211855435Y-88844225D01*
X212197565Y-88844225D01*
X212513651Y-88713297D01*
X212755572Y-88471376D01*
X212886500Y-88155290D01*
X212886500Y-88074500D01*
X219437000Y-88074500D01*
X219437000Y-88089874D01*
X219594569Y-88470280D01*
X219885720Y-88761431D01*
X220266126Y-88919000D01*
X220677874Y-88919000D01*
X221058280Y-88761431D01*
X221349431Y-88470280D01*
X221507000Y-88089874D01*
X221507000Y-88074500D01*
X233707237Y-88074500D01*
X233661000Y-88186126D01*
X233661000Y-88597874D01*
X233818569Y-88978280D01*
X234109720Y-89269431D01*
X234490126Y-89427000D01*
X234901874Y-89427000D01*
X235282280Y-89269431D01*
X235573431Y-88978280D01*
X235731000Y-88597874D01*
X235731000Y-88186126D01*
X235684763Y-88074500D01*
X238696500Y-88074500D01*
X238745101Y-88064833D01*
X238786303Y-88037303D01*
X238813833Y-87996101D01*
X238823500Y-87947500D01*
X238823500Y-85124609D01*
X245416838Y-85124609D01*
X245420708Y-85162281D01*
X245647220Y-85590474D01*
X246020353Y-85899390D01*
X246483300Y-86042000D01*
X247033300Y-86042000D01*
X247033300Y-84934000D01*
X247287300Y-84934000D01*
X247287300Y-86042000D01*
X247837300Y-86042000D01*
X248300247Y-85899390D01*
X248673380Y-85590474D01*
X248899892Y-85162281D01*
X248903762Y-85124609D01*
X248966838Y-85124609D01*
X248970708Y-85162281D01*
X249197220Y-85590474D01*
X249570353Y-85899390D01*
X250033300Y-86042000D01*
X250583300Y-86042000D01*
X250583300Y-84934000D01*
X250837300Y-84934000D01*
X250837300Y-86042000D01*
X251387300Y-86042000D01*
X251850247Y-85899390D01*
X252223380Y-85590474D01*
X252449892Y-85162281D01*
X252453762Y-85124609D01*
X252329031Y-84934000D01*
X250837300Y-84934000D01*
X250583300Y-84934000D01*
X249091569Y-84934000D01*
X248966838Y-85124609D01*
X248903762Y-85124609D01*
X248779031Y-84934000D01*
X247287300Y-84934000D01*
X247033300Y-84934000D01*
X245541569Y-84934000D01*
X245416838Y-85124609D01*
X238823500Y-85124609D01*
X238823500Y-84489391D01*
X245416838Y-84489391D01*
X245541569Y-84680000D01*
X247033300Y-84680000D01*
X247033300Y-83572000D01*
X247287300Y-83572000D01*
X247287300Y-84680000D01*
X248779031Y-84680000D01*
X248903762Y-84489391D01*
X248966838Y-84489391D01*
X249091569Y-84680000D01*
X250583300Y-84680000D01*
X250583300Y-83572000D01*
X250837300Y-83572000D01*
X250837300Y-84680000D01*
X252329031Y-84680000D01*
X252453762Y-84489391D01*
X252449892Y-84451719D01*
X252223380Y-84023526D01*
X251850247Y-83714610D01*
X251387300Y-83572000D01*
X250837300Y-83572000D01*
X250583300Y-83572000D01*
X250033300Y-83572000D01*
X249570353Y-83714610D01*
X249197220Y-84023526D01*
X248970708Y-84451719D01*
X248966838Y-84489391D01*
X248903762Y-84489391D01*
X248899892Y-84451719D01*
X248673380Y-84023526D01*
X248300247Y-83714610D01*
X247837300Y-83572000D01*
X247287300Y-83572000D01*
X247033300Y-83572000D01*
X246483300Y-83572000D01*
X246020353Y-83714610D01*
X245647220Y-84023526D01*
X245420708Y-84451719D01*
X245416838Y-84489391D01*
X238823500Y-84489391D01*
X238823500Y-80454500D01*
X252539500Y-80454500D01*
X252539500Y-94507589D01*
X252412500Y-94598365D01*
X252412500Y-95440500D01*
X252432500Y-95440500D01*
X252432500Y-95694500D01*
X252412500Y-95694500D01*
X252412500Y-96710500D01*
X252432500Y-96710500D01*
X252432500Y-96964500D01*
X252412500Y-96964500D01*
X252412500Y-96975527D01*
X252397283Y-96972500D01*
X252173717Y-96972500D01*
X252158500Y-96975527D01*
X252158500Y-96964500D01*
X252147473Y-96964500D01*
X252172735Y-96837500D01*
X252147473Y-96710500D01*
X252158500Y-96710500D01*
X252158500Y-96089822D01*
X252162940Y-96067500D01*
X252162940Y-95067500D01*
X252158500Y-95045178D01*
X252158500Y-94598365D01*
X251983623Y-94473368D01*
X251861277Y-94534833D01*
X251763265Y-94469343D01*
X251515500Y-94420060D01*
X250515500Y-94420060D01*
X250267735Y-94469343D01*
X250057691Y-94609691D01*
X249917343Y-94819735D01*
X249868060Y-95067500D01*
X249868060Y-96067500D01*
X249917343Y-96315265D01*
X249958369Y-96376664D01*
X249946354Y-96394645D01*
X249858265Y-96837500D01*
X249946354Y-97280355D01*
X250074741Y-97472500D01*
X249946354Y-97664645D01*
X249858265Y-98107500D01*
X249884774Y-98240772D01*
X249570817Y-98240772D01*
X249254731Y-98371700D01*
X249012810Y-98613621D01*
X248881882Y-98929707D01*
X248881882Y-99271837D01*
X249012810Y-99587923D01*
X249084400Y-99659513D01*
X248961700Y-99955735D01*
X248961700Y-100297865D01*
X248981650Y-100346028D01*
X248940849Y-100362928D01*
X248698928Y-100604849D01*
X248568000Y-100920935D01*
X248568000Y-101263065D01*
X248698928Y-101579151D01*
X248940849Y-101821072D01*
X249256935Y-101952000D01*
X249599065Y-101952000D01*
X249874060Y-101838093D01*
X249858265Y-101917500D01*
X249946354Y-102360355D01*
X250074741Y-102552500D01*
X249946354Y-102744645D01*
X249858265Y-103187500D01*
X249946354Y-103630355D01*
X250074741Y-103822500D01*
X249946354Y-104014645D01*
X249858265Y-104457500D01*
X249946354Y-104900355D01*
X250074741Y-105092500D01*
X249946354Y-105284645D01*
X249858265Y-105727500D01*
X249946354Y-106170355D01*
X250074741Y-106362500D01*
X249946354Y-106554645D01*
X249858265Y-106997500D01*
X249946354Y-107440355D01*
X250074741Y-107632500D01*
X249946354Y-107824645D01*
X249858265Y-108267500D01*
X249946354Y-108710355D01*
X250074741Y-108902500D01*
X249946354Y-109094645D01*
X249858265Y-109537500D01*
X249946354Y-109980355D01*
X250074741Y-110172500D01*
X249946354Y-110364645D01*
X249858265Y-110807500D01*
X249946354Y-111250355D01*
X250074741Y-111442500D01*
X249946354Y-111634645D01*
X249858265Y-112077500D01*
X249946354Y-112520355D01*
X250074741Y-112712500D01*
X249946354Y-112904645D01*
X249858265Y-113347500D01*
X249946354Y-113790355D01*
X250082699Y-113994410D01*
X250028373Y-114057291D01*
X249921381Y-114315626D01*
X250047546Y-114490500D01*
X250888500Y-114490500D01*
X250888500Y-114479473D01*
X250903717Y-114482500D01*
X251127283Y-114482500D01*
X251142500Y-114479473D01*
X251142500Y-114490500D01*
X252158500Y-114490500D01*
X252158500Y-113474500D01*
X252147473Y-113474500D01*
X252172735Y-113347500D01*
X252147473Y-113220500D01*
X252158500Y-113220500D01*
X252158500Y-113209473D01*
X252173717Y-113212500D01*
X252397283Y-113212500D01*
X252412500Y-113209473D01*
X252412500Y-113220500D01*
X252432500Y-113220500D01*
X252432500Y-113474500D01*
X252412500Y-113474500D01*
X252412500Y-114490500D01*
X252432500Y-114490500D01*
X252432500Y-114744500D01*
X252412500Y-114744500D01*
X252412500Y-114755527D01*
X252397283Y-114752500D01*
X252173717Y-114752500D01*
X252158500Y-114755527D01*
X252158500Y-114744500D01*
X251142500Y-114744500D01*
X251142500Y-114755527D01*
X251127283Y-114752500D01*
X250903717Y-114752500D01*
X250888500Y-114755527D01*
X250888500Y-114744500D01*
X250047546Y-114744500D01*
X249921381Y-114919374D01*
X250028373Y-115177709D01*
X250082699Y-115240590D01*
X249946354Y-115444645D01*
X249858265Y-115887500D01*
X249946354Y-116330355D01*
X250074741Y-116522500D01*
X249946354Y-116714645D01*
X249858265Y-117157500D01*
X249946354Y-117600355D01*
X250082699Y-117804410D01*
X250028373Y-117867291D01*
X249921381Y-118125626D01*
X250047546Y-118300500D01*
X250888500Y-118300500D01*
X250888500Y-118289473D01*
X250903717Y-118292500D01*
X251127283Y-118292500D01*
X251142500Y-118289473D01*
X251142500Y-118300500D01*
X251153527Y-118300500D01*
X251128265Y-118427500D01*
X251153527Y-118554500D01*
X251142500Y-118554500D01*
X251142500Y-118565527D01*
X251127283Y-118562500D01*
X250903717Y-118562500D01*
X250888500Y-118565527D01*
X250888500Y-118554500D01*
X250047546Y-118554500D01*
X249921381Y-118729374D01*
X250028373Y-118987709D01*
X250082699Y-119050590D01*
X249946354Y-119254645D01*
X249858265Y-119697500D01*
X249946354Y-120140355D01*
X250074741Y-120332500D01*
X249946354Y-120524645D01*
X249858265Y-120967500D01*
X249946354Y-121410355D01*
X250074741Y-121602500D01*
X249946354Y-121794645D01*
X249858265Y-122237500D01*
X249946354Y-122680355D01*
X250074741Y-122872500D01*
X249946354Y-123064645D01*
X249858265Y-123507500D01*
X249946354Y-123950355D01*
X250074741Y-124142500D01*
X249946354Y-124334645D01*
X249858265Y-124777500D01*
X249946354Y-125220355D01*
X250074741Y-125412500D01*
X249946354Y-125604645D01*
X249858265Y-126047500D01*
X249946354Y-126490355D01*
X250074741Y-126682500D01*
X249946354Y-126874645D01*
X249858265Y-127317500D01*
X249946354Y-127760355D01*
X250074741Y-127952500D01*
X249946354Y-128144645D01*
X249858265Y-128587500D01*
X249946354Y-129030355D01*
X250074741Y-129222500D01*
X249946354Y-129414645D01*
X249858265Y-129857500D01*
X249946354Y-130300355D01*
X250074741Y-130492500D01*
X249946354Y-130684645D01*
X249858265Y-131127500D01*
X249946354Y-131570355D01*
X250074741Y-131762500D01*
X249946354Y-131954645D01*
X249858265Y-132397500D01*
X249946354Y-132840355D01*
X250074741Y-133032500D01*
X249946354Y-133224645D01*
X249858265Y-133667500D01*
X249946354Y-134110355D01*
X250074741Y-134302500D01*
X249946354Y-134494645D01*
X249858265Y-134937500D01*
X249946354Y-135380355D01*
X250197211Y-135755789D01*
X250572645Y-136006646D01*
X250903717Y-136072500D01*
X251127283Y-136072500D01*
X251458355Y-136006646D01*
X251650500Y-135878259D01*
X251842645Y-136006646D01*
X252173717Y-136072500D01*
X252397283Y-136072500D01*
X252539500Y-136044211D01*
X252539500Y-169100500D01*
X162623500Y-169100500D01*
X162623500Y-157911374D01*
X164803160Y-157911374D01*
X164803160Y-160184942D01*
X165673217Y-162285445D01*
X167280873Y-163893101D01*
X169381376Y-164763158D01*
X171654944Y-164763158D01*
X172495505Y-164414986D01*
X178517603Y-164414986D01*
X179113382Y-165105799D01*
X181198363Y-166012423D01*
X183471584Y-166052147D01*
X185586968Y-165218923D01*
X185756270Y-165105799D01*
X186352049Y-164414986D01*
X182434826Y-160497763D01*
X178517603Y-164414986D01*
X172495505Y-164414986D01*
X173755447Y-163893101D01*
X175363103Y-162285445D01*
X175748540Y-161354916D01*
X176700837Y-161354916D01*
X177534061Y-163470300D01*
X177647185Y-163639602D01*
X178337998Y-164235381D01*
X182255221Y-160318158D01*
X182614431Y-160318158D01*
X186531654Y-164235381D01*
X187222467Y-163639602D01*
X188129091Y-161554621D01*
X188168815Y-159281400D01*
X188129416Y-159181374D01*
X195689826Y-159181374D01*
X195689826Y-161454942D01*
X196559883Y-163555445D01*
X198167539Y-165163101D01*
X200268042Y-166033158D01*
X202541610Y-166033158D01*
X204642113Y-165163101D01*
X205390228Y-164414986D01*
X209404269Y-164414986D01*
X210000048Y-165105799D01*
X212085029Y-166012423D01*
X214358250Y-166052147D01*
X216473634Y-165218923D01*
X216642936Y-165105799D01*
X217238715Y-164414986D01*
X213321492Y-160497763D01*
X209404269Y-164414986D01*
X205390228Y-164414986D01*
X206249769Y-163555445D01*
X207119826Y-161454942D01*
X207119826Y-161354916D01*
X207587503Y-161354916D01*
X208420727Y-163470300D01*
X208533851Y-163639602D01*
X209224664Y-164235381D01*
X213141887Y-160318158D01*
X213501097Y-160318158D01*
X217418320Y-164235381D01*
X218109133Y-163639602D01*
X219015757Y-161554621D01*
X219055481Y-159281400D01*
X219016082Y-159181374D01*
X226576492Y-159181374D01*
X226576492Y-161454942D01*
X227446549Y-163555445D01*
X229054205Y-165163101D01*
X231154708Y-166033158D01*
X233428276Y-166033158D01*
X235528779Y-165163101D01*
X237136435Y-163555445D01*
X238006492Y-161454942D01*
X238006492Y-159181374D01*
X237882991Y-158883216D01*
X238463160Y-158883216D01*
X238463160Y-161156784D01*
X239333217Y-163257287D01*
X240940873Y-164864943D01*
X243041376Y-165735000D01*
X245314944Y-165735000D01*
X247415447Y-164864943D01*
X249023103Y-163257287D01*
X249893160Y-161156784D01*
X249893160Y-158883216D01*
X249023103Y-156782713D01*
X247415447Y-155175057D01*
X245314944Y-154305000D01*
X243041376Y-154305000D01*
X240940873Y-155175057D01*
X239333217Y-156782713D01*
X238463160Y-158883216D01*
X237882991Y-158883216D01*
X237136435Y-157080871D01*
X235528779Y-155473215D01*
X233428276Y-154603158D01*
X231154708Y-154603158D01*
X229054205Y-155473215D01*
X227446549Y-157080871D01*
X226576492Y-159181374D01*
X219016082Y-159181374D01*
X218222257Y-157166016D01*
X218109133Y-156996714D01*
X217418320Y-156400935D01*
X213501097Y-160318158D01*
X213141887Y-160318158D01*
X209224664Y-156400935D01*
X208533851Y-156996714D01*
X207627227Y-159081695D01*
X207587503Y-161354916D01*
X207119826Y-161354916D01*
X207119826Y-159181374D01*
X206249769Y-157080871D01*
X205390228Y-156221330D01*
X209404269Y-156221330D01*
X213321492Y-160138553D01*
X217238715Y-156221330D01*
X216642936Y-155530517D01*
X214557955Y-154623893D01*
X212284734Y-154584169D01*
X210169350Y-155417393D01*
X210000048Y-155530517D01*
X209404269Y-156221330D01*
X205390228Y-156221330D01*
X204642113Y-155473215D01*
X202541610Y-154603158D01*
X200268042Y-154603158D01*
X198167539Y-155473215D01*
X196559883Y-157080871D01*
X195689826Y-159181374D01*
X188129416Y-159181374D01*
X187335591Y-157166016D01*
X187222467Y-156996714D01*
X186531654Y-156400935D01*
X182614431Y-160318158D01*
X182255221Y-160318158D01*
X178337998Y-156400935D01*
X177647185Y-156996714D01*
X176740561Y-159081695D01*
X176700837Y-161354916D01*
X175748540Y-161354916D01*
X176233160Y-160184942D01*
X176233160Y-157911374D01*
X175533121Y-156221330D01*
X178517603Y-156221330D01*
X182434826Y-160138553D01*
X186352049Y-156221330D01*
X185756270Y-155530517D01*
X183671289Y-154623893D01*
X181398068Y-154584169D01*
X179282684Y-155417393D01*
X179113382Y-155530517D01*
X178517603Y-156221330D01*
X175533121Y-156221330D01*
X175363103Y-155810871D01*
X173755447Y-154203215D01*
X171654944Y-153333158D01*
X169381376Y-153333158D01*
X167280873Y-154203215D01*
X165673217Y-155810871D01*
X164803160Y-157911374D01*
X162623500Y-157911374D01*
X162623500Y-151065750D01*
X184373200Y-151065750D01*
X184373200Y-151815650D01*
X184660174Y-152508467D01*
X185190433Y-153038726D01*
X185883250Y-153325700D01*
X186633150Y-153325700D01*
X187325967Y-153038726D01*
X187598258Y-152766435D01*
X222118500Y-152766435D01*
X222118500Y-153108565D01*
X222249428Y-153424651D01*
X222491349Y-153666572D01*
X222807435Y-153797500D01*
X223149565Y-153797500D01*
X223465651Y-153666572D01*
X223707572Y-153424651D01*
X223838500Y-153108565D01*
X223838500Y-152766435D01*
X224118500Y-152766435D01*
X224118500Y-153108565D01*
X224249428Y-153424651D01*
X224491349Y-153666572D01*
X224807435Y-153797500D01*
X225149565Y-153797500D01*
X225465651Y-153666572D01*
X225707572Y-153424651D01*
X225838500Y-153108565D01*
X225838500Y-152766435D01*
X226118500Y-152766435D01*
X226118500Y-153108565D01*
X226249428Y-153424651D01*
X226491349Y-153666572D01*
X226807435Y-153797500D01*
X227149565Y-153797500D01*
X227465651Y-153666572D01*
X227707572Y-153424651D01*
X227838500Y-153108565D01*
X227838500Y-152766435D01*
X227707572Y-152450349D01*
X227465651Y-152208428D01*
X227149565Y-152077500D01*
X226807435Y-152077500D01*
X226491349Y-152208428D01*
X226249428Y-152450349D01*
X226118500Y-152766435D01*
X225838500Y-152766435D01*
X225707572Y-152450349D01*
X225465651Y-152208428D01*
X225149565Y-152077500D01*
X224807435Y-152077500D01*
X224491349Y-152208428D01*
X224249428Y-152450349D01*
X224118500Y-152766435D01*
X223838500Y-152766435D01*
X223707572Y-152450349D01*
X223465651Y-152208428D01*
X223149565Y-152077500D01*
X222807435Y-152077500D01*
X222491349Y-152208428D01*
X222249428Y-152450349D01*
X222118500Y-152766435D01*
X187598258Y-152766435D01*
X187856226Y-152508467D01*
X188143200Y-151815650D01*
X188143200Y-151072550D01*
X233398600Y-151072550D01*
X233398600Y-151822450D01*
X233685574Y-152515267D01*
X234215833Y-153045526D01*
X234908650Y-153332500D01*
X235658550Y-153332500D01*
X236351367Y-153045526D01*
X236881626Y-152515267D01*
X237168600Y-151822450D01*
X237168600Y-151072550D01*
X236881626Y-150379733D01*
X236351367Y-149849474D01*
X235658550Y-149562500D01*
X234908650Y-149562500D01*
X234215833Y-149849474D01*
X233685574Y-150379733D01*
X233398600Y-151072550D01*
X188143200Y-151072550D01*
X188143200Y-151065750D01*
X187856226Y-150372933D01*
X187325967Y-149842674D01*
X186633150Y-149555700D01*
X185883250Y-149555700D01*
X185190433Y-149842674D01*
X184660174Y-150372933D01*
X184373200Y-151065750D01*
X162623500Y-151065750D01*
X162623500Y-146763835D01*
X179717200Y-146763835D01*
X179717200Y-147105965D01*
X179848128Y-147422051D01*
X180090049Y-147663972D01*
X180406135Y-147794900D01*
X180748265Y-147794900D01*
X181064351Y-147663972D01*
X181306272Y-147422051D01*
X181437200Y-147105965D01*
X181437200Y-146763835D01*
X181306272Y-146447749D01*
X181064351Y-146205828D01*
X180748265Y-146074900D01*
X180406135Y-146074900D01*
X180090049Y-146205828D01*
X179848128Y-146447749D01*
X179717200Y-146763835D01*
X162623500Y-146763835D01*
X162623500Y-144174986D01*
X166600937Y-144174986D01*
X167196716Y-144865799D01*
X169281697Y-145772423D01*
X171554918Y-145812147D01*
X173244025Y-145146828D01*
X240260937Y-145146828D01*
X240856716Y-145837641D01*
X242941697Y-146744265D01*
X245214918Y-146783989D01*
X247330302Y-145950765D01*
X247499604Y-145837641D01*
X248095383Y-145146828D01*
X244178160Y-141229605D01*
X240260937Y-145146828D01*
X173244025Y-145146828D01*
X173670302Y-144978923D01*
X173839604Y-144865799D01*
X174435383Y-144174986D01*
X170518160Y-140257763D01*
X166600937Y-144174986D01*
X162623500Y-144174986D01*
X162623500Y-141114916D01*
X164784171Y-141114916D01*
X165617395Y-143230300D01*
X165730519Y-143399602D01*
X166421332Y-143995381D01*
X170338555Y-140078158D01*
X170697765Y-140078158D01*
X174614988Y-143995381D01*
X175305801Y-143399602D01*
X175876672Y-142086758D01*
X238444171Y-142086758D01*
X239277395Y-144202142D01*
X239390519Y-144371444D01*
X240081332Y-144967223D01*
X243998555Y-141050000D01*
X244357765Y-141050000D01*
X248274988Y-144967223D01*
X248965801Y-144371444D01*
X249872425Y-142286463D01*
X249912149Y-140013242D01*
X249078925Y-137897858D01*
X248965801Y-137728556D01*
X248274988Y-137132777D01*
X244357765Y-141050000D01*
X243998555Y-141050000D01*
X240081332Y-137132777D01*
X239390519Y-137728556D01*
X238483895Y-139813537D01*
X238444171Y-142086758D01*
X175876672Y-142086758D01*
X176212425Y-141314621D01*
X176246678Y-139354426D01*
X178263600Y-139354426D01*
X178263600Y-139766174D01*
X178421169Y-140146580D01*
X178712320Y-140437731D01*
X179092726Y-140595300D01*
X179504474Y-140595300D01*
X179884880Y-140437731D01*
X180176031Y-140146580D01*
X180209563Y-140065626D01*
X195561006Y-140065626D01*
X195561006Y-140477374D01*
X195718575Y-140857780D01*
X196009726Y-141148931D01*
X196390132Y-141306500D01*
X196801880Y-141306500D01*
X197182286Y-141148931D01*
X197473437Y-140857780D01*
X197631006Y-140477374D01*
X197631006Y-140065626D01*
X197473437Y-139685220D01*
X197182286Y-139394069D01*
X196801880Y-139236500D01*
X196390132Y-139236500D01*
X196009726Y-139394069D01*
X195718575Y-139685220D01*
X195561006Y-140065626D01*
X180209563Y-140065626D01*
X180333600Y-139766174D01*
X180333600Y-139354426D01*
X180176031Y-138974020D01*
X179884880Y-138682869D01*
X179504474Y-138525300D01*
X179092726Y-138525300D01*
X178712320Y-138682869D01*
X178421169Y-138974020D01*
X178263600Y-139354426D01*
X176246678Y-139354426D01*
X176252149Y-139041400D01*
X175429622Y-136953172D01*
X240260937Y-136953172D01*
X244178160Y-140870395D01*
X248095383Y-136953172D01*
X247499604Y-136262359D01*
X245414623Y-135355735D01*
X243141402Y-135316011D01*
X241026018Y-136149235D01*
X240856716Y-136262359D01*
X240260937Y-136953172D01*
X175429622Y-136953172D01*
X175418925Y-136926016D01*
X175305801Y-136756714D01*
X174614988Y-136160935D01*
X170697765Y-140078158D01*
X170338555Y-140078158D01*
X166421332Y-136160935D01*
X165730519Y-136756714D01*
X164823895Y-138841695D01*
X164784171Y-141114916D01*
X162623500Y-141114916D01*
X162623500Y-136018811D01*
X162765717Y-136047100D01*
X162989283Y-136047100D01*
X163320355Y-135981246D01*
X163338336Y-135969231D01*
X163399735Y-136010257D01*
X163647500Y-136059540D01*
X164647500Y-136059540D01*
X164895265Y-136010257D01*
X164938556Y-135981330D01*
X166600937Y-135981330D01*
X170518160Y-139898553D01*
X174435383Y-135981330D01*
X173839604Y-135290517D01*
X171754623Y-134383893D01*
X169481402Y-134344169D01*
X167366018Y-135177393D01*
X167196716Y-135290517D01*
X166600937Y-135981330D01*
X164938556Y-135981330D01*
X165105309Y-135869909D01*
X165245657Y-135659865D01*
X165294940Y-135412100D01*
X165294940Y-134412100D01*
X165245657Y-134164335D01*
X165204631Y-134102936D01*
X165216646Y-134084955D01*
X165304735Y-133642100D01*
X165271914Y-133477093D01*
X200181000Y-133477093D01*
X200181000Y-133819223D01*
X200311928Y-134135309D01*
X200553849Y-134377230D01*
X200869935Y-134508158D01*
X201212065Y-134508158D01*
X201528151Y-134377230D01*
X201770072Y-134135309D01*
X201901000Y-133819223D01*
X201901000Y-133477093D01*
X201770072Y-133161007D01*
X201528151Y-132919086D01*
X201212065Y-132788158D01*
X200869935Y-132788158D01*
X200553849Y-132919086D01*
X200311928Y-133161007D01*
X200181000Y-133477093D01*
X165271914Y-133477093D01*
X165216646Y-133199245D01*
X165088259Y-133007100D01*
X165216646Y-132814955D01*
X165304735Y-132372100D01*
X165216646Y-131929245D01*
X165088259Y-131737100D01*
X165216646Y-131544955D01*
X165304735Y-131102100D01*
X165216646Y-130659245D01*
X165088259Y-130467100D01*
X165216646Y-130274955D01*
X165304735Y-129832100D01*
X165241487Y-129514125D01*
X236137500Y-129514125D01*
X236137500Y-129925873D01*
X236295069Y-130306279D01*
X236586220Y-130597430D01*
X236966626Y-130754999D01*
X237378374Y-130754999D01*
X237758780Y-130597430D01*
X238049931Y-130306279D01*
X238207500Y-129925873D01*
X238207500Y-129514125D01*
X238049931Y-129133719D01*
X237758780Y-128842568D01*
X237378374Y-128684999D01*
X236966626Y-128684999D01*
X236586220Y-128842568D01*
X236295069Y-129133719D01*
X236137500Y-129514125D01*
X165241487Y-129514125D01*
X165216646Y-129389245D01*
X165088259Y-129197100D01*
X165216646Y-129004955D01*
X165304735Y-128562100D01*
X165216646Y-128119245D01*
X165088259Y-127927100D01*
X165216646Y-127734955D01*
X165304735Y-127292100D01*
X165241487Y-126974125D01*
X175685500Y-126974125D01*
X175685500Y-127385873D01*
X175843069Y-127766279D01*
X176134220Y-128057430D01*
X176211187Y-128089311D01*
X176243068Y-128166278D01*
X176534219Y-128457429D01*
X176914625Y-128614998D01*
X177326373Y-128614998D01*
X177706779Y-128457429D01*
X177997930Y-128166278D01*
X178155499Y-127785872D01*
X178155499Y-127374124D01*
X177997930Y-126993718D01*
X177706779Y-126702567D01*
X177629812Y-126670686D01*
X177615292Y-126635631D01*
X177767072Y-126483851D01*
X177898000Y-126167765D01*
X177898000Y-125990735D01*
X180635700Y-125990735D01*
X180635700Y-126332865D01*
X180766628Y-126648951D01*
X181008549Y-126890872D01*
X181324635Y-127021800D01*
X181666765Y-127021800D01*
X181982851Y-126890872D01*
X182224772Y-126648951D01*
X182355700Y-126332865D01*
X182355700Y-125990735D01*
X182339919Y-125952635D01*
X190325800Y-125952635D01*
X190325800Y-126294765D01*
X190456728Y-126610851D01*
X190698649Y-126852772D01*
X191014735Y-126983700D01*
X191356865Y-126983700D01*
X191672951Y-126852772D01*
X191914872Y-126610851D01*
X192045800Y-126294765D01*
X192045800Y-125952635D01*
X191914872Y-125636549D01*
X191672951Y-125394628D01*
X191356865Y-125263700D01*
X191014735Y-125263700D01*
X190698649Y-125394628D01*
X190456728Y-125636549D01*
X190325800Y-125952635D01*
X182339919Y-125952635D01*
X182224772Y-125674649D01*
X181982851Y-125432728D01*
X181666765Y-125301800D01*
X181324635Y-125301800D01*
X181008549Y-125432728D01*
X180766628Y-125674649D01*
X180635700Y-125990735D01*
X177898000Y-125990735D01*
X177898000Y-125825635D01*
X177767072Y-125509549D01*
X177525151Y-125267628D01*
X177209065Y-125136700D01*
X176866935Y-125136700D01*
X176550849Y-125267628D01*
X176308928Y-125509549D01*
X176178000Y-125825635D01*
X176178000Y-126167765D01*
X176219249Y-126267348D01*
X176134220Y-126302568D01*
X175843069Y-126593719D01*
X175685500Y-126974125D01*
X165241487Y-126974125D01*
X165216646Y-126849245D01*
X165088259Y-126657100D01*
X165216646Y-126464955D01*
X165304735Y-126022100D01*
X165216646Y-125579245D01*
X165088259Y-125387100D01*
X165216646Y-125194955D01*
X165304735Y-124752100D01*
X165216646Y-124309245D01*
X165088259Y-124117100D01*
X165216646Y-123924955D01*
X165304735Y-123482100D01*
X165298497Y-123450735D01*
X190071800Y-123450735D01*
X190071800Y-123792865D01*
X190202728Y-124108951D01*
X190444649Y-124350872D01*
X190760735Y-124481800D01*
X191102865Y-124481800D01*
X191418951Y-124350872D01*
X191660872Y-124108951D01*
X191791800Y-123792865D01*
X191791800Y-123552335D01*
X191811700Y-123552335D01*
X191811700Y-123894465D01*
X191942628Y-124210551D01*
X192184549Y-124452472D01*
X192500635Y-124583400D01*
X192842765Y-124583400D01*
X193158851Y-124452472D01*
X193400772Y-124210551D01*
X193531700Y-123894465D01*
X193531700Y-123552335D01*
X193400772Y-123236249D01*
X193158851Y-122994328D01*
X192842765Y-122863400D01*
X192500635Y-122863400D01*
X192184549Y-122994328D01*
X191942628Y-123236249D01*
X191811700Y-123552335D01*
X191791800Y-123552335D01*
X191791800Y-123450735D01*
X191660872Y-123134649D01*
X191418951Y-122892728D01*
X191102865Y-122761800D01*
X190760735Y-122761800D01*
X190444649Y-122892728D01*
X190202728Y-123134649D01*
X190071800Y-123450735D01*
X165298497Y-123450735D01*
X165216646Y-123039245D01*
X165088259Y-122847100D01*
X165216646Y-122654955D01*
X165304735Y-122212100D01*
X165216646Y-121769245D01*
X165088259Y-121577100D01*
X165216646Y-121384955D01*
X165303395Y-120948835D01*
X177321000Y-120948835D01*
X177321000Y-121290965D01*
X177451928Y-121607051D01*
X177693849Y-121848972D01*
X178009935Y-121979900D01*
X178352065Y-121979900D01*
X178668151Y-121848972D01*
X178910072Y-121607051D01*
X179041000Y-121290965D01*
X179041000Y-120999635D01*
X180496000Y-120999635D01*
X180496000Y-121341765D01*
X180626928Y-121657851D01*
X180868849Y-121899772D01*
X181184935Y-122030700D01*
X181527065Y-122030700D01*
X181843151Y-121899772D01*
X182028797Y-121714126D01*
X199625000Y-121714126D01*
X199625000Y-122125874D01*
X199782569Y-122506280D01*
X200073720Y-122797431D01*
X200454126Y-122955000D01*
X200865874Y-122955000D01*
X201246280Y-122797431D01*
X201537431Y-122506280D01*
X201695000Y-122125874D01*
X201695000Y-121714126D01*
X201537431Y-121333720D01*
X201536837Y-121333126D01*
X208197500Y-121333126D01*
X208197500Y-121744874D01*
X208355069Y-122125280D01*
X208646220Y-122416431D01*
X209026626Y-122574000D01*
X209438374Y-122574000D01*
X209818780Y-122416431D01*
X210109931Y-122125280D01*
X210267500Y-121744874D01*
X210267500Y-121726826D01*
X244646500Y-121726826D01*
X244646500Y-122138574D01*
X244804069Y-122518980D01*
X245095220Y-122810131D01*
X245475626Y-122967700D01*
X245887374Y-122967700D01*
X246267780Y-122810131D01*
X246558931Y-122518980D01*
X246716500Y-122138574D01*
X246716500Y-121726826D01*
X246558931Y-121346420D01*
X246267780Y-121055269D01*
X245887374Y-120897700D01*
X245475626Y-120897700D01*
X245095220Y-121055269D01*
X244804069Y-121346420D01*
X244646500Y-121726826D01*
X210267500Y-121726826D01*
X210267500Y-121333126D01*
X210109931Y-120952720D01*
X209818780Y-120661569D01*
X209438374Y-120504000D01*
X209026626Y-120504000D01*
X208646220Y-120661569D01*
X208355069Y-120952720D01*
X208197500Y-121333126D01*
X201536837Y-121333126D01*
X201246280Y-121042569D01*
X200865874Y-120885000D01*
X200454126Y-120885000D01*
X200073720Y-121042569D01*
X199782569Y-121333720D01*
X199625000Y-121714126D01*
X182028797Y-121714126D01*
X182085072Y-121657851D01*
X182216000Y-121341765D01*
X182216000Y-120999635D01*
X182085072Y-120683549D01*
X181843151Y-120441628D01*
X181527065Y-120310700D01*
X181184935Y-120310700D01*
X180868849Y-120441628D01*
X180626928Y-120683549D01*
X180496000Y-120999635D01*
X179041000Y-120999635D01*
X179041000Y-120948835D01*
X178910072Y-120632749D01*
X178668151Y-120390828D01*
X178352065Y-120259900D01*
X178009935Y-120259900D01*
X177693849Y-120390828D01*
X177451928Y-120632749D01*
X177321000Y-120948835D01*
X165303395Y-120948835D01*
X165304735Y-120942100D01*
X165216646Y-120499245D01*
X165088259Y-120307100D01*
X165216646Y-120114955D01*
X165304735Y-119672100D01*
X165216646Y-119229245D01*
X165080301Y-119025190D01*
X165134627Y-118962309D01*
X165241619Y-118703974D01*
X165115454Y-118529100D01*
X164274500Y-118529100D01*
X164274500Y-118540127D01*
X164259283Y-118537100D01*
X164035717Y-118537100D01*
X164020500Y-118540127D01*
X164020500Y-118529100D01*
X164009473Y-118529100D01*
X164034735Y-118402100D01*
X164021177Y-118333935D01*
X189728900Y-118333935D01*
X189728900Y-118676065D01*
X189859828Y-118992151D01*
X190101749Y-119234072D01*
X190417835Y-119365000D01*
X190759965Y-119365000D01*
X191076051Y-119234072D01*
X191317972Y-118992151D01*
X191448900Y-118676065D01*
X191448900Y-118333935D01*
X194731400Y-118333935D01*
X194731400Y-118676065D01*
X194862328Y-118992151D01*
X195104249Y-119234072D01*
X195420335Y-119365000D01*
X195762465Y-119365000D01*
X196078551Y-119234072D01*
X196138497Y-119174126D01*
X231311500Y-119174126D01*
X231311500Y-119585874D01*
X231469069Y-119966280D01*
X231760220Y-120257431D01*
X232140626Y-120415000D01*
X232552374Y-120415000D01*
X232932780Y-120257431D01*
X233223931Y-119966280D01*
X233381500Y-119585874D01*
X233381500Y-119174126D01*
X233223931Y-118793720D01*
X232932780Y-118502569D01*
X232552374Y-118345000D01*
X232140626Y-118345000D01*
X231760220Y-118502569D01*
X231469069Y-118793720D01*
X231311500Y-119174126D01*
X196138497Y-119174126D01*
X196320472Y-118992151D01*
X196451400Y-118676065D01*
X196451400Y-118333935D01*
X196320472Y-118017849D01*
X196078551Y-117775928D01*
X195762465Y-117645000D01*
X195420335Y-117645000D01*
X195104249Y-117775928D01*
X194862328Y-118017849D01*
X194731400Y-118333935D01*
X191448900Y-118333935D01*
X191317972Y-118017849D01*
X191076051Y-117775928D01*
X190759965Y-117645000D01*
X190417835Y-117645000D01*
X190101749Y-117775928D01*
X189859828Y-118017849D01*
X189728900Y-118333935D01*
X164021177Y-118333935D01*
X164009473Y-118275100D01*
X164020500Y-118275100D01*
X164020500Y-118264073D01*
X164035717Y-118267100D01*
X164259283Y-118267100D01*
X164274500Y-118264073D01*
X164274500Y-118275100D01*
X165115454Y-118275100D01*
X165241619Y-118100226D01*
X165134627Y-117841891D01*
X165080301Y-117779010D01*
X165216646Y-117574955D01*
X165304735Y-117132100D01*
X165216646Y-116689245D01*
X165088259Y-116497100D01*
X165216646Y-116304955D01*
X165304735Y-115862100D01*
X165230944Y-115491126D01*
X203181000Y-115491126D01*
X203181000Y-115902874D01*
X203338569Y-116283280D01*
X203624044Y-116568755D01*
X203529069Y-116663729D01*
X203371500Y-117044135D01*
X203371500Y-117455883D01*
X203529069Y-117836289D01*
X203820220Y-118127440D01*
X204200626Y-118285009D01*
X204612374Y-118285009D01*
X204992780Y-118127440D01*
X205283931Y-117836289D01*
X205441500Y-117455883D01*
X205441500Y-117044135D01*
X205283931Y-116663729D01*
X204998457Y-116378255D01*
X205093431Y-116283280D01*
X205251000Y-115902874D01*
X205251000Y-115491126D01*
X205093431Y-115110720D01*
X204802280Y-114819569D01*
X204421874Y-114662000D01*
X204010126Y-114662000D01*
X203629720Y-114819569D01*
X203338569Y-115110720D01*
X203181000Y-115491126D01*
X165230944Y-115491126D01*
X165216646Y-115419245D01*
X165080301Y-115215190D01*
X165134627Y-115152309D01*
X165241619Y-114893974D01*
X165115454Y-114719100D01*
X164274500Y-114719100D01*
X164274500Y-114730127D01*
X164259283Y-114727100D01*
X164035717Y-114727100D01*
X164020500Y-114730127D01*
X164020500Y-114719100D01*
X163004500Y-114719100D01*
X163004500Y-114730127D01*
X162989283Y-114727100D01*
X162765717Y-114727100D01*
X162750500Y-114730127D01*
X162750500Y-114719100D01*
X162730500Y-114719100D01*
X162730500Y-114465100D01*
X162750500Y-114465100D01*
X162750500Y-113449100D01*
X162730500Y-113449100D01*
X162730500Y-113195100D01*
X162750500Y-113195100D01*
X162750500Y-113184073D01*
X162765717Y-113187100D01*
X162989283Y-113187100D01*
X163004500Y-113184073D01*
X163004500Y-113195100D01*
X163015527Y-113195100D01*
X162990265Y-113322100D01*
X163015527Y-113449100D01*
X163004500Y-113449100D01*
X163004500Y-114465100D01*
X164020500Y-114465100D01*
X164020500Y-114454073D01*
X164035717Y-114457100D01*
X164259283Y-114457100D01*
X164274500Y-114454073D01*
X164274500Y-114465100D01*
X165115454Y-114465100D01*
X165241619Y-114290226D01*
X165134627Y-114031891D01*
X165080301Y-113969010D01*
X165094448Y-113947836D01*
X211166500Y-113947836D01*
X211166500Y-114289966D01*
X211297428Y-114606052D01*
X211539349Y-114847973D01*
X211855435Y-114978901D01*
X212197565Y-114978901D01*
X212513651Y-114847973D01*
X212755572Y-114606052D01*
X212886500Y-114289966D01*
X212886500Y-113947836D01*
X212755572Y-113631750D01*
X212513651Y-113389829D01*
X212197565Y-113258901D01*
X211855435Y-113258901D01*
X211539349Y-113389829D01*
X211297428Y-113631750D01*
X211166500Y-113947836D01*
X165094448Y-113947836D01*
X165216646Y-113764955D01*
X165304735Y-113322100D01*
X165216646Y-112879245D01*
X165088259Y-112687100D01*
X165216646Y-112494955D01*
X165304735Y-112052100D01*
X165216646Y-111609245D01*
X165088259Y-111417100D01*
X165216646Y-111224955D01*
X165304735Y-110782100D01*
X165216646Y-110339245D01*
X165088259Y-110147100D01*
X165216646Y-109954955D01*
X165304735Y-109512100D01*
X165216646Y-109069245D01*
X165088259Y-108877100D01*
X165216646Y-108684955D01*
X165304735Y-108242100D01*
X165216646Y-107799245D01*
X165088259Y-107607100D01*
X165216646Y-107414955D01*
X165296003Y-107016001D01*
X166729310Y-107016001D01*
X166570854Y-107253146D01*
X166482765Y-107696000D01*
X166570854Y-108138854D01*
X166758392Y-108419523D01*
X167456887Y-109118018D01*
X167520211Y-109212789D01*
X167861861Y-109441072D01*
X167895645Y-109463646D01*
X168338499Y-109551735D01*
X168450282Y-109529500D01*
X170669000Y-109529500D01*
X170669000Y-109878984D01*
X170826569Y-110259390D01*
X171117720Y-110550541D01*
X171498126Y-110708110D01*
X171909874Y-110708110D01*
X172290280Y-110550541D01*
X172581431Y-110259390D01*
X172739000Y-109878984D01*
X172739000Y-109529500D01*
X177781000Y-109529500D01*
X177781000Y-109933874D01*
X177938569Y-110314280D01*
X178033852Y-110409563D01*
X177997711Y-110433711D01*
X177746854Y-110809145D01*
X177658765Y-111252000D01*
X177746854Y-111694855D01*
X177997711Y-112070289D01*
X178373145Y-112321146D01*
X178704217Y-112387000D01*
X178714312Y-112387000D01*
X178843554Y-112473357D01*
X179174626Y-112539211D01*
X179286409Y-112561446D01*
X179398192Y-112539211D01*
X181799990Y-112539211D01*
X181911773Y-112561446D01*
X182023556Y-112539211D01*
X182354628Y-112473357D01*
X182442810Y-112414435D01*
X209896500Y-112414435D01*
X209896500Y-112756565D01*
X210027428Y-113072651D01*
X210269349Y-113314572D01*
X210585435Y-113445500D01*
X210927565Y-113445500D01*
X211243651Y-113314572D01*
X211485572Y-113072651D01*
X211616500Y-112756565D01*
X211616500Y-112414435D01*
X211485572Y-112098349D01*
X211243651Y-111856428D01*
X210927565Y-111725500D01*
X210585435Y-111725500D01*
X210269349Y-111856428D01*
X210027428Y-112098349D01*
X209896500Y-112414435D01*
X182442810Y-112414435D01*
X182483870Y-112387000D01*
X193659783Y-112387000D01*
X193990855Y-112321146D01*
X194366289Y-112070289D01*
X194617146Y-111694855D01*
X194705235Y-111252000D01*
X194671048Y-111080126D01*
X207435500Y-111080126D01*
X207435500Y-111491874D01*
X207593069Y-111872280D01*
X207884220Y-112163431D01*
X208264626Y-112321000D01*
X208676374Y-112321000D01*
X209056780Y-112163431D01*
X209347931Y-111872280D01*
X209505500Y-111491874D01*
X209505500Y-111080126D01*
X209347931Y-110699720D01*
X209056780Y-110408569D01*
X208676374Y-110251000D01*
X208264626Y-110251000D01*
X207884220Y-110408569D01*
X207593069Y-110699720D01*
X207435500Y-111080126D01*
X194671048Y-111080126D01*
X194617146Y-110809145D01*
X194366289Y-110433711D01*
X193990855Y-110182854D01*
X193659783Y-110117000D01*
X182175767Y-110117000D01*
X182063984Y-110094765D01*
X181952201Y-110117000D01*
X181621129Y-110182854D01*
X181491887Y-110269211D01*
X179712099Y-110269211D01*
X179851000Y-109933874D01*
X179851000Y-109529500D01*
X191744369Y-109529500D01*
X191808477Y-109593608D01*
X192089146Y-109781146D01*
X192532000Y-109869235D01*
X192974854Y-109781146D01*
X193350288Y-109530288D01*
X193601146Y-109154854D01*
X193689235Y-108712000D01*
X193601146Y-108269146D01*
X193413608Y-107988477D01*
X193096113Y-107670982D01*
X193032789Y-107576211D01*
X192657355Y-107325354D01*
X192350433Y-107264304D01*
X192466855Y-107241146D01*
X192546393Y-107188000D01*
X214234765Y-107188000D01*
X214322854Y-107630855D01*
X214573711Y-108006289D01*
X214949145Y-108257146D01*
X215280217Y-108323000D01*
X215845902Y-108323000D01*
X215957685Y-108345235D01*
X216069468Y-108323000D01*
X216357098Y-108265787D01*
X216354854Y-108269145D01*
X216266765Y-108712000D01*
X216354854Y-109154855D01*
X216568100Y-109474000D01*
X216354854Y-109793145D01*
X216266765Y-110236000D01*
X216340251Y-110605440D01*
X216143380Y-110408569D01*
X215762974Y-110251000D01*
X215351226Y-110251000D01*
X214970820Y-110408569D01*
X214679669Y-110699720D01*
X214522100Y-111080126D01*
X214522100Y-111491874D01*
X214679669Y-111872280D01*
X214970820Y-112163431D01*
X215351226Y-112321000D01*
X215762974Y-112321000D01*
X216143380Y-112163431D01*
X216323366Y-111983445D01*
X216266765Y-112268000D01*
X216354854Y-112710855D01*
X216573214Y-113037655D01*
X216542392Y-113068477D01*
X216354854Y-113349146D01*
X216266765Y-113792000D01*
X216354854Y-114234854D01*
X216605712Y-114610288D01*
X216981146Y-114861146D01*
X217424000Y-114949235D01*
X217866854Y-114861146D01*
X218147523Y-114673608D01*
X218329221Y-114491910D01*
X231964931Y-114491910D01*
X231880009Y-114527086D01*
X231638088Y-114769007D01*
X231507160Y-115085093D01*
X231507160Y-115427223D01*
X231638088Y-115743309D01*
X231880009Y-115985230D01*
X232196095Y-116116158D01*
X232538225Y-116116158D01*
X232854311Y-115985230D01*
X233096232Y-115743309D01*
X233227160Y-115427223D01*
X233227160Y-115085093D01*
X233096232Y-114769007D01*
X232854311Y-114527086D01*
X232769389Y-114491910D01*
X234082878Y-114491910D01*
X234099477Y-114508509D01*
X234380146Y-114696046D01*
X234823000Y-114784135D01*
X235265854Y-114696046D01*
X235641289Y-114445189D01*
X235892146Y-114069754D01*
X235980235Y-113626900D01*
X235935699Y-113403000D01*
X242204157Y-113403000D01*
X242316000Y-113425247D01*
X242758854Y-113337158D01*
X243134288Y-113086300D01*
X243385146Y-112710866D01*
X243473235Y-112268012D01*
X243385146Y-111825158D01*
X243197608Y-111544489D01*
X243197601Y-111544482D01*
X243134277Y-111449711D01*
X242758843Y-111198854D01*
X242489973Y-111145373D01*
X242626289Y-111054289D01*
X242877146Y-110678855D01*
X242965235Y-110236000D01*
X242877146Y-109793145D01*
X242663900Y-109474000D01*
X242877146Y-109154855D01*
X242965235Y-108712000D01*
X242877146Y-108269145D01*
X242626289Y-107893711D01*
X242250855Y-107642854D01*
X241919783Y-107577000D01*
X241331036Y-107577000D01*
X241378280Y-107557431D01*
X241669431Y-107266280D01*
X241827000Y-106885874D01*
X241827000Y-106474126D01*
X241669431Y-106093720D01*
X241378280Y-105802569D01*
X240997874Y-105645000D01*
X240586126Y-105645000D01*
X240205720Y-105802569D01*
X239914569Y-106093720D01*
X239757000Y-106474126D01*
X239757000Y-106885874D01*
X239914569Y-107266280D01*
X240205720Y-107557431D01*
X240252964Y-107577000D01*
X232356131Y-107577000D01*
X232529608Y-107403523D01*
X232717146Y-107122854D01*
X232805235Y-106680000D01*
X232796493Y-106636051D01*
X236368485Y-106636051D01*
X236435399Y-106649361D01*
X236502313Y-106636051D01*
X236502318Y-106636051D01*
X236700507Y-106596629D01*
X236809204Y-106524000D01*
X236899065Y-106524000D01*
X237215151Y-106393072D01*
X237457072Y-106151151D01*
X237588000Y-105835065D01*
X237588000Y-105502284D01*
X241744812Y-105502284D01*
X241744812Y-105914032D01*
X241902381Y-106294438D01*
X242193532Y-106585589D01*
X242573938Y-106743158D01*
X242830000Y-106743158D01*
X242830000Y-107287475D01*
X242888601Y-107582081D01*
X243111831Y-107916169D01*
X243445918Y-108139399D01*
X243840000Y-108217787D01*
X244234081Y-108139399D01*
X244568169Y-107916169D01*
X244791399Y-107582082D01*
X244850000Y-107287476D01*
X244850000Y-100476982D01*
X244981898Y-100279582D01*
X245060286Y-99885500D01*
X244981898Y-99491418D01*
X244758669Y-99157331D01*
X244424582Y-98934102D01*
X244030500Y-98855714D01*
X243636418Y-98934102D01*
X243386663Y-99100982D01*
X243196161Y-99291484D01*
X243111832Y-99347831D01*
X243055485Y-99432160D01*
X243055482Y-99432163D01*
X242905771Y-99656223D01*
X242888602Y-99681918D01*
X242834640Y-99953205D01*
X242810214Y-100076000D01*
X242830001Y-100175476D01*
X242830000Y-104673158D01*
X242573938Y-104673158D01*
X242193532Y-104830727D01*
X241902381Y-105121878D01*
X241744812Y-105502284D01*
X237588000Y-105502284D01*
X237588000Y-105492935D01*
X237457072Y-105176849D01*
X237215151Y-104934928D01*
X236899065Y-104804000D01*
X236556935Y-104804000D01*
X236240849Y-104934928D01*
X235998928Y-105176849D01*
X235957381Y-105277151D01*
X235048000Y-105277151D01*
X235048000Y-104984935D01*
X234917072Y-104668849D01*
X234675151Y-104426928D01*
X234487005Y-104348995D01*
X234409072Y-104160849D01*
X234167151Y-103918928D01*
X233851065Y-103788000D01*
X233508935Y-103788000D01*
X233192849Y-103918928D01*
X232950928Y-104160849D01*
X232916461Y-104244059D01*
X217171539Y-104244059D01*
X217137072Y-104160849D01*
X216895151Y-103918928D01*
X216579065Y-103788000D01*
X216236935Y-103788000D01*
X215920849Y-103918928D01*
X215678928Y-104160849D01*
X215548000Y-104476935D01*
X215548000Y-104819065D01*
X215678928Y-105135151D01*
X215920849Y-105377072D01*
X216077171Y-105441823D01*
X216056000Y-105492935D01*
X216056000Y-105783827D01*
X215798671Y-105835013D01*
X215472430Y-106053000D01*
X215280217Y-106053000D01*
X214949145Y-106118854D01*
X214573711Y-106369711D01*
X214322854Y-106745145D01*
X214234765Y-107188000D01*
X192546393Y-107188000D01*
X192842289Y-106990289D01*
X193093146Y-106614855D01*
X193181235Y-106172000D01*
X193175856Y-106144955D01*
X193161233Y-106071442D01*
X193093146Y-105729145D01*
X192842289Y-105353711D01*
X192747518Y-105290387D01*
X192621063Y-105163932D01*
X192340394Y-104976394D01*
X191897540Y-104888305D01*
X191454686Y-104976394D01*
X191363983Y-105037000D01*
X186344760Y-105037000D01*
X186254057Y-104976394D01*
X185922985Y-104910540D01*
X185811202Y-104888305D01*
X185699419Y-104910540D01*
X181909868Y-104910540D01*
X181909868Y-104769035D01*
X181778940Y-104452949D01*
X181537019Y-104211028D01*
X181220933Y-104080100D01*
X180878803Y-104080100D01*
X180562717Y-104211028D01*
X180320796Y-104452949D01*
X180189868Y-104769035D01*
X180189868Y-104910540D01*
X177588207Y-104910540D01*
X177257135Y-104976394D01*
X176881701Y-105227251D01*
X176630844Y-105602685D01*
X176542755Y-106045540D01*
X176630844Y-106488395D01*
X176881701Y-106863829D01*
X177257135Y-107114686D01*
X177588207Y-107180540D01*
X184621691Y-107180540D01*
X184654398Y-107259500D01*
X168837402Y-107259500D01*
X168931800Y-107031605D01*
X168931800Y-106689475D01*
X168800872Y-106373389D01*
X168558951Y-106131468D01*
X168242865Y-106000540D01*
X168172687Y-106000540D01*
X168075576Y-105903430D01*
X168037667Y-105846695D01*
X167812919Y-105696523D01*
X167614730Y-105657101D01*
X167614725Y-105657101D01*
X167547811Y-105643791D01*
X167480897Y-105657101D01*
X165295784Y-105657101D01*
X165216646Y-105259245D01*
X165088259Y-105067100D01*
X165216646Y-104874955D01*
X165304735Y-104432100D01*
X165303151Y-104424135D01*
X173274300Y-104424135D01*
X173274300Y-104766265D01*
X173405228Y-105082351D01*
X173647149Y-105324272D01*
X173963235Y-105455200D01*
X174305365Y-105455200D01*
X174621451Y-105324272D01*
X174863372Y-105082351D01*
X174994300Y-104766265D01*
X174994300Y-104424135D01*
X174863372Y-104108049D01*
X174621451Y-103866128D01*
X174305365Y-103735200D01*
X173963235Y-103735200D01*
X173647149Y-103866128D01*
X173405228Y-104108049D01*
X173274300Y-104424135D01*
X165303151Y-104424135D01*
X165216646Y-103989245D01*
X165088259Y-103797100D01*
X165216646Y-103604955D01*
X165304735Y-103162100D01*
X165216646Y-102719245D01*
X165088259Y-102527100D01*
X165157057Y-102424135D01*
X173274300Y-102424135D01*
X173274300Y-102766265D01*
X173405228Y-103082351D01*
X173647149Y-103324272D01*
X173963235Y-103455200D01*
X174305365Y-103455200D01*
X174621451Y-103324272D01*
X174863372Y-103082351D01*
X174994300Y-102766265D01*
X174994300Y-102424135D01*
X175274300Y-102424135D01*
X175274300Y-102766265D01*
X175405228Y-103082351D01*
X175647149Y-103324272D01*
X175963235Y-103455200D01*
X176251045Y-103455200D01*
X176178000Y-103631544D01*
X176178000Y-103735200D01*
X175963235Y-103735200D01*
X175647149Y-103866128D01*
X175405228Y-104108049D01*
X175274300Y-104424135D01*
X175274300Y-104766265D01*
X175405228Y-105082351D01*
X175647149Y-105324272D01*
X175963235Y-105455200D01*
X176305365Y-105455200D01*
X176621451Y-105324272D01*
X176863372Y-105082351D01*
X176994300Y-104766265D01*
X176994300Y-104662609D01*
X177209065Y-104662609D01*
X177525151Y-104531681D01*
X177767072Y-104289760D01*
X177898000Y-103973674D01*
X177898000Y-103631544D01*
X177767072Y-103315458D01*
X177525151Y-103073537D01*
X177209065Y-102942609D01*
X176921255Y-102942609D01*
X176951292Y-102870093D01*
X223910160Y-102870093D01*
X223910160Y-103212223D01*
X224041088Y-103528309D01*
X224283009Y-103770230D01*
X224599095Y-103901158D01*
X224941225Y-103901158D01*
X225257311Y-103770230D01*
X225334303Y-103693238D01*
X225423684Y-103730261D01*
X225765814Y-103730261D01*
X226081900Y-103599333D01*
X226323821Y-103357412D01*
X226356749Y-103277917D01*
X226389677Y-103357412D01*
X226631598Y-103599333D01*
X226947684Y-103730261D01*
X227289814Y-103730261D01*
X227605900Y-103599333D01*
X227626749Y-103578484D01*
X227647598Y-103599333D01*
X227963684Y-103730261D01*
X228305814Y-103730261D01*
X228621900Y-103599333D01*
X228863821Y-103357412D01*
X228994749Y-103041326D01*
X228994749Y-102699196D01*
X228863821Y-102383110D01*
X228621900Y-102141189D01*
X228305814Y-102010261D01*
X227963684Y-102010261D01*
X227647598Y-102141189D01*
X227626749Y-102162038D01*
X227605900Y-102141189D01*
X227289814Y-102010261D01*
X226947684Y-102010261D01*
X226631598Y-102141189D01*
X226389677Y-102383110D01*
X226356749Y-102462605D01*
X226323821Y-102383110D01*
X226081900Y-102141189D01*
X225765814Y-102010261D01*
X225423684Y-102010261D01*
X225107598Y-102141189D01*
X225030606Y-102218181D01*
X224941225Y-102181158D01*
X224599095Y-102181158D01*
X224283009Y-102312086D01*
X224041088Y-102554007D01*
X223910160Y-102870093D01*
X176951292Y-102870093D01*
X176994300Y-102766265D01*
X176994300Y-102424135D01*
X176863372Y-102108049D01*
X176621451Y-101866128D01*
X176305365Y-101735200D01*
X175963235Y-101735200D01*
X175647149Y-101866128D01*
X175405228Y-102108049D01*
X175274300Y-102424135D01*
X174994300Y-102424135D01*
X174863372Y-102108049D01*
X174621451Y-101866128D01*
X174305365Y-101735200D01*
X173963235Y-101735200D01*
X173647149Y-101866128D01*
X173405228Y-102108049D01*
X173274300Y-102424135D01*
X165157057Y-102424135D01*
X165216646Y-102334955D01*
X165304735Y-101892100D01*
X165216646Y-101449245D01*
X165088259Y-101257100D01*
X165216646Y-101064955D01*
X165304735Y-100622100D01*
X165250945Y-100351676D01*
X166605000Y-100351676D01*
X166605000Y-100763424D01*
X166762569Y-101143830D01*
X167053720Y-101434981D01*
X167434126Y-101592550D01*
X167845874Y-101592550D01*
X168226280Y-101434981D01*
X168232326Y-101428935D01*
X177359100Y-101428935D01*
X177359100Y-101771065D01*
X177490028Y-102087151D01*
X177731949Y-102329072D01*
X178048035Y-102460000D01*
X178390165Y-102460000D01*
X178706251Y-102329072D01*
X178948172Y-102087151D01*
X179079100Y-101771065D01*
X179079100Y-101595296D01*
X179402280Y-101461431D01*
X179693431Y-101170280D01*
X179851000Y-100789874D01*
X179851000Y-100378126D01*
X179693431Y-99997720D01*
X179402280Y-99706569D01*
X179021874Y-99549000D01*
X178610126Y-99549000D01*
X178229720Y-99706569D01*
X177938569Y-99997720D01*
X177781000Y-100378126D01*
X177781000Y-100789874D01*
X177802473Y-100841716D01*
X177731949Y-100870928D01*
X177490028Y-101112849D01*
X177359100Y-101428935D01*
X168232326Y-101428935D01*
X168517431Y-101143830D01*
X168675000Y-100763424D01*
X168675000Y-100351676D01*
X168517431Y-99971270D01*
X168226280Y-99680119D01*
X167845874Y-99522550D01*
X167434126Y-99522550D01*
X167053720Y-99680119D01*
X166762569Y-99971270D01*
X166605000Y-100351676D01*
X165250945Y-100351676D01*
X165216646Y-100179245D01*
X165080301Y-99975190D01*
X165134627Y-99912309D01*
X165241619Y-99653974D01*
X165115454Y-99479100D01*
X164274500Y-99479100D01*
X164274500Y-99490127D01*
X164259283Y-99487100D01*
X164035717Y-99487100D01*
X164020500Y-99490127D01*
X164020500Y-99479100D01*
X164009473Y-99479100D01*
X164025565Y-99398199D01*
X164381297Y-99398199D01*
X164448211Y-99411509D01*
X164515125Y-99398199D01*
X164515130Y-99398199D01*
X164713319Y-99358777D01*
X164726489Y-99349977D01*
X164754386Y-99344428D01*
X164932973Y-99225100D01*
X165115454Y-99225100D01*
X165213409Y-99089328D01*
X165525835Y-99218740D01*
X165867965Y-99218740D01*
X166184051Y-99087812D01*
X166425972Y-98845891D01*
X166556900Y-98529805D01*
X166556900Y-98187675D01*
X166552783Y-98177735D01*
X185487100Y-98177735D01*
X185487100Y-98519865D01*
X185618028Y-98835951D01*
X185859949Y-99077872D01*
X186176035Y-99208800D01*
X186245435Y-99208800D01*
X186555514Y-99518880D01*
X186593448Y-99575652D01*
X186650219Y-99613585D01*
X186650221Y-99613587D01*
X186710665Y-99653974D01*
X186818378Y-99725945D01*
X187016731Y-99765400D01*
X187016732Y-99765400D01*
X187083700Y-99778721D01*
X187150668Y-99765400D01*
X192554577Y-99765400D01*
X192603649Y-99814472D01*
X192919735Y-99945400D01*
X193261865Y-99945400D01*
X193577951Y-99814472D01*
X193819872Y-99572551D01*
X193892615Y-99396935D01*
X194720000Y-99396935D01*
X194720000Y-99739065D01*
X194850928Y-100055151D01*
X195092849Y-100297072D01*
X195408935Y-100428000D01*
X195751065Y-100428000D01*
X195871470Y-100378126D01*
X198500999Y-100378126D01*
X198500999Y-100789874D01*
X198658568Y-101170280D01*
X198949719Y-101461431D01*
X199330125Y-101619000D01*
X199741873Y-101619000D01*
X200122279Y-101461431D01*
X200413430Y-101170280D01*
X200570999Y-100789874D01*
X200570999Y-100378126D01*
X214357000Y-100378126D01*
X214357000Y-100789874D01*
X214514569Y-101170280D01*
X214805720Y-101461431D01*
X215186126Y-101619000D01*
X215597874Y-101619000D01*
X215978280Y-101461431D01*
X216269431Y-101170280D01*
X216427000Y-100789874D01*
X216427000Y-100378126D01*
X216269431Y-99997720D01*
X215978280Y-99706569D01*
X215597874Y-99549000D01*
X215186126Y-99549000D01*
X214805720Y-99706569D01*
X214514569Y-99997720D01*
X214357000Y-100378126D01*
X200570999Y-100378126D01*
X200413430Y-99997720D01*
X200122279Y-99706569D01*
X199741873Y-99549000D01*
X199330125Y-99549000D01*
X198949719Y-99706569D01*
X198658568Y-99997720D01*
X198500999Y-100378126D01*
X195871470Y-100378126D01*
X196067151Y-100297072D01*
X196309072Y-100055151D01*
X196440000Y-99739065D01*
X196440000Y-99396935D01*
X196309072Y-99080849D01*
X196067151Y-98838928D01*
X195881275Y-98761935D01*
X217376800Y-98761935D01*
X217376800Y-99104065D01*
X217507728Y-99420151D01*
X217749649Y-99662072D01*
X218065735Y-99793000D01*
X218135135Y-99793000D01*
X218620773Y-100278639D01*
X218630217Y-100292773D01*
X218460849Y-100362928D01*
X218218928Y-100604849D01*
X218088000Y-100920935D01*
X218088000Y-101263065D01*
X218218928Y-101579151D01*
X218460849Y-101821072D01*
X218776935Y-101952000D01*
X219119065Y-101952000D01*
X219435151Y-101821072D01*
X219484773Y-101771450D01*
X229806749Y-101771450D01*
X229806749Y-101775326D01*
X229937677Y-102091412D01*
X230179598Y-102333333D01*
X230259093Y-102366261D01*
X230179598Y-102399189D01*
X229937677Y-102641110D01*
X229806749Y-102957196D01*
X229806749Y-103299326D01*
X229937677Y-103615412D01*
X230179598Y-103857333D01*
X230495684Y-103988261D01*
X230837814Y-103988261D01*
X231153900Y-103857333D01*
X231395821Y-103615412D01*
X231526749Y-103299326D01*
X231526749Y-103270435D01*
X235804500Y-103270435D01*
X235804500Y-103612565D01*
X235935428Y-103928651D01*
X236177349Y-104170572D01*
X236493435Y-104301500D01*
X236835565Y-104301500D01*
X237151651Y-104170572D01*
X237393572Y-103928651D01*
X237524500Y-103612565D01*
X237524500Y-103560554D01*
X237659651Y-103504572D01*
X237901572Y-103262651D01*
X238032500Y-102946565D01*
X238032500Y-102604435D01*
X237958382Y-102425500D01*
X238032500Y-102246565D01*
X238032500Y-101904435D01*
X237901572Y-101588349D01*
X237707349Y-101394126D01*
X239757000Y-101394126D01*
X239757000Y-101805874D01*
X239914569Y-102186280D01*
X240205720Y-102477431D01*
X240586126Y-102635000D01*
X240997874Y-102635000D01*
X241378280Y-102477431D01*
X241669431Y-102186280D01*
X241827000Y-101805874D01*
X241827000Y-101394126D01*
X241669431Y-101013720D01*
X241378280Y-100722569D01*
X240997874Y-100565000D01*
X240586126Y-100565000D01*
X240205720Y-100722569D01*
X239914569Y-101013720D01*
X239757000Y-101394126D01*
X237707349Y-101394126D01*
X237659651Y-101346428D01*
X237343565Y-101215500D01*
X237001435Y-101215500D01*
X236685349Y-101346428D01*
X236443428Y-101588349D01*
X236312500Y-101904435D01*
X236312500Y-102246565D01*
X236386618Y-102425500D01*
X236312500Y-102604435D01*
X236312500Y-102656446D01*
X236177349Y-102712428D01*
X235935428Y-102954349D01*
X235804500Y-103270435D01*
X231526749Y-103270435D01*
X231526749Y-102957196D01*
X231395821Y-102641110D01*
X231153900Y-102399189D01*
X231074405Y-102366261D01*
X231153900Y-102333333D01*
X231395821Y-102091412D01*
X231526749Y-101775326D01*
X231526749Y-101771450D01*
X234121086Y-101771450D01*
X234188000Y-101784760D01*
X234254914Y-101771450D01*
X234254919Y-101771450D01*
X234453108Y-101732028D01*
X234677856Y-101581856D01*
X234715765Y-101525121D01*
X234796887Y-101444000D01*
X234867065Y-101444000D01*
X235183151Y-101313072D01*
X235425072Y-101071151D01*
X235556000Y-100755065D01*
X235556000Y-100412935D01*
X235490974Y-100255949D01*
X235526672Y-100220251D01*
X235657600Y-99904165D01*
X235657600Y-99562035D01*
X235568355Y-99346580D01*
X235598570Y-99273635D01*
X235598570Y-98931505D01*
X235467642Y-98615419D01*
X235225721Y-98373498D01*
X234909635Y-98242570D01*
X234567505Y-98242570D01*
X234251419Y-98373498D01*
X234009498Y-98615419D01*
X233992664Y-98656059D01*
X233515587Y-98656059D01*
X233486407Y-98626879D01*
X233448498Y-98570144D01*
X233223750Y-98419972D01*
X233025561Y-98380550D01*
X233025556Y-98380550D01*
X232958642Y-98367240D01*
X232891728Y-98380550D01*
X227559299Y-98380550D01*
X227661317Y-98134257D01*
X232635227Y-98134257D01*
X232684849Y-98183879D01*
X233000935Y-98314807D01*
X233343065Y-98314807D01*
X233659151Y-98183879D01*
X233901072Y-97941958D01*
X234032000Y-97625872D01*
X234032000Y-97283742D01*
X233901072Y-96967656D01*
X233659151Y-96725735D01*
X233343065Y-96594807D01*
X233000935Y-96594807D01*
X232684849Y-96725735D01*
X232635227Y-96775357D01*
X225630160Y-96775357D01*
X225630160Y-96774093D01*
X225518960Y-96505634D01*
X238119500Y-96505634D01*
X238119500Y-96847764D01*
X238250428Y-97163850D01*
X238492349Y-97405771D01*
X238808435Y-97536699D01*
X239150565Y-97536699D01*
X239466651Y-97405771D01*
X239522121Y-97350301D01*
X239600565Y-97350301D01*
X239916651Y-97219373D01*
X240158572Y-96977452D01*
X240289500Y-96661366D01*
X240289500Y-96319236D01*
X240158572Y-96003150D01*
X239916651Y-95761229D01*
X239600565Y-95630301D01*
X239258435Y-95630301D01*
X238942349Y-95761229D01*
X238886879Y-95816699D01*
X238808435Y-95816699D01*
X238492349Y-95947627D01*
X238250428Y-96189548D01*
X238119500Y-96505634D01*
X225518960Y-96505634D01*
X225499232Y-96458007D01*
X225257311Y-96216086D01*
X224941225Y-96085158D01*
X224599095Y-96085158D01*
X224283009Y-96216086D01*
X224041088Y-96458007D01*
X223910160Y-96774093D01*
X223910160Y-96775357D01*
X220232734Y-96775357D01*
X220135065Y-96734901D01*
X219792935Y-96734901D01*
X219476849Y-96865829D01*
X219234928Y-97107750D01*
X219104000Y-97423836D01*
X219104000Y-97765966D01*
X219234928Y-98082052D01*
X219352876Y-98200000D01*
X219284935Y-98200000D01*
X218968849Y-98330928D01*
X218909900Y-98389877D01*
X218723951Y-98203928D01*
X218407865Y-98073000D01*
X218065735Y-98073000D01*
X217749649Y-98203928D01*
X217507728Y-98445849D01*
X217376800Y-98761935D01*
X195881275Y-98761935D01*
X195751065Y-98708000D01*
X195408935Y-98708000D01*
X195092849Y-98838928D01*
X194850928Y-99080849D01*
X194720000Y-99396935D01*
X193892615Y-99396935D01*
X193950800Y-99256465D01*
X193950800Y-98914335D01*
X193819872Y-98598249D01*
X193577951Y-98356328D01*
X193261865Y-98225400D01*
X192919735Y-98225400D01*
X192603649Y-98356328D01*
X192554577Y-98405400D01*
X191247770Y-98405400D01*
X191444351Y-98323973D01*
X191686272Y-98082052D01*
X191817200Y-97765966D01*
X191817200Y-97423836D01*
X191686272Y-97107750D01*
X191444351Y-96865829D01*
X191128265Y-96734901D01*
X190786135Y-96734901D01*
X190470049Y-96865829D01*
X190228128Y-97107750D01*
X190097200Y-97423836D01*
X190097200Y-97765966D01*
X190228128Y-98082052D01*
X190470049Y-98323973D01*
X190666630Y-98405400D01*
X187365365Y-98405400D01*
X187207100Y-98247135D01*
X187207100Y-98177735D01*
X187076172Y-97861649D01*
X186834251Y-97619728D01*
X186518165Y-97488800D01*
X186176035Y-97488800D01*
X185859949Y-97619728D01*
X185618028Y-97861649D01*
X185487100Y-98177735D01*
X166552783Y-98177735D01*
X166425972Y-97871589D01*
X166184051Y-97629668D01*
X165867965Y-97498740D01*
X165525835Y-97498740D01*
X165209749Y-97629668D01*
X165188192Y-97651225D01*
X165134627Y-97521891D01*
X165080301Y-97459010D01*
X165216646Y-97254955D01*
X165304735Y-96812100D01*
X165275761Y-96666435D01*
X193386500Y-96666435D01*
X193386500Y-97008565D01*
X193517428Y-97324651D01*
X193759349Y-97566572D01*
X194075435Y-97697500D01*
X194417565Y-97697500D01*
X194733651Y-97566572D01*
X194975572Y-97324651D01*
X195106500Y-97008565D01*
X195106500Y-96666435D01*
X194975572Y-96350349D01*
X194733651Y-96108428D01*
X194417565Y-95977500D01*
X194075435Y-95977500D01*
X193759349Y-96108428D01*
X193517428Y-96350349D01*
X193386500Y-96666435D01*
X165275761Y-96666435D01*
X165216646Y-96369245D01*
X165088259Y-96177100D01*
X165216646Y-95984955D01*
X165304735Y-95542100D01*
X165216646Y-95099245D01*
X164965789Y-94723811D01*
X164590355Y-94472954D01*
X164259283Y-94407100D01*
X164035717Y-94407100D01*
X163704645Y-94472954D01*
X163500553Y-94609324D01*
X163179377Y-94447968D01*
X163004500Y-94572965D01*
X163004500Y-95415100D01*
X163015527Y-95415100D01*
X162990265Y-95542100D01*
X163015527Y-95669100D01*
X163004500Y-95669100D01*
X163004500Y-96685100D01*
X163015527Y-96685100D01*
X162990265Y-96812100D01*
X163015527Y-96939100D01*
X163004500Y-96939100D01*
X163004500Y-96950127D01*
X162989283Y-96947100D01*
X162765717Y-96947100D01*
X162750500Y-96950127D01*
X162750500Y-96939100D01*
X162730500Y-96939100D01*
X162730500Y-96685100D01*
X162750500Y-96685100D01*
X162750500Y-95669100D01*
X162730500Y-95669100D01*
X162730500Y-95415100D01*
X162750500Y-95415100D01*
X162750500Y-94572965D01*
X162623500Y-94482189D01*
X162623500Y-92888435D01*
X173828500Y-92888435D01*
X173828500Y-93230565D01*
X173959428Y-93546651D01*
X174201349Y-93788572D01*
X174517435Y-93919500D01*
X174859565Y-93919500D01*
X175175651Y-93788572D01*
X175417572Y-93546651D01*
X175548500Y-93230565D01*
X175548500Y-93072550D01*
X184398600Y-93072550D01*
X184398600Y-93822450D01*
X184685574Y-94515267D01*
X185215833Y-95045526D01*
X185908650Y-95332500D01*
X186658550Y-95332500D01*
X187351367Y-95045526D01*
X187881626Y-94515267D01*
X187971827Y-94297500D01*
X209599265Y-94297500D01*
X209687354Y-94740355D01*
X209938211Y-95115789D01*
X210313645Y-95366646D01*
X210644717Y-95432500D01*
X215810551Y-95432500D01*
X215939440Y-95743663D01*
X216181361Y-95985584D01*
X216360298Y-96059702D01*
X216434416Y-96238639D01*
X216676337Y-96480560D01*
X216992423Y-96611488D01*
X217334553Y-96611488D01*
X217650639Y-96480560D01*
X217892560Y-96238639D01*
X218023488Y-95922553D01*
X218023488Y-95580423D01*
X217962216Y-95432500D01*
X222074717Y-95432500D01*
X222186500Y-95454735D01*
X222298283Y-95432500D01*
X222629355Y-95366646D01*
X223004789Y-95115789D01*
X223068113Y-95021018D01*
X225041981Y-93047150D01*
X233395200Y-93047150D01*
X233395200Y-93797050D01*
X233682174Y-94489867D01*
X234212433Y-95020126D01*
X234905250Y-95307100D01*
X235655150Y-95307100D01*
X236347967Y-95020126D01*
X236878226Y-94489867D01*
X237165200Y-93797050D01*
X237165200Y-93047150D01*
X236878226Y-92354333D01*
X236347967Y-91824074D01*
X235655150Y-91537100D01*
X234905250Y-91537100D01*
X234212433Y-91824074D01*
X233682174Y-92354333D01*
X233395200Y-93047150D01*
X225041981Y-93047150D01*
X226878108Y-91211024D01*
X226962350Y-91084947D01*
X238605012Y-91084947D01*
X238605012Y-91427077D01*
X238735940Y-91743163D01*
X238977861Y-91985084D01*
X239156798Y-92059202D01*
X239230916Y-92238139D01*
X239472837Y-92480060D01*
X239788923Y-92610988D01*
X240131053Y-92610988D01*
X240447139Y-92480060D01*
X240602590Y-92324609D01*
X245416838Y-92324609D01*
X245420708Y-92362281D01*
X245647220Y-92790474D01*
X246020353Y-93099390D01*
X246483300Y-93242000D01*
X247033300Y-93242000D01*
X247033300Y-92134000D01*
X247287300Y-92134000D01*
X247287300Y-93242000D01*
X247837300Y-93242000D01*
X248300247Y-93099390D01*
X248673380Y-92790474D01*
X248899892Y-92362281D01*
X248903762Y-92324609D01*
X248966838Y-92324609D01*
X248970708Y-92362281D01*
X249197220Y-92790474D01*
X249570353Y-93099390D01*
X250033300Y-93242000D01*
X250583300Y-93242000D01*
X250583300Y-92134000D01*
X250837300Y-92134000D01*
X250837300Y-93242000D01*
X251387300Y-93242000D01*
X251850247Y-93099390D01*
X252223380Y-92790474D01*
X252449892Y-92362281D01*
X252453762Y-92324609D01*
X252329031Y-92134000D01*
X250837300Y-92134000D01*
X250583300Y-92134000D01*
X249091569Y-92134000D01*
X248966838Y-92324609D01*
X248903762Y-92324609D01*
X248779031Y-92134000D01*
X247287300Y-92134000D01*
X247033300Y-92134000D01*
X245541569Y-92134000D01*
X245416838Y-92324609D01*
X240602590Y-92324609D01*
X240689060Y-92238139D01*
X240819988Y-91922053D01*
X240819988Y-91689391D01*
X245416838Y-91689391D01*
X245541569Y-91880000D01*
X247033300Y-91880000D01*
X247033300Y-90772000D01*
X247287300Y-90772000D01*
X247287300Y-91880000D01*
X248779031Y-91880000D01*
X248903762Y-91689391D01*
X248966838Y-91689391D01*
X249091569Y-91880000D01*
X250583300Y-91880000D01*
X250583300Y-90772000D01*
X250837300Y-90772000D01*
X250837300Y-91880000D01*
X252329031Y-91880000D01*
X252453762Y-91689391D01*
X252449892Y-91651719D01*
X252223380Y-91223526D01*
X251850247Y-90914610D01*
X251387300Y-90772000D01*
X250837300Y-90772000D01*
X250583300Y-90772000D01*
X250033300Y-90772000D01*
X249570353Y-90914610D01*
X249197220Y-91223526D01*
X248970708Y-91651719D01*
X248966838Y-91689391D01*
X248903762Y-91689391D01*
X248899892Y-91651719D01*
X248673380Y-91223526D01*
X248300247Y-90914610D01*
X247837300Y-90772000D01*
X247287300Y-90772000D01*
X247033300Y-90772000D01*
X246483300Y-90772000D01*
X246020353Y-90914610D01*
X245647220Y-91223526D01*
X245420708Y-91651719D01*
X245416838Y-91689391D01*
X240819988Y-91689391D01*
X240819988Y-91579923D01*
X240689060Y-91263837D01*
X240447139Y-91021916D01*
X240268202Y-90947798D01*
X240194084Y-90768861D01*
X239952163Y-90526940D01*
X239636077Y-90396012D01*
X239293947Y-90396012D01*
X238977861Y-90526940D01*
X238735940Y-90768861D01*
X238605012Y-91084947D01*
X226962350Y-91084947D01*
X227065646Y-90930355D01*
X227153735Y-90487500D01*
X227065646Y-90044646D01*
X226814788Y-89669212D01*
X226439354Y-89418354D01*
X225996500Y-89330265D01*
X225553645Y-89418354D01*
X225272976Y-89605892D01*
X221716369Y-93162500D01*
X210644717Y-93162500D01*
X210313645Y-93228354D01*
X209938211Y-93479211D01*
X209687354Y-93854645D01*
X209599265Y-94297500D01*
X187971827Y-94297500D01*
X188168600Y-93822450D01*
X188168600Y-93072550D01*
X187881626Y-92379733D01*
X187351367Y-91849474D01*
X187092206Y-91742126D01*
X195561006Y-91742126D01*
X195561006Y-92153874D01*
X195718575Y-92534280D01*
X196009726Y-92825431D01*
X196390132Y-92983000D01*
X196801880Y-92983000D01*
X197182286Y-92825431D01*
X197473437Y-92534280D01*
X197631006Y-92153874D01*
X197631006Y-91742126D01*
X219437000Y-91742126D01*
X219437000Y-92153874D01*
X219594569Y-92534280D01*
X219885720Y-92825431D01*
X220266126Y-92983000D01*
X220677874Y-92983000D01*
X221058280Y-92825431D01*
X221349431Y-92534280D01*
X221507000Y-92153874D01*
X221507000Y-91742126D01*
X221349431Y-91361720D01*
X221058280Y-91070569D01*
X220677874Y-90913000D01*
X220266126Y-90913000D01*
X219885720Y-91070569D01*
X219594569Y-91361720D01*
X219437000Y-91742126D01*
X197631006Y-91742126D01*
X197473437Y-91361720D01*
X197182286Y-91070569D01*
X196801880Y-90913000D01*
X196390132Y-90913000D01*
X196009726Y-91070569D01*
X195718575Y-91361720D01*
X195561006Y-91742126D01*
X187092206Y-91742126D01*
X186658550Y-91562500D01*
X185908650Y-91562500D01*
X185215833Y-91849474D01*
X184685574Y-92379733D01*
X184398600Y-93072550D01*
X175548500Y-93072550D01*
X175548500Y-92888435D01*
X175417572Y-92572349D01*
X175175651Y-92330428D01*
X174859565Y-92199500D01*
X174517435Y-92199500D01*
X174201349Y-92330428D01*
X173959428Y-92572349D01*
X173828500Y-92888435D01*
X162623500Y-92888435D01*
X162623500Y-90218126D01*
X190989000Y-90218126D01*
X190989000Y-90629874D01*
X191146569Y-91010280D01*
X191437720Y-91301431D01*
X191818126Y-91459000D01*
X192229874Y-91459000D01*
X192610280Y-91301431D01*
X192901431Y-91010280D01*
X193059000Y-90629874D01*
X193059000Y-90252935D01*
X216722000Y-90252935D01*
X216722000Y-90595065D01*
X216852928Y-90911151D01*
X217094849Y-91153072D01*
X217410935Y-91284000D01*
X217753065Y-91284000D01*
X217932000Y-91209882D01*
X218110935Y-91284000D01*
X218453065Y-91284000D01*
X218769151Y-91153072D01*
X219011072Y-90911151D01*
X219142000Y-90595065D01*
X219142000Y-90252935D01*
X219011072Y-89936849D01*
X218769151Y-89694928D01*
X218453065Y-89564000D01*
X218110935Y-89564000D01*
X217932000Y-89638118D01*
X217753065Y-89564000D01*
X217410935Y-89564000D01*
X217094849Y-89694928D01*
X216852928Y-89936849D01*
X216722000Y-90252935D01*
X193059000Y-90252935D01*
X193059000Y-90218126D01*
X192901431Y-89837720D01*
X192610280Y-89546569D01*
X192229874Y-89389000D01*
X191818126Y-89389000D01*
X191437720Y-89546569D01*
X191146569Y-89837720D01*
X190989000Y-90218126D01*
X162623500Y-90218126D01*
X162623500Y-88186126D01*
X177781000Y-88186126D01*
X177781000Y-88597874D01*
X177938569Y-88978280D01*
X178229720Y-89269431D01*
X178610126Y-89427000D01*
X179021874Y-89427000D01*
X179402280Y-89269431D01*
X179693431Y-88978280D01*
X179851000Y-88597874D01*
X179851000Y-88186126D01*
X198101000Y-88186126D01*
X198101000Y-88597874D01*
X198258569Y-88978280D01*
X198549720Y-89269431D01*
X198930126Y-89427000D01*
X199341874Y-89427000D01*
X199722280Y-89269431D01*
X200013431Y-88978280D01*
X200171000Y-88597874D01*
X200171000Y-88186126D01*
X200013431Y-87805720D01*
X199722280Y-87514569D01*
X199341874Y-87357000D01*
X198930126Y-87357000D01*
X198549720Y-87514569D01*
X198258569Y-87805720D01*
X198101000Y-88186126D01*
X179851000Y-88186126D01*
X179693431Y-87805720D01*
X179402280Y-87514569D01*
X179021874Y-87357000D01*
X178610126Y-87357000D01*
X178229720Y-87514569D01*
X177938569Y-87805720D01*
X177781000Y-88186126D01*
X162623500Y-88186126D01*
X162623500Y-85201626D01*
X171050000Y-85201626D01*
X171050000Y-85613374D01*
X171207569Y-85993780D01*
X171498720Y-86284931D01*
X171879126Y-86442500D01*
X172290874Y-86442500D01*
X172671280Y-86284931D01*
X172962431Y-85993780D01*
X173120000Y-85613374D01*
X173120000Y-85201626D01*
X172962431Y-84821220D01*
X172671280Y-84530069D01*
X172290874Y-84372500D01*
X171879126Y-84372500D01*
X171498720Y-84530069D01*
X171207569Y-84821220D01*
X171050000Y-85201626D01*
X162623500Y-85201626D01*
X162623500Y-79694904D01*
X203009500Y-80452141D01*
X203009500Y-80452141D01*
G37*
X203009500Y-80452141D02*
X203009500Y-87947500D01*
X203019167Y-87996101D01*
X203046697Y-88037303D01*
X203087899Y-88064833D01*
X203136500Y-88074500D01*
X206435289Y-88074500D01*
X206310369Y-88199420D01*
X206152800Y-88579826D01*
X206152800Y-88991574D01*
X206310369Y-89371980D01*
X206601520Y-89663131D01*
X206981926Y-89820700D01*
X207393674Y-89820700D01*
X207774080Y-89663131D01*
X208065231Y-89371980D01*
X208222800Y-88991574D01*
X208222800Y-88579826D01*
X208065231Y-88199420D01*
X207940311Y-88074500D01*
X211166500Y-88074500D01*
X211166500Y-88155290D01*
X211297428Y-88471376D01*
X211539349Y-88713297D01*
X211855435Y-88844225D01*
X212197565Y-88844225D01*
X212513651Y-88713297D01*
X212755572Y-88471376D01*
X212886500Y-88155290D01*
X212886500Y-88074500D01*
X219437000Y-88074500D01*
X219437000Y-88089874D01*
X219594569Y-88470280D01*
X219885720Y-88761431D01*
X220266126Y-88919000D01*
X220677874Y-88919000D01*
X221058280Y-88761431D01*
X221349431Y-88470280D01*
X221507000Y-88089874D01*
X221507000Y-88074500D01*
X233707237Y-88074500D01*
X233661000Y-88186126D01*
X233661000Y-88597874D01*
X233818569Y-88978280D01*
X234109720Y-89269431D01*
X234490126Y-89427000D01*
X234901874Y-89427000D01*
X235282280Y-89269431D01*
X235573431Y-88978280D01*
X235731000Y-88597874D01*
X235731000Y-88186126D01*
X235684763Y-88074500D01*
X238696500Y-88074500D01*
X238745101Y-88064833D01*
X238786303Y-88037303D01*
X238813833Y-87996101D01*
X238823500Y-87947500D01*
X238823500Y-85124609D01*
X245416838Y-85124609D01*
X245420708Y-85162281D01*
X245647220Y-85590474D01*
X246020353Y-85899390D01*
X246483300Y-86042000D01*
X247033300Y-86042000D01*
X247033300Y-84934000D01*
X247287300Y-84934000D01*
X247287300Y-86042000D01*
X247837300Y-86042000D01*
X248300247Y-85899390D01*
X248673380Y-85590474D01*
X248899892Y-85162281D01*
X248903762Y-85124609D01*
X248966838Y-85124609D01*
X248970708Y-85162281D01*
X249197220Y-85590474D01*
X249570353Y-85899390D01*
X250033300Y-86042000D01*
X250583300Y-86042000D01*
X250583300Y-84934000D01*
X250837300Y-84934000D01*
X250837300Y-86042000D01*
X251387300Y-86042000D01*
X251850247Y-85899390D01*
X252223380Y-85590474D01*
X252449892Y-85162281D01*
X252453762Y-85124609D01*
X252329031Y-84934000D01*
X250837300Y-84934000D01*
X250583300Y-84934000D01*
X249091569Y-84934000D01*
X248966838Y-85124609D01*
X248903762Y-85124609D01*
X248779031Y-84934000D01*
X247287300Y-84934000D01*
X247033300Y-84934000D01*
X245541569Y-84934000D01*
X245416838Y-85124609D01*
X238823500Y-85124609D01*
X238823500Y-84489391D01*
X245416838Y-84489391D01*
X245541569Y-84680000D01*
X247033300Y-84680000D01*
X247033300Y-83572000D01*
X247287300Y-83572000D01*
X247287300Y-84680000D01*
X248779031Y-84680000D01*
X248903762Y-84489391D01*
X248966838Y-84489391D01*
X249091569Y-84680000D01*
X250583300Y-84680000D01*
X250583300Y-83572000D01*
X250837300Y-83572000D01*
X250837300Y-84680000D01*
X252329031Y-84680000D01*
X252453762Y-84489391D01*
X252449892Y-84451719D01*
X252223380Y-84023526D01*
X251850247Y-83714610D01*
X251387300Y-83572000D01*
X250837300Y-83572000D01*
X250583300Y-83572000D01*
X250033300Y-83572000D01*
X249570353Y-83714610D01*
X249197220Y-84023526D01*
X248970708Y-84451719D01*
X248966838Y-84489391D01*
X248903762Y-84489391D01*
X248899892Y-84451719D01*
X248673380Y-84023526D01*
X248300247Y-83714610D01*
X247837300Y-83572000D01*
X247287300Y-83572000D01*
X247033300Y-83572000D01*
X246483300Y-83572000D01*
X246020353Y-83714610D01*
X245647220Y-84023526D01*
X245420708Y-84451719D01*
X245416838Y-84489391D01*
X238823500Y-84489391D01*
X238823500Y-80454500D01*
X252539500Y-80454500D01*
X252539500Y-94507589D01*
X252412500Y-94598365D01*
X252412500Y-95440500D01*
X252432500Y-95440500D01*
X252432500Y-95694500D01*
X252412500Y-95694500D01*
X252412500Y-96710500D01*
X252432500Y-96710500D01*
X252432500Y-96964500D01*
X252412500Y-96964500D01*
X252412500Y-96975527D01*
X252397283Y-96972500D01*
X252173717Y-96972500D01*
X252158500Y-96975527D01*
X252158500Y-96964500D01*
X252147473Y-96964500D01*
X252172735Y-96837500D01*
X252147473Y-96710500D01*
X252158500Y-96710500D01*
X252158500Y-96089822D01*
X252162940Y-96067500D01*
X252162940Y-95067500D01*
X252158500Y-95045178D01*
X252158500Y-94598365D01*
X251983623Y-94473368D01*
X251861277Y-94534833D01*
X251763265Y-94469343D01*
X251515500Y-94420060D01*
X250515500Y-94420060D01*
X250267735Y-94469343D01*
X250057691Y-94609691D01*
X249917343Y-94819735D01*
X249868060Y-95067500D01*
X249868060Y-96067500D01*
X249917343Y-96315265D01*
X249958369Y-96376664D01*
X249946354Y-96394645D01*
X249858265Y-96837500D01*
X249946354Y-97280355D01*
X250074741Y-97472500D01*
X249946354Y-97664645D01*
X249858265Y-98107500D01*
X249884774Y-98240772D01*
X249570817Y-98240772D01*
X249254731Y-98371700D01*
X249012810Y-98613621D01*
X248881882Y-98929707D01*
X248881882Y-99271837D01*
X249012810Y-99587923D01*
X249084400Y-99659513D01*
X248961700Y-99955735D01*
X248961700Y-100297865D01*
X248981650Y-100346028D01*
X248940849Y-100362928D01*
X248698928Y-100604849D01*
X248568000Y-100920935D01*
X248568000Y-101263065D01*
X248698928Y-101579151D01*
X248940849Y-101821072D01*
X249256935Y-101952000D01*
X249599065Y-101952000D01*
X249874060Y-101838093D01*
X249858265Y-101917500D01*
X249946354Y-102360355D01*
X250074741Y-102552500D01*
X249946354Y-102744645D01*
X249858265Y-103187500D01*
X249946354Y-103630355D01*
X250074741Y-103822500D01*
X249946354Y-104014645D01*
X249858265Y-104457500D01*
X249946354Y-104900355D01*
X250074741Y-105092500D01*
X249946354Y-105284645D01*
X249858265Y-105727500D01*
X249946354Y-106170355D01*
X250074741Y-106362500D01*
X249946354Y-106554645D01*
X249858265Y-106997500D01*
X249946354Y-107440355D01*
X250074741Y-107632500D01*
X249946354Y-107824645D01*
X249858265Y-108267500D01*
X249946354Y-108710355D01*
X250074741Y-108902500D01*
X249946354Y-109094645D01*
X249858265Y-109537500D01*
X249946354Y-109980355D01*
X250074741Y-110172500D01*
X249946354Y-110364645D01*
X249858265Y-110807500D01*
X249946354Y-111250355D01*
X250074741Y-111442500D01*
X249946354Y-111634645D01*
X249858265Y-112077500D01*
X249946354Y-112520355D01*
X250074741Y-112712500D01*
X249946354Y-112904645D01*
X249858265Y-113347500D01*
X249946354Y-113790355D01*
X250082699Y-113994410D01*
X250028373Y-114057291D01*
X249921381Y-114315626D01*
X250047546Y-114490500D01*
X250888500Y-114490500D01*
X250888500Y-114479473D01*
X250903717Y-114482500D01*
X251127283Y-114482500D01*
X251142500Y-114479473D01*
X251142500Y-114490500D01*
X252158500Y-114490500D01*
X252158500Y-113474500D01*
X252147473Y-113474500D01*
X252172735Y-113347500D01*
X252147473Y-113220500D01*
X252158500Y-113220500D01*
X252158500Y-113209473D01*
X252173717Y-113212500D01*
X252397283Y-113212500D01*
X252412500Y-113209473D01*
X252412500Y-113220500D01*
X252432500Y-113220500D01*
X252432500Y-113474500D01*
X252412500Y-113474500D01*
X252412500Y-114490500D01*
X252432500Y-114490500D01*
X252432500Y-114744500D01*
X252412500Y-114744500D01*
X252412500Y-114755527D01*
X252397283Y-114752500D01*
X252173717Y-114752500D01*
X252158500Y-114755527D01*
X252158500Y-114744500D01*
X251142500Y-114744500D01*
X251142500Y-114755527D01*
X251127283Y-114752500D01*
X250903717Y-114752500D01*
X250888500Y-114755527D01*
X250888500Y-114744500D01*
X250047546Y-114744500D01*
X249921381Y-114919374D01*
X250028373Y-115177709D01*
X250082699Y-115240590D01*
X249946354Y-115444645D01*
X249858265Y-115887500D01*
X249946354Y-116330355D01*
X250074741Y-116522500D01*
X249946354Y-116714645D01*
X249858265Y-117157500D01*
X249946354Y-117600355D01*
X250082699Y-117804410D01*
X250028373Y-117867291D01*
X249921381Y-118125626D01*
X250047546Y-118300500D01*
X250888500Y-118300500D01*
X250888500Y-118289473D01*
X250903717Y-118292500D01*
X251127283Y-118292500D01*
X251142500Y-118289473D01*
X251142500Y-118300500D01*
X251153527Y-118300500D01*
X251128265Y-118427500D01*
X251153527Y-118554500D01*
X251142500Y-118554500D01*
X251142500Y-118565527D01*
X251127283Y-118562500D01*
X250903717Y-118562500D01*
X250888500Y-118565527D01*
X250888500Y-118554500D01*
X250047546Y-118554500D01*
X249921381Y-118729374D01*
X250028373Y-118987709D01*
X250082699Y-119050590D01*
X249946354Y-119254645D01*
X249858265Y-119697500D01*
X249946354Y-120140355D01*
X250074741Y-120332500D01*
X249946354Y-120524645D01*
X249858265Y-120967500D01*
X249946354Y-121410355D01*
X250074741Y-121602500D01*
X249946354Y-121794645D01*
X249858265Y-122237500D01*
X249946354Y-122680355D01*
X250074741Y-122872500D01*
X249946354Y-123064645D01*
X249858265Y-123507500D01*
X249946354Y-123950355D01*
X250074741Y-124142500D01*
X249946354Y-124334645D01*
X249858265Y-124777500D01*
X249946354Y-125220355D01*
X250074741Y-125412500D01*
X249946354Y-125604645D01*
X249858265Y-126047500D01*
X249946354Y-126490355D01*
X250074741Y-126682500D01*
X249946354Y-126874645D01*
X249858265Y-127317500D01*
X249946354Y-127760355D01*
X250074741Y-127952500D01*
X249946354Y-128144645D01*
X249858265Y-128587500D01*
X249946354Y-129030355D01*
X250074741Y-129222500D01*
X249946354Y-129414645D01*
X249858265Y-129857500D01*
X249946354Y-130300355D01*
X250074741Y-130492500D01*
X249946354Y-130684645D01*
X249858265Y-131127500D01*
X249946354Y-131570355D01*
X250074741Y-131762500D01*
X249946354Y-131954645D01*
X249858265Y-132397500D01*
X249946354Y-132840355D01*
X250074741Y-133032500D01*
X249946354Y-133224645D01*
X249858265Y-133667500D01*
X249946354Y-134110355D01*
X250074741Y-134302500D01*
X249946354Y-134494645D01*
X249858265Y-134937500D01*
X249946354Y-135380355D01*
X250197211Y-135755789D01*
X250572645Y-136006646D01*
X250903717Y-136072500D01*
X251127283Y-136072500D01*
X251458355Y-136006646D01*
X251650500Y-135878259D01*
X251842645Y-136006646D01*
X252173717Y-136072500D01*
X252397283Y-136072500D01*
X252539500Y-136044211D01*
X252539500Y-169100500D01*
X162623500Y-169100500D01*
X162623500Y-157911374D01*
X164803160Y-157911374D01*
X164803160Y-160184942D01*
X165673217Y-162285445D01*
X167280873Y-163893101D01*
X169381376Y-164763158D01*
X171654944Y-164763158D01*
X172495505Y-164414986D01*
X178517603Y-164414986D01*
X179113382Y-165105799D01*
X181198363Y-166012423D01*
X183471584Y-166052147D01*
X185586968Y-165218923D01*
X185756270Y-165105799D01*
X186352049Y-164414986D01*
X182434826Y-160497763D01*
X178517603Y-164414986D01*
X172495505Y-164414986D01*
X173755447Y-163893101D01*
X175363103Y-162285445D01*
X175748540Y-161354916D01*
X176700837Y-161354916D01*
X177534061Y-163470300D01*
X177647185Y-163639602D01*
X178337998Y-164235381D01*
X182255221Y-160318158D01*
X182614431Y-160318158D01*
X186531654Y-164235381D01*
X187222467Y-163639602D01*
X188129091Y-161554621D01*
X188168815Y-159281400D01*
X188129416Y-159181374D01*
X195689826Y-159181374D01*
X195689826Y-161454942D01*
X196559883Y-163555445D01*
X198167539Y-165163101D01*
X200268042Y-166033158D01*
X202541610Y-166033158D01*
X204642113Y-165163101D01*
X205390228Y-164414986D01*
X209404269Y-164414986D01*
X210000048Y-165105799D01*
X212085029Y-166012423D01*
X214358250Y-166052147D01*
X216473634Y-165218923D01*
X216642936Y-165105799D01*
X217238715Y-164414986D01*
X213321492Y-160497763D01*
X209404269Y-164414986D01*
X205390228Y-164414986D01*
X206249769Y-163555445D01*
X207119826Y-161454942D01*
X207119826Y-161354916D01*
X207587503Y-161354916D01*
X208420727Y-163470300D01*
X208533851Y-163639602D01*
X209224664Y-164235381D01*
X213141887Y-160318158D01*
X213501097Y-160318158D01*
X217418320Y-164235381D01*
X218109133Y-163639602D01*
X219015757Y-161554621D01*
X219055481Y-159281400D01*
X219016082Y-159181374D01*
X226576492Y-159181374D01*
X226576492Y-161454942D01*
X227446549Y-163555445D01*
X229054205Y-165163101D01*
X231154708Y-166033158D01*
X233428276Y-166033158D01*
X235528779Y-165163101D01*
X237136435Y-163555445D01*
X238006492Y-161454942D01*
X238006492Y-159181374D01*
X237882991Y-158883216D01*
X238463160Y-158883216D01*
X238463160Y-161156784D01*
X239333217Y-163257287D01*
X240940873Y-164864943D01*
X243041376Y-165735000D01*
X245314944Y-165735000D01*
X247415447Y-164864943D01*
X249023103Y-163257287D01*
X249893160Y-161156784D01*
X249893160Y-158883216D01*
X249023103Y-156782713D01*
X247415447Y-155175057D01*
X245314944Y-154305000D01*
X243041376Y-154305000D01*
X240940873Y-155175057D01*
X239333217Y-156782713D01*
X238463160Y-158883216D01*
X237882991Y-158883216D01*
X237136435Y-157080871D01*
X235528779Y-155473215D01*
X233428276Y-154603158D01*
X231154708Y-154603158D01*
X229054205Y-155473215D01*
X227446549Y-157080871D01*
X226576492Y-159181374D01*
X219016082Y-159181374D01*
X218222257Y-157166016D01*
X218109133Y-156996714D01*
X217418320Y-156400935D01*
X213501097Y-160318158D01*
X213141887Y-160318158D01*
X209224664Y-156400935D01*
X208533851Y-156996714D01*
X207627227Y-159081695D01*
X207587503Y-161354916D01*
X207119826Y-161354916D01*
X207119826Y-159181374D01*
X206249769Y-157080871D01*
X205390228Y-156221330D01*
X209404269Y-156221330D01*
X213321492Y-160138553D01*
X217238715Y-156221330D01*
X216642936Y-155530517D01*
X214557955Y-154623893D01*
X212284734Y-154584169D01*
X210169350Y-155417393D01*
X210000048Y-155530517D01*
X209404269Y-156221330D01*
X205390228Y-156221330D01*
X204642113Y-155473215D01*
X202541610Y-154603158D01*
X200268042Y-154603158D01*
X198167539Y-155473215D01*
X196559883Y-157080871D01*
X195689826Y-159181374D01*
X188129416Y-159181374D01*
X187335591Y-157166016D01*
X187222467Y-156996714D01*
X186531654Y-156400935D01*
X182614431Y-160318158D01*
X182255221Y-160318158D01*
X178337998Y-156400935D01*
X177647185Y-156996714D01*
X176740561Y-159081695D01*
X176700837Y-161354916D01*
X175748540Y-161354916D01*
X176233160Y-160184942D01*
X176233160Y-157911374D01*
X175533121Y-156221330D01*
X178517603Y-156221330D01*
X182434826Y-160138553D01*
X186352049Y-156221330D01*
X185756270Y-155530517D01*
X183671289Y-154623893D01*
X181398068Y-154584169D01*
X179282684Y-155417393D01*
X179113382Y-155530517D01*
X178517603Y-156221330D01*
X175533121Y-156221330D01*
X175363103Y-155810871D01*
X173755447Y-154203215D01*
X171654944Y-153333158D01*
X169381376Y-153333158D01*
X167280873Y-154203215D01*
X165673217Y-155810871D01*
X164803160Y-157911374D01*
X162623500Y-157911374D01*
X162623500Y-151065750D01*
X184373200Y-151065750D01*
X184373200Y-151815650D01*
X184660174Y-152508467D01*
X185190433Y-153038726D01*
X185883250Y-153325700D01*
X186633150Y-153325700D01*
X187325967Y-153038726D01*
X187598258Y-152766435D01*
X222118500Y-152766435D01*
X222118500Y-153108565D01*
X222249428Y-153424651D01*
X222491349Y-153666572D01*
X222807435Y-153797500D01*
X223149565Y-153797500D01*
X223465651Y-153666572D01*
X223707572Y-153424651D01*
X223838500Y-153108565D01*
X223838500Y-152766435D01*
X224118500Y-152766435D01*
X224118500Y-153108565D01*
X224249428Y-153424651D01*
X224491349Y-153666572D01*
X224807435Y-153797500D01*
X225149565Y-153797500D01*
X225465651Y-153666572D01*
X225707572Y-153424651D01*
X225838500Y-153108565D01*
X225838500Y-152766435D01*
X226118500Y-152766435D01*
X226118500Y-153108565D01*
X226249428Y-153424651D01*
X226491349Y-153666572D01*
X226807435Y-153797500D01*
X227149565Y-153797500D01*
X227465651Y-153666572D01*
X227707572Y-153424651D01*
X227838500Y-153108565D01*
X227838500Y-152766435D01*
X227707572Y-152450349D01*
X227465651Y-152208428D01*
X227149565Y-152077500D01*
X226807435Y-152077500D01*
X226491349Y-152208428D01*
X226249428Y-152450349D01*
X226118500Y-152766435D01*
X225838500Y-152766435D01*
X225707572Y-152450349D01*
X225465651Y-152208428D01*
X225149565Y-152077500D01*
X224807435Y-152077500D01*
X224491349Y-152208428D01*
X224249428Y-152450349D01*
X224118500Y-152766435D01*
X223838500Y-152766435D01*
X223707572Y-152450349D01*
X223465651Y-152208428D01*
X223149565Y-152077500D01*
X222807435Y-152077500D01*
X222491349Y-152208428D01*
X222249428Y-152450349D01*
X222118500Y-152766435D01*
X187598258Y-152766435D01*
X187856226Y-152508467D01*
X188143200Y-151815650D01*
X188143200Y-151072550D01*
X233398600Y-151072550D01*
X233398600Y-151822450D01*
X233685574Y-152515267D01*
X234215833Y-153045526D01*
X234908650Y-153332500D01*
X235658550Y-153332500D01*
X236351367Y-153045526D01*
X236881626Y-152515267D01*
X237168600Y-151822450D01*
X237168600Y-151072550D01*
X236881626Y-150379733D01*
X236351367Y-149849474D01*
X235658550Y-149562500D01*
X234908650Y-149562500D01*
X234215833Y-149849474D01*
X233685574Y-150379733D01*
X233398600Y-151072550D01*
X188143200Y-151072550D01*
X188143200Y-151065750D01*
X187856226Y-150372933D01*
X187325967Y-149842674D01*
X186633150Y-149555700D01*
X185883250Y-149555700D01*
X185190433Y-149842674D01*
X184660174Y-150372933D01*
X184373200Y-151065750D01*
X162623500Y-151065750D01*
X162623500Y-146763835D01*
X179717200Y-146763835D01*
X179717200Y-147105965D01*
X179848128Y-147422051D01*
X180090049Y-147663972D01*
X180406135Y-147794900D01*
X180748265Y-147794900D01*
X181064351Y-147663972D01*
X181306272Y-147422051D01*
X181437200Y-147105965D01*
X181437200Y-146763835D01*
X181306272Y-146447749D01*
X181064351Y-146205828D01*
X180748265Y-146074900D01*
X180406135Y-146074900D01*
X180090049Y-146205828D01*
X179848128Y-146447749D01*
X179717200Y-146763835D01*
X162623500Y-146763835D01*
X162623500Y-144174986D01*
X166600937Y-144174986D01*
X167196716Y-144865799D01*
X169281697Y-145772423D01*
X171554918Y-145812147D01*
X173244025Y-145146828D01*
X240260937Y-145146828D01*
X240856716Y-145837641D01*
X242941697Y-146744265D01*
X245214918Y-146783989D01*
X247330302Y-145950765D01*
X247499604Y-145837641D01*
X248095383Y-145146828D01*
X244178160Y-141229605D01*
X240260937Y-145146828D01*
X173244025Y-145146828D01*
X173670302Y-144978923D01*
X173839604Y-144865799D01*
X174435383Y-144174986D01*
X170518160Y-140257763D01*
X166600937Y-144174986D01*
X162623500Y-144174986D01*
X162623500Y-141114916D01*
X164784171Y-141114916D01*
X165617395Y-143230300D01*
X165730519Y-143399602D01*
X166421332Y-143995381D01*
X170338555Y-140078158D01*
X170697765Y-140078158D01*
X174614988Y-143995381D01*
X175305801Y-143399602D01*
X175876672Y-142086758D01*
X238444171Y-142086758D01*
X239277395Y-144202142D01*
X239390519Y-144371444D01*
X240081332Y-144967223D01*
X243998555Y-141050000D01*
X244357765Y-141050000D01*
X248274988Y-144967223D01*
X248965801Y-144371444D01*
X249872425Y-142286463D01*
X249912149Y-140013242D01*
X249078925Y-137897858D01*
X248965801Y-137728556D01*
X248274988Y-137132777D01*
X244357765Y-141050000D01*
X243998555Y-141050000D01*
X240081332Y-137132777D01*
X239390519Y-137728556D01*
X238483895Y-139813537D01*
X238444171Y-142086758D01*
X175876672Y-142086758D01*
X176212425Y-141314621D01*
X176246678Y-139354426D01*
X178263600Y-139354426D01*
X178263600Y-139766174D01*
X178421169Y-140146580D01*
X178712320Y-140437731D01*
X179092726Y-140595300D01*
X179504474Y-140595300D01*
X179884880Y-140437731D01*
X180176031Y-140146580D01*
X180209563Y-140065626D01*
X195561006Y-140065626D01*
X195561006Y-140477374D01*
X195718575Y-140857780D01*
X196009726Y-141148931D01*
X196390132Y-141306500D01*
X196801880Y-141306500D01*
X197182286Y-141148931D01*
X197473437Y-140857780D01*
X197631006Y-140477374D01*
X197631006Y-140065626D01*
X197473437Y-139685220D01*
X197182286Y-139394069D01*
X196801880Y-139236500D01*
X196390132Y-139236500D01*
X196009726Y-139394069D01*
X195718575Y-139685220D01*
X195561006Y-140065626D01*
X180209563Y-140065626D01*
X180333600Y-139766174D01*
X180333600Y-139354426D01*
X180176031Y-138974020D01*
X179884880Y-138682869D01*
X179504474Y-138525300D01*
X179092726Y-138525300D01*
X178712320Y-138682869D01*
X178421169Y-138974020D01*
X178263600Y-139354426D01*
X176246678Y-139354426D01*
X176252149Y-139041400D01*
X175429622Y-136953172D01*
X240260937Y-136953172D01*
X244178160Y-140870395D01*
X248095383Y-136953172D01*
X247499604Y-136262359D01*
X245414623Y-135355735D01*
X243141402Y-135316011D01*
X241026018Y-136149235D01*
X240856716Y-136262359D01*
X240260937Y-136953172D01*
X175429622Y-136953172D01*
X175418925Y-136926016D01*
X175305801Y-136756714D01*
X174614988Y-136160935D01*
X170697765Y-140078158D01*
X170338555Y-140078158D01*
X166421332Y-136160935D01*
X165730519Y-136756714D01*
X164823895Y-138841695D01*
X164784171Y-141114916D01*
X162623500Y-141114916D01*
X162623500Y-136018811D01*
X162765717Y-136047100D01*
X162989283Y-136047100D01*
X163320355Y-135981246D01*
X163338336Y-135969231D01*
X163399735Y-136010257D01*
X163647500Y-136059540D01*
X164647500Y-136059540D01*
X164895265Y-136010257D01*
X164938556Y-135981330D01*
X166600937Y-135981330D01*
X170518160Y-139898553D01*
X174435383Y-135981330D01*
X173839604Y-135290517D01*
X171754623Y-134383893D01*
X169481402Y-134344169D01*
X167366018Y-135177393D01*
X167196716Y-135290517D01*
X166600937Y-135981330D01*
X164938556Y-135981330D01*
X165105309Y-135869909D01*
X165245657Y-135659865D01*
X165294940Y-135412100D01*
X165294940Y-134412100D01*
X165245657Y-134164335D01*
X165204631Y-134102936D01*
X165216646Y-134084955D01*
X165304735Y-133642100D01*
X165271914Y-133477093D01*
X200181000Y-133477093D01*
X200181000Y-133819223D01*
X200311928Y-134135309D01*
X200553849Y-134377230D01*
X200869935Y-134508158D01*
X201212065Y-134508158D01*
X201528151Y-134377230D01*
X201770072Y-134135309D01*
X201901000Y-133819223D01*
X201901000Y-133477093D01*
X201770072Y-133161007D01*
X201528151Y-132919086D01*
X201212065Y-132788158D01*
X200869935Y-132788158D01*
X200553849Y-132919086D01*
X200311928Y-133161007D01*
X200181000Y-133477093D01*
X165271914Y-133477093D01*
X165216646Y-133199245D01*
X165088259Y-133007100D01*
X165216646Y-132814955D01*
X165304735Y-132372100D01*
X165216646Y-131929245D01*
X165088259Y-131737100D01*
X165216646Y-131544955D01*
X165304735Y-131102100D01*
X165216646Y-130659245D01*
X165088259Y-130467100D01*
X165216646Y-130274955D01*
X165304735Y-129832100D01*
X165241487Y-129514125D01*
X236137500Y-129514125D01*
X236137500Y-129925873D01*
X236295069Y-130306279D01*
X236586220Y-130597430D01*
X236966626Y-130754999D01*
X237378374Y-130754999D01*
X237758780Y-130597430D01*
X238049931Y-130306279D01*
X238207500Y-129925873D01*
X238207500Y-129514125D01*
X238049931Y-129133719D01*
X237758780Y-128842568D01*
X237378374Y-128684999D01*
X236966626Y-128684999D01*
X236586220Y-128842568D01*
X236295069Y-129133719D01*
X236137500Y-129514125D01*
X165241487Y-129514125D01*
X165216646Y-129389245D01*
X165088259Y-129197100D01*
X165216646Y-129004955D01*
X165304735Y-128562100D01*
X165216646Y-128119245D01*
X165088259Y-127927100D01*
X165216646Y-127734955D01*
X165304735Y-127292100D01*
X165241487Y-126974125D01*
X175685500Y-126974125D01*
X175685500Y-127385873D01*
X175843069Y-127766279D01*
X176134220Y-128057430D01*
X176211187Y-128089311D01*
X176243068Y-128166278D01*
X176534219Y-128457429D01*
X176914625Y-128614998D01*
X177326373Y-128614998D01*
X177706779Y-128457429D01*
X177997930Y-128166278D01*
X178155499Y-127785872D01*
X178155499Y-127374124D01*
X177997930Y-126993718D01*
X177706779Y-126702567D01*
X177629812Y-126670686D01*
X177615292Y-126635631D01*
X177767072Y-126483851D01*
X177898000Y-126167765D01*
X177898000Y-125990735D01*
X180635700Y-125990735D01*
X180635700Y-126332865D01*
X180766628Y-126648951D01*
X181008549Y-126890872D01*
X181324635Y-127021800D01*
X181666765Y-127021800D01*
X181982851Y-126890872D01*
X182224772Y-126648951D01*
X182355700Y-126332865D01*
X182355700Y-125990735D01*
X182339919Y-125952635D01*
X190325800Y-125952635D01*
X190325800Y-126294765D01*
X190456728Y-126610851D01*
X190698649Y-126852772D01*
X191014735Y-126983700D01*
X191356865Y-126983700D01*
X191672951Y-126852772D01*
X191914872Y-126610851D01*
X192045800Y-126294765D01*
X192045800Y-125952635D01*
X191914872Y-125636549D01*
X191672951Y-125394628D01*
X191356865Y-125263700D01*
X191014735Y-125263700D01*
X190698649Y-125394628D01*
X190456728Y-125636549D01*
X190325800Y-125952635D01*
X182339919Y-125952635D01*
X182224772Y-125674649D01*
X181982851Y-125432728D01*
X181666765Y-125301800D01*
X181324635Y-125301800D01*
X181008549Y-125432728D01*
X180766628Y-125674649D01*
X180635700Y-125990735D01*
X177898000Y-125990735D01*
X177898000Y-125825635D01*
X177767072Y-125509549D01*
X177525151Y-125267628D01*
X177209065Y-125136700D01*
X176866935Y-125136700D01*
X176550849Y-125267628D01*
X176308928Y-125509549D01*
X176178000Y-125825635D01*
X176178000Y-126167765D01*
X176219249Y-126267348D01*
X176134220Y-126302568D01*
X175843069Y-126593719D01*
X175685500Y-126974125D01*
X165241487Y-126974125D01*
X165216646Y-126849245D01*
X165088259Y-126657100D01*
X165216646Y-126464955D01*
X165304735Y-126022100D01*
X165216646Y-125579245D01*
X165088259Y-125387100D01*
X165216646Y-125194955D01*
X165304735Y-124752100D01*
X165216646Y-124309245D01*
X165088259Y-124117100D01*
X165216646Y-123924955D01*
X165304735Y-123482100D01*
X165298497Y-123450735D01*
X190071800Y-123450735D01*
X190071800Y-123792865D01*
X190202728Y-124108951D01*
X190444649Y-124350872D01*
X190760735Y-124481800D01*
X191102865Y-124481800D01*
X191418951Y-124350872D01*
X191660872Y-124108951D01*
X191791800Y-123792865D01*
X191791800Y-123552335D01*
X191811700Y-123552335D01*
X191811700Y-123894465D01*
X191942628Y-124210551D01*
X192184549Y-124452472D01*
X192500635Y-124583400D01*
X192842765Y-124583400D01*
X193158851Y-124452472D01*
X193400772Y-124210551D01*
X193531700Y-123894465D01*
X193531700Y-123552335D01*
X193400772Y-123236249D01*
X193158851Y-122994328D01*
X192842765Y-122863400D01*
X192500635Y-122863400D01*
X192184549Y-122994328D01*
X191942628Y-123236249D01*
X191811700Y-123552335D01*
X191791800Y-123552335D01*
X191791800Y-123450735D01*
X191660872Y-123134649D01*
X191418951Y-122892728D01*
X191102865Y-122761800D01*
X190760735Y-122761800D01*
X190444649Y-122892728D01*
X190202728Y-123134649D01*
X190071800Y-123450735D01*
X165298497Y-123450735D01*
X165216646Y-123039245D01*
X165088259Y-122847100D01*
X165216646Y-122654955D01*
X165304735Y-122212100D01*
X165216646Y-121769245D01*
X165088259Y-121577100D01*
X165216646Y-121384955D01*
X165303395Y-120948835D01*
X177321000Y-120948835D01*
X177321000Y-121290965D01*
X177451928Y-121607051D01*
X177693849Y-121848972D01*
X178009935Y-121979900D01*
X178352065Y-121979900D01*
X178668151Y-121848972D01*
X178910072Y-121607051D01*
X179041000Y-121290965D01*
X179041000Y-120999635D01*
X180496000Y-120999635D01*
X180496000Y-121341765D01*
X180626928Y-121657851D01*
X180868849Y-121899772D01*
X181184935Y-122030700D01*
X181527065Y-122030700D01*
X181843151Y-121899772D01*
X182028797Y-121714126D01*
X199625000Y-121714126D01*
X199625000Y-122125874D01*
X199782569Y-122506280D01*
X200073720Y-122797431D01*
X200454126Y-122955000D01*
X200865874Y-122955000D01*
X201246280Y-122797431D01*
X201537431Y-122506280D01*
X201695000Y-122125874D01*
X201695000Y-121714126D01*
X201537431Y-121333720D01*
X201536837Y-121333126D01*
X208197500Y-121333126D01*
X208197500Y-121744874D01*
X208355069Y-122125280D01*
X208646220Y-122416431D01*
X209026626Y-122574000D01*
X209438374Y-122574000D01*
X209818780Y-122416431D01*
X210109931Y-122125280D01*
X210267500Y-121744874D01*
X210267500Y-121726826D01*
X244646500Y-121726826D01*
X244646500Y-122138574D01*
X244804069Y-122518980D01*
X245095220Y-122810131D01*
X245475626Y-122967700D01*
X245887374Y-122967700D01*
X246267780Y-122810131D01*
X246558931Y-122518980D01*
X246716500Y-122138574D01*
X246716500Y-121726826D01*
X246558931Y-121346420D01*
X246267780Y-121055269D01*
X245887374Y-120897700D01*
X245475626Y-120897700D01*
X245095220Y-121055269D01*
X244804069Y-121346420D01*
X244646500Y-121726826D01*
X210267500Y-121726826D01*
X210267500Y-121333126D01*
X210109931Y-120952720D01*
X209818780Y-120661569D01*
X209438374Y-120504000D01*
X209026626Y-120504000D01*
X208646220Y-120661569D01*
X208355069Y-120952720D01*
X208197500Y-121333126D01*
X201536837Y-121333126D01*
X201246280Y-121042569D01*
X200865874Y-120885000D01*
X200454126Y-120885000D01*
X200073720Y-121042569D01*
X199782569Y-121333720D01*
X199625000Y-121714126D01*
X182028797Y-121714126D01*
X182085072Y-121657851D01*
X182216000Y-121341765D01*
X182216000Y-120999635D01*
X182085072Y-120683549D01*
X181843151Y-120441628D01*
X181527065Y-120310700D01*
X181184935Y-120310700D01*
X180868849Y-120441628D01*
X180626928Y-120683549D01*
X180496000Y-120999635D01*
X179041000Y-120999635D01*
X179041000Y-120948835D01*
X178910072Y-120632749D01*
X178668151Y-120390828D01*
X178352065Y-120259900D01*
X178009935Y-120259900D01*
X177693849Y-120390828D01*
X177451928Y-120632749D01*
X177321000Y-120948835D01*
X165303395Y-120948835D01*
X165304735Y-120942100D01*
X165216646Y-120499245D01*
X165088259Y-120307100D01*
X165216646Y-120114955D01*
X165304735Y-119672100D01*
X165216646Y-119229245D01*
X165080301Y-119025190D01*
X165134627Y-118962309D01*
X165241619Y-118703974D01*
X165115454Y-118529100D01*
X164274500Y-118529100D01*
X164274500Y-118540127D01*
X164259283Y-118537100D01*
X164035717Y-118537100D01*
X164020500Y-118540127D01*
X164020500Y-118529100D01*
X164009473Y-118529100D01*
X164034735Y-118402100D01*
X164021177Y-118333935D01*
X189728900Y-118333935D01*
X189728900Y-118676065D01*
X189859828Y-118992151D01*
X190101749Y-119234072D01*
X190417835Y-119365000D01*
X190759965Y-119365000D01*
X191076051Y-119234072D01*
X191317972Y-118992151D01*
X191448900Y-118676065D01*
X191448900Y-118333935D01*
X194731400Y-118333935D01*
X194731400Y-118676065D01*
X194862328Y-118992151D01*
X195104249Y-119234072D01*
X195420335Y-119365000D01*
X195762465Y-119365000D01*
X196078551Y-119234072D01*
X196138497Y-119174126D01*
X231311500Y-119174126D01*
X231311500Y-119585874D01*
X231469069Y-119966280D01*
X231760220Y-120257431D01*
X232140626Y-120415000D01*
X232552374Y-120415000D01*
X232932780Y-120257431D01*
X233223931Y-119966280D01*
X233381500Y-119585874D01*
X233381500Y-119174126D01*
X233223931Y-118793720D01*
X232932780Y-118502569D01*
X232552374Y-118345000D01*
X232140626Y-118345000D01*
X231760220Y-118502569D01*
X231469069Y-118793720D01*
X231311500Y-119174126D01*
X196138497Y-119174126D01*
X196320472Y-118992151D01*
X196451400Y-118676065D01*
X196451400Y-118333935D01*
X196320472Y-118017849D01*
X196078551Y-117775928D01*
X195762465Y-117645000D01*
X195420335Y-117645000D01*
X195104249Y-117775928D01*
X194862328Y-118017849D01*
X194731400Y-118333935D01*
X191448900Y-118333935D01*
X191317972Y-118017849D01*
X191076051Y-117775928D01*
X190759965Y-117645000D01*
X190417835Y-117645000D01*
X190101749Y-117775928D01*
X189859828Y-118017849D01*
X189728900Y-118333935D01*
X164021177Y-118333935D01*
X164009473Y-118275100D01*
X164020500Y-118275100D01*
X164020500Y-118264073D01*
X164035717Y-118267100D01*
X164259283Y-118267100D01*
X164274500Y-118264073D01*
X164274500Y-118275100D01*
X165115454Y-118275100D01*
X165241619Y-118100226D01*
X165134627Y-117841891D01*
X165080301Y-117779010D01*
X165216646Y-117574955D01*
X165304735Y-117132100D01*
X165216646Y-116689245D01*
X165088259Y-116497100D01*
X165216646Y-116304955D01*
X165304735Y-115862100D01*
X165230944Y-115491126D01*
X203181000Y-115491126D01*
X203181000Y-115902874D01*
X203338569Y-116283280D01*
X203624044Y-116568755D01*
X203529069Y-116663729D01*
X203371500Y-117044135D01*
X203371500Y-117455883D01*
X203529069Y-117836289D01*
X203820220Y-118127440D01*
X204200626Y-118285009D01*
X204612374Y-118285009D01*
X204992780Y-118127440D01*
X205283931Y-117836289D01*
X205441500Y-117455883D01*
X205441500Y-117044135D01*
X205283931Y-116663729D01*
X204998457Y-116378255D01*
X205093431Y-116283280D01*
X205251000Y-115902874D01*
X205251000Y-115491126D01*
X205093431Y-115110720D01*
X204802280Y-114819569D01*
X204421874Y-114662000D01*
X204010126Y-114662000D01*
X203629720Y-114819569D01*
X203338569Y-115110720D01*
X203181000Y-115491126D01*
X165230944Y-115491126D01*
X165216646Y-115419245D01*
X165080301Y-115215190D01*
X165134627Y-115152309D01*
X165241619Y-114893974D01*
X165115454Y-114719100D01*
X164274500Y-114719100D01*
X164274500Y-114730127D01*
X164259283Y-114727100D01*
X164035717Y-114727100D01*
X164020500Y-114730127D01*
X164020500Y-114719100D01*
X163004500Y-114719100D01*
X163004500Y-114730127D01*
X162989283Y-114727100D01*
X162765717Y-114727100D01*
X162750500Y-114730127D01*
X162750500Y-114719100D01*
X162730500Y-114719100D01*
X162730500Y-114465100D01*
X162750500Y-114465100D01*
X162750500Y-113449100D01*
X162730500Y-113449100D01*
X162730500Y-113195100D01*
X162750500Y-113195100D01*
X162750500Y-113184073D01*
X162765717Y-113187100D01*
X162989283Y-113187100D01*
X163004500Y-113184073D01*
X163004500Y-113195100D01*
X163015527Y-113195100D01*
X162990265Y-113322100D01*
X163015527Y-113449100D01*
X163004500Y-113449100D01*
X163004500Y-114465100D01*
X164020500Y-114465100D01*
X164020500Y-114454073D01*
X164035717Y-114457100D01*
X164259283Y-114457100D01*
X164274500Y-114454073D01*
X164274500Y-114465100D01*
X165115454Y-114465100D01*
X165241619Y-114290226D01*
X165134627Y-114031891D01*
X165080301Y-113969010D01*
X165094448Y-113947836D01*
X211166500Y-113947836D01*
X211166500Y-114289966D01*
X211297428Y-114606052D01*
X211539349Y-114847973D01*
X211855435Y-114978901D01*
X212197565Y-114978901D01*
X212513651Y-114847973D01*
X212755572Y-114606052D01*
X212886500Y-114289966D01*
X212886500Y-113947836D01*
X212755572Y-113631750D01*
X212513651Y-113389829D01*
X212197565Y-113258901D01*
X211855435Y-113258901D01*
X211539349Y-113389829D01*
X211297428Y-113631750D01*
X211166500Y-113947836D01*
X165094448Y-113947836D01*
X165216646Y-113764955D01*
X165304735Y-113322100D01*
X165216646Y-112879245D01*
X165088259Y-112687100D01*
X165216646Y-112494955D01*
X165304735Y-112052100D01*
X165216646Y-111609245D01*
X165088259Y-111417100D01*
X165216646Y-111224955D01*
X165304735Y-110782100D01*
X165216646Y-110339245D01*
X165088259Y-110147100D01*
X165216646Y-109954955D01*
X165304735Y-109512100D01*
X165216646Y-109069245D01*
X165088259Y-108877100D01*
X165216646Y-108684955D01*
X165304735Y-108242100D01*
X165216646Y-107799245D01*
X165088259Y-107607100D01*
X165216646Y-107414955D01*
X165296003Y-107016001D01*
X166729310Y-107016001D01*
X166570854Y-107253146D01*
X166482765Y-107696000D01*
X166570854Y-108138854D01*
X166758392Y-108419523D01*
X167456887Y-109118018D01*
X167520211Y-109212789D01*
X167861861Y-109441072D01*
X167895645Y-109463646D01*
X168338499Y-109551735D01*
X168450282Y-109529500D01*
X170669000Y-109529500D01*
X170669000Y-109878984D01*
X170826569Y-110259390D01*
X171117720Y-110550541D01*
X171498126Y-110708110D01*
X171909874Y-110708110D01*
X172290280Y-110550541D01*
X172581431Y-110259390D01*
X172739000Y-109878984D01*
X172739000Y-109529500D01*
X177781000Y-109529500D01*
X177781000Y-109933874D01*
X177938569Y-110314280D01*
X178033852Y-110409563D01*
X177997711Y-110433711D01*
X177746854Y-110809145D01*
X177658765Y-111252000D01*
X177746854Y-111694855D01*
X177997711Y-112070289D01*
X178373145Y-112321146D01*
X178704217Y-112387000D01*
X178714312Y-112387000D01*
X178843554Y-112473357D01*
X179174626Y-112539211D01*
X179286409Y-112561446D01*
X179398192Y-112539211D01*
X181799990Y-112539211D01*
X181911773Y-112561446D01*
X182023556Y-112539211D01*
X182354628Y-112473357D01*
X182442810Y-112414435D01*
X209896500Y-112414435D01*
X209896500Y-112756565D01*
X210027428Y-113072651D01*
X210269349Y-113314572D01*
X210585435Y-113445500D01*
X210927565Y-113445500D01*
X211243651Y-113314572D01*
X211485572Y-113072651D01*
X211616500Y-112756565D01*
X211616500Y-112414435D01*
X211485572Y-112098349D01*
X211243651Y-111856428D01*
X210927565Y-111725500D01*
X210585435Y-111725500D01*
X210269349Y-111856428D01*
X210027428Y-112098349D01*
X209896500Y-112414435D01*
X182442810Y-112414435D01*
X182483870Y-112387000D01*
X193659783Y-112387000D01*
X193990855Y-112321146D01*
X194366289Y-112070289D01*
X194617146Y-111694855D01*
X194705235Y-111252000D01*
X194671048Y-111080126D01*
X207435500Y-111080126D01*
X207435500Y-111491874D01*
X207593069Y-111872280D01*
X207884220Y-112163431D01*
X208264626Y-112321000D01*
X208676374Y-112321000D01*
X209056780Y-112163431D01*
X209347931Y-111872280D01*
X209505500Y-111491874D01*
X209505500Y-111080126D01*
X209347931Y-110699720D01*
X209056780Y-110408569D01*
X208676374Y-110251000D01*
X208264626Y-110251000D01*
X207884220Y-110408569D01*
X207593069Y-110699720D01*
X207435500Y-111080126D01*
X194671048Y-111080126D01*
X194617146Y-110809145D01*
X194366289Y-110433711D01*
X193990855Y-110182854D01*
X193659783Y-110117000D01*
X182175767Y-110117000D01*
X182063984Y-110094765D01*
X181952201Y-110117000D01*
X181621129Y-110182854D01*
X181491887Y-110269211D01*
X179712099Y-110269211D01*
X179851000Y-109933874D01*
X179851000Y-109529500D01*
X191744369Y-109529500D01*
X191808477Y-109593608D01*
X192089146Y-109781146D01*
X192532000Y-109869235D01*
X192974854Y-109781146D01*
X193350288Y-109530288D01*
X193601146Y-109154854D01*
X193689235Y-108712000D01*
X193601146Y-108269146D01*
X193413608Y-107988477D01*
X193096113Y-107670982D01*
X193032789Y-107576211D01*
X192657355Y-107325354D01*
X192350433Y-107264304D01*
X192466855Y-107241146D01*
X192546393Y-107188000D01*
X214234765Y-107188000D01*
X214322854Y-107630855D01*
X214573711Y-108006289D01*
X214949145Y-108257146D01*
X215280217Y-108323000D01*
X215845902Y-108323000D01*
X215957685Y-108345235D01*
X216069468Y-108323000D01*
X216357098Y-108265787D01*
X216354854Y-108269145D01*
X216266765Y-108712000D01*
X216354854Y-109154855D01*
X216568100Y-109474000D01*
X216354854Y-109793145D01*
X216266765Y-110236000D01*
X216340251Y-110605440D01*
X216143380Y-110408569D01*
X215762974Y-110251000D01*
X215351226Y-110251000D01*
X214970820Y-110408569D01*
X214679669Y-110699720D01*
X214522100Y-111080126D01*
X214522100Y-111491874D01*
X214679669Y-111872280D01*
X214970820Y-112163431D01*
X215351226Y-112321000D01*
X215762974Y-112321000D01*
X216143380Y-112163431D01*
X216323366Y-111983445D01*
X216266765Y-112268000D01*
X216354854Y-112710855D01*
X216573214Y-113037655D01*
X216542392Y-113068477D01*
X216354854Y-113349146D01*
X216266765Y-113792000D01*
X216354854Y-114234854D01*
X216605712Y-114610288D01*
X216981146Y-114861146D01*
X217424000Y-114949235D01*
X217866854Y-114861146D01*
X218147523Y-114673608D01*
X218329221Y-114491910D01*
X231964931Y-114491910D01*
X231880009Y-114527086D01*
X231638088Y-114769007D01*
X231507160Y-115085093D01*
X231507160Y-115427223D01*
X231638088Y-115743309D01*
X231880009Y-115985230D01*
X232196095Y-116116158D01*
X232538225Y-116116158D01*
X232854311Y-115985230D01*
X233096232Y-115743309D01*
X233227160Y-115427223D01*
X233227160Y-115085093D01*
X233096232Y-114769007D01*
X232854311Y-114527086D01*
X232769389Y-114491910D01*
X234082878Y-114491910D01*
X234099477Y-114508509D01*
X234380146Y-114696046D01*
X234823000Y-114784135D01*
X235265854Y-114696046D01*
X235641289Y-114445189D01*
X235892146Y-114069754D01*
X235980235Y-113626900D01*
X235935699Y-113403000D01*
X242204157Y-113403000D01*
X242316000Y-113425247D01*
X242758854Y-113337158D01*
X243134288Y-113086300D01*
X243385146Y-112710866D01*
X243473235Y-112268012D01*
X243385146Y-111825158D01*
X243197608Y-111544489D01*
X243197601Y-111544482D01*
X243134277Y-111449711D01*
X242758843Y-111198854D01*
X242489973Y-111145373D01*
X242626289Y-111054289D01*
X242877146Y-110678855D01*
X242965235Y-110236000D01*
X242877146Y-109793145D01*
X242663900Y-109474000D01*
X242877146Y-109154855D01*
X242965235Y-108712000D01*
X242877146Y-108269145D01*
X242626289Y-107893711D01*
X242250855Y-107642854D01*
X241919783Y-107577000D01*
X241331036Y-107577000D01*
X241378280Y-107557431D01*
X241669431Y-107266280D01*
X241827000Y-106885874D01*
X241827000Y-106474126D01*
X241669431Y-106093720D01*
X241378280Y-105802569D01*
X240997874Y-105645000D01*
X240586126Y-105645000D01*
X240205720Y-105802569D01*
X239914569Y-106093720D01*
X239757000Y-106474126D01*
X239757000Y-106885874D01*
X239914569Y-107266280D01*
X240205720Y-107557431D01*
X240252964Y-107577000D01*
X232356131Y-107577000D01*
X232529608Y-107403523D01*
X232717146Y-107122854D01*
X232805235Y-106680000D01*
X232796493Y-106636051D01*
X236368485Y-106636051D01*
X236435399Y-106649361D01*
X236502313Y-106636051D01*
X236502318Y-106636051D01*
X236700507Y-106596629D01*
X236809204Y-106524000D01*
X236899065Y-106524000D01*
X237215151Y-106393072D01*
X237457072Y-106151151D01*
X237588000Y-105835065D01*
X237588000Y-105502284D01*
X241744812Y-105502284D01*
X241744812Y-105914032D01*
X241902381Y-106294438D01*
X242193532Y-106585589D01*
X242573938Y-106743158D01*
X242830000Y-106743158D01*
X242830000Y-107287475D01*
X242888601Y-107582081D01*
X243111831Y-107916169D01*
X243445918Y-108139399D01*
X243840000Y-108217787D01*
X244234081Y-108139399D01*
X244568169Y-107916169D01*
X244791399Y-107582082D01*
X244850000Y-107287476D01*
X244850000Y-100476982D01*
X244981898Y-100279582D01*
X245060286Y-99885500D01*
X244981898Y-99491418D01*
X244758669Y-99157331D01*
X244424582Y-98934102D01*
X244030500Y-98855714D01*
X243636418Y-98934102D01*
X243386663Y-99100982D01*
X243196161Y-99291484D01*
X243111832Y-99347831D01*
X243055485Y-99432160D01*
X243055482Y-99432163D01*
X242905771Y-99656223D01*
X242888602Y-99681918D01*
X242834640Y-99953205D01*
X242810214Y-100076000D01*
X242830001Y-100175476D01*
X242830000Y-104673158D01*
X242573938Y-104673158D01*
X242193532Y-104830727D01*
X241902381Y-105121878D01*
X241744812Y-105502284D01*
X237588000Y-105502284D01*
X237588000Y-105492935D01*
X237457072Y-105176849D01*
X237215151Y-104934928D01*
X236899065Y-104804000D01*
X236556935Y-104804000D01*
X236240849Y-104934928D01*
X235998928Y-105176849D01*
X235957381Y-105277151D01*
X235048000Y-105277151D01*
X235048000Y-104984935D01*
X234917072Y-104668849D01*
X234675151Y-104426928D01*
X234487005Y-104348995D01*
X234409072Y-104160849D01*
X234167151Y-103918928D01*
X233851065Y-103788000D01*
X233508935Y-103788000D01*
X233192849Y-103918928D01*
X232950928Y-104160849D01*
X232916461Y-104244059D01*
X217171539Y-104244059D01*
X217137072Y-104160849D01*
X216895151Y-103918928D01*
X216579065Y-103788000D01*
X216236935Y-103788000D01*
X215920849Y-103918928D01*
X215678928Y-104160849D01*
X215548000Y-104476935D01*
X215548000Y-104819065D01*
X215678928Y-105135151D01*
X215920849Y-105377072D01*
X216077171Y-105441823D01*
X216056000Y-105492935D01*
X216056000Y-105783827D01*
X215798671Y-105835013D01*
X215472430Y-106053000D01*
X215280217Y-106053000D01*
X214949145Y-106118854D01*
X214573711Y-106369711D01*
X214322854Y-106745145D01*
X214234765Y-107188000D01*
X192546393Y-107188000D01*
X192842289Y-106990289D01*
X193093146Y-106614855D01*
X193181235Y-106172000D01*
X193175856Y-106144955D01*
X193161233Y-106071442D01*
X193093146Y-105729145D01*
X192842289Y-105353711D01*
X192747518Y-105290387D01*
X192621063Y-105163932D01*
X192340394Y-104976394D01*
X191897540Y-104888305D01*
X191454686Y-104976394D01*
X191363983Y-105037000D01*
X186344760Y-105037000D01*
X186254057Y-104976394D01*
X185922985Y-104910540D01*
X185811202Y-104888305D01*
X185699419Y-104910540D01*
X181909868Y-104910540D01*
X181909868Y-104769035D01*
X181778940Y-104452949D01*
X181537019Y-104211028D01*
X181220933Y-104080100D01*
X180878803Y-104080100D01*
X180562717Y-104211028D01*
X180320796Y-104452949D01*
X180189868Y-104769035D01*
X180189868Y-104910540D01*
X177588207Y-104910540D01*
X177257135Y-104976394D01*
X176881701Y-105227251D01*
X176630844Y-105602685D01*
X176542755Y-106045540D01*
X176630844Y-106488395D01*
X176881701Y-106863829D01*
X177257135Y-107114686D01*
X177588207Y-107180540D01*
X184621691Y-107180540D01*
X184654398Y-107259500D01*
X168837402Y-107259500D01*
X168931800Y-107031605D01*
X168931800Y-106689475D01*
X168800872Y-106373389D01*
X168558951Y-106131468D01*
X168242865Y-106000540D01*
X168172687Y-106000540D01*
X168075576Y-105903430D01*
X168037667Y-105846695D01*
X167812919Y-105696523D01*
X167614730Y-105657101D01*
X167614725Y-105657101D01*
X167547811Y-105643791D01*
X167480897Y-105657101D01*
X165295784Y-105657101D01*
X165216646Y-105259245D01*
X165088259Y-105067100D01*
X165216646Y-104874955D01*
X165304735Y-104432100D01*
X165303151Y-104424135D01*
X173274300Y-104424135D01*
X173274300Y-104766265D01*
X173405228Y-105082351D01*
X173647149Y-105324272D01*
X173963235Y-105455200D01*
X174305365Y-105455200D01*
X174621451Y-105324272D01*
X174863372Y-105082351D01*
X174994300Y-104766265D01*
X174994300Y-104424135D01*
X174863372Y-104108049D01*
X174621451Y-103866128D01*
X174305365Y-103735200D01*
X173963235Y-103735200D01*
X173647149Y-103866128D01*
X173405228Y-104108049D01*
X173274300Y-104424135D01*
X165303151Y-104424135D01*
X165216646Y-103989245D01*
X165088259Y-103797100D01*
X165216646Y-103604955D01*
X165304735Y-103162100D01*
X165216646Y-102719245D01*
X165088259Y-102527100D01*
X165157057Y-102424135D01*
X173274300Y-102424135D01*
X173274300Y-102766265D01*
X173405228Y-103082351D01*
X173647149Y-103324272D01*
X173963235Y-103455200D01*
X174305365Y-103455200D01*
X174621451Y-103324272D01*
X174863372Y-103082351D01*
X174994300Y-102766265D01*
X174994300Y-102424135D01*
X175274300Y-102424135D01*
X175274300Y-102766265D01*
X175405228Y-103082351D01*
X175647149Y-103324272D01*
X175963235Y-103455200D01*
X176251045Y-103455200D01*
X176178000Y-103631544D01*
X176178000Y-103735200D01*
X175963235Y-103735200D01*
X175647149Y-103866128D01*
X175405228Y-104108049D01*
X175274300Y-104424135D01*
X175274300Y-104766265D01*
X175405228Y-105082351D01*
X175647149Y-105324272D01*
X175963235Y-105455200D01*
X176305365Y-105455200D01*
X176621451Y-105324272D01*
X176863372Y-105082351D01*
X176994300Y-104766265D01*
X176994300Y-104662609D01*
X177209065Y-104662609D01*
X177525151Y-104531681D01*
X177767072Y-104289760D01*
X177898000Y-103973674D01*
X177898000Y-103631544D01*
X177767072Y-103315458D01*
X177525151Y-103073537D01*
X177209065Y-102942609D01*
X176921255Y-102942609D01*
X176951292Y-102870093D01*
X223910160Y-102870093D01*
X223910160Y-103212223D01*
X224041088Y-103528309D01*
X224283009Y-103770230D01*
X224599095Y-103901158D01*
X224941225Y-103901158D01*
X225257311Y-103770230D01*
X225334303Y-103693238D01*
X225423684Y-103730261D01*
X225765814Y-103730261D01*
X226081900Y-103599333D01*
X226323821Y-103357412D01*
X226356749Y-103277917D01*
X226389677Y-103357412D01*
X226631598Y-103599333D01*
X226947684Y-103730261D01*
X227289814Y-103730261D01*
X227605900Y-103599333D01*
X227626749Y-103578484D01*
X227647598Y-103599333D01*
X227963684Y-103730261D01*
X228305814Y-103730261D01*
X228621900Y-103599333D01*
X228863821Y-103357412D01*
X228994749Y-103041326D01*
X228994749Y-102699196D01*
X228863821Y-102383110D01*
X228621900Y-102141189D01*
X228305814Y-102010261D01*
X227963684Y-102010261D01*
X227647598Y-102141189D01*
X227626749Y-102162038D01*
X227605900Y-102141189D01*
X227289814Y-102010261D01*
X226947684Y-102010261D01*
X226631598Y-102141189D01*
X226389677Y-102383110D01*
X226356749Y-102462605D01*
X226323821Y-102383110D01*
X226081900Y-102141189D01*
X225765814Y-102010261D01*
X225423684Y-102010261D01*
X225107598Y-102141189D01*
X225030606Y-102218181D01*
X224941225Y-102181158D01*
X224599095Y-102181158D01*
X224283009Y-102312086D01*
X224041088Y-102554007D01*
X223910160Y-102870093D01*
X176951292Y-102870093D01*
X176994300Y-102766265D01*
X176994300Y-102424135D01*
X176863372Y-102108049D01*
X176621451Y-101866128D01*
X176305365Y-101735200D01*
X175963235Y-101735200D01*
X175647149Y-101866128D01*
X175405228Y-102108049D01*
X175274300Y-102424135D01*
X174994300Y-102424135D01*
X174863372Y-102108049D01*
X174621451Y-101866128D01*
X174305365Y-101735200D01*
X173963235Y-101735200D01*
X173647149Y-101866128D01*
X173405228Y-102108049D01*
X173274300Y-102424135D01*
X165157057Y-102424135D01*
X165216646Y-102334955D01*
X165304735Y-101892100D01*
X165216646Y-101449245D01*
X165088259Y-101257100D01*
X165216646Y-101064955D01*
X165304735Y-100622100D01*
X165250945Y-100351676D01*
X166605000Y-100351676D01*
X166605000Y-100763424D01*
X166762569Y-101143830D01*
X167053720Y-101434981D01*
X167434126Y-101592550D01*
X167845874Y-101592550D01*
X168226280Y-101434981D01*
X168232326Y-101428935D01*
X177359100Y-101428935D01*
X177359100Y-101771065D01*
X177490028Y-102087151D01*
X177731949Y-102329072D01*
X178048035Y-102460000D01*
X178390165Y-102460000D01*
X178706251Y-102329072D01*
X178948172Y-102087151D01*
X179079100Y-101771065D01*
X179079100Y-101595296D01*
X179402280Y-101461431D01*
X179693431Y-101170280D01*
X179851000Y-100789874D01*
X179851000Y-100378126D01*
X179693431Y-99997720D01*
X179402280Y-99706569D01*
X179021874Y-99549000D01*
X178610126Y-99549000D01*
X178229720Y-99706569D01*
X177938569Y-99997720D01*
X177781000Y-100378126D01*
X177781000Y-100789874D01*
X177802473Y-100841716D01*
X177731949Y-100870928D01*
X177490028Y-101112849D01*
X177359100Y-101428935D01*
X168232326Y-101428935D01*
X168517431Y-101143830D01*
X168675000Y-100763424D01*
X168675000Y-100351676D01*
X168517431Y-99971270D01*
X168226280Y-99680119D01*
X167845874Y-99522550D01*
X167434126Y-99522550D01*
X167053720Y-99680119D01*
X166762569Y-99971270D01*
X166605000Y-100351676D01*
X165250945Y-100351676D01*
X165216646Y-100179245D01*
X165080301Y-99975190D01*
X165134627Y-99912309D01*
X165241619Y-99653974D01*
X165115454Y-99479100D01*
X164274500Y-99479100D01*
X164274500Y-99490127D01*
X164259283Y-99487100D01*
X164035717Y-99487100D01*
X164020500Y-99490127D01*
X164020500Y-99479100D01*
X164009473Y-99479100D01*
X164025565Y-99398199D01*
X164381297Y-99398199D01*
X164448211Y-99411509D01*
X164515125Y-99398199D01*
X164515130Y-99398199D01*
X164713319Y-99358777D01*
X164726489Y-99349977D01*
X164754386Y-99344428D01*
X164932973Y-99225100D01*
X165115454Y-99225100D01*
X165213409Y-99089328D01*
X165525835Y-99218740D01*
X165867965Y-99218740D01*
X166184051Y-99087812D01*
X166425972Y-98845891D01*
X166556900Y-98529805D01*
X166556900Y-98187675D01*
X166552783Y-98177735D01*
X185487100Y-98177735D01*
X185487100Y-98519865D01*
X185618028Y-98835951D01*
X185859949Y-99077872D01*
X186176035Y-99208800D01*
X186245435Y-99208800D01*
X186555514Y-99518880D01*
X186593448Y-99575652D01*
X186650219Y-99613585D01*
X186650221Y-99613587D01*
X186710665Y-99653974D01*
X186818378Y-99725945D01*
X187016731Y-99765400D01*
X187016732Y-99765400D01*
X187083700Y-99778721D01*
X187150668Y-99765400D01*
X192554577Y-99765400D01*
X192603649Y-99814472D01*
X192919735Y-99945400D01*
X193261865Y-99945400D01*
X193577951Y-99814472D01*
X193819872Y-99572551D01*
X193892615Y-99396935D01*
X194720000Y-99396935D01*
X194720000Y-99739065D01*
X194850928Y-100055151D01*
X195092849Y-100297072D01*
X195408935Y-100428000D01*
X195751065Y-100428000D01*
X195871470Y-100378126D01*
X198500999Y-100378126D01*
X198500999Y-100789874D01*
X198658568Y-101170280D01*
X198949719Y-101461431D01*
X199330125Y-101619000D01*
X199741873Y-101619000D01*
X200122279Y-101461431D01*
X200413430Y-101170280D01*
X200570999Y-100789874D01*
X200570999Y-100378126D01*
X214357000Y-100378126D01*
X214357000Y-100789874D01*
X214514569Y-101170280D01*
X214805720Y-101461431D01*
X215186126Y-101619000D01*
X215597874Y-101619000D01*
X215978280Y-101461431D01*
X216269431Y-101170280D01*
X216427000Y-100789874D01*
X216427000Y-100378126D01*
X216269431Y-99997720D01*
X215978280Y-99706569D01*
X215597874Y-99549000D01*
X215186126Y-99549000D01*
X214805720Y-99706569D01*
X214514569Y-99997720D01*
X214357000Y-100378126D01*
X200570999Y-100378126D01*
X200413430Y-99997720D01*
X200122279Y-99706569D01*
X199741873Y-99549000D01*
X199330125Y-99549000D01*
X198949719Y-99706569D01*
X198658568Y-99997720D01*
X198500999Y-100378126D01*
X195871470Y-100378126D01*
X196067151Y-100297072D01*
X196309072Y-100055151D01*
X196440000Y-99739065D01*
X196440000Y-99396935D01*
X196309072Y-99080849D01*
X196067151Y-98838928D01*
X195881275Y-98761935D01*
X217376800Y-98761935D01*
X217376800Y-99104065D01*
X217507728Y-99420151D01*
X217749649Y-99662072D01*
X218065735Y-99793000D01*
X218135135Y-99793000D01*
X218620773Y-100278639D01*
X218630217Y-100292773D01*
X218460849Y-100362928D01*
X218218928Y-100604849D01*
X218088000Y-100920935D01*
X218088000Y-101263065D01*
X218218928Y-101579151D01*
X218460849Y-101821072D01*
X218776935Y-101952000D01*
X219119065Y-101952000D01*
X219435151Y-101821072D01*
X219484773Y-101771450D01*
X229806749Y-101771450D01*
X229806749Y-101775326D01*
X229937677Y-102091412D01*
X230179598Y-102333333D01*
X230259093Y-102366261D01*
X230179598Y-102399189D01*
X229937677Y-102641110D01*
X229806749Y-102957196D01*
X229806749Y-103299326D01*
X229937677Y-103615412D01*
X230179598Y-103857333D01*
X230495684Y-103988261D01*
X230837814Y-103988261D01*
X231153900Y-103857333D01*
X231395821Y-103615412D01*
X231526749Y-103299326D01*
X231526749Y-103270435D01*
X235804500Y-103270435D01*
X235804500Y-103612565D01*
X235935428Y-103928651D01*
X236177349Y-104170572D01*
X236493435Y-104301500D01*
X236835565Y-104301500D01*
X237151651Y-104170572D01*
X237393572Y-103928651D01*
X237524500Y-103612565D01*
X237524500Y-103560554D01*
X237659651Y-103504572D01*
X237901572Y-103262651D01*
X238032500Y-102946565D01*
X238032500Y-102604435D01*
X237958382Y-102425500D01*
X238032500Y-102246565D01*
X238032500Y-101904435D01*
X237901572Y-101588349D01*
X237707349Y-101394126D01*
X239757000Y-101394126D01*
X239757000Y-101805874D01*
X239914569Y-102186280D01*
X240205720Y-102477431D01*
X240586126Y-102635000D01*
X240997874Y-102635000D01*
X241378280Y-102477431D01*
X241669431Y-102186280D01*
X241827000Y-101805874D01*
X241827000Y-101394126D01*
X241669431Y-101013720D01*
X241378280Y-100722569D01*
X240997874Y-100565000D01*
X240586126Y-100565000D01*
X240205720Y-100722569D01*
X239914569Y-101013720D01*
X239757000Y-101394126D01*
X237707349Y-101394126D01*
X237659651Y-101346428D01*
X237343565Y-101215500D01*
X237001435Y-101215500D01*
X236685349Y-101346428D01*
X236443428Y-101588349D01*
X236312500Y-101904435D01*
X236312500Y-102246565D01*
X236386618Y-102425500D01*
X236312500Y-102604435D01*
X236312500Y-102656446D01*
X236177349Y-102712428D01*
X235935428Y-102954349D01*
X235804500Y-103270435D01*
X231526749Y-103270435D01*
X231526749Y-102957196D01*
X231395821Y-102641110D01*
X231153900Y-102399189D01*
X231074405Y-102366261D01*
X231153900Y-102333333D01*
X231395821Y-102091412D01*
X231526749Y-101775326D01*
X231526749Y-101771450D01*
X234121086Y-101771450D01*
X234188000Y-101784760D01*
X234254914Y-101771450D01*
X234254919Y-101771450D01*
X234453108Y-101732028D01*
X234677856Y-101581856D01*
X234715765Y-101525121D01*
X234796887Y-101444000D01*
X234867065Y-101444000D01*
X235183151Y-101313072D01*
X235425072Y-101071151D01*
X235556000Y-100755065D01*
X235556000Y-100412935D01*
X235490974Y-100255949D01*
X235526672Y-100220251D01*
X235657600Y-99904165D01*
X235657600Y-99562035D01*
X235568355Y-99346580D01*
X235598570Y-99273635D01*
X235598570Y-98931505D01*
X235467642Y-98615419D01*
X235225721Y-98373498D01*
X234909635Y-98242570D01*
X234567505Y-98242570D01*
X234251419Y-98373498D01*
X234009498Y-98615419D01*
X233992664Y-98656059D01*
X233515587Y-98656059D01*
X233486407Y-98626879D01*
X233448498Y-98570144D01*
X233223750Y-98419972D01*
X233025561Y-98380550D01*
X233025556Y-98380550D01*
X232958642Y-98367240D01*
X232891728Y-98380550D01*
X227559299Y-98380550D01*
X227661317Y-98134257D01*
X232635227Y-98134257D01*
X232684849Y-98183879D01*
X233000935Y-98314807D01*
X233343065Y-98314807D01*
X233659151Y-98183879D01*
X233901072Y-97941958D01*
X234032000Y-97625872D01*
X234032000Y-97283742D01*
X233901072Y-96967656D01*
X233659151Y-96725735D01*
X233343065Y-96594807D01*
X233000935Y-96594807D01*
X232684849Y-96725735D01*
X232635227Y-96775357D01*
X225630160Y-96775357D01*
X225630160Y-96774093D01*
X225518960Y-96505634D01*
X238119500Y-96505634D01*
X238119500Y-96847764D01*
X238250428Y-97163850D01*
X238492349Y-97405771D01*
X238808435Y-97536699D01*
X239150565Y-97536699D01*
X239466651Y-97405771D01*
X239522121Y-97350301D01*
X239600565Y-97350301D01*
X239916651Y-97219373D01*
X240158572Y-96977452D01*
X240289500Y-96661366D01*
X240289500Y-96319236D01*
X240158572Y-96003150D01*
X239916651Y-95761229D01*
X239600565Y-95630301D01*
X239258435Y-95630301D01*
X238942349Y-95761229D01*
X238886879Y-95816699D01*
X238808435Y-95816699D01*
X238492349Y-95947627D01*
X238250428Y-96189548D01*
X238119500Y-96505634D01*
X225518960Y-96505634D01*
X225499232Y-96458007D01*
X225257311Y-96216086D01*
X224941225Y-96085158D01*
X224599095Y-96085158D01*
X224283009Y-96216086D01*
X224041088Y-96458007D01*
X223910160Y-96774093D01*
X223910160Y-96775357D01*
X220232734Y-96775357D01*
X220135065Y-96734901D01*
X219792935Y-96734901D01*
X219476849Y-96865829D01*
X219234928Y-97107750D01*
X219104000Y-97423836D01*
X219104000Y-97765966D01*
X219234928Y-98082052D01*
X219352876Y-98200000D01*
X219284935Y-98200000D01*
X218968849Y-98330928D01*
X218909900Y-98389877D01*
X218723951Y-98203928D01*
X218407865Y-98073000D01*
X218065735Y-98073000D01*
X217749649Y-98203928D01*
X217507728Y-98445849D01*
X217376800Y-98761935D01*
X195881275Y-98761935D01*
X195751065Y-98708000D01*
X195408935Y-98708000D01*
X195092849Y-98838928D01*
X194850928Y-99080849D01*
X194720000Y-99396935D01*
X193892615Y-99396935D01*
X193950800Y-99256465D01*
X193950800Y-98914335D01*
X193819872Y-98598249D01*
X193577951Y-98356328D01*
X193261865Y-98225400D01*
X192919735Y-98225400D01*
X192603649Y-98356328D01*
X192554577Y-98405400D01*
X191247770Y-98405400D01*
X191444351Y-98323973D01*
X191686272Y-98082052D01*
X191817200Y-97765966D01*
X191817200Y-97423836D01*
X191686272Y-97107750D01*
X191444351Y-96865829D01*
X191128265Y-96734901D01*
X190786135Y-96734901D01*
X190470049Y-96865829D01*
X190228128Y-97107750D01*
X190097200Y-97423836D01*
X190097200Y-97765966D01*
X190228128Y-98082052D01*
X190470049Y-98323973D01*
X190666630Y-98405400D01*
X187365365Y-98405400D01*
X187207100Y-98247135D01*
X187207100Y-98177735D01*
X187076172Y-97861649D01*
X186834251Y-97619728D01*
X186518165Y-97488800D01*
X186176035Y-97488800D01*
X185859949Y-97619728D01*
X185618028Y-97861649D01*
X185487100Y-98177735D01*
X166552783Y-98177735D01*
X166425972Y-97871589D01*
X166184051Y-97629668D01*
X165867965Y-97498740D01*
X165525835Y-97498740D01*
X165209749Y-97629668D01*
X165188192Y-97651225D01*
X165134627Y-97521891D01*
X165080301Y-97459010D01*
X165216646Y-97254955D01*
X165304735Y-96812100D01*
X165275761Y-96666435D01*
X193386500Y-96666435D01*
X193386500Y-97008565D01*
X193517428Y-97324651D01*
X193759349Y-97566572D01*
X194075435Y-97697500D01*
X194417565Y-97697500D01*
X194733651Y-97566572D01*
X194975572Y-97324651D01*
X195106500Y-97008565D01*
X195106500Y-96666435D01*
X194975572Y-96350349D01*
X194733651Y-96108428D01*
X194417565Y-95977500D01*
X194075435Y-95977500D01*
X193759349Y-96108428D01*
X193517428Y-96350349D01*
X193386500Y-96666435D01*
X165275761Y-96666435D01*
X165216646Y-96369245D01*
X165088259Y-96177100D01*
X165216646Y-95984955D01*
X165304735Y-95542100D01*
X165216646Y-95099245D01*
X164965789Y-94723811D01*
X164590355Y-94472954D01*
X164259283Y-94407100D01*
X164035717Y-94407100D01*
X163704645Y-94472954D01*
X163500553Y-94609324D01*
X163179377Y-94447968D01*
X163004500Y-94572965D01*
X163004500Y-95415100D01*
X163015527Y-95415100D01*
X162990265Y-95542100D01*
X163015527Y-95669100D01*
X163004500Y-95669100D01*
X163004500Y-96685100D01*
X163015527Y-96685100D01*
X162990265Y-96812100D01*
X163015527Y-96939100D01*
X163004500Y-96939100D01*
X163004500Y-96950127D01*
X162989283Y-96947100D01*
X162765717Y-96947100D01*
X162750500Y-96950127D01*
X162750500Y-96939100D01*
X162730500Y-96939100D01*
X162730500Y-96685100D01*
X162750500Y-96685100D01*
X162750500Y-95669100D01*
X162730500Y-95669100D01*
X162730500Y-95415100D01*
X162750500Y-95415100D01*
X162750500Y-94572965D01*
X162623500Y-94482189D01*
X162623500Y-92888435D01*
X173828500Y-92888435D01*
X173828500Y-93230565D01*
X173959428Y-93546651D01*
X174201349Y-93788572D01*
X174517435Y-93919500D01*
X174859565Y-93919500D01*
X175175651Y-93788572D01*
X175417572Y-93546651D01*
X175548500Y-93230565D01*
X175548500Y-93072550D01*
X184398600Y-93072550D01*
X184398600Y-93822450D01*
X184685574Y-94515267D01*
X185215833Y-95045526D01*
X185908650Y-95332500D01*
X186658550Y-95332500D01*
X187351367Y-95045526D01*
X187881626Y-94515267D01*
X187971827Y-94297500D01*
X209599265Y-94297500D01*
X209687354Y-94740355D01*
X209938211Y-95115789D01*
X210313645Y-95366646D01*
X210644717Y-95432500D01*
X215810551Y-95432500D01*
X215939440Y-95743663D01*
X216181361Y-95985584D01*
X216360298Y-96059702D01*
X216434416Y-96238639D01*
X216676337Y-96480560D01*
X216992423Y-96611488D01*
X217334553Y-96611488D01*
X217650639Y-96480560D01*
X217892560Y-96238639D01*
X218023488Y-95922553D01*
X218023488Y-95580423D01*
X217962216Y-95432500D01*
X222074717Y-95432500D01*
X222186500Y-95454735D01*
X222298283Y-95432500D01*
X222629355Y-95366646D01*
X223004789Y-95115789D01*
X223068113Y-95021018D01*
X225041981Y-93047150D01*
X233395200Y-93047150D01*
X233395200Y-93797050D01*
X233682174Y-94489867D01*
X234212433Y-95020126D01*
X234905250Y-95307100D01*
X235655150Y-95307100D01*
X236347967Y-95020126D01*
X236878226Y-94489867D01*
X237165200Y-93797050D01*
X237165200Y-93047150D01*
X236878226Y-92354333D01*
X236347967Y-91824074D01*
X235655150Y-91537100D01*
X234905250Y-91537100D01*
X234212433Y-91824074D01*
X233682174Y-92354333D01*
X233395200Y-93047150D01*
X225041981Y-93047150D01*
X226878108Y-91211024D01*
X226962350Y-91084947D01*
X238605012Y-91084947D01*
X238605012Y-91427077D01*
X238735940Y-91743163D01*
X238977861Y-91985084D01*
X239156798Y-92059202D01*
X239230916Y-92238139D01*
X239472837Y-92480060D01*
X239788923Y-92610988D01*
X240131053Y-92610988D01*
X240447139Y-92480060D01*
X240602590Y-92324609D01*
X245416838Y-92324609D01*
X245420708Y-92362281D01*
X245647220Y-92790474D01*
X246020353Y-93099390D01*
X246483300Y-93242000D01*
X247033300Y-93242000D01*
X247033300Y-92134000D01*
X247287300Y-92134000D01*
X247287300Y-93242000D01*
X247837300Y-93242000D01*
X248300247Y-93099390D01*
X248673380Y-92790474D01*
X248899892Y-92362281D01*
X248903762Y-92324609D01*
X248966838Y-92324609D01*
X248970708Y-92362281D01*
X249197220Y-92790474D01*
X249570353Y-93099390D01*
X250033300Y-93242000D01*
X250583300Y-93242000D01*
X250583300Y-92134000D01*
X250837300Y-92134000D01*
X250837300Y-93242000D01*
X251387300Y-93242000D01*
X251850247Y-93099390D01*
X252223380Y-92790474D01*
X252449892Y-92362281D01*
X252453762Y-92324609D01*
X252329031Y-92134000D01*
X250837300Y-92134000D01*
X250583300Y-92134000D01*
X249091569Y-92134000D01*
X248966838Y-92324609D01*
X248903762Y-92324609D01*
X248779031Y-92134000D01*
X247287300Y-92134000D01*
X247033300Y-92134000D01*
X245541569Y-92134000D01*
X245416838Y-92324609D01*
X240602590Y-92324609D01*
X240689060Y-92238139D01*
X240819988Y-91922053D01*
X240819988Y-91689391D01*
X245416838Y-91689391D01*
X245541569Y-91880000D01*
X247033300Y-91880000D01*
X247033300Y-90772000D01*
X247287300Y-90772000D01*
X247287300Y-91880000D01*
X248779031Y-91880000D01*
X248903762Y-91689391D01*
X248966838Y-91689391D01*
X249091569Y-91880000D01*
X250583300Y-91880000D01*
X250583300Y-90772000D01*
X250837300Y-90772000D01*
X250837300Y-91880000D01*
X252329031Y-91880000D01*
X252453762Y-91689391D01*
X252449892Y-91651719D01*
X252223380Y-91223526D01*
X251850247Y-90914610D01*
X251387300Y-90772000D01*
X250837300Y-90772000D01*
X250583300Y-90772000D01*
X250033300Y-90772000D01*
X249570353Y-90914610D01*
X249197220Y-91223526D01*
X248970708Y-91651719D01*
X248966838Y-91689391D01*
X248903762Y-91689391D01*
X248899892Y-91651719D01*
X248673380Y-91223526D01*
X248300247Y-90914610D01*
X247837300Y-90772000D01*
X247287300Y-90772000D01*
X247033300Y-90772000D01*
X246483300Y-90772000D01*
X246020353Y-90914610D01*
X245647220Y-91223526D01*
X245420708Y-91651719D01*
X245416838Y-91689391D01*
X240819988Y-91689391D01*
X240819988Y-91579923D01*
X240689060Y-91263837D01*
X240447139Y-91021916D01*
X240268202Y-90947798D01*
X240194084Y-90768861D01*
X239952163Y-90526940D01*
X239636077Y-90396012D01*
X239293947Y-90396012D01*
X238977861Y-90526940D01*
X238735940Y-90768861D01*
X238605012Y-91084947D01*
X226962350Y-91084947D01*
X227065646Y-90930355D01*
X227153735Y-90487500D01*
X227065646Y-90044646D01*
X226814788Y-89669212D01*
X226439354Y-89418354D01*
X225996500Y-89330265D01*
X225553645Y-89418354D01*
X225272976Y-89605892D01*
X221716369Y-93162500D01*
X210644717Y-93162500D01*
X210313645Y-93228354D01*
X209938211Y-93479211D01*
X209687354Y-93854645D01*
X209599265Y-94297500D01*
X187971827Y-94297500D01*
X188168600Y-93822450D01*
X188168600Y-93072550D01*
X187881626Y-92379733D01*
X187351367Y-91849474D01*
X187092206Y-91742126D01*
X195561006Y-91742126D01*
X195561006Y-92153874D01*
X195718575Y-92534280D01*
X196009726Y-92825431D01*
X196390132Y-92983000D01*
X196801880Y-92983000D01*
X197182286Y-92825431D01*
X197473437Y-92534280D01*
X197631006Y-92153874D01*
X197631006Y-91742126D01*
X219437000Y-91742126D01*
X219437000Y-92153874D01*
X219594569Y-92534280D01*
X219885720Y-92825431D01*
X220266126Y-92983000D01*
X220677874Y-92983000D01*
X221058280Y-92825431D01*
X221349431Y-92534280D01*
X221507000Y-92153874D01*
X221507000Y-91742126D01*
X221349431Y-91361720D01*
X221058280Y-91070569D01*
X220677874Y-90913000D01*
X220266126Y-90913000D01*
X219885720Y-91070569D01*
X219594569Y-91361720D01*
X219437000Y-91742126D01*
X197631006Y-91742126D01*
X197473437Y-91361720D01*
X197182286Y-91070569D01*
X196801880Y-90913000D01*
X196390132Y-90913000D01*
X196009726Y-91070569D01*
X195718575Y-91361720D01*
X195561006Y-91742126D01*
X187092206Y-91742126D01*
X186658550Y-91562500D01*
X185908650Y-91562500D01*
X185215833Y-91849474D01*
X184685574Y-92379733D01*
X184398600Y-93072550D01*
X175548500Y-93072550D01*
X175548500Y-92888435D01*
X175417572Y-92572349D01*
X175175651Y-92330428D01*
X174859565Y-92199500D01*
X174517435Y-92199500D01*
X174201349Y-92330428D01*
X173959428Y-92572349D01*
X173828500Y-92888435D01*
X162623500Y-92888435D01*
X162623500Y-90218126D01*
X190989000Y-90218126D01*
X190989000Y-90629874D01*
X191146569Y-91010280D01*
X191437720Y-91301431D01*
X191818126Y-91459000D01*
X192229874Y-91459000D01*
X192610280Y-91301431D01*
X192901431Y-91010280D01*
X193059000Y-90629874D01*
X193059000Y-90252935D01*
X216722000Y-90252935D01*
X216722000Y-90595065D01*
X216852928Y-90911151D01*
X217094849Y-91153072D01*
X217410935Y-91284000D01*
X217753065Y-91284000D01*
X217932000Y-91209882D01*
X218110935Y-91284000D01*
X218453065Y-91284000D01*
X218769151Y-91153072D01*
X219011072Y-90911151D01*
X219142000Y-90595065D01*
X219142000Y-90252935D01*
X219011072Y-89936849D01*
X218769151Y-89694928D01*
X218453065Y-89564000D01*
X218110935Y-89564000D01*
X217932000Y-89638118D01*
X217753065Y-89564000D01*
X217410935Y-89564000D01*
X217094849Y-89694928D01*
X216852928Y-89936849D01*
X216722000Y-90252935D01*
X193059000Y-90252935D01*
X193059000Y-90218126D01*
X192901431Y-89837720D01*
X192610280Y-89546569D01*
X192229874Y-89389000D01*
X191818126Y-89389000D01*
X191437720Y-89546569D01*
X191146569Y-89837720D01*
X190989000Y-90218126D01*
X162623500Y-90218126D01*
X162623500Y-88186126D01*
X177781000Y-88186126D01*
X177781000Y-88597874D01*
X177938569Y-88978280D01*
X178229720Y-89269431D01*
X178610126Y-89427000D01*
X179021874Y-89427000D01*
X179402280Y-89269431D01*
X179693431Y-88978280D01*
X179851000Y-88597874D01*
X179851000Y-88186126D01*
X198101000Y-88186126D01*
X198101000Y-88597874D01*
X198258569Y-88978280D01*
X198549720Y-89269431D01*
X198930126Y-89427000D01*
X199341874Y-89427000D01*
X199722280Y-89269431D01*
X200013431Y-88978280D01*
X200171000Y-88597874D01*
X200171000Y-88186126D01*
X200013431Y-87805720D01*
X199722280Y-87514569D01*
X199341874Y-87357000D01*
X198930126Y-87357000D01*
X198549720Y-87514569D01*
X198258569Y-87805720D01*
X198101000Y-88186126D01*
X179851000Y-88186126D01*
X179693431Y-87805720D01*
X179402280Y-87514569D01*
X179021874Y-87357000D01*
X178610126Y-87357000D01*
X178229720Y-87514569D01*
X177938569Y-87805720D01*
X177781000Y-88186126D01*
X162623500Y-88186126D01*
X162623500Y-85201626D01*
X171050000Y-85201626D01*
X171050000Y-85613374D01*
X171207569Y-85993780D01*
X171498720Y-86284931D01*
X171879126Y-86442500D01*
X172290874Y-86442500D01*
X172671280Y-86284931D01*
X172962431Y-85993780D01*
X173120000Y-85613374D01*
X173120000Y-85201626D01*
X172962431Y-84821220D01*
X172671280Y-84530069D01*
X172290874Y-84372500D01*
X171879126Y-84372500D01*
X171498720Y-84530069D01*
X171207569Y-84821220D01*
X171050000Y-85201626D01*
X162623500Y-85201626D01*
X162623500Y-79694904D01*
X203009500Y-80452141D01*
G36*
X252412500Y-120840500D02*
X252432500Y-120840500D01*
X252432500Y-121094500D01*
X252412500Y-121094500D01*
X252412500Y-122110500D01*
X252432500Y-122110500D01*
X252432500Y-122364500D01*
X252412500Y-122364500D01*
X252412500Y-123380500D01*
X252432500Y-123380500D01*
X252432500Y-123634500D01*
X252412500Y-123634500D01*
X252412500Y-124650500D01*
X252432500Y-124650500D01*
X252432500Y-124904500D01*
X252412500Y-124904500D01*
X252412500Y-125920500D01*
X252432500Y-125920500D01*
X252432500Y-126174500D01*
X252412500Y-126174500D01*
X252412500Y-126185527D01*
X252397283Y-126182500D01*
X252173717Y-126182500D01*
X252158500Y-126185527D01*
X252158500Y-126174500D01*
X252147473Y-126174500D01*
X252172735Y-126047500D01*
X252147473Y-125920500D01*
X252158500Y-125920500D01*
X252158500Y-124904500D01*
X252147473Y-124904500D01*
X252172735Y-124777500D01*
X252147473Y-124650500D01*
X252158500Y-124650500D01*
X252158500Y-123634500D01*
X252147473Y-123634500D01*
X252172735Y-123507500D01*
X252147473Y-123380500D01*
X252158500Y-123380500D01*
X252158500Y-122364500D01*
X252147473Y-122364500D01*
X252172735Y-122237500D01*
X252147473Y-122110500D01*
X252158500Y-122110500D01*
X252158500Y-121094500D01*
X252147473Y-121094500D01*
X252172735Y-120967500D01*
X252147473Y-120840500D01*
X252158500Y-120840500D01*
X252158500Y-120829473D01*
X252173717Y-120832500D01*
X252397283Y-120832500D01*
X252412500Y-120829473D01*
X252412500Y-120840500D01*
X252412500Y-120840500D01*
G37*
X252412500Y-120840500D02*
X252432500Y-120840500D01*
X252432500Y-121094500D01*
X252412500Y-121094500D01*
X252412500Y-122110500D01*
X252432500Y-122110500D01*
X252432500Y-122364500D01*
X252412500Y-122364500D01*
X252412500Y-123380500D01*
X252432500Y-123380500D01*
X252432500Y-123634500D01*
X252412500Y-123634500D01*
X252412500Y-124650500D01*
X252432500Y-124650500D01*
X252432500Y-124904500D01*
X252412500Y-124904500D01*
X252412500Y-125920500D01*
X252432500Y-125920500D01*
X252432500Y-126174500D01*
X252412500Y-126174500D01*
X252412500Y-126185527D01*
X252397283Y-126182500D01*
X252173717Y-126182500D01*
X252158500Y-126185527D01*
X252158500Y-126174500D01*
X252147473Y-126174500D01*
X252172735Y-126047500D01*
X252147473Y-125920500D01*
X252158500Y-125920500D01*
X252158500Y-124904500D01*
X252147473Y-124904500D01*
X252172735Y-124777500D01*
X252147473Y-124650500D01*
X252158500Y-124650500D01*
X252158500Y-123634500D01*
X252147473Y-123634500D01*
X252172735Y-123507500D01*
X252147473Y-123380500D01*
X252158500Y-123380500D01*
X252158500Y-122364500D01*
X252147473Y-122364500D01*
X252172735Y-122237500D01*
X252147473Y-122110500D01*
X252158500Y-122110500D01*
X252158500Y-121094500D01*
X252147473Y-121094500D01*
X252172735Y-120967500D01*
X252147473Y-120840500D01*
X252158500Y-120840500D01*
X252158500Y-120829473D01*
X252173717Y-120832500D01*
X252397283Y-120832500D01*
X252412500Y-120829473D01*
X252412500Y-120840500D01*
G36*
X163004500Y-120815100D02*
X163015527Y-120815100D01*
X162990265Y-120942100D01*
X163015527Y-121069100D01*
X163004500Y-121069100D01*
X163004500Y-122085100D01*
X163015527Y-122085100D01*
X162990265Y-122212100D01*
X163015527Y-122339100D01*
X163004500Y-122339100D01*
X163004500Y-123355100D01*
X163015527Y-123355100D01*
X162990265Y-123482100D01*
X163015527Y-123609100D01*
X163004500Y-123609100D01*
X163004500Y-123620127D01*
X162989283Y-123617100D01*
X162765717Y-123617100D01*
X162750500Y-123620127D01*
X162750500Y-123609100D01*
X162730500Y-123609100D01*
X162730500Y-123355100D01*
X162750500Y-123355100D01*
X162750500Y-122339100D01*
X162730500Y-122339100D01*
X162730500Y-122085100D01*
X162750500Y-122085100D01*
X162750500Y-121069100D01*
X162730500Y-121069100D01*
X162730500Y-120815100D01*
X162750500Y-120815100D01*
X162750500Y-120804073D01*
X162765717Y-120807100D01*
X162989283Y-120807100D01*
X163004500Y-120804073D01*
X163004500Y-120815100D01*
X163004500Y-120815100D01*
G37*
X163004500Y-120815100D02*
X163015527Y-120815100D01*
X162990265Y-120942100D01*
X163015527Y-121069100D01*
X163004500Y-121069100D01*
X163004500Y-122085100D01*
X163015527Y-122085100D01*
X162990265Y-122212100D01*
X163015527Y-122339100D01*
X163004500Y-122339100D01*
X163004500Y-123355100D01*
X163015527Y-123355100D01*
X162990265Y-123482100D01*
X163015527Y-123609100D01*
X163004500Y-123609100D01*
X163004500Y-123620127D01*
X162989283Y-123617100D01*
X162765717Y-123617100D01*
X162750500Y-123620127D01*
X162750500Y-123609100D01*
X162730500Y-123609100D01*
X162730500Y-123355100D01*
X162750500Y-123355100D01*
X162750500Y-122339100D01*
X162730500Y-122339100D01*
X162730500Y-122085100D01*
X162750500Y-122085100D01*
X162750500Y-121069100D01*
X162730500Y-121069100D01*
X162730500Y-120815100D01*
X162750500Y-120815100D01*
X162750500Y-120804073D01*
X162765717Y-120807100D01*
X162989283Y-120807100D01*
X163004500Y-120804073D01*
X163004500Y-120815100D01*
G36*
X252412500Y-109410500D02*
X252432500Y-109410500D01*
X252432500Y-109664500D01*
X252412500Y-109664500D01*
X252412500Y-109675527D01*
X252397283Y-109672500D01*
X252173717Y-109672500D01*
X252158500Y-109675527D01*
X252158500Y-109664500D01*
X252147473Y-109664500D01*
X252172735Y-109537500D01*
X252147473Y-109410500D01*
X252158500Y-109410500D01*
X252158500Y-109399473D01*
X252173717Y-109402500D01*
X252397283Y-109402500D01*
X252412500Y-109399473D01*
X252412500Y-109410500D01*
X252412500Y-109410500D01*
G37*
X252412500Y-109410500D02*
X252432500Y-109410500D01*
X252432500Y-109664500D01*
X252412500Y-109664500D01*
X252412500Y-109675527D01*
X252397283Y-109672500D01*
X252173717Y-109672500D01*
X252158500Y-109675527D01*
X252158500Y-109664500D01*
X252147473Y-109664500D01*
X252172735Y-109537500D01*
X252147473Y-109410500D01*
X252158500Y-109410500D01*
X252158500Y-109399473D01*
X252173717Y-109402500D01*
X252397283Y-109402500D01*
X252412500Y-109399473D01*
X252412500Y-109410500D01*
G36*
X163004500Y-109385100D02*
X163015527Y-109385100D01*
X162990265Y-109512100D01*
X163015527Y-109639100D01*
X163004500Y-109639100D01*
X163004500Y-109650127D01*
X162989283Y-109647100D01*
X162765717Y-109647100D01*
X162750500Y-109650127D01*
X162750500Y-109639100D01*
X162730500Y-109639100D01*
X162730500Y-109385100D01*
X162750500Y-109385100D01*
X162750500Y-109374073D01*
X162765717Y-109377100D01*
X162989283Y-109377100D01*
X163004500Y-109374073D01*
X163004500Y-109385100D01*
X163004500Y-109385100D01*
G37*
X163004500Y-109385100D02*
X163015527Y-109385100D01*
X162990265Y-109512100D01*
X163015527Y-109639100D01*
X163004500Y-109639100D01*
X163004500Y-109650127D01*
X162989283Y-109647100D01*
X162765717Y-109647100D01*
X162750500Y-109650127D01*
X162750500Y-109639100D01*
X162730500Y-109639100D01*
X162730500Y-109385100D01*
X162750500Y-109385100D01*
X162750500Y-109374073D01*
X162765717Y-109377100D01*
X162989283Y-109377100D01*
X163004500Y-109374073D01*
X163004500Y-109385100D01*
G36*
X251142500Y-99250500D02*
X251153527Y-99250500D01*
X251128265Y-99377500D01*
X251153527Y-99504500D01*
X251142500Y-99504500D01*
X251142500Y-99515527D01*
X251127283Y-99512500D01*
X250903717Y-99512500D01*
X250888500Y-99515527D01*
X250888500Y-99504500D01*
X250868500Y-99504500D01*
X250868500Y-99250500D01*
X250888500Y-99250500D01*
X250888500Y-99239473D01*
X250903717Y-99242500D01*
X251127283Y-99242500D01*
X251142500Y-99239473D01*
X251142500Y-99250500D01*
X251142500Y-99250500D01*
G37*
X251142500Y-99250500D02*
X251153527Y-99250500D01*
X251128265Y-99377500D01*
X251153527Y-99504500D01*
X251142500Y-99504500D01*
X251142500Y-99515527D01*
X251127283Y-99512500D01*
X250903717Y-99512500D01*
X250888500Y-99515527D01*
X250888500Y-99504500D01*
X250868500Y-99504500D01*
X250868500Y-99250500D01*
X250888500Y-99250500D01*
X250888500Y-99239473D01*
X250903717Y-99242500D01*
X251127283Y-99242500D01*
X251142500Y-99239473D01*
X251142500Y-99250500D01*
G36*
X164274500Y-97955100D02*
X164276914Y-97955100D01*
X164192715Y-98039299D01*
X164026221Y-98039299D01*
X164009473Y-97955100D01*
X164020500Y-97955100D01*
X164020500Y-97944073D01*
X164035717Y-97947100D01*
X164259283Y-97947100D01*
X164274500Y-97944073D01*
X164274500Y-97955100D01*
X164274500Y-97955100D01*
G37*
X164274500Y-97955100D02*
X164276914Y-97955100D01*
X164192715Y-98039299D01*
X164026221Y-98039299D01*
X164009473Y-97955100D01*
X164020500Y-97955100D01*
X164020500Y-97944073D01*
X164035717Y-97947100D01*
X164259283Y-97947100D01*
X164274500Y-97944073D01*
X164274500Y-97955100D01*
G04 #@! TD*
M02*
