G04 #@! TF.GenerationSoftware,KiCad,Pcbnew,(5.0.2)-1*
G04 #@! TF.CreationDate,2019-03-16T14:06:54-07:00*
G04 #@! TF.ProjectId,ModularMatrix,4d6f6475-6c61-4724-9d61-747269782e6b,rev?*
G04 #@! TF.SameCoordinates,Original*
G04 #@! TF.FileFunction,Legend,Top*
G04 #@! TF.FilePolarity,Positive*
%FSLAX46Y46*%
G04 Gerber Fmt 4.6, Leading zero omitted, Abs format (unit mm)*
G04 Created by KiCad (PCBNEW (5.0.2)-1) date 3/16/2019 2:06:54 PM*
%MOMM*%
%LPD*%
G01*
G04 APERTURE LIST*
%ADD10C,0.100000*%
%ADD11C,0.120000*%
%ADD12C,0.180000*%
%ADD13C,0.150000*%
G04 APERTURE END LIST*
D10*
G04 #@! TO.C,IC1*
X232201900Y-103195300D02*
X231151900Y-103195300D01*
X231151900Y-103195300D02*
X230751900Y-103595300D01*
X230751900Y-96395300D02*
X231151900Y-96395300D01*
X231151900Y-96395300D02*
X231151900Y-96795300D01*
X223951900Y-103195300D02*
X223951900Y-103595300D01*
X223951900Y-103595300D02*
X224351900Y-103595300D01*
X223951900Y-96795300D02*
X223951900Y-96395300D01*
X223951900Y-96395300D02*
X224351900Y-96395300D01*
D11*
G04 #@! TO.C,C35*
X227982100Y-122867336D02*
X227982100Y-124071464D01*
X229802100Y-122867336D02*
X229802100Y-124071464D01*
G04 #@! TO.C,U1*
X228879065Y-64808225D02*
X227079065Y-64808225D01*
X227079065Y-68028225D02*
X230029065Y-68028225D01*
G04 #@! TO.C,C32*
X175864436Y-84497500D02*
X177068564Y-84497500D01*
X175864436Y-86317500D02*
X177068564Y-86317500D01*
G04 #@! TO.C,C13*
X220951500Y-78264500D02*
X220951500Y-77564500D01*
X222151500Y-77564500D02*
X222151500Y-78264500D01*
G04 #@! TO.C,U3*
X214379065Y-75648225D02*
X217329065Y-75648225D01*
X216179065Y-72428225D02*
X214379065Y-72428225D01*
G04 #@! TO.C,C17*
X233574000Y-72586436D02*
X233574000Y-73790564D01*
X231754000Y-72586436D02*
X231754000Y-73790564D01*
G04 #@! TO.C,C7*
X226541065Y-70389571D02*
X226541065Y-71593699D01*
X223821065Y-70389571D02*
X223821065Y-71593699D01*
G04 #@! TO.C,F1*
X178414000Y-142857136D02*
X178414000Y-144061264D01*
X180234000Y-142857136D02*
X180234000Y-144061264D01*
G04 #@! TO.C,F2*
X199738064Y-126386000D02*
X198533936Y-126386000D01*
X199738064Y-124566000D02*
X198533936Y-124566000D01*
G04 #@! TO.C,L4*
X231864000Y-68260000D02*
X231864000Y-68860000D01*
X233464000Y-68280000D02*
X233464000Y-68880000D01*
D10*
G04 #@! TO.C,U6*
X215629065Y-86236225D02*
X215029065Y-86236225D01*
X215029065Y-86236225D02*
X214579065Y-86586225D01*
X212979065Y-86236225D02*
X212979065Y-86586225D01*
X212979065Y-86586225D02*
X213329065Y-86586225D01*
X214629065Y-83286225D02*
X214979065Y-83286225D01*
X214979065Y-83286225D02*
X214979065Y-83636225D01*
X212979065Y-83636225D02*
X212979065Y-83286225D01*
X212979065Y-83286225D02*
X213329065Y-83286225D01*
D11*
G04 #@! TO.C,C42*
X231509643Y-81686225D02*
X230992487Y-81686225D01*
X231509643Y-83106225D02*
X230992487Y-83106225D01*
G04 #@! TO.C,C43*
X216666578Y-87174000D02*
X216149422Y-87174000D01*
X216666578Y-88594000D02*
X216149422Y-88594000D01*
G04 #@! TO.C,C39*
X216006066Y-81121647D02*
X216006066Y-81638803D01*
X214586066Y-81121647D02*
X214586066Y-81638803D01*
G04 #@! TO.C,L5*
X219051065Y-75750225D02*
X219051065Y-76350225D01*
X220651065Y-75770225D02*
X220651065Y-76370225D01*
G04 #@! TO.C,C47*
X223229065Y-79762161D02*
X223229065Y-80966289D01*
X225049065Y-79762161D02*
X225049065Y-80966289D01*
G04 #@! TO.C,C9*
X236824436Y-114723500D02*
X238028564Y-114723500D01*
X236824436Y-116543500D02*
X238028564Y-116543500D01*
G04 #@! TO.C,C48*
X208497065Y-85350161D02*
X208497065Y-86554289D01*
X210317065Y-85350161D02*
X210317065Y-86554289D01*
G04 #@! TO.C,C20*
X219995065Y-81556161D02*
X219995065Y-82760289D01*
X218175065Y-81556161D02*
X218175065Y-82760289D01*
D10*
G04 #@! TO.C,U5*
X227711065Y-77698225D02*
X228061065Y-77698225D01*
X227711065Y-78048225D02*
X227711065Y-77698225D01*
X229711065Y-77698225D02*
X229711065Y-78048225D01*
X229361065Y-77698225D02*
X229711065Y-77698225D01*
X227711065Y-80998225D02*
X228061065Y-80998225D01*
X227711065Y-80648225D02*
X227711065Y-80998225D01*
X229761065Y-80648225D02*
X229311065Y-80998225D01*
X230361065Y-80648225D02*
X229761065Y-80648225D01*
D11*
G04 #@! TO.C,U4*
X224307065Y-83096225D02*
X221857065Y-83096225D01*
X222507065Y-86316225D02*
X224307065Y-86316225D01*
D12*
G04 #@! TO.C,Y1*
X231563749Y-112208259D02*
G75*
G03X233243849Y-111319158I-74J2032101D01*
G01*
X233849749Y-111319158D02*
X233849749Y-112335158D01*
X223025649Y-111319157D02*
G75*
G03X224705749Y-112208158I1680053J1142999D01*
G01*
X222419749Y-111319158D02*
X222419749Y-112335158D01*
X224705749Y-108144158D02*
X231563749Y-108144158D01*
X222673749Y-107763158D02*
X233595749Y-107763158D01*
X222419749Y-108017158D02*
G75*
G02X222673749Y-107763158I254000J0D01*
G01*
X222419749Y-108017158D02*
X222419749Y-109033158D01*
X223025749Y-109033259D02*
G75*
G02X224705749Y-108144158I1680121J-1142899D01*
G01*
X231563749Y-108144157D02*
G75*
G02X233243849Y-109033158I47J-2032001D01*
G01*
X233849749Y-108017158D02*
X233849749Y-109033158D01*
X233595749Y-107763158D02*
G75*
G02X233849749Y-108017158I0J-254000D01*
G01*
X231563749Y-112208158D02*
X224705749Y-112208158D01*
X222673749Y-112589158D02*
X233595749Y-112589158D01*
X222419749Y-112335158D02*
G75*
G03X222673749Y-112589158I254000J0D01*
G01*
X233595749Y-112589158D02*
G75*
G03X233849749Y-112335158I0J254000D01*
G01*
X228388749Y-110811158D02*
X228388749Y-109541158D01*
X228388749Y-109541158D02*
X227880749Y-109541158D01*
X227880749Y-109541158D02*
X227880749Y-110811158D01*
X227880749Y-110811158D02*
X228388749Y-110811158D01*
X228769749Y-110811158D02*
X228769749Y-110176158D01*
X228769749Y-110176158D02*
X228769749Y-109541158D01*
X228769749Y-110176158D02*
X229150749Y-110176158D01*
X227499749Y-110811158D02*
X227499749Y-110176158D01*
X227499749Y-110176158D02*
X227499749Y-109541158D01*
X227499749Y-110176158D02*
X227118749Y-110176158D01*
D11*
G04 #@! TO.C,C31*
X206153936Y-106278000D02*
X207358064Y-106278000D01*
X206153936Y-108098000D02*
X207358064Y-108098000D01*
G04 #@! TO.C,C38*
X232922578Y-78942000D02*
X232405422Y-78942000D01*
X232922578Y-77522000D02*
X232405422Y-77522000D01*
G04 #@! TO.C,L1*
X179227200Y-147891600D02*
X179827200Y-147891600D01*
X179207200Y-149491600D02*
X179807200Y-149491600D01*
G04 #@! TO.C,L2*
X194968160Y-125228158D02*
X194368160Y-125228158D01*
X194948160Y-126828158D02*
X194348160Y-126828158D01*
G04 #@! TO.C,H4*
D13*
X234521695Y-148399880D02*
X234521695Y-147399880D01*
X234521695Y-147876071D02*
X235093123Y-147876071D01*
X235093123Y-148399880D02*
X235093123Y-147399880D01*
X235997885Y-147733214D02*
X235997885Y-148399880D01*
X235759790Y-147352261D02*
X235521695Y-148066547D01*
X236140742Y-148066547D01*
G04 #@! TO.C,H3*
X185496295Y-148393080D02*
X185496295Y-147393080D01*
X185496295Y-147869271D02*
X186067723Y-147869271D01*
X186067723Y-148393080D02*
X186067723Y-147393080D01*
X186448676Y-147393080D02*
X187067723Y-147393080D01*
X186734390Y-147774033D01*
X186877247Y-147774033D01*
X186972485Y-147821652D01*
X187020104Y-147869271D01*
X187067723Y-147964509D01*
X187067723Y-148202604D01*
X187020104Y-148297842D01*
X186972485Y-148345461D01*
X186877247Y-148393080D01*
X186591533Y-148393080D01*
X186496295Y-148345461D01*
X186448676Y-148297842D01*
G04 #@! TO.C,H2*
X185521695Y-90399880D02*
X185521695Y-89399880D01*
X185521695Y-89876071D02*
X186093123Y-89876071D01*
X186093123Y-90399880D02*
X186093123Y-89399880D01*
X186521695Y-89495119D02*
X186569314Y-89447500D01*
X186664552Y-89399880D01*
X186902647Y-89399880D01*
X186997885Y-89447500D01*
X187045504Y-89495119D01*
X187093123Y-89590357D01*
X187093123Y-89685595D01*
X187045504Y-89828452D01*
X186474076Y-90399880D01*
X187093123Y-90399880D01*
G04 #@! TO.C,H1*
X234518295Y-90374480D02*
X234518295Y-89374480D01*
X234518295Y-89850671D02*
X235089723Y-89850671D01*
X235089723Y-90374480D02*
X235089723Y-89374480D01*
X236089723Y-90374480D02*
X235518295Y-90374480D01*
X235804009Y-90374480D02*
X235804009Y-89374480D01*
X235708771Y-89517338D01*
X235613533Y-89612576D01*
X235518295Y-89660195D01*
G04 #@! TO.C,IC1*
X221254280Y-100971490D02*
X220254280Y-100971490D01*
X221159042Y-99923871D02*
X221206661Y-99971490D01*
X221254280Y-100114347D01*
X221254280Y-100209585D01*
X221206661Y-100352442D01*
X221111423Y-100447680D01*
X221016185Y-100495300D01*
X220825709Y-100542919D01*
X220682852Y-100542919D01*
X220492376Y-100495300D01*
X220397138Y-100447680D01*
X220301900Y-100352442D01*
X220254280Y-100209585D01*
X220254280Y-100114347D01*
X220301900Y-99971490D01*
X220349519Y-99923871D01*
X221254280Y-98971490D02*
X221254280Y-99542919D01*
X221254280Y-99257204D02*
X220254280Y-99257204D01*
X220397138Y-99352442D01*
X220492376Y-99447680D01*
X220539995Y-99542919D01*
G04 #@! TO.C,C35*
X231069242Y-124112257D02*
X231116861Y-124159876D01*
X231164480Y-124302733D01*
X231164480Y-124397971D01*
X231116861Y-124540828D01*
X231021623Y-124636066D01*
X230926385Y-124683685D01*
X230735909Y-124731304D01*
X230593052Y-124731304D01*
X230402576Y-124683685D01*
X230307338Y-124636066D01*
X230212100Y-124540828D01*
X230164480Y-124397971D01*
X230164480Y-124302733D01*
X230212100Y-124159876D01*
X230259719Y-124112257D01*
X230164480Y-123778923D02*
X230164480Y-123159876D01*
X230545433Y-123493209D01*
X230545433Y-123350352D01*
X230593052Y-123255114D01*
X230640671Y-123207495D01*
X230735909Y-123159876D01*
X230974004Y-123159876D01*
X231069242Y-123207495D01*
X231116861Y-123255114D01*
X231164480Y-123350352D01*
X231164480Y-123636066D01*
X231116861Y-123731304D01*
X231069242Y-123778923D01*
X230164480Y-122255114D02*
X230164480Y-122731304D01*
X230640671Y-122778923D01*
X230593052Y-122731304D01*
X230545433Y-122636066D01*
X230545433Y-122397971D01*
X230593052Y-122302733D01*
X230640671Y-122255114D01*
X230735909Y-122207495D01*
X230974004Y-122207495D01*
X231069242Y-122255114D01*
X231116861Y-122302733D01*
X231164480Y-122397971D01*
X231164480Y-122636066D01*
X231116861Y-122731304D01*
X231069242Y-122778923D01*
G04 #@! TO.C,R14*
X236060775Y-103385880D02*
X235727442Y-102909690D01*
X235489347Y-103385880D02*
X235489347Y-102385880D01*
X235870299Y-102385880D01*
X235965537Y-102433500D01*
X236013156Y-102481119D01*
X236060775Y-102576357D01*
X236060775Y-102719214D01*
X236013156Y-102814452D01*
X235965537Y-102862071D01*
X235870299Y-102909690D01*
X235489347Y-102909690D01*
X237013156Y-103385880D02*
X236441728Y-103385880D01*
X236727442Y-103385880D02*
X236727442Y-102385880D01*
X236632204Y-102528738D01*
X236536966Y-102623976D01*
X236441728Y-102671595D01*
X237870299Y-102719214D02*
X237870299Y-103385880D01*
X237632204Y-102338261D02*
X237394109Y-103052547D01*
X238013156Y-103052547D01*
G04 #@! TO.C,C12*
X228668342Y-70689742D02*
X228620723Y-70737361D01*
X228477866Y-70784980D01*
X228382628Y-70784980D01*
X228239771Y-70737361D01*
X228144533Y-70642123D01*
X228096914Y-70546885D01*
X228049295Y-70356409D01*
X228049295Y-70213552D01*
X228096914Y-70023076D01*
X228144533Y-69927838D01*
X228239771Y-69832600D01*
X228382628Y-69784980D01*
X228477866Y-69784980D01*
X228620723Y-69832600D01*
X228668342Y-69880219D01*
X229620723Y-70784980D02*
X229049295Y-70784980D01*
X229335009Y-70784980D02*
X229335009Y-69784980D01*
X229239771Y-69927838D01*
X229144533Y-70023076D01*
X229049295Y-70070695D01*
X230001676Y-69880219D02*
X230049295Y-69832600D01*
X230144533Y-69784980D01*
X230382628Y-69784980D01*
X230477866Y-69832600D01*
X230525485Y-69880219D01*
X230573104Y-69975457D01*
X230573104Y-70070695D01*
X230525485Y-70213552D01*
X229954057Y-70784980D01*
X230573104Y-70784980D01*
G04 #@! TO.C,U1*
X230478080Y-67703604D02*
X231287604Y-67703604D01*
X231382842Y-67655985D01*
X231430461Y-67608366D01*
X231478080Y-67513128D01*
X231478080Y-67322652D01*
X231430461Y-67227414D01*
X231382842Y-67179795D01*
X231287604Y-67132176D01*
X230478080Y-67132176D01*
X231478080Y-66132176D02*
X231478080Y-66703604D01*
X231478080Y-66417890D02*
X230478080Y-66417890D01*
X230620938Y-66513128D01*
X230716176Y-66608366D01*
X230763795Y-66703604D01*
G04 #@! TO.C,C32*
X175823642Y-83944642D02*
X175776023Y-83992261D01*
X175633166Y-84039880D01*
X175537928Y-84039880D01*
X175395071Y-83992261D01*
X175299833Y-83897023D01*
X175252214Y-83801785D01*
X175204595Y-83611309D01*
X175204595Y-83468452D01*
X175252214Y-83277976D01*
X175299833Y-83182738D01*
X175395071Y-83087500D01*
X175537928Y-83039880D01*
X175633166Y-83039880D01*
X175776023Y-83087500D01*
X175823642Y-83135119D01*
X176156976Y-83039880D02*
X176776023Y-83039880D01*
X176442690Y-83420833D01*
X176585547Y-83420833D01*
X176680785Y-83468452D01*
X176728404Y-83516071D01*
X176776023Y-83611309D01*
X176776023Y-83849404D01*
X176728404Y-83944642D01*
X176680785Y-83992261D01*
X176585547Y-84039880D01*
X176299833Y-84039880D01*
X176204595Y-83992261D01*
X176156976Y-83944642D01*
X177156976Y-83135119D02*
X177204595Y-83087500D01*
X177299833Y-83039880D01*
X177537928Y-83039880D01*
X177633166Y-83087500D01*
X177680785Y-83135119D01*
X177728404Y-83230357D01*
X177728404Y-83325595D01*
X177680785Y-83468452D01*
X177109357Y-84039880D01*
X177728404Y-84039880D01*
G04 #@! TO.C,C1*
X181371652Y-153693862D02*
X181419271Y-153741481D01*
X181466890Y-153884338D01*
X181466890Y-153979576D01*
X181419271Y-154122434D01*
X181324033Y-154217672D01*
X181228795Y-154265291D01*
X181038319Y-154312910D01*
X180895462Y-154312910D01*
X180704986Y-154265291D01*
X180609748Y-154217672D01*
X180514510Y-154122434D01*
X180466890Y-153979576D01*
X180466890Y-153884338D01*
X180514510Y-153741481D01*
X180562129Y-153693862D01*
X181466890Y-152741481D02*
X181466890Y-153312910D01*
X181466890Y-153027196D02*
X180466890Y-153027196D01*
X180609748Y-153122434D01*
X180704986Y-153217672D01*
X180752605Y-153312910D01*
G04 #@! TO.C,C2*
X193776732Y-120946770D02*
X193824351Y-120994389D01*
X193871970Y-121137246D01*
X193871970Y-121232484D01*
X193824351Y-121375342D01*
X193729113Y-121470580D01*
X193633875Y-121518199D01*
X193443399Y-121565818D01*
X193300542Y-121565818D01*
X193110066Y-121518199D01*
X193014828Y-121470580D01*
X192919590Y-121375342D01*
X192871970Y-121232484D01*
X192871970Y-121137246D01*
X192919590Y-120994389D01*
X192967209Y-120946770D01*
X192967209Y-120565818D02*
X192919590Y-120518199D01*
X192871970Y-120422961D01*
X192871970Y-120184865D01*
X192919590Y-120089627D01*
X192967209Y-120042008D01*
X193062447Y-119994389D01*
X193157685Y-119994389D01*
X193300542Y-120042008D01*
X193871970Y-120613437D01*
X193871970Y-119994389D01*
G04 #@! TO.C,C14*
X212593246Y-77193552D02*
X212545627Y-77241171D01*
X212402770Y-77288790D01*
X212307532Y-77288790D01*
X212164675Y-77241171D01*
X212069437Y-77145933D01*
X212021818Y-77050695D01*
X211974199Y-76860219D01*
X211974199Y-76717362D01*
X212021818Y-76526886D01*
X212069437Y-76431648D01*
X212164675Y-76336410D01*
X212307532Y-76288790D01*
X212402770Y-76288790D01*
X212545627Y-76336410D01*
X212593246Y-76384029D01*
X213545627Y-77288790D02*
X212974199Y-77288790D01*
X213259913Y-77288790D02*
X213259913Y-76288790D01*
X213164675Y-76431648D01*
X213069437Y-76526886D01*
X212974199Y-76574505D01*
X214402770Y-76622124D02*
X214402770Y-77288790D01*
X214164675Y-76241171D02*
X213926580Y-76955457D01*
X214545627Y-76955457D01*
G04 #@! TO.C,C13*
X218724242Y-79236842D02*
X218676623Y-79284461D01*
X218533766Y-79332080D01*
X218438528Y-79332080D01*
X218295671Y-79284461D01*
X218200433Y-79189223D01*
X218152814Y-79093985D01*
X218105195Y-78903509D01*
X218105195Y-78760652D01*
X218152814Y-78570176D01*
X218200433Y-78474938D01*
X218295671Y-78379700D01*
X218438528Y-78332080D01*
X218533766Y-78332080D01*
X218676623Y-78379700D01*
X218724242Y-78427319D01*
X219676623Y-79332080D02*
X219105195Y-79332080D01*
X219390909Y-79332080D02*
X219390909Y-78332080D01*
X219295671Y-78474938D01*
X219200433Y-78570176D01*
X219105195Y-78617795D01*
X220009957Y-78332080D02*
X220629004Y-78332080D01*
X220295671Y-78713033D01*
X220438528Y-78713033D01*
X220533766Y-78760652D01*
X220581385Y-78808271D01*
X220629004Y-78903509D01*
X220629004Y-79141604D01*
X220581385Y-79236842D01*
X220533766Y-79284461D01*
X220438528Y-79332080D01*
X220152814Y-79332080D01*
X220057576Y-79284461D01*
X220009957Y-79236842D01*
G04 #@! TO.C,U3*
X211696395Y-71499480D02*
X211696395Y-72309004D01*
X211744014Y-72404242D01*
X211791633Y-72451861D01*
X211886871Y-72499480D01*
X212077347Y-72499480D01*
X212172585Y-72451861D01*
X212220204Y-72404242D01*
X212267823Y-72309004D01*
X212267823Y-71499480D01*
X212648776Y-71499480D02*
X213267823Y-71499480D01*
X212934490Y-71880433D01*
X213077347Y-71880433D01*
X213172585Y-71928052D01*
X213220204Y-71975671D01*
X213267823Y-72070909D01*
X213267823Y-72309004D01*
X213220204Y-72404242D01*
X213172585Y-72451861D01*
X213077347Y-72499480D01*
X212791633Y-72499480D01*
X212696395Y-72451861D01*
X212648776Y-72404242D01*
G04 #@! TO.C,C17*
X230252542Y-73693257D02*
X230300161Y-73740876D01*
X230347780Y-73883733D01*
X230347780Y-73978971D01*
X230300161Y-74121828D01*
X230204923Y-74217066D01*
X230109685Y-74264685D01*
X229919209Y-74312304D01*
X229776352Y-74312304D01*
X229585876Y-74264685D01*
X229490638Y-74217066D01*
X229395400Y-74121828D01*
X229347780Y-73978971D01*
X229347780Y-73883733D01*
X229395400Y-73740876D01*
X229443019Y-73693257D01*
X230347780Y-72740876D02*
X230347780Y-73312304D01*
X230347780Y-73026590D02*
X229347780Y-73026590D01*
X229490638Y-73121828D01*
X229585876Y-73217066D01*
X229633495Y-73312304D01*
X229347780Y-72407542D02*
X229347780Y-71740876D01*
X230347780Y-72169447D01*
G04 #@! TO.C,C7*
X227818207Y-71158301D02*
X227865826Y-71205920D01*
X227913445Y-71348777D01*
X227913445Y-71444015D01*
X227865826Y-71586873D01*
X227770588Y-71682111D01*
X227675350Y-71729730D01*
X227484874Y-71777349D01*
X227342017Y-71777349D01*
X227151541Y-71729730D01*
X227056303Y-71682111D01*
X226961065Y-71586873D01*
X226913445Y-71444015D01*
X226913445Y-71348777D01*
X226961065Y-71205920D01*
X227008684Y-71158301D01*
X226913445Y-70824968D02*
X226913445Y-70158301D01*
X227913445Y-70586873D01*
G04 #@! TO.C,F1*
X181072571Y-143792533D02*
X181072571Y-144125866D01*
X181596380Y-144125866D02*
X180596380Y-144125866D01*
X180596380Y-143649676D01*
X181596380Y-142744914D02*
X181596380Y-143316342D01*
X181596380Y-143030628D02*
X180596380Y-143030628D01*
X180739238Y-143125866D01*
X180834476Y-143221104D01*
X180882095Y-143316342D01*
G04 #@! TO.C,F2*
X198802666Y-127224571D02*
X198469333Y-127224571D01*
X198469333Y-127748380D02*
X198469333Y-126748380D01*
X198945523Y-126748380D01*
X199278857Y-126843619D02*
X199326476Y-126796000D01*
X199421714Y-126748380D01*
X199659809Y-126748380D01*
X199755047Y-126796000D01*
X199802666Y-126843619D01*
X199850285Y-126938857D01*
X199850285Y-127034095D01*
X199802666Y-127176952D01*
X199231238Y-127748380D01*
X199850285Y-127748380D01*
G04 #@! TO.C,R3*
X231504333Y-64814380D02*
X231171000Y-64338190D01*
X230932904Y-64814380D02*
X230932904Y-63814380D01*
X231313857Y-63814380D01*
X231409095Y-63862000D01*
X231456714Y-63909619D01*
X231504333Y-64004857D01*
X231504333Y-64147714D01*
X231456714Y-64242952D01*
X231409095Y-64290571D01*
X231313857Y-64338190D01*
X230932904Y-64338190D01*
X231837666Y-63814380D02*
X232456714Y-63814380D01*
X232123380Y-64195333D01*
X232266238Y-64195333D01*
X232361476Y-64242952D01*
X232409095Y-64290571D01*
X232456714Y-64385809D01*
X232456714Y-64623904D01*
X232409095Y-64719142D01*
X232361476Y-64766761D01*
X232266238Y-64814380D01*
X231980523Y-64814380D01*
X231885285Y-64766761D01*
X231837666Y-64719142D01*
G04 #@! TO.C,L4*
X234956380Y-68746666D02*
X234956380Y-69222857D01*
X233956380Y-69222857D01*
X234289714Y-67984761D02*
X234956380Y-67984761D01*
X233908761Y-68222857D02*
X234623047Y-68460952D01*
X234623047Y-67841904D01*
G04 #@! TO.C,U6*
X216368380Y-85763004D02*
X217177904Y-85763004D01*
X217273142Y-85715385D01*
X217320761Y-85667766D01*
X217368380Y-85572528D01*
X217368380Y-85382052D01*
X217320761Y-85286814D01*
X217273142Y-85239195D01*
X217177904Y-85191576D01*
X216368380Y-85191576D01*
X216368380Y-84286814D02*
X216368380Y-84477290D01*
X216416000Y-84572528D01*
X216463619Y-84620147D01*
X216606476Y-84715385D01*
X216796952Y-84763004D01*
X217177904Y-84763004D01*
X217273142Y-84715385D01*
X217320761Y-84667766D01*
X217368380Y-84572528D01*
X217368380Y-84382052D01*
X217320761Y-84286814D01*
X217273142Y-84239195D01*
X217177904Y-84191576D01*
X216939809Y-84191576D01*
X216844571Y-84239195D01*
X216796952Y-84286814D01*
X216749333Y-84382052D01*
X216749333Y-84572528D01*
X216796952Y-84667766D01*
X216844571Y-84715385D01*
X216939809Y-84763004D01*
G04 #@! TO.C,C8*
X214453742Y-68924466D02*
X214501361Y-68972085D01*
X214548980Y-69114942D01*
X214548980Y-69210180D01*
X214501361Y-69353038D01*
X214406123Y-69448276D01*
X214310885Y-69495895D01*
X214120409Y-69543514D01*
X213977552Y-69543514D01*
X213787076Y-69495895D01*
X213691838Y-69448276D01*
X213596600Y-69353038D01*
X213548980Y-69210180D01*
X213548980Y-69114942D01*
X213596600Y-68972085D01*
X213644219Y-68924466D01*
X213977552Y-68353038D02*
X213929933Y-68448276D01*
X213882314Y-68495895D01*
X213787076Y-68543514D01*
X213739457Y-68543514D01*
X213644219Y-68495895D01*
X213596600Y-68448276D01*
X213548980Y-68353038D01*
X213548980Y-68162561D01*
X213596600Y-68067323D01*
X213644219Y-68019704D01*
X213739457Y-67972085D01*
X213787076Y-67972085D01*
X213882314Y-68019704D01*
X213929933Y-68067323D01*
X213977552Y-68162561D01*
X213977552Y-68353038D01*
X214025171Y-68448276D01*
X214072790Y-68495895D01*
X214168028Y-68543514D01*
X214358504Y-68543514D01*
X214453742Y-68495895D01*
X214501361Y-68448276D01*
X214548980Y-68353038D01*
X214548980Y-68162561D01*
X214501361Y-68067323D01*
X214453742Y-68019704D01*
X214358504Y-67972085D01*
X214168028Y-67972085D01*
X214072790Y-68019704D01*
X214025171Y-68067323D01*
X213977552Y-68162561D01*
G04 #@! TO.C,C6*
X226848942Y-61964866D02*
X226896561Y-62012485D01*
X226944180Y-62155342D01*
X226944180Y-62250580D01*
X226896561Y-62393438D01*
X226801323Y-62488676D01*
X226706085Y-62536295D01*
X226515609Y-62583914D01*
X226372752Y-62583914D01*
X226182276Y-62536295D01*
X226087038Y-62488676D01*
X225991800Y-62393438D01*
X225944180Y-62250580D01*
X225944180Y-62155342D01*
X225991800Y-62012485D01*
X226039419Y-61964866D01*
X225944180Y-61107723D02*
X225944180Y-61298200D01*
X225991800Y-61393438D01*
X226039419Y-61441057D01*
X226182276Y-61536295D01*
X226372752Y-61583914D01*
X226753704Y-61583914D01*
X226848942Y-61536295D01*
X226896561Y-61488676D01*
X226944180Y-61393438D01*
X226944180Y-61202961D01*
X226896561Y-61107723D01*
X226848942Y-61060104D01*
X226753704Y-61012485D01*
X226515609Y-61012485D01*
X226420371Y-61060104D01*
X226372752Y-61107723D01*
X226325133Y-61202961D01*
X226325133Y-61393438D01*
X226372752Y-61488676D01*
X226420371Y-61536295D01*
X226515609Y-61583914D01*
G04 #@! TO.C,C42*
X230471742Y-84342242D02*
X230424123Y-84389861D01*
X230281266Y-84437480D01*
X230186028Y-84437480D01*
X230043171Y-84389861D01*
X229947933Y-84294623D01*
X229900314Y-84199385D01*
X229852695Y-84008909D01*
X229852695Y-83866052D01*
X229900314Y-83675576D01*
X229947933Y-83580338D01*
X230043171Y-83485100D01*
X230186028Y-83437480D01*
X230281266Y-83437480D01*
X230424123Y-83485100D01*
X230471742Y-83532719D01*
X231328885Y-83770814D02*
X231328885Y-84437480D01*
X231090790Y-83389861D02*
X230852695Y-84104147D01*
X231471742Y-84104147D01*
X231805076Y-83532719D02*
X231852695Y-83485100D01*
X231947933Y-83437480D01*
X232186028Y-83437480D01*
X232281266Y-83485100D01*
X232328885Y-83532719D01*
X232376504Y-83627957D01*
X232376504Y-83723195D01*
X232328885Y-83866052D01*
X231757457Y-84437480D01*
X232376504Y-84437480D01*
G04 #@! TO.C,C43*
X215765142Y-89891142D02*
X215717523Y-89938761D01*
X215574666Y-89986380D01*
X215479428Y-89986380D01*
X215336571Y-89938761D01*
X215241333Y-89843523D01*
X215193714Y-89748285D01*
X215146095Y-89557809D01*
X215146095Y-89414952D01*
X215193714Y-89224476D01*
X215241333Y-89129238D01*
X215336571Y-89034000D01*
X215479428Y-88986380D01*
X215574666Y-88986380D01*
X215717523Y-89034000D01*
X215765142Y-89081619D01*
X216622285Y-89319714D02*
X216622285Y-89986380D01*
X216384190Y-88938761D02*
X216146095Y-89653047D01*
X216765142Y-89653047D01*
X217050857Y-88986380D02*
X217669904Y-88986380D01*
X217336571Y-89367333D01*
X217479428Y-89367333D01*
X217574666Y-89414952D01*
X217622285Y-89462571D01*
X217669904Y-89557809D01*
X217669904Y-89795904D01*
X217622285Y-89891142D01*
X217574666Y-89938761D01*
X217479428Y-89986380D01*
X217193714Y-89986380D01*
X217098476Y-89938761D01*
X217050857Y-89891142D01*
G04 #@! TO.C,C39*
X217303208Y-82023082D02*
X217350827Y-82070701D01*
X217398446Y-82213558D01*
X217398446Y-82308796D01*
X217350827Y-82451653D01*
X217255589Y-82546891D01*
X217160351Y-82594510D01*
X216969875Y-82642129D01*
X216827018Y-82642129D01*
X216636542Y-82594510D01*
X216541304Y-82546891D01*
X216446066Y-82451653D01*
X216398446Y-82308796D01*
X216398446Y-82213558D01*
X216446066Y-82070701D01*
X216493685Y-82023082D01*
X216398446Y-81689748D02*
X216398446Y-81070701D01*
X216779399Y-81404034D01*
X216779399Y-81261177D01*
X216827018Y-81165939D01*
X216874637Y-81118320D01*
X216969875Y-81070701D01*
X217207970Y-81070701D01*
X217303208Y-81118320D01*
X217350827Y-81165939D01*
X217398446Y-81261177D01*
X217398446Y-81546891D01*
X217350827Y-81642129D01*
X217303208Y-81689748D01*
X217398446Y-80594510D02*
X217398446Y-80404034D01*
X217350827Y-80308796D01*
X217303208Y-80261177D01*
X217160351Y-80165939D01*
X216969875Y-80118320D01*
X216588923Y-80118320D01*
X216493685Y-80165939D01*
X216446066Y-80213558D01*
X216398446Y-80308796D01*
X216398446Y-80499272D01*
X216446066Y-80594510D01*
X216493685Y-80642129D01*
X216588923Y-80689748D01*
X216827018Y-80689748D01*
X216922256Y-80642129D01*
X216969875Y-80594510D01*
X217017494Y-80499272D01*
X217017494Y-80308796D01*
X216969875Y-80213558D01*
X216922256Y-80165939D01*
X216827018Y-80118320D01*
G04 #@! TO.C,L5*
X218803480Y-76087266D02*
X218803480Y-76563457D01*
X217803480Y-76563457D01*
X217803480Y-75277742D02*
X217803480Y-75753933D01*
X218279671Y-75801552D01*
X218232052Y-75753933D01*
X218184433Y-75658695D01*
X218184433Y-75420600D01*
X218232052Y-75325361D01*
X218279671Y-75277742D01*
X218374909Y-75230123D01*
X218613004Y-75230123D01*
X218708242Y-75277742D01*
X218755861Y-75325361D01*
X218803480Y-75420600D01*
X218803480Y-75658695D01*
X218755861Y-75753933D01*
X218708242Y-75801552D01*
G04 #@! TO.C,C47*
X226340942Y-81554557D02*
X226388561Y-81602176D01*
X226436180Y-81745033D01*
X226436180Y-81840271D01*
X226388561Y-81983128D01*
X226293323Y-82078366D01*
X226198085Y-82125985D01*
X226007609Y-82173604D01*
X225864752Y-82173604D01*
X225674276Y-82125985D01*
X225579038Y-82078366D01*
X225483800Y-81983128D01*
X225436180Y-81840271D01*
X225436180Y-81745033D01*
X225483800Y-81602176D01*
X225531419Y-81554557D01*
X225769514Y-80697414D02*
X226436180Y-80697414D01*
X225388561Y-80935509D02*
X226102847Y-81173604D01*
X226102847Y-80554557D01*
X225436180Y-80268842D02*
X225436180Y-79602176D01*
X226436180Y-80030747D01*
G04 #@! TO.C,C9*
X237259833Y-114170642D02*
X237212214Y-114218261D01*
X237069357Y-114265880D01*
X236974119Y-114265880D01*
X236831261Y-114218261D01*
X236736023Y-114123023D01*
X236688404Y-114027785D01*
X236640785Y-113837309D01*
X236640785Y-113694452D01*
X236688404Y-113503976D01*
X236736023Y-113408738D01*
X236831261Y-113313500D01*
X236974119Y-113265880D01*
X237069357Y-113265880D01*
X237212214Y-113313500D01*
X237259833Y-113361119D01*
X237736023Y-114265880D02*
X237926500Y-114265880D01*
X238021738Y-114218261D01*
X238069357Y-114170642D01*
X238164595Y-114027785D01*
X238212214Y-113837309D01*
X238212214Y-113456357D01*
X238164595Y-113361119D01*
X238116976Y-113313500D01*
X238021738Y-113265880D01*
X237831261Y-113265880D01*
X237736023Y-113313500D01*
X237688404Y-113361119D01*
X237640785Y-113456357D01*
X237640785Y-113694452D01*
X237688404Y-113789690D01*
X237736023Y-113837309D01*
X237831261Y-113884928D01*
X238021738Y-113884928D01*
X238116976Y-113837309D01*
X238164595Y-113789690D01*
X238212214Y-113694452D01*
G04 #@! TO.C,C48*
X208016207Y-86595082D02*
X208063826Y-86642701D01*
X208111445Y-86785558D01*
X208111445Y-86880796D01*
X208063826Y-87023653D01*
X207968588Y-87118891D01*
X207873350Y-87166510D01*
X207682874Y-87214129D01*
X207540017Y-87214129D01*
X207349541Y-87166510D01*
X207254303Y-87118891D01*
X207159065Y-87023653D01*
X207111445Y-86880796D01*
X207111445Y-86785558D01*
X207159065Y-86642701D01*
X207206684Y-86595082D01*
X207444779Y-85737939D02*
X208111445Y-85737939D01*
X207063826Y-85976034D02*
X207778112Y-86214129D01*
X207778112Y-85595082D01*
X207540017Y-85071272D02*
X207492398Y-85166510D01*
X207444779Y-85214129D01*
X207349541Y-85261748D01*
X207301922Y-85261748D01*
X207206684Y-85214129D01*
X207159065Y-85166510D01*
X207111445Y-85071272D01*
X207111445Y-84880796D01*
X207159065Y-84785558D01*
X207206684Y-84737939D01*
X207301922Y-84690320D01*
X207349541Y-84690320D01*
X207444779Y-84737939D01*
X207492398Y-84785558D01*
X207540017Y-84880796D01*
X207540017Y-85071272D01*
X207587636Y-85166510D01*
X207635255Y-85214129D01*
X207730493Y-85261748D01*
X207920969Y-85261748D01*
X208016207Y-85214129D01*
X208063826Y-85166510D01*
X208111445Y-85071272D01*
X208111445Y-84880796D01*
X208063826Y-84785558D01*
X208016207Y-84737939D01*
X207920969Y-84690320D01*
X207730493Y-84690320D01*
X207635255Y-84737939D01*
X207587636Y-84785558D01*
X207540017Y-84880796D01*
G04 #@! TO.C,C20*
X221262207Y-82801082D02*
X221309826Y-82848701D01*
X221357445Y-82991558D01*
X221357445Y-83086796D01*
X221309826Y-83229653D01*
X221214588Y-83324891D01*
X221119350Y-83372510D01*
X220928874Y-83420129D01*
X220786017Y-83420129D01*
X220595541Y-83372510D01*
X220500303Y-83324891D01*
X220405065Y-83229653D01*
X220357445Y-83086796D01*
X220357445Y-82991558D01*
X220405065Y-82848701D01*
X220452684Y-82801082D01*
X220452684Y-82420129D02*
X220405065Y-82372510D01*
X220357445Y-82277272D01*
X220357445Y-82039177D01*
X220405065Y-81943939D01*
X220452684Y-81896320D01*
X220547922Y-81848701D01*
X220643160Y-81848701D01*
X220786017Y-81896320D01*
X221357445Y-82467748D01*
X221357445Y-81848701D01*
X220357445Y-81229653D02*
X220357445Y-81134415D01*
X220405065Y-81039177D01*
X220452684Y-80991558D01*
X220547922Y-80943939D01*
X220738398Y-80896320D01*
X220976493Y-80896320D01*
X221166969Y-80943939D01*
X221262207Y-80991558D01*
X221309826Y-81039177D01*
X221357445Y-81134415D01*
X221357445Y-81229653D01*
X221309826Y-81324891D01*
X221262207Y-81372510D01*
X221166969Y-81420129D01*
X220976493Y-81467748D01*
X220738398Y-81467748D01*
X220547922Y-81420129D01*
X220452684Y-81372510D01*
X220405065Y-81324891D01*
X220357445Y-81229653D01*
G04 #@! TO.C,R10*
X211335880Y-77973157D02*
X210859690Y-78306490D01*
X211335880Y-78544585D02*
X210335880Y-78544585D01*
X210335880Y-78163633D01*
X210383500Y-78068395D01*
X210431119Y-78020776D01*
X210526357Y-77973157D01*
X210669214Y-77973157D01*
X210764452Y-78020776D01*
X210812071Y-78068395D01*
X210859690Y-78163633D01*
X210859690Y-78544585D01*
X211335880Y-77020776D02*
X211335880Y-77592204D01*
X211335880Y-77306490D02*
X210335880Y-77306490D01*
X210478738Y-77401728D01*
X210573976Y-77496966D01*
X210621595Y-77592204D01*
X210335880Y-76401728D02*
X210335880Y-76306490D01*
X210383500Y-76211252D01*
X210431119Y-76163633D01*
X210526357Y-76116014D01*
X210716833Y-76068395D01*
X210954928Y-76068395D01*
X211145404Y-76116014D01*
X211240642Y-76163633D01*
X211288261Y-76211252D01*
X211335880Y-76306490D01*
X211335880Y-76401728D01*
X211288261Y-76496966D01*
X211240642Y-76544585D01*
X211145404Y-76592204D01*
X210954928Y-76639823D01*
X210716833Y-76639823D01*
X210526357Y-76592204D01*
X210431119Y-76544585D01*
X210383500Y-76496966D01*
X210335880Y-76401728D01*
G04 #@! TO.C,R6*
X217282733Y-71902580D02*
X216949400Y-71426390D01*
X216711304Y-71902580D02*
X216711304Y-70902580D01*
X217092257Y-70902580D01*
X217187495Y-70950200D01*
X217235114Y-70997819D01*
X217282733Y-71093057D01*
X217282733Y-71235914D01*
X217235114Y-71331152D01*
X217187495Y-71378771D01*
X217092257Y-71426390D01*
X216711304Y-71426390D01*
X218139876Y-70902580D02*
X217949400Y-70902580D01*
X217854161Y-70950200D01*
X217806542Y-70997819D01*
X217711304Y-71140676D01*
X217663685Y-71331152D01*
X217663685Y-71712104D01*
X217711304Y-71807342D01*
X217758923Y-71854961D01*
X217854161Y-71902580D01*
X218044638Y-71902580D01*
X218139876Y-71854961D01*
X218187495Y-71807342D01*
X218235114Y-71712104D01*
X218235114Y-71474009D01*
X218187495Y-71378771D01*
X218139876Y-71331152D01*
X218044638Y-71283533D01*
X217854161Y-71283533D01*
X217758923Y-71331152D01*
X217711304Y-71378771D01*
X217663685Y-71474009D01*
G04 #@! TO.C,U5*
X228104795Y-76236580D02*
X228104795Y-77046104D01*
X228152414Y-77141342D01*
X228200033Y-77188961D01*
X228295271Y-77236580D01*
X228485747Y-77236580D01*
X228580985Y-77188961D01*
X228628604Y-77141342D01*
X228676223Y-77046104D01*
X228676223Y-76236580D01*
X229628604Y-76236580D02*
X229152414Y-76236580D01*
X229104795Y-76712771D01*
X229152414Y-76665152D01*
X229247652Y-76617533D01*
X229485747Y-76617533D01*
X229580985Y-76665152D01*
X229628604Y-76712771D01*
X229676223Y-76808009D01*
X229676223Y-77046104D01*
X229628604Y-77141342D01*
X229580985Y-77188961D01*
X229485747Y-77236580D01*
X229247652Y-77236580D01*
X229152414Y-77188961D01*
X229104795Y-77141342D01*
G04 #@! TO.C,R9*
X211196180Y-70918366D02*
X210719990Y-71251700D01*
X211196180Y-71489795D02*
X210196180Y-71489795D01*
X210196180Y-71108842D01*
X210243800Y-71013604D01*
X210291419Y-70965985D01*
X210386657Y-70918366D01*
X210529514Y-70918366D01*
X210624752Y-70965985D01*
X210672371Y-71013604D01*
X210719990Y-71108842D01*
X210719990Y-71489795D01*
X211196180Y-70442176D02*
X211196180Y-70251700D01*
X211148561Y-70156461D01*
X211100942Y-70108842D01*
X210958085Y-70013604D01*
X210767609Y-69965985D01*
X210386657Y-69965985D01*
X210291419Y-70013604D01*
X210243800Y-70061223D01*
X210196180Y-70156461D01*
X210196180Y-70346938D01*
X210243800Y-70442176D01*
X210291419Y-70489795D01*
X210386657Y-70537414D01*
X210624752Y-70537414D01*
X210719990Y-70489795D01*
X210767609Y-70442176D01*
X210815228Y-70346938D01*
X210815228Y-70156461D01*
X210767609Y-70061223D01*
X210719990Y-70013604D01*
X210624752Y-69965985D01*
G04 #@! TO.C,U4*
X222554895Y-86536280D02*
X222554895Y-87345804D01*
X222602514Y-87441042D01*
X222650133Y-87488661D01*
X222745371Y-87536280D01*
X222935847Y-87536280D01*
X223031085Y-87488661D01*
X223078704Y-87441042D01*
X223126323Y-87345804D01*
X223126323Y-86536280D01*
X224031085Y-86869614D02*
X224031085Y-87536280D01*
X223792990Y-86488661D02*
X223554895Y-87202947D01*
X224173942Y-87202947D01*
G04 #@! TO.C,Y1*
D12*
X234380320Y-112652348D02*
X234380320Y-113128538D01*
X234046987Y-112128538D02*
X234380320Y-112652348D01*
X234713653Y-112128538D01*
X235570796Y-113128538D02*
X234999368Y-113128538D01*
X235285082Y-113128538D02*
X235285082Y-112128538D01*
X235189844Y-112271396D01*
X235094606Y-112366634D01*
X234999368Y-112414253D01*
G04 #@! TO.C,C51*
D13*
X234908892Y-115521119D02*
X234956511Y-115568738D01*
X235004130Y-115711595D01*
X235004130Y-115806833D01*
X234956511Y-115949690D01*
X234861273Y-116044928D01*
X234766035Y-116092547D01*
X234575559Y-116140166D01*
X234432702Y-116140166D01*
X234242226Y-116092547D01*
X234146988Y-116044928D01*
X234051750Y-115949690D01*
X234004130Y-115806833D01*
X234004130Y-115711595D01*
X234051750Y-115568738D01*
X234099369Y-115521119D01*
X234004130Y-114616357D02*
X234004130Y-115092547D01*
X234480321Y-115140166D01*
X234432702Y-115092547D01*
X234385083Y-114997309D01*
X234385083Y-114759214D01*
X234432702Y-114663976D01*
X234480321Y-114616357D01*
X234575559Y-114568738D01*
X234813654Y-114568738D01*
X234908892Y-114616357D01*
X234956511Y-114663976D01*
X235004130Y-114759214D01*
X235004130Y-114997309D01*
X234956511Y-115092547D01*
X234908892Y-115140166D01*
X235004130Y-113616357D02*
X235004130Y-114187785D01*
X235004130Y-113902071D02*
X234004130Y-113902071D01*
X234146988Y-113997309D01*
X234242226Y-114092547D01*
X234289845Y-114187785D01*
G04 #@! TO.C,R28*
X223953540Y-91231015D02*
X223477350Y-91564348D01*
X223953540Y-91802443D02*
X222953540Y-91802443D01*
X222953540Y-91421491D01*
X223001160Y-91326253D01*
X223048779Y-91278634D01*
X223144017Y-91231015D01*
X223286874Y-91231015D01*
X223382112Y-91278634D01*
X223429731Y-91326253D01*
X223477350Y-91421491D01*
X223477350Y-91802443D01*
X223048779Y-90850062D02*
X223001160Y-90802443D01*
X222953540Y-90707205D01*
X222953540Y-90469110D01*
X223001160Y-90373872D01*
X223048779Y-90326253D01*
X223144017Y-90278634D01*
X223239255Y-90278634D01*
X223382112Y-90326253D01*
X223953540Y-90897681D01*
X223953540Y-90278634D01*
X223382112Y-89707205D02*
X223334493Y-89802443D01*
X223286874Y-89850062D01*
X223191636Y-89897681D01*
X223144017Y-89897681D01*
X223048779Y-89850062D01*
X223001160Y-89802443D01*
X222953540Y-89707205D01*
X222953540Y-89516729D01*
X223001160Y-89421491D01*
X223048779Y-89373872D01*
X223144017Y-89326253D01*
X223191636Y-89326253D01*
X223286874Y-89373872D01*
X223334493Y-89421491D01*
X223382112Y-89516729D01*
X223382112Y-89707205D01*
X223429731Y-89802443D01*
X223477350Y-89850062D01*
X223572588Y-89897681D01*
X223763064Y-89897681D01*
X223858302Y-89850062D01*
X223905921Y-89802443D01*
X223953540Y-89707205D01*
X223953540Y-89516729D01*
X223905921Y-89421491D01*
X223858302Y-89373872D01*
X223763064Y-89326253D01*
X223572588Y-89326253D01*
X223477350Y-89373872D01*
X223429731Y-89421491D01*
X223382112Y-89516729D01*
G04 #@! TO.C,R27*
X217323891Y-100532641D02*
X216990558Y-100056451D01*
X216752463Y-100532641D02*
X216752463Y-99532641D01*
X217133415Y-99532641D01*
X217228653Y-99580261D01*
X217276272Y-99627880D01*
X217323891Y-99723118D01*
X217323891Y-99865975D01*
X217276272Y-99961213D01*
X217228653Y-100008832D01*
X217133415Y-100056451D01*
X216752463Y-100056451D01*
X217704844Y-99627880D02*
X217752463Y-99580261D01*
X217847701Y-99532641D01*
X218085796Y-99532641D01*
X218181034Y-99580261D01*
X218228653Y-99627880D01*
X218276272Y-99723118D01*
X218276272Y-99818356D01*
X218228653Y-99961213D01*
X217657225Y-100532641D01*
X218276272Y-100532641D01*
X218609606Y-99532641D02*
X219276272Y-99532641D01*
X218847701Y-100532641D01*
G04 #@! TO.C,R29*
X228017540Y-91231015D02*
X227541350Y-91564348D01*
X228017540Y-91802443D02*
X227017540Y-91802443D01*
X227017540Y-91421491D01*
X227065160Y-91326253D01*
X227112779Y-91278634D01*
X227208017Y-91231015D01*
X227350874Y-91231015D01*
X227446112Y-91278634D01*
X227493731Y-91326253D01*
X227541350Y-91421491D01*
X227541350Y-91802443D01*
X227112779Y-90850062D02*
X227065160Y-90802443D01*
X227017540Y-90707205D01*
X227017540Y-90469110D01*
X227065160Y-90373872D01*
X227112779Y-90326253D01*
X227208017Y-90278634D01*
X227303255Y-90278634D01*
X227446112Y-90326253D01*
X228017540Y-90897681D01*
X228017540Y-90278634D01*
X228017540Y-89802443D02*
X228017540Y-89611967D01*
X227969921Y-89516729D01*
X227922302Y-89469110D01*
X227779445Y-89373872D01*
X227588969Y-89326253D01*
X227208017Y-89326253D01*
X227112779Y-89373872D01*
X227065160Y-89421491D01*
X227017540Y-89516729D01*
X227017540Y-89707205D01*
X227065160Y-89802443D01*
X227112779Y-89850062D01*
X227208017Y-89897681D01*
X227446112Y-89897681D01*
X227541350Y-89850062D01*
X227588969Y-89802443D01*
X227636588Y-89707205D01*
X227636588Y-89516729D01*
X227588969Y-89421491D01*
X227541350Y-89373872D01*
X227446112Y-89326253D01*
G04 #@! TO.C,R30*
X217323891Y-101548641D02*
X216990558Y-101072451D01*
X216752463Y-101548641D02*
X216752463Y-100548641D01*
X217133415Y-100548641D01*
X217228653Y-100596261D01*
X217276272Y-100643880D01*
X217323891Y-100739118D01*
X217323891Y-100881975D01*
X217276272Y-100977213D01*
X217228653Y-101024832D01*
X217133415Y-101072451D01*
X216752463Y-101072451D01*
X217657225Y-100548641D02*
X218276272Y-100548641D01*
X217942939Y-100929594D01*
X218085796Y-100929594D01*
X218181034Y-100977213D01*
X218228653Y-101024832D01*
X218276272Y-101120070D01*
X218276272Y-101358165D01*
X218228653Y-101453403D01*
X218181034Y-101501022D01*
X218085796Y-101548641D01*
X217800082Y-101548641D01*
X217704844Y-101501022D01*
X217657225Y-101453403D01*
X218895320Y-100548641D02*
X218990558Y-100548641D01*
X219085796Y-100596261D01*
X219133415Y-100643880D01*
X219181034Y-100739118D01*
X219228653Y-100929594D01*
X219228653Y-101167689D01*
X219181034Y-101358165D01*
X219133415Y-101453403D01*
X219085796Y-101501022D01*
X218990558Y-101548641D01*
X218895320Y-101548641D01*
X218800082Y-101501022D01*
X218752463Y-101453403D01*
X218704844Y-101358165D01*
X218657225Y-101167689D01*
X218657225Y-100929594D01*
X218704844Y-100739118D01*
X218752463Y-100643880D01*
X218800082Y-100596261D01*
X218895320Y-100548641D01*
G04 #@! TO.C,R32*
X227001540Y-91231015D02*
X226525350Y-91564348D01*
X227001540Y-91802443D02*
X226001540Y-91802443D01*
X226001540Y-91421491D01*
X226049160Y-91326253D01*
X226096779Y-91278634D01*
X226192017Y-91231015D01*
X226334874Y-91231015D01*
X226430112Y-91278634D01*
X226477731Y-91326253D01*
X226525350Y-91421491D01*
X226525350Y-91802443D01*
X226001540Y-90897681D02*
X226001540Y-90278634D01*
X226382493Y-90611967D01*
X226382493Y-90469110D01*
X226430112Y-90373872D01*
X226477731Y-90326253D01*
X226572969Y-90278634D01*
X226811064Y-90278634D01*
X226906302Y-90326253D01*
X226953921Y-90373872D01*
X227001540Y-90469110D01*
X227001540Y-90754824D01*
X226953921Y-90850062D01*
X226906302Y-90897681D01*
X226096779Y-89897681D02*
X226049160Y-89850062D01*
X226001540Y-89754824D01*
X226001540Y-89516729D01*
X226049160Y-89421491D01*
X226096779Y-89373872D01*
X226192017Y-89326253D01*
X226287255Y-89326253D01*
X226430112Y-89373872D01*
X227001540Y-89945300D01*
X227001540Y-89326253D01*
G04 #@! TO.C,R33*
X232297129Y-93861118D02*
X231820939Y-94194451D01*
X232297129Y-94432546D02*
X231297129Y-94432546D01*
X231297129Y-94051594D01*
X231344749Y-93956356D01*
X231392368Y-93908737D01*
X231487606Y-93861118D01*
X231630463Y-93861118D01*
X231725701Y-93908737D01*
X231773320Y-93956356D01*
X231820939Y-94051594D01*
X231820939Y-94432546D01*
X231297129Y-93527784D02*
X231297129Y-92908737D01*
X231678082Y-93242070D01*
X231678082Y-93099213D01*
X231725701Y-93003975D01*
X231773320Y-92956356D01*
X231868558Y-92908737D01*
X232106653Y-92908737D01*
X232201891Y-92956356D01*
X232249510Y-93003975D01*
X232297129Y-93099213D01*
X232297129Y-93384927D01*
X232249510Y-93480165D01*
X232201891Y-93527784D01*
X231297129Y-92575403D02*
X231297129Y-91956356D01*
X231678082Y-92289689D01*
X231678082Y-92146832D01*
X231725701Y-92051594D01*
X231773320Y-92003975D01*
X231868558Y-91956356D01*
X232106653Y-91956356D01*
X232201891Y-92003975D01*
X232249510Y-92051594D01*
X232297129Y-92146832D01*
X232297129Y-92432546D01*
X232249510Y-92527784D01*
X232201891Y-92575403D01*
G04 #@! TO.C,R31*
X217323891Y-97484641D02*
X216990558Y-97008451D01*
X216752463Y-97484641D02*
X216752463Y-96484641D01*
X217133415Y-96484641D01*
X217228653Y-96532261D01*
X217276272Y-96579880D01*
X217323891Y-96675118D01*
X217323891Y-96817975D01*
X217276272Y-96913213D01*
X217228653Y-96960832D01*
X217133415Y-97008451D01*
X216752463Y-97008451D01*
X217657225Y-96484641D02*
X218276272Y-96484641D01*
X217942939Y-96865594D01*
X218085796Y-96865594D01*
X218181034Y-96913213D01*
X218228653Y-96960832D01*
X218276272Y-97056070D01*
X218276272Y-97294165D01*
X218228653Y-97389403D01*
X218181034Y-97437022D01*
X218085796Y-97484641D01*
X217800082Y-97484641D01*
X217704844Y-97437022D01*
X217657225Y-97389403D01*
X219228653Y-97484641D02*
X218657225Y-97484641D01*
X218942939Y-97484641D02*
X218942939Y-96484641D01*
X218847701Y-96627499D01*
X218752463Y-96722737D01*
X218657225Y-96770356D01*
G04 #@! TO.C,R26*
X217323891Y-104596641D02*
X216990558Y-104120451D01*
X216752463Y-104596641D02*
X216752463Y-103596641D01*
X217133415Y-103596641D01*
X217228653Y-103644261D01*
X217276272Y-103691880D01*
X217323891Y-103787118D01*
X217323891Y-103929975D01*
X217276272Y-104025213D01*
X217228653Y-104072832D01*
X217133415Y-104120451D01*
X216752463Y-104120451D01*
X217704844Y-103691880D02*
X217752463Y-103644261D01*
X217847701Y-103596641D01*
X218085796Y-103596641D01*
X218181034Y-103644261D01*
X218228653Y-103691880D01*
X218276272Y-103787118D01*
X218276272Y-103882356D01*
X218228653Y-104025213D01*
X217657225Y-104596641D01*
X218276272Y-104596641D01*
X219133415Y-103596641D02*
X218942939Y-103596641D01*
X218847701Y-103644261D01*
X218800082Y-103691880D01*
X218704844Y-103834737D01*
X218657225Y-104025213D01*
X218657225Y-104406165D01*
X218704844Y-104501403D01*
X218752463Y-104549022D01*
X218847701Y-104596641D01*
X219038177Y-104596641D01*
X219133415Y-104549022D01*
X219181034Y-104501403D01*
X219228653Y-104406165D01*
X219228653Y-104168070D01*
X219181034Y-104072832D01*
X219133415Y-104025213D01*
X219038177Y-103977594D01*
X218847701Y-103977594D01*
X218752463Y-104025213D01*
X218704844Y-104072832D01*
X218657225Y-104168070D01*
G04 #@! TO.C,R17*
X230049540Y-91298118D02*
X229573350Y-91631451D01*
X230049540Y-91869546D02*
X229049540Y-91869546D01*
X229049540Y-91488594D01*
X229097160Y-91393356D01*
X229144779Y-91345737D01*
X229240017Y-91298118D01*
X229382874Y-91298118D01*
X229478112Y-91345737D01*
X229525731Y-91393356D01*
X229573350Y-91488594D01*
X229573350Y-91869546D01*
X230049540Y-90345737D02*
X230049540Y-90917165D01*
X230049540Y-90631451D02*
X229049540Y-90631451D01*
X229192398Y-90726689D01*
X229287636Y-90821927D01*
X229335255Y-90917165D01*
X229049540Y-90012403D02*
X229049540Y-89345737D01*
X230049540Y-89774308D01*
G04 #@! TO.C,R18*
X229095129Y-91321118D02*
X228618939Y-91654451D01*
X229095129Y-91892546D02*
X228095129Y-91892546D01*
X228095129Y-91511594D01*
X228142749Y-91416356D01*
X228190368Y-91368737D01*
X228285606Y-91321118D01*
X228428463Y-91321118D01*
X228523701Y-91368737D01*
X228571320Y-91416356D01*
X228618939Y-91511594D01*
X228618939Y-91892546D01*
X229095129Y-90368737D02*
X229095129Y-90940165D01*
X229095129Y-90654451D02*
X228095129Y-90654451D01*
X228237987Y-90749689D01*
X228333225Y-90844927D01*
X228380844Y-90940165D01*
X228523701Y-89797308D02*
X228476082Y-89892546D01*
X228428463Y-89940165D01*
X228333225Y-89987784D01*
X228285606Y-89987784D01*
X228190368Y-89940165D01*
X228142749Y-89892546D01*
X228095129Y-89797308D01*
X228095129Y-89606832D01*
X228142749Y-89511594D01*
X228190368Y-89463975D01*
X228285606Y-89416356D01*
X228333225Y-89416356D01*
X228428463Y-89463975D01*
X228476082Y-89511594D01*
X228523701Y-89606832D01*
X228523701Y-89797308D01*
X228571320Y-89892546D01*
X228618939Y-89940165D01*
X228714177Y-89987784D01*
X228904653Y-89987784D01*
X228999891Y-89940165D01*
X229047510Y-89892546D01*
X229095129Y-89797308D01*
X229095129Y-89606832D01*
X229047510Y-89511594D01*
X228999891Y-89463975D01*
X228904653Y-89416356D01*
X228714177Y-89416356D01*
X228618939Y-89463975D01*
X228571320Y-89511594D01*
X228523701Y-89606832D01*
G04 #@! TO.C,R24*
X217831891Y-99516641D02*
X217498558Y-99040451D01*
X217260463Y-99516641D02*
X217260463Y-98516641D01*
X217641415Y-98516641D01*
X217736653Y-98564261D01*
X217784272Y-98611880D01*
X217831891Y-98707118D01*
X217831891Y-98849975D01*
X217784272Y-98945213D01*
X217736653Y-98992832D01*
X217641415Y-99040451D01*
X217260463Y-99040451D01*
X218212844Y-98611880D02*
X218260463Y-98564261D01*
X218355701Y-98516641D01*
X218593796Y-98516641D01*
X218689034Y-98564261D01*
X218736653Y-98611880D01*
X218784272Y-98707118D01*
X218784272Y-98802356D01*
X218736653Y-98945213D01*
X218165225Y-99516641D01*
X218784272Y-99516641D01*
X219641415Y-98849975D02*
X219641415Y-99516641D01*
X219403320Y-98469022D02*
X219165225Y-99183308D01*
X219784272Y-99183308D01*
G04 #@! TO.C,R34*
X222580302Y-105394538D02*
X222246969Y-104918348D01*
X222008874Y-105394538D02*
X222008874Y-104394538D01*
X222389826Y-104394538D01*
X222485064Y-104442158D01*
X222532683Y-104489777D01*
X222580302Y-104585015D01*
X222580302Y-104727872D01*
X222532683Y-104823110D01*
X222485064Y-104870729D01*
X222389826Y-104918348D01*
X222008874Y-104918348D01*
X222913636Y-104394538D02*
X223532683Y-104394538D01*
X223199350Y-104775491D01*
X223342207Y-104775491D01*
X223437445Y-104823110D01*
X223485064Y-104870729D01*
X223532683Y-104965967D01*
X223532683Y-105204062D01*
X223485064Y-105299300D01*
X223437445Y-105346919D01*
X223342207Y-105394538D01*
X223056493Y-105394538D01*
X222961255Y-105346919D01*
X222913636Y-105299300D01*
X224389826Y-104727872D02*
X224389826Y-105394538D01*
X224151731Y-104346919D02*
X223913636Y-105061205D01*
X224532683Y-105061205D01*
G04 #@! TO.C,R25*
X217831891Y-98500641D02*
X217498558Y-98024451D01*
X217260463Y-98500641D02*
X217260463Y-97500641D01*
X217641415Y-97500641D01*
X217736653Y-97548261D01*
X217784272Y-97595880D01*
X217831891Y-97691118D01*
X217831891Y-97833975D01*
X217784272Y-97929213D01*
X217736653Y-97976832D01*
X217641415Y-98024451D01*
X217260463Y-98024451D01*
X218212844Y-97595880D02*
X218260463Y-97548261D01*
X218355701Y-97500641D01*
X218593796Y-97500641D01*
X218689034Y-97548261D01*
X218736653Y-97595880D01*
X218784272Y-97691118D01*
X218784272Y-97786356D01*
X218736653Y-97929213D01*
X218165225Y-98500641D01*
X218784272Y-98500641D01*
X219689034Y-97500641D02*
X219212844Y-97500641D01*
X219165225Y-97976832D01*
X219212844Y-97929213D01*
X219308082Y-97881594D01*
X219546177Y-97881594D01*
X219641415Y-97929213D01*
X219689034Y-97976832D01*
X219736653Y-98072070D01*
X219736653Y-98310165D01*
X219689034Y-98405403D01*
X219641415Y-98453022D01*
X219546177Y-98500641D01*
X219308082Y-98500641D01*
X219212844Y-98453022D01*
X219165225Y-98405403D01*
G04 #@! TO.C,R23*
X217831891Y-102564641D02*
X217498558Y-102088451D01*
X217260463Y-102564641D02*
X217260463Y-101564641D01*
X217641415Y-101564641D01*
X217736653Y-101612261D01*
X217784272Y-101659880D01*
X217831891Y-101755118D01*
X217831891Y-101897975D01*
X217784272Y-101993213D01*
X217736653Y-102040832D01*
X217641415Y-102088451D01*
X217260463Y-102088451D01*
X218212844Y-101659880D02*
X218260463Y-101612261D01*
X218355701Y-101564641D01*
X218593796Y-101564641D01*
X218689034Y-101612261D01*
X218736653Y-101659880D01*
X218784272Y-101755118D01*
X218784272Y-101850356D01*
X218736653Y-101993213D01*
X218165225Y-102564641D01*
X218784272Y-102564641D01*
X219117606Y-101564641D02*
X219736653Y-101564641D01*
X219403320Y-101945594D01*
X219546177Y-101945594D01*
X219641415Y-101993213D01*
X219689034Y-102040832D01*
X219736653Y-102136070D01*
X219736653Y-102374165D01*
X219689034Y-102469403D01*
X219641415Y-102517022D01*
X219546177Y-102564641D01*
X219260463Y-102564641D01*
X219165225Y-102517022D01*
X219117606Y-102469403D01*
G04 #@! TO.C,R20*
X224969540Y-91231015D02*
X224493350Y-91564348D01*
X224969540Y-91802443D02*
X223969540Y-91802443D01*
X223969540Y-91421491D01*
X224017160Y-91326253D01*
X224064779Y-91278634D01*
X224160017Y-91231015D01*
X224302874Y-91231015D01*
X224398112Y-91278634D01*
X224445731Y-91326253D01*
X224493350Y-91421491D01*
X224493350Y-91802443D01*
X224064779Y-90850062D02*
X224017160Y-90802443D01*
X223969540Y-90707205D01*
X223969540Y-90469110D01*
X224017160Y-90373872D01*
X224064779Y-90326253D01*
X224160017Y-90278634D01*
X224255255Y-90278634D01*
X224398112Y-90326253D01*
X224969540Y-90897681D01*
X224969540Y-90278634D01*
X223969540Y-89659586D02*
X223969540Y-89564348D01*
X224017160Y-89469110D01*
X224064779Y-89421491D01*
X224160017Y-89373872D01*
X224350493Y-89326253D01*
X224588588Y-89326253D01*
X224779064Y-89373872D01*
X224874302Y-89421491D01*
X224921921Y-89469110D01*
X224969540Y-89564348D01*
X224969540Y-89659586D01*
X224921921Y-89754824D01*
X224874302Y-89802443D01*
X224779064Y-89850062D01*
X224588588Y-89897681D01*
X224350493Y-89897681D01*
X224160017Y-89850062D01*
X224064779Y-89802443D01*
X224017160Y-89754824D01*
X223969540Y-89659586D01*
G04 #@! TO.C,R22*
X217831891Y-103580641D02*
X217498558Y-103104451D01*
X217260463Y-103580641D02*
X217260463Y-102580641D01*
X217641415Y-102580641D01*
X217736653Y-102628261D01*
X217784272Y-102675880D01*
X217831891Y-102771118D01*
X217831891Y-102913975D01*
X217784272Y-103009213D01*
X217736653Y-103056832D01*
X217641415Y-103104451D01*
X217260463Y-103104451D01*
X218212844Y-102675880D02*
X218260463Y-102628261D01*
X218355701Y-102580641D01*
X218593796Y-102580641D01*
X218689034Y-102628261D01*
X218736653Y-102675880D01*
X218784272Y-102771118D01*
X218784272Y-102866356D01*
X218736653Y-103009213D01*
X218165225Y-103580641D01*
X218784272Y-103580641D01*
X219165225Y-102675880D02*
X219212844Y-102628261D01*
X219308082Y-102580641D01*
X219546177Y-102580641D01*
X219641415Y-102628261D01*
X219689034Y-102675880D01*
X219736653Y-102771118D01*
X219736653Y-102866356D01*
X219689034Y-103009213D01*
X219117606Y-103580641D01*
X219736653Y-103580641D01*
G04 #@! TO.C,R19*
X225985540Y-91321118D02*
X225509350Y-91654451D01*
X225985540Y-91892546D02*
X224985540Y-91892546D01*
X224985540Y-91511594D01*
X225033160Y-91416356D01*
X225080779Y-91368737D01*
X225176017Y-91321118D01*
X225318874Y-91321118D01*
X225414112Y-91368737D01*
X225461731Y-91416356D01*
X225509350Y-91511594D01*
X225509350Y-91892546D01*
X225985540Y-90368737D02*
X225985540Y-90940165D01*
X225985540Y-90654451D02*
X224985540Y-90654451D01*
X225128398Y-90749689D01*
X225223636Y-90844927D01*
X225271255Y-90940165D01*
X225985540Y-89892546D02*
X225985540Y-89702070D01*
X225937921Y-89606832D01*
X225890302Y-89559213D01*
X225747445Y-89463975D01*
X225556969Y-89416356D01*
X225176017Y-89416356D01*
X225080779Y-89463975D01*
X225033160Y-89511594D01*
X224985540Y-89606832D01*
X224985540Y-89797308D01*
X225033160Y-89892546D01*
X225080779Y-89940165D01*
X225176017Y-89987784D01*
X225414112Y-89987784D01*
X225509350Y-89940165D01*
X225556969Y-89892546D01*
X225604588Y-89797308D01*
X225604588Y-89606832D01*
X225556969Y-89511594D01*
X225509350Y-89463975D01*
X225414112Y-89416356D01*
G04 #@! TO.C,R13*
X236008942Y-102166680D02*
X235675609Y-101690490D01*
X235437514Y-102166680D02*
X235437514Y-101166680D01*
X235818466Y-101166680D01*
X235913704Y-101214300D01*
X235961323Y-101261919D01*
X236008942Y-101357157D01*
X236008942Y-101500014D01*
X235961323Y-101595252D01*
X235913704Y-101642871D01*
X235818466Y-101690490D01*
X235437514Y-101690490D01*
X236961323Y-102166680D02*
X236389895Y-102166680D01*
X236675609Y-102166680D02*
X236675609Y-101166680D01*
X236580371Y-101309538D01*
X236485133Y-101404776D01*
X236389895Y-101452395D01*
X237294657Y-101166680D02*
X237913704Y-101166680D01*
X237580371Y-101547633D01*
X237723228Y-101547633D01*
X237818466Y-101595252D01*
X237866085Y-101642871D01*
X237913704Y-101738109D01*
X237913704Y-101976204D01*
X237866085Y-102071442D01*
X237818466Y-102119061D01*
X237723228Y-102166680D01*
X237437514Y-102166680D01*
X237342276Y-102119061D01*
X237294657Y-102071442D01*
G04 #@! TO.C,C52*
X221900892Y-115267119D02*
X221948511Y-115314738D01*
X221996130Y-115457595D01*
X221996130Y-115552833D01*
X221948511Y-115695690D01*
X221853273Y-115790928D01*
X221758035Y-115838547D01*
X221567559Y-115886166D01*
X221424702Y-115886166D01*
X221234226Y-115838547D01*
X221138988Y-115790928D01*
X221043750Y-115695690D01*
X220996130Y-115552833D01*
X220996130Y-115457595D01*
X221043750Y-115314738D01*
X221091369Y-115267119D01*
X220996130Y-114362357D02*
X220996130Y-114838547D01*
X221472321Y-114886166D01*
X221424702Y-114838547D01*
X221377083Y-114743309D01*
X221377083Y-114505214D01*
X221424702Y-114409976D01*
X221472321Y-114362357D01*
X221567559Y-114314738D01*
X221805654Y-114314738D01*
X221900892Y-114362357D01*
X221948511Y-114409976D01*
X221996130Y-114505214D01*
X221996130Y-114743309D01*
X221948511Y-114838547D01*
X221900892Y-114886166D01*
X221091369Y-113933785D02*
X221043750Y-113886166D01*
X220996130Y-113790928D01*
X220996130Y-113552833D01*
X221043750Y-113457595D01*
X221091369Y-113409976D01*
X221186607Y-113362357D01*
X221281845Y-113362357D01*
X221424702Y-113409976D01*
X221996130Y-113981404D01*
X221996130Y-113362357D01*
G04 #@! TO.C,C3*
X230582742Y-61621966D02*
X230630361Y-61669585D01*
X230677980Y-61812442D01*
X230677980Y-61907680D01*
X230630361Y-62050538D01*
X230535123Y-62145776D01*
X230439885Y-62193395D01*
X230249409Y-62241014D01*
X230106552Y-62241014D01*
X229916076Y-62193395D01*
X229820838Y-62145776D01*
X229725600Y-62050538D01*
X229677980Y-61907680D01*
X229677980Y-61812442D01*
X229725600Y-61669585D01*
X229773219Y-61621966D01*
X229677980Y-61288633D02*
X229677980Y-60669585D01*
X230058933Y-61002919D01*
X230058933Y-60860061D01*
X230106552Y-60764823D01*
X230154171Y-60717204D01*
X230249409Y-60669585D01*
X230487504Y-60669585D01*
X230582742Y-60717204D01*
X230630361Y-60764823D01*
X230677980Y-60860061D01*
X230677980Y-61145776D01*
X230630361Y-61241014D01*
X230582742Y-61288633D01*
G04 #@! TO.C,C25*
X209068942Y-71305657D02*
X209116561Y-71353276D01*
X209164180Y-71496133D01*
X209164180Y-71591371D01*
X209116561Y-71734228D01*
X209021323Y-71829466D01*
X208926085Y-71877085D01*
X208735609Y-71924704D01*
X208592752Y-71924704D01*
X208402276Y-71877085D01*
X208307038Y-71829466D01*
X208211800Y-71734228D01*
X208164180Y-71591371D01*
X208164180Y-71496133D01*
X208211800Y-71353276D01*
X208259419Y-71305657D01*
X208259419Y-70924704D02*
X208211800Y-70877085D01*
X208164180Y-70781847D01*
X208164180Y-70543752D01*
X208211800Y-70448514D01*
X208259419Y-70400895D01*
X208354657Y-70353276D01*
X208449895Y-70353276D01*
X208592752Y-70400895D01*
X209164180Y-70972323D01*
X209164180Y-70353276D01*
X208164180Y-69448514D02*
X208164180Y-69924704D01*
X208640371Y-69972323D01*
X208592752Y-69924704D01*
X208545133Y-69829466D01*
X208545133Y-69591371D01*
X208592752Y-69496133D01*
X208640371Y-69448514D01*
X208735609Y-69400895D01*
X208973704Y-69400895D01*
X209068942Y-69448514D01*
X209116561Y-69496133D01*
X209164180Y-69591371D01*
X209164180Y-69829466D01*
X209116561Y-69924704D01*
X209068942Y-69972323D01*
G04 #@! TO.C,C30*
X222911942Y-72956657D02*
X222959561Y-73004276D01*
X223007180Y-73147133D01*
X223007180Y-73242371D01*
X222959561Y-73385228D01*
X222864323Y-73480466D01*
X222769085Y-73528085D01*
X222578609Y-73575704D01*
X222435752Y-73575704D01*
X222245276Y-73528085D01*
X222150038Y-73480466D01*
X222054800Y-73385228D01*
X222007180Y-73242371D01*
X222007180Y-73147133D01*
X222054800Y-73004276D01*
X222102419Y-72956657D01*
X222007180Y-72623323D02*
X222007180Y-72004276D01*
X222388133Y-72337609D01*
X222388133Y-72194752D01*
X222435752Y-72099514D01*
X222483371Y-72051895D01*
X222578609Y-72004276D01*
X222816704Y-72004276D01*
X222911942Y-72051895D01*
X222959561Y-72099514D01*
X223007180Y-72194752D01*
X223007180Y-72480466D01*
X222959561Y-72575704D01*
X222911942Y-72623323D01*
X222007180Y-71385228D02*
X222007180Y-71289990D01*
X222054800Y-71194752D01*
X222102419Y-71147133D01*
X222197657Y-71099514D01*
X222388133Y-71051895D01*
X222626228Y-71051895D01*
X222816704Y-71099514D01*
X222911942Y-71147133D01*
X222959561Y-71194752D01*
X223007180Y-71289990D01*
X223007180Y-71385228D01*
X222959561Y-71480466D01*
X222911942Y-71528085D01*
X222816704Y-71575704D01*
X222626228Y-71623323D01*
X222388133Y-71623323D01*
X222197657Y-71575704D01*
X222102419Y-71528085D01*
X222054800Y-71480466D01*
X222007180Y-71385228D01*
G04 #@! TO.C,C31*
X206113142Y-105725142D02*
X206065523Y-105772761D01*
X205922666Y-105820380D01*
X205827428Y-105820380D01*
X205684571Y-105772761D01*
X205589333Y-105677523D01*
X205541714Y-105582285D01*
X205494095Y-105391809D01*
X205494095Y-105248952D01*
X205541714Y-105058476D01*
X205589333Y-104963238D01*
X205684571Y-104868000D01*
X205827428Y-104820380D01*
X205922666Y-104820380D01*
X206065523Y-104868000D01*
X206113142Y-104915619D01*
X206446476Y-104820380D02*
X207065523Y-104820380D01*
X206732190Y-105201333D01*
X206875047Y-105201333D01*
X206970285Y-105248952D01*
X207017904Y-105296571D01*
X207065523Y-105391809D01*
X207065523Y-105629904D01*
X207017904Y-105725142D01*
X206970285Y-105772761D01*
X206875047Y-105820380D01*
X206589333Y-105820380D01*
X206494095Y-105772761D01*
X206446476Y-105725142D01*
X208017904Y-105820380D02*
X207446476Y-105820380D01*
X207732190Y-105820380D02*
X207732190Y-104820380D01*
X207636952Y-104963238D01*
X207541714Y-105058476D01*
X207446476Y-105106095D01*
G04 #@! TO.C,C33*
X221718142Y-72842357D02*
X221765761Y-72889976D01*
X221813380Y-73032833D01*
X221813380Y-73128071D01*
X221765761Y-73270928D01*
X221670523Y-73366166D01*
X221575285Y-73413785D01*
X221384809Y-73461404D01*
X221241952Y-73461404D01*
X221051476Y-73413785D01*
X220956238Y-73366166D01*
X220861000Y-73270928D01*
X220813380Y-73128071D01*
X220813380Y-73032833D01*
X220861000Y-72889976D01*
X220908619Y-72842357D01*
X220813380Y-72509023D02*
X220813380Y-71889976D01*
X221194333Y-72223309D01*
X221194333Y-72080452D01*
X221241952Y-71985214D01*
X221289571Y-71937595D01*
X221384809Y-71889976D01*
X221622904Y-71889976D01*
X221718142Y-71937595D01*
X221765761Y-71985214D01*
X221813380Y-72080452D01*
X221813380Y-72366166D01*
X221765761Y-72461404D01*
X221718142Y-72509023D01*
X220813380Y-71556642D02*
X220813380Y-70937595D01*
X221194333Y-71270928D01*
X221194333Y-71128071D01*
X221241952Y-71032833D01*
X221289571Y-70985214D01*
X221384809Y-70937595D01*
X221622904Y-70937595D01*
X221718142Y-70985214D01*
X221765761Y-71032833D01*
X221813380Y-71128071D01*
X221813380Y-71413785D01*
X221765761Y-71509023D01*
X221718142Y-71556642D01*
G04 #@! TO.C,C34*
X238964742Y-76322157D02*
X239012361Y-76369776D01*
X239059980Y-76512633D01*
X239059980Y-76607871D01*
X239012361Y-76750728D01*
X238917123Y-76845966D01*
X238821885Y-76893585D01*
X238631409Y-76941204D01*
X238488552Y-76941204D01*
X238298076Y-76893585D01*
X238202838Y-76845966D01*
X238107600Y-76750728D01*
X238059980Y-76607871D01*
X238059980Y-76512633D01*
X238107600Y-76369776D01*
X238155219Y-76322157D01*
X238059980Y-75988823D02*
X238059980Y-75369776D01*
X238440933Y-75703109D01*
X238440933Y-75560252D01*
X238488552Y-75465014D01*
X238536171Y-75417395D01*
X238631409Y-75369776D01*
X238869504Y-75369776D01*
X238964742Y-75417395D01*
X239012361Y-75465014D01*
X239059980Y-75560252D01*
X239059980Y-75845966D01*
X239012361Y-75941204D01*
X238964742Y-75988823D01*
X238393314Y-74512633D02*
X239059980Y-74512633D01*
X238012361Y-74750728D02*
X238726647Y-74988823D01*
X238726647Y-74369776D01*
G04 #@! TO.C,C38*
X235323142Y-79338442D02*
X235275523Y-79386061D01*
X235132666Y-79433680D01*
X235037428Y-79433680D01*
X234894571Y-79386061D01*
X234799333Y-79290823D01*
X234751714Y-79195585D01*
X234704095Y-79005109D01*
X234704095Y-78862252D01*
X234751714Y-78671776D01*
X234799333Y-78576538D01*
X234894571Y-78481300D01*
X235037428Y-78433680D01*
X235132666Y-78433680D01*
X235275523Y-78481300D01*
X235323142Y-78528919D01*
X235656476Y-78433680D02*
X236275523Y-78433680D01*
X235942190Y-78814633D01*
X236085047Y-78814633D01*
X236180285Y-78862252D01*
X236227904Y-78909871D01*
X236275523Y-79005109D01*
X236275523Y-79243204D01*
X236227904Y-79338442D01*
X236180285Y-79386061D01*
X236085047Y-79433680D01*
X235799333Y-79433680D01*
X235704095Y-79386061D01*
X235656476Y-79338442D01*
X236846952Y-78862252D02*
X236751714Y-78814633D01*
X236704095Y-78767014D01*
X236656476Y-78671776D01*
X236656476Y-78624157D01*
X236704095Y-78528919D01*
X236751714Y-78481300D01*
X236846952Y-78433680D01*
X237037428Y-78433680D01*
X237132666Y-78481300D01*
X237180285Y-78528919D01*
X237227904Y-78624157D01*
X237227904Y-78671776D01*
X237180285Y-78767014D01*
X237132666Y-78814633D01*
X237037428Y-78862252D01*
X236846952Y-78862252D01*
X236751714Y-78909871D01*
X236704095Y-78957490D01*
X236656476Y-79052728D01*
X236656476Y-79243204D01*
X236704095Y-79338442D01*
X236751714Y-79386061D01*
X236846952Y-79433680D01*
X237037428Y-79433680D01*
X237132666Y-79386061D01*
X237180285Y-79338442D01*
X237227904Y-79243204D01*
X237227904Y-79052728D01*
X237180285Y-78957490D01*
X237132666Y-78909871D01*
X237037428Y-78862252D01*
G04 #@! TO.C,C44*
X235319842Y-76220557D02*
X235367461Y-76268176D01*
X235415080Y-76411033D01*
X235415080Y-76506271D01*
X235367461Y-76649128D01*
X235272223Y-76744366D01*
X235176985Y-76791985D01*
X234986509Y-76839604D01*
X234843652Y-76839604D01*
X234653176Y-76791985D01*
X234557938Y-76744366D01*
X234462700Y-76649128D01*
X234415080Y-76506271D01*
X234415080Y-76411033D01*
X234462700Y-76268176D01*
X234510319Y-76220557D01*
X234748414Y-75363414D02*
X235415080Y-75363414D01*
X234367461Y-75601509D02*
X235081747Y-75839604D01*
X235081747Y-75220557D01*
X234748414Y-74411033D02*
X235415080Y-74411033D01*
X234367461Y-74649128D02*
X235081747Y-74887223D01*
X235081747Y-74268176D01*
G04 #@! TO.C,C45*
X240209342Y-76309457D02*
X240256961Y-76357076D01*
X240304580Y-76499933D01*
X240304580Y-76595171D01*
X240256961Y-76738028D01*
X240161723Y-76833266D01*
X240066485Y-76880885D01*
X239876009Y-76928504D01*
X239733152Y-76928504D01*
X239542676Y-76880885D01*
X239447438Y-76833266D01*
X239352200Y-76738028D01*
X239304580Y-76595171D01*
X239304580Y-76499933D01*
X239352200Y-76357076D01*
X239399819Y-76309457D01*
X239637914Y-75452314D02*
X240304580Y-75452314D01*
X239256961Y-75690409D02*
X239971247Y-75928504D01*
X239971247Y-75309457D01*
X239304580Y-74452314D02*
X239304580Y-74928504D01*
X239780771Y-74976123D01*
X239733152Y-74928504D01*
X239685533Y-74833266D01*
X239685533Y-74595171D01*
X239733152Y-74499933D01*
X239780771Y-74452314D01*
X239876009Y-74404695D01*
X240114104Y-74404695D01*
X240209342Y-74452314D01*
X240256961Y-74499933D01*
X240304580Y-74595171D01*
X240304580Y-74833266D01*
X240256961Y-74928504D01*
X240209342Y-74976123D01*
G04 #@! TO.C,C46*
X236545266Y-76274819D02*
X236592885Y-76322438D01*
X236640504Y-76465295D01*
X236640504Y-76560533D01*
X236592885Y-76703390D01*
X236497647Y-76798628D01*
X236402409Y-76846247D01*
X236211933Y-76893866D01*
X236069076Y-76893866D01*
X235878600Y-76846247D01*
X235783362Y-76798628D01*
X235688124Y-76703390D01*
X235640504Y-76560533D01*
X235640504Y-76465295D01*
X235688124Y-76322438D01*
X235735743Y-76274819D01*
X235973838Y-75417676D02*
X236640504Y-75417676D01*
X235592885Y-75655771D02*
X236307171Y-75893866D01*
X236307171Y-75274819D01*
X235640504Y-74465295D02*
X235640504Y-74655771D01*
X235688124Y-74751009D01*
X235735743Y-74798628D01*
X235878600Y-74893866D01*
X236069076Y-74941485D01*
X236450028Y-74941485D01*
X236545266Y-74893866D01*
X236592885Y-74846247D01*
X236640504Y-74751009D01*
X236640504Y-74560533D01*
X236592885Y-74465295D01*
X236545266Y-74417676D01*
X236450028Y-74370057D01*
X236211933Y-74370057D01*
X236116695Y-74417676D01*
X236069076Y-74465295D01*
X236021457Y-74560533D01*
X236021457Y-74751009D01*
X236069076Y-74846247D01*
X236116695Y-74893866D01*
X236211933Y-74941485D01*
G04 #@! TO.C,C49*
X237770942Y-76296757D02*
X237818561Y-76344376D01*
X237866180Y-76487233D01*
X237866180Y-76582471D01*
X237818561Y-76725328D01*
X237723323Y-76820566D01*
X237628085Y-76868185D01*
X237437609Y-76915804D01*
X237294752Y-76915804D01*
X237104276Y-76868185D01*
X237009038Y-76820566D01*
X236913800Y-76725328D01*
X236866180Y-76582471D01*
X236866180Y-76487233D01*
X236913800Y-76344376D01*
X236961419Y-76296757D01*
X237199514Y-75439614D02*
X237866180Y-75439614D01*
X236818561Y-75677709D02*
X237532847Y-75915804D01*
X237532847Y-75296757D01*
X237866180Y-74868185D02*
X237866180Y-74677709D01*
X237818561Y-74582471D01*
X237770942Y-74534852D01*
X237628085Y-74439614D01*
X237437609Y-74391995D01*
X237056657Y-74391995D01*
X236961419Y-74439614D01*
X236913800Y-74487233D01*
X236866180Y-74582471D01*
X236866180Y-74772947D01*
X236913800Y-74868185D01*
X236961419Y-74915804D01*
X237056657Y-74963423D01*
X237294752Y-74963423D01*
X237389990Y-74915804D01*
X237437609Y-74868185D01*
X237485228Y-74772947D01*
X237485228Y-74582471D01*
X237437609Y-74487233D01*
X237389990Y-74439614D01*
X237294752Y-74391995D01*
G04 #@! TO.C,L1*
X179360533Y-147303980D02*
X178884342Y-147303980D01*
X178884342Y-146303980D01*
X180217676Y-147303980D02*
X179646247Y-147303980D01*
X179931961Y-147303980D02*
X179931961Y-146303980D01*
X179836723Y-146446838D01*
X179741485Y-146542076D01*
X179646247Y-146589695D01*
G04 #@! TO.C,L2*
X194481493Y-128320538D02*
X194005302Y-128320538D01*
X194005302Y-127320538D01*
X194767207Y-127415777D02*
X194814826Y-127368158D01*
X194910064Y-127320538D01*
X195148160Y-127320538D01*
X195243398Y-127368158D01*
X195291017Y-127415777D01*
X195338636Y-127511015D01*
X195338636Y-127606253D01*
X195291017Y-127749110D01*
X194719588Y-128320538D01*
X195338636Y-128320538D01*
G04 #@! TO.C,R7*
X225142380Y-65675666D02*
X224666190Y-66009000D01*
X225142380Y-66247095D02*
X224142380Y-66247095D01*
X224142380Y-65866142D01*
X224190000Y-65770904D01*
X224237619Y-65723285D01*
X224332857Y-65675666D01*
X224475714Y-65675666D01*
X224570952Y-65723285D01*
X224618571Y-65770904D01*
X224666190Y-65866142D01*
X224666190Y-66247095D01*
X224142380Y-65342333D02*
X224142380Y-64675666D01*
X225142380Y-65104238D01*
G04 #@! TO.C,R8*
X225142380Y-67730666D02*
X224666190Y-68064000D01*
X225142380Y-68302095D02*
X224142380Y-68302095D01*
X224142380Y-67921142D01*
X224190000Y-67825904D01*
X224237619Y-67778285D01*
X224332857Y-67730666D01*
X224475714Y-67730666D01*
X224570952Y-67778285D01*
X224618571Y-67825904D01*
X224666190Y-67921142D01*
X224666190Y-68302095D01*
X224570952Y-67159238D02*
X224523333Y-67254476D01*
X224475714Y-67302095D01*
X224380476Y-67349714D01*
X224332857Y-67349714D01*
X224237619Y-67302095D01*
X224190000Y-67254476D01*
X224142380Y-67159238D01*
X224142380Y-66968761D01*
X224190000Y-66873523D01*
X224237619Y-66825904D01*
X224332857Y-66778285D01*
X224380476Y-66778285D01*
X224475714Y-66825904D01*
X224523333Y-66873523D01*
X224570952Y-66968761D01*
X224570952Y-67159238D01*
X224618571Y-67254476D01*
X224666190Y-67302095D01*
X224761428Y-67349714D01*
X224951904Y-67349714D01*
X225047142Y-67302095D01*
X225094761Y-67254476D01*
X225142380Y-67159238D01*
X225142380Y-66968761D01*
X225094761Y-66873523D01*
X225047142Y-66825904D01*
X224951904Y-66778285D01*
X224761428Y-66778285D01*
X224666190Y-66825904D01*
X224618571Y-66873523D01*
X224570952Y-66968761D01*
G04 #@! TD*
M02*
