G04 #@! TF.GenerationSoftware,KiCad,Pcbnew,(5.0.2)-1*
G04 #@! TF.CreationDate,2019-03-16T14:06:54-07:00*
G04 #@! TF.ProjectId,ModularMatrix,4d6f6475-6c61-4724-9d61-747269782e6b,rev?*
G04 #@! TF.SameCoordinates,Original*
G04 #@! TF.FileFunction,Legend,Bot*
G04 #@! TF.FilePolarity,Positive*
%FSLAX46Y46*%
G04 Gerber Fmt 4.6, Leading zero omitted, Abs format (unit mm)*
G04 Created by KiCad (PCBNEW (5.0.2)-1) date 3/16/2019 2:06:54 PM*
%MOMM*%
%LPD*%
G01*
G04 APERTURE LIST*
%ADD10C,0.300000*%
%ADD11C,0.100000*%
%ADD12C,0.120000*%
%ADD13C,0.150000*%
G04 APERTURE END LIST*
D10*
X177350028Y-151803300D02*
X178850028Y-151803300D01*
X178850028Y-151231871D01*
X178778600Y-151089014D01*
X178707171Y-151017585D01*
X178564314Y-150946157D01*
X178350028Y-150946157D01*
X178207171Y-151017585D01*
X178135742Y-151089014D01*
X178064314Y-151231871D01*
X178064314Y-151803300D01*
X178850028Y-150017585D02*
X178850028Y-149731871D01*
X178778600Y-149589014D01*
X178635742Y-149446157D01*
X178350028Y-149374728D01*
X177850028Y-149374728D01*
X177564314Y-149446157D01*
X177421457Y-149589014D01*
X177350028Y-149731871D01*
X177350028Y-150017585D01*
X177421457Y-150160442D01*
X177564314Y-150303300D01*
X177850028Y-150374728D01*
X178350028Y-150374728D01*
X178635742Y-150303300D01*
X178778600Y-150160442D01*
X178850028Y-150017585D01*
X178850028Y-148874728D02*
X177350028Y-148517585D01*
X178421457Y-148231871D01*
X177350028Y-147946157D01*
X178850028Y-147589014D01*
X178135742Y-147017585D02*
X178135742Y-146517585D01*
X177350028Y-146303300D02*
X177350028Y-147017585D01*
X178850028Y-147017585D01*
X178850028Y-146303300D01*
X177350028Y-144803300D02*
X178064314Y-145303300D01*
X177350028Y-145660442D02*
X178850028Y-145660442D01*
X178850028Y-145089014D01*
X178778600Y-144946157D01*
X178707171Y-144874728D01*
X178564314Y-144803300D01*
X178350028Y-144803300D01*
X178207171Y-144874728D01*
X178135742Y-144946157D01*
X178064314Y-145089014D01*
X178064314Y-145660442D01*
X177207171Y-144517585D02*
X177207171Y-143374728D01*
X178707171Y-143089014D02*
X178778600Y-143017585D01*
X178850028Y-142874728D01*
X178850028Y-142517585D01*
X178778600Y-142374728D01*
X178707171Y-142303300D01*
X178564314Y-142231871D01*
X178421457Y-142231871D01*
X178207171Y-142303300D01*
X177350028Y-143160442D01*
X177350028Y-142231871D01*
X199709728Y-154539071D02*
X200424014Y-154539071D01*
X200424014Y-153039071D01*
X198995442Y-154539071D02*
X199138300Y-154467642D01*
X199209728Y-154396214D01*
X199281157Y-154253357D01*
X199281157Y-153824785D01*
X199209728Y-153681928D01*
X199138300Y-153610500D01*
X198995442Y-153539071D01*
X198781157Y-153539071D01*
X198638300Y-153610500D01*
X198566871Y-153681928D01*
X198495442Y-153824785D01*
X198495442Y-154253357D01*
X198566871Y-154396214D01*
X198638300Y-154467642D01*
X198781157Y-154539071D01*
X198995442Y-154539071D01*
X197995442Y-153539071D02*
X197709728Y-154539071D01*
X197424014Y-153824785D01*
X197138300Y-154539071D01*
X196852585Y-153539071D01*
X195138300Y-154539071D02*
X195138300Y-153039071D01*
X194424014Y-154539071D02*
X194424014Y-153539071D01*
X194424014Y-153681928D02*
X194352585Y-153610500D01*
X194209728Y-153539071D01*
X193995442Y-153539071D01*
X193852585Y-153610500D01*
X193781157Y-153753357D01*
X193781157Y-154539071D01*
X193781157Y-153753357D02*
X193709728Y-153610500D01*
X193566871Y-153539071D01*
X193352585Y-153539071D01*
X193209728Y-153610500D01*
X193138300Y-153753357D01*
X193138300Y-154539071D01*
X192424014Y-153539071D02*
X192424014Y-155039071D01*
X192424014Y-153610500D02*
X192281157Y-153539071D01*
X191995442Y-153539071D01*
X191852585Y-153610500D01*
X191781157Y-153681928D01*
X191709728Y-153824785D01*
X191709728Y-154253357D01*
X191781157Y-154396214D01*
X191852585Y-154467642D01*
X191995442Y-154539071D01*
X192281157Y-154539071D01*
X192424014Y-154467642D01*
X190495442Y-154467642D02*
X190638300Y-154539071D01*
X190924014Y-154539071D01*
X191066871Y-154467642D01*
X191138300Y-154324785D01*
X191138300Y-153753357D01*
X191066871Y-153610500D01*
X190924014Y-153539071D01*
X190638300Y-153539071D01*
X190495442Y-153610500D01*
X190424014Y-153753357D01*
X190424014Y-153896214D01*
X191138300Y-154039071D01*
X189138300Y-154539071D02*
X189138300Y-153039071D01*
X189138300Y-154467642D02*
X189281157Y-154539071D01*
X189566871Y-154539071D01*
X189709728Y-154467642D01*
X189781157Y-154396214D01*
X189852585Y-154253357D01*
X189852585Y-153824785D01*
X189781157Y-153681928D01*
X189709728Y-153610500D01*
X189566871Y-153539071D01*
X189281157Y-153539071D01*
X189138300Y-153610500D01*
X187781157Y-154539071D02*
X187781157Y-153753357D01*
X187852585Y-153610500D01*
X187995442Y-153539071D01*
X188281157Y-153539071D01*
X188424014Y-153610500D01*
X187781157Y-154467642D02*
X187924014Y-154539071D01*
X188281157Y-154539071D01*
X188424014Y-154467642D01*
X188495442Y-154324785D01*
X188495442Y-154181928D01*
X188424014Y-154039071D01*
X188281157Y-153967642D01*
X187924014Y-153967642D01*
X187781157Y-153896214D01*
X187066871Y-153539071D02*
X187066871Y-154539071D01*
X187066871Y-153681928D02*
X186995442Y-153610500D01*
X186852585Y-153539071D01*
X186638300Y-153539071D01*
X186495442Y-153610500D01*
X186424014Y-153753357D01*
X186424014Y-154539071D01*
X185066871Y-154467642D02*
X185209728Y-154539071D01*
X185495442Y-154539071D01*
X185638300Y-154467642D01*
X185709728Y-154396214D01*
X185781157Y-154253357D01*
X185781157Y-153824785D01*
X185709728Y-153681928D01*
X185638300Y-153610500D01*
X185495442Y-153539071D01*
X185209728Y-153539071D01*
X185066871Y-153610500D01*
X183852585Y-154467642D02*
X183995442Y-154539071D01*
X184281157Y-154539071D01*
X184424014Y-154467642D01*
X184495442Y-154324785D01*
X184495442Y-153753357D01*
X184424014Y-153610500D01*
X184281157Y-153539071D01*
X183995442Y-153539071D01*
X183852585Y-153610500D01*
X183781157Y-153753357D01*
X183781157Y-153896214D01*
X184495442Y-154039071D01*
X237343071Y-143903500D02*
X235843071Y-143903500D01*
X235843071Y-144474928D01*
X235914500Y-144617785D01*
X235985928Y-144689214D01*
X236128785Y-144760642D01*
X236343071Y-144760642D01*
X236485928Y-144689214D01*
X236557357Y-144617785D01*
X236628785Y-144474928D01*
X236628785Y-143903500D01*
X235843071Y-145689214D02*
X235843071Y-145974928D01*
X235914500Y-146117785D01*
X236057357Y-146260642D01*
X236343071Y-146332071D01*
X236843071Y-146332071D01*
X237128785Y-146260642D01*
X237271642Y-146117785D01*
X237343071Y-145974928D01*
X237343071Y-145689214D01*
X237271642Y-145546357D01*
X237128785Y-145403500D01*
X236843071Y-145332071D01*
X236343071Y-145332071D01*
X236057357Y-145403500D01*
X235914500Y-145546357D01*
X235843071Y-145689214D01*
X235843071Y-146832071D02*
X237343071Y-147189214D01*
X236271642Y-147474928D01*
X237343071Y-147760642D01*
X235843071Y-148117785D01*
X236557357Y-148689214D02*
X236557357Y-149189214D01*
X237343071Y-149403500D02*
X237343071Y-148689214D01*
X235843071Y-148689214D01*
X235843071Y-149403500D01*
X237343071Y-150903500D02*
X236628785Y-150403500D01*
X237343071Y-150046357D02*
X235843071Y-150046357D01*
X235843071Y-150617785D01*
X235914500Y-150760642D01*
X235985928Y-150832071D01*
X236128785Y-150903500D01*
X236343071Y-150903500D01*
X236485928Y-150832071D01*
X236557357Y-150760642D01*
X236628785Y-150617785D01*
X236628785Y-150046357D01*
X237485928Y-151189214D02*
X237485928Y-152332071D01*
X237343071Y-153474928D02*
X237343071Y-152617785D01*
X237343071Y-153046357D02*
X235843071Y-153046357D01*
X236057357Y-152903500D01*
X236200214Y-152760642D01*
X236271642Y-152617785D01*
X227731017Y-154218158D02*
X227016731Y-154218158D01*
X227873874Y-154646729D02*
X227373874Y-153146729D01*
X226873874Y-154646729D01*
X226373874Y-154646729D02*
X226373874Y-153146729D01*
X225516731Y-154646729D01*
X225516731Y-153146729D01*
X224873874Y-154218158D02*
X224159588Y-154218158D01*
X225016731Y-154646729D02*
X224516731Y-153146729D01*
X224016731Y-154646729D01*
X222802445Y-154646729D02*
X223516731Y-154646729D01*
X223516731Y-153146729D01*
X222016731Y-153146729D02*
X221731017Y-153146729D01*
X221588160Y-153218158D01*
X221445302Y-153361015D01*
X221373874Y-153646729D01*
X221373874Y-154146729D01*
X221445302Y-154432443D01*
X221588160Y-154575300D01*
X221731017Y-154646729D01*
X222016731Y-154646729D01*
X222159588Y-154575300D01*
X222302445Y-154432443D01*
X222373874Y-154146729D01*
X222373874Y-153646729D01*
X222302445Y-153361015D01*
X222159588Y-153218158D01*
X222016731Y-153146729D01*
X219945302Y-153218158D02*
X220088160Y-153146729D01*
X220302445Y-153146729D01*
X220516731Y-153218158D01*
X220659588Y-153361015D01*
X220731017Y-153503872D01*
X220802445Y-153789586D01*
X220802445Y-154003872D01*
X220731017Y-154289586D01*
X220659588Y-154432443D01*
X220516731Y-154575300D01*
X220302445Y-154646729D01*
X220159588Y-154646729D01*
X219945302Y-154575300D01*
X219873874Y-154503872D01*
X219873874Y-154003872D01*
X220159588Y-154003872D01*
X218302445Y-153146729D02*
X217802445Y-154646729D01*
X217302445Y-153146729D01*
D11*
X217624152Y-86453438D02*
G75*
G03X217124152Y-85953438I-500000J0D01*
G01*
X220640789Y-96050905D02*
X220640789Y-111050905D01*
X218640789Y-111050905D02*
X218640789Y-96050905D01*
X218640789Y-111050905D02*
G75*
G03X220640789Y-111050905I1000000J0D01*
G01*
X236640789Y-115050905D02*
G75*
G03X239640789Y-112050905I0J3000000D01*
G01*
D12*
G04 #@! TO.C,J2*
X183531200Y-147811800D02*
X188731200Y-147811800D01*
X188731200Y-147811800D02*
X188731200Y-147241800D01*
X188731200Y-145721800D02*
X188731200Y-144701800D01*
X188731200Y-143181800D02*
X188731200Y-142161800D01*
X188731200Y-140641800D02*
X188731200Y-139621800D01*
X188731200Y-138101800D02*
X188731200Y-137081800D01*
X188731200Y-135561800D02*
X188731200Y-134541800D01*
X188731200Y-133021800D02*
X188731200Y-132001800D01*
X188731200Y-130481800D02*
X188731200Y-129461800D01*
X188731200Y-127941800D02*
X188731200Y-126921800D01*
X188731200Y-125401800D02*
X188731200Y-124381800D01*
X188731200Y-122861800D02*
X188731200Y-121841800D01*
X188731200Y-120321800D02*
X188731200Y-119301800D01*
X188731200Y-117781800D02*
X188731200Y-116761800D01*
X188731200Y-115241800D02*
X188731200Y-114221800D01*
X188731200Y-112701800D02*
X188731200Y-111681800D01*
X188731200Y-110161800D02*
X188731200Y-109141800D01*
X188731200Y-107621800D02*
X188731200Y-106601800D01*
X188731200Y-105081800D02*
X188731200Y-104061800D01*
X188731200Y-102541800D02*
X188731200Y-101521800D01*
X188731200Y-100001800D02*
X188731200Y-98981800D01*
X188731200Y-97461800D02*
X188731200Y-96891800D01*
X183531200Y-96891800D02*
X188731200Y-96891800D01*
X183531200Y-147811800D02*
X183531200Y-147241800D01*
X183531200Y-145721800D02*
X183531200Y-144701800D01*
X183531200Y-143181800D02*
X183531200Y-142161800D01*
X183531200Y-140641800D02*
X183531200Y-139621800D01*
X183531200Y-138101800D02*
X183531200Y-137081800D01*
X183531200Y-135561800D02*
X183531200Y-134541800D01*
X183531200Y-133021800D02*
X183531200Y-132001800D01*
X183531200Y-130481800D02*
X183531200Y-129461800D01*
X183531200Y-127941800D02*
X183531200Y-126921800D01*
X183531200Y-125401800D02*
X183531200Y-124381800D01*
X183531200Y-122861800D02*
X183531200Y-121841800D01*
X183531200Y-120321800D02*
X183531200Y-119301800D01*
X183531200Y-117781800D02*
X183531200Y-116761800D01*
X183531200Y-115241800D02*
X183531200Y-114221800D01*
X183531200Y-112701800D02*
X183531200Y-111681800D01*
X183531200Y-110161800D02*
X183531200Y-109141800D01*
X183531200Y-107621800D02*
X183531200Y-106601800D01*
X183531200Y-105081800D02*
X183531200Y-104061800D01*
X183531200Y-102541800D02*
X183531200Y-101521800D01*
X183531200Y-100001800D02*
X183531200Y-98981800D01*
X183531200Y-97461800D02*
X183531200Y-96891800D01*
X188731200Y-147241800D02*
X190091200Y-147241800D01*
D13*
G04 #@! TO.C,J4*
X251960300Y-92232000D02*
X255160300Y-92232000D01*
X248385300Y-92232000D02*
X249435300Y-92232000D01*
X246560300Y-90407000D02*
X246560300Y-91282000D01*
X246585300Y-85532000D02*
X246585300Y-86407000D01*
X249460300Y-84582000D02*
X248435300Y-84582000D01*
X255210300Y-84582000D02*
X252060300Y-84582000D01*
D12*
G04 #@! TO.C,J3*
X238666500Y-63947500D02*
X238666500Y-70007500D01*
X238666500Y-70007500D02*
X241476500Y-70007500D01*
X246076500Y-70007500D02*
X248886500Y-70007500D01*
X248886500Y-70007500D02*
X248886500Y-63947500D01*
X248886500Y-59847500D02*
X248886500Y-56787500D01*
X248886500Y-56787500D02*
X238666500Y-56787500D01*
X238666500Y-56787500D02*
X238666500Y-59847500D01*
X242776500Y-70197500D02*
X244776500Y-70197500D01*
G04 #@! TO.C,J6*
X164147500Y-135672100D02*
X164907500Y-135672100D01*
X164907500Y-135672100D02*
X164907500Y-134912100D01*
X158267500Y-135607100D02*
X158267500Y-94847100D01*
X158267500Y-94847100D02*
X162569970Y-94847100D01*
X158267500Y-135607100D02*
X162569970Y-135607100D01*
X158267500Y-96177100D02*
X162459918Y-96177100D01*
X158267500Y-97447100D02*
X162459918Y-97447100D01*
X158267500Y-98717100D02*
X162459918Y-98717100D01*
X158267500Y-99987100D02*
X162459918Y-99987100D01*
X158267500Y-101257100D02*
X162459918Y-101257100D01*
X158267500Y-102527100D02*
X162459918Y-102527100D01*
X158267500Y-103797100D02*
X162459918Y-103797100D01*
X158267500Y-105067100D02*
X162459918Y-105067100D01*
X158267500Y-106337100D02*
X162459918Y-106337100D01*
X158267500Y-107607100D02*
X162459918Y-107607100D01*
X158267500Y-108877100D02*
X162459918Y-108877100D01*
X158267500Y-110147100D02*
X162459918Y-110147100D01*
X158267500Y-111417100D02*
X162459918Y-111417100D01*
X158267500Y-112687100D02*
X162459918Y-112687100D01*
X158267500Y-113957100D02*
X162459918Y-113957100D01*
X158267500Y-115227100D02*
X162459918Y-115227100D01*
X158267500Y-116497100D02*
X162459918Y-116497100D01*
X158267500Y-117767100D02*
X162459918Y-117767100D01*
X158267500Y-119037100D02*
X162459918Y-119037100D01*
X158267500Y-120307100D02*
X162459918Y-120307100D01*
X158267500Y-121577100D02*
X162459918Y-121577100D01*
X158267500Y-122847100D02*
X162459918Y-122847100D01*
X158267500Y-124117100D02*
X162459918Y-124117100D01*
X158267500Y-125387100D02*
X162459918Y-125387100D01*
X158267500Y-126657100D02*
X162459918Y-126657100D01*
X158267500Y-127927100D02*
X162459918Y-127927100D01*
X158267500Y-129197100D02*
X162459918Y-129197100D01*
X158267500Y-130467100D02*
X162459918Y-130467100D01*
X158267500Y-131737100D02*
X162459918Y-131737100D01*
X158267500Y-133007100D02*
X162459918Y-133007100D01*
X158267500Y-134277100D02*
X162459918Y-134277100D01*
X158267500Y-134387100D02*
X162327977Y-134387100D01*
X158267500Y-134497100D02*
X162240809Y-134497100D01*
X158267500Y-134607100D02*
X162181386Y-134607100D01*
X158267500Y-134717100D02*
X162142942Y-134717100D01*
X158267500Y-134827100D02*
X162122268Y-134827100D01*
X158267500Y-134937100D02*
X162117911Y-134937100D01*
X158267500Y-135047100D02*
X162129586Y-135047100D01*
X158267500Y-135157100D02*
X162158073Y-135157100D01*
X158267500Y-135267100D02*
X162205507Y-135267100D01*
X158267500Y-135377100D02*
X162276355Y-135377100D01*
X158267500Y-135487100D02*
X162380534Y-135487100D01*
G04 #@! TO.C,J1*
X256895500Y-94992500D02*
X252782466Y-94992500D01*
X256895500Y-95102500D02*
X252886645Y-95102500D01*
X256895500Y-95212500D02*
X252957493Y-95212500D01*
X256895500Y-95322500D02*
X253004927Y-95322500D01*
X256895500Y-95432500D02*
X253033414Y-95432500D01*
X256895500Y-95542500D02*
X253045089Y-95542500D01*
X256895500Y-95652500D02*
X253040732Y-95652500D01*
X256895500Y-95762500D02*
X253020058Y-95762500D01*
X256895500Y-95872500D02*
X252981614Y-95872500D01*
X256895500Y-95982500D02*
X252922191Y-95982500D01*
X256895500Y-96092500D02*
X252835023Y-96092500D01*
X256895500Y-96202500D02*
X252703082Y-96202500D01*
X256895500Y-97472500D02*
X252703082Y-97472500D01*
X256895500Y-98742500D02*
X252703082Y-98742500D01*
X256895500Y-100012500D02*
X252703082Y-100012500D01*
X256895500Y-101282500D02*
X252703082Y-101282500D01*
X256895500Y-102552500D02*
X252703082Y-102552500D01*
X256895500Y-103822500D02*
X252703082Y-103822500D01*
X256895500Y-105092500D02*
X252703082Y-105092500D01*
X256895500Y-106362500D02*
X252703082Y-106362500D01*
X256895500Y-107632500D02*
X252703082Y-107632500D01*
X256895500Y-108902500D02*
X252703082Y-108902500D01*
X256895500Y-110172500D02*
X252703082Y-110172500D01*
X256895500Y-111442500D02*
X252703082Y-111442500D01*
X256895500Y-112712500D02*
X252703082Y-112712500D01*
X256895500Y-113982500D02*
X252703082Y-113982500D01*
X256895500Y-115252500D02*
X252703082Y-115252500D01*
X256895500Y-116522500D02*
X252703082Y-116522500D01*
X256895500Y-117792500D02*
X252703082Y-117792500D01*
X256895500Y-119062500D02*
X252703082Y-119062500D01*
X256895500Y-120332500D02*
X252703082Y-120332500D01*
X256895500Y-121602500D02*
X252703082Y-121602500D01*
X256895500Y-122872500D02*
X252703082Y-122872500D01*
X256895500Y-124142500D02*
X252703082Y-124142500D01*
X256895500Y-125412500D02*
X252703082Y-125412500D01*
X256895500Y-126682500D02*
X252703082Y-126682500D01*
X256895500Y-127952500D02*
X252703082Y-127952500D01*
X256895500Y-129222500D02*
X252703082Y-129222500D01*
X256895500Y-130492500D02*
X252703082Y-130492500D01*
X256895500Y-131762500D02*
X252703082Y-131762500D01*
X256895500Y-133032500D02*
X252703082Y-133032500D01*
X256895500Y-134302500D02*
X252703082Y-134302500D01*
X256895500Y-94872500D02*
X252593030Y-94872500D01*
X256895500Y-135632500D02*
X252593030Y-135632500D01*
X256895500Y-94872500D02*
X256895500Y-135632500D01*
X250255500Y-94807500D02*
X250255500Y-95567500D01*
X251015500Y-94807500D02*
X250255500Y-94807500D01*
G04 #@! TO.C,C11*
X224962065Y-77178225D02*
X225662065Y-77178225D01*
X225662065Y-75978225D02*
X224962065Y-75978225D01*
G04 #@! TO.C,C5*
X216201001Y-68556225D02*
X217405129Y-68556225D01*
X216201001Y-70376225D02*
X217405129Y-70376225D01*
G04 #@! TO.C,C26*
X228835129Y-84304225D02*
X227631001Y-84304225D01*
X228835129Y-86124225D02*
X227631001Y-86124225D01*
G04 #@! TO.C,C22*
X223682065Y-82326161D02*
X223682065Y-83530289D01*
X221862065Y-82326161D02*
X221862065Y-83530289D01*
G04 #@! TO.C,C50*
X231245160Y-97890094D02*
X231245160Y-99094222D01*
X229425160Y-97890094D02*
X229425160Y-99094222D01*
G04 #@! TO.C,L6*
X228603160Y-101332158D02*
X228603160Y-100732158D01*
X228003160Y-101332158D02*
X228003160Y-100732158D01*
G04 #@! TO.C,L7*
X227079160Y-100730261D02*
X227079160Y-101330261D01*
X226479160Y-100730261D02*
X226479160Y-101330261D01*
G04 #@! TO.C,C15*
X194439000Y-77044733D02*
X194439000Y-77387267D01*
X193419000Y-77044733D02*
X193419000Y-77387267D01*
G04 #@! TO.C,R12*
X170085936Y-81317000D02*
X171290064Y-81317000D01*
X170085936Y-84037000D02*
X171290064Y-84037000D01*
G04 #@! TO.C,C16*
X172699000Y-72992064D02*
X172699000Y-71787936D01*
X174519000Y-72992064D02*
X174519000Y-71787936D01*
G04 #@! TO.C,R4*
X175870157Y-75366516D02*
X175870157Y-74844012D01*
X177290157Y-75366516D02*
X177290157Y-74844012D01*
G04 #@! TO.C,C19*
X171725000Y-72992064D02*
X171725000Y-71787936D01*
X169905000Y-72992064D02*
X169905000Y-71787936D01*
G04 #@! TO.C,R11*
X170725000Y-78580064D02*
X170725000Y-77375936D01*
X173445000Y-78580064D02*
X173445000Y-77375936D01*
G04 #@! TO.C,D1*
X178952157Y-71311264D02*
X178952157Y-73311264D01*
X178952157Y-71311264D02*
X182152157Y-71311264D01*
X182152157Y-73311264D02*
X178952157Y-73311264D01*
G04 #@! TO.C,J8*
X213297372Y-165568338D02*
X232261012Y-165568338D01*
X213292292Y-155060358D02*
X232291492Y-155060358D01*
X232291492Y-155068158D02*
G75*
G02X232291492Y-165568158I0J-5250000D01*
G01*
X213291492Y-165568158D02*
G75*
G02X213291492Y-155068158I0J5250000D01*
G01*
G04 #@! TO.C,J7*
X238928160Y-141020000D02*
G75*
G02X249428160Y-141020000I5250000J0D01*
G01*
X249428160Y-160020000D02*
G75*
G02X238928160Y-160020000I-5250000J0D01*
G01*
X249435960Y-141020800D02*
X249435960Y-160020000D01*
X238927980Y-141025880D02*
X238927980Y-159989520D01*
G04 #@! TO.C,J9*
X182410706Y-165568338D02*
X201374346Y-165568338D01*
X182405626Y-155060358D02*
X201404826Y-155060358D01*
X201404826Y-155068158D02*
G75*
G02X201404826Y-165568158I0J-5250000D01*
G01*
X182404826Y-165568158D02*
G75*
G02X182404826Y-155068158I0J5250000D01*
G01*
G04 #@! TO.C,J10*
X165268160Y-140048158D02*
G75*
G02X175768160Y-140048158I5250000J0D01*
G01*
X175768160Y-159048158D02*
G75*
G02X165268160Y-159048158I-5250000J0D01*
G01*
X175775960Y-140048958D02*
X175775960Y-159048158D01*
X165267980Y-140054038D02*
X165267980Y-159017678D01*
G04 #@! TO.C,C4*
X198627500Y-76167064D02*
X198627500Y-74962936D01*
X195907500Y-76167064D02*
X195907500Y-74962936D01*
G04 #@! TO.C,L3*
X179755000Y-66800000D02*
X179755000Y-69800000D01*
X179755000Y-69800000D02*
X192355000Y-69800000D01*
X192355000Y-69800000D02*
X192355000Y-66800000D01*
X192355000Y-60200000D02*
X192355000Y-57200000D01*
X192355000Y-57200000D02*
X179755000Y-57200000D01*
X179755000Y-57200000D02*
X179755000Y-60200000D01*
D13*
G04 #@! TO.C,U2*
X190447157Y-73442264D02*
X190447157Y-73667264D01*
X187097157Y-73442264D02*
X187097157Y-73742264D01*
X187097157Y-78292264D02*
X187097157Y-77992264D01*
X190447157Y-78292264D02*
X190447157Y-77992264D01*
X190447157Y-73442264D02*
X187097157Y-73442264D01*
X190447157Y-78292264D02*
X187097157Y-78292264D01*
X190447157Y-73667264D02*
X191672157Y-73667264D01*
G04 #@! TO.C,J2*
X186464533Y-148704180D02*
X186464533Y-149418466D01*
X186512152Y-149561323D01*
X186607390Y-149656561D01*
X186750247Y-149704180D01*
X186845485Y-149704180D01*
X186035961Y-148799419D02*
X185988342Y-148751800D01*
X185893104Y-148704180D01*
X185655009Y-148704180D01*
X185559771Y-148751800D01*
X185512152Y-148799419D01*
X185464533Y-148894657D01*
X185464533Y-148989895D01*
X185512152Y-149132752D01*
X186083580Y-149704180D01*
X185464533Y-149704180D01*
G04 #@! TO.C,J4*
X251683633Y-82219380D02*
X251683633Y-82933666D01*
X251731252Y-83076523D01*
X251826490Y-83171761D01*
X251969347Y-83219380D01*
X252064585Y-83219380D01*
X250778871Y-82552714D02*
X250778871Y-83219380D01*
X251016966Y-82171761D02*
X251255061Y-82886047D01*
X250636014Y-82886047D01*
G04 #@! TO.C,J3*
X244109833Y-70649880D02*
X244109833Y-71364166D01*
X244157452Y-71507023D01*
X244252690Y-71602261D01*
X244395547Y-71649880D01*
X244490785Y-71649880D01*
X243728880Y-70649880D02*
X243109833Y-70649880D01*
X243443166Y-71030833D01*
X243300309Y-71030833D01*
X243205071Y-71078452D01*
X243157452Y-71126071D01*
X243109833Y-71221309D01*
X243109833Y-71459404D01*
X243157452Y-71554642D01*
X243205071Y-71602261D01*
X243300309Y-71649880D01*
X243586023Y-71649880D01*
X243681261Y-71602261D01*
X243728880Y-71554642D01*
G04 #@! TO.C,J6*
X161888333Y-136499480D02*
X161888333Y-137213766D01*
X161935952Y-137356623D01*
X162031190Y-137451861D01*
X162174047Y-137499480D01*
X162269285Y-137499480D01*
X160983571Y-136499480D02*
X161174047Y-136499480D01*
X161269285Y-136547100D01*
X161316904Y-136594719D01*
X161412142Y-136737576D01*
X161459761Y-136928052D01*
X161459761Y-137309004D01*
X161412142Y-137404242D01*
X161364523Y-137451861D01*
X161269285Y-137499480D01*
X161078809Y-137499480D01*
X160983571Y-137451861D01*
X160935952Y-137404242D01*
X160888333Y-137309004D01*
X160888333Y-137070909D01*
X160935952Y-136975671D01*
X160983571Y-136928052D01*
X161078809Y-136880433D01*
X161269285Y-136880433D01*
X161364523Y-136928052D01*
X161412142Y-136975671D01*
X161459761Y-137070909D01*
G04 #@! TO.C,J1*
X253941333Y-92884880D02*
X253941333Y-93599166D01*
X253988952Y-93742023D01*
X254084190Y-93837261D01*
X254227047Y-93884880D01*
X254322285Y-93884880D01*
X252941333Y-93884880D02*
X253512761Y-93884880D01*
X253227047Y-93884880D02*
X253227047Y-92884880D01*
X253322285Y-93027738D01*
X253417523Y-93122976D01*
X253512761Y-93170595D01*
G04 #@! TO.C,C10*
X181911461Y-76428732D02*
X181959080Y-76476351D01*
X182101937Y-76523970D01*
X182197175Y-76523970D01*
X182340032Y-76476351D01*
X182435270Y-76381113D01*
X182482889Y-76285875D01*
X182530508Y-76095399D01*
X182530508Y-75952542D01*
X182482889Y-75762066D01*
X182435270Y-75666828D01*
X182340032Y-75571590D01*
X182197175Y-75523970D01*
X182101937Y-75523970D01*
X181959080Y-75571590D01*
X181911461Y-75619209D01*
X180959080Y-76523970D02*
X181530508Y-76523970D01*
X181244794Y-76523970D02*
X181244794Y-75523970D01*
X181340032Y-75666828D01*
X181435270Y-75762066D01*
X181530508Y-75809685D01*
X180340032Y-75523970D02*
X180244794Y-75523970D01*
X180149556Y-75571590D01*
X180101937Y-75619209D01*
X180054318Y-75714447D01*
X180006699Y-75904923D01*
X180006699Y-76143018D01*
X180054318Y-76333494D01*
X180101937Y-76428732D01*
X180149556Y-76476351D01*
X180244794Y-76523970D01*
X180340032Y-76523970D01*
X180435270Y-76476351D01*
X180482889Y-76428732D01*
X180530508Y-76333494D01*
X180578127Y-76143018D01*
X180578127Y-75904923D01*
X180530508Y-75714447D01*
X180482889Y-75619209D01*
X180435270Y-75571590D01*
X180340032Y-75523970D01*
G04 #@! TO.C,R1*
X184099166Y-79092380D02*
X184432500Y-78616190D01*
X184670595Y-79092380D02*
X184670595Y-78092380D01*
X184289642Y-78092380D01*
X184194404Y-78140000D01*
X184146785Y-78187619D01*
X184099166Y-78282857D01*
X184099166Y-78425714D01*
X184146785Y-78520952D01*
X184194404Y-78568571D01*
X184289642Y-78616190D01*
X184670595Y-78616190D01*
X183146785Y-79092380D02*
X183718214Y-79092380D01*
X183432500Y-79092380D02*
X183432500Y-78092380D01*
X183527738Y-78235238D01*
X183622976Y-78330476D01*
X183718214Y-78378095D01*
G04 #@! TO.C,C11*
X225877357Y-75591942D02*
X225924976Y-75639561D01*
X226067833Y-75687180D01*
X226163071Y-75687180D01*
X226305928Y-75639561D01*
X226401166Y-75544323D01*
X226448785Y-75449085D01*
X226496404Y-75258609D01*
X226496404Y-75115752D01*
X226448785Y-74925276D01*
X226401166Y-74830038D01*
X226305928Y-74734800D01*
X226163071Y-74687180D01*
X226067833Y-74687180D01*
X225924976Y-74734800D01*
X225877357Y-74782419D01*
X224924976Y-75687180D02*
X225496404Y-75687180D01*
X225210690Y-75687180D02*
X225210690Y-74687180D01*
X225305928Y-74830038D01*
X225401166Y-74925276D01*
X225496404Y-74972895D01*
X223972595Y-75687180D02*
X224544023Y-75687180D01*
X224258309Y-75687180D02*
X224258309Y-74687180D01*
X224353547Y-74830038D01*
X224448785Y-74925276D01*
X224544023Y-74972895D01*
G04 #@! TO.C,C5*
X216815966Y-67933842D02*
X216863585Y-67981461D01*
X217006442Y-68029080D01*
X217101680Y-68029080D01*
X217244538Y-67981461D01*
X217339776Y-67886223D01*
X217387395Y-67790985D01*
X217435014Y-67600509D01*
X217435014Y-67457652D01*
X217387395Y-67267176D01*
X217339776Y-67171938D01*
X217244538Y-67076700D01*
X217101680Y-67029080D01*
X217006442Y-67029080D01*
X216863585Y-67076700D01*
X216815966Y-67124319D01*
X215911204Y-67029080D02*
X216387395Y-67029080D01*
X216435014Y-67505271D01*
X216387395Y-67457652D01*
X216292157Y-67410033D01*
X216054061Y-67410033D01*
X215958823Y-67457652D01*
X215911204Y-67505271D01*
X215863585Y-67600509D01*
X215863585Y-67838604D01*
X215911204Y-67933842D01*
X215958823Y-67981461D01*
X216054061Y-68029080D01*
X216292157Y-68029080D01*
X216387395Y-67981461D01*
X216435014Y-67933842D01*
G04 #@! TO.C,C26*
X228875922Y-83751367D02*
X228923541Y-83798986D01*
X229066398Y-83846605D01*
X229161636Y-83846605D01*
X229304493Y-83798986D01*
X229399731Y-83703748D01*
X229447350Y-83608510D01*
X229494969Y-83418034D01*
X229494969Y-83275177D01*
X229447350Y-83084701D01*
X229399731Y-82989463D01*
X229304493Y-82894225D01*
X229161636Y-82846605D01*
X229066398Y-82846605D01*
X228923541Y-82894225D01*
X228875922Y-82941844D01*
X228494969Y-82941844D02*
X228447350Y-82894225D01*
X228352112Y-82846605D01*
X228114017Y-82846605D01*
X228018779Y-82894225D01*
X227971160Y-82941844D01*
X227923541Y-83037082D01*
X227923541Y-83132320D01*
X227971160Y-83275177D01*
X228542588Y-83846605D01*
X227923541Y-83846605D01*
X227066398Y-82846605D02*
X227256874Y-82846605D01*
X227352112Y-82894225D01*
X227399731Y-82941844D01*
X227494969Y-83084701D01*
X227542588Y-83275177D01*
X227542588Y-83656129D01*
X227494969Y-83751367D01*
X227447350Y-83798986D01*
X227352112Y-83846605D01*
X227161636Y-83846605D01*
X227066398Y-83798986D01*
X227018779Y-83751367D01*
X226971160Y-83656129D01*
X226971160Y-83418034D01*
X227018779Y-83322796D01*
X227066398Y-83275177D01*
X227161636Y-83227558D01*
X227352112Y-83227558D01*
X227447350Y-83275177D01*
X227494969Y-83322796D01*
X227542588Y-83418034D01*
G04 #@! TO.C,C22*
X221309207Y-82285367D02*
X221356826Y-82237748D01*
X221404445Y-82094891D01*
X221404445Y-81999653D01*
X221356826Y-81856796D01*
X221261588Y-81761558D01*
X221166350Y-81713939D01*
X220975874Y-81666320D01*
X220833017Y-81666320D01*
X220642541Y-81713939D01*
X220547303Y-81761558D01*
X220452065Y-81856796D01*
X220404445Y-81999653D01*
X220404445Y-82094891D01*
X220452065Y-82237748D01*
X220499684Y-82285367D01*
X220499684Y-82666320D02*
X220452065Y-82713939D01*
X220404445Y-82809177D01*
X220404445Y-83047272D01*
X220452065Y-83142510D01*
X220499684Y-83190129D01*
X220594922Y-83237748D01*
X220690160Y-83237748D01*
X220833017Y-83190129D01*
X221404445Y-82618701D01*
X221404445Y-83237748D01*
X220499684Y-83618701D02*
X220452065Y-83666320D01*
X220404445Y-83761558D01*
X220404445Y-83999653D01*
X220452065Y-84094891D01*
X220499684Y-84142510D01*
X220594922Y-84190129D01*
X220690160Y-84190129D01*
X220833017Y-84142510D01*
X221404445Y-83571082D01*
X221404445Y-84190129D01*
G04 #@! TO.C,R21*
X225940857Y-97454980D02*
X226274190Y-96978790D01*
X226512285Y-97454980D02*
X226512285Y-96454980D01*
X226131333Y-96454980D01*
X226036095Y-96502600D01*
X225988476Y-96550219D01*
X225940857Y-96645457D01*
X225940857Y-96788314D01*
X225988476Y-96883552D01*
X226036095Y-96931171D01*
X226131333Y-96978790D01*
X226512285Y-96978790D01*
X225559904Y-96550219D02*
X225512285Y-96502600D01*
X225417047Y-96454980D01*
X225178952Y-96454980D01*
X225083714Y-96502600D01*
X225036095Y-96550219D01*
X224988476Y-96645457D01*
X224988476Y-96740695D01*
X225036095Y-96883552D01*
X225607523Y-97454980D01*
X224988476Y-97454980D01*
X224036095Y-97454980D02*
X224607523Y-97454980D01*
X224321809Y-97454980D02*
X224321809Y-96454980D01*
X224417047Y-96597838D01*
X224512285Y-96693076D01*
X224607523Y-96740695D01*
G04 #@! TO.C,R16*
X226404607Y-99582642D02*
X226737940Y-99106452D01*
X226976035Y-99582642D02*
X226976035Y-98582642D01*
X226595083Y-98582642D01*
X226499845Y-98630262D01*
X226452226Y-98677881D01*
X226404607Y-98773119D01*
X226404607Y-98915976D01*
X226452226Y-99011214D01*
X226499845Y-99058833D01*
X226595083Y-99106452D01*
X226976035Y-99106452D01*
X225452226Y-99582642D02*
X226023654Y-99582642D01*
X225737940Y-99582642D02*
X225737940Y-98582642D01*
X225833178Y-98725500D01*
X225928416Y-98820738D01*
X226023654Y-98868357D01*
X224595083Y-98582642D02*
X224785559Y-98582642D01*
X224880797Y-98630262D01*
X224928416Y-98677881D01*
X225023654Y-98820738D01*
X225071273Y-99011214D01*
X225071273Y-99392166D01*
X225023654Y-99487404D01*
X224976035Y-99535023D01*
X224880797Y-99582642D01*
X224690321Y-99582642D01*
X224595083Y-99535023D01*
X224547464Y-99487404D01*
X224499845Y-99392166D01*
X224499845Y-99154071D01*
X224547464Y-99058833D01*
X224595083Y-99011214D01*
X224690321Y-98963595D01*
X224880797Y-98963595D01*
X224976035Y-99011214D01*
X225023654Y-99058833D01*
X225071273Y-99154071D01*
G04 #@! TO.C,R15*
X232011480Y-104208342D02*
X231535290Y-103875009D01*
X232011480Y-103636914D02*
X231011480Y-103636914D01*
X231011480Y-104017866D01*
X231059100Y-104113104D01*
X231106719Y-104160723D01*
X231201957Y-104208342D01*
X231344814Y-104208342D01*
X231440052Y-104160723D01*
X231487671Y-104113104D01*
X231535290Y-104017866D01*
X231535290Y-103636914D01*
X232011480Y-105160723D02*
X232011480Y-104589295D01*
X232011480Y-104875009D02*
X231011480Y-104875009D01*
X231154338Y-104779771D01*
X231249576Y-104684533D01*
X231297195Y-104589295D01*
X231011480Y-106065485D02*
X231011480Y-105589295D01*
X231487671Y-105541676D01*
X231440052Y-105589295D01*
X231392433Y-105684533D01*
X231392433Y-105922628D01*
X231440052Y-106017866D01*
X231487671Y-106065485D01*
X231582909Y-106113104D01*
X231821004Y-106113104D01*
X231916242Y-106065485D01*
X231963861Y-106017866D01*
X232011480Y-105922628D01*
X232011480Y-105684533D01*
X231963861Y-105589295D01*
X231916242Y-105541676D01*
G04 #@! TO.C,C50*
X228442757Y-98083642D02*
X228490376Y-98131261D01*
X228633233Y-98178880D01*
X228728471Y-98178880D01*
X228871328Y-98131261D01*
X228966566Y-98036023D01*
X229014185Y-97940785D01*
X229061804Y-97750309D01*
X229061804Y-97607452D01*
X229014185Y-97416976D01*
X228966566Y-97321738D01*
X228871328Y-97226500D01*
X228728471Y-97178880D01*
X228633233Y-97178880D01*
X228490376Y-97226500D01*
X228442757Y-97274119D01*
X227537995Y-97178880D02*
X228014185Y-97178880D01*
X228061804Y-97655071D01*
X228014185Y-97607452D01*
X227918947Y-97559833D01*
X227680852Y-97559833D01*
X227585614Y-97607452D01*
X227537995Y-97655071D01*
X227490376Y-97750309D01*
X227490376Y-97988404D01*
X227537995Y-98083642D01*
X227585614Y-98131261D01*
X227680852Y-98178880D01*
X227918947Y-98178880D01*
X228014185Y-98131261D01*
X228061804Y-98083642D01*
X226871328Y-97178880D02*
X226776090Y-97178880D01*
X226680852Y-97226500D01*
X226633233Y-97274119D01*
X226585614Y-97369357D01*
X226537995Y-97559833D01*
X226537995Y-97797928D01*
X226585614Y-97988404D01*
X226633233Y-98083642D01*
X226680852Y-98131261D01*
X226776090Y-98178880D01*
X226871328Y-98178880D01*
X226966566Y-98131261D01*
X227014185Y-98083642D01*
X227061804Y-97988404D01*
X227109423Y-97797928D01*
X227109423Y-97559833D01*
X227061804Y-97369357D01*
X227014185Y-97274119D01*
X226966566Y-97226500D01*
X226871328Y-97178880D01*
G04 #@! TO.C,L6*
X228512666Y-103309680D02*
X228988857Y-103309680D01*
X228988857Y-102309680D01*
X227750761Y-102309680D02*
X227941238Y-102309680D01*
X228036476Y-102357300D01*
X228084095Y-102404919D01*
X228179333Y-102547776D01*
X228226952Y-102738252D01*
X228226952Y-103119204D01*
X228179333Y-103214442D01*
X228131714Y-103262061D01*
X228036476Y-103309680D01*
X227846000Y-103309680D01*
X227750761Y-103262061D01*
X227703142Y-103214442D01*
X227655523Y-103119204D01*
X227655523Y-102881109D01*
X227703142Y-102785871D01*
X227750761Y-102738252D01*
X227846000Y-102690633D01*
X228036476Y-102690633D01*
X228131714Y-102738252D01*
X228179333Y-102785871D01*
X228226952Y-102881109D01*
G04 #@! TO.C,L7*
X226887066Y-103347780D02*
X227363257Y-103347780D01*
X227363257Y-102347780D01*
X226648971Y-102347780D02*
X225982304Y-102347780D01*
X226410876Y-103347780D01*
G04 #@! TO.C,R2*
X192680537Y-80605333D02*
X192204347Y-80272000D01*
X192680537Y-80033904D02*
X191680537Y-80033904D01*
X191680537Y-80414857D01*
X191728157Y-80510095D01*
X191775776Y-80557714D01*
X191871014Y-80605333D01*
X192013871Y-80605333D01*
X192109109Y-80557714D01*
X192156728Y-80510095D01*
X192204347Y-80414857D01*
X192204347Y-80033904D01*
X191775776Y-80986285D02*
X191728157Y-81033904D01*
X191680537Y-81129142D01*
X191680537Y-81367238D01*
X191728157Y-81462476D01*
X191775776Y-81510095D01*
X191871014Y-81557714D01*
X191966252Y-81557714D01*
X192109109Y-81510095D01*
X192680537Y-80938666D01*
X192680537Y-81557714D01*
G04 #@! TO.C,C15*
X194286142Y-80129142D02*
X194333761Y-80081523D01*
X194381380Y-79938666D01*
X194381380Y-79843428D01*
X194333761Y-79700571D01*
X194238523Y-79605333D01*
X194143285Y-79557714D01*
X193952809Y-79510095D01*
X193809952Y-79510095D01*
X193619476Y-79557714D01*
X193524238Y-79605333D01*
X193429000Y-79700571D01*
X193381380Y-79843428D01*
X193381380Y-79938666D01*
X193429000Y-80081523D01*
X193476619Y-80129142D01*
X194381380Y-81081523D02*
X194381380Y-80510095D01*
X194381380Y-80795809D02*
X193381380Y-80795809D01*
X193524238Y-80700571D01*
X193619476Y-80605333D01*
X193667095Y-80510095D01*
X193381380Y-81986285D02*
X193381380Y-81510095D01*
X193857571Y-81462476D01*
X193809952Y-81510095D01*
X193762333Y-81605333D01*
X193762333Y-81843428D01*
X193809952Y-81938666D01*
X193857571Y-81986285D01*
X193952809Y-82033904D01*
X194190904Y-82033904D01*
X194286142Y-81986285D01*
X194333761Y-81938666D01*
X194381380Y-81843428D01*
X194381380Y-81605333D01*
X194333761Y-81510095D01*
X194286142Y-81462476D01*
G04 #@! TO.C,R12*
X171330857Y-85409380D02*
X171664190Y-84933190D01*
X171902285Y-85409380D02*
X171902285Y-84409380D01*
X171521333Y-84409380D01*
X171426095Y-84457000D01*
X171378476Y-84504619D01*
X171330857Y-84599857D01*
X171330857Y-84742714D01*
X171378476Y-84837952D01*
X171426095Y-84885571D01*
X171521333Y-84933190D01*
X171902285Y-84933190D01*
X170378476Y-85409380D02*
X170949904Y-85409380D01*
X170664190Y-85409380D02*
X170664190Y-84409380D01*
X170759428Y-84552238D01*
X170854666Y-84647476D01*
X170949904Y-84695095D01*
X169997523Y-84504619D02*
X169949904Y-84457000D01*
X169854666Y-84409380D01*
X169616571Y-84409380D01*
X169521333Y-84457000D01*
X169473714Y-84504619D01*
X169426095Y-84599857D01*
X169426095Y-84695095D01*
X169473714Y-84837952D01*
X170045142Y-85409380D01*
X169426095Y-85409380D01*
G04 #@! TO.C,R5*
X178202537Y-78494597D02*
X177726347Y-78161264D01*
X178202537Y-77923168D02*
X177202537Y-77923168D01*
X177202537Y-78304121D01*
X177250157Y-78399359D01*
X177297776Y-78446978D01*
X177393014Y-78494597D01*
X177535871Y-78494597D01*
X177631109Y-78446978D01*
X177678728Y-78399359D01*
X177726347Y-78304121D01*
X177726347Y-77923168D01*
X177202537Y-79399359D02*
X177202537Y-78923168D01*
X177678728Y-78875549D01*
X177631109Y-78923168D01*
X177583490Y-79018406D01*
X177583490Y-79256502D01*
X177631109Y-79351740D01*
X177678728Y-79399359D01*
X177773966Y-79446978D01*
X178012061Y-79446978D01*
X178107299Y-79399359D01*
X178154918Y-79351740D01*
X178202537Y-79256502D01*
X178202537Y-79018406D01*
X178154918Y-78923168D01*
X178107299Y-78875549D01*
G04 #@! TO.C,C16*
X173966142Y-67429142D02*
X174013761Y-67381523D01*
X174061380Y-67238666D01*
X174061380Y-67143428D01*
X174013761Y-67000571D01*
X173918523Y-66905333D01*
X173823285Y-66857714D01*
X173632809Y-66810095D01*
X173489952Y-66810095D01*
X173299476Y-66857714D01*
X173204238Y-66905333D01*
X173109000Y-67000571D01*
X173061380Y-67143428D01*
X173061380Y-67238666D01*
X173109000Y-67381523D01*
X173156619Y-67429142D01*
X174061380Y-68381523D02*
X174061380Y-67810095D01*
X174061380Y-68095809D02*
X173061380Y-68095809D01*
X173204238Y-68000571D01*
X173299476Y-67905333D01*
X173347095Y-67810095D01*
X173061380Y-69238666D02*
X173061380Y-69048190D01*
X173109000Y-68952952D01*
X173156619Y-68905333D01*
X173299476Y-68810095D01*
X173489952Y-68762476D01*
X173870904Y-68762476D01*
X173966142Y-68810095D01*
X174013761Y-68857714D01*
X174061380Y-68952952D01*
X174061380Y-69143428D01*
X174013761Y-69238666D01*
X173966142Y-69286285D01*
X173870904Y-69333904D01*
X173632809Y-69333904D01*
X173537571Y-69286285D01*
X173489952Y-69238666D01*
X173442333Y-69143428D01*
X173442333Y-68952952D01*
X173489952Y-68857714D01*
X173537571Y-68810095D01*
X173632809Y-68762476D01*
G04 #@! TO.C,R4*
X178682537Y-74938597D02*
X178206347Y-74605264D01*
X178682537Y-74367168D02*
X177682537Y-74367168D01*
X177682537Y-74748121D01*
X177730157Y-74843359D01*
X177777776Y-74890978D01*
X177873014Y-74938597D01*
X178015871Y-74938597D01*
X178111109Y-74890978D01*
X178158728Y-74843359D01*
X178206347Y-74748121D01*
X178206347Y-74367168D01*
X178015871Y-75795740D02*
X178682537Y-75795740D01*
X177634918Y-75557644D02*
X178349204Y-75319549D01*
X178349204Y-75938597D01*
G04 #@! TO.C,C19*
X171172142Y-67683142D02*
X171219761Y-67635523D01*
X171267380Y-67492666D01*
X171267380Y-67397428D01*
X171219761Y-67254571D01*
X171124523Y-67159333D01*
X171029285Y-67111714D01*
X170838809Y-67064095D01*
X170695952Y-67064095D01*
X170505476Y-67111714D01*
X170410238Y-67159333D01*
X170315000Y-67254571D01*
X170267380Y-67397428D01*
X170267380Y-67492666D01*
X170315000Y-67635523D01*
X170362619Y-67683142D01*
X171267380Y-68635523D02*
X171267380Y-68064095D01*
X171267380Y-68349809D02*
X170267380Y-68349809D01*
X170410238Y-68254571D01*
X170505476Y-68159333D01*
X170553095Y-68064095D01*
X171267380Y-69111714D02*
X171267380Y-69302190D01*
X171219761Y-69397428D01*
X171172142Y-69445047D01*
X171029285Y-69540285D01*
X170838809Y-69587904D01*
X170457857Y-69587904D01*
X170362619Y-69540285D01*
X170315000Y-69492666D01*
X170267380Y-69397428D01*
X170267380Y-69206952D01*
X170315000Y-69111714D01*
X170362619Y-69064095D01*
X170457857Y-69016476D01*
X170695952Y-69016476D01*
X170791190Y-69064095D01*
X170838809Y-69111714D01*
X170886428Y-69206952D01*
X170886428Y-69397428D01*
X170838809Y-69492666D01*
X170791190Y-69540285D01*
X170695952Y-69587904D01*
G04 #@! TO.C,R11*
X174817380Y-77335142D02*
X174341190Y-77001809D01*
X174817380Y-76763714D02*
X173817380Y-76763714D01*
X173817380Y-77144666D01*
X173865000Y-77239904D01*
X173912619Y-77287523D01*
X174007857Y-77335142D01*
X174150714Y-77335142D01*
X174245952Y-77287523D01*
X174293571Y-77239904D01*
X174341190Y-77144666D01*
X174341190Y-76763714D01*
X174817380Y-78287523D02*
X174817380Y-77716095D01*
X174817380Y-78001809D02*
X173817380Y-78001809D01*
X173960238Y-77906571D01*
X174055476Y-77811333D01*
X174103095Y-77716095D01*
X174817380Y-79239904D02*
X174817380Y-78668476D01*
X174817380Y-78954190D02*
X173817380Y-78954190D01*
X173960238Y-78858952D01*
X174055476Y-78763714D01*
X174103095Y-78668476D01*
G04 #@! TO.C,D1*
X181890252Y-74763644D02*
X181890252Y-73763644D01*
X181652157Y-73763644D01*
X181509299Y-73811264D01*
X181414061Y-73906502D01*
X181366442Y-74001740D01*
X181318823Y-74192216D01*
X181318823Y-74335073D01*
X181366442Y-74525549D01*
X181414061Y-74620787D01*
X181509299Y-74716025D01*
X181652157Y-74763644D01*
X181890252Y-74763644D01*
X180366442Y-74763644D02*
X180937871Y-74763644D01*
X180652157Y-74763644D02*
X180652157Y-73763644D01*
X180747395Y-73906502D01*
X180842633Y-74001740D01*
X180937871Y-74049359D01*
G04 #@! TO.C,J8*
X217639825Y-153530538D02*
X217639825Y-154244824D01*
X217687444Y-154387681D01*
X217782682Y-154482919D01*
X217925539Y-154530538D01*
X218020777Y-154530538D01*
X217020777Y-153959110D02*
X217116015Y-153911491D01*
X217163634Y-153863872D01*
X217211253Y-153768634D01*
X217211253Y-153721015D01*
X217163634Y-153625777D01*
X217116015Y-153578158D01*
X217020777Y-153530538D01*
X216830301Y-153530538D01*
X216735063Y-153578158D01*
X216687444Y-153625777D01*
X216639825Y-153721015D01*
X216639825Y-153768634D01*
X216687444Y-153863872D01*
X216735063Y-153911491D01*
X216830301Y-153959110D01*
X217020777Y-153959110D01*
X217116015Y-154006729D01*
X217163634Y-154054348D01*
X217211253Y-154149586D01*
X217211253Y-154340062D01*
X217163634Y-154435300D01*
X217116015Y-154482919D01*
X217020777Y-154530538D01*
X216830301Y-154530538D01*
X216735063Y-154482919D01*
X216687444Y-154435300D01*
X216639825Y-154340062D01*
X216639825Y-154149586D01*
X216687444Y-154054348D01*
X216735063Y-154006729D01*
X216830301Y-153959110D01*
G04 #@! TO.C,J7*
X249870540Y-144701666D02*
X250584826Y-144701666D01*
X250727683Y-144654047D01*
X250822921Y-144558809D01*
X250870540Y-144415952D01*
X250870540Y-144320714D01*
X249870540Y-145082619D02*
X249870540Y-145749285D01*
X250870540Y-145320714D01*
G04 #@! TO.C,J9*
X186753159Y-153530538D02*
X186753159Y-154244824D01*
X186800778Y-154387681D01*
X186896016Y-154482919D01*
X187038873Y-154530538D01*
X187134111Y-154530538D01*
X186229349Y-154530538D02*
X186038873Y-154530538D01*
X185943635Y-154482919D01*
X185896016Y-154435300D01*
X185800778Y-154292443D01*
X185753159Y-154101967D01*
X185753159Y-153721015D01*
X185800778Y-153625777D01*
X185848397Y-153578158D01*
X185943635Y-153530538D01*
X186134111Y-153530538D01*
X186229349Y-153578158D01*
X186276968Y-153625777D01*
X186324587Y-153721015D01*
X186324587Y-153959110D01*
X186276968Y-154054348D01*
X186229349Y-154101967D01*
X186134111Y-154149586D01*
X185943635Y-154149586D01*
X185848397Y-154101967D01*
X185800778Y-154054348D01*
X185753159Y-153959110D01*
G04 #@! TO.C,J10*
X176210540Y-143253634D02*
X176924826Y-143253634D01*
X177067683Y-143206015D01*
X177162921Y-143110777D01*
X177210540Y-142967919D01*
X177210540Y-142872681D01*
X177210540Y-144253634D02*
X177210540Y-143682205D01*
X177210540Y-143967919D02*
X176210540Y-143967919D01*
X176353398Y-143872681D01*
X176448636Y-143777443D01*
X176496255Y-143682205D01*
X176210540Y-144872681D02*
X176210540Y-144967919D01*
X176258160Y-145063158D01*
X176305779Y-145110777D01*
X176401017Y-145158396D01*
X176591493Y-145206015D01*
X176829588Y-145206015D01*
X177020064Y-145158396D01*
X177115302Y-145110777D01*
X177162921Y-145063158D01*
X177210540Y-144967919D01*
X177210540Y-144872681D01*
X177162921Y-144777443D01*
X177115302Y-144729824D01*
X177020064Y-144682205D01*
X176829588Y-144634586D01*
X176591493Y-144634586D01*
X176401017Y-144682205D01*
X176305779Y-144729824D01*
X176258160Y-144777443D01*
X176210540Y-144872681D01*
G04 #@! TO.C,C4*
X199904642Y-75398333D02*
X199952261Y-75350714D01*
X199999880Y-75207857D01*
X199999880Y-75112619D01*
X199952261Y-74969761D01*
X199857023Y-74874523D01*
X199761785Y-74826904D01*
X199571309Y-74779285D01*
X199428452Y-74779285D01*
X199237976Y-74826904D01*
X199142738Y-74874523D01*
X199047500Y-74969761D01*
X198999880Y-75112619D01*
X198999880Y-75207857D01*
X199047500Y-75350714D01*
X199095119Y-75398333D01*
X199333214Y-76255476D02*
X199999880Y-76255476D01*
X198952261Y-76017380D02*
X199666547Y-75779285D01*
X199666547Y-76398333D01*
G04 #@! TO.C,L3*
X186221666Y-71152380D02*
X186697857Y-71152380D01*
X186697857Y-70152380D01*
X185983571Y-70152380D02*
X185364523Y-70152380D01*
X185697857Y-70533333D01*
X185555000Y-70533333D01*
X185459761Y-70580952D01*
X185412142Y-70628571D01*
X185364523Y-70723809D01*
X185364523Y-70961904D01*
X185412142Y-71057142D01*
X185459761Y-71104761D01*
X185555000Y-71152380D01*
X185840714Y-71152380D01*
X185935952Y-71104761D01*
X185983571Y-71057142D01*
G04 #@! TO.C,U2*
X189534061Y-71969644D02*
X189534061Y-72779168D01*
X189486442Y-72874406D01*
X189438823Y-72922025D01*
X189343585Y-72969644D01*
X189153109Y-72969644D01*
X189057871Y-72922025D01*
X189010252Y-72874406D01*
X188962633Y-72779168D01*
X188962633Y-71969644D01*
X188534061Y-72064883D02*
X188486442Y-72017264D01*
X188391204Y-71969644D01*
X188153109Y-71969644D01*
X188057871Y-72017264D01*
X188010252Y-72064883D01*
X187962633Y-72160121D01*
X187962633Y-72255359D01*
X188010252Y-72398216D01*
X188581680Y-72969644D01*
X187962633Y-72969644D01*
G04 #@! TO.C,C28*
X223692957Y-78246242D02*
X223740576Y-78293861D01*
X223883433Y-78341480D01*
X223978671Y-78341480D01*
X224121528Y-78293861D01*
X224216766Y-78198623D01*
X224264385Y-78103385D01*
X224312004Y-77912909D01*
X224312004Y-77770052D01*
X224264385Y-77579576D01*
X224216766Y-77484338D01*
X224121528Y-77389100D01*
X223978671Y-77341480D01*
X223883433Y-77341480D01*
X223740576Y-77389100D01*
X223692957Y-77436719D01*
X223312004Y-77436719D02*
X223264385Y-77389100D01*
X223169147Y-77341480D01*
X222931052Y-77341480D01*
X222835814Y-77389100D01*
X222788195Y-77436719D01*
X222740576Y-77531957D01*
X222740576Y-77627195D01*
X222788195Y-77770052D01*
X223359623Y-78341480D01*
X222740576Y-78341480D01*
X222169147Y-77770052D02*
X222264385Y-77722433D01*
X222312004Y-77674814D01*
X222359623Y-77579576D01*
X222359623Y-77531957D01*
X222312004Y-77436719D01*
X222264385Y-77389100D01*
X222169147Y-77341480D01*
X221978671Y-77341480D01*
X221883433Y-77389100D01*
X221835814Y-77436719D01*
X221788195Y-77531957D01*
X221788195Y-77579576D01*
X221835814Y-77674814D01*
X221883433Y-77722433D01*
X221978671Y-77770052D01*
X222169147Y-77770052D01*
X222264385Y-77817671D01*
X222312004Y-77865290D01*
X222359623Y-77960528D01*
X222359623Y-78151004D01*
X222312004Y-78246242D01*
X222264385Y-78293861D01*
X222169147Y-78341480D01*
X221978671Y-78341480D01*
X221883433Y-78293861D01*
X221835814Y-78246242D01*
X221788195Y-78151004D01*
X221788195Y-77960528D01*
X221835814Y-77865290D01*
X221883433Y-77817671D01*
X221978671Y-77770052D01*
G04 #@! TO.C,C36*
X225928157Y-80645367D02*
X225975776Y-80692986D01*
X226118633Y-80740605D01*
X226213871Y-80740605D01*
X226356728Y-80692986D01*
X226451966Y-80597748D01*
X226499585Y-80502510D01*
X226547204Y-80312034D01*
X226547204Y-80169177D01*
X226499585Y-79978701D01*
X226451966Y-79883463D01*
X226356728Y-79788225D01*
X226213871Y-79740605D01*
X226118633Y-79740605D01*
X225975776Y-79788225D01*
X225928157Y-79835844D01*
X225594823Y-79740605D02*
X224975776Y-79740605D01*
X225309109Y-80121558D01*
X225166252Y-80121558D01*
X225071014Y-80169177D01*
X225023395Y-80216796D01*
X224975776Y-80312034D01*
X224975776Y-80550129D01*
X225023395Y-80645367D01*
X225071014Y-80692986D01*
X225166252Y-80740605D01*
X225451966Y-80740605D01*
X225547204Y-80692986D01*
X225594823Y-80645367D01*
X224118633Y-79740605D02*
X224309109Y-79740605D01*
X224404347Y-79788225D01*
X224451966Y-79835844D01*
X224547204Y-79978701D01*
X224594823Y-80169177D01*
X224594823Y-80550129D01*
X224547204Y-80645367D01*
X224499585Y-80692986D01*
X224404347Y-80740605D01*
X224213871Y-80740605D01*
X224118633Y-80692986D01*
X224071014Y-80645367D01*
X224023395Y-80550129D01*
X224023395Y-80312034D01*
X224071014Y-80216796D01*
X224118633Y-80169177D01*
X224213871Y-80121558D01*
X224404347Y-80121558D01*
X224499585Y-80169177D01*
X224547204Y-80216796D01*
X224594823Y-80312034D01*
G04 #@! TD*
M02*
