G04 #@! TF.GenerationSoftware,KiCad,Pcbnew,5.0.0*
G04 #@! TF.CreationDate,2018-09-09T20:10:08-07:00*
G04 #@! TF.ProjectId,SchematicAutomation,536368656D617469634175746F6D6174,rev?*
G04 #@! TF.SameCoordinates,Original*
G04 #@! TF.FileFunction,Paste,Top*
G04 #@! TF.FilePolarity,Positive*
%FSLAX45Y45*%
G04 Gerber Fmt 4.5, Leading zero omitted, Abs format (unit mm)*
G04 Created by KiCad (PCBNEW 5.0.0) date Sun Sep  9 20:10:08 2018*
%MOMM*%
%LPD*%
G01*
G04 APERTURE LIST*
%ADD10R,1.200000X0.750000*%
%ADD11R,1.500000X1.250000*%
%ADD12R,1.250000X1.500000*%
%ADD13C,0.150000*%
%ADD14C,0.590000*%
%ADD15R,1.560000X0.400000*%
%ADD16R,1.200000X1.200000*%
%ADD17R,1.450000X0.450000*%
%ADD18R,1.200000X0.500000*%
%ADD19R,0.500000X1.200000*%
%ADD20R,5.334000X1.930400*%
%ADD21R,1.300000X1.500000*%
%ADD22R,1.100000X1.000000*%
%ADD23R,1.000000X1.100000*%
%ADD24R,0.550000X1.500000*%
%ADD25R,1.500000X0.550000*%
%ADD26R,1.930400X5.334000*%
%ADD27R,1.200000X0.300000*%
%ADD28R,0.300000X1.200000*%
%ADD29R,1.280000X3.680000*%
%ADD30R,1.550000X0.600000*%
%ADD31R,0.600000X1.550000*%
%ADD32R,0.550000X1.000000*%
%ADD33R,0.300000X0.700000*%
G04 APERTURE END LIST*
D10*
G04 #@! TO.C,C11*
X18764030Y-15439426D03*
X18954030Y-15439426D03*
G04 #@! TD*
G04 #@! TO.C,C17*
X18052800Y-15436850D03*
X17862800Y-15436850D03*
G04 #@! TD*
G04 #@! TO.C,C50*
X17570700Y-14992350D03*
X17760700Y-14992350D03*
G04 #@! TD*
G04 #@! TO.C,C52*
X19018000Y-16262350D03*
X18828000Y-16262350D03*
G04 #@! TD*
D11*
G04 #@! TO.C,C7*
X19373400Y-16560800D03*
X19623400Y-16560800D03*
G04 #@! TD*
G04 #@! TO.C,C14*
X18413000Y-16510000D03*
X18163000Y-16510000D03*
G04 #@! TD*
D12*
G04 #@! TO.C,C51*
X18351500Y-14765750D03*
X18351500Y-15015750D03*
G04 #@! TD*
G04 #@! TO.C,C53*
X19011900Y-15015750D03*
X19011900Y-14765750D03*
G04 #@! TD*
D13*
G04 #@! TO.C,R66*
G36*
X18515920Y-15759235D02*
X18517352Y-15759448D01*
X18518756Y-15759799D01*
X18520119Y-15760287D01*
X18521428Y-15760906D01*
X18522669Y-15761650D01*
X18523832Y-15762512D01*
X18524904Y-15763484D01*
X18525876Y-15764557D01*
X18526739Y-15765720D01*
X18527483Y-15766961D01*
X18528102Y-15768270D01*
X18528589Y-15769633D01*
X18528941Y-15771037D01*
X18529154Y-15772468D01*
X18529225Y-15773914D01*
X18529225Y-15803414D01*
X18529154Y-15804860D01*
X18528941Y-15806292D01*
X18528589Y-15807696D01*
X18528102Y-15809059D01*
X18527483Y-15810367D01*
X18526739Y-15811609D01*
X18525876Y-15812772D01*
X18524904Y-15813844D01*
X18523832Y-15814816D01*
X18522669Y-15815678D01*
X18521428Y-15816423D01*
X18520119Y-15817041D01*
X18518756Y-15817529D01*
X18517352Y-15817881D01*
X18515920Y-15818093D01*
X18514475Y-15818164D01*
X18479975Y-15818164D01*
X18478529Y-15818093D01*
X18477097Y-15817881D01*
X18475693Y-15817529D01*
X18474330Y-15817041D01*
X18473021Y-15816423D01*
X18471780Y-15815678D01*
X18470617Y-15814816D01*
X18469545Y-15813844D01*
X18468573Y-15812772D01*
X18467710Y-15811609D01*
X18466966Y-15810367D01*
X18466347Y-15809059D01*
X18465860Y-15807696D01*
X18465508Y-15806292D01*
X18465296Y-15804860D01*
X18465225Y-15803414D01*
X18465225Y-15773914D01*
X18465296Y-15772468D01*
X18465508Y-15771037D01*
X18465860Y-15769633D01*
X18466347Y-15768270D01*
X18466966Y-15766961D01*
X18467710Y-15765720D01*
X18468573Y-15764557D01*
X18469545Y-15763484D01*
X18470617Y-15762512D01*
X18471780Y-15761650D01*
X18473021Y-15760906D01*
X18474330Y-15760287D01*
X18475693Y-15759799D01*
X18477097Y-15759448D01*
X18478529Y-15759235D01*
X18479975Y-15759164D01*
X18514475Y-15759164D01*
X18515920Y-15759235D01*
X18515920Y-15759235D01*
G37*
D14*
X18497225Y-15788664D03*
D13*
G36*
X18515920Y-15856235D02*
X18517352Y-15856448D01*
X18518756Y-15856799D01*
X18520119Y-15857287D01*
X18521428Y-15857906D01*
X18522669Y-15858650D01*
X18523832Y-15859512D01*
X18524904Y-15860484D01*
X18525876Y-15861557D01*
X18526739Y-15862720D01*
X18527483Y-15863961D01*
X18528102Y-15865270D01*
X18528589Y-15866633D01*
X18528941Y-15868037D01*
X18529154Y-15869468D01*
X18529225Y-15870914D01*
X18529225Y-15900414D01*
X18529154Y-15901860D01*
X18528941Y-15903292D01*
X18528589Y-15904696D01*
X18528102Y-15906059D01*
X18527483Y-15907367D01*
X18526739Y-15908609D01*
X18525876Y-15909772D01*
X18524904Y-15910844D01*
X18523832Y-15911816D01*
X18522669Y-15912678D01*
X18521428Y-15913423D01*
X18520119Y-15914041D01*
X18518756Y-15914529D01*
X18517352Y-15914881D01*
X18515920Y-15915093D01*
X18514475Y-15915164D01*
X18479975Y-15915164D01*
X18478529Y-15915093D01*
X18477097Y-15914881D01*
X18475693Y-15914529D01*
X18474330Y-15914041D01*
X18473021Y-15913423D01*
X18471780Y-15912678D01*
X18470617Y-15911816D01*
X18469545Y-15910844D01*
X18468573Y-15909772D01*
X18467710Y-15908609D01*
X18466966Y-15907367D01*
X18466347Y-15906059D01*
X18465860Y-15904696D01*
X18465508Y-15903292D01*
X18465296Y-15901860D01*
X18465225Y-15900414D01*
X18465225Y-15870914D01*
X18465296Y-15869468D01*
X18465508Y-15868037D01*
X18465860Y-15866633D01*
X18466347Y-15865270D01*
X18466966Y-15863961D01*
X18467710Y-15862720D01*
X18468573Y-15861557D01*
X18469545Y-15860484D01*
X18470617Y-15859512D01*
X18471780Y-15858650D01*
X18473021Y-15857906D01*
X18474330Y-15857287D01*
X18475693Y-15856799D01*
X18477097Y-15856448D01*
X18478529Y-15856235D01*
X18479975Y-15856164D01*
X18514475Y-15856164D01*
X18515920Y-15856235D01*
X18515920Y-15856235D01*
G37*
D14*
X18497225Y-15885664D03*
G04 #@! TD*
D13*
G04 #@! TO.C,R65*
G36*
X18522596Y-16129021D02*
X18524028Y-16129233D01*
X18525432Y-16129585D01*
X18526795Y-16130073D01*
X18528103Y-16130692D01*
X18529345Y-16131436D01*
X18530507Y-16132298D01*
X18531580Y-16133270D01*
X18532552Y-16134343D01*
X18533414Y-16135505D01*
X18534158Y-16136747D01*
X18534777Y-16138055D01*
X18535265Y-16139418D01*
X18535617Y-16140822D01*
X18535829Y-16142254D01*
X18535900Y-16143700D01*
X18535900Y-16173200D01*
X18535829Y-16174646D01*
X18535617Y-16176078D01*
X18535265Y-16177482D01*
X18534777Y-16178845D01*
X18534158Y-16180153D01*
X18533414Y-16181395D01*
X18532552Y-16182557D01*
X18531580Y-16183630D01*
X18530507Y-16184602D01*
X18529345Y-16185464D01*
X18528103Y-16186208D01*
X18526795Y-16186827D01*
X18525432Y-16187315D01*
X18524028Y-16187667D01*
X18522596Y-16187879D01*
X18521150Y-16187950D01*
X18486650Y-16187950D01*
X18485204Y-16187879D01*
X18483772Y-16187667D01*
X18482368Y-16187315D01*
X18481005Y-16186827D01*
X18479697Y-16186208D01*
X18478455Y-16185464D01*
X18477293Y-16184602D01*
X18476220Y-16183630D01*
X18475248Y-16182557D01*
X18474386Y-16181395D01*
X18473642Y-16180153D01*
X18473023Y-16178845D01*
X18472535Y-16177482D01*
X18472183Y-16176078D01*
X18471971Y-16174646D01*
X18471900Y-16173200D01*
X18471900Y-16143700D01*
X18471971Y-16142254D01*
X18472183Y-16140822D01*
X18472535Y-16139418D01*
X18473023Y-16138055D01*
X18473642Y-16136747D01*
X18474386Y-16135505D01*
X18475248Y-16134343D01*
X18476220Y-16133270D01*
X18477293Y-16132298D01*
X18478455Y-16131436D01*
X18479697Y-16130692D01*
X18481005Y-16130073D01*
X18482368Y-16129585D01*
X18483772Y-16129233D01*
X18485204Y-16129021D01*
X18486650Y-16128950D01*
X18521150Y-16128950D01*
X18522596Y-16129021D01*
X18522596Y-16129021D01*
G37*
D14*
X18503900Y-16158450D03*
D13*
G36*
X18522596Y-16032021D02*
X18524028Y-16032233D01*
X18525432Y-16032585D01*
X18526795Y-16033073D01*
X18528103Y-16033692D01*
X18529345Y-16034436D01*
X18530507Y-16035298D01*
X18531580Y-16036270D01*
X18532552Y-16037343D01*
X18533414Y-16038505D01*
X18534158Y-16039747D01*
X18534777Y-16041055D01*
X18535265Y-16042418D01*
X18535617Y-16043822D01*
X18535829Y-16045254D01*
X18535900Y-16046700D01*
X18535900Y-16076200D01*
X18535829Y-16077646D01*
X18535617Y-16079078D01*
X18535265Y-16080482D01*
X18534777Y-16081845D01*
X18534158Y-16083153D01*
X18533414Y-16084395D01*
X18532552Y-16085557D01*
X18531580Y-16086630D01*
X18530507Y-16087602D01*
X18529345Y-16088464D01*
X18528103Y-16089208D01*
X18526795Y-16089827D01*
X18525432Y-16090315D01*
X18524028Y-16090667D01*
X18522596Y-16090879D01*
X18521150Y-16090950D01*
X18486650Y-16090950D01*
X18485204Y-16090879D01*
X18483772Y-16090667D01*
X18482368Y-16090315D01*
X18481005Y-16089827D01*
X18479697Y-16089208D01*
X18478455Y-16088464D01*
X18477293Y-16087602D01*
X18476220Y-16086630D01*
X18475248Y-16085557D01*
X18474386Y-16084395D01*
X18473642Y-16083153D01*
X18473023Y-16081845D01*
X18472535Y-16080482D01*
X18472183Y-16079078D01*
X18471971Y-16077646D01*
X18471900Y-16076200D01*
X18471900Y-16046700D01*
X18471971Y-16045254D01*
X18472183Y-16043822D01*
X18472535Y-16042418D01*
X18473023Y-16041055D01*
X18473642Y-16039747D01*
X18474386Y-16038505D01*
X18475248Y-16037343D01*
X18476220Y-16036270D01*
X18477293Y-16035298D01*
X18478455Y-16034436D01*
X18479697Y-16033692D01*
X18481005Y-16033073D01*
X18482368Y-16032585D01*
X18483772Y-16032233D01*
X18485204Y-16032021D01*
X18486650Y-16031950D01*
X18521150Y-16031950D01*
X18522596Y-16032021D01*
X18522596Y-16032021D01*
G37*
D14*
X18503900Y-16061450D03*
G04 #@! TD*
D13*
G04 #@! TO.C,R64*
G36*
X19904596Y-15976621D02*
X19906028Y-15976833D01*
X19907432Y-15977185D01*
X19908795Y-15977673D01*
X19910103Y-15978292D01*
X19911345Y-15979036D01*
X19912507Y-15979898D01*
X19913580Y-15980870D01*
X19914552Y-15981943D01*
X19915414Y-15983105D01*
X19916158Y-15984347D01*
X19916777Y-15985655D01*
X19917265Y-15987018D01*
X19917617Y-15988422D01*
X19917829Y-15989854D01*
X19917900Y-15991300D01*
X19917900Y-16020800D01*
X19917829Y-16022246D01*
X19917617Y-16023678D01*
X19917265Y-16025082D01*
X19916777Y-16026445D01*
X19916158Y-16027753D01*
X19915414Y-16028995D01*
X19914552Y-16030157D01*
X19913580Y-16031230D01*
X19912507Y-16032202D01*
X19911345Y-16033064D01*
X19910103Y-16033808D01*
X19908795Y-16034427D01*
X19907432Y-16034915D01*
X19906028Y-16035267D01*
X19904596Y-16035479D01*
X19903150Y-16035550D01*
X19868650Y-16035550D01*
X19867204Y-16035479D01*
X19865772Y-16035267D01*
X19864368Y-16034915D01*
X19863005Y-16034427D01*
X19861697Y-16033808D01*
X19860455Y-16033064D01*
X19859293Y-16032202D01*
X19858220Y-16031230D01*
X19857248Y-16030157D01*
X19856386Y-16028995D01*
X19855642Y-16027753D01*
X19855023Y-16026445D01*
X19854535Y-16025082D01*
X19854183Y-16023678D01*
X19853971Y-16022246D01*
X19853900Y-16020800D01*
X19853900Y-15991300D01*
X19853971Y-15989854D01*
X19854183Y-15988422D01*
X19854535Y-15987018D01*
X19855023Y-15985655D01*
X19855642Y-15984347D01*
X19856386Y-15983105D01*
X19857248Y-15981943D01*
X19858220Y-15980870D01*
X19859293Y-15979898D01*
X19860455Y-15979036D01*
X19861697Y-15978292D01*
X19863005Y-15977673D01*
X19864368Y-15977185D01*
X19865772Y-15976833D01*
X19867204Y-15976621D01*
X19868650Y-15976550D01*
X19903150Y-15976550D01*
X19904596Y-15976621D01*
X19904596Y-15976621D01*
G37*
D14*
X19885900Y-16006050D03*
D13*
G36*
X19904596Y-15879621D02*
X19906028Y-15879833D01*
X19907432Y-15880185D01*
X19908795Y-15880673D01*
X19910103Y-15881292D01*
X19911345Y-15882036D01*
X19912507Y-15882898D01*
X19913580Y-15883870D01*
X19914552Y-15884943D01*
X19915414Y-15886105D01*
X19916158Y-15887347D01*
X19916777Y-15888655D01*
X19917265Y-15890018D01*
X19917617Y-15891422D01*
X19917829Y-15892854D01*
X19917900Y-15894300D01*
X19917900Y-15923800D01*
X19917829Y-15925246D01*
X19917617Y-15926678D01*
X19917265Y-15928082D01*
X19916777Y-15929445D01*
X19916158Y-15930753D01*
X19915414Y-15931995D01*
X19914552Y-15933157D01*
X19913580Y-15934230D01*
X19912507Y-15935202D01*
X19911345Y-15936064D01*
X19910103Y-15936808D01*
X19908795Y-15937427D01*
X19907432Y-15937915D01*
X19906028Y-15938267D01*
X19904596Y-15938479D01*
X19903150Y-15938550D01*
X19868650Y-15938550D01*
X19867204Y-15938479D01*
X19865772Y-15938267D01*
X19864368Y-15937915D01*
X19863005Y-15937427D01*
X19861697Y-15936808D01*
X19860455Y-15936064D01*
X19859293Y-15935202D01*
X19858220Y-15934230D01*
X19857248Y-15933157D01*
X19856386Y-15931995D01*
X19855642Y-15930753D01*
X19855023Y-15929445D01*
X19854535Y-15928082D01*
X19854183Y-15926678D01*
X19853971Y-15925246D01*
X19853900Y-15923800D01*
X19853900Y-15894300D01*
X19853971Y-15892854D01*
X19854183Y-15891422D01*
X19854535Y-15890018D01*
X19855023Y-15888655D01*
X19855642Y-15887347D01*
X19856386Y-15886105D01*
X19857248Y-15884943D01*
X19858220Y-15883870D01*
X19859293Y-15882898D01*
X19860455Y-15882036D01*
X19861697Y-15881292D01*
X19863005Y-15880673D01*
X19864368Y-15880185D01*
X19865772Y-15879833D01*
X19867204Y-15879621D01*
X19868650Y-15879550D01*
X19903150Y-15879550D01*
X19904596Y-15879621D01*
X19904596Y-15879621D01*
G37*
D14*
X19885900Y-15909050D03*
G04 #@! TD*
D13*
G04 #@! TO.C,R60*
G36*
X18255696Y-15417621D02*
X18257128Y-15417833D01*
X18258532Y-15418185D01*
X18259895Y-15418673D01*
X18261203Y-15419292D01*
X18262445Y-15420036D01*
X18263607Y-15420898D01*
X18264680Y-15421870D01*
X18265652Y-15422943D01*
X18266514Y-15424105D01*
X18267258Y-15425347D01*
X18267877Y-15426655D01*
X18268365Y-15428018D01*
X18268717Y-15429422D01*
X18268929Y-15430854D01*
X18269000Y-15432300D01*
X18269000Y-15466800D01*
X18268929Y-15468246D01*
X18268717Y-15469678D01*
X18268365Y-15471082D01*
X18267877Y-15472445D01*
X18267258Y-15473753D01*
X18266514Y-15474995D01*
X18265652Y-15476157D01*
X18264680Y-15477230D01*
X18263607Y-15478202D01*
X18262445Y-15479064D01*
X18261203Y-15479808D01*
X18259895Y-15480427D01*
X18258532Y-15480915D01*
X18257128Y-15481267D01*
X18255696Y-15481479D01*
X18254250Y-15481550D01*
X18224750Y-15481550D01*
X18223304Y-15481479D01*
X18221872Y-15481267D01*
X18220468Y-15480915D01*
X18219105Y-15480427D01*
X18217797Y-15479808D01*
X18216555Y-15479064D01*
X18215393Y-15478202D01*
X18214320Y-15477230D01*
X18213348Y-15476157D01*
X18212486Y-15474995D01*
X18211742Y-15473753D01*
X18211123Y-15472445D01*
X18210635Y-15471082D01*
X18210283Y-15469678D01*
X18210071Y-15468246D01*
X18210000Y-15466800D01*
X18210000Y-15432300D01*
X18210071Y-15430854D01*
X18210283Y-15429422D01*
X18210635Y-15428018D01*
X18211123Y-15426655D01*
X18211742Y-15425347D01*
X18212486Y-15424105D01*
X18213348Y-15422943D01*
X18214320Y-15421870D01*
X18215393Y-15420898D01*
X18216555Y-15420036D01*
X18217797Y-15419292D01*
X18219105Y-15418673D01*
X18220468Y-15418185D01*
X18221872Y-15417833D01*
X18223304Y-15417621D01*
X18224750Y-15417550D01*
X18254250Y-15417550D01*
X18255696Y-15417621D01*
X18255696Y-15417621D01*
G37*
D14*
X18239500Y-15449550D03*
D13*
G36*
X18352696Y-15417621D02*
X18354128Y-15417833D01*
X18355532Y-15418185D01*
X18356895Y-15418673D01*
X18358203Y-15419292D01*
X18359445Y-15420036D01*
X18360607Y-15420898D01*
X18361680Y-15421870D01*
X18362652Y-15422943D01*
X18363514Y-15424105D01*
X18364258Y-15425347D01*
X18364877Y-15426655D01*
X18365365Y-15428018D01*
X18365717Y-15429422D01*
X18365929Y-15430854D01*
X18366000Y-15432300D01*
X18366000Y-15466800D01*
X18365929Y-15468246D01*
X18365717Y-15469678D01*
X18365365Y-15471082D01*
X18364877Y-15472445D01*
X18364258Y-15473753D01*
X18363514Y-15474995D01*
X18362652Y-15476157D01*
X18361680Y-15477230D01*
X18360607Y-15478202D01*
X18359445Y-15479064D01*
X18358203Y-15479808D01*
X18356895Y-15480427D01*
X18355532Y-15480915D01*
X18354128Y-15481267D01*
X18352696Y-15481479D01*
X18351250Y-15481550D01*
X18321750Y-15481550D01*
X18320304Y-15481479D01*
X18318872Y-15481267D01*
X18317468Y-15480915D01*
X18316105Y-15480427D01*
X18314797Y-15479808D01*
X18313555Y-15479064D01*
X18312393Y-15478202D01*
X18311320Y-15477230D01*
X18310348Y-15476157D01*
X18309486Y-15474995D01*
X18308742Y-15473753D01*
X18308123Y-15472445D01*
X18307635Y-15471082D01*
X18307283Y-15469678D01*
X18307071Y-15468246D01*
X18307000Y-15466800D01*
X18307000Y-15432300D01*
X18307071Y-15430854D01*
X18307283Y-15429422D01*
X18307635Y-15428018D01*
X18308123Y-15426655D01*
X18308742Y-15425347D01*
X18309486Y-15424105D01*
X18310348Y-15422943D01*
X18311320Y-15421870D01*
X18312393Y-15420898D01*
X18313555Y-15420036D01*
X18314797Y-15419292D01*
X18316105Y-15418673D01*
X18317468Y-15418185D01*
X18318872Y-15417833D01*
X18320304Y-15417621D01*
X18321750Y-15417550D01*
X18351250Y-15417550D01*
X18352696Y-15417621D01*
X18352696Y-15417621D01*
G37*
D14*
X18336500Y-15449550D03*
G04 #@! TD*
D13*
G04 #@! TO.C,R62*
G36*
X17290696Y-16129021D02*
X17292128Y-16129233D01*
X17293532Y-16129585D01*
X17294895Y-16130073D01*
X17296203Y-16130692D01*
X17297445Y-16131436D01*
X17298607Y-16132298D01*
X17299680Y-16133270D01*
X17300652Y-16134343D01*
X17301514Y-16135505D01*
X17302258Y-16136747D01*
X17302877Y-16138055D01*
X17303365Y-16139418D01*
X17303717Y-16140822D01*
X17303929Y-16142254D01*
X17304000Y-16143700D01*
X17304000Y-16173200D01*
X17303929Y-16174646D01*
X17303717Y-16176078D01*
X17303365Y-16177482D01*
X17302877Y-16178845D01*
X17302258Y-16180153D01*
X17301514Y-16181395D01*
X17300652Y-16182557D01*
X17299680Y-16183630D01*
X17298607Y-16184602D01*
X17297445Y-16185464D01*
X17296203Y-16186208D01*
X17294895Y-16186827D01*
X17293532Y-16187315D01*
X17292128Y-16187667D01*
X17290696Y-16187879D01*
X17289250Y-16187950D01*
X17254750Y-16187950D01*
X17253304Y-16187879D01*
X17251872Y-16187667D01*
X17250468Y-16187315D01*
X17249105Y-16186827D01*
X17247797Y-16186208D01*
X17246555Y-16185464D01*
X17245393Y-16184602D01*
X17244320Y-16183630D01*
X17243348Y-16182557D01*
X17242486Y-16181395D01*
X17241742Y-16180153D01*
X17241123Y-16178845D01*
X17240635Y-16177482D01*
X17240283Y-16176078D01*
X17240071Y-16174646D01*
X17240000Y-16173200D01*
X17240000Y-16143700D01*
X17240071Y-16142254D01*
X17240283Y-16140822D01*
X17240635Y-16139418D01*
X17241123Y-16138055D01*
X17241742Y-16136747D01*
X17242486Y-16135505D01*
X17243348Y-16134343D01*
X17244320Y-16133270D01*
X17245393Y-16132298D01*
X17246555Y-16131436D01*
X17247797Y-16130692D01*
X17249105Y-16130073D01*
X17250468Y-16129585D01*
X17251872Y-16129233D01*
X17253304Y-16129021D01*
X17254750Y-16128950D01*
X17289250Y-16128950D01*
X17290696Y-16129021D01*
X17290696Y-16129021D01*
G37*
D14*
X17272000Y-16158450D03*
D13*
G36*
X17290696Y-16032021D02*
X17292128Y-16032233D01*
X17293532Y-16032585D01*
X17294895Y-16033073D01*
X17296203Y-16033692D01*
X17297445Y-16034436D01*
X17298607Y-16035298D01*
X17299680Y-16036270D01*
X17300652Y-16037343D01*
X17301514Y-16038505D01*
X17302258Y-16039747D01*
X17302877Y-16041055D01*
X17303365Y-16042418D01*
X17303717Y-16043822D01*
X17303929Y-16045254D01*
X17304000Y-16046700D01*
X17304000Y-16076200D01*
X17303929Y-16077646D01*
X17303717Y-16079078D01*
X17303365Y-16080482D01*
X17302877Y-16081845D01*
X17302258Y-16083153D01*
X17301514Y-16084395D01*
X17300652Y-16085557D01*
X17299680Y-16086630D01*
X17298607Y-16087602D01*
X17297445Y-16088464D01*
X17296203Y-16089208D01*
X17294895Y-16089827D01*
X17293532Y-16090315D01*
X17292128Y-16090667D01*
X17290696Y-16090879D01*
X17289250Y-16090950D01*
X17254750Y-16090950D01*
X17253304Y-16090879D01*
X17251872Y-16090667D01*
X17250468Y-16090315D01*
X17249105Y-16089827D01*
X17247797Y-16089208D01*
X17246555Y-16088464D01*
X17245393Y-16087602D01*
X17244320Y-16086630D01*
X17243348Y-16085557D01*
X17242486Y-16084395D01*
X17241742Y-16083153D01*
X17241123Y-16081845D01*
X17240635Y-16080482D01*
X17240283Y-16079078D01*
X17240071Y-16077646D01*
X17240000Y-16076200D01*
X17240000Y-16046700D01*
X17240071Y-16045254D01*
X17240283Y-16043822D01*
X17240635Y-16042418D01*
X17241123Y-16041055D01*
X17241742Y-16039747D01*
X17242486Y-16038505D01*
X17243348Y-16037343D01*
X17244320Y-16036270D01*
X17245393Y-16035298D01*
X17246555Y-16034436D01*
X17247797Y-16033692D01*
X17249105Y-16033073D01*
X17250468Y-16032585D01*
X17251872Y-16032233D01*
X17253304Y-16032021D01*
X17254750Y-16031950D01*
X17289250Y-16031950D01*
X17290696Y-16032021D01*
X17290696Y-16032021D01*
G37*
D14*
X17272000Y-16061450D03*
G04 #@! TD*
D13*
G04 #@! TO.C,R61*
G36*
X17188896Y-15836721D02*
X17190328Y-15836933D01*
X17191732Y-15837285D01*
X17193095Y-15837773D01*
X17194403Y-15838392D01*
X17195645Y-15839136D01*
X17196807Y-15839998D01*
X17197880Y-15840970D01*
X17198852Y-15842043D01*
X17199714Y-15843205D01*
X17200458Y-15844447D01*
X17201077Y-15845755D01*
X17201565Y-15847118D01*
X17201917Y-15848522D01*
X17202129Y-15849954D01*
X17202200Y-15851400D01*
X17202200Y-15885900D01*
X17202129Y-15887346D01*
X17201917Y-15888778D01*
X17201565Y-15890182D01*
X17201077Y-15891545D01*
X17200458Y-15892853D01*
X17199714Y-15894095D01*
X17198852Y-15895257D01*
X17197880Y-15896330D01*
X17196807Y-15897302D01*
X17195645Y-15898164D01*
X17194403Y-15898908D01*
X17193095Y-15899527D01*
X17191732Y-15900015D01*
X17190328Y-15900367D01*
X17188896Y-15900579D01*
X17187450Y-15900650D01*
X17157950Y-15900650D01*
X17156504Y-15900579D01*
X17155072Y-15900367D01*
X17153668Y-15900015D01*
X17152305Y-15899527D01*
X17150997Y-15898908D01*
X17149755Y-15898164D01*
X17148593Y-15897302D01*
X17147520Y-15896330D01*
X17146548Y-15895257D01*
X17145686Y-15894095D01*
X17144942Y-15892853D01*
X17144323Y-15891545D01*
X17143835Y-15890182D01*
X17143483Y-15888778D01*
X17143271Y-15887346D01*
X17143200Y-15885900D01*
X17143200Y-15851400D01*
X17143271Y-15849954D01*
X17143483Y-15848522D01*
X17143835Y-15847118D01*
X17144323Y-15845755D01*
X17144942Y-15844447D01*
X17145686Y-15843205D01*
X17146548Y-15842043D01*
X17147520Y-15840970D01*
X17148593Y-15839998D01*
X17149755Y-15839136D01*
X17150997Y-15838392D01*
X17152305Y-15837773D01*
X17153668Y-15837285D01*
X17155072Y-15836933D01*
X17156504Y-15836721D01*
X17157950Y-15836650D01*
X17187450Y-15836650D01*
X17188896Y-15836721D01*
X17188896Y-15836721D01*
G37*
D14*
X17172700Y-15868650D03*
D13*
G36*
X17285896Y-15836721D02*
X17287328Y-15836933D01*
X17288732Y-15837285D01*
X17290095Y-15837773D01*
X17291403Y-15838392D01*
X17292645Y-15839136D01*
X17293807Y-15839998D01*
X17294880Y-15840970D01*
X17295852Y-15842043D01*
X17296714Y-15843205D01*
X17297458Y-15844447D01*
X17298077Y-15845755D01*
X17298565Y-15847118D01*
X17298917Y-15848522D01*
X17299129Y-15849954D01*
X17299200Y-15851400D01*
X17299200Y-15885900D01*
X17299129Y-15887346D01*
X17298917Y-15888778D01*
X17298565Y-15890182D01*
X17298077Y-15891545D01*
X17297458Y-15892853D01*
X17296714Y-15894095D01*
X17295852Y-15895257D01*
X17294880Y-15896330D01*
X17293807Y-15897302D01*
X17292645Y-15898164D01*
X17291403Y-15898908D01*
X17290095Y-15899527D01*
X17288732Y-15900015D01*
X17287328Y-15900367D01*
X17285896Y-15900579D01*
X17284450Y-15900650D01*
X17254950Y-15900650D01*
X17253504Y-15900579D01*
X17252072Y-15900367D01*
X17250668Y-15900015D01*
X17249305Y-15899527D01*
X17247997Y-15898908D01*
X17246755Y-15898164D01*
X17245593Y-15897302D01*
X17244520Y-15896330D01*
X17243548Y-15895257D01*
X17242686Y-15894095D01*
X17241942Y-15892853D01*
X17241323Y-15891545D01*
X17240835Y-15890182D01*
X17240483Y-15888778D01*
X17240271Y-15887346D01*
X17240200Y-15885900D01*
X17240200Y-15851400D01*
X17240271Y-15849954D01*
X17240483Y-15848522D01*
X17240835Y-15847118D01*
X17241323Y-15845755D01*
X17241942Y-15844447D01*
X17242686Y-15843205D01*
X17243548Y-15842043D01*
X17244520Y-15840970D01*
X17245593Y-15839998D01*
X17246755Y-15839136D01*
X17247997Y-15838392D01*
X17249305Y-15837773D01*
X17250668Y-15837285D01*
X17252072Y-15836933D01*
X17253504Y-15836721D01*
X17254950Y-15836650D01*
X17284450Y-15836650D01*
X17285896Y-15836721D01*
X17285896Y-15836721D01*
G37*
D14*
X17269700Y-15868650D03*
G04 #@! TD*
D15*
G04 #@! TO.C,U4*
X17746600Y-16004750D03*
X17746600Y-15939750D03*
X17746600Y-15873750D03*
X17746600Y-15808750D03*
X18016600Y-15808750D03*
X18016600Y-15873750D03*
X18016600Y-15939750D03*
X18016600Y-16004750D03*
G04 #@! TD*
G04 #@! TO.C,U5*
X19070700Y-16004750D03*
X19070700Y-15939750D03*
X19070700Y-15873750D03*
X19070700Y-15808750D03*
X18800700Y-15808750D03*
X18800700Y-15873750D03*
X18800700Y-15939750D03*
X18800700Y-16004750D03*
G04 #@! TD*
D16*
G04 #@! TO.C,L1*
X8912300Y-10439400D03*
X8702300Y-10439400D03*
G04 #@! TD*
G04 #@! TO.C,L8*
X18008600Y-14970350D03*
X18008600Y-14760350D03*
G04 #@! TD*
G04 #@! TO.C,L9*
X19900900Y-16170050D03*
X19900900Y-16380050D03*
G04 #@! TD*
D17*
G04 #@! TO.C,U33*
X20286000Y-11154700D03*
X20286000Y-11219700D03*
X20286000Y-11284700D03*
X20286000Y-11349700D03*
X19846000Y-11349700D03*
X19846000Y-11284700D03*
X19846000Y-11219700D03*
X19846000Y-11154700D03*
G04 #@! TD*
G04 #@! TO.C,U36*
X24248400Y-11154700D03*
X24248400Y-11219700D03*
X24248400Y-11284700D03*
X24248400Y-11349700D03*
X23808400Y-11349700D03*
X23808400Y-11284700D03*
X23808400Y-11219700D03*
X23808400Y-11154700D03*
G04 #@! TD*
G04 #@! TO.C,U37*
X25569200Y-11154700D03*
X25569200Y-11219700D03*
X25569200Y-11284700D03*
X25569200Y-11349700D03*
X25129200Y-11349700D03*
X25129200Y-11284700D03*
X25129200Y-11219700D03*
X25129200Y-11154700D03*
G04 #@! TD*
G04 #@! TO.C,U35*
X18787400Y-11154700D03*
X18787400Y-11219700D03*
X18787400Y-11284700D03*
X18787400Y-11349700D03*
X18347400Y-11349700D03*
X18347400Y-11284700D03*
X18347400Y-11219700D03*
X18347400Y-11154700D03*
G04 #@! TD*
G04 #@! TO.C,U32*
X15426400Y-12797500D03*
X15426400Y-12732500D03*
X15426400Y-12667500D03*
X15426400Y-12602500D03*
X15866400Y-12602500D03*
X15866400Y-12667500D03*
X15866400Y-12732500D03*
X15866400Y-12797500D03*
G04 #@! TD*
G04 #@! TO.C,U30*
X22902200Y-11154700D03*
X22902200Y-11219700D03*
X22902200Y-11284700D03*
X22902200Y-11349700D03*
X22462200Y-11349700D03*
X22462200Y-11284700D03*
X22462200Y-11219700D03*
X22462200Y-11154700D03*
G04 #@! TD*
G04 #@! TO.C,U31*
X21598200Y-11154700D03*
X21598200Y-11219700D03*
X21598200Y-11284700D03*
X21598200Y-11349700D03*
X21158200Y-11349700D03*
X21158200Y-11284700D03*
X21158200Y-11219700D03*
X21158200Y-11154700D03*
G04 #@! TD*
G04 #@! TO.C,U34*
X17441200Y-11154700D03*
X17441200Y-11219700D03*
X17441200Y-11284700D03*
X17441200Y-11349700D03*
X17001200Y-11349700D03*
X17001200Y-11284700D03*
X17001200Y-11219700D03*
X17001200Y-11154700D03*
G04 #@! TD*
D18*
G04 #@! TO.C,IC1*
X22666900Y-15254500D03*
X22666900Y-15174500D03*
X22666900Y-15094500D03*
X22666900Y-15014500D03*
X22666900Y-14934500D03*
X22666900Y-14854500D03*
X22666900Y-14774500D03*
D19*
X22811900Y-14549500D03*
X22891900Y-14549500D03*
X22971900Y-14549500D03*
X23051900Y-14549500D03*
X23131900Y-14549500D03*
X23211900Y-14549500D03*
X23291900Y-14549500D03*
D18*
X23516900Y-14694500D03*
X23516900Y-14774500D03*
X23516900Y-14854500D03*
X23516900Y-14934500D03*
X23516900Y-15014500D03*
X23516900Y-15094500D03*
X23516900Y-15174500D03*
D19*
X23371900Y-15399500D03*
X23291900Y-15399500D03*
X23211900Y-15399500D03*
X23131900Y-15399500D03*
X23051900Y-15399500D03*
X22971900Y-15399500D03*
X22891900Y-15399500D03*
X22811900Y-15399500D03*
D18*
X23516900Y-15254500D03*
D19*
X23371900Y-14549500D03*
D18*
X22666900Y-14694500D03*
G04 #@! TD*
D20*
G04 #@! TO.C,Y4*
X18770600Y-13716000D03*
X19735800Y-13716000D03*
G04 #@! TD*
D21*
G04 #@! TO.C,C45*
X20961100Y-11899900D03*
X20771100Y-11899900D03*
G04 #@! TD*
D22*
G04 #@! TO.C,C48*
X20607200Y-15798800D03*
X20777200Y-15798800D03*
G04 #@! TD*
G04 #@! TO.C,C49*
X20794800Y-14681200D03*
X20624800Y-14681200D03*
G04 #@! TD*
G04 #@! TO.C,C24*
X23698200Y-9398000D03*
X23528200Y-9398000D03*
G04 #@! TD*
D23*
G04 #@! TO.C,C3*
X9423400Y-10054500D03*
X9423400Y-9884500D03*
G04 #@! TD*
D22*
G04 #@! TO.C,C4*
X8597900Y-11074400D03*
X8427900Y-11074400D03*
G04 #@! TD*
D23*
G04 #@! TO.C,C5*
X9169400Y-9884500D03*
X9169400Y-10054500D03*
G04 #@! TD*
D22*
G04 #@! TO.C,C29*
X11829823Y-10401300D03*
X11999823Y-10401300D03*
G04 #@! TD*
D23*
G04 #@! TO.C,C2*
X9359900Y-13699400D03*
X9359900Y-13529400D03*
G04 #@! TD*
D22*
G04 #@! TO.C,C26*
X13661300Y-6400800D03*
X13491300Y-6400800D03*
G04 #@! TD*
G04 #@! TO.C,C6*
X7416800Y-15900400D03*
X7246800Y-15900400D03*
G04 #@! TD*
G04 #@! TO.C,C22*
X25015100Y-9410700D03*
X24845100Y-9410700D03*
G04 #@! TD*
G04 #@! TO.C,C21*
X17987100Y-6553200D03*
X18157100Y-6553200D03*
G04 #@! TD*
G04 #@! TO.C,C20*
X21001900Y-9398000D03*
X20831900Y-9398000D03*
G04 #@! TD*
G04 #@! TO.C,C16*
X19681100Y-9385300D03*
X19511100Y-9385300D03*
G04 #@! TD*
G04 #@! TO.C,C15*
X15078800Y-14452600D03*
X15248800Y-14452600D03*
G04 #@! TD*
G04 #@! TO.C,C13*
X25721400Y-3450500D03*
X25891400Y-3450500D03*
G04 #@! TD*
G04 #@! TO.C,C12*
X7412900Y-16446500D03*
X7242900Y-16446500D03*
G04 #@! TD*
D23*
G04 #@! TO.C,C1*
X10477500Y-13529400D03*
X10477500Y-13699400D03*
G04 #@! TD*
G04 #@! TO.C,C10*
X23571200Y-15858400D03*
X23571200Y-15688400D03*
G04 #@! TD*
D22*
G04 #@! TO.C,C9*
X18207900Y-9359900D03*
X18037900Y-9359900D03*
G04 #@! TD*
G04 #@! TO.C,C8*
X7440523Y-16929100D03*
X7270523Y-16929100D03*
G04 #@! TD*
G04 #@! TO.C,C18*
X16836300Y-9321800D03*
X16666300Y-9321800D03*
G04 #@! TD*
D21*
G04 #@! TO.C,C47*
X18903700Y-11899900D03*
X18713700Y-11899900D03*
G04 #@! TD*
G04 #@! TO.C,C46*
X23018500Y-11874500D03*
X22828500Y-11874500D03*
G04 #@! TD*
G04 #@! TO.C,C28*
X22206200Y-9347200D03*
X22396200Y-9347200D03*
G04 #@! TD*
G04 #@! TO.C,C31*
X26161500Y-4140200D03*
X25971500Y-4140200D03*
G04 #@! TD*
G04 #@! TO.C,C30*
X26651200Y-3225800D03*
X26841200Y-3225800D03*
G04 #@! TD*
D24*
G04 #@! TO.C,U3*
X9166300Y-10456800D03*
X9246300Y-10456800D03*
X9326300Y-10456800D03*
X9406300Y-10456800D03*
X9486300Y-10456800D03*
X9566300Y-10456800D03*
X9646300Y-10456800D03*
X9726300Y-10456800D03*
X9806300Y-10456800D03*
X9886300Y-10456800D03*
X9966300Y-10456800D03*
X10046300Y-10456800D03*
X10126300Y-10456800D03*
X10206300Y-10456800D03*
X10286300Y-10456800D03*
X10366300Y-10456800D03*
D25*
X10536300Y-10626800D03*
X10536300Y-10706800D03*
X10536300Y-10786800D03*
X10536300Y-10866800D03*
X10536300Y-10946800D03*
X10536300Y-11026800D03*
X10536300Y-11106800D03*
X10536300Y-11186800D03*
X10536300Y-11266800D03*
X10536300Y-11346800D03*
X10536300Y-11426800D03*
X10536300Y-11506800D03*
X10536300Y-11586800D03*
X10536300Y-11666800D03*
X10536300Y-11746800D03*
X10536300Y-11826800D03*
D24*
X10366300Y-11996800D03*
X10286300Y-11996800D03*
X10206300Y-11996800D03*
X10126300Y-11996800D03*
X10046300Y-11996800D03*
X9966300Y-11996800D03*
X9886300Y-11996800D03*
X9806300Y-11996800D03*
X9726300Y-11996800D03*
X9646300Y-11996800D03*
X9566300Y-11996800D03*
X9486300Y-11996800D03*
X9406300Y-11996800D03*
X9326300Y-11996800D03*
X9246300Y-11996800D03*
X9166300Y-11996800D03*
D25*
X8996300Y-11826800D03*
X8996300Y-11746800D03*
X8996300Y-11666800D03*
X8996300Y-11586800D03*
X8996300Y-11506800D03*
X8996300Y-11426800D03*
X8996300Y-11346800D03*
X8996300Y-11266800D03*
X8996300Y-11186800D03*
X8996300Y-11106800D03*
X8996300Y-11026800D03*
X8996300Y-10946800D03*
X8996300Y-10866800D03*
X8996300Y-10786800D03*
X8996300Y-10706800D03*
X8996300Y-10626800D03*
G04 #@! TD*
D13*
G04 #@! TO.C,R176*
G36*
X11958919Y-11303571D02*
X11960351Y-11303783D01*
X11961755Y-11304135D01*
X11963118Y-11304623D01*
X11964426Y-11305242D01*
X11965668Y-11305986D01*
X11966830Y-11306848D01*
X11967903Y-11307820D01*
X11968875Y-11308893D01*
X11969737Y-11310055D01*
X11970481Y-11311297D01*
X11971100Y-11312605D01*
X11971588Y-11313968D01*
X11971940Y-11315372D01*
X11972152Y-11316804D01*
X11972223Y-11318250D01*
X11972223Y-11347750D01*
X11972152Y-11349196D01*
X11971940Y-11350628D01*
X11971588Y-11352032D01*
X11971100Y-11353395D01*
X11970481Y-11354703D01*
X11969737Y-11355945D01*
X11968875Y-11357107D01*
X11967903Y-11358180D01*
X11966830Y-11359152D01*
X11965668Y-11360014D01*
X11964426Y-11360758D01*
X11963118Y-11361377D01*
X11961755Y-11361865D01*
X11960351Y-11362217D01*
X11958919Y-11362429D01*
X11957473Y-11362500D01*
X11922973Y-11362500D01*
X11921527Y-11362429D01*
X11920096Y-11362217D01*
X11918691Y-11361865D01*
X11917329Y-11361377D01*
X11916020Y-11360758D01*
X11914778Y-11360014D01*
X11913616Y-11359152D01*
X11912543Y-11358180D01*
X11911571Y-11357107D01*
X11910709Y-11355945D01*
X11909965Y-11354703D01*
X11909346Y-11353395D01*
X11908858Y-11352032D01*
X11908507Y-11350628D01*
X11908294Y-11349196D01*
X11908223Y-11347750D01*
X11908223Y-11318250D01*
X11908294Y-11316804D01*
X11908507Y-11315372D01*
X11908858Y-11313968D01*
X11909346Y-11312605D01*
X11909965Y-11311297D01*
X11910709Y-11310055D01*
X11911571Y-11308893D01*
X11912543Y-11307820D01*
X11913616Y-11306848D01*
X11914778Y-11305986D01*
X11916020Y-11305242D01*
X11917329Y-11304623D01*
X11918691Y-11304135D01*
X11920096Y-11303783D01*
X11921527Y-11303571D01*
X11922973Y-11303500D01*
X11957473Y-11303500D01*
X11958919Y-11303571D01*
X11958919Y-11303571D01*
G37*
D14*
X11940223Y-11333000D03*
D13*
G36*
X11958919Y-11400571D02*
X11960351Y-11400783D01*
X11961755Y-11401135D01*
X11963118Y-11401623D01*
X11964426Y-11402242D01*
X11965668Y-11402986D01*
X11966830Y-11403848D01*
X11967903Y-11404820D01*
X11968875Y-11405893D01*
X11969737Y-11407055D01*
X11970481Y-11408297D01*
X11971100Y-11409605D01*
X11971588Y-11410968D01*
X11971940Y-11412372D01*
X11972152Y-11413804D01*
X11972223Y-11415250D01*
X11972223Y-11444750D01*
X11972152Y-11446196D01*
X11971940Y-11447628D01*
X11971588Y-11449032D01*
X11971100Y-11450395D01*
X11970481Y-11451703D01*
X11969737Y-11452945D01*
X11968875Y-11454107D01*
X11967903Y-11455180D01*
X11966830Y-11456152D01*
X11965668Y-11457014D01*
X11964426Y-11457758D01*
X11963118Y-11458377D01*
X11961755Y-11458865D01*
X11960351Y-11459217D01*
X11958919Y-11459429D01*
X11957473Y-11459500D01*
X11922973Y-11459500D01*
X11921527Y-11459429D01*
X11920096Y-11459217D01*
X11918691Y-11458865D01*
X11917329Y-11458377D01*
X11916020Y-11457758D01*
X11914778Y-11457014D01*
X11913616Y-11456152D01*
X11912543Y-11455180D01*
X11911571Y-11454107D01*
X11910709Y-11452945D01*
X11909965Y-11451703D01*
X11909346Y-11450395D01*
X11908858Y-11449032D01*
X11908507Y-11447628D01*
X11908294Y-11446196D01*
X11908223Y-11444750D01*
X11908223Y-11415250D01*
X11908294Y-11413804D01*
X11908507Y-11412372D01*
X11908858Y-11410968D01*
X11909346Y-11409605D01*
X11909965Y-11408297D01*
X11910709Y-11407055D01*
X11911571Y-11405893D01*
X11912543Y-11404820D01*
X11913616Y-11403848D01*
X11914778Y-11402986D01*
X11916020Y-11402242D01*
X11917329Y-11401623D01*
X11918691Y-11401135D01*
X11920096Y-11400783D01*
X11921527Y-11400571D01*
X11922973Y-11400500D01*
X11957473Y-11400500D01*
X11958919Y-11400571D01*
X11958919Y-11400571D01*
G37*
D14*
X11940223Y-11430000D03*
G04 #@! TD*
D13*
G04 #@! TO.C,R175*
G36*
X11962986Y-11613217D02*
X11964417Y-11613430D01*
X11965822Y-11613781D01*
X11967184Y-11614269D01*
X11968493Y-11614888D01*
X11969735Y-11615632D01*
X11970897Y-11616494D01*
X11971970Y-11617466D01*
X11972942Y-11618539D01*
X11973804Y-11619702D01*
X11974548Y-11620943D01*
X11975167Y-11622252D01*
X11975655Y-11623615D01*
X11976006Y-11625019D01*
X11976219Y-11626450D01*
X11976290Y-11627896D01*
X11976290Y-11657396D01*
X11976219Y-11658842D01*
X11976006Y-11660274D01*
X11975655Y-11661678D01*
X11975167Y-11663041D01*
X11974548Y-11664349D01*
X11973804Y-11665591D01*
X11972942Y-11666754D01*
X11971970Y-11667826D01*
X11970897Y-11668798D01*
X11969735Y-11669660D01*
X11968493Y-11670405D01*
X11967184Y-11671023D01*
X11965822Y-11671511D01*
X11964417Y-11671863D01*
X11962986Y-11672075D01*
X11961540Y-11672146D01*
X11927040Y-11672146D01*
X11925594Y-11672075D01*
X11924162Y-11671863D01*
X11922758Y-11671511D01*
X11921395Y-11671023D01*
X11920087Y-11670405D01*
X11918845Y-11669660D01*
X11917683Y-11668798D01*
X11916610Y-11667826D01*
X11915638Y-11666754D01*
X11914776Y-11665591D01*
X11914032Y-11664349D01*
X11913413Y-11663041D01*
X11912925Y-11661678D01*
X11912573Y-11660274D01*
X11912361Y-11658842D01*
X11912290Y-11657396D01*
X11912290Y-11627896D01*
X11912361Y-11626450D01*
X11912573Y-11625019D01*
X11912925Y-11623615D01*
X11913413Y-11622252D01*
X11914032Y-11620943D01*
X11914776Y-11619702D01*
X11915638Y-11618539D01*
X11916610Y-11617466D01*
X11917683Y-11616494D01*
X11918845Y-11615632D01*
X11920087Y-11614888D01*
X11921395Y-11614269D01*
X11922758Y-11613781D01*
X11924162Y-11613430D01*
X11925594Y-11613217D01*
X11927040Y-11613146D01*
X11961540Y-11613146D01*
X11962986Y-11613217D01*
X11962986Y-11613217D01*
G37*
D14*
X11944290Y-11642646D03*
D13*
G36*
X11962986Y-11710217D02*
X11964417Y-11710430D01*
X11965822Y-11710781D01*
X11967184Y-11711269D01*
X11968493Y-11711888D01*
X11969735Y-11712632D01*
X11970897Y-11713494D01*
X11971970Y-11714466D01*
X11972942Y-11715539D01*
X11973804Y-11716702D01*
X11974548Y-11717943D01*
X11975167Y-11719252D01*
X11975655Y-11720615D01*
X11976006Y-11722019D01*
X11976219Y-11723450D01*
X11976290Y-11724896D01*
X11976290Y-11754396D01*
X11976219Y-11755842D01*
X11976006Y-11757274D01*
X11975655Y-11758678D01*
X11975167Y-11760041D01*
X11974548Y-11761349D01*
X11973804Y-11762591D01*
X11972942Y-11763754D01*
X11971970Y-11764826D01*
X11970897Y-11765798D01*
X11969735Y-11766660D01*
X11968493Y-11767405D01*
X11967184Y-11768023D01*
X11965822Y-11768511D01*
X11964417Y-11768863D01*
X11962986Y-11769075D01*
X11961540Y-11769146D01*
X11927040Y-11769146D01*
X11925594Y-11769075D01*
X11924162Y-11768863D01*
X11922758Y-11768511D01*
X11921395Y-11768023D01*
X11920087Y-11767405D01*
X11918845Y-11766660D01*
X11917683Y-11765798D01*
X11916610Y-11764826D01*
X11915638Y-11763754D01*
X11914776Y-11762591D01*
X11914032Y-11761349D01*
X11913413Y-11760041D01*
X11912925Y-11758678D01*
X11912573Y-11757274D01*
X11912361Y-11755842D01*
X11912290Y-11754396D01*
X11912290Y-11724896D01*
X11912361Y-11723450D01*
X11912573Y-11722019D01*
X11912925Y-11720615D01*
X11913413Y-11719252D01*
X11914032Y-11717943D01*
X11914776Y-11716702D01*
X11915638Y-11715539D01*
X11916610Y-11714466D01*
X11917683Y-11713494D01*
X11918845Y-11712632D01*
X11920087Y-11711888D01*
X11921395Y-11711269D01*
X11922758Y-11710781D01*
X11924162Y-11710430D01*
X11925594Y-11710217D01*
X11927040Y-11710146D01*
X11961540Y-11710146D01*
X11962986Y-11710217D01*
X11962986Y-11710217D01*
G37*
D14*
X11944290Y-11739646D03*
G04 #@! TD*
D13*
G04 #@! TO.C,R172*
G36*
X11232796Y-12553971D02*
X11234228Y-12554183D01*
X11235632Y-12554535D01*
X11236995Y-12555023D01*
X11238303Y-12555642D01*
X11239545Y-12556386D01*
X11240707Y-12557248D01*
X11241780Y-12558220D01*
X11242752Y-12559293D01*
X11243614Y-12560455D01*
X11244358Y-12561697D01*
X11244977Y-12563005D01*
X11245465Y-12564368D01*
X11245817Y-12565772D01*
X11246029Y-12567204D01*
X11246100Y-12568650D01*
X11246100Y-12598150D01*
X11246029Y-12599596D01*
X11245817Y-12601028D01*
X11245465Y-12602432D01*
X11244977Y-12603795D01*
X11244358Y-12605103D01*
X11243614Y-12606345D01*
X11242752Y-12607507D01*
X11241780Y-12608580D01*
X11240707Y-12609552D01*
X11239545Y-12610414D01*
X11238303Y-12611158D01*
X11236995Y-12611777D01*
X11235632Y-12612265D01*
X11234228Y-12612617D01*
X11232796Y-12612829D01*
X11231350Y-12612900D01*
X11196850Y-12612900D01*
X11195404Y-12612829D01*
X11193972Y-12612617D01*
X11192568Y-12612265D01*
X11191205Y-12611777D01*
X11189897Y-12611158D01*
X11188655Y-12610414D01*
X11187493Y-12609552D01*
X11186420Y-12608580D01*
X11185448Y-12607507D01*
X11184586Y-12606345D01*
X11183842Y-12605103D01*
X11183223Y-12603795D01*
X11182735Y-12602432D01*
X11182383Y-12601028D01*
X11182171Y-12599596D01*
X11182100Y-12598150D01*
X11182100Y-12568650D01*
X11182171Y-12567204D01*
X11182383Y-12565772D01*
X11182735Y-12564368D01*
X11183223Y-12563005D01*
X11183842Y-12561697D01*
X11184586Y-12560455D01*
X11185448Y-12559293D01*
X11186420Y-12558220D01*
X11187493Y-12557248D01*
X11188655Y-12556386D01*
X11189897Y-12555642D01*
X11191205Y-12555023D01*
X11192568Y-12554535D01*
X11193972Y-12554183D01*
X11195404Y-12553971D01*
X11196850Y-12553900D01*
X11231350Y-12553900D01*
X11232796Y-12553971D01*
X11232796Y-12553971D01*
G37*
D14*
X11214100Y-12583400D03*
D13*
G36*
X11232796Y-12456971D02*
X11234228Y-12457183D01*
X11235632Y-12457535D01*
X11236995Y-12458023D01*
X11238303Y-12458642D01*
X11239545Y-12459386D01*
X11240707Y-12460248D01*
X11241780Y-12461220D01*
X11242752Y-12462293D01*
X11243614Y-12463455D01*
X11244358Y-12464697D01*
X11244977Y-12466005D01*
X11245465Y-12467368D01*
X11245817Y-12468772D01*
X11246029Y-12470204D01*
X11246100Y-12471650D01*
X11246100Y-12501150D01*
X11246029Y-12502596D01*
X11245817Y-12504028D01*
X11245465Y-12505432D01*
X11244977Y-12506795D01*
X11244358Y-12508103D01*
X11243614Y-12509345D01*
X11242752Y-12510507D01*
X11241780Y-12511580D01*
X11240707Y-12512552D01*
X11239545Y-12513414D01*
X11238303Y-12514158D01*
X11236995Y-12514777D01*
X11235632Y-12515265D01*
X11234228Y-12515617D01*
X11232796Y-12515829D01*
X11231350Y-12515900D01*
X11196850Y-12515900D01*
X11195404Y-12515829D01*
X11193972Y-12515617D01*
X11192568Y-12515265D01*
X11191205Y-12514777D01*
X11189897Y-12514158D01*
X11188655Y-12513414D01*
X11187493Y-12512552D01*
X11186420Y-12511580D01*
X11185448Y-12510507D01*
X11184586Y-12509345D01*
X11183842Y-12508103D01*
X11183223Y-12506795D01*
X11182735Y-12505432D01*
X11182383Y-12504028D01*
X11182171Y-12502596D01*
X11182100Y-12501150D01*
X11182100Y-12471650D01*
X11182171Y-12470204D01*
X11182383Y-12468772D01*
X11182735Y-12467368D01*
X11183223Y-12466005D01*
X11183842Y-12464697D01*
X11184586Y-12463455D01*
X11185448Y-12462293D01*
X11186420Y-12461220D01*
X11187493Y-12460248D01*
X11188655Y-12459386D01*
X11189897Y-12458642D01*
X11191205Y-12458023D01*
X11192568Y-12457535D01*
X11193972Y-12457183D01*
X11195404Y-12456971D01*
X11196850Y-12456900D01*
X11231350Y-12456900D01*
X11232796Y-12456971D01*
X11232796Y-12456971D01*
G37*
D14*
X11214100Y-12486400D03*
G04 #@! TD*
D13*
G04 #@! TO.C,R171*
G36*
X11353386Y-12466417D02*
X11354817Y-12466630D01*
X11356222Y-12466981D01*
X11357584Y-12467469D01*
X11358893Y-12468088D01*
X11360135Y-12468832D01*
X11361297Y-12469694D01*
X11362370Y-12470666D01*
X11363342Y-12471739D01*
X11364204Y-12472902D01*
X11364948Y-12474143D01*
X11365567Y-12475452D01*
X11366055Y-12476815D01*
X11366406Y-12478219D01*
X11366619Y-12479650D01*
X11366690Y-12481096D01*
X11366690Y-12510596D01*
X11366619Y-12512042D01*
X11366406Y-12513474D01*
X11366055Y-12514878D01*
X11365567Y-12516241D01*
X11364948Y-12517549D01*
X11364204Y-12518791D01*
X11363342Y-12519954D01*
X11362370Y-12521026D01*
X11361297Y-12521998D01*
X11360135Y-12522860D01*
X11358893Y-12523605D01*
X11357584Y-12524223D01*
X11356222Y-12524711D01*
X11354817Y-12525063D01*
X11353386Y-12525275D01*
X11351940Y-12525346D01*
X11317440Y-12525346D01*
X11315994Y-12525275D01*
X11314562Y-12525063D01*
X11313158Y-12524711D01*
X11311795Y-12524223D01*
X11310487Y-12523605D01*
X11309245Y-12522860D01*
X11308083Y-12521998D01*
X11307010Y-12521026D01*
X11306038Y-12519954D01*
X11305176Y-12518791D01*
X11304432Y-12517549D01*
X11303813Y-12516241D01*
X11303325Y-12514878D01*
X11302973Y-12513474D01*
X11302761Y-12512042D01*
X11302690Y-12510596D01*
X11302690Y-12481096D01*
X11302761Y-12479650D01*
X11302973Y-12478219D01*
X11303325Y-12476815D01*
X11303813Y-12475452D01*
X11304432Y-12474143D01*
X11305176Y-12472902D01*
X11306038Y-12471739D01*
X11307010Y-12470666D01*
X11308083Y-12469694D01*
X11309245Y-12468832D01*
X11310487Y-12468088D01*
X11311795Y-12467469D01*
X11313158Y-12466981D01*
X11314562Y-12466630D01*
X11315994Y-12466417D01*
X11317440Y-12466346D01*
X11351940Y-12466346D01*
X11353386Y-12466417D01*
X11353386Y-12466417D01*
G37*
D14*
X11334690Y-12495846D03*
D13*
G36*
X11353386Y-12563417D02*
X11354817Y-12563630D01*
X11356222Y-12563981D01*
X11357584Y-12564469D01*
X11358893Y-12565088D01*
X11360135Y-12565832D01*
X11361297Y-12566694D01*
X11362370Y-12567666D01*
X11363342Y-12568739D01*
X11364204Y-12569902D01*
X11364948Y-12571143D01*
X11365567Y-12572452D01*
X11366055Y-12573815D01*
X11366406Y-12575219D01*
X11366619Y-12576650D01*
X11366690Y-12578096D01*
X11366690Y-12607596D01*
X11366619Y-12609042D01*
X11366406Y-12610474D01*
X11366055Y-12611878D01*
X11365567Y-12613241D01*
X11364948Y-12614549D01*
X11364204Y-12615791D01*
X11363342Y-12616954D01*
X11362370Y-12618026D01*
X11361297Y-12618998D01*
X11360135Y-12619860D01*
X11358893Y-12620605D01*
X11357584Y-12621223D01*
X11356222Y-12621711D01*
X11354817Y-12622063D01*
X11353386Y-12622275D01*
X11351940Y-12622346D01*
X11317440Y-12622346D01*
X11315994Y-12622275D01*
X11314562Y-12622063D01*
X11313158Y-12621711D01*
X11311795Y-12621223D01*
X11310487Y-12620605D01*
X11309245Y-12619860D01*
X11308083Y-12618998D01*
X11307010Y-12618026D01*
X11306038Y-12616954D01*
X11305176Y-12615791D01*
X11304432Y-12614549D01*
X11303813Y-12613241D01*
X11303325Y-12611878D01*
X11302973Y-12610474D01*
X11302761Y-12609042D01*
X11302690Y-12607596D01*
X11302690Y-12578096D01*
X11302761Y-12576650D01*
X11302973Y-12575219D01*
X11303325Y-12573815D01*
X11303813Y-12572452D01*
X11304432Y-12571143D01*
X11305176Y-12569902D01*
X11306038Y-12568739D01*
X11307010Y-12567666D01*
X11308083Y-12566694D01*
X11309245Y-12565832D01*
X11310487Y-12565088D01*
X11311795Y-12564469D01*
X11313158Y-12563981D01*
X11314562Y-12563630D01*
X11315994Y-12563417D01*
X11317440Y-12563346D01*
X11351940Y-12563346D01*
X11353386Y-12563417D01*
X11353386Y-12563417D01*
G37*
D14*
X11334690Y-12592846D03*
G04 #@! TD*
D13*
G04 #@! TO.C,R10*
G36*
X20110096Y-13115071D02*
X20111528Y-13115283D01*
X20112932Y-13115635D01*
X20114295Y-13116123D01*
X20115603Y-13116742D01*
X20116845Y-13117486D01*
X20118007Y-13118348D01*
X20119080Y-13119320D01*
X20120052Y-13120393D01*
X20120914Y-13121555D01*
X20121658Y-13122797D01*
X20122277Y-13124105D01*
X20122765Y-13125468D01*
X20123117Y-13126872D01*
X20123329Y-13128304D01*
X20123400Y-13129750D01*
X20123400Y-13159250D01*
X20123329Y-13160696D01*
X20123117Y-13162128D01*
X20122765Y-13163532D01*
X20122277Y-13164895D01*
X20121658Y-13166203D01*
X20120914Y-13167445D01*
X20120052Y-13168607D01*
X20119080Y-13169680D01*
X20118007Y-13170652D01*
X20116845Y-13171514D01*
X20115603Y-13172258D01*
X20114295Y-13172877D01*
X20112932Y-13173365D01*
X20111528Y-13173717D01*
X20110096Y-13173929D01*
X20108650Y-13174000D01*
X20074150Y-13174000D01*
X20072704Y-13173929D01*
X20071272Y-13173717D01*
X20069868Y-13173365D01*
X20068505Y-13172877D01*
X20067197Y-13172258D01*
X20065955Y-13171514D01*
X20064793Y-13170652D01*
X20063720Y-13169680D01*
X20062748Y-13168607D01*
X20061886Y-13167445D01*
X20061142Y-13166203D01*
X20060523Y-13164895D01*
X20060035Y-13163532D01*
X20059683Y-13162128D01*
X20059471Y-13160696D01*
X20059400Y-13159250D01*
X20059400Y-13129750D01*
X20059471Y-13128304D01*
X20059683Y-13126872D01*
X20060035Y-13125468D01*
X20060523Y-13124105D01*
X20061142Y-13122797D01*
X20061886Y-13121555D01*
X20062748Y-13120393D01*
X20063720Y-13119320D01*
X20064793Y-13118348D01*
X20065955Y-13117486D01*
X20067197Y-13116742D01*
X20068505Y-13116123D01*
X20069868Y-13115635D01*
X20071272Y-13115283D01*
X20072704Y-13115071D01*
X20074150Y-13115000D01*
X20108650Y-13115000D01*
X20110096Y-13115071D01*
X20110096Y-13115071D01*
G37*
D14*
X20091400Y-13144500D03*
D13*
G36*
X20110096Y-13212071D02*
X20111528Y-13212283D01*
X20112932Y-13212635D01*
X20114295Y-13213123D01*
X20115603Y-13213742D01*
X20116845Y-13214486D01*
X20118007Y-13215348D01*
X20119080Y-13216320D01*
X20120052Y-13217393D01*
X20120914Y-13218555D01*
X20121658Y-13219797D01*
X20122277Y-13221105D01*
X20122765Y-13222468D01*
X20123117Y-13223872D01*
X20123329Y-13225304D01*
X20123400Y-13226750D01*
X20123400Y-13256250D01*
X20123329Y-13257696D01*
X20123117Y-13259128D01*
X20122765Y-13260532D01*
X20122277Y-13261895D01*
X20121658Y-13263203D01*
X20120914Y-13264445D01*
X20120052Y-13265607D01*
X20119080Y-13266680D01*
X20118007Y-13267652D01*
X20116845Y-13268514D01*
X20115603Y-13269258D01*
X20114295Y-13269877D01*
X20112932Y-13270365D01*
X20111528Y-13270717D01*
X20110096Y-13270929D01*
X20108650Y-13271000D01*
X20074150Y-13271000D01*
X20072704Y-13270929D01*
X20071272Y-13270717D01*
X20069868Y-13270365D01*
X20068505Y-13269877D01*
X20067197Y-13269258D01*
X20065955Y-13268514D01*
X20064793Y-13267652D01*
X20063720Y-13266680D01*
X20062748Y-13265607D01*
X20061886Y-13264445D01*
X20061142Y-13263203D01*
X20060523Y-13261895D01*
X20060035Y-13260532D01*
X20059683Y-13259128D01*
X20059471Y-13257696D01*
X20059400Y-13256250D01*
X20059400Y-13226750D01*
X20059471Y-13225304D01*
X20059683Y-13223872D01*
X20060035Y-13222468D01*
X20060523Y-13221105D01*
X20061142Y-13219797D01*
X20061886Y-13218555D01*
X20062748Y-13217393D01*
X20063720Y-13216320D01*
X20064793Y-13215348D01*
X20065955Y-13214486D01*
X20067197Y-13213742D01*
X20068505Y-13213123D01*
X20069868Y-13212635D01*
X20071272Y-13212283D01*
X20072704Y-13212071D01*
X20074150Y-13212000D01*
X20108650Y-13212000D01*
X20110096Y-13212071D01*
X20110096Y-13212071D01*
G37*
D14*
X20091400Y-13241500D03*
G04 #@! TD*
D13*
G04 #@! TO.C,R9*
G36*
X19703696Y-13117371D02*
X19705128Y-13117583D01*
X19706532Y-13117935D01*
X19707895Y-13118423D01*
X19709203Y-13119042D01*
X19710445Y-13119786D01*
X19711607Y-13120648D01*
X19712680Y-13121620D01*
X19713652Y-13122693D01*
X19714514Y-13123855D01*
X19715258Y-13125097D01*
X19715877Y-13126405D01*
X19716365Y-13127768D01*
X19716717Y-13129172D01*
X19716929Y-13130604D01*
X19717000Y-13132050D01*
X19717000Y-13161550D01*
X19716929Y-13162996D01*
X19716717Y-13164428D01*
X19716365Y-13165832D01*
X19715877Y-13167195D01*
X19715258Y-13168503D01*
X19714514Y-13169745D01*
X19713652Y-13170907D01*
X19712680Y-13171980D01*
X19711607Y-13172952D01*
X19710445Y-13173814D01*
X19709203Y-13174558D01*
X19707895Y-13175177D01*
X19706532Y-13175665D01*
X19705128Y-13176017D01*
X19703696Y-13176229D01*
X19702250Y-13176300D01*
X19667750Y-13176300D01*
X19666304Y-13176229D01*
X19664872Y-13176017D01*
X19663468Y-13175665D01*
X19662105Y-13175177D01*
X19660797Y-13174558D01*
X19659555Y-13173814D01*
X19658393Y-13172952D01*
X19657320Y-13171980D01*
X19656348Y-13170907D01*
X19655486Y-13169745D01*
X19654742Y-13168503D01*
X19654123Y-13167195D01*
X19653635Y-13165832D01*
X19653283Y-13164428D01*
X19653071Y-13162996D01*
X19653000Y-13161550D01*
X19653000Y-13132050D01*
X19653071Y-13130604D01*
X19653283Y-13129172D01*
X19653635Y-13127768D01*
X19654123Y-13126405D01*
X19654742Y-13125097D01*
X19655486Y-13123855D01*
X19656348Y-13122693D01*
X19657320Y-13121620D01*
X19658393Y-13120648D01*
X19659555Y-13119786D01*
X19660797Y-13119042D01*
X19662105Y-13118423D01*
X19663468Y-13117935D01*
X19664872Y-13117583D01*
X19666304Y-13117371D01*
X19667750Y-13117300D01*
X19702250Y-13117300D01*
X19703696Y-13117371D01*
X19703696Y-13117371D01*
G37*
D14*
X19685000Y-13146800D03*
D13*
G36*
X19703696Y-13214371D02*
X19705128Y-13214583D01*
X19706532Y-13214935D01*
X19707895Y-13215423D01*
X19709203Y-13216042D01*
X19710445Y-13216786D01*
X19711607Y-13217648D01*
X19712680Y-13218620D01*
X19713652Y-13219693D01*
X19714514Y-13220855D01*
X19715258Y-13222097D01*
X19715877Y-13223405D01*
X19716365Y-13224768D01*
X19716717Y-13226172D01*
X19716929Y-13227604D01*
X19717000Y-13229050D01*
X19717000Y-13258550D01*
X19716929Y-13259996D01*
X19716717Y-13261428D01*
X19716365Y-13262832D01*
X19715877Y-13264195D01*
X19715258Y-13265503D01*
X19714514Y-13266745D01*
X19713652Y-13267907D01*
X19712680Y-13268980D01*
X19711607Y-13269952D01*
X19710445Y-13270814D01*
X19709203Y-13271558D01*
X19707895Y-13272177D01*
X19706532Y-13272665D01*
X19705128Y-13273017D01*
X19703696Y-13273229D01*
X19702250Y-13273300D01*
X19667750Y-13273300D01*
X19666304Y-13273229D01*
X19664872Y-13273017D01*
X19663468Y-13272665D01*
X19662105Y-13272177D01*
X19660797Y-13271558D01*
X19659555Y-13270814D01*
X19658393Y-13269952D01*
X19657320Y-13268980D01*
X19656348Y-13267907D01*
X19655486Y-13266745D01*
X19654742Y-13265503D01*
X19654123Y-13264195D01*
X19653635Y-13262832D01*
X19653283Y-13261428D01*
X19653071Y-13259996D01*
X19653000Y-13258550D01*
X19653000Y-13229050D01*
X19653071Y-13227604D01*
X19653283Y-13226172D01*
X19653635Y-13224768D01*
X19654123Y-13223405D01*
X19654742Y-13222097D01*
X19655486Y-13220855D01*
X19656348Y-13219693D01*
X19657320Y-13218620D01*
X19658393Y-13217648D01*
X19659555Y-13216786D01*
X19660797Y-13216042D01*
X19662105Y-13215423D01*
X19663468Y-13214935D01*
X19664872Y-13214583D01*
X19666304Y-13214371D01*
X19667750Y-13214300D01*
X19702250Y-13214300D01*
X19703696Y-13214371D01*
X19703696Y-13214371D01*
G37*
D14*
X19685000Y-13243800D03*
G04 #@! TD*
D13*
G04 #@! TO.C,R8*
G36*
X24174096Y-13053871D02*
X24175528Y-13054083D01*
X24176932Y-13054435D01*
X24178295Y-13054923D01*
X24179603Y-13055542D01*
X24180845Y-13056286D01*
X24182007Y-13057148D01*
X24183080Y-13058120D01*
X24184052Y-13059193D01*
X24184914Y-13060355D01*
X24185658Y-13061597D01*
X24186277Y-13062905D01*
X24186765Y-13064268D01*
X24187117Y-13065672D01*
X24187329Y-13067104D01*
X24187400Y-13068550D01*
X24187400Y-13098050D01*
X24187329Y-13099496D01*
X24187117Y-13100928D01*
X24186765Y-13102332D01*
X24186277Y-13103695D01*
X24185658Y-13105003D01*
X24184914Y-13106245D01*
X24184052Y-13107407D01*
X24183080Y-13108480D01*
X24182007Y-13109452D01*
X24180845Y-13110314D01*
X24179603Y-13111058D01*
X24178295Y-13111677D01*
X24176932Y-13112165D01*
X24175528Y-13112517D01*
X24174096Y-13112729D01*
X24172650Y-13112800D01*
X24138150Y-13112800D01*
X24136704Y-13112729D01*
X24135272Y-13112517D01*
X24133868Y-13112165D01*
X24132505Y-13111677D01*
X24131197Y-13111058D01*
X24129955Y-13110314D01*
X24128793Y-13109452D01*
X24127720Y-13108480D01*
X24126748Y-13107407D01*
X24125886Y-13106245D01*
X24125142Y-13105003D01*
X24124523Y-13103695D01*
X24124035Y-13102332D01*
X24123683Y-13100928D01*
X24123471Y-13099496D01*
X24123400Y-13098050D01*
X24123400Y-13068550D01*
X24123471Y-13067104D01*
X24123683Y-13065672D01*
X24124035Y-13064268D01*
X24124523Y-13062905D01*
X24125142Y-13061597D01*
X24125886Y-13060355D01*
X24126748Y-13059193D01*
X24127720Y-13058120D01*
X24128793Y-13057148D01*
X24129955Y-13056286D01*
X24131197Y-13055542D01*
X24132505Y-13054923D01*
X24133868Y-13054435D01*
X24135272Y-13054083D01*
X24136704Y-13053871D01*
X24138150Y-13053800D01*
X24172650Y-13053800D01*
X24174096Y-13053871D01*
X24174096Y-13053871D01*
G37*
D14*
X24155400Y-13083300D03*
D13*
G36*
X24174096Y-13150871D02*
X24175528Y-13151083D01*
X24176932Y-13151435D01*
X24178295Y-13151923D01*
X24179603Y-13152542D01*
X24180845Y-13153286D01*
X24182007Y-13154148D01*
X24183080Y-13155120D01*
X24184052Y-13156193D01*
X24184914Y-13157355D01*
X24185658Y-13158597D01*
X24186277Y-13159905D01*
X24186765Y-13161268D01*
X24187117Y-13162672D01*
X24187329Y-13164104D01*
X24187400Y-13165550D01*
X24187400Y-13195050D01*
X24187329Y-13196496D01*
X24187117Y-13197928D01*
X24186765Y-13199332D01*
X24186277Y-13200695D01*
X24185658Y-13202003D01*
X24184914Y-13203245D01*
X24184052Y-13204407D01*
X24183080Y-13205480D01*
X24182007Y-13206452D01*
X24180845Y-13207314D01*
X24179603Y-13208058D01*
X24178295Y-13208677D01*
X24176932Y-13209165D01*
X24175528Y-13209517D01*
X24174096Y-13209729D01*
X24172650Y-13209800D01*
X24138150Y-13209800D01*
X24136704Y-13209729D01*
X24135272Y-13209517D01*
X24133868Y-13209165D01*
X24132505Y-13208677D01*
X24131197Y-13208058D01*
X24129955Y-13207314D01*
X24128793Y-13206452D01*
X24127720Y-13205480D01*
X24126748Y-13204407D01*
X24125886Y-13203245D01*
X24125142Y-13202003D01*
X24124523Y-13200695D01*
X24124035Y-13199332D01*
X24123683Y-13197928D01*
X24123471Y-13196496D01*
X24123400Y-13195050D01*
X24123400Y-13165550D01*
X24123471Y-13164104D01*
X24123683Y-13162672D01*
X24124035Y-13161268D01*
X24124523Y-13159905D01*
X24125142Y-13158597D01*
X24125886Y-13157355D01*
X24126748Y-13156193D01*
X24127720Y-13155120D01*
X24128793Y-13154148D01*
X24129955Y-13153286D01*
X24131197Y-13152542D01*
X24132505Y-13151923D01*
X24133868Y-13151435D01*
X24135272Y-13151083D01*
X24136704Y-13150871D01*
X24138150Y-13150800D01*
X24172650Y-13150800D01*
X24174096Y-13150871D01*
X24174096Y-13150871D01*
G37*
D14*
X24155400Y-13180300D03*
G04 #@! TD*
D13*
G04 #@! TO.C,R7*
G36*
X22078596Y-13168171D02*
X22080028Y-13168383D01*
X22081432Y-13168735D01*
X22082795Y-13169223D01*
X22084103Y-13169842D01*
X22085345Y-13170586D01*
X22086507Y-13171448D01*
X22087580Y-13172420D01*
X22088552Y-13173493D01*
X22089414Y-13174655D01*
X22090158Y-13175897D01*
X22090777Y-13177205D01*
X22091265Y-13178568D01*
X22091617Y-13179972D01*
X22091829Y-13181404D01*
X22091900Y-13182850D01*
X22091900Y-13212350D01*
X22091829Y-13213796D01*
X22091617Y-13215228D01*
X22091265Y-13216632D01*
X22090777Y-13217995D01*
X22090158Y-13219303D01*
X22089414Y-13220545D01*
X22088552Y-13221707D01*
X22087580Y-13222780D01*
X22086507Y-13223752D01*
X22085345Y-13224614D01*
X22084103Y-13225358D01*
X22082795Y-13225977D01*
X22081432Y-13226465D01*
X22080028Y-13226817D01*
X22078596Y-13227029D01*
X22077150Y-13227100D01*
X22042650Y-13227100D01*
X22041204Y-13227029D01*
X22039772Y-13226817D01*
X22038368Y-13226465D01*
X22037005Y-13225977D01*
X22035697Y-13225358D01*
X22034455Y-13224614D01*
X22033293Y-13223752D01*
X22032220Y-13222780D01*
X22031248Y-13221707D01*
X22030386Y-13220545D01*
X22029642Y-13219303D01*
X22029023Y-13217995D01*
X22028535Y-13216632D01*
X22028183Y-13215228D01*
X22027971Y-13213796D01*
X22027900Y-13212350D01*
X22027900Y-13182850D01*
X22027971Y-13181404D01*
X22028183Y-13179972D01*
X22028535Y-13178568D01*
X22029023Y-13177205D01*
X22029642Y-13175897D01*
X22030386Y-13174655D01*
X22031248Y-13173493D01*
X22032220Y-13172420D01*
X22033293Y-13171448D01*
X22034455Y-13170586D01*
X22035697Y-13169842D01*
X22037005Y-13169223D01*
X22038368Y-13168735D01*
X22039772Y-13168383D01*
X22041204Y-13168171D01*
X22042650Y-13168100D01*
X22077150Y-13168100D01*
X22078596Y-13168171D01*
X22078596Y-13168171D01*
G37*
D14*
X22059900Y-13197600D03*
D13*
G36*
X22078596Y-13265171D02*
X22080028Y-13265383D01*
X22081432Y-13265735D01*
X22082795Y-13266223D01*
X22084103Y-13266842D01*
X22085345Y-13267586D01*
X22086507Y-13268448D01*
X22087580Y-13269420D01*
X22088552Y-13270493D01*
X22089414Y-13271655D01*
X22090158Y-13272897D01*
X22090777Y-13274205D01*
X22091265Y-13275568D01*
X22091617Y-13276972D01*
X22091829Y-13278404D01*
X22091900Y-13279850D01*
X22091900Y-13309350D01*
X22091829Y-13310796D01*
X22091617Y-13312228D01*
X22091265Y-13313632D01*
X22090777Y-13314995D01*
X22090158Y-13316303D01*
X22089414Y-13317545D01*
X22088552Y-13318707D01*
X22087580Y-13319780D01*
X22086507Y-13320752D01*
X22085345Y-13321614D01*
X22084103Y-13322358D01*
X22082795Y-13322977D01*
X22081432Y-13323465D01*
X22080028Y-13323817D01*
X22078596Y-13324029D01*
X22077150Y-13324100D01*
X22042650Y-13324100D01*
X22041204Y-13324029D01*
X22039772Y-13323817D01*
X22038368Y-13323465D01*
X22037005Y-13322977D01*
X22035697Y-13322358D01*
X22034455Y-13321614D01*
X22033293Y-13320752D01*
X22032220Y-13319780D01*
X22031248Y-13318707D01*
X22030386Y-13317545D01*
X22029642Y-13316303D01*
X22029023Y-13314995D01*
X22028535Y-13313632D01*
X22028183Y-13312228D01*
X22027971Y-13310796D01*
X22027900Y-13309350D01*
X22027900Y-13279850D01*
X22027971Y-13278404D01*
X22028183Y-13276972D01*
X22028535Y-13275568D01*
X22029023Y-13274205D01*
X22029642Y-13272897D01*
X22030386Y-13271655D01*
X22031248Y-13270493D01*
X22032220Y-13269420D01*
X22033293Y-13268448D01*
X22034455Y-13267586D01*
X22035697Y-13266842D01*
X22037005Y-13266223D01*
X22038368Y-13265735D01*
X22039772Y-13265383D01*
X22041204Y-13265171D01*
X22042650Y-13265100D01*
X22077150Y-13265100D01*
X22078596Y-13265171D01*
X22078596Y-13265171D01*
G37*
D14*
X22059900Y-13294600D03*
G04 #@! TD*
D13*
G04 #@! TO.C,R6*
G36*
X23754996Y-13041171D02*
X23756428Y-13041383D01*
X23757832Y-13041735D01*
X23759195Y-13042223D01*
X23760503Y-13042842D01*
X23761745Y-13043586D01*
X23762907Y-13044448D01*
X23763980Y-13045420D01*
X23764952Y-13046493D01*
X23765814Y-13047655D01*
X23766558Y-13048897D01*
X23767177Y-13050205D01*
X23767665Y-13051568D01*
X23768017Y-13052972D01*
X23768229Y-13054404D01*
X23768300Y-13055850D01*
X23768300Y-13085350D01*
X23768229Y-13086796D01*
X23768017Y-13088228D01*
X23767665Y-13089632D01*
X23767177Y-13090995D01*
X23766558Y-13092303D01*
X23765814Y-13093545D01*
X23764952Y-13094707D01*
X23763980Y-13095780D01*
X23762907Y-13096752D01*
X23761745Y-13097614D01*
X23760503Y-13098358D01*
X23759195Y-13098977D01*
X23757832Y-13099465D01*
X23756428Y-13099817D01*
X23754996Y-13100029D01*
X23753550Y-13100100D01*
X23719050Y-13100100D01*
X23717604Y-13100029D01*
X23716172Y-13099817D01*
X23714768Y-13099465D01*
X23713405Y-13098977D01*
X23712097Y-13098358D01*
X23710855Y-13097614D01*
X23709693Y-13096752D01*
X23708620Y-13095780D01*
X23707648Y-13094707D01*
X23706786Y-13093545D01*
X23706042Y-13092303D01*
X23705423Y-13090995D01*
X23704935Y-13089632D01*
X23704583Y-13088228D01*
X23704371Y-13086796D01*
X23704300Y-13085350D01*
X23704300Y-13055850D01*
X23704371Y-13054404D01*
X23704583Y-13052972D01*
X23704935Y-13051568D01*
X23705423Y-13050205D01*
X23706042Y-13048897D01*
X23706786Y-13047655D01*
X23707648Y-13046493D01*
X23708620Y-13045420D01*
X23709693Y-13044448D01*
X23710855Y-13043586D01*
X23712097Y-13042842D01*
X23713405Y-13042223D01*
X23714768Y-13041735D01*
X23716172Y-13041383D01*
X23717604Y-13041171D01*
X23719050Y-13041100D01*
X23753550Y-13041100D01*
X23754996Y-13041171D01*
X23754996Y-13041171D01*
G37*
D14*
X23736300Y-13070600D03*
D13*
G36*
X23754996Y-13138171D02*
X23756428Y-13138383D01*
X23757832Y-13138735D01*
X23759195Y-13139223D01*
X23760503Y-13139842D01*
X23761745Y-13140586D01*
X23762907Y-13141448D01*
X23763980Y-13142420D01*
X23764952Y-13143493D01*
X23765814Y-13144655D01*
X23766558Y-13145897D01*
X23767177Y-13147205D01*
X23767665Y-13148568D01*
X23768017Y-13149972D01*
X23768229Y-13151404D01*
X23768300Y-13152850D01*
X23768300Y-13182350D01*
X23768229Y-13183796D01*
X23768017Y-13185228D01*
X23767665Y-13186632D01*
X23767177Y-13187995D01*
X23766558Y-13189303D01*
X23765814Y-13190545D01*
X23764952Y-13191707D01*
X23763980Y-13192780D01*
X23762907Y-13193752D01*
X23761745Y-13194614D01*
X23760503Y-13195358D01*
X23759195Y-13195977D01*
X23757832Y-13196465D01*
X23756428Y-13196817D01*
X23754996Y-13197029D01*
X23753550Y-13197100D01*
X23719050Y-13197100D01*
X23717604Y-13197029D01*
X23716172Y-13196817D01*
X23714768Y-13196465D01*
X23713405Y-13195977D01*
X23712097Y-13195358D01*
X23710855Y-13194614D01*
X23709693Y-13193752D01*
X23708620Y-13192780D01*
X23707648Y-13191707D01*
X23706786Y-13190545D01*
X23706042Y-13189303D01*
X23705423Y-13187995D01*
X23704935Y-13186632D01*
X23704583Y-13185228D01*
X23704371Y-13183796D01*
X23704300Y-13182350D01*
X23704300Y-13152850D01*
X23704371Y-13151404D01*
X23704583Y-13149972D01*
X23704935Y-13148568D01*
X23705423Y-13147205D01*
X23706042Y-13145897D01*
X23706786Y-13144655D01*
X23707648Y-13143493D01*
X23708620Y-13142420D01*
X23709693Y-13141448D01*
X23710855Y-13140586D01*
X23712097Y-13139842D01*
X23713405Y-13139223D01*
X23714768Y-13138735D01*
X23716172Y-13138383D01*
X23717604Y-13138171D01*
X23719050Y-13138100D01*
X23753550Y-13138100D01*
X23754996Y-13138171D01*
X23754996Y-13138171D01*
G37*
D14*
X23736300Y-13167600D03*
G04 #@! TD*
D13*
G04 #@! TO.C,R5*
G36*
X21697596Y-13180871D02*
X21699028Y-13181083D01*
X21700432Y-13181435D01*
X21701795Y-13181923D01*
X21703103Y-13182542D01*
X21704345Y-13183286D01*
X21705507Y-13184148D01*
X21706580Y-13185120D01*
X21707552Y-13186193D01*
X21708414Y-13187355D01*
X21709158Y-13188597D01*
X21709777Y-13189905D01*
X21710265Y-13191268D01*
X21710617Y-13192672D01*
X21710829Y-13194104D01*
X21710900Y-13195550D01*
X21710900Y-13225050D01*
X21710829Y-13226496D01*
X21710617Y-13227928D01*
X21710265Y-13229332D01*
X21709777Y-13230695D01*
X21709158Y-13232003D01*
X21708414Y-13233245D01*
X21707552Y-13234407D01*
X21706580Y-13235480D01*
X21705507Y-13236452D01*
X21704345Y-13237314D01*
X21703103Y-13238058D01*
X21701795Y-13238677D01*
X21700432Y-13239165D01*
X21699028Y-13239517D01*
X21697596Y-13239729D01*
X21696150Y-13239800D01*
X21661650Y-13239800D01*
X21660204Y-13239729D01*
X21658772Y-13239517D01*
X21657368Y-13239165D01*
X21656005Y-13238677D01*
X21654697Y-13238058D01*
X21653455Y-13237314D01*
X21652293Y-13236452D01*
X21651220Y-13235480D01*
X21650248Y-13234407D01*
X21649386Y-13233245D01*
X21648642Y-13232003D01*
X21648023Y-13230695D01*
X21647535Y-13229332D01*
X21647183Y-13227928D01*
X21646971Y-13226496D01*
X21646900Y-13225050D01*
X21646900Y-13195550D01*
X21646971Y-13194104D01*
X21647183Y-13192672D01*
X21647535Y-13191268D01*
X21648023Y-13189905D01*
X21648642Y-13188597D01*
X21649386Y-13187355D01*
X21650248Y-13186193D01*
X21651220Y-13185120D01*
X21652293Y-13184148D01*
X21653455Y-13183286D01*
X21654697Y-13182542D01*
X21656005Y-13181923D01*
X21657368Y-13181435D01*
X21658772Y-13181083D01*
X21660204Y-13180871D01*
X21661650Y-13180800D01*
X21696150Y-13180800D01*
X21697596Y-13180871D01*
X21697596Y-13180871D01*
G37*
D14*
X21678900Y-13210300D03*
D13*
G36*
X21697596Y-13277871D02*
X21699028Y-13278083D01*
X21700432Y-13278435D01*
X21701795Y-13278923D01*
X21703103Y-13279542D01*
X21704345Y-13280286D01*
X21705507Y-13281148D01*
X21706580Y-13282120D01*
X21707552Y-13283193D01*
X21708414Y-13284355D01*
X21709158Y-13285597D01*
X21709777Y-13286905D01*
X21710265Y-13288268D01*
X21710617Y-13289672D01*
X21710829Y-13291104D01*
X21710900Y-13292550D01*
X21710900Y-13322050D01*
X21710829Y-13323496D01*
X21710617Y-13324928D01*
X21710265Y-13326332D01*
X21709777Y-13327695D01*
X21709158Y-13329003D01*
X21708414Y-13330245D01*
X21707552Y-13331407D01*
X21706580Y-13332480D01*
X21705507Y-13333452D01*
X21704345Y-13334314D01*
X21703103Y-13335058D01*
X21701795Y-13335677D01*
X21700432Y-13336165D01*
X21699028Y-13336517D01*
X21697596Y-13336729D01*
X21696150Y-13336800D01*
X21661650Y-13336800D01*
X21660204Y-13336729D01*
X21658772Y-13336517D01*
X21657368Y-13336165D01*
X21656005Y-13335677D01*
X21654697Y-13335058D01*
X21653455Y-13334314D01*
X21652293Y-13333452D01*
X21651220Y-13332480D01*
X21650248Y-13331407D01*
X21649386Y-13330245D01*
X21648642Y-13329003D01*
X21648023Y-13327695D01*
X21647535Y-13326332D01*
X21647183Y-13324928D01*
X21646971Y-13323496D01*
X21646900Y-13322050D01*
X21646900Y-13292550D01*
X21646971Y-13291104D01*
X21647183Y-13289672D01*
X21647535Y-13288268D01*
X21648023Y-13286905D01*
X21648642Y-13285597D01*
X21649386Y-13284355D01*
X21650248Y-13283193D01*
X21651220Y-13282120D01*
X21652293Y-13281148D01*
X21653455Y-13280286D01*
X21654697Y-13279542D01*
X21656005Y-13278923D01*
X21657368Y-13278435D01*
X21658772Y-13278083D01*
X21660204Y-13277871D01*
X21661650Y-13277800D01*
X21696150Y-13277800D01*
X21697596Y-13277871D01*
X21697596Y-13277871D01*
G37*
D14*
X21678900Y-13307300D03*
G04 #@! TD*
D13*
G04 #@! TO.C,R3*
G36*
X9886396Y-13379271D02*
X9887828Y-13379483D01*
X9889232Y-13379835D01*
X9890595Y-13380323D01*
X9891903Y-13380942D01*
X9893145Y-13381686D01*
X9894307Y-13382548D01*
X9895380Y-13383520D01*
X9896352Y-13384593D01*
X9897214Y-13385755D01*
X9897958Y-13386997D01*
X9898577Y-13388305D01*
X9899065Y-13389668D01*
X9899417Y-13391072D01*
X9899629Y-13392504D01*
X9899700Y-13393950D01*
X9899700Y-13428450D01*
X9899629Y-13429896D01*
X9899417Y-13431328D01*
X9899065Y-13432732D01*
X9898577Y-13434095D01*
X9897958Y-13435403D01*
X9897214Y-13436645D01*
X9896352Y-13437807D01*
X9895380Y-13438880D01*
X9894307Y-13439852D01*
X9893145Y-13440714D01*
X9891903Y-13441458D01*
X9890595Y-13442077D01*
X9889232Y-13442565D01*
X9887828Y-13442917D01*
X9886396Y-13443129D01*
X9884950Y-13443200D01*
X9855450Y-13443200D01*
X9854004Y-13443129D01*
X9852572Y-13442917D01*
X9851168Y-13442565D01*
X9849805Y-13442077D01*
X9848497Y-13441458D01*
X9847255Y-13440714D01*
X9846093Y-13439852D01*
X9845020Y-13438880D01*
X9844048Y-13437807D01*
X9843186Y-13436645D01*
X9842442Y-13435403D01*
X9841823Y-13434095D01*
X9841335Y-13432732D01*
X9840983Y-13431328D01*
X9840771Y-13429896D01*
X9840700Y-13428450D01*
X9840700Y-13393950D01*
X9840771Y-13392504D01*
X9840983Y-13391072D01*
X9841335Y-13389668D01*
X9841823Y-13388305D01*
X9842442Y-13386997D01*
X9843186Y-13385755D01*
X9844048Y-13384593D01*
X9845020Y-13383520D01*
X9846093Y-13382548D01*
X9847255Y-13381686D01*
X9848497Y-13380942D01*
X9849805Y-13380323D01*
X9851168Y-13379835D01*
X9852572Y-13379483D01*
X9854004Y-13379271D01*
X9855450Y-13379200D01*
X9884950Y-13379200D01*
X9886396Y-13379271D01*
X9886396Y-13379271D01*
G37*
D14*
X9870200Y-13411200D03*
D13*
G36*
X9983396Y-13379271D02*
X9984828Y-13379483D01*
X9986232Y-13379835D01*
X9987595Y-13380323D01*
X9988903Y-13380942D01*
X9990145Y-13381686D01*
X9991307Y-13382548D01*
X9992380Y-13383520D01*
X9993352Y-13384593D01*
X9994214Y-13385755D01*
X9994958Y-13386997D01*
X9995577Y-13388305D01*
X9996065Y-13389668D01*
X9996417Y-13391072D01*
X9996629Y-13392504D01*
X9996700Y-13393950D01*
X9996700Y-13428450D01*
X9996629Y-13429896D01*
X9996417Y-13431328D01*
X9996065Y-13432732D01*
X9995577Y-13434095D01*
X9994958Y-13435403D01*
X9994214Y-13436645D01*
X9993352Y-13437807D01*
X9992380Y-13438880D01*
X9991307Y-13439852D01*
X9990145Y-13440714D01*
X9988903Y-13441458D01*
X9987595Y-13442077D01*
X9986232Y-13442565D01*
X9984828Y-13442917D01*
X9983396Y-13443129D01*
X9981950Y-13443200D01*
X9952450Y-13443200D01*
X9951004Y-13443129D01*
X9949572Y-13442917D01*
X9948168Y-13442565D01*
X9946805Y-13442077D01*
X9945497Y-13441458D01*
X9944255Y-13440714D01*
X9943093Y-13439852D01*
X9942020Y-13438880D01*
X9941048Y-13437807D01*
X9940186Y-13436645D01*
X9939442Y-13435403D01*
X9938823Y-13434095D01*
X9938335Y-13432732D01*
X9937983Y-13431328D01*
X9937771Y-13429896D01*
X9937700Y-13428450D01*
X9937700Y-13393950D01*
X9937771Y-13392504D01*
X9937983Y-13391072D01*
X9938335Y-13389668D01*
X9938823Y-13388305D01*
X9939442Y-13386997D01*
X9940186Y-13385755D01*
X9941048Y-13384593D01*
X9942020Y-13383520D01*
X9943093Y-13382548D01*
X9944255Y-13381686D01*
X9945497Y-13380942D01*
X9946805Y-13380323D01*
X9948168Y-13379835D01*
X9949572Y-13379483D01*
X9951004Y-13379271D01*
X9952450Y-13379200D01*
X9981950Y-13379200D01*
X9983396Y-13379271D01*
X9983396Y-13379271D01*
G37*
D14*
X9967200Y-13411200D03*
G04 #@! TD*
D13*
G04 #@! TO.C,R2*
G36*
X8778886Y-16842406D02*
X8780317Y-16842618D01*
X8781721Y-16842970D01*
X8783084Y-16843458D01*
X8784393Y-16844076D01*
X8785634Y-16844821D01*
X8786797Y-16845683D01*
X8787870Y-16846655D01*
X8788842Y-16847727D01*
X8789704Y-16848890D01*
X8790448Y-16850132D01*
X8791067Y-16851440D01*
X8791555Y-16852803D01*
X8791906Y-16854207D01*
X8792119Y-16855639D01*
X8792190Y-16857085D01*
X8792190Y-16891585D01*
X8792119Y-16893031D01*
X8791906Y-16894462D01*
X8791555Y-16895866D01*
X8791067Y-16897229D01*
X8790448Y-16898538D01*
X8789704Y-16899779D01*
X8788842Y-16900942D01*
X8787870Y-16902015D01*
X8786797Y-16902987D01*
X8785634Y-16903849D01*
X8784393Y-16904593D01*
X8783084Y-16905212D01*
X8781721Y-16905700D01*
X8780317Y-16906051D01*
X8778886Y-16906264D01*
X8777440Y-16906335D01*
X8747940Y-16906335D01*
X8746494Y-16906264D01*
X8745062Y-16906051D01*
X8743658Y-16905700D01*
X8742295Y-16905212D01*
X8740987Y-16904593D01*
X8739745Y-16903849D01*
X8738582Y-16902987D01*
X8737510Y-16902015D01*
X8736538Y-16900942D01*
X8735676Y-16899779D01*
X8734931Y-16898538D01*
X8734313Y-16897229D01*
X8733825Y-16895866D01*
X8733473Y-16894462D01*
X8733261Y-16893031D01*
X8733190Y-16891585D01*
X8733190Y-16857085D01*
X8733261Y-16855639D01*
X8733473Y-16854207D01*
X8733825Y-16852803D01*
X8734313Y-16851440D01*
X8734931Y-16850132D01*
X8735676Y-16848890D01*
X8736538Y-16847727D01*
X8737510Y-16846655D01*
X8738582Y-16845683D01*
X8739745Y-16844821D01*
X8740987Y-16844076D01*
X8742295Y-16843458D01*
X8743658Y-16842970D01*
X8745062Y-16842618D01*
X8746494Y-16842406D01*
X8747940Y-16842335D01*
X8777440Y-16842335D01*
X8778886Y-16842406D01*
X8778886Y-16842406D01*
G37*
D14*
X8762690Y-16874335D03*
D13*
G36*
X8681886Y-16842406D02*
X8683317Y-16842618D01*
X8684721Y-16842970D01*
X8686084Y-16843458D01*
X8687393Y-16844076D01*
X8688634Y-16844821D01*
X8689797Y-16845683D01*
X8690870Y-16846655D01*
X8691842Y-16847727D01*
X8692704Y-16848890D01*
X8693448Y-16850132D01*
X8694067Y-16851440D01*
X8694555Y-16852803D01*
X8694906Y-16854207D01*
X8695119Y-16855639D01*
X8695190Y-16857085D01*
X8695190Y-16891585D01*
X8695119Y-16893031D01*
X8694906Y-16894462D01*
X8694555Y-16895866D01*
X8694067Y-16897229D01*
X8693448Y-16898538D01*
X8692704Y-16899779D01*
X8691842Y-16900942D01*
X8690870Y-16902015D01*
X8689797Y-16902987D01*
X8688634Y-16903849D01*
X8687393Y-16904593D01*
X8686084Y-16905212D01*
X8684721Y-16905700D01*
X8683317Y-16906051D01*
X8681886Y-16906264D01*
X8680440Y-16906335D01*
X8650940Y-16906335D01*
X8649494Y-16906264D01*
X8648062Y-16906051D01*
X8646658Y-16905700D01*
X8645295Y-16905212D01*
X8643987Y-16904593D01*
X8642745Y-16903849D01*
X8641582Y-16902987D01*
X8640510Y-16902015D01*
X8639538Y-16900942D01*
X8638676Y-16899779D01*
X8637931Y-16898538D01*
X8637313Y-16897229D01*
X8636825Y-16895866D01*
X8636473Y-16894462D01*
X8636261Y-16893031D01*
X8636190Y-16891585D01*
X8636190Y-16857085D01*
X8636261Y-16855639D01*
X8636473Y-16854207D01*
X8636825Y-16852803D01*
X8637313Y-16851440D01*
X8637931Y-16850132D01*
X8638676Y-16848890D01*
X8639538Y-16847727D01*
X8640510Y-16846655D01*
X8641582Y-16845683D01*
X8642745Y-16844821D01*
X8643987Y-16844076D01*
X8645295Y-16843458D01*
X8646658Y-16842970D01*
X8648062Y-16842618D01*
X8649494Y-16842406D01*
X8650940Y-16842335D01*
X8680440Y-16842335D01*
X8681886Y-16842406D01*
X8681886Y-16842406D01*
G37*
D14*
X8665690Y-16874335D03*
G04 #@! TD*
D13*
G04 #@! TO.C,R1*
G36*
X9195996Y-16833671D02*
X9197428Y-16833883D01*
X9198832Y-16834235D01*
X9200195Y-16834723D01*
X9201503Y-16835342D01*
X9202745Y-16836086D01*
X9203907Y-16836948D01*
X9204980Y-16837920D01*
X9205952Y-16838993D01*
X9206814Y-16840155D01*
X9207558Y-16841397D01*
X9208177Y-16842705D01*
X9208665Y-16844068D01*
X9209017Y-16845472D01*
X9209229Y-16846904D01*
X9209300Y-16848350D01*
X9209300Y-16882850D01*
X9209229Y-16884296D01*
X9209017Y-16885728D01*
X9208665Y-16887132D01*
X9208177Y-16888495D01*
X9207558Y-16889803D01*
X9206814Y-16891045D01*
X9205952Y-16892207D01*
X9204980Y-16893280D01*
X9203907Y-16894252D01*
X9202745Y-16895114D01*
X9201503Y-16895858D01*
X9200195Y-16896477D01*
X9198832Y-16896965D01*
X9197428Y-16897317D01*
X9195996Y-16897529D01*
X9194550Y-16897600D01*
X9165050Y-16897600D01*
X9163604Y-16897529D01*
X9162172Y-16897317D01*
X9160768Y-16896965D01*
X9159405Y-16896477D01*
X9158097Y-16895858D01*
X9156855Y-16895114D01*
X9155693Y-16894252D01*
X9154620Y-16893280D01*
X9153648Y-16892207D01*
X9152786Y-16891045D01*
X9152042Y-16889803D01*
X9151423Y-16888495D01*
X9150935Y-16887132D01*
X9150583Y-16885728D01*
X9150371Y-16884296D01*
X9150300Y-16882850D01*
X9150300Y-16848350D01*
X9150371Y-16846904D01*
X9150583Y-16845472D01*
X9150935Y-16844068D01*
X9151423Y-16842705D01*
X9152042Y-16841397D01*
X9152786Y-16840155D01*
X9153648Y-16838993D01*
X9154620Y-16837920D01*
X9155693Y-16836948D01*
X9156855Y-16836086D01*
X9158097Y-16835342D01*
X9159405Y-16834723D01*
X9160768Y-16834235D01*
X9162172Y-16833883D01*
X9163604Y-16833671D01*
X9165050Y-16833600D01*
X9194550Y-16833600D01*
X9195996Y-16833671D01*
X9195996Y-16833671D01*
G37*
D14*
X9179800Y-16865600D03*
D13*
G36*
X9098996Y-16833671D02*
X9100428Y-16833883D01*
X9101832Y-16834235D01*
X9103195Y-16834723D01*
X9104503Y-16835342D01*
X9105745Y-16836086D01*
X9106907Y-16836948D01*
X9107980Y-16837920D01*
X9108952Y-16838993D01*
X9109814Y-16840155D01*
X9110558Y-16841397D01*
X9111177Y-16842705D01*
X9111665Y-16844068D01*
X9112017Y-16845472D01*
X9112229Y-16846904D01*
X9112300Y-16848350D01*
X9112300Y-16882850D01*
X9112229Y-16884296D01*
X9112017Y-16885728D01*
X9111665Y-16887132D01*
X9111177Y-16888495D01*
X9110558Y-16889803D01*
X9109814Y-16891045D01*
X9108952Y-16892207D01*
X9107980Y-16893280D01*
X9106907Y-16894252D01*
X9105745Y-16895114D01*
X9104503Y-16895858D01*
X9103195Y-16896477D01*
X9101832Y-16896965D01*
X9100428Y-16897317D01*
X9098996Y-16897529D01*
X9097550Y-16897600D01*
X9068050Y-16897600D01*
X9066604Y-16897529D01*
X9065172Y-16897317D01*
X9063768Y-16896965D01*
X9062405Y-16896477D01*
X9061097Y-16895858D01*
X9059855Y-16895114D01*
X9058693Y-16894252D01*
X9057620Y-16893280D01*
X9056648Y-16892207D01*
X9055786Y-16891045D01*
X9055042Y-16889803D01*
X9054423Y-16888495D01*
X9053935Y-16887132D01*
X9053583Y-16885728D01*
X9053371Y-16884296D01*
X9053300Y-16882850D01*
X9053300Y-16848350D01*
X9053371Y-16846904D01*
X9053583Y-16845472D01*
X9053935Y-16844068D01*
X9054423Y-16842705D01*
X9055042Y-16841397D01*
X9055786Y-16840155D01*
X9056648Y-16838993D01*
X9057620Y-16837920D01*
X9058693Y-16836948D01*
X9059855Y-16836086D01*
X9061097Y-16835342D01*
X9062405Y-16834723D01*
X9063768Y-16834235D01*
X9065172Y-16833883D01*
X9066604Y-16833671D01*
X9068050Y-16833600D01*
X9097550Y-16833600D01*
X9098996Y-16833671D01*
X9098996Y-16833671D01*
G37*
D14*
X9082800Y-16865600D03*
G04 #@! TD*
D13*
G04 #@! TO.C,R4*
G36*
X9513496Y-12325171D02*
X9514928Y-12325383D01*
X9516332Y-12325735D01*
X9517695Y-12326223D01*
X9519003Y-12326842D01*
X9520245Y-12327586D01*
X9521407Y-12328448D01*
X9522480Y-12329420D01*
X9523452Y-12330493D01*
X9524314Y-12331655D01*
X9525058Y-12332897D01*
X9525677Y-12334205D01*
X9526165Y-12335568D01*
X9526517Y-12336972D01*
X9526729Y-12338404D01*
X9526800Y-12339850D01*
X9526800Y-12374350D01*
X9526729Y-12375796D01*
X9526517Y-12377228D01*
X9526165Y-12378632D01*
X9525677Y-12379995D01*
X9525058Y-12381303D01*
X9524314Y-12382545D01*
X9523452Y-12383707D01*
X9522480Y-12384780D01*
X9521407Y-12385752D01*
X9520245Y-12386614D01*
X9519003Y-12387358D01*
X9517695Y-12387977D01*
X9516332Y-12388465D01*
X9514928Y-12388817D01*
X9513496Y-12389029D01*
X9512050Y-12389100D01*
X9482550Y-12389100D01*
X9481104Y-12389029D01*
X9479672Y-12388817D01*
X9478268Y-12388465D01*
X9476905Y-12387977D01*
X9475597Y-12387358D01*
X9474355Y-12386614D01*
X9473193Y-12385752D01*
X9472120Y-12384780D01*
X9471148Y-12383707D01*
X9470286Y-12382545D01*
X9469542Y-12381303D01*
X9468923Y-12379995D01*
X9468435Y-12378632D01*
X9468083Y-12377228D01*
X9467871Y-12375796D01*
X9467800Y-12374350D01*
X9467800Y-12339850D01*
X9467871Y-12338404D01*
X9468083Y-12336972D01*
X9468435Y-12335568D01*
X9468923Y-12334205D01*
X9469542Y-12332897D01*
X9470286Y-12331655D01*
X9471148Y-12330493D01*
X9472120Y-12329420D01*
X9473193Y-12328448D01*
X9474355Y-12327586D01*
X9475597Y-12326842D01*
X9476905Y-12326223D01*
X9478268Y-12325735D01*
X9479672Y-12325383D01*
X9481104Y-12325171D01*
X9482550Y-12325100D01*
X9512050Y-12325100D01*
X9513496Y-12325171D01*
X9513496Y-12325171D01*
G37*
D14*
X9497300Y-12357100D03*
D13*
G36*
X9416496Y-12325171D02*
X9417928Y-12325383D01*
X9419332Y-12325735D01*
X9420695Y-12326223D01*
X9422003Y-12326842D01*
X9423245Y-12327586D01*
X9424407Y-12328448D01*
X9425480Y-12329420D01*
X9426452Y-12330493D01*
X9427314Y-12331655D01*
X9428058Y-12332897D01*
X9428677Y-12334205D01*
X9429165Y-12335568D01*
X9429517Y-12336972D01*
X9429729Y-12338404D01*
X9429800Y-12339850D01*
X9429800Y-12374350D01*
X9429729Y-12375796D01*
X9429517Y-12377228D01*
X9429165Y-12378632D01*
X9428677Y-12379995D01*
X9428058Y-12381303D01*
X9427314Y-12382545D01*
X9426452Y-12383707D01*
X9425480Y-12384780D01*
X9424407Y-12385752D01*
X9423245Y-12386614D01*
X9422003Y-12387358D01*
X9420695Y-12387977D01*
X9419332Y-12388465D01*
X9417928Y-12388817D01*
X9416496Y-12389029D01*
X9415050Y-12389100D01*
X9385550Y-12389100D01*
X9384104Y-12389029D01*
X9382672Y-12388817D01*
X9381268Y-12388465D01*
X9379905Y-12387977D01*
X9378597Y-12387358D01*
X9377355Y-12386614D01*
X9376193Y-12385752D01*
X9375120Y-12384780D01*
X9374148Y-12383707D01*
X9373286Y-12382545D01*
X9372542Y-12381303D01*
X9371923Y-12379995D01*
X9371435Y-12378632D01*
X9371083Y-12377228D01*
X9370871Y-12375796D01*
X9370800Y-12374350D01*
X9370800Y-12339850D01*
X9370871Y-12338404D01*
X9371083Y-12336972D01*
X9371435Y-12335568D01*
X9371923Y-12334205D01*
X9372542Y-12332897D01*
X9373286Y-12331655D01*
X9374148Y-12330493D01*
X9375120Y-12329420D01*
X9376193Y-12328448D01*
X9377355Y-12327586D01*
X9378597Y-12326842D01*
X9379905Y-12326223D01*
X9381268Y-12325735D01*
X9382672Y-12325383D01*
X9384104Y-12325171D01*
X9385550Y-12325100D01*
X9415050Y-12325100D01*
X9416496Y-12325171D01*
X9416496Y-12325171D01*
G37*
D14*
X9400300Y-12357100D03*
G04 #@! TD*
D20*
G04 #@! TO.C,Y1*
X9436100Y-12954000D03*
X10401300Y-12954000D03*
G04 #@! TD*
G04 #@! TO.C,Y2*
X21005800Y-13716000D03*
X21971000Y-13716000D03*
G04 #@! TD*
G04 #@! TO.C,Y3*
X23393400Y-13716000D03*
X24358600Y-13716000D03*
G04 #@! TD*
D26*
G04 #@! TO.C,Y5*
X21386800Y-14757400D03*
X21386800Y-15722600D03*
G04 #@! TD*
D27*
G04 #@! TO.C,U14*
X21218200Y-12617800D03*
X21218200Y-12567800D03*
X21218200Y-12517800D03*
X21218200Y-12467800D03*
X21218200Y-12417800D03*
X21218200Y-12367800D03*
X21218200Y-12317800D03*
X21218200Y-12267800D03*
X21218200Y-12217800D03*
X21218200Y-12167800D03*
X21218200Y-12117800D03*
X21218200Y-12067800D03*
X21218200Y-12017800D03*
X21218200Y-11967800D03*
X21218200Y-11917800D03*
X21218200Y-11867800D03*
D28*
X21418200Y-11667800D03*
X21468200Y-11667800D03*
X21518200Y-11667800D03*
X21568200Y-11667800D03*
X21618200Y-11667800D03*
X21668200Y-11667800D03*
X21718200Y-11667800D03*
X21768200Y-11667800D03*
X21818200Y-11667800D03*
X21868200Y-11667800D03*
X21918200Y-11667800D03*
X21968200Y-11667800D03*
X22018200Y-11667800D03*
X22068200Y-11667800D03*
X22118200Y-11667800D03*
X22168200Y-11667800D03*
D27*
X22368200Y-11867800D03*
X22368200Y-11917800D03*
X22368200Y-11967800D03*
X22368200Y-12017800D03*
X22368200Y-12067800D03*
X22368200Y-12117800D03*
X22368200Y-12167800D03*
X22368200Y-12217800D03*
X22368200Y-12267800D03*
X22368200Y-12317800D03*
X22368200Y-12367800D03*
X22368200Y-12417800D03*
X22368200Y-12467800D03*
X22368200Y-12517800D03*
X22368200Y-12567800D03*
D28*
X22168200Y-12817800D03*
X22118200Y-12817800D03*
X22068200Y-12817800D03*
X22018200Y-12817800D03*
X21968200Y-12817800D03*
X21918200Y-12817800D03*
X21868200Y-12817800D03*
X21818200Y-12817800D03*
X21768200Y-12817800D03*
X21718200Y-12817800D03*
X21668200Y-12817800D03*
X21618200Y-12817800D03*
X21568200Y-12817800D03*
X21518200Y-12817800D03*
X21468200Y-12817800D03*
X21418200Y-12817800D03*
D27*
X22368200Y-12617800D03*
G04 #@! TD*
G04 #@! TO.C,U15*
X23301000Y-12617800D03*
X23301000Y-12567800D03*
X23301000Y-12517800D03*
X23301000Y-12467800D03*
X23301000Y-12417800D03*
X23301000Y-12367800D03*
X23301000Y-12317800D03*
X23301000Y-12267800D03*
X23301000Y-12217800D03*
X23301000Y-12167800D03*
X23301000Y-12117800D03*
X23301000Y-12067800D03*
X23301000Y-12017800D03*
X23301000Y-11967800D03*
X23301000Y-11917800D03*
X23301000Y-11867800D03*
D28*
X23501000Y-11667800D03*
X23551000Y-11667800D03*
X23601000Y-11667800D03*
X23651000Y-11667800D03*
X23701000Y-11667800D03*
X23751000Y-11667800D03*
X23801000Y-11667800D03*
X23851000Y-11667800D03*
X23901000Y-11667800D03*
X23951000Y-11667800D03*
X24001000Y-11667800D03*
X24051000Y-11667800D03*
X24101000Y-11667800D03*
X24151000Y-11667800D03*
X24201000Y-11667800D03*
X24251000Y-11667800D03*
D27*
X24451000Y-11867800D03*
X24451000Y-11917800D03*
X24451000Y-11967800D03*
X24451000Y-12017800D03*
X24451000Y-12067800D03*
X24451000Y-12117800D03*
X24451000Y-12167800D03*
X24451000Y-12217800D03*
X24451000Y-12267800D03*
X24451000Y-12317800D03*
X24451000Y-12367800D03*
X24451000Y-12417800D03*
X24451000Y-12467800D03*
X24451000Y-12517800D03*
X24451000Y-12567800D03*
D28*
X24251000Y-12817800D03*
X24201000Y-12817800D03*
X24151000Y-12817800D03*
X24101000Y-12817800D03*
X24051000Y-12817800D03*
X24001000Y-12817800D03*
X23951000Y-12817800D03*
X23901000Y-12817800D03*
X23851000Y-12817800D03*
X23801000Y-12817800D03*
X23751000Y-12817800D03*
X23701000Y-12817800D03*
X23651000Y-12817800D03*
X23601000Y-12817800D03*
X23551000Y-12817800D03*
X23501000Y-12817800D03*
D27*
X24451000Y-12617800D03*
G04 #@! TD*
G04 #@! TO.C,U18*
X19237000Y-12617800D03*
X19237000Y-12567800D03*
X19237000Y-12517800D03*
X19237000Y-12467800D03*
X19237000Y-12417800D03*
X19237000Y-12367800D03*
X19237000Y-12317800D03*
X19237000Y-12267800D03*
X19237000Y-12217800D03*
X19237000Y-12167800D03*
X19237000Y-12117800D03*
X19237000Y-12067800D03*
X19237000Y-12017800D03*
X19237000Y-11967800D03*
X19237000Y-11917800D03*
X19237000Y-11867800D03*
D28*
X19437000Y-11667800D03*
X19487000Y-11667800D03*
X19537000Y-11667800D03*
X19587000Y-11667800D03*
X19637000Y-11667800D03*
X19687000Y-11667800D03*
X19737000Y-11667800D03*
X19787000Y-11667800D03*
X19837000Y-11667800D03*
X19887000Y-11667800D03*
X19937000Y-11667800D03*
X19987000Y-11667800D03*
X20037000Y-11667800D03*
X20087000Y-11667800D03*
X20137000Y-11667800D03*
X20187000Y-11667800D03*
D27*
X20387000Y-11867800D03*
X20387000Y-11917800D03*
X20387000Y-11967800D03*
X20387000Y-12017800D03*
X20387000Y-12067800D03*
X20387000Y-12117800D03*
X20387000Y-12167800D03*
X20387000Y-12217800D03*
X20387000Y-12267800D03*
X20387000Y-12317800D03*
X20387000Y-12367800D03*
X20387000Y-12417800D03*
X20387000Y-12467800D03*
X20387000Y-12517800D03*
X20387000Y-12567800D03*
D28*
X20187000Y-12817800D03*
X20137000Y-12817800D03*
X20087000Y-12817800D03*
X20037000Y-12817800D03*
X19987000Y-12817800D03*
X19937000Y-12817800D03*
X19887000Y-12817800D03*
X19837000Y-12817800D03*
X19787000Y-12817800D03*
X19737000Y-12817800D03*
X19687000Y-12817800D03*
X19637000Y-12817800D03*
X19587000Y-12817800D03*
X19537000Y-12817800D03*
X19487000Y-12817800D03*
X19437000Y-12817800D03*
D27*
X20387000Y-12617800D03*
G04 #@! TD*
D29*
G04 #@! TO.C,J12*
X9385300Y-8058400D03*
X9639300Y-8058400D03*
X9893300Y-8058400D03*
X10147300Y-8058400D03*
X10401300Y-8058400D03*
X10655300Y-8058400D03*
X9385300Y-8502400D03*
X9639300Y-8502400D03*
X9893300Y-8502400D03*
X10147300Y-8502400D03*
X10401300Y-8502400D03*
X10655300Y-8502400D03*
G04 #@! TD*
D30*
G04 #@! TO.C,U16*
X12446000Y-6921500D03*
X12446000Y-6794500D03*
X12446000Y-6667500D03*
X12446000Y-6540500D03*
X12446000Y-6413500D03*
X12446000Y-6286500D03*
X12446000Y-6159500D03*
X12446000Y-6032500D03*
X12986000Y-6032500D03*
X12986000Y-6159500D03*
X12986000Y-6286500D03*
X12986000Y-6413500D03*
X12986000Y-6540500D03*
X12986000Y-6667500D03*
X12986000Y-6794500D03*
X12986000Y-6921500D03*
G04 #@! TD*
D31*
G04 #@! TO.C,Q2*
X5727700Y-5807200D03*
X5600700Y-5807200D03*
X5473700Y-5807200D03*
X5346700Y-5807200D03*
X5219700Y-5807200D03*
X5092700Y-5807200D03*
X4965700Y-5807200D03*
X4838700Y-5807200D03*
X4838700Y-5267200D03*
X4965700Y-5267200D03*
X5092700Y-5267200D03*
X5219700Y-5267200D03*
X5346700Y-5267200D03*
X5473700Y-5267200D03*
X5600700Y-5267200D03*
X5727700Y-5267200D03*
G04 #@! TD*
D30*
G04 #@! TO.C,U2*
X18653000Y-6921500D03*
X18653000Y-6794500D03*
X18653000Y-6667500D03*
X18653000Y-6540500D03*
X18653000Y-6413500D03*
X18653000Y-6286500D03*
X18653000Y-6159500D03*
X18653000Y-6032500D03*
X19193000Y-6032500D03*
X19193000Y-6159500D03*
X19193000Y-6286500D03*
X19193000Y-6413500D03*
X19193000Y-6540500D03*
X19193000Y-6667500D03*
X19193000Y-6794500D03*
X19193000Y-6921500D03*
G04 #@! TD*
D31*
G04 #@! TO.C,U1*
X12141200Y-10042400D03*
X12268200Y-10042400D03*
X12395200Y-10042400D03*
X12522200Y-10042400D03*
X12649200Y-10042400D03*
X12776200Y-10042400D03*
X12903200Y-10042400D03*
X13030200Y-10042400D03*
X13030200Y-10582400D03*
X12903200Y-10582400D03*
X12776200Y-10582400D03*
X12649200Y-10582400D03*
X12522200Y-10582400D03*
X12395200Y-10582400D03*
X12268200Y-10582400D03*
X12141200Y-10582400D03*
G04 #@! TD*
D32*
G04 #@! TO.C,U6*
X26358600Y-3538600D03*
X26263600Y-3538600D03*
X26168600Y-3538600D03*
X26358600Y-3268600D03*
X26263600Y-3268600D03*
X26168600Y-3268600D03*
G04 #@! TD*
D33*
G04 #@! TO.C,J16*
X23272000Y-16814800D03*
X23322000Y-16814800D03*
X23372000Y-16814800D03*
X23422000Y-16814800D03*
X23472000Y-16814800D03*
X23522000Y-16814800D03*
X23572000Y-16814800D03*
X23622000Y-16814800D03*
X23672000Y-16814800D03*
X23722000Y-16814800D03*
X23772000Y-16814800D03*
X23847000Y-16622800D03*
X23797000Y-16622800D03*
X23747000Y-16622800D03*
X23697000Y-16622800D03*
X23647000Y-16622800D03*
X23597000Y-16622800D03*
X23547000Y-16622800D03*
X23497000Y-16622800D03*
X23447000Y-16622800D03*
X23397000Y-16622800D03*
X23347000Y-16622800D03*
X23822000Y-16814800D03*
X23297000Y-16622800D03*
G04 #@! TD*
M02*
