M48
;DRILL file {KiCad 5.0.0} date Sun Sep  9 20:10:20 2018
;FORMAT={-:-/ absolute / inch / decimal}
FMAT,2
INCH,TZ
T1C0.0118
T2C0.0130
T3C0.0157
T4C0.0177
T5C0.0197
T6C0.0217
T7C0.0289
T8C0.0394
T9C0.0472
T10C0.0512
T11C0.0630
T12C0.2402
%
G90
G05
M72
T1
X1.755Y-5.19
X1.775Y-5.62
X1.83Y-6.555
X1.8776Y-4.3837
X1.88Y-3.575
X1.88Y-3.575
X1.88Y-3.805
X1.895Y-5.51
X1.9Y-3.925
X1.9Y-6.8
X1.905Y-1.3725
X1.905Y-1.5274
X1.905Y-2.3875
X1.91Y-2.845
X1.915Y-3.545
X1.925Y-1.3525
X1.925Y-4.67
X1.935Y-4.365
X1.945Y-0.91
X1.95Y-3.52
X1.95Y-4.03
X1.955Y-4.505
X1.96Y-2.915
X1.96Y-4.285
X1.96Y-4.98
X1.965Y-3.985
X1.97Y-3.765
X1.975Y-4.715
X1.975Y-5.305
X1.98Y-5.83
X1.99Y-4.335
X2.01Y-2.71
X2.01Y-5.5987
X2.01Y-5.97
X2.015Y-4.145
X2.02Y-3.
X2.02Y-3.485
X2.025Y-2.94
X2.025Y-4.445
X2.03Y-1.09
X2.035Y-4.5187
X2.035Y-4.65
X2.045Y-5.255
X2.05Y-2.84
X2.055Y-1.47
X2.055Y-2.0737
X2.06Y-7.07
X2.0693Y-3.7657
X2.07Y-3.27
X2.07Y-4.87
X2.075Y-4.595
X2.095Y-4.365
X2.1Y-6.8
X2.105Y-2.0737
X2.11Y-1.42
X2.1118Y-5.3532
X2.13Y-7.1
X2.135Y-6.2775
X2.135Y-6.3075
X2.135Y-6.3325
X2.145Y-4.11
X2.15Y-6.3375
X2.155Y-2.0737
X2.155Y-4.34
X2.16Y-1.4013
X2.165Y-6.3375
X2.2Y-6.48
X2.205Y-2.0737
X2.205Y-2.2863
X2.21Y-6.78
X2.2192Y-4.6638
X2.22Y-2.35
X2.225Y-1.095
X2.255Y-2.0737
X2.255Y-2.2863
X2.275Y-2.355
X2.28Y-4.725
X2.28Y-6.76
X2.28Y-7.12
X2.3Y-1.565
X2.3Y-3.1338
X2.315Y-5.495
X2.32Y-5.77
X2.3395Y-5.5213
X2.36Y-0.915
X2.375Y-3.205
X2.39Y-5.84
X2.4Y-2.94
X2.42Y-1.58
X2.42Y-3.725
X2.44Y-4.535
X2.4549Y-5.3633
X2.4557Y-5.3416
X2.46Y-5.385
X2.46Y-5.5186
X2.46Y-6.74
X2.4735Y-5.005
X2.48Y-5.085
X2.4988Y-5.0637
X2.5Y-3.96
X2.51Y-1.12
X2.5187Y-1.845
X2.5187Y-3.745
X2.5187Y-4.5187
X2.5187Y-4.765
X2.535Y-5.0824
X2.56Y-5.105
X2.565Y-2.365
X2.5681Y-3.7463
X2.5681Y-3.7463
X2.5704Y-3.9702
X2.5704Y-3.9702
X2.5704Y-4.7698
X2.58Y-1.915
X2.58Y-6.535
X2.585Y-2.4
X2.585Y-5.0637
X2.5863Y-1.705
X2.5863Y-1.7507
X2.5863Y-1.8017
X2.59Y-6.95
X2.5901Y-3.7419
X2.5919Y-1.9367
X2.605Y-1.97
X2.605Y-2.415
X2.615Y-4.045
X2.62Y-3.73
X2.62Y-4.77
X2.62Y-4.995
X2.62Y-5.08
X2.62Y-5.79
X2.6209Y-3.965
X2.625Y-4.555
X2.635Y-4.1665
X2.6403Y-5.495
X2.6467Y-3.7282
X2.6472Y-3.9702
X2.6472Y-4.6622
X2.6472Y-4.9902
X2.65Y-5.33
X2.65Y-6.72
X2.6544Y-6.0594
X2.67Y-5.5
X2.6728Y-4.7698
X2.6728Y-4.7698
X2.6787Y-3.686
X2.6943Y-5.4957
X2.695Y-4.4663
X2.6984Y-5.7902
X2.6984Y-4.4663
X2.7Y-3.675
X2.705Y-4.3737
X2.724Y-5.5213
X2.724Y-5.7902
X2.725Y-0.92
X2.725Y-3.665
X2.74Y-4.12
X2.74Y-5.84
X2.7496Y-4.7698
X2.75Y-3.72
X2.75Y-6.8226
X2.76Y-3.685
X2.7606Y-3.555
X2.775Y-6.185
X2.79Y-5.515
X2.7906Y-1.6747
X2.795Y-3.96
X2.8Y-6.8
X2.81Y-4.415
X2.81Y-6.78
X2.815Y-1.185
X2.825Y-4.395
X2.84Y-1.145
X2.845Y-6.48
X2.86Y-1.12
X2.86Y-6.25
X2.86Y-6.66
X2.8629Y-1.7195
X2.8694Y-3.6749
X2.8694Y-3.813
X2.87Y-1.425
X2.87Y-2.7
X2.8955Y-1.6624
X2.9Y-1.6226
X2.9Y-1.345
X2.9013Y-1.1312
X2.92Y-7.07
X2.9387Y-1.2046
X2.9443Y-4.3965
X2.945Y-1.09
X3.0006Y-1.0908
X3.0024Y-2.9382
X3.015Y-3.715
X3.0259Y-4.395
X3.03Y-3.205
X3.045Y-3.79
X3.045Y-4.9925
X3.05Y-7.1
X3.06Y-6.76
X3.065Y-4.5175
X3.0659Y-4.235
X3.07Y-1.6413
X3.075Y-2.455
X3.075Y-2.56
X3.08Y-2.41
X3.08Y-6.7413
X3.085Y-2.495
X3.085Y-2.495
X3.085Y-2.495
X3.095Y-2.665
X3.095Y-5.275
X3.0959Y-4.085
X3.1Y-2.2775
X3.1Y-2.43
X3.1Y-2.43
X3.1Y-2.43
X3.1Y-2.475
X3.105Y-5.035
X3.1078Y-1.7092
X3.1101Y-1.0908
X3.115Y-1.225
X3.115Y-5.065
X3.1209Y-3.29
X3.122Y-4.5362
X3.13Y-2.415
X3.1333Y-4.8331
X3.145Y-4.745
X3.1494Y-4.8691
X3.155Y-1.955
X3.155Y-2.395
X3.155Y-2.455
X3.155Y-4.84
X3.1598Y-1.8172
X3.16Y-1.79
X3.16Y-4.975
X3.165Y-4.895
X3.165Y-5.2625
X3.17Y-2.51
X3.17Y-7.12
X3.175Y-2.425
X3.18Y-1.685
X3.1882Y-4.8982
X3.19Y-1.425
X3.2Y-6.72
X3.205Y-5.16
X3.2179Y-3.5079
X3.225Y-1.585
X3.26Y-1.585
X3.2609Y-2.08
X3.265Y-1.685
X3.2717Y-4.29
X3.2717Y-4.32
X3.285Y-3.71
X3.2924Y-4.3138
X3.3Y-1.7
X3.3Y-1.7
X3.3Y-1.7
X3.3Y-6.97
X3.305Y-4.36
X3.33Y-1.58
X3.33Y-2.235
X3.3391Y-4.4274
X3.35Y-2.21
X3.355Y-1.685
X3.3592Y-4.4194
X3.36Y-4.48
X3.37Y-2.19
X3.375Y-5.8175
X3.38Y-1.7904
X3.3802Y-1.7013
X3.3802Y-1.7687
X3.3802Y-1.8428
X3.3897Y-2.1753
X3.39Y-1.135
X3.395Y-1.575
X3.405Y-2.155
X3.41Y-6.95
X3.4117Y-6.6434
X3.415Y-4.56
X3.415Y-4.59
X3.4181Y-4.4483
X3.44Y-4.435
X3.445Y-1.09
X3.4499Y-6.6434
X3.46Y-4.34
X3.46Y-4.41
X3.461Y-4.264
X3.465Y-6.4425
X3.47Y-6.9666
X3.479Y-4.246
X3.48Y-1.685
X3.485Y-7.12
X3.495Y-1.8
X3.4975Y-5.8175
X3.4975Y-3.0033
X3.4982Y-1.8382
X3.5325Y-2.97
X3.535Y-5.27
X3.5375Y-3.1225
X3.54Y-6.4575
X3.545Y-2.53
X3.5759Y-6.64
X3.58Y-4.825
X3.585Y-1.6
X3.59Y-3.305
X3.5959Y-3.875
X3.6088Y-4.1169
X3.61Y-3.8915
X3.61Y-3.9722
X3.61Y-6.4725
X3.6141Y-6.64
X3.615Y-4.205
X3.615Y-4.3537
X3.615Y-4.3537
X3.62Y-3.825
X3.62Y-6.9421
X3.635Y-4.22
X3.64Y-4.06
X3.64Y-4.515
X3.6403Y-4.1169
X3.6459Y-4.04
X3.65Y-6.8226
X3.655Y-0.89
X3.675Y-4.06
X3.68Y-1.09
X3.68Y-2.37
X3.685Y-5.3265
X3.6875Y-3.1725
X3.6875Y-3.21
X3.69Y-6.4725
X3.695Y-3.1375
X3.6951Y-1.7487
X3.7009Y-4.865
X3.7033Y-4.7231
X3.705Y-3.9722
X3.71Y-5.8125
X3.715Y-4.49
X3.715Y-5.1
X3.7175Y-3.1525
X3.7175Y-3.1925
X3.7259Y-3.87
X3.745Y-2.615
X3.76Y-6.8
X3.765Y-4.555
X3.77Y-4.715
X3.775Y-6.4825
X3.78Y-3.9894
X3.795Y-3.3474
X3.795Y-4.7275
X3.805Y-4.045
X3.81Y-3.4463
X3.82Y-2.52
X3.82Y-7.07
X3.825Y-1.085
X3.8293Y-4.7231
X3.84Y-4.0425
X3.84Y-4.255
X3.845Y-4.495
X3.8459Y-4.425
X3.86Y-4.065
X3.87Y-4.56
X3.87Y-6.78
X3.88Y-3.465
X3.895Y-3.3474
X3.925Y-4.06
X3.945Y-2.35
X3.9559Y-4.115
X3.96Y-7.1
X3.98Y-1.84
X3.99Y-1.42
X3.99Y-2.655
X3.99Y-6.76
X4.005Y-4.6737
X4.01Y-4.92
X4.015Y-3.91
X4.02Y-3.64
X4.02Y-4.415
X4.025Y-3.93
X4.025Y-3.93
X4.025Y-3.93
X4.025Y-4.77
X4.03Y-3.85
X4.0359Y-2.256
X4.0411Y-3.9894
X4.045Y-3.905
X4.045Y-3.925
X4.0497Y-4.1169
X4.05Y-3.635
X4.05Y-6.4975
X4.055Y-1.425
X4.055Y-4.525
X4.055Y-4.5506
X4.06Y-6.7413
X4.07Y-7.12
X4.08Y-4.045
X4.0809Y-4.625
X4.085Y-3.635
X4.09Y-2.98
X4.09Y-4.26
X4.095Y-5.1
X4.125Y-2.045
X4.125Y-5.3265
X4.13Y-1.635
X4.13Y-5.405
X4.155Y-4.13
X4.17Y-6.5025
X4.17Y-6.72
X4.19Y-2.63
X4.19Y-4.055
X4.19Y-5.51
X4.2Y-1.13
X4.2Y-4.4
X4.21Y-2.525
X4.21Y-4.19
X4.215Y-1.985
X4.22Y-6.9666
X4.225Y-1.3542
X4.225Y-4.215
X4.225Y-4.58
X4.23Y-1.425
X4.2324Y-4.36
X4.235Y-4.29
X4.24Y-1.6787
X4.2404Y-4.3194
X4.26Y-2.39
X4.264Y-4.5682
X4.264Y-4.925
X4.2664Y-4.204
X4.29Y-2.915
X4.29Y-6.9479
X4.2928Y-4.565
X4.295Y-1.97
X4.305Y-6.4975
X4.31Y-4.31
X4.321Y-3.0767
X4.3394Y-3.0944
X4.3394Y-4.505
X4.35Y-5.54
X4.37Y-1.235
X4.37Y-3.305
X4.415Y-4.9159
X4.415Y-4.955
X4.42Y-6.1972
X4.42Y-6.2228
X4.4287Y-4.3413
X4.445Y-2.875
X4.45Y-2.39
X4.455Y-1.1063
X4.4621Y-1.1487
X4.4625Y-4.9196
X4.475Y-2.53
X4.475Y-3.335
X4.485Y-1.7687
X4.485Y-4.445
X4.495Y-1.16
X4.505Y-2.665
X4.505Y-2.92
X4.505Y-3.855
X4.505Y-4.485
X4.52Y-6.4775
X4.54Y-4.59
X4.5495Y-2.256
X4.55Y-1.025
X4.55Y-6.8226
X4.58Y-3.335
X4.585Y-2.84
X4.595Y-2.9494
X4.595Y-4.61
X4.615Y-3.27
X4.625Y-1.12
X4.6319Y-3.2484
X4.635Y-4.33
X4.655Y-3.225
X4.655Y-4.99
X4.68Y-6.8
X4.685Y-1.16
X4.685Y-1.9837
X4.69Y-1.13
X4.7009Y-4.4618
X4.7009Y-4.5
X4.7025Y-4.5837
X4.715Y-1.125
X4.7183Y-1.1036
X4.745Y-1.825
X4.7499Y-1.7687
X4.75Y-7.07
X4.75Y-5.05
X4.755Y-5.8375
X4.7584Y-6.5182
X4.765Y-4.3602
X4.7687Y-1.145
X4.77Y-6.78
X4.78Y-3.9
X4.78Y-4.1663
X4.79Y-1.7207
X4.795Y-4.3287
X4.795Y-5.2
X4.7959Y-3.42
X4.8Y-1.165
X4.8009Y-2.13
X4.805Y-1.085
X4.81Y-1.825
X4.815Y-4.77
X4.8159Y-3.58
X4.8159Y-3.9
X4.835Y-1.125
X4.835Y-4.225
X4.845Y-2.73
X4.8454Y-1.835
X4.85Y-3.055
X4.85Y-7.1
X4.855Y-1.9
X4.86Y-6.76
X4.865Y-4.23
X4.87Y-3.905
X4.875Y-1.13
X4.88Y-1.845
X4.88Y-2.81
X4.8809Y-3.19
X4.885Y-4.745
X4.905Y-1.83
X4.91Y-1.14
X4.91Y-5.8425
X4.9158Y-1.81
X4.93Y-4.1663
X4.93Y-4.385
X4.935Y-1.6413
X4.94Y-4.835
X4.955Y-2.67
X4.965Y-6.4825
X4.975Y-4.74
X4.98Y-4.1663
X4.985Y-2.09
X4.9898Y-1.8172
X4.9898Y-1.8428
X4.9898Y-1.8684
X4.9898Y-1.894
X4.9898Y-1.9196
X4.99Y-1.7207
X4.99Y-1.79
X4.99Y-2.465
X4.99Y-7.12
X4.995Y-2.52
X4.995Y-3.5
X5.Y-3.425
X5.Y-6.7413
X5.005Y-1.165
X5.0096Y-2.0379
X5.0137Y-1.185
X5.015Y-1.09
X5.03Y-4.1663
X5.0455Y-1.9843
X5.05Y-3.425
X5.06Y-2.425
X5.06Y-6.4975
X5.08Y-5.8475
X5.0806Y-1.9843
X5.0868Y-2.073
X5.1Y-3.425
X5.11Y-6.72
X5.1126Y-2.375
X5.1126Y-2.525
X5.1126Y-2.575
X5.1126Y-2.675
X5.115Y-5.19
X5.13Y-3.855
X5.1338Y-2.256
X5.1388Y-1.1537
X5.145Y-1.175
X5.15Y-3.425
X5.16Y-4.7875
X5.16Y-6.4675
X5.175Y-2.47
X5.1824Y-2.2924
X5.185Y-5.8475
X5.19Y-6.9479
X5.1959Y-2.13
X5.2Y-3.425
X5.21Y-1.155
X5.21Y-1.79
X5.2102Y-1.7404
X5.2102Y-1.8172
X5.2102Y-1.8428
X5.2102Y-1.8684
X5.2102Y-1.894
X5.225Y-4.455
X5.2274Y-3.5476
X5.23Y-2.05
X5.235Y-1.97
X5.235Y-2.395
X5.235Y-4.7675
X5.2413Y-1.6943
X5.25Y-3.425
X5.255Y-2.075
X5.27Y-1.7975
X5.2711Y-2.9813
X5.2737Y-2.8366
X5.2975Y-4.795
X5.3Y-3.425
X5.3033Y-2.6325
X5.305Y-1.94
X5.3258Y-2.9813
X5.33Y-1.94
X5.33Y-6.5025
X5.335Y-1.66
X5.345Y-1.845
X5.3467Y-2.6325
X5.355Y-4.1
X5.365Y-1.855
X5.3675Y-2.53
X5.37Y-1.88
X5.3725Y-2.5075
X5.38Y-1.11
X5.385Y-2.6325
X5.39Y-2.53
X5.3925Y-2.51
X5.3996Y-6.0787
X5.405Y-4.465
X5.42Y-0.93
X5.42Y-5.185
X5.43Y-1.055
X5.435Y-0.955
X5.4487Y-1.175
X5.4499Y-2.9813
X5.455Y-4.68
X5.47Y-3.22
X5.47Y-6.8226
X5.495Y-3.355
X5.52Y-1.135
X5.525Y-6.035
X5.55Y-4.8
X5.55Y-5.58
X5.57Y-6.8
X5.575Y-1.93
X5.5759Y-3.17
X5.6002Y-4.2713
X5.6059Y-2.7529
X5.62Y-7.07
X5.64Y-6.5025
X5.6524Y-5.9376
X5.6725Y-2.635
X5.68Y-6.78
X5.695Y-1.965
X5.725Y-5.755
X5.75Y-3.905
X5.76Y-7.1
X5.7625Y-2.635
X5.78Y-6.76
X5.79Y-2.84
X5.795Y-3.095
X5.7975Y-2.6375
X5.825Y-2.73
X5.84Y-6.4775
X5.86Y-6.7413
X5.865Y-2.2225
X5.88Y-4.9941
X5.88Y-5.875
X5.88Y-7.12
X5.895Y-4.96
X5.925Y-1.975
X5.9398Y-1.0398
X5.96Y-6.72
X5.975Y-4.125
X5.985Y-1.6937
X5.985Y-3.64
X5.99Y-2.5
X5.9909Y-5.695
X5.995Y-2.315
X6.Y-1.77
X6.Y-6.9666
X6.0025Y-5.79
X6.005Y-5.5687
X6.005Y-5.775
X6.0094Y-5.465
X6.0094Y-5.9376
X6.0109Y-5.685
X6.0109Y-5.685
X6.0109Y-5.685
X6.0168Y-1.385
X6.021Y-1.9363
X6.025Y-2.69
X6.045Y-2.745
X6.045Y-3.655
X6.045Y-5.515
X6.05Y-1.185
X6.0523Y-2.6422
X6.0523Y-2.6678
X6.0523Y-2.719
X6.055Y-5.7813
X6.06Y-3.745
X6.0606Y-5.9376
X6.0606Y-6.0124
X6.0734Y-5.0128
X6.0734Y-5.0384
X6.075Y-2.6925
X6.08Y-6.9479
X6.09Y-4.13
X6.105Y-5.675
X6.11Y-6.28
X6.12Y-3.65
X6.125Y-2.2225
X6.15Y-5.465
X6.155Y-5.5687
X6.18Y-5.86
X6.185Y-6.4625
X6.1927Y-5.0528
X6.195Y-3.73
X6.195Y-4.41
X6.205Y-5.93
X6.235Y-5.16
X6.24Y-1.815
X6.245Y-5.675
X6.25Y-1.76
X6.25Y-5.335
X6.25Y-5.94
X6.255Y-5.48
X6.27Y-2.695
X6.27Y-5.905
X6.2793Y-5.505
X6.282Y-5.6977
X6.29Y-3.745
X6.3Y-6.015
X6.305Y-2.8463
X6.305Y-5.415
X6.305Y-5.7813
X6.31Y-4.14
X6.315Y-5.155
X6.32Y-3.455
X6.325Y-2.72
X6.325Y-5.04
X6.33Y-2.75
X6.3343Y-1.7257
X6.3537Y-2.72
X6.36Y-5.325
X6.36Y-5.345
X6.36Y-5.375
X6.36Y-5.435
X6.36Y-6.83
X6.365Y-5.83
X6.365Y-5.87
X6.37Y-5.615
X6.3763Y-1.7198
X6.3925Y-2.55
X6.395Y-2.485
X6.3975Y-2.6425
X6.4093Y-4.9893
X6.41Y-5.015
X6.4126Y-3.0221
X6.42Y-1.955
X6.425Y-6.4875
X6.46Y-6.085
X6.47Y-7.07
X6.475Y-1.08
X6.48Y-6.8
X6.4933Y-3.1483
X6.512Y-2.0174
X6.52Y-1.095
X6.525Y-4.41
X6.53Y-3.97
X6.54Y-1.785
X6.55Y-2.695
X6.5579Y-1.9321
X6.56Y-6.3375
X6.57Y-6.8
X6.585Y-3.22
X6.5959Y-2.125
X6.61Y-5.485
X6.61Y-6.4775
X6.6144Y-3.95
X6.6175Y-2.2225
X6.62Y-3.1791
X6.62Y-6.79
X6.645Y-4.4575
X6.6475Y-3.275
X6.6601Y-1.0908
X6.6656Y-4.03
X6.675Y-3.865
X6.685Y-3.525
X6.6934Y-4.3916
X6.6934Y-4.4428
X6.6934Y-4.9575
X6.697Y-3.6964
X6.7Y-1.6604
X6.7Y-3.62
X6.72Y-6.75
X6.73Y-3.7863
X6.7391Y-1.9959
X6.7434Y-1.736
X6.7462Y-1.9755
X6.755Y-1.955
X6.7682Y-4.2308
X6.77Y-4.495
X6.772Y-4.6265
X6.7848Y-1.7104
X6.785Y-1.76
X6.79Y-6.5175
X6.7932Y-3.0908
X6.795Y-6.3675
X6.8001Y-3.5637
X6.805Y-1.9448
X6.8145Y-4.3387
X6.83Y-6.73
X6.8425Y-3.925
X6.845Y-4.205
X6.855Y-3.95
X6.8615Y-5.6945
X6.8625Y-3.1425
X6.8666Y-4.3916
X6.8666Y-4.4172
X6.875Y-3.325
X6.8757Y-6.1545
X6.882Y-5.7014
X6.885Y-3.525
X6.895Y-4.53
X6.8959Y-3.9835
X6.9Y-4.08
X6.9013Y-6.1547
X6.902Y-3.6544
X6.905Y-6.4025
X6.9075Y-4.0018
X6.915Y-4.205
X6.9157Y-3.36
X6.9176Y-5.9025
X6.9217Y-1.134
X6.925Y-3.4
X6.93Y-2.2225
X6.93Y-3.5824
X6.932Y-4.9514
X6.9374Y-1.1664
X6.94Y-3.145
X6.94Y-3.865
X6.95Y-3.9788
X6.952Y-4.9714
X6.957Y-5.6714
X6.96Y-4.4
X6.965Y-6.4075
X6.97Y-3.36
X6.97Y-4.2308
X6.977Y-4.9864
X6.98Y-1.71
X6.9869Y-6.3011
X6.99Y-4.41
X7.005Y-1.76
X7.0052Y-1.7872
X7.0052Y-1.8128
X7.0052Y-1.8384
X7.0052Y-1.864
X7.01Y-6.5075
X7.015Y-6.4125
X7.017Y-5.6214
X7.022Y-4.9914
X7.05Y-4.555
X7.0587Y-1.41
X7.0643Y-1.7007
X7.08Y-1.89
X7.08Y-4.445
X7.09Y-5.8112
X7.09Y-6.3025
X7.0931Y-6.2755
X7.1Y-4.13
X7.12Y-5.9672
X7.12Y-5.9928
X7.13Y-1.935
X7.14Y-2.2225
X7.14Y-3.46
X7.14Y-4.51
X7.1407Y-5.8225
X7.145Y-1.955
X7.145Y-5.9375
X7.15Y-1.86
X7.15Y-2.7625
X7.15Y-2.7825
X7.1525Y-6.4875
X7.1525Y-6.5125
X7.1544Y-3.9726
X7.155Y-1.9763
X7.16Y-4.46
X7.17Y-1.75
X7.17Y-1.995
X7.17Y-3.7863
X7.1707Y-5.8525
X7.175Y-0.7887
X7.18Y-2.7825
X7.18Y-6.485
X7.18Y-6.51
X7.1875Y-3.275
X7.1887Y-1.7216
X7.1923Y-4.0077
X7.1957Y-5.8775
X7.205Y-2.965
X7.205Y-3.865
X7.205Y-5.7925
X7.205Y-5.8175
X7.2056Y-0.805
X7.2056Y-4.0474
X7.22Y-3.5794
X7.2234Y-4.4684
X7.225Y-5.8075
X7.225Y-5.8325
X7.2272Y-0.905
X7.23Y-0.78
X7.235Y-5.1375
X7.235Y-5.1775
X7.24Y-5.7875
X7.245Y-2.7825
X7.245Y-3.52
X7.245Y-5.8175
X7.2475Y-4.5775
X7.26Y-2.36
X7.2675Y-5.1775
X7.2679Y-2.3071
X7.27Y-5.1375
X7.28Y-4.125
X7.28Y-4.3859
X7.285Y-6.3625
X7.2948Y-6.1525
X7.3Y-5.745
X7.3Y-6.7525
X7.33Y-4.3859
X7.34Y-4.01
X7.35Y-3.8463
X7.3613Y-1.92
X7.365Y-2.845
X7.39Y-3.97
X7.39Y-4.2225
X7.3966Y-4.3916
X7.4019Y-6.3011
X7.405Y-3.16
X7.41Y-4.
X7.4126Y-6.4025
X7.415Y-3.34
X7.42Y-3.7863
X7.4225Y-5.035
X7.425Y-2.695
X7.425Y-3.52
X7.43Y-4.1
X7.44Y-3.9726
X7.4443Y-4.3578
X7.445Y-3.585
X7.445Y-4.43
X7.445Y-4.53
X7.455Y-4.225
X7.465Y-3.585
X7.465Y-4.465
X7.47Y-3.415
X7.472Y-3.6387
X7.477Y-4.9214
X7.477Y-4.9464
X7.477Y-4.9714
X7.48Y-2.68
X7.48Y-3.16
X7.485Y-3.865
X7.4875Y-5.745
X7.49Y-2.475
X7.5081Y-6.2755
X7.5096Y-3.6954
X7.517Y-4.7714
X7.522Y-4.7464
X7.525Y-3.415
X7.53Y-5.15
X7.5325Y-5.17
X7.5329Y-4.7213
X7.5425Y-2.7825
X7.5437Y-3.6716
X7.5463Y-2.0975
X7.5492Y-6.395
X7.555Y-3.415
X7.5563Y-2.575
X7.5575Y-5.15
X7.5575Y-5.17
X7.5674Y-4.3459
X7.5725Y-5.0125
X7.5736Y-4.9676
X7.5837Y-3.6851
X7.5838Y-2.9813
X7.585Y-3.415
X7.6025Y-4.14
X7.6063Y-3.8255
X7.61Y-6.5325
X7.615Y-6.3675
X7.615Y-6.5075
X7.6169Y-4.9706
X7.617Y-4.9214
X7.6175Y-4.815
X7.6186Y-4.948
X7.62Y-6.4025
X7.6296Y-4.5694
X7.63Y-4.725
X7.63Y-6.5325
X7.635Y-6.2775
X7.635Y-6.5075
X7.6372Y-3.9106
X7.64Y-5.1
X7.645Y-4.6925
X7.65Y-6.4325
X7.6524Y-4.5936
X7.655Y-6.2775
X7.6569Y-4.5001
X7.66Y-2.405
X7.6625Y-4.695
X7.665Y-6.7825
X7.67Y-4.645
X7.6743Y-4.4607
X7.69Y-6.4488
X7.695Y-5.735
X7.7Y-2.826
X7.71Y-2.515
X7.71Y-2.58
X7.71Y-6.52
X7.7114Y-5.0464
X7.715Y-3.995
X7.72Y-4.145
X7.725Y-6.52
X7.7257Y-6.495
X7.73Y-1.585
X7.73Y-5.09
X7.75Y-3.8063
X7.75Y-6.52
X7.755Y-6.4488
X7.76Y-3.515
X7.7675Y-2.81
X7.77Y-1.77
X7.7705Y-4.5936
X7.775Y-3.275
X7.78Y-6.4488
X7.785Y-1.795
X7.785Y-6.1975
X7.7875Y-2.405
X7.7902Y-4.6443
X7.803Y-5.1604
X7.8098Y-5.0464
X7.8106Y-3.9726
X7.8148Y-4.4192
X7.8192Y-4.5564
X7.82Y-6.3525
X7.82Y-6.3725
X7.8211Y-5.1423
X7.825Y-6.4488
X7.8291Y-6.2634
X7.8295Y-4.5936
X7.835Y-3.665
X7.835Y-5.0275
X7.845Y-5.0475
X7.845Y-5.065
X7.845Y-6.3525
X7.845Y-6.3725
X7.85Y-3.8063
X7.85Y-6.4475
X7.8566Y-4.5537
X7.86Y-3.42
X7.86Y-4.355
X7.8609Y-4.47
X7.885Y-5.0925
X7.9Y-3.42
X7.9Y-4.36
X7.9Y-4.8975
X7.9025Y-4.645
X7.9041Y-3.8763
X7.905Y-4.525
X7.91Y-1.51
X7.915Y-5.21
X7.92Y-4.9025
X7.93Y-3.42
X7.93Y-5.0925
X7.935Y-4.1425
X7.9363Y-2.4875
X7.9425Y-2.3775
X7.972Y-5.6286
X7.972Y-5.6542
X7.975Y-4.81
X7.98Y-3.16
X7.98Y-3.975
X7.98Y-4.2475
X7.9866Y-4.4684
X7.995Y-3.36
X8.Y-3.5937
X8.Y-3.8063
X8.005Y-3.525
X8.01Y-4.01
X8.02Y-2.9387
X8.03Y-1.805
X8.03Y-2.54
X8.03Y-4.095
X8.0306Y-3.9726
X8.035Y-4.41
X8.04Y-6.7725
X8.045Y-3.44
X8.045Y-4.245
X8.045Y-4.53
X8.05Y-3.59
X8.05Y-3.8063
X8.0575Y-5.3475
X8.06Y-3.16
X8.06Y-5.27
X8.0625Y-5.16
X8.0625Y-5.3
X8.065Y-5.12
X8.065Y-5.14
X8.08Y-4.02
X8.08Y-4.6725
X8.08Y-4.7925
X8.08Y-4.91
X8.0835Y-4.7659
X8.09Y-4.4
X8.0925Y-4.7025
X8.0961Y-4.7295
X8.105Y-6.2375
X8.1075Y-5.13
X8.1075Y-5.1475
X8.1075Y-5.765
X8.1075Y-6.215
X8.11Y-3.8606
X8.1125Y-5.785
X8.1275Y-6.215
X8.1275Y-6.2375
X8.13Y-5.13
X8.13Y-5.15
X8.1325Y-5.7875
X8.135Y-5.7675
X8.14Y-3.42
X8.165Y-1.045
X8.175Y-3.42
X8.18Y-2.955
X8.19Y-4.075
X8.19Y-4.39
X8.1925Y-4.6875
X8.2Y-3.86
X8.2Y-4.6575
X8.2Y-4.7075
X8.2025Y-2.54
X8.22Y-3.42
X8.225Y-3.8763
X8.231Y-5.946
X8.249Y-5.964
X8.25Y-4.51
X8.25Y-6.603
X8.2524Y-4.685
X8.26Y-4.115
X8.27Y-3.5937
X8.2975Y-2.86
X8.3125Y-3.275
X8.3125Y-4.5562
X8.325Y-3.525
X8.33Y-4.4172
X8.33Y-4.4428
X8.33Y-4.4684
X8.34Y-3.8521
X8.3536Y-4.9676
X8.3625Y-5.145
X8.365Y-5.1225
X8.3773Y-4.3459
X8.3875Y-5.1247
X8.3875Y-5.145
X8.3925Y-2.54
X8.4Y-4.8125
X8.4075Y-4.7175
X8.42Y-3.5937
X8.42Y-3.8763
X8.425Y-4.6925
X8.4325Y-6.64
X8.455Y-4.635
X8.47Y-2.5735
X8.485Y-4.2413
X8.4875Y-5.585
X8.4914Y-5.0464
X8.495Y-3.97
X8.5Y-3.16
X8.5075Y-5.0975
X8.515Y-3.34
X8.525Y-3.515
X8.5325Y-5.585
X8.535Y-4.13
X8.54Y-4.01
X8.545Y-4.05
X8.55Y-4.425
X8.55Y-4.64
X8.555Y-4.2413
X8.56Y-6.685
X8.565Y-3.42
X8.57Y-3.605
X8.57Y-3.605
X8.57Y-3.605
X8.57Y-3.86
X8.575Y-2.5735
X8.58Y-5.585
X8.5825Y-3.1575
X8.59Y-4.01
X8.59Y-5.01
X8.5948Y-3.68
X8.595Y-4.53
X8.595Y-4.71
X8.595Y-4.71
X8.595Y-4.71
X8.6Y-4.435
X8.6099Y-5.199
X8.61Y-5.035
X8.6106Y-3.8217
X8.6175Y-2.86
X8.625Y-5.1
X8.6263Y-3.6275
X8.6275Y-5.03
X8.6315Y-5.181
X8.655Y-3.96
X8.6625Y-5.1025
X8.665Y-2.055
X8.6667Y-4.677
X8.68Y-3.015
X8.68Y-4.78
X8.685Y-4.6475
X8.6875Y-5.2325
X8.7024Y-3.685
X8.7025Y-5.0025
X8.7087Y-4.6541
X8.7095Y-5.6007
X8.7175Y-5.6275
X8.73Y-3.9287
X8.73Y-4.385
X8.7325Y-5.0375
X8.735Y-3.86
X8.7525Y-6.8
X8.7572Y-4.7717
X8.7651Y-4.7919
X8.7669Y-3.0414
X8.7675Y-6.69
X8.775Y-6.5575
X8.7775Y-6.6025
X8.785Y-4.45
X8.785Y-4.49
X8.8Y-3.1991
X8.805Y-6.6575
X8.8064Y-4.8102
X8.81Y-3.7863
X8.82Y-6.725
X8.84Y-3.275
X8.84Y-3.515
X8.8434Y-4.4684
X8.845Y-4.0081
X8.845Y-6.66
X8.855Y-3.8525
X8.8557Y-3.1137
X8.86Y-4.13
X8.8625Y-4.5475
X8.8625Y-4.69
X8.865Y-4.9525
X8.8675Y-4.92
X8.87Y-4.7775
X8.88Y-3.89
X8.9023Y-5.7461
X8.905Y-2.065
X8.91Y-3.93
X8.91Y-6.6025
X8.92Y-3.6324
X8.92Y-5.815
X8.92Y-5.88
X8.9204Y-5.728
X8.925Y-5.8475
X8.925Y-6.0075
X8.9275Y-5.9725
X8.935Y-4.46
X8.96Y-3.695
X8.9625Y-6.7425
X8.9642Y-3.8465
X8.965Y-3.725
X8.9775Y-6.6475
X8.9811Y-5.7281
X8.9918Y-3.8713
X9.Y-3.695
X9.Y-3.725
X9.005Y-3.835
X9.007Y-5.7736
X9.007Y-5.7992
X9.0126Y-5.7281
X9.0166Y-4.4172
X9.025Y-3.695
X9.03Y-3.72
X9.03Y-4.2413
X9.035Y-3.97
X9.04Y-3.16
X9.045Y-2.86
X9.045Y-6.055
X9.055Y-3.34
X9.06Y-4.
X9.0624Y-4.675
X9.07Y-3.52
X9.07Y-6.3698
X9.085Y-4.08
X9.095Y-4.235
X9.1004Y-6.3704
X9.105Y-3.42
X9.107Y-5.7281
X9.11Y-3.5637
X9.115Y-4.9475
X9.1158Y-4.5216
X9.1175Y-3.155
X9.125Y-4.7425
X9.125Y-6.725
X9.1273Y-4.3459
X9.13Y-3.89
X9.13Y-4.37
X9.1337Y-4.045
X9.1385Y-5.7281
X9.1569Y-6.4235
X9.17Y-6.0628
X9.17Y-6.0628
X9.175Y-3.92
X9.18Y-3.545
X9.1875Y-6.725
X9.215Y-4.11
X9.215Y-4.7125
X9.215Y-5.005
X9.2172Y-4.5537
X9.2175Y-4.735
X9.225Y-3.535
X9.245Y-5.1025
X9.2475Y-6.585
X9.25Y-1.995
X9.25Y-2.86
X9.25Y-4.55
X9.25Y-4.59
X9.255Y-2.185
X9.265Y-4.7303
X9.28Y-6.165
X9.285Y-4.6425
X9.285Y-4.705
X9.2975Y-6.5825
X9.3Y-3.1991
X9.3144Y-3.3426
X9.315Y-4.465
X9.315Y-4.4875
X9.325Y-0.955
X9.325Y-4.6725
X9.325Y-5.095
X9.33Y-3.8063
X9.33Y-5.8572
X9.33Y-5.8828
X9.3425Y-5.18
X9.3456Y-3.9726
X9.3475Y-6.4325
X9.35Y-4.6975
X9.3656Y-3.4174
X9.3725Y-4.555
X9.3734Y-4.4684
X9.385Y-6.62
X9.39Y-6.545
X9.391Y-5.129
X9.3972Y-5.79
X9.4Y-3.89
X9.409Y-5.111
X9.4098Y-5.0464
X9.42Y-4.34
X9.4228Y-5.79
X9.4298Y-4.5675
X9.43Y-5.1
X9.435Y-3.71
X9.44Y-3.92
X9.45Y-3.545
X9.45Y-6.705
X9.4593Y-5.105
X9.46Y-3.705
X9.465Y-2.805
X9.465Y-4.6325
X9.4662Y-4.5033
X9.4763Y-4.5542
X9.485Y-3.705
X9.485Y-3.74
X9.49Y-4.425
X9.4975Y-5.1875
X9.505Y-4.6263
X9.5175Y-5.19
X9.5225Y-6.4375
X9.5285Y-5.699
X9.535Y-3.845
X9.535Y-5.8797
X9.535Y-5.9053
X9.54Y-5.105
X9.5465Y-5.681
X9.55Y-3.745
X9.555Y-2.025
X9.555Y-3.695
X9.56Y-4.2413
X9.5625Y-3.16
X9.565Y-3.97
X9.575Y-3.34
X9.575Y-6.7125
X9.58Y-3.5937
X9.585Y-3.855
X9.595Y-4.3
X9.6Y-3.725
X9.6Y-4.01
X9.605Y-4.1025
X9.61Y-4.36
X9.6125Y-2.86
X9.62Y-4.2413
X9.625Y-3.42
X9.6263Y-4.4887
X9.6264Y-4.7708
X9.63Y-3.5937
X9.64Y-3.865
X9.6425Y-3.165
X9.65Y-4.01
X9.66Y-3.8837
X9.67Y-4.3
X9.68Y-4.6675
X9.68Y-4.9075
X9.685Y-4.81
X9.695Y-2.25
X9.6957Y-4.11
X9.7277Y-3.275
X9.73Y-0.96
X9.73Y-4.415
X9.755Y-4.28
X9.7737Y-4.3125
X9.79Y-3.245
X9.81Y-2.795
X9.81Y-4.51
X9.84Y-3.645
X9.85Y-3.8063
X9.8817Y-1.765
X9.8934Y-4.4428
X9.9Y-3.5937
X9.9Y-4.13
X9.9007Y-1.7546
X9.905Y-3.705
X9.92Y-3.865
X9.925Y-5.0075
X9.93Y-3.725
X9.94Y-3.7
X9.955Y-5.1675
X9.965Y-4.35
X9.97Y-4.52
X9.975Y-3.725
X9.975Y-5.6675
X9.98Y-1.965
X9.99Y-3.695
X10.Y-3.5937
X10.005Y-3.645
X10.01Y-3.695
X10.02Y-4.445
X10.03Y-0.935
X10.035Y-6.0025
X10.05Y-3.7
X10.0544Y-3.8837
X10.055Y-3.645
X10.065Y-4.9675
X10.07Y-5.2575
X10.08Y-3.98
X10.08Y-4.27
X10.0825Y-3.16
X10.085Y-5.6425
X10.09Y-2.635
X10.095Y-3.34
X10.095Y-3.535
X10.095Y-5.4575
X10.0975Y-4.645
X10.1Y-3.8063
X10.105Y-3.67
X10.105Y-3.705
X10.11Y-3.645
X10.11Y-4.01
X10.12Y-1.36
X10.12Y-6.3375
X10.1275Y-4.035
X10.1306Y-3.905
X10.135Y-3.68
X10.135Y-3.705
X10.14Y-3.65
X10.14Y-4.27
X10.145Y-3.415
X10.15Y-3.595
X10.15Y-3.8063
X10.155Y-6.8075
X10.16Y-3.16
X10.17Y-4.02
X10.195Y-2.21
X10.2Y-3.715
X10.205Y-3.63
X10.205Y-3.675
X10.21Y-3.745
X10.21Y-4.43
X10.225Y-1.63
X10.23Y-3.415
X10.23Y-3.45
X10.24Y-3.84
X10.2525Y-3.465
X10.275Y-4.13
X10.29Y-4.445
X10.2998Y-1.63
X10.34Y-1.2875
X10.34Y-1.3931
X10.3625Y-2.5675
X10.3774Y-1.3931
X10.3875Y-2.39
X10.58Y-1.25
T2
X2.6009Y-3.8305
X2.6009Y-3.8895
X2.66Y-3.8305
X2.66Y-3.8895
X2.7191Y-3.8305
X2.7191Y-3.8895
X2.6009Y-4.8505
X2.6009Y-4.9095
X2.66Y-4.8505
X2.66Y-4.9095
X2.7191Y-4.8505
X2.7191Y-4.9095
X5.0705Y-1.7709
X5.0705Y-1.83
X5.0705Y-1.8891
X5.1295Y-1.7709
X5.1295Y-1.83
X5.1295Y-1.8891
X2.6009Y-5.6505
X2.6009Y-5.7095
X2.66Y-5.6505
X2.66Y-5.7095
X2.7191Y-5.6505
X2.7191Y-5.7095
X6.8655Y-1.7409
X6.8655Y-1.8
X6.8655Y-1.8591
X6.9245Y-1.7409
X6.9245Y-1.8
X6.9245Y-1.8591
X6.133Y-2.5959
X6.133Y-2.655
X6.133Y-2.7141
X6.192Y-2.5959
X6.192Y-2.655
X6.192Y-2.7141
X3.2405Y-1.7709
X3.2405Y-1.83
X3.2405Y-1.8891
X3.2995Y-1.7709
X3.2995Y-1.83
X3.2995Y-1.8891
T3
X6.5816Y-3.67
X7.1015Y-3.685
X7.6815Y-3.695
X7.742Y-4.7014
X7.742Y-4.7014
X7.83Y-6.3025
X8.2015Y-3.7
X8.7426Y-3.68
X9.2631Y-3.7
X9.7815Y-3.705
T4
X2.4309Y-3.065
X2.625Y-5.905
X2.7496Y-5.47
X2.815Y-5.865
X2.85Y-5.505
X3.015Y-4.7575
X3.0509Y-1.925
X3.0509Y-4.175
X3.1759Y-4.27
X3.25Y-2.8225
X3.25Y-4.5175
X3.46Y-4.06
X3.66Y-4.4043
X3.67Y-4.245
X3.735Y-4.6766
X3.7391Y-4.865
X3.795Y-3.16
X3.845Y-2.2225
X3.985Y-4.055
X4.4625Y-4.9578
X4.7025Y-4.6219
X4.7409Y-3.83
X4.7509Y-2.7775
X4.81Y-2.5825
X4.835Y-2.2225
X4.8909Y-6.62
X4.9Y-2.575
X4.9209Y-4.09
X4.9259Y-3.84
X4.93Y-3.9537
X5.3115Y-2.52
X5.325Y-2.7775
X5.35Y-3.055
X5.67Y-2.2225
X6.025Y-5.2725
X6.065Y-2.5325
X6.17Y-4.965
X6.18Y-4.9
X6.235Y-6.245
X6.315Y-6.245
X6.329Y-2.6677
X6.37Y-4.8575
X6.39Y-2.7725
X6.4125Y-4.425
X6.4725Y-3.3675
X6.475Y-3.8025
X6.53Y-3.3075
X6.6056Y-4.2008
X6.6085Y-1.785
X6.62Y-2.2225
X6.62Y-3.1409
X6.68Y-5.9675
X6.6856Y-4.2008
X6.6934Y-4.4941
X6.6934Y-5.2375
X6.7009Y-3.1409
X6.7609Y-6.2475
X6.785Y-2.0375
X6.8225Y-4.665
X6.94Y-2.035
X7.0425Y-2.045
X7.1485Y-2.58
X7.15Y-2.6425
X7.16Y-3.1609
X7.16Y-4.2241
X7.2191Y-6.0825
X7.225Y-5.9117
X7.24Y-3.16
X7.24Y-4.2241
X7.275Y-6.0175
X7.4447Y-6.2753
X7.465Y-5.9325
X7.4698Y-6.0785
X7.47Y-5.8975
X7.505Y-5.8925
X7.505Y-5.9275
X7.52Y-6.3075
X7.585Y-5.9125
X7.5859Y-6.455
X7.74Y-3.1659
X7.74Y-4.2441
X7.74Y-6.2325
X7.815Y-3.1709
X7.84Y-4.2441
X7.92Y-6.0225
X7.9866Y-4.3867
X8.085Y-6.3775
X8.255Y-4.995
X8.26Y-4.2391
X8.28Y-3.16
X8.32Y-4.2391
X8.36Y-3.16
X8.5032Y-4.3867
X8.78Y-4.2391
X8.86Y-4.2391
X8.87Y-4.82
X8.8825Y-3.1575
X8.9425Y-3.16
X9.0166Y-4.3867
X9.035Y-5.025
X9.075Y-6.0575
X9.089Y-4.7485
X9.1125Y-4.815
X9.1525Y-6.6275
X9.155Y-5.145
X9.16Y-6.5425
X9.2025Y-6.0625
X9.2856Y-4.2499
X9.3Y-3.1609
X9.33Y-3.275
X9.3556Y-4.2491
X9.36Y-4.64
X9.38Y-3.1609
X9.425Y-4.755
X9.425Y-4.755
X9.425Y-4.755
X9.535Y-4.905
X9.5466Y-4.3867
X9.74Y-1.32
X9.8Y-4.2491
X9.82Y-3.1609
X9.84Y-3.3075
X9.87Y-4.2491
X9.885Y-4.495
X9.895Y-4.56
X9.9Y-3.1609
X10.0666Y-4.3867
X10.1925Y-1.3575
X10.3Y-1.2825
X10.3Y-1.3925
X10.3175Y-4.5525
T6
X5.305Y-3.69
X5.355Y-3.69
X5.405Y-3.69
T7
X6.72Y-1.28
X7.057Y-1.28
X5.72Y-1.28
X6.057Y-1.28
X7.5Y-1.28
X7.837Y-1.28
X3.92Y-1.28
X4.257Y-1.28
X4.94Y-1.28
X5.277Y-1.28
X2.12Y-4.763
X2.12Y-5.1
X3.12Y-1.28
X3.457Y-1.28
X2.12Y-3.703
X2.12Y-4.04
X2.12Y-2.923
X2.12Y-3.26
X2.12Y-5.523
X2.12Y-5.86
T8
X9.74Y-1.32
X9.84Y-1.32
X9.94Y-1.32
X8.86Y-1.32
X8.96Y-1.32
X9.06Y-1.32
T9
X3.2678Y-4.94
X3.2678Y-5.1959
X3.445Y-4.94
X3.445Y-5.1959
X2.8235Y-0.8889
X2.8235Y-1.0078
X2.9416Y-0.8889
X2.9416Y-1.0078
X3.0597Y-0.8889
X3.0597Y-1.0078
X3.1778Y-0.8889
X3.1778Y-1.0078
X3.2959Y-0.8889
X3.2959Y-1.0078
X3.4141Y-0.8889
X3.4141Y-1.0078
X3.5322Y-0.8889
X3.5322Y-1.0078
X5.3657Y-6.892
X5.3657Y-7.0109
X5.4838Y-6.892
X5.4838Y-7.0109
X5.6019Y-6.892
X5.6019Y-7.0109
X5.72Y-6.892
X5.72Y-7.0109
X5.8381Y-6.892
X5.8381Y-7.0109
X5.9562Y-6.892
X5.9562Y-7.0109
X6.0743Y-6.892
X6.0743Y-7.0109
X1.7091Y-5.4457
X1.7091Y-5.5638
X1.7091Y-5.6819
X1.7091Y-5.8
X1.7091Y-5.9181
X1.7091Y-6.0362
X1.7091Y-6.1543
X1.828Y-5.4457
X1.828Y-5.5638
X1.828Y-5.6819
X1.828Y-5.8
X1.828Y-5.9181
X1.828Y-6.0362
X1.828Y-6.1543
X1.7657Y-6.8952
X1.7657Y-7.0141
X1.8838Y-6.8952
X1.8838Y-7.0141
X2.0019Y-6.8952
X2.0019Y-7.0141
X2.12Y-6.8952
X2.12Y-7.0141
X2.2381Y-6.8952
X2.2381Y-7.0141
X2.3562Y-6.8952
X2.3562Y-7.0141
X2.4743Y-6.8952
X2.4743Y-7.0141
X4.6257Y-0.8891
X4.6257Y-1.008
X4.7438Y-0.8891
X4.7438Y-1.008
X4.8619Y-0.8891
X4.8619Y-1.008
X4.98Y-0.8891
X4.98Y-1.008
X5.0981Y-0.8891
X5.0981Y-1.008
X5.2162Y-0.8891
X5.2162Y-1.008
X5.3343Y-0.8891
X5.3343Y-1.008
X6.2657Y-6.887
X6.2657Y-7.0059
X6.3838Y-6.887
X6.3838Y-7.0059
X6.5019Y-6.887
X6.5019Y-7.0059
X6.62Y-6.887
X6.62Y-7.0059
X6.7381Y-6.887
X6.7381Y-7.0059
X6.8562Y-6.887
X6.8562Y-7.0059
X6.9743Y-6.887
X6.9743Y-7.0059
X1.7091Y-4.5457
X1.7091Y-4.6638
X1.7091Y-4.7819
X1.7091Y-4.9
X1.7091Y-5.0181
X1.7091Y-5.1362
X1.7091Y-5.2543
X1.828Y-4.5457
X1.828Y-4.6638
X1.828Y-4.7819
X1.828Y-4.9
X1.828Y-5.0181
X1.828Y-5.1362
X1.828Y-5.2543
X1.7091Y-2.7057
X1.7091Y-2.8238
X1.7091Y-2.9419
X1.7091Y-3.06
X1.7091Y-3.1781
X1.7091Y-3.2962
X1.7091Y-3.4143
X1.828Y-2.7057
X1.828Y-2.8238
X1.828Y-2.9419
X1.828Y-3.06
X1.828Y-3.1781
X1.828Y-3.2962
X1.828Y-3.4143
X2.6657Y-6.892
X2.6657Y-7.0109
X2.7838Y-6.892
X2.7838Y-7.0109
X2.9019Y-6.892
X2.9019Y-7.0109
X3.02Y-6.892
X3.02Y-7.0109
X3.1381Y-6.892
X3.1381Y-7.0109
X3.2562Y-6.892
X3.2562Y-7.0109
X3.3743Y-6.892
X3.3743Y-7.0109
X5.5257Y-0.8891
X5.5257Y-1.008
X5.6438Y-0.8891
X5.6438Y-1.008
X5.7619Y-0.8891
X5.7619Y-1.008
X5.88Y-0.8891
X5.88Y-1.008
X5.9981Y-0.8891
X5.9981Y-1.008
X6.1162Y-0.8891
X6.1162Y-1.008
X6.2343Y-0.8891
X6.2343Y-1.008
X6.4257Y-0.8891
X6.4257Y-1.008
X6.5438Y-0.8891
X6.5438Y-1.008
X6.6619Y-0.8891
X6.6619Y-1.008
X6.78Y-0.8891
X6.78Y-1.008
X6.8981Y-0.8891
X6.8981Y-1.008
X7.0162Y-0.8891
X7.0162Y-1.008
X7.1343Y-0.8891
X7.1343Y-1.008
X7.3257Y-0.8891
X7.3257Y-1.008
X7.4438Y-0.8891
X7.4438Y-1.008
X7.5619Y-0.8891
X7.5619Y-1.008
X7.68Y-0.8891
X7.68Y-1.008
X7.7981Y-0.8891
X7.7981Y-1.008
X7.9162Y-0.8891
X7.9162Y-1.008
X8.0343Y-0.8891
X8.0343Y-1.008
X1.7091Y-3.6257
X1.7091Y-3.7438
X1.7091Y-3.8619
X1.7091Y-3.98
X1.7091Y-4.0981
X1.7091Y-4.2162
X1.7091Y-4.3343
X1.828Y-3.6257
X1.828Y-3.7438
X1.828Y-3.8619
X1.828Y-3.98
X1.828Y-4.0981
X1.828Y-4.2162
X1.828Y-4.3343
X3.5657Y-6.892
X3.5657Y-7.0109
X3.6838Y-6.892
X3.6838Y-7.0109
X3.8019Y-6.892
X3.8019Y-7.0109
X3.92Y-6.892
X3.92Y-7.0109
X4.0381Y-6.892
X4.0381Y-7.0109
X4.1562Y-6.892
X4.1562Y-7.0109
X4.2743Y-6.892
X4.2743Y-7.0109
X4.4657Y-6.892
X4.4657Y-7.0109
X4.5838Y-6.892
X4.5838Y-7.0109
X4.7019Y-6.892
X4.7019Y-7.0109
X4.82Y-6.892
X4.82Y-7.0109
X4.9381Y-6.892
X4.9381Y-7.0109
X5.0562Y-6.892
X5.0562Y-7.0109
X5.1743Y-6.892
X5.1743Y-7.0109
X3.7235Y-0.8889
X3.7235Y-1.0078
X3.8416Y-0.8889
X3.8416Y-1.0078
X3.9597Y-0.8889
X3.9597Y-1.0078
X4.0778Y-0.8889
X4.0778Y-1.0078
X4.1959Y-0.8889
X4.1959Y-1.0078
X4.3141Y-0.8889
X4.3141Y-1.0078
X4.4322Y-0.8889
X4.4322Y-1.0078
T10
X4.8638Y-1.5787
X4.8638Y-2.0591
X5.1Y-1.5
X5.3362Y-1.5787
X5.3362Y-2.0591
X7.4438Y-1.5787
X7.4438Y-2.0591
X7.68Y-1.5
X7.9162Y-1.5787
X7.9162Y-2.0591
X3.8438Y-1.5787
X3.8438Y-2.0591
X4.08Y-1.5
X4.3162Y-1.5787
X4.3162Y-2.0591
X6.6638Y-1.5787
X6.6638Y-2.0591
X6.9Y-1.5
X7.1362Y-1.5787
X7.1362Y-2.0591
X2.34Y-3.86
X2.4187Y-3.6238
X2.4187Y-4.0962
X2.8991Y-3.6238
X2.8991Y-4.0962
X3.0438Y-1.5787
X3.0438Y-2.0591
X3.28Y-1.5
X3.5162Y-1.5787
X3.5162Y-2.0591
X5.6438Y-1.5787
X5.6438Y-2.0591
X5.88Y-1.5
X6.1162Y-1.5787
X6.1162Y-2.0591
X2.34Y-4.9
X2.4187Y-4.6638
X2.4187Y-5.1362
X2.8991Y-4.6638
X2.8991Y-5.1362
X2.34Y-5.68
X2.4187Y-5.4438
X2.4187Y-5.9162
X2.8991Y-5.4438
X2.8991Y-5.9162
X2.34Y-3.06
X2.4187Y-2.8238
X2.4187Y-3.2962
X2.8991Y-2.8238
X2.8991Y-3.2962
T11
X8.46Y-6.54
X8.46Y-6.7762
X8.645Y-6.6581
T12
X10.66Y-3.44
X10.66Y-4.6199
X10.66Y-5.28
X10.66Y-6.4599
X10.66Y-1.6801
X10.66Y-2.86
T5
X9.1035Y-6.8913G85X9.1035Y-6.9149
G05
X9.1177Y-6.6078G85X9.1177Y-6.6314
G05
X9.4429Y-6.6078G85X9.4429Y-6.6314
G05
X9.4571Y-6.8913G85X9.4571Y-6.9149
G05
T0
M30
