M48
;DRILL file {KiCad (5.0.0)} date 03/12/19 22:38:45
;FORMAT={-:-/ absolute / inch / decimal}
FMAT,2
INCH,TZ
T1C0.0118
T2C0.0130
T3C0.0197
T4C0.0217
T5C0.0236
T6C0.0289
T7C0.0394
T8C0.0472
T9C0.0512
T10C0.0630
T11C0.0787
T12C0.2402
%
G90
G05
M72
T1
X1.675Y-0.76
X1.72Y-3.54
X1.7275Y-1.24
X1.76Y-1.94
X1.78Y-3.5
X1.8Y-4.96
X1.86Y-1.78
X1.8719Y-3.2519
X1.88Y-3.02
X1.88Y-4.28
X1.88Y-5.04
X1.8836Y-6.1114
X1.9Y-1.6
X1.9Y-2.98
X1.9Y-3.48
X1.9Y-3.76
X1.9Y-4.12
X1.9Y-5.08
X1.9004Y-5.7146
X1.92Y-2.18
X1.92Y-2.96
X1.92Y-3.68
X1.92Y-3.74
X1.92Y-4.1
X1.9204Y-5.7746
X1.9244Y-5.7122
X1.9398Y-5.2956
X1.9404Y-6.2346
X1.9451Y-5.4501
X1.96Y-2.14
X1.96Y-2.96
X1.96Y-3.6
X1.961Y-5.2756
X1.967Y-5.2528
X1.98Y-0.72
X1.98Y-3.46
X1.98Y-5.2
X1.9804Y-6.2546
X1.9871Y-3.7529
X2.Y-5.02
X2.0404Y-2.4946
X2.055Y-1.29
X2.064Y-3.26
X2.0827Y-3.56
X2.0827Y-3.66
X2.095Y-2.6325
X2.0951Y-5.4201
X2.1051Y-4.2501
X2.1175Y-2.605
X2.1204Y-2.8346
X2.1204Y-3.6346
X2.1398Y-4.3956
X2.1551Y-5.2001
X2.16Y-0.76
X2.16Y-4.54
X2.1625Y-2.715
X2.18Y-3.6051
X2.2Y-5.
X2.2526Y-3.695
X2.2526Y-5.395
X2.28Y-3.38
X2.28Y-4.46
X2.3198Y-4.3956
X2.32Y-4.
X2.32Y-4.12
X2.32Y-5.2729
X2.33Y-2.645
X2.3351Y-2.4401
X2.3451Y-5.1901
X2.3451Y-5.5701
X2.3598Y-4.1
X2.36Y-1.26
X2.36Y-4.552
X2.3604Y-4.7346
X2.3625Y-0.765
X2.3675Y-1.33
X2.38Y-4.9773
X2.38Y-5.06
X2.41Y-2.585
X2.4198Y-4.3956
X2.42Y-4.28
X2.4204Y-4.7546
X2.4204Y-5.5346
X2.4451Y-3.0001
X2.4451Y-3.8901
X2.46Y-5.
X2.46Y-5.08
X2.4726Y-3.695
X2.4802Y-5.4869
X2.4804Y-5.3146
X2.4804Y-6.0546
X2.4926Y-2.275
X2.5004Y-4.8346
X2.5004Y-5.4346
X2.5004Y-5.4946
X2.5004Y-6.1946
X2.5102Y-2.1991
X2.5126Y-2.175
X2.5126Y-2.335
X2.5126Y-3.415
X2.52Y-3.66
X2.52Y-3.78
X2.5202Y-4.7069
X2.5204Y-6.0927
X2.5213Y-5.4533
X2.5326Y-3.635
X2.5398Y-4.3956
X2.54Y-3.68
X2.54Y-3.8
X2.5404Y-4.7146
X2.5455Y-2.1621
X2.5526Y-2.715
X2.56Y-3.64
X2.56Y-5.14
X2.5726Y-2.035
X2.5726Y-2.075
X2.5726Y-3.295
X2.58Y-4.6759
X2.58Y-5.52
X2.58Y-5.86
X2.5801Y-5.1587
X2.5926Y-2.015
X2.5926Y-2.155
X2.5926Y-3.335
X2.6Y-3.44
X2.6Y-4.02
X2.6Y-4.0417
X2.6Y-4.36
X2.6Y-4.552
X2.6Y-5.12
X2.6Y-5.4759
X2.6Y-5.84
X2.6126Y-1.975
X2.6126Y-2.135
X2.6126Y-3.395
X2.6154Y-5.0987
X2.6154Y-5.4061
X2.6187Y-4.6461
X2.62Y-3.7
X2.62Y-4.08
X2.6326Y-1.835
X2.6326Y-2.815
X2.6354Y-5.8861
X2.64Y-3.66
X2.6404Y-4.6946
X2.6404Y-5.4346
X2.6526Y-1.935
X2.6526Y-3.415
X2.6538Y-5.9248
X2.6554Y-5.4061
X2.6604Y-4.7146
X2.6726Y-1.815
X2.6726Y-1.975
X2.6726Y-2.195
X2.6791Y-3.6802
X2.6798Y-4.3956
X2.68Y-4.0604
X2.68Y-4.36
X2.68Y-4.52
X2.68Y-5.08
X2.6804Y-5.3146
X2.6804Y-6.1146
X2.6813Y-5.1813
X2.6926Y-1.795
X2.695Y-1.3475
X2.6999Y-3.7001
X2.7Y-4.2
X2.7Y-5.06
X2.7004Y-5.4546
X2.7004Y-5.9746
X2.7051Y-3.0301
X2.7151Y-1.7601
X2.7198Y-3.6756
X2.72Y-4.18
X2.72Y-4.22
X2.72Y-4.7
X2.72Y-5.3
X2.7204Y-5.4946
X2.7326Y-1.775
X2.74Y-3.16
X2.74Y-3.66
X2.7404Y-5.9946
X2.7437Y-4.291
X2.7525Y-2.6151
X2.7526Y-2.6584
X2.7526Y-3.335
X2.7526Y-3.5787
X2.7526Y-2.6801
X2.7526Y-2.6368
X2.76Y-4.06
X2.76Y-5.08
X2.7604Y-6.0146
X2.7605Y-2.595
X2.7651Y-2.8401
X2.7692Y-4.68
X2.7722Y-4.7681
X2.7776Y-5.1159
X2.7798Y-4.3956
X2.78Y-3.4
X2.78Y-3.7
X2.78Y-4.
X2.78Y-4.04
X2.78Y-5.02
X2.78Y-5.14
X2.787Y-5.9
X2.7987Y-4.6146
X2.7987Y-5.4546
X2.7997Y-3.68
X2.7998Y-3.3356
X2.7998Y-4.1556
X2.8Y-3.2
X2.8173Y-1.7001
X2.82Y-2.56
X2.8384Y-4.0068
X2.84Y-1.2
X2.84Y-1.92
X2.84Y-2.3175
X2.84Y-3.16
X2.8411Y-5.52
X2.8421Y-4.16
X2.8421Y-4.7
X2.8516Y-3.5756
X2.86Y-1.14
X2.86Y-2.2
X2.86Y-5.06
X2.86Y-5.72
X2.8608Y-3.7
X2.8612Y-3.9794
X2.8657Y-4.014
X2.8736Y-5.02
X2.8751Y-1.7001
X2.8798Y-3.3756
X2.8798Y-3.5556
X2.88Y-2.04
X2.8807Y-4.0346
X2.8926Y-3.695
X2.8951Y-4.9101
X2.8998Y-4.3956
X2.9Y-1.64
X2.9Y-1.88
X2.9007Y-4.3546
X2.9051Y-4.8101
X2.9187Y-2.5587
X2.94Y-1.64
X2.9404Y-2.4946
X2.9591Y-3.1802
X2.9598Y-3.7356
X2.96Y-1.62
X2.96Y-4.02
X2.96Y-5.06
X2.96Y-5.86
X2.9606Y-3.2806
X2.964Y-1.72
X2.9798Y-3.1556
X2.98Y-4.
X2.98Y-4.075
X2.98Y-5.02
X2.9817Y-5.84
X2.9827Y-2.6771
X3.Y-3.98
X3.Y-4.48
X3.Y-4.5894
X3.Y-5.52
X3.0017Y-3.52
X3.02Y-1.64
X3.02Y-1.86
X3.02Y-3.56
X3.02Y-3.86
X3.02Y-3.9
X3.02Y-4.12
X3.02Y-4.2
X3.04Y-1.815
X3.04Y-3.52
X3.04Y-3.94
X3.0407Y-4.3546
X3.0407Y-4.9377
X3.0407Y-5.1546
X3.0534Y-4.3
X3.0554Y-1.7661
X3.0598Y-1.6432
X3.0598Y-1.6956
X3.06Y-3.56
X3.06Y-3.605
X3.06Y-3.78
X3.06Y-3.88
X3.0617Y-3.52
X3.0718Y-3.28
X3.0763Y-2.595
X3.0798Y-1.8556
X3.0798Y-3.8556
X3.0801Y-3.8344
X3.0926Y-2.615
X3.0981Y-3.1295
X3.0998Y-1.7756
X3.0998Y-3.1556
X3.1Y-1.68
X3.1Y-1.88
X3.1Y-1.92
X3.1Y-3.2
X3.1Y-3.42
X3.1Y-4.04
X3.1Y-4.76
X3.1088Y-1.8172
X3.1126Y-2.635
X3.1131Y-3.1145
X3.12Y-1.6161
X3.12Y-5.18
X3.1201Y-3.192
X3.1204Y-1.5746
X3.1326Y-2.655
X3.1326Y-3.095
X3.1387Y-3.595
X3.14Y-3.84
X3.14Y-5.1
X3.1526Y-1.975
X3.1526Y-3.075
X3.1574Y-3.255
X3.1574Y-3.7302
X3.16Y-1.7
X3.16Y-3.8
X3.1725Y-4.8773
X3.1726Y-2.275
X3.1726Y-2.375
X3.18Y-1.42
X3.18Y-2.82
X3.18Y-4.18
X3.1926Y-2.295
X3.1926Y-2.355
X3.1975Y-2.045
X3.1987Y-4.015
X3.1987Y-4.0367
X3.2198Y-4.3956
X3.2221Y-1.6161
X3.2326Y-3.275
X3.2351Y-3.2301
X3.24Y-3.34
X3.24Y-3.44
X3.24Y-3.6777
X3.24Y-6.18
X3.2526Y-3.975
X3.26Y-4.24
X3.26Y-4.44
X3.2651Y-3.2001
X3.28Y-2.76
X3.28Y-2.86
X3.29Y-2.045
X3.32Y-3.0563
X3.32Y-3.32
X3.32Y-3.36
X3.3398Y-4.1956
X3.3398Y-4.3956
X3.34Y-1.48
X3.3551Y-2.3301
X3.3575Y-4.9773
X3.3651Y-2.6101
X3.3851Y-4.0301
X3.3951Y-5.9701
X3.4Y-1.38
X3.4Y-3.
X3.4Y-3.72
X3.41Y-4.9373
X3.4126Y-2.2278
X3.4193Y-1.7951
X3.42Y-3.18
X3.4209Y-1.7235
X3.43Y-3.2775
X3.4326Y-1.775
X3.4354Y-1.9261
X3.44Y-1.86
X3.44Y-1.9
X3.44Y-3.78
X3.4451Y-3.8201
X3.4598Y-1.6556
X3.46Y-1.22
X3.46Y-1.84
X3.46Y-3.28
X3.4604Y-1.5346
X3.4798Y-1.7956
X3.48Y-3.32
X3.4851Y-5.6201
X3.5126Y-3.395
X3.5151Y-2.5201
X3.5151Y-5.9701
X3.5198Y-2.3556
X3.5198Y-4.3956
X3.52Y-1.34
X3.5326Y-3.715
X3.5326Y-3.755
X3.5526Y-2.695
X3.5526Y-3.415
X3.5651Y-4.8201
X3.57Y-5.7925
X3.57Y-5.89
X3.58Y-1.46
X3.58Y-3.4
X3.58Y-6.1125
X3.6Y-1.48
X3.6Y-1.9
X3.6Y-2.96
X3.6Y-3.82
X3.6Y-4.26
X3.62Y-1.38
X3.62Y-3.36
X3.62Y-6.0567
X3.6304Y-3.4194
X3.6398Y-2.1956
X3.6398Y-1.9356
X3.64Y-1.82
X3.64Y-3.4
X3.64Y-4.2
X3.64Y-4.66
X3.6413Y-3.655
X3.6525Y-3.2975
X3.6575Y-2.0725
X3.66Y-1.22
X3.66Y-1.86
X3.66Y-5.68
X3.68Y-1.3
X3.68Y-3.38
X3.68Y-4.52
X3.7Y-1.34
X3.7Y-5.06
X3.7187Y-3.6016
X3.7187Y-3.695
X3.72Y-1.3
X3.72Y-2.8825
X3.72Y-3.58
X3.72Y-3.98
X3.72Y-4.12
X3.7225Y-5.805
X3.7275Y-5.885
X3.7387Y-3.155
X3.7387Y-3.515
X3.7398Y-4.6556
X3.74Y-2.9983
X3.74Y-3.82
X3.7415Y-3.0213
X3.7451Y-4.8401
X3.7526Y-3.135
X3.7574Y-3.84
X3.7574Y-3.285
X3.7574Y-3.4902
X3.76Y-2.24
X3.7754Y-3.1347
X3.7875Y-5.13
X3.7926Y-3.115
X3.7926Y-3.5987
X3.7998Y-4.1156
X3.8Y-2.48
X3.8126Y-3.095
X3.8134Y-2.9874
X3.82Y-4.04
X3.825Y-2.8675
X3.8272Y-3.32
X3.8351Y-5.6201
X3.8375Y-2.905
X3.8398Y-4.3156
X3.84Y-3.58
X3.8451Y-5.0001
X3.8528Y-3.32
X3.8591Y-3.6363
X3.86Y-3.54
X3.86Y-3.5617
X3.8726Y-3.2437
X3.8726Y-3.615
X3.8798Y-4.1156
X3.88Y-3.34
X3.8814Y-3.263
X3.8926Y-3.155
X3.9Y-1.6161
X3.9Y-2.82
X3.9Y-4.98
X3.9Y-5.92
X3.9113Y-3.3791
X3.9126Y-3.495
X3.9126Y-3.635
X3.9126Y-3.6717
X3.9126Y-3.6933
X3.9126Y-3.715
X3.9174Y-3.225
X3.9198Y-4.1156
X3.9198Y-4.3956
X3.9204Y-1.5546
X3.9398Y-2.3956
X3.9398Y-4.6556
X3.94Y-4.2
X3.94Y-5.22
X3.955Y-5.7975
X3.955Y-5.8975
X3.9598Y-3.1756
X3.96Y-2.8472
X3.96Y-2.8728
X3.96Y-3.74
X3.96Y-4.26
X3.9798Y-3.1556
X3.98Y-3.86
X3.98Y-4.0217
X3.9815Y-3.92
X3.9851Y-1.5501
X3.9951Y-4.9201
X3.9998Y-3.1356
X4.Y-3.98
X4.Y-5.14
X4.0076Y-3.6961
X4.0126Y-3.515
X4.0131Y-3.7166
X4.0151Y-5.0101
X4.0191Y-3.3991
X4.0198Y-4.3156
X4.02Y-3.34
X4.02Y-3.8407
X4.02Y-3.94
X4.02Y-3.6789
X4.0207Y-3.6563
X4.0351Y-4.8101
X4.0391Y-3.2991
X4.0391Y-3.4582
X4.0398Y-2.3956
X4.0398Y-2.6356
X4.04Y-3.54
X4.04Y-3.5617
X4.04Y-3.5833
X4.04Y-3.88
X4.0451Y-2.0401
X4.0591Y-3.0991
X4.06Y-3.06
X4.06Y-3.8417
X4.06Y-4.04
X4.0651Y-1.9201
X4.0755Y-3.36
X4.0791Y-3.3991
X4.0791Y-3.6391
X4.08Y-3.2774
X4.0812Y-3.8407
X4.1Y-3.46
X4.1Y-3.52
X4.1Y-3.62
X4.1Y-3.8983
X4.1191Y-3.8391
X4.1192Y-3.8083
X4.12Y-1.7
X4.12Y-3.4076
X4.12Y-3.92
X4.12Y-4.
X4.12Y-5.13
X4.1251Y-4.9201
X4.1351Y-5.0101
X4.14Y-1.6161
X4.14Y-1.72
X4.14Y-2.895
X4.14Y-3.12
X4.1526Y-3.215
X4.1554Y-2.9661
X4.1591Y-3.6391
X4.1598Y-4.3156
X4.1598Y-4.6556
X4.16Y-1.7
X4.16Y-2.66
X4.16Y-3.94
X4.16Y-5.12
X4.1617Y-3.12
X4.163Y-3.9708
X4.1726Y-3.235
X4.1751Y-5.7801
X4.1798Y-3.4356
X4.18Y-1.68
X4.18Y-4.06
X4.1833Y-3.12
X4.1838Y-2.9587
X4.1851Y-5.6201
X4.1983Y-3.8983
X4.2Y-3.28
X4.2Y-3.32
X4.2Y-3.82
X4.202Y-2.6
X4.22Y-2.78
X4.22Y-3.8796
X4.22Y-3.92
X4.2351Y-6.0001
X4.2354Y-3.0061
X4.2398Y-3.4356
X4.24Y-3.28
X4.245Y-6.11
X4.2474Y-3.8531
X4.2551Y-5.0201
X4.2554Y-2.9902
X4.2554Y-3.1061
X4.257Y-3.517
X4.26Y-4.4
X4.2604Y-1.5346
X4.2651Y-5.4301
X4.2707Y-3.9395
X4.2771Y-3.1061
X4.2798Y-3.2956
X4.2926Y-1.995
X4.2961Y-3.9161
X4.2998Y-2.7156
X4.2998Y-3.2156
X4.2998Y-3.2556
X4.3Y-2.92
X4.3Y-3.98
X4.3Y-4.26
X4.3025Y-5.7975
X4.3025Y-5.8675
X4.3151Y-4.8301
X4.3168Y-3.6184
X4.32Y-3.1
X4.3201Y-3.943
X4.3391Y-3.6391
X4.3393Y-2.8334
X4.3398Y-4.6556
X4.34Y-3.52
X4.34Y-4.02
X4.3417Y-3.1
X4.3519Y-3.8984
X4.3591Y-3.2191
X4.3591Y-3.4591
X4.36Y-3.36
X4.36Y-3.7304
X4.365Y-3.665
X4.3651Y-4.9201
X4.3663Y-3.12
X4.3672Y-3.9137
X4.3751Y-5.5801
X4.38Y-2.38
X4.38Y-3.0901
X4.38Y-3.8088
X4.38Y-4.04
X4.3823Y-3.6006
X4.3983Y-3.9401
X4.3983Y-3.98
X4.4Y-4.02
X4.42Y-3.3
X4.42Y-3.8648
X4.42Y-3.9008
X4.44Y-3.06
X4.44Y-3.22
X4.44Y-3.26
X4.44Y-4.552
X4.44Y-5.3173
X4.4526Y-1.775
X4.46Y-3.88
X4.46Y-5.5
X4.4651Y-1.3901
X4.4675Y-5.805
X4.4798Y-3.0956
X4.48Y-3.94
X4.48Y-4.04
X4.48Y-4.4207
X4.4854Y-3.5327
X4.4952Y-3.5652
X4.4954Y-3.9661
X4.5Y-3.22
X4.5Y-3.34
X4.5Y-3.6434
X4.5Y-4.22
X4.5Y-6.
X4.5005Y-3.5857
X4.5051Y-4.8301
X4.52Y-3.54
X4.5251Y-4.9101
X4.5251Y-5.0101
X4.5398Y-3.0956
X4.54Y-3.8
X4.5526Y-3.195
X4.5551Y-1.4901
X4.5551Y-1.9201
X4.5551Y-2.3501
X4.56Y-2.46
X4.56Y-2.8256
X4.56Y-3.76
X4.56Y-3.92
X4.56Y-4.2
X4.5651Y-2.0901
X4.5754Y-4.0861
X4.58Y-3.18
X4.58Y-4.32
X4.58Y-4.4
X4.6Y-1.16
X4.6Y-2.52
X4.6Y-2.56
X4.6Y-3.8
X4.6Y-3.96
X4.6Y-4.74
X4.6198Y-3.5168
X4.6198Y-3.538
X4.6198Y-3.5592
X4.62Y-3.62
X4.62Y-3.66
X4.62Y-3.7807
X4.62Y-4.06
X4.62Y-4.0812
X4.62Y-4.3
X4.6201Y-3.4956
X4.6387Y-3.015
X4.6398Y-1.6756
X4.64Y-5.08
X4.6554Y-2.6261
X4.6573Y-3.3728
X4.6573Y-3.4418
X4.66Y-1.94
X4.66Y-3.12
X4.66Y-3.2363
X4.6604Y-5.3746
X4.6726Y-2.035
X4.6726Y-2.275
X4.6791Y-3.4591
X4.6798Y-3.4956
X4.68Y-3.4
X4.68Y-3.7393
X4.68Y-3.8806
X4.68Y-3.94
X4.6925Y-5.795
X4.6925Y-5.8725
X4.7Y-4.66
X4.7Y-4.74
X4.72Y-1.2
X4.72Y-2.36
X4.72Y-3.3446
X4.72Y-3.6006
X4.72Y-3.76
X4.72Y-4.06
X4.72Y-4.32
X4.7251Y-4.7001
X4.7351Y-4.6201
X4.74Y-3.52
X4.74Y-4.02
X4.74Y-4.08
X4.74Y-4.2
X4.7407Y-3.98
X4.7451Y-5.0101
X4.7551Y-4.9001
X4.7587Y-1.9784
X4.7587Y-2.035
X4.7587Y-2.9848
X4.7587Y-3.335
X4.76Y-1.46
X4.76Y-1.86
X4.76Y-1.9351
X4.76Y-3.72
X4.76Y-4.82
X4.76Y-5.56
X4.7726Y-1.995
X4.78Y-1.48
X4.78Y-1.88
X4.78Y-2.28
X4.78Y-2.46
X4.78Y-3.22
X4.78Y-4.16
X4.78Y-4.2
X4.7926Y-2.675
X4.7926Y-2.735
X4.7954Y-2.2061
X4.7998Y-1.9156
X4.8Y-3.2958
X4.8Y-3.44
X4.8Y-3.64
X4.8051Y-5.6301
X4.8154Y-2.6261
X4.82Y-1.08
X4.82Y-1.5
X4.82Y-2.32
X4.82Y-2.44
X4.82Y-4.02
X4.82Y-4.08
X4.82Y-5.02
X4.8207Y-1.8346
X4.8207Y-1.9346
X4.8339Y-4.
X4.8351Y-4.6201
X4.8351Y-4.7101
X4.8351Y-5.5001
X4.8398Y-2.6756
X4.84Y-1.12
X4.84Y-1.46
X4.84Y-3.06
X4.84Y-3.32
X4.84Y-4.5534
X4.86Y-1.38
X4.86Y-3.14
X4.86Y-3.2
X4.86Y-3.4
X4.86Y-3.67
X4.86Y-3.98
X4.86Y-4.02
X4.86Y-4.26
X4.88Y-3.04
X4.88Y-3.3
X4.88Y-3.62
X4.88Y-4.72
X4.88Y-5.04
X4.88Y-5.2573
X4.88Y-5.46
X4.9Y-1.52
X4.9004Y-3.4746
X4.9004Y-4.5746
X4.9051Y-5.9701
X4.92Y-3.4386
X4.9271Y-3.3071
X4.9398Y-1.9156
X4.9398Y-1.7956
X4.94Y-1.6
X4.94Y-1.68
X4.94Y-1.84
X4.94Y-2.72
X4.94Y-2.795
X4.94Y-2.9963
X4.94Y-3.52
X4.94Y-3.64
X4.9404Y-5.3346
X4.9405Y-1.5695
X4.9408Y-1.8172
X4.9427Y-3.9501
X4.9432Y-1.8753
X4.9587Y-2.955
X4.96Y-2.68
X4.96Y-2.775
X4.96Y-3.82
X4.96Y-4.9
X4.96Y-5.08
X4.96Y-1.6
X4.9626Y-1.5
X4.9626Y-1.54
X4.98Y-1.7
X4.98Y-2.72
X4.98Y-2.895
X4.98Y-3.04
X4.98Y-3.6006
X4.98Y-4.08
X4.98Y-4.58
X4.9804Y-3.4746
X5.Y-1.68
X5.Y-3.7127
X5.Y-4.0302
X5.Y-4.3
X5.Y-4.84
X5.Y-4.96
X5.Y-5.06
X5.Y-5.2862
X5.Y-5.36
X5.0004Y-3.4946
X5.01Y-2.045
X5.0126Y-2.675
X5.0126Y-3.015
X5.0198Y-2.3556
X5.0198Y-2.4556
X5.0198Y-2.5156
X5.02Y-1.48
X5.02Y-3.54
X5.02Y-3.5617
X5.02Y-3.5833
X5.02Y-4.46
X5.02Y-4.5032
X5.02Y-5.7
X5.0351Y-3.8401
X5.0351Y-3.9501
X5.0398Y-2.6356
X5.04Y-1.6347
X5.0651Y-3.7801
X5.0751Y-3.5901
X5.08Y-3.02
X5.1Y-2.8216
X5.1Y-3.32
X5.1125Y-2.055
X5.1198Y-3.5956
X5.12Y-1.58
X5.12Y-3.44
X5.1326Y-2.755
X5.1398Y-5.1556
X5.14Y-3.46
X5.14Y-4.58
X5.16Y-1.08
X5.16Y-2.82
X5.1652Y-2.915
X5.1754Y-2.6261
X5.18Y-2.24
X5.18Y-2.52
X5.18Y-3.44
X5.18Y-3.5523
X5.1991Y-3.0391
X5.2Y-1.72
X5.2Y-3.5317
X5.2Y-3.7127
X5.2051Y-2.4401
X5.2102Y-1.7916
X5.2126Y-1.975
X5.2126Y-2.2987
X5.2191Y-3.3791
X5.2326Y-2.2613
X5.2326Y-3.255
X5.2351Y-1.4801
X5.24Y-1.34
X5.24Y-4.46
X5.24Y-4.5032
X5.2526Y-1.775
X5.254Y-1.814
X5.2568Y-1.9032
X5.2598Y-1.6756
X5.26Y-3.64
X5.26Y-4.88
X5.26Y-4.98
X5.26Y-5.06
X5.26Y-5.2573
X5.26Y-5.46
X5.26Y-5.68
X5.26Y-5.7
X5.28Y-1.94
X5.28Y-3.02
X5.28Y-4.72
X5.28Y-5.08
X5.2804Y-1.5546
X5.2804Y-1.8404
X5.2926Y-2.2613
X5.2998Y-1.6956
X5.3Y-2.48
X5.3Y-3.2321
X5.3Y-3.5523
X5.3Y-5.2862
X5.3Y-5.36
X5.3151Y-3.7701
X5.3151Y-4.1601
X5.3187Y-1.775
X5.325Y-2.91
X5.3326Y-2.1814
X5.3351Y-4.8201
X5.3374Y-1.975
X5.3391Y-3.3791
X5.3398Y-4.5956
X5.3398Y-4.9973
X5.3398Y-5.1556
X5.3398Y-5.3956
X5.34Y-1.32
X5.34Y-2.24
X5.34Y-3.94
X5.34Y-4.06
X5.34Y-6.
X5.3451Y-2.4301
X5.36Y-1.34
X5.36Y-5.32
X5.3651Y-1.4801
X5.3751Y-3.8301
X5.3751Y-3.9601
X5.3926Y-2.7554
X5.3978Y-1.4022
X5.4Y-2.1814
X5.4Y-3.84
X5.4Y-4.78
X5.42Y-3.5528
X5.44Y-4.48
X5.4451Y-4.8301
X5.46Y-1.88
X5.4751Y-4.3601
X5.48Y-3.46
X5.485Y-5.86
X5.5051Y-1.7801
X5.5051Y-2.4301
X5.5151Y-1.4801
X5.5151Y-2.0301
X5.5151Y-3.7701
X5.5175Y-3.8577
X5.518Y-3.9029
X5.5198Y-2.6556
X5.5242Y-3.9756
X5.5251Y-1.9401
X5.5251Y-2.5701
X5.5351Y-2.5201
X5.5373Y-3.5528
X5.5398Y-4.5956
X5.5398Y-4.9973
X5.5398Y-5.1556
X5.5398Y-5.3956
X5.5551Y-3.8801
X5.5551Y-5.5801
X5.5575Y-6.105
X5.5599Y-3.8594
X5.56Y-1.1
X5.56Y-2.28
X5.56Y-2.5518
X5.56Y-4.26
X5.58Y-2.32
X5.58Y-3.62
X5.58Y-3.94
X5.58Y-5.32
X5.58Y-6.7574
X5.5802Y-2.68
X5.5802Y-3.54
X5.5851Y-5.7701
X5.625Y-2.9175
X5.6251Y-2.4001
X5.6251Y-4.6001
X5.6351Y-5.6601
X5.64Y-2.3
X5.64Y-2.36
X5.64Y-3.02
X5.64Y-3.64
X5.6551Y-4.8101
X5.6551Y-5.2201
X5.6591Y-3.4791
X5.66Y-6.0567
X5.6636Y-2.3391
X5.6651Y-1.9201
X5.6651Y-5.1501
X5.6751Y-4.4201
X5.6775Y-1.785
X5.68Y-1.1
X5.7Y-3.98
X5.72Y-1.86
X5.72Y-3.44
X5.72Y-7.04
X5.7204Y-1.5746
X5.7251Y-5.2201
X5.7348Y-2.275
X5.74Y-2.24
X5.7526Y-3.275
X5.7551Y-3.3401
X5.76Y-2.08
X5.7751Y-4.9501
X5.7851Y-4.3101
X5.7851Y-4.4101
X5.7951Y-1.5401
X5.7951Y-4.7301
X5.7951Y-4.8301
X5.7993Y-2.36
X5.8Y-4.02
X5.8Y-6.7387
X5.8051Y-4.6001
X5.8173Y-3.9601
X5.82Y-1.6741
X5.82Y-2.48
X5.82Y-3.88
X5.8251Y-5.7601
X5.8278Y-3.9074
X5.8351Y-3.6401
X5.8351Y-5.1401
X5.8354Y-2.6661
X5.8451Y-5.5801
X5.8475Y-2.905
X5.8542Y-2.7934
X5.855Y-1.775
X5.86Y-5.3501
X5.86Y-5.52
X5.8625Y-5.86
X5.8751Y-5.6501
X5.88Y-2.7747
X5.88Y-3.04
X5.8804Y-6.0146
X5.8851Y-1.6201
X5.8851Y-7.0601
X5.8951Y-1.8801
X5.9004Y-4.0746
X5.9004Y-6.0746
X5.9004Y-6.1546
X5.9172Y-6.1114
X5.9204Y-4.1146
X5.9373Y-2.6027
X5.94Y-1.12
X5.94Y-2.46
X5.94Y-6.72
X5.9404Y-3.1746
X5.96Y-1.52
X5.9604Y-3.4146
X5.9726Y-2.715
X5.9726Y-2.975
X5.9754Y-2.6861
X5.98Y-1.14
X5.98Y-1.5
X5.98Y-2.62
X5.98Y-2.6609
X5.98Y-3.04
X5.98Y-3.74
X5.98Y-4.68
X5.98Y-5.2729
X5.9951Y-5.4301
X6.Y-2.06
X6.Y-3.66
X6.Y-4.54
X6.0051Y-5.5901
X6.0126Y-2.715
X6.0126Y-2.7367
X6.0126Y-2.955
X6.0151Y-4.9101
X6.02Y-3.02
X6.0326Y-2.155
X6.04Y-5.54
X6.04Y-7.08
X6.0451Y-5.7501
X6.06Y-4.86
X6.06Y-5.48
X6.0604Y-1.5746
X6.0622Y-4.9978
X6.0734Y-3.6861
X6.08Y-4.98
X6.08Y-5.04
X6.08Y-6.7
X6.0804Y-3.3146
X6.0951Y-5.4201
X6.1Y-1.16
X6.1Y-2.94
X6.1Y-5.62
X6.1017Y-5.04
X6.12Y-1.18
X6.12Y-2.9
X6.1204Y-3.5946
X6.1204Y-5.1346
X6.1251Y-5.6701
X6.14Y-2.8866
X6.14Y-4.7
X6.14Y-6.9997
X6.1551Y-1.9101
X6.16Y-2.8334
X6.16Y-4.82
X6.16Y-5.04
X6.16Y-5.46
X6.16Y-7.06
X6.16Y-7.1
X6.18Y-1.82
X6.18Y-5.1
X6.2Y-3.2
X6.2Y-3.24
X6.2Y-5.68
X6.2025Y-5.7956
X6.2075Y-1.6025
X6.2191Y-4.9991
X6.22Y-5.06
X6.22Y-5.2862
X6.22Y-5.48
X6.22Y-6.68
X6.2251Y-4.6001
X6.2251Y-4.7901
X6.2343Y-1.8587
X6.2351Y-4.7301
X6.24Y-4.94
X6.24Y-5.08
X6.24Y-5.36
X6.2404Y-4.8546
X6.2526Y-1.995
X6.253Y-1.215
X6.26Y-4.98
X6.2651Y-4.1901
X6.2726Y-2.7934
X6.2767Y-5.1159
X6.2791Y-5.1591
X6.2797Y-4.7
X6.2804Y-3.3146
X6.2804Y-3.4346
X6.2804Y-4.0346
X6.2903Y-5.7956
X6.305Y-5.1074
X6.3126Y-2.775
X6.3151Y-1.1801
X6.32Y-4.92
X6.32Y-5.5392
X6.3204Y-3.1746
X6.325Y-1.595
X6.3351Y-1.3101
X6.3354Y-2.7061
X6.3368Y-4.9756
X6.3398Y-4.3956
X6.34Y-2.1181
X6.3404Y-3.5546
X6.3404Y-3.7546
X6.3404Y-3.8346
X6.3425Y-1.7875
X6.3526Y-2.755
X6.3526Y-2.975
X6.3554Y-1.9061
X6.36Y-5.24
X6.3708Y-3.501
X6.3722Y-3.4413
X6.3781Y-5.7956
X6.38Y-1.96
X6.38Y-5.019
X6.3998Y-3.2756
X6.4Y-2.8334
X6.4Y-4.6
X6.4Y-4.74
X6.4Y-4.78
X6.4Y-5.56
X6.4004Y-3.6746
X6.4154Y-2.9861
X6.42Y-2.8866
X6.42Y-2.9082
X6.42Y-5.22
X6.42Y-5.36
X6.42Y-6.78
X6.42Y-7.02
X6.4204Y-4.0567
X6.4344Y-1.32
X6.4351Y-5.8601
X6.4395Y-3.8337
X6.44Y-4.9
X6.44Y-5.1
X6.44Y-5.1295
X6.445Y-5.0674
X6.46Y-4.5583
X6.46Y-4.58
X6.4604Y-3.4546
X6.4604Y-3.4946
X6.4604Y-3.5746
X6.466Y-5.7956
X6.4726Y-1.795
X6.4726Y-2.675
X6.4726Y-2.775
X6.4754Y-3.9661
X6.4785Y-5.0385
X6.48Y-4.5396
X6.48Y-7.04
X6.485Y-1.575
X6.4926Y-2.735
X6.4926Y-2.7934
X6.4951Y-1.1501
X6.4991Y-5.3591
X6.4998Y-3.8556
X6.4998Y-4.7556
X6.5Y-1.84
X6.5Y-2.62
X6.5Y-5.08
X6.5004Y-3.3346
X6.5154Y-3.7861
X6.5191Y-5.5991
X6.5198Y-3.5756
X6.52Y-4.82
X6.5204Y-3.44
X6.525Y-4.9074
X6.5266Y-1.9061
X6.5354Y-3.0861
X6.5391Y-4.2991
X6.5404Y-3.4587
X6.5404Y-3.5746
X6.5404Y-3.6746
X6.5534Y-2.1534
X6.5534Y-2.6958
X6.5534Y-2.7784
X6.5538Y-5.7956
X6.5591Y-4.4534
X6.5591Y-4.6066
X6.5591Y-5.3991
X6.56Y-5.019
X6.56Y-6.7574
X6.5609Y-2.0591
X6.58Y-3.36
X6.5804Y-3.7146
X6.5846Y-4.96
X6.5954Y-3.0157
X6.5991Y-4.7791
X6.5991Y-5.5991
X6.6Y-2.92
X6.6Y-5.04
X6.6Y-7.06
X6.6154Y-3.1261
X6.6191Y-4.2991
X6.6198Y-4.8956
X6.62Y-1.86
X6.62Y-3.44
X6.6204Y-3.5787
X6.6255Y-1.32
X6.6255Y-1.52
X6.6391Y-4.9991
X6.6398Y-5.1556
X6.64Y-5.26
X6.6404Y-3.7146
X6.6416Y-5.7956
X6.6438Y-1.4999
X6.6538Y-3.9461
X6.6554Y-3.0061
X6.6583Y-5.46
X6.6598Y-4.5956
X6.6598Y-4.6569
X6.6598Y-4.8156
X6.66Y-1.8163
X6.66Y-1.88
X6.66Y-1.98
X6.6798Y-5.1356
X6.68Y-1.4
X6.68Y-5.0534
X6.68Y-5.56
X6.68Y-5.82
X6.68Y-6.7387
X6.6804Y-3.6146
X6.6804Y-4.1146
X6.6991Y-3.56
X6.7Y-1.76
X6.7Y-1.9
X6.7Y-7.08
X6.7198Y-4.6756
X6.72Y-1.68
X6.72Y-4.035
X6.72Y-4.64
X6.72Y-5.24
X6.7204Y-1.5746
X6.7204Y-3.5946
X6.7294Y-5.7956
X6.737Y-1.794
X6.7375Y-1.835
X6.7398Y-2.3956
X6.7398Y-2.5956
X6.7398Y-4.5956
X6.7398Y-4.6556
X6.7398Y-4.7956
X6.74Y-1.76
X6.74Y-1.8583
X6.74Y-1.88
X6.74Y-1.9017
X6.74Y-5.26
X6.7404Y-3.4146
X6.7404Y-3.5746
X6.7557Y-1.8042
X6.7591Y-5.3591
X6.7598Y-2.9556
X6.76Y-5.
X6.767Y-3.4681
X6.7775Y-2.08
X6.7797Y-4.8739
X6.7798Y-4.7356
X6.78Y-1.6
X6.78Y-1.7
X6.78Y-4.9
X6.78Y-4.94
X6.78Y-5.14
X6.7804Y-4.5987
X6.7997Y-4.6139
X6.8Y-4.66
X6.8Y-5.38
X6.8Y-5.56
X6.8Y-6.72
X6.8Y-7.1
X6.8004Y-3.4946
X6.8004Y-4.1661
X6.8173Y-5.7956
X6.8196Y-3.6146
X6.8198Y-4.7356
X6.82Y-1.68
X6.8204Y-5.0146
X6.825Y-4.8391
X6.83Y-2.0325
X6.8383Y-2.9
X6.845Y-5.1074
X6.8576Y-4.5359
X6.8598Y-5.0356
X6.86Y-2.9
X6.86Y-4.56
X6.86Y-4.92
X6.865Y-1.285
X6.88Y-5.1401
X6.88Y-2.92
X6.88Y-4.64
X6.88Y-4.6999
X6.9Y-4.56
X6.9Y-2.94
X6.9Y-5.0131
X6.9051Y-5.7956
X6.9075Y-2.0875
X6.9198Y-3.7956
X6.92Y-5.38
X6.9275Y-1.2775
X6.9398Y-2.3956
X6.9398Y-2.5956
X6.94Y-3.3159
X6.94Y-4.46
X6.94Y-5.2287
X6.94Y-5.52
X6.9425Y-2.0275
X6.96Y-1.6
X6.96Y-3.22
X6.96Y-4.78
X6.96Y-6.7
X6.98Y-1.68
X6.98Y-4.9
X6.98Y-5.08
X6.9929Y-5.7956
X7.Y-1.72
X7.Y-2.1534
X7.Y-3.04
X7.Y-5.12
X7.025Y-3.1674
X7.0371Y-3.1966
X7.04Y-2.5
X7.047Y-3.4346
X7.047Y-3.6746
X7.0526Y-1.215
X7.0591Y-5.5991
X7.06Y-1.84
X7.06Y-1.8617
X7.06Y-1.9
X7.06Y-5.019
X7.06Y-5.3
X7.0604Y-1.5746
X7.0604Y-3.4146
X7.0687Y-3.6746
X7.0726Y-2.275
X7.0754Y-1.8061
X7.08Y-1.88
X7.08Y-5.14
X7.08Y-5.26
X7.0807Y-5.7956
X7.085Y-4.8874
X7.0851Y-1.1601
X7.0991Y-4.5991
X7.0991Y-4.7791
X7.1Y-1.9
X7.1Y-1.96
X7.1Y-3.5559
X7.1Y-3.64
X7.1Y-6.68
X7.1036Y-5.266
X7.12Y-3.52
X7.12Y-4.56
X7.125Y-5.3274
X7.1391Y-4.7791
X7.1391Y-5.5991
X7.1398Y-2.3956
X7.14Y-2.22
X7.14Y-2.64
X7.14Y-3.5559
X7.14Y-3.64
X7.14Y-4.54
X7.14Y-5.2287
X7.1598Y-5.2956
X7.16Y-1.36
X7.16Y-3.38
X7.16Y-3.52
X7.16Y-3.74
X7.1616Y-3.639
X7.1686Y-5.7956
X7.1726Y-2.7769
X7.1791Y-3.1191
X7.1791Y-3.4791
X7.1791Y-4.5991
X7.1791Y-4.9191
X7.1791Y-4.9991
X7.18Y-5.04
X7.2Y-3.38
X7.2Y-5.16
X7.2198Y-4.1956
X7.22Y-1.68
X7.22Y-3.3159
X7.22Y-4.56
X7.22Y-4.96
X7.22Y-5.0341
X7.24Y-4.54
X7.24Y-4.94
X7.24Y-5.
X7.24Y-5.48
X7.2558Y-1.9878
X7.2564Y-5.7956
X7.26Y-3.5
X7.26Y-5.4
X7.28Y-2.82
X7.28Y-4.94
X7.28Y-5.66
X7.2804Y-3.3346
X7.2804Y-3.4546
X7.2991Y-5.0991
X7.3Y-2.14
X7.3Y-3.94
X7.3Y-4.32
X7.3087Y-3.1527
X7.3191Y-3.2791
X7.3196Y-3.54
X7.32Y-2.16
X7.32Y-6.78
X7.32Y-7.0184
X7.3251Y-5.3801
X7.3251Y-5.5393
X7.3391Y-2.0191
X7.3391Y-2.3391
X7.3398Y-3.7956
X7.3442Y-5.7956
X7.3598Y-4.6756
X7.36Y-3.52
X7.36Y-4.42
X7.3751Y-1.1901
X7.3791Y-3.2591
X7.3791Y-3.6191
X7.38Y-1.6425
X7.38Y-1.78
X7.38Y-4.7
X7.38Y-5.
X7.38Y-5.36
X7.3804Y-3.5746
X7.3804Y-5.1369
X7.4Y-7.04
X7.425Y-2.5075
X7.425Y-5.1074
X7.432Y-5.7956
X7.435Y-2.715
X7.4391Y-5.2591
X7.44Y-4.6989
X7.44Y-4.94
X7.44Y-6.7574
X7.4418Y-5.0293
X7.4425Y-2.44
X7.4575Y-2.3825
X7.4591Y-3.6791
X7.46Y-2.46
X7.46Y-2.6
X7.4675Y-2.6925
X7.4726Y-3.395
X7.4739Y-3.1591
X7.4791Y-3.4991
X7.485Y-2.44
X7.485Y-5.1474
X7.4875Y-2.505
X7.4912Y-3.4533
X7.4926Y-3.115
X7.5Y-2.68
X7.5Y-3.54
X7.5004Y-1.5746
X7.5053Y-5.3947
X7.5141Y-7.0587
X7.5198Y-5.7956
X7.52Y-5.2287
X7.5225Y-3.2975
X7.5391Y-3.0791
X7.54Y-4.62
X7.54Y-4.64
X7.54Y-5.36
X7.545Y-5.0474
X7.5464Y-5.1442
X7.5563Y-2.3037
X7.5568Y-4.9292
X7.5591Y-3.2191
X7.56Y-5.56
X7.5714Y-3.54
X7.5784Y-5.12
X7.58Y-1.38
X7.58Y-1.88
X7.58Y-6.7387
X7.5804Y-3.5746
X7.5811Y-5.0811
X7.5895Y-3.5541
X7.5991Y-3.0791
X7.5998Y-3.1156
X7.6Y-1.4
X7.6Y-2.18
X7.6Y-7.08
X7.6004Y-3.4346
X7.605Y-4.8674
X7.605Y-4.9074
X7.605Y-5.0674
X7.6077Y-5.7956
X7.6191Y-5.3791
X7.62Y-2.88
X7.62Y-3.54
X7.625Y-5.017
X7.6259Y-5.0617
X7.6326Y-5.615
X7.6367Y-2.98
X7.64Y-2.16
X7.64Y-2.52
X7.64Y-5.3
X7.645Y-4.9274
X7.6515Y-3.0746
X7.6526Y-2.675
X7.6526Y-2.795
X7.6583Y-2.98
X7.6591Y-3.5391
X7.6591Y-3.5991
X7.6591Y-3.6591
X7.6591Y-4.5791
X7.66Y-2.14
X7.66Y-2.48
X7.66Y-2.9
X7.66Y-3.42
X7.66Y-5.14
X7.665Y-4.8474
X7.6696Y-3.0927
X7.6798Y-3.1156
X7.68Y-2.98
X7.68Y-2.94
X7.68Y-3.3
X7.6812Y-4.7761
X7.685Y-3.4074
X7.685Y-5.2474
X7.6955Y-5.7956
X7.6991Y-5.3991
X7.7Y-6.72
X7.7Y-7.1
X7.7017Y-2.94
X7.705Y-3.2074
X7.705Y-3.3874
X7.7089Y-2.1987
X7.7126Y-1.615
X7.7126Y-5.615
X7.719Y-2.9968
X7.7191Y-4.7791
X7.72Y-3.96
X7.72Y-4.32
X7.72Y-5.2287
X7.725Y-3.2274
X7.725Y-5.3074
X7.7267Y-3.3874
X7.7391Y-3.5559
X7.7391Y-4.5791
X7.7391Y-4.9191
X7.7391Y-4.9391
X7.7423Y-3.4365
X7.7506Y-5.013
X7.7591Y-2.9791
X7.7591Y-3.5391
X7.76Y-2.58
X7.7603Y-5.0409
X7.765Y-3.1874
X7.765Y-5.1674
X7.7758Y-3.5528
X7.7791Y-3.6791
X7.7793Y-3.3733
X7.78Y-1.84
X7.7804Y-3.4346
X7.7833Y-5.7956
X7.7991Y-4.5791
X7.8Y-1.52
X7.8Y-2.42
X7.8016Y-3.4398
X7.82Y-1.86
X7.82Y-5.0617
X7.82Y-5.32
X7.825Y-3.1674
X7.8388Y-4.9921
X7.84Y-4.9
X7.84Y-4.96
X7.8404Y-1.5746
X7.8583Y-5.1591
X7.8583Y-5.2983
X7.8591Y-3.4391
X7.8591Y-5.0703
X7.86Y-4.5032
X7.86Y-4.6617
X7.86Y-4.7
X7.86Y-4.84
X7.86Y-5.
X7.86Y-6.7
X7.8651Y-2.2101
X7.8711Y-5.7956
X7.88Y-3.54
X7.88Y-5.36
X7.8804Y-5.12
X7.8842Y-2.96
X7.8998Y-4.1956
X7.8998Y-4.3956
X7.9006Y-3.0472
X7.9006Y-3.0728
X7.9068Y-4.6713
X7.9098Y-2.96
X7.92Y-1.5
X7.9251Y-1.9101
X7.9272Y-3.04
X7.9391Y-3.2591
X7.9391Y-3.3591
X7.9391Y-5.2591
X7.9398Y-0.7956
X7.9398Y-5.12
X7.94Y-4.48
X7.94Y-4.7
X7.94Y-4.9
X7.949Y-3.06
X7.9551Y-1.4601
X7.959Y-5.7956
X7.9591Y-3.1391
X7.9591Y-4.64
X7.98Y-1.38
X8.Y-6.68
X8.0191Y-3.1791
X8.0191Y-3.4191
X8.02Y-5.2287
X8.02Y-5.36
X8.031Y-1.551
X8.04Y-1.4
X8.04Y-5.56
X8.0468Y-5.7956
X8.049Y-1.569
X8.06Y-5.08
X8.06Y-5.12
X8.071Y-1.591
X8.0751Y-1.2901
X8.08Y-4.52
X8.089Y-1.609
X8.1Y-5.04
X8.1346Y-5.7956
X8.1398Y-0.7956
X8.1398Y-0.9956
X8.1398Y-1.9556
X8.1398Y-2.1956
X8.1398Y-2.5956
X8.14Y-3.96
X8.14Y-4.32
X8.1526Y-5.6334
X8.1551Y-2.7701
X8.1591Y-4.5791
X8.1591Y-4.7192
X8.16Y-3.6
X8.1751Y-2.9001
X8.1791Y-3.1591
X8.1791Y-3.2391
X8.18Y-5.26
X8.2Y-4.78
X8.2126Y-5.6334
X8.22Y-5.2287
X8.22Y-5.3
X8.22Y-6.78
X8.22Y-7.02
X8.2224Y-5.7956
X8.2391Y-4.5791
X8.2391Y-4.9191
X8.2398Y-1.1356
X8.24Y-3.48
X8.2591Y-1.2591
X8.2591Y-1.4391
X8.2591Y-4.8591
X8.26Y-5.0183
X8.2739Y-3.1391
X8.2791Y-1.6391
X8.28Y-4.96
X8.28Y-5.16
X8.2926Y-3.115
X8.2926Y-3.395
X8.2991Y-4.8391
X8.3Y-5.04
X8.3Y-7.04
X8.3102Y-5.7956
X8.3191Y-1.2591
X8.3251Y-2.7901
X8.3391Y-1.2207
X8.3391Y-3.0791
X8.3398Y-2.1956
X8.3398Y-2.5956
X8.3398Y-4.1956
X8.3451Y-3.2301
X8.3591Y-1.5391
X8.3598Y-1.9556
X8.36Y-6.7574
X8.3604Y-5.1342
X8.3714Y-3.5303
X8.38Y-2.9672
X8.38Y-2.9928
X8.3981Y-5.7956
X8.3991Y-1.1991
X8.3991Y-1.4591
X8.4Y-3.54
X8.4Y-4.7
X8.4Y-4.84
X8.4Y-5.36
X8.4Y-7.06
X8.4025Y-1.5669
X8.4069Y-3.439
X8.4093Y-3.1655
X8.4179Y-4.86
X8.4191Y-1.3191
X8.42Y-5.02
X8.4236Y-3.5357
X8.4274Y-3.1474
X8.4382Y-1.54
X8.4391Y-1.1991
X8.4391Y-3.0791
X8.44Y-5.
X8.44Y-5.1913
X8.4526Y-5.2553
X8.4591Y-1.5191
X8.46Y-3.42
X8.46Y-4.46
X8.46Y-4.7813
X8.46Y-5.12
X8.471Y-1.829
X8.474Y-4.7
X8.4791Y-1.3191
X8.48Y-3.56
X8.48Y-4.5
X8.4859Y-5.7956
X8.4872Y-2.72
X8.489Y-1.811
X8.4925Y-3.175
X8.4926Y-3.435
X8.4991Y-1.6391
X8.5Y-1.2
X8.5Y-3.58
X8.5Y-4.84
X8.5Y-5.2287
X8.5Y-6.7387
X8.5Y-7.08
X8.5128Y-2.72
X8.52Y-3.24
X8.5272Y-2.78
X8.5288Y-1.0291
X8.5326Y-2.975
X8.5326Y-3.115
X8.5391Y-1.6391
X8.54Y-3.42
X8.54Y-5.2287
X8.54Y-5.36
X8.54Y-5.56
X8.5425Y-1.3069
X8.5451Y-2.9001
X8.551Y-1.791
X8.5528Y-2.78
X8.5532Y-1.1502
X8.5591Y-3.0791
X8.5591Y-3.7191
X8.56Y-3.56
X8.569Y-1.809
X8.5737Y-5.7956
X8.58Y-3.22
X8.58Y-4.62
X8.58Y-5.7
X8.5924Y-1.1502
X8.5924Y-1.4066
X8.5924Y-1.4466
X8.5924Y-1.5066
X8.5991Y-1.5391
X8.6Y-3.42
X8.6Y-3.54
X8.6Y-5.089
X8.6Y-5.12
X8.6Y-7.1
X8.6025Y-1.3069
X8.62Y-3.44
X8.6391Y-1.6391
X8.64Y-3.38
X8.64Y-6.72
X8.6591Y-1.2591
X8.66Y-3.44
X8.66Y-5.26
X8.66Y-5.68
X8.6615Y-5.7956
X8.6651Y-2.3001
X8.667Y-5.1152
X8.68Y-2.02
X8.68Y-2.4
X8.68Y-2.88
X8.6866Y-5.595
X8.6926Y-5.395
X8.6978Y-1.4791
X8.6978Y-1.5191
X8.6998Y-1.3556
X8.7191Y-1.6791
X8.7198Y-1.3156
X8.72Y-4.92
X8.7326Y-5.395
X8.7391Y-1.7991
X8.7391Y-3.1391
X8.7391Y-3.2591
X8.7391Y-4.5591
X8.7391Y-4.7791
X8.7398Y-1.4156
X8.7398Y-1.9156
X8.7398Y-2.1956
X8.74Y-1.56
X8.74Y-3.4
X8.74Y-4.
X8.74Y-4.32
X8.74Y-4.94
X8.7437Y-1.4363
X8.7494Y-5.7956
X8.7526Y-2.675
X8.7526Y-2.795
X8.7526Y-5.595
X8.7591Y-3.3591
X8.76Y-5.2287
X8.7646Y-3.5646
X8.7791Y-4.5591
X8.7791Y-4.9191
X8.78Y-4.86
X8.78Y-6.7
X8.7991Y-4.8191
X8.8Y-5.0183
X8.8Y-5.16
X8.81Y-1.52
X8.82Y-4.96
X8.8204Y-6.2346
X8.8391Y-3.4191
X8.8391Y-4.7391
X8.84Y-5.22
X8.8404Y-4.7946
X8.8404Y-5.0746
X8.8594Y-5.0373
X8.8725Y-5.795
X8.88Y-4.94
X8.88Y-4.98
X8.88Y-5.36
X8.9Y-4.84
X8.9Y-5.
X8.9004Y-4.7946
X8.9066Y-5.1546
X8.92Y-6.68
X8.925Y-5.7956
X8.9358Y-4.6961
X8.9398Y-0.7956
X8.9398Y-4.1956
X8.94Y-2.54
X8.94Y-5.12
X8.94Y-6.18
X8.9404Y-6.2546
X8.9526Y-5.2553
X8.96Y-4.92
X8.96Y-5.62
X8.9791Y-3.2391
X8.9798Y-2.9756
X9.Y-4.92
X9.Y-5.5
X9.0128Y-5.7956
X9.02Y-5.2287
X9.02Y-5.36
X9.02Y-5.56
X9.04Y-4.62
X9.04Y-4.6968
X9.04Y-5.5
X9.04Y-5.62
X9.0751Y-2.9501
X9.08Y-1.24
X9.08Y-1.94
X9.08Y-4.78
X9.08Y-4.84
X9.08Y-5.04
X9.0926Y-3.115
X9.0926Y-3.415
X9.0951Y-2.8401
X9.0999Y-5.1209
X9.1Y-3.5
X9.1007Y-5.7956
X9.1025Y-5.0915
X9.1051Y-0.8801
X9.1051Y-2.7601
X9.1113Y-3.1527
X9.1151Y-1.1601
X9.12Y-3.1
X9.12Y-4.9
X9.12Y-6.78
X9.1251Y-1.5101
X9.1351Y-1.3701
X9.1398Y-1.9556
X9.14Y-3.14
X9.1404Y-5.1146
X9.1591Y-1.0391
X9.1591Y-3.0791
X9.16Y-1.8
X9.16Y-3.78
X9.16Y-7.02
X9.1726Y-5.595
X9.1791Y-3.2391
X9.1791Y-4.5791
X9.18Y-4.84
X9.18Y-4.92
X9.1885Y-5.7956
X9.1988Y-3.5222
X9.1991Y-1.3391
X9.1991Y-5.3991
X9.2Y-1.8
X9.2017Y-4.92
X9.2169Y-5.3
X9.2191Y-1.4791
X9.2191Y-4.6762
X9.22Y-3.44
X9.22Y-3.54
X9.22Y-3.72
X9.22Y-4.76
X9.22Y-7.04
X9.2326Y-5.595
X9.2345Y-3.0875
X9.24Y-1.8
X9.24Y-3.78
X9.24Y-5.2287
X9.2454Y-3.115
X9.2591Y-1.6591
X9.2591Y-4.5591
X9.2591Y-4.8991
X9.26Y-3.66
X9.26Y-5.26
X9.26Y-6.7574
X9.271Y-3.1939
X9.2763Y-5.7956
X9.2768Y-3.4168
X9.279Y-3.5235
X9.2791Y-4.7991
X9.28Y-1.8
X9.28Y-5.16
X9.289Y-3.212
X9.2985Y-4.9585
X9.2998Y-3.3356
X9.3Y-1.48
X9.3Y-3.08
X9.3Y-3.42
X9.3Y-3.58
X9.3Y-7.06
X9.31Y-6.1375
X9.32Y-1.6
X9.32Y-3.12
X9.32Y-3.44
X9.32Y-3.54
X9.32Y-5.04
X9.3391Y-1.8791
X9.3398Y-5.7956
X9.34Y-1.42
X9.34Y-3.32
X9.34Y-5.24
X9.3554Y-2.7089
X9.3591Y-5.1991
X9.36Y-2.74
X9.3613Y-5.1191
X9.3641Y-5.7956
X9.3777Y-3.0813
X9.3798Y-5.2556
X9.3798Y-4.9156
X9.3798Y-5.2956
X9.38Y-3.44
X9.38Y-5.04
X9.3823Y-3.6617
X9.3867Y-3.2032
X9.3991Y-1.7391
X9.3991Y-2.9791
X9.4Y-6.7387
X9.4065Y-3.1944
X9.42Y-4.94
X9.42Y-5.1495
X9.4209Y-4.9115
X9.4217Y-4.42
X9.4217Y-4.58
X9.428Y-3.192
X9.44Y-3.16
X9.44Y-4.4
X9.44Y-7.08
X9.4404Y-4.56
X9.4488Y-1.2291
X9.4519Y-5.7956
X9.4522Y-1.527
X9.46Y-5.12
X9.4604Y-5.2946
X9.4666Y-3.44
X9.48Y-3.48
X9.48Y-3.56
X9.48Y-4.6779
X9.4991Y-1.5991
X9.4991Y-1.7391
X9.4991Y-1.9391
X9.5Y-5.56
X9.5198Y-1.6956
X9.52Y-4.9261
X9.52Y-5.36
X9.5398Y-4.1956
X9.5398Y-5.2356
X9.5398Y-5.7956
X9.54Y-6.72
X9.5534Y-3.34
X9.56Y-3.26
X9.56Y-4.62
X9.56Y-4.7
X9.56Y-7.1
X9.5751Y-2.7101
X9.578Y-5.102
X9.5798Y-1.4356
X9.58Y-3.22
X9.58Y-3.54
X9.5851Y-2.5601
X9.5988Y-5.1378
X9.6Y-2.04
X9.6004Y-5.3146
X9.6151Y-2.9601
X9.6198Y-1.3956
X9.62Y-2.1
X9.62Y-3.34
X9.62Y-3.44
X9.62Y-3.68
X9.62Y-4.66
X9.62Y-5.66
X9.6398Y-5.0956
X9.6415Y-5.0342
X9.6591Y-1.6591
X9.66Y-1.96
X9.66Y-4.3
X9.66Y-5.26
X9.66Y-6.7
X9.6651Y-3.2001
X9.6774Y-5.36
X9.6798Y-1.3956
X9.6893Y-4.868
X9.6991Y-5.5791
X9.7Y-4.42
X9.7Y-4.54
X9.7002Y-5.3204
X9.7009Y-4.5809
X9.7191Y-1.2991
X9.7191Y-1.3391
X9.7191Y-1.5591
X9.72Y-2.64
X9.72Y-4.92
X9.72Y-5.28
X9.7284Y-1.8011
X9.7391Y-4.6791
X9.74Y-2.24
X9.7591Y-1.3391
X9.7591Y-4.5391
X9.7591Y-5.5791
X9.76Y-1.46
X9.76Y-5.04
X9.7769Y-4.5791
X9.7791Y-1.1391
X9.7791Y-4.7591
X9.7791Y-4.8791
X9.7791Y-5.143
X9.78Y-1.62
X9.78Y-5.24
X9.8Y-5.16
X9.8Y-5.28
X9.8Y-6.68
X9.8198Y-4.3756
X9.86Y-1.62
X9.88Y-1.08
X9.9051Y-2.9701
X9.9191Y-1.4791
X9.9398Y-0.7956
X9.94Y-1.28
X9.9404Y-1.1908
X9.9591Y-1.8191
X9.96Y-1.52
X9.9726Y-5.575
X9.9791Y-1.4391
X10.0051Y-3.3801
X10.0051Y-4.0101
X10.02Y-1.08
X10.0391Y-1.2791
X10.0791Y-1.1191
X10.0791Y-1.7791
X10.0991Y-1.9391
X10.1391Y-1.5591
X10.1391Y-1.6591
X10.1398Y-0.7956
X10.1498Y-1.3597
X10.1991Y-1.4991
X10.2Y-1.44
X10.22Y-1.78
X10.22Y-1.98
X10.2398Y-0.7956
X10.24Y-2.88
X10.29Y-3.9375
X10.29Y-4.1225
X10.29Y-4.33
X10.2975Y-4.4525
X10.3025Y-4.6325
X10.3191Y-1.7591
X10.3398Y-0.9956
X10.3398Y-1.1956
X10.3398Y-1.3956
X10.3598Y-0.7956
X10.5398Y-0.7956
X10.5398Y-0.9956
X10.5398Y-1.1956
X10.5398Y-1.3956
X10.7398Y-0.7956
X10.7398Y-0.9956
X10.7398Y-1.1956
X10.7398Y-1.3956
T2
X5.0705Y-1.7709
X5.0705Y-1.83
X5.0705Y-1.8891
X5.1295Y-1.7709
X5.1295Y-1.83
X5.1295Y-1.8891
X3.2405Y-1.7709
X3.2405Y-1.83
X3.2405Y-1.8891
X3.2995Y-1.7709
X3.2995Y-1.83
X3.2995Y-1.8891
X2.6009Y-4.8505
X2.6009Y-4.9095
X2.66Y-4.8505
X2.66Y-4.9095
X2.7191Y-4.8505
X2.7191Y-4.9095
X2.6009Y-5.6505
X2.6009Y-5.7095
X2.66Y-5.6505
X2.66Y-5.7095
X2.7191Y-5.6505
X2.7191Y-5.7095
X6.133Y-2.5959
X6.133Y-2.655
X6.133Y-2.7141
X6.192Y-2.5959
X6.192Y-2.655
X6.192Y-2.7141
X2.6009Y-3.8305
X2.6009Y-3.8895
X2.66Y-3.8305
X2.66Y-3.8895
X2.7191Y-3.8305
X2.7191Y-3.8895
X6.8655Y-1.7809
X6.8655Y-1.84
X6.8655Y-1.8991
X6.9245Y-1.7809
X6.9245Y-1.84
X6.9245Y-1.8991
T3
X6.04Y-2.4
X6.5534Y-2.38
X9.4991Y-2.9791
X9.6598Y-3.1156
T4
X5.305Y-3.69
X5.355Y-3.69
X5.405Y-3.69
T6
X4.94Y-1.28
X5.277Y-1.28
X3.92Y-1.28
X4.257Y-1.28
X6.72Y-1.28
X7.057Y-1.28
X2.12Y-3.703
X2.12Y-4.04
X2.12Y-5.523
X2.12Y-5.86
X2.12Y-4.763
X2.12Y-5.1
X3.12Y-1.28
X3.457Y-1.28
X7.5Y-1.28
X7.837Y-1.28
X2.12Y-2.923
X2.12Y-3.26
X5.72Y-1.28
X6.057Y-1.28
T7
X9.6688Y-2.3691
X9.7688Y-2.3691
X9.8688Y-2.3691
X5.0765Y-4.0174
X5.0765Y-4.1174
X5.0765Y-4.2174
X5.0765Y-4.3174
X5.0765Y-4.4174
X5.0765Y-4.5174
X5.0765Y-4.6174
X5.0765Y-4.7174
X5.0765Y-4.8174
X5.0765Y-4.9174
X5.0765Y-5.0174
X5.0765Y-5.1174
X5.0765Y-5.2174
X5.0765Y-5.3174
X5.0765Y-5.4174
X5.0765Y-5.5174
X5.0765Y-5.6174
X5.0765Y-5.7174
X5.0765Y-5.8174
X5.0765Y-5.9174
X5.1765Y-4.0174
X5.1765Y-4.1174
X5.1765Y-4.2174
X5.1765Y-4.3174
X5.1765Y-4.4174
X5.1765Y-4.5174
X5.1765Y-4.6174
X5.1765Y-4.7174
X5.1765Y-4.8174
X5.1765Y-4.9174
X5.1765Y-5.0174
X5.1765Y-5.1174
X5.1765Y-5.2174
X5.1765Y-5.3174
X5.1765Y-5.4174
X5.1765Y-5.5174
X5.1765Y-5.6174
X5.1765Y-5.7174
X5.1765Y-5.8174
X5.1765Y-5.9174
X9.0288Y-2.3491
X9.1288Y-2.3491
X9.2288Y-2.3491
X9.0288Y-2.58
X9.1288Y-2.58
X9.2288Y-2.58
T8
X1.7091Y-5.4457
X1.7091Y-5.5638
X1.7091Y-5.6819
X1.7091Y-5.8
X1.7091Y-5.9181
X1.7091Y-6.0362
X1.7091Y-6.1543
X1.828Y-5.4457
X1.828Y-5.5638
X1.828Y-5.6819
X1.828Y-5.8
X1.828Y-5.9181
X1.828Y-6.0362
X1.828Y-6.1543
X3.7841Y-2.56
X3.7841Y-2.7372
X4.04Y-2.56
X4.04Y-2.7372
X7.3257Y-0.8891
X7.3257Y-1.008
X7.4438Y-0.8891
X7.4438Y-1.008
X7.5619Y-0.8891
X7.5619Y-1.008
X7.68Y-0.8891
X7.68Y-1.008
X7.7981Y-0.8891
X7.7981Y-1.008
X7.9162Y-0.8891
X7.9162Y-1.008
X8.0343Y-0.8891
X8.0343Y-1.008
X9.8257Y-6.847
X9.8257Y-6.9659
X9.9438Y-6.847
X9.9438Y-6.9659
X10.0619Y-6.847
X10.0619Y-6.9659
X10.18Y-6.847
X10.18Y-6.9659
X10.2981Y-6.847
X10.2981Y-6.9659
X10.4162Y-6.847
X10.4162Y-6.9659
X10.5343Y-6.847
X10.5343Y-6.9659
X7.1257Y-6.852
X7.1257Y-6.9709
X7.2438Y-6.852
X7.2438Y-6.9709
X7.3619Y-6.852
X7.3619Y-6.9709
X7.48Y-6.852
X7.48Y-6.9709
X7.5981Y-6.852
X7.5981Y-6.9709
X7.7162Y-6.852
X7.7162Y-6.9709
X7.8343Y-6.852
X7.8343Y-6.9709
X6.4257Y-0.8891
X6.4257Y-1.008
X6.5438Y-0.8891
X6.5438Y-1.008
X6.6619Y-0.8891
X6.6619Y-1.008
X6.78Y-0.8891
X6.78Y-1.008
X6.8981Y-0.8891
X6.8981Y-1.008
X7.0162Y-0.8891
X7.0162Y-1.008
X7.1343Y-0.8891
X7.1343Y-1.008
X8.0257Y-6.852
X8.0257Y-6.9709
X8.1438Y-6.852
X8.1438Y-6.9709
X8.2619Y-6.852
X8.2619Y-6.9709
X8.38Y-6.852
X8.38Y-6.9709
X8.4981Y-6.852
X8.4981Y-6.9709
X8.6162Y-6.852
X8.6162Y-6.9709
X8.7343Y-6.852
X8.7343Y-6.9709
X2.8235Y-0.8889
X2.8235Y-1.0078
X2.9416Y-0.8889
X2.9416Y-1.0078
X3.0597Y-0.8889
X3.0597Y-1.0078
X3.1778Y-0.8889
X3.1778Y-1.0078
X3.2959Y-0.8889
X3.2959Y-1.0078
X3.4141Y-0.8889
X3.4141Y-1.0078
X3.5322Y-0.8889
X3.5322Y-1.0078
X5.5257Y-0.8891
X5.5257Y-1.008
X5.6438Y-0.8891
X5.6438Y-1.008
X5.7619Y-0.8891
X5.7619Y-1.008
X5.88Y-0.8891
X5.88Y-1.008
X5.9981Y-0.8891
X5.9981Y-1.008
X6.1162Y-0.8891
X6.1162Y-1.008
X6.2343Y-0.8891
X6.2343Y-1.008
X3.7235Y-0.8889
X3.7235Y-1.0078
X3.8416Y-0.8889
X3.8416Y-1.0078
X3.9597Y-0.8889
X3.9597Y-1.0078
X4.0778Y-0.8889
X4.0778Y-1.0078
X4.1959Y-0.8889
X4.1959Y-1.0078
X4.3141Y-0.8889
X4.3141Y-1.0078
X4.4322Y-0.8889
X4.4322Y-1.0078
X5.3257Y-6.8552
X5.3257Y-6.9741
X5.4438Y-6.8552
X5.4438Y-6.9741
X5.5619Y-6.8552
X5.5619Y-6.9741
X5.68Y-6.8552
X5.68Y-6.9741
X5.7981Y-6.8552
X5.7981Y-6.9741
X5.9162Y-6.8552
X5.9162Y-6.9741
X6.0343Y-6.8552
X6.0343Y-6.9741
X4.6257Y-0.8891
X4.6257Y-1.008
X4.7438Y-0.8891
X4.7438Y-1.008
X4.8619Y-0.8891
X4.8619Y-1.008
X4.98Y-0.8891
X4.98Y-1.008
X5.0981Y-0.8891
X5.0981Y-1.008
X5.2162Y-0.8891
X5.2162Y-1.008
X5.3343Y-0.8891
X5.3343Y-1.008
X1.7091Y-3.6257
X1.7091Y-3.7438
X1.7091Y-3.8619
X1.7091Y-3.98
X1.7091Y-4.0981
X1.7091Y-4.2162
X1.7091Y-4.3343
X1.828Y-3.6257
X1.828Y-3.7438
X1.828Y-3.8619
X1.828Y-3.98
X1.828Y-4.0981
X1.828Y-4.2162
X1.828Y-4.3343
X6.2257Y-6.852
X6.2257Y-6.9709
X6.3438Y-6.852
X6.3438Y-6.9709
X6.4619Y-6.852
X6.4619Y-6.9709
X6.58Y-6.852
X6.58Y-6.9709
X6.6981Y-6.852
X6.6981Y-6.9709
X6.8162Y-6.852
X6.8162Y-6.9709
X6.9343Y-6.852
X6.9343Y-6.9709
X1.7091Y-4.5457
X1.7091Y-4.6638
X1.7091Y-4.7819
X1.7091Y-4.9
X1.7091Y-5.0181
X1.7091Y-5.1362
X1.7091Y-5.2543
X1.828Y-4.5457
X1.828Y-4.6638
X1.828Y-4.7819
X1.828Y-4.9
X1.828Y-5.0181
X1.828Y-5.1362
X1.828Y-5.2543
X3.3204Y-3.4746
X3.3204Y-3.6518
X3.5763Y-3.4746
X3.5763Y-3.6518
X8.9257Y-6.852
X8.9257Y-6.9709
X9.0438Y-6.852
X9.0438Y-6.9709
X9.1619Y-6.852
X9.1619Y-6.9709
X9.28Y-6.852
X9.28Y-6.9709
X9.3981Y-6.852
X9.3981Y-6.9709
X9.5162Y-6.852
X9.5162Y-6.9709
X9.6343Y-6.852
X9.6343Y-6.9709
X1.7091Y-2.7057
X1.7091Y-2.8238
X1.7091Y-2.9419
X1.7091Y-3.06
X1.7091Y-3.1781
X1.7091Y-3.2962
X1.7091Y-3.4143
X1.828Y-2.7057
X1.828Y-2.8238
X1.828Y-2.9419
X1.828Y-3.06
X1.828Y-3.1781
X1.828Y-3.2962
X1.828Y-3.4143
T9
X2.34Y-3.06
X2.4187Y-2.8238
X2.4187Y-3.2962
X2.8991Y-2.8238
X2.8991Y-3.2962
X2.34Y-3.86
X2.4187Y-3.6238
X2.4187Y-4.0962
X2.8991Y-3.6238
X2.8991Y-4.0962
X3.0438Y-1.5787
X3.0438Y-2.0591
X3.28Y-1.5
X3.5162Y-1.5787
X3.5162Y-2.0591
X2.34Y-4.9
X2.4187Y-4.6638
X2.4187Y-5.1362
X2.8991Y-4.6638
X2.8991Y-5.1362
X7.4438Y-1.5787
X7.4438Y-2.0591
X7.68Y-1.5
X7.9162Y-1.5787
X7.9162Y-2.0591
X2.34Y-5.68
X2.4187Y-5.4438
X2.4187Y-5.9162
X2.8991Y-5.4438
X2.8991Y-5.9162
X3.8438Y-1.5787
X3.8438Y-2.0591
X4.08Y-1.5
X4.3162Y-1.5787
X4.3162Y-2.0591
X6.6638Y-1.5787
X6.6638Y-2.0591
X6.9Y-1.5
X7.1362Y-1.5787
X7.1362Y-2.0591
X4.8638Y-1.5787
X4.8638Y-2.0591
X5.1Y-1.5
X5.3362Y-1.5787
X5.3362Y-2.0591
X5.6438Y-1.5787
X5.6438Y-2.0591
X5.88Y-1.5
X6.1162Y-1.5787
X6.1162Y-2.0591
T10
X9.4488Y-0.9194
X9.4488Y-1.1556
X9.6339Y-1.0375
T11
X3.02Y-6.46
T12
X10.66Y-1.6801
X10.66Y-2.86
X10.66Y-3.44
X10.66Y-4.6199
X10.66Y-5.28
X10.66Y-6.4599
T5
X8.4383Y-0.7814G85X8.4383Y-0.8247
G05
X8.4383Y-0.9212G85X8.4383Y-0.9645
G05
X8.7217Y-0.7814G85X8.7217Y-0.8247
G05
X8.7217Y-0.9212G85X8.7217Y-0.9645
G05
T0
M30
