G04 #@! TF.GenerationSoftware,KiCad,Pcbnew,5.0.0*
G04 #@! TF.CreationDate,2018-09-10T20:22:23-07:00*
G04 #@! TF.ProjectId,SchematicAutomation,536368656D617469634175746F6D6174,rev?*
G04 #@! TF.SameCoordinates,Original*
G04 #@! TF.FileFunction,Legend,Top*
G04 #@! TF.FilePolarity,Positive*
%FSLAX45Y45*%
G04 Gerber Fmt 4.5, Leading zero omitted, Abs format (unit mm)*
G04 Created by KiCad (PCBNEW 5.0.0) date Mon Sep 10 20:22:23 2018*
%MOMM*%
%LPD*%
G01*
G04 APERTURE LIST*
%ADD10C,0.300000*%
%ADD11C,0.100000*%
%ADD12C,0.180000*%
%ADD13C,0.150000*%
%ADD14C,0.120000*%
G04 APERTURE END LIST*
D10*
X25641314Y-3277800D02*
X25627028Y-3270657D01*
X25605600Y-3270657D01*
X25584171Y-3277800D01*
X25569886Y-3292086D01*
X25562743Y-3306371D01*
X25555600Y-3334943D01*
X25555600Y-3356371D01*
X25562743Y-3384943D01*
X25569886Y-3399228D01*
X25584171Y-3413514D01*
X25605600Y-3420657D01*
X25619886Y-3420657D01*
X25641314Y-3413514D01*
X25648457Y-3406371D01*
X25648457Y-3356371D01*
X25619886Y-3356371D01*
X25712743Y-3420657D02*
X25712743Y-3270657D01*
X25798457Y-3420657D01*
X25798457Y-3270657D01*
X25869886Y-3420657D02*
X25869886Y-3270657D01*
X25905600Y-3270657D01*
X25927028Y-3277800D01*
X25941314Y-3292086D01*
X25948457Y-3306371D01*
X25955600Y-3334943D01*
X25955600Y-3356371D01*
X25948457Y-3384943D01*
X25941314Y-3399228D01*
X25927028Y-3413514D01*
X25905600Y-3420657D01*
X25869886Y-3420657D01*
X23916514Y-3363514D02*
X24030800Y-3363514D01*
X24087943Y-3270657D02*
X24180800Y-3270657D01*
X24130800Y-3327800D01*
X24152228Y-3327800D01*
X24166514Y-3334943D01*
X24173657Y-3342086D01*
X24180800Y-3356371D01*
X24180800Y-3392086D01*
X24173657Y-3406371D01*
X24166514Y-3413514D01*
X24152228Y-3420657D01*
X24109371Y-3420657D01*
X24095086Y-3413514D01*
X24087943Y-3406371D01*
X24223657Y-3270657D02*
X24273657Y-3420657D01*
X24323657Y-3270657D01*
X24359371Y-3270657D02*
X24452228Y-3270657D01*
X24402228Y-3327800D01*
X24423657Y-3327800D01*
X24437943Y-3334943D01*
X24445086Y-3342086D01*
X24452228Y-3356371D01*
X24452228Y-3392086D01*
X24445086Y-3406371D01*
X24437943Y-3413514D01*
X24423657Y-3420657D01*
X24380800Y-3420657D01*
X24366514Y-3413514D01*
X24359371Y-3406371D01*
X26318757Y-11315957D02*
X26168757Y-11315957D01*
X26275900Y-11265957D01*
X26168757Y-11215957D01*
X26318757Y-11215957D01*
X26168757Y-11144529D02*
X26290186Y-11144529D01*
X26304471Y-11137386D01*
X26311614Y-11130243D01*
X26318757Y-11115957D01*
X26318757Y-11087386D01*
X26311614Y-11073100D01*
X26304471Y-11065957D01*
X26290186Y-11058814D01*
X26168757Y-11058814D01*
X26318757Y-10915957D02*
X26318757Y-10987386D01*
X26168757Y-10987386D01*
X26168757Y-10887386D02*
X26168757Y-10801671D01*
X26318757Y-10844529D02*
X26168757Y-10844529D01*
X26318757Y-10751671D02*
X26168757Y-10751671D01*
X26318757Y-10680243D02*
X26168757Y-10680243D01*
X26275900Y-10630243D01*
X26168757Y-10580243D01*
X26318757Y-10580243D01*
X26240186Y-10508814D02*
X26240186Y-10458814D01*
X26318757Y-10437386D02*
X26318757Y-10508814D01*
X26168757Y-10508814D01*
X26168757Y-10437386D01*
X26168757Y-10394529D02*
X26168757Y-10308814D01*
X26318757Y-10351671D02*
X26168757Y-10351671D01*
X26240186Y-10258814D02*
X26240186Y-10208814D01*
X26318757Y-10187386D02*
X26318757Y-10258814D01*
X26168757Y-10258814D01*
X26168757Y-10187386D01*
X26318757Y-10037386D02*
X26247328Y-10087386D01*
X26318757Y-10123100D02*
X26168757Y-10123100D01*
X26168757Y-10065957D01*
X26175900Y-10051671D01*
X26183043Y-10044529D01*
X26197328Y-10037386D01*
X26218757Y-10037386D01*
X26233043Y-10044529D01*
X26240186Y-10051671D01*
X26247328Y-10065957D01*
X26247328Y-10123100D01*
X26168757Y-9830243D02*
X26168757Y-9801671D01*
X26175900Y-9787386D01*
X26190186Y-9773100D01*
X26218757Y-9765957D01*
X26268757Y-9765957D01*
X26297328Y-9773100D01*
X26311614Y-9787386D01*
X26318757Y-9801671D01*
X26318757Y-9830243D01*
X26311614Y-9844529D01*
X26297328Y-9858814D01*
X26268757Y-9865957D01*
X26218757Y-9865957D01*
X26190186Y-9858814D01*
X26175900Y-9844529D01*
X26168757Y-9830243D01*
X26168757Y-9701671D02*
X26290186Y-9701671D01*
X26304471Y-9694529D01*
X26311614Y-9687386D01*
X26318757Y-9673100D01*
X26318757Y-9644529D01*
X26311614Y-9630243D01*
X26304471Y-9623100D01*
X26290186Y-9615957D01*
X26168757Y-9615957D01*
X26168757Y-9565957D02*
X26168757Y-9480243D01*
X26318757Y-9523100D02*
X26168757Y-9523100D01*
X26318757Y-9430243D02*
X26168757Y-9430243D01*
X26168757Y-9373100D01*
X26175900Y-9358814D01*
X26183043Y-9351671D01*
X26197328Y-9344529D01*
X26218757Y-9344529D01*
X26233043Y-9351671D01*
X26240186Y-9358814D01*
X26247328Y-9373100D01*
X26247328Y-9430243D01*
X26168757Y-9280243D02*
X26290186Y-9280243D01*
X26304471Y-9273100D01*
X26311614Y-9265957D01*
X26318757Y-9251671D01*
X26318757Y-9223100D01*
X26311614Y-9208814D01*
X26304471Y-9201671D01*
X26290186Y-9194529D01*
X26168757Y-9194529D01*
X26168757Y-9144529D02*
X26168757Y-9058814D01*
X26318757Y-9101671D02*
X26168757Y-9101671D01*
X26219557Y-5739578D02*
X26369557Y-5689578D01*
X26219557Y-5639578D01*
X26369557Y-5589579D02*
X26219557Y-5589579D01*
X26369557Y-5518150D02*
X26219557Y-5518150D01*
X26369557Y-5432436D01*
X26219557Y-5432436D01*
X26401307Y-15326057D02*
X26251307Y-15326057D01*
X26251307Y-15268914D01*
X26258450Y-15254628D01*
X26265593Y-15247486D01*
X26279878Y-15240343D01*
X26301307Y-15240343D01*
X26315593Y-15247486D01*
X26322736Y-15254628D01*
X26329878Y-15268914D01*
X26329878Y-15326057D01*
X26251307Y-15147486D02*
X26251307Y-15118914D01*
X26258450Y-15104628D01*
X26272736Y-15090343D01*
X26301307Y-15083200D01*
X26351307Y-15083200D01*
X26379878Y-15090343D01*
X26394164Y-15104628D01*
X26401307Y-15118914D01*
X26401307Y-15147486D01*
X26394164Y-15161771D01*
X26379878Y-15176057D01*
X26351307Y-15183200D01*
X26301307Y-15183200D01*
X26272736Y-15176057D01*
X26258450Y-15161771D01*
X26251307Y-15147486D01*
X26251307Y-15033200D02*
X26401307Y-14997486D01*
X26294164Y-14968914D01*
X26401307Y-14940343D01*
X26251307Y-14904628D01*
X26322736Y-14847486D02*
X26322736Y-14797486D01*
X26401307Y-14776057D02*
X26401307Y-14847486D01*
X26251307Y-14847486D01*
X26251307Y-14776057D01*
X26401307Y-14626057D02*
X26329878Y-14676057D01*
X26401307Y-14711771D02*
X26251307Y-14711771D01*
X26251307Y-14654628D01*
X26258450Y-14640343D01*
X26265593Y-14633200D01*
X26279878Y-14626057D01*
X26301307Y-14626057D01*
X26315593Y-14633200D01*
X26322736Y-14640343D01*
X26329878Y-14654628D01*
X26329878Y-14711771D01*
X26401307Y-14447486D02*
X26251307Y-14447486D01*
X26401307Y-14376057D02*
X26251307Y-14376057D01*
X26401307Y-14290343D01*
X26251307Y-14290343D01*
D11*
G04 #@! TO.C,J12*
X10730300Y-8610400D02*
X10730300Y-8630400D01*
X10790300Y-8550400D02*
X10730300Y-8610400D01*
X10790300Y-8500400D02*
X10790300Y-8550400D01*
X9250300Y-8640400D02*
X9250300Y-8520400D01*
X9300300Y-8640400D02*
X9250300Y-8640400D01*
X9250300Y-7920400D02*
X9250300Y-8030400D01*
X9300300Y-7920400D02*
X9250300Y-7920400D01*
X10790300Y-7920400D02*
X10790300Y-8060400D01*
X10740300Y-7920400D02*
X10790300Y-7920400D01*
D12*
G04 #@! TO.C,C5*
X9258300Y-10147300D02*
X9080500Y-10147300D01*
X9258300Y-9791700D02*
X9258300Y-10147300D01*
X9080500Y-9791700D02*
X9258300Y-9791700D01*
X9080500Y-10147300D02*
X9080500Y-9791700D01*
D11*
G04 #@! TO.C,U14*
X22303200Y-11732800D02*
X22253200Y-11732800D01*
X22303200Y-11732800D02*
X22303200Y-11782800D01*
X21283200Y-11732800D02*
X21333200Y-11732800D01*
X21283200Y-11732800D02*
X21283200Y-11782800D01*
X22303200Y-12752800D02*
X22303200Y-12702800D01*
X22303200Y-12752800D02*
X22253200Y-12752800D01*
X21393200Y-12752800D02*
X21393200Y-12852800D01*
X21343200Y-12752800D02*
X21393200Y-12752800D01*
X21283200Y-12692800D02*
X21343200Y-12752800D01*
X21283200Y-12662800D02*
X21283200Y-12692800D01*
G04 #@! TO.C,U18*
X20322000Y-11732800D02*
X20272000Y-11732800D01*
X20322000Y-11732800D02*
X20322000Y-11782800D01*
X19302000Y-11732800D02*
X19352000Y-11732800D01*
X19302000Y-11732800D02*
X19302000Y-11782800D01*
X20322000Y-12752800D02*
X20322000Y-12702800D01*
X20322000Y-12752800D02*
X20272000Y-12752800D01*
X19412000Y-12752800D02*
X19412000Y-12852800D01*
X19362000Y-12752800D02*
X19412000Y-12752800D01*
X19302000Y-12692800D02*
X19362000Y-12752800D01*
X19302000Y-12662800D02*
X19302000Y-12692800D01*
D13*
G04 #@! TO.C,U35*
X18399900Y-11102200D02*
X18274900Y-11102200D01*
X18399900Y-11419700D02*
X18734900Y-11419700D01*
X18399900Y-11084700D02*
X18734900Y-11084700D01*
X18399900Y-11419700D02*
X18399900Y-11394700D01*
X18734900Y-11419700D02*
X18734900Y-11394700D01*
X18734900Y-11084700D02*
X18734900Y-11109700D01*
X18399900Y-11084700D02*
X18399900Y-11102200D01*
D14*
G04 #@! TO.C,J14*
X26551400Y-7264400D02*
G75*
G03X27601400Y-7264400I525000J0D01*
G01*
X27601400Y-4264400D02*
G75*
G03X26551400Y-4264400I-525000J0D01*
G01*
X26551400Y-4264400D02*
X26551400Y-7264400D01*
X27601400Y-7264400D02*
X27601400Y-4264400D01*
G04 #@! TO.C,U4*
X17340750Y-16328100D02*
X17635750Y-16328100D01*
X17520750Y-16006100D02*
X17340750Y-16006100D01*
G04 #@! TO.C,U5*
X19025700Y-15745750D02*
X18845700Y-15745750D01*
X18845700Y-16067750D02*
X19140700Y-16067750D01*
G04 #@! TO.C,C11*
X19008650Y-15491150D02*
X19078650Y-15491150D01*
X19078650Y-15611150D02*
X19008650Y-15611150D01*
G04 #@! TO.C,C53*
X19836600Y-16126550D02*
X19736600Y-16126550D01*
X19736600Y-16296550D02*
X19836600Y-16296550D01*
G04 #@! TO.C,C17*
X17707300Y-15852450D02*
X17637300Y-15852450D01*
X17637300Y-15732450D02*
X17707300Y-15732450D01*
G04 #@! TO.C,C50*
X17433850Y-16418250D02*
X17503850Y-16418250D01*
X17503850Y-16538250D02*
X17433850Y-16538250D01*
G04 #@! TO.C,C52*
X18983400Y-16316000D02*
X18913400Y-16316000D01*
X18913400Y-16196000D02*
X18983400Y-16196000D01*
G04 #@! TO.C,C7*
X19548400Y-16475800D02*
X19448400Y-16475800D01*
X19448400Y-16645800D02*
X19548400Y-16645800D01*
G04 #@! TO.C,C14*
X18474600Y-16217100D02*
X18474600Y-16117100D01*
X18304600Y-16117100D02*
X18304600Y-16217100D01*
G04 #@! TO.C,L1*
X8775300Y-10519400D02*
X8835300Y-10519400D01*
X8777300Y-10359400D02*
X8837300Y-10359400D01*
G04 #@! TO.C,L8*
X18044150Y-16295850D02*
X18044150Y-16355850D01*
X17884150Y-16293850D02*
X17884150Y-16353850D01*
G04 #@! TO.C,L9*
X19351000Y-16046200D02*
X19351000Y-16106200D01*
X19511000Y-16048200D02*
X19511000Y-16108200D01*
D13*
G04 #@! TO.C,J19*
X4437200Y-9069200D02*
X4777867Y-9069200D01*
X4156200Y-9069200D02*
X4496867Y-9069200D01*
X4437533Y-11144200D02*
X4778200Y-11144200D01*
X4156200Y-11144200D02*
X4496867Y-11144200D01*
X4156200Y-9074200D02*
X4156200Y-11144200D01*
X4778200Y-11144200D02*
X4778200Y-9074200D01*
G04 #@! TO.C,U33*
X19898500Y-11102200D02*
X19773500Y-11102200D01*
X19898500Y-11419700D02*
X20233500Y-11419700D01*
X19898500Y-11084700D02*
X20233500Y-11084700D01*
X19898500Y-11419700D02*
X19898500Y-11394700D01*
X20233500Y-11419700D02*
X20233500Y-11394700D01*
X20233500Y-11084700D02*
X20233500Y-11109700D01*
X19898500Y-11084700D02*
X19898500Y-11102200D01*
G04 #@! TO.C,U36*
X23860900Y-11102200D02*
X23735900Y-11102200D01*
X23860900Y-11419700D02*
X24195900Y-11419700D01*
X23860900Y-11084700D02*
X24195900Y-11084700D01*
X23860900Y-11419700D02*
X23860900Y-11394700D01*
X24195900Y-11419700D02*
X24195900Y-11394700D01*
X24195900Y-11084700D02*
X24195900Y-11109700D01*
X23860900Y-11084700D02*
X23860900Y-11102200D01*
G04 #@! TO.C,U37*
X25181700Y-11102200D02*
X25056700Y-11102200D01*
X25181700Y-11419700D02*
X25516700Y-11419700D01*
X25181700Y-11084700D02*
X25516700Y-11084700D01*
X25181700Y-11419700D02*
X25181700Y-11394700D01*
X25516700Y-11419700D02*
X25516700Y-11394700D01*
X25516700Y-11084700D02*
X25516700Y-11109700D01*
X25181700Y-11084700D02*
X25181700Y-11102200D01*
G04 #@! TO.C,U32*
X15813900Y-12850000D02*
X15938900Y-12850000D01*
X15813900Y-12532500D02*
X15478900Y-12532500D01*
X15813900Y-12867500D02*
X15478900Y-12867500D01*
X15813900Y-12532500D02*
X15813900Y-12557500D01*
X15478900Y-12532500D02*
X15478900Y-12557500D01*
X15478900Y-12867500D02*
X15478900Y-12842500D01*
X15813900Y-12867500D02*
X15813900Y-12850000D01*
G04 #@! TO.C,U30*
X22514700Y-11102200D02*
X22389700Y-11102200D01*
X22514700Y-11419700D02*
X22849700Y-11419700D01*
X22514700Y-11084700D02*
X22849700Y-11084700D01*
X22514700Y-11419700D02*
X22514700Y-11394700D01*
X22849700Y-11419700D02*
X22849700Y-11394700D01*
X22849700Y-11084700D02*
X22849700Y-11109700D01*
X22514700Y-11084700D02*
X22514700Y-11102200D01*
G04 #@! TO.C,U31*
X21210700Y-11102200D02*
X21085700Y-11102200D01*
X21210700Y-11419700D02*
X21545700Y-11419700D01*
X21210700Y-11084700D02*
X21545700Y-11084700D01*
X21210700Y-11419700D02*
X21210700Y-11394700D01*
X21545700Y-11419700D02*
X21545700Y-11394700D01*
X21545700Y-11084700D02*
X21545700Y-11109700D01*
X21210700Y-11084700D02*
X21210700Y-11102200D01*
G04 #@! TO.C,U34*
X17053700Y-11102200D02*
X16928700Y-11102200D01*
X17053700Y-11419700D02*
X17388700Y-11419700D01*
X17053700Y-11084700D02*
X17388700Y-11084700D01*
X17053700Y-11419700D02*
X17053700Y-11394700D01*
X17388700Y-11419700D02*
X17388700Y-11394700D01*
X17388700Y-11084700D02*
X17388700Y-11109700D01*
X17053700Y-11084700D02*
X17053700Y-11102200D01*
D11*
G04 #@! TO.C,IC1*
X23451900Y-14614500D02*
X23451900Y-14654500D01*
X23411900Y-14614500D02*
X23451900Y-14614500D01*
X22731900Y-14614500D02*
X22731900Y-14654500D01*
X22771900Y-14614500D02*
X22731900Y-14614500D01*
X23451900Y-15334500D02*
X23411900Y-15334500D01*
X23451900Y-15294500D02*
X23451900Y-15334500D01*
X22771900Y-15334500D02*
X22731900Y-15294500D01*
X22771900Y-15439500D02*
X22771900Y-15334500D01*
D12*
G04 #@! TO.C,Y4*
X19189700Y-13716000D02*
X19151600Y-13716000D01*
X19189700Y-13716000D02*
X19189700Y-13652500D01*
X19189700Y-13779500D02*
X19189700Y-13716000D01*
X19316700Y-13716000D02*
X19354800Y-13716000D01*
X19316700Y-13716000D02*
X19316700Y-13652500D01*
X19316700Y-13779500D02*
X19316700Y-13716000D01*
X19227800Y-13779500D02*
X19278600Y-13779500D01*
X19227800Y-13652500D02*
X19227800Y-13779500D01*
X19278600Y-13652500D02*
X19227800Y-13652500D01*
X19278600Y-13779500D02*
X19278600Y-13652500D01*
X19799300Y-13957300D02*
G75*
G03X19824700Y-13931900I0J25400D01*
G01*
X18681700Y-13931900D02*
G75*
G03X18707100Y-13957300I25400J0D01*
G01*
X18707100Y-13957300D02*
X19799300Y-13957300D01*
X19596100Y-13919200D02*
X18910300Y-13919200D01*
X19799300Y-13474700D02*
G75*
G02X19824700Y-13500100I0J-25400D01*
G01*
X19824700Y-13500100D02*
X19824700Y-13601700D01*
X19596100Y-13512800D02*
G75*
G02X19764110Y-13601700I5J-203200D01*
G01*
X18742300Y-13601710D02*
G75*
G02X18910300Y-13512800I168012J-114290D01*
G01*
X18681700Y-13500100D02*
X18681700Y-13601700D01*
X18681700Y-13500100D02*
G75*
G02X18707100Y-13474700I25400J0D01*
G01*
X18707100Y-13474700D02*
X19799300Y-13474700D01*
X18910300Y-13512800D02*
X19596100Y-13512800D01*
X18681700Y-13830300D02*
X18681700Y-13931900D01*
X18742290Y-13830300D02*
G75*
G03X18910300Y-13919200I168005J114300D01*
G01*
X19824700Y-13830300D02*
X19824700Y-13931900D01*
X19596100Y-13919210D02*
G75*
G03X19764110Y-13830300I-7J203210D01*
G01*
D13*
G04 #@! TO.C,J18*
X15975200Y-2354400D02*
X15975200Y-2695067D01*
X15975200Y-2073400D02*
X15975200Y-2414067D01*
X13900200Y-2354733D02*
X13900200Y-2695400D01*
X13900200Y-2073400D02*
X13900200Y-2414067D01*
X15970200Y-2073400D02*
X13900200Y-2073400D01*
X13900200Y-2695400D02*
X15970200Y-2695400D01*
G04 #@! TO.C,J1*
X4344800Y-17719740D02*
X4344800Y-17379074D01*
X4344800Y-18000740D02*
X4344800Y-17660074D01*
X6419800Y-17719407D02*
X6419800Y-17378741D01*
X6419800Y-18000740D02*
X6419800Y-17660074D01*
X4349800Y-18000740D02*
X6419800Y-18000740D01*
X6419800Y-17378741D02*
X4349800Y-17378740D01*
G04 #@! TO.C,J2*
X4437200Y-13692000D02*
X4777867Y-13692000D01*
X4156200Y-13692000D02*
X4496867Y-13692000D01*
X4437533Y-15767000D02*
X4778200Y-15767000D01*
X4156200Y-15767000D02*
X4496867Y-15767000D01*
X4156200Y-13697000D02*
X4156200Y-15767000D01*
X4778200Y-15767000D02*
X4778200Y-13697000D01*
G04 #@! TO.C,J3*
X6630800Y-17711600D02*
X6630800Y-17370933D01*
X6630800Y-17992600D02*
X6630800Y-17651933D01*
X8705800Y-17711267D02*
X8705800Y-17370600D01*
X8705800Y-17992600D02*
X8705800Y-17651933D01*
X6635800Y-17992600D02*
X8705800Y-17992600D01*
X8705800Y-17370600D02*
X6635800Y-17370600D01*
G04 #@! TO.C,J4*
X4437200Y-11406000D02*
X4777867Y-11406000D01*
X4156200Y-11406000D02*
X4496867Y-11406000D01*
X4437533Y-13481000D02*
X4778200Y-13481000D01*
X4156200Y-13481000D02*
X4496867Y-13481000D01*
X4156200Y-11411000D02*
X4156200Y-13481000D01*
X4778200Y-13481000D02*
X4778200Y-11411000D01*
G04 #@! TO.C,J5*
X8916800Y-17711600D02*
X8916800Y-17370933D01*
X8916800Y-17992600D02*
X8916800Y-17651933D01*
X10991800Y-17711267D02*
X10991800Y-17370600D01*
X10991800Y-17992600D02*
X10991800Y-17651933D01*
X8921800Y-17992600D02*
X10991800Y-17992600D01*
X10991800Y-17370600D02*
X8921800Y-17370600D01*
G04 #@! TO.C,J6*
X18261200Y-2354400D02*
X18261200Y-2695067D01*
X18261200Y-2073400D02*
X18261200Y-2414067D01*
X16186200Y-2354733D02*
X16186200Y-2695400D01*
X16186200Y-2073400D02*
X16186200Y-2414067D01*
X18256200Y-2073400D02*
X16186200Y-2073400D01*
X16186200Y-2695400D02*
X18256200Y-2695400D01*
G04 #@! TO.C,J7*
X20547200Y-2354400D02*
X20547200Y-2695067D01*
X20547200Y-2073400D02*
X20547200Y-2414067D01*
X18472200Y-2354733D02*
X18472200Y-2695400D01*
X18472200Y-2073400D02*
X18472200Y-2414067D01*
X20542200Y-2073400D02*
X18472200Y-2073400D01*
X18472200Y-2695400D02*
X20542200Y-2695400D01*
G04 #@! TO.C,J8*
X11202800Y-17711600D02*
X11202800Y-17370933D01*
X11202800Y-17992600D02*
X11202800Y-17651933D01*
X13277800Y-17711267D02*
X13277800Y-17370600D01*
X13277800Y-17992600D02*
X13277800Y-17651933D01*
X11207800Y-17992600D02*
X13277800Y-17992600D01*
X13277800Y-17370600D02*
X11207800Y-17370600D01*
G04 #@! TO.C,J20*
X4437200Y-6732400D02*
X4777867Y-6732400D01*
X4156200Y-6732400D02*
X4496867Y-6732400D01*
X4437533Y-8807400D02*
X4778200Y-8807400D01*
X4156200Y-8807400D02*
X4496867Y-8807400D01*
X4156200Y-6737400D02*
X4156200Y-8807400D01*
X4778200Y-8807400D02*
X4778200Y-6737400D01*
G04 #@! TO.C,J22*
X11397706Y-2353811D02*
X11397706Y-2694477D01*
X11397706Y-2072810D02*
X11397706Y-2413477D01*
X9322706Y-2354144D02*
X9322706Y-2694810D01*
X9322706Y-2072810D02*
X9322706Y-2413477D01*
X11392706Y-2072811D02*
X9322706Y-2072810D01*
X9322706Y-2694810D02*
X11392706Y-2694811D01*
G04 #@! TO.C,J21*
X9111706Y-2353811D02*
X9111706Y-2694477D01*
X9111706Y-2072810D02*
X9111706Y-2413477D01*
X7036706Y-2354144D02*
X7036706Y-2694810D01*
X7036706Y-2072810D02*
X7036706Y-2413477D01*
X9106706Y-2072811D02*
X7036706Y-2072810D01*
X7036706Y-2694810D02*
X9106706Y-2694811D01*
G04 #@! TO.C,J9*
X15774800Y-17698900D02*
X15774800Y-17358233D01*
X15774800Y-17979900D02*
X15774800Y-17639233D01*
X17849800Y-17698567D02*
X17849800Y-17357900D01*
X17849800Y-17979900D02*
X17849800Y-17639233D01*
X15779800Y-17979900D02*
X17849800Y-17979900D01*
X17849800Y-17357900D02*
X15779800Y-17357900D01*
G04 #@! TO.C,J10*
X13689200Y-2354400D02*
X13689200Y-2695067D01*
X13689200Y-2073400D02*
X13689200Y-2414067D01*
X11614200Y-2354733D02*
X11614200Y-2695400D01*
X11614200Y-2073400D02*
X11614200Y-2414067D01*
X13684200Y-2073400D02*
X11614200Y-2073400D01*
X11614200Y-2695400D02*
X13684200Y-2695400D01*
G04 #@! TO.C,J11*
X13488800Y-17711600D02*
X13488800Y-17370933D01*
X13488800Y-17992600D02*
X13488800Y-17651933D01*
X15563800Y-17711267D02*
X15563800Y-17370600D01*
X15563800Y-17992600D02*
X15563800Y-17651933D01*
X13493800Y-17992600D02*
X15563800Y-17992600D01*
X15563800Y-17370600D02*
X13493800Y-17370600D01*
D14*
G04 #@! TO.C,J13*
X21004400Y-16507600D02*
X21178400Y-16507600D01*
X21004400Y-16681600D02*
X21004400Y-16507600D01*
X21948400Y-16531600D02*
X21948400Y-16731600D01*
X21668400Y-16531600D02*
X21948400Y-16531600D01*
X21028400Y-16531600D02*
X21308400Y-16531600D01*
X21028400Y-17991600D02*
X21028400Y-16531600D01*
X21948400Y-17991600D02*
X21028400Y-17991600D01*
X21948400Y-17091600D02*
X21948400Y-17991600D01*
D12*
G04 #@! TO.C,C45*
X20662900Y-11785600D02*
X20662900Y-12014200D01*
X21069300Y-11785600D02*
X20662900Y-11785600D01*
X21069300Y-12014200D02*
X21069300Y-11785600D01*
X20662900Y-12014200D02*
X21069300Y-12014200D01*
G04 #@! TO.C,C48*
X20870000Y-15709900D02*
X20870000Y-15887700D01*
X20514400Y-15709900D02*
X20870000Y-15709900D01*
X20514400Y-15887700D02*
X20514400Y-15709900D01*
X20870000Y-15887700D02*
X20514400Y-15887700D01*
G04 #@! TO.C,C49*
X20532000Y-14770100D02*
X20532000Y-14592300D01*
X20887600Y-14770100D02*
X20532000Y-14770100D01*
X20887600Y-14592300D02*
X20887600Y-14770100D01*
X20532000Y-14592300D02*
X20887600Y-14592300D01*
G04 #@! TO.C,C24*
X23435400Y-9486900D02*
X23435400Y-9309100D01*
X23791000Y-9486900D02*
X23435400Y-9486900D01*
X23791000Y-9309100D02*
X23791000Y-9486900D01*
X23435400Y-9309100D02*
X23791000Y-9309100D01*
G04 #@! TO.C,C3*
X9334500Y-9791700D02*
X9512300Y-9791700D01*
X9334500Y-10147300D02*
X9334500Y-9791700D01*
X9512300Y-10147300D02*
X9334500Y-10147300D01*
X9512300Y-9791700D02*
X9512300Y-10147300D01*
G04 #@! TO.C,C4*
X8335100Y-11163300D02*
X8335100Y-10985500D01*
X8690700Y-11163300D02*
X8335100Y-11163300D01*
X8690700Y-10985500D02*
X8690700Y-11163300D01*
X8335100Y-10985500D02*
X8690700Y-10985500D01*
G04 #@! TO.C,C29*
X12092623Y-10312400D02*
X12092623Y-10490200D01*
X11737023Y-10312400D02*
X12092623Y-10312400D01*
X11737023Y-10490200D02*
X11737023Y-10312400D01*
X12092623Y-10490200D02*
X11737023Y-10490200D01*
G04 #@! TO.C,C2*
X9271000Y-13436600D02*
X9448800Y-13436600D01*
X9271000Y-13792200D02*
X9271000Y-13436600D01*
X9448800Y-13792200D02*
X9271000Y-13792200D01*
X9448800Y-13436600D02*
X9448800Y-13792200D01*
G04 #@! TO.C,C26*
X13398500Y-6489700D02*
X13398500Y-6311900D01*
X13754100Y-6489700D02*
X13398500Y-6489700D01*
X13754100Y-6311900D02*
X13754100Y-6489700D01*
X13398500Y-6311900D02*
X13754100Y-6311900D01*
G04 #@! TO.C,C6*
X7154000Y-15989300D02*
X7154000Y-15811500D01*
X7509600Y-15989300D02*
X7154000Y-15989300D01*
X7509600Y-15811500D02*
X7509600Y-15989300D01*
X7154000Y-15811500D02*
X7509600Y-15811500D01*
G04 #@! TO.C,C22*
X24752300Y-9499600D02*
X24752300Y-9321800D01*
X25107900Y-9499600D02*
X24752300Y-9499600D01*
X25107900Y-9321800D02*
X25107900Y-9499600D01*
X24752300Y-9321800D02*
X25107900Y-9321800D01*
G04 #@! TO.C,C21*
X18249900Y-6464300D02*
X18249900Y-6642100D01*
X17894300Y-6464300D02*
X18249900Y-6464300D01*
X17894300Y-6642100D02*
X17894300Y-6464300D01*
X18249900Y-6642100D02*
X17894300Y-6642100D01*
G04 #@! TO.C,C20*
X20739100Y-9486900D02*
X20739100Y-9309100D01*
X21094700Y-9486900D02*
X20739100Y-9486900D01*
X21094700Y-9309100D02*
X21094700Y-9486900D01*
X20739100Y-9309100D02*
X21094700Y-9309100D01*
G04 #@! TO.C,C16*
X19418300Y-9474200D02*
X19418300Y-9296400D01*
X19773900Y-9474200D02*
X19418300Y-9474200D01*
X19773900Y-9296400D02*
X19773900Y-9474200D01*
X19418300Y-9296400D02*
X19773900Y-9296400D01*
G04 #@! TO.C,C15*
X15341600Y-14363700D02*
X15341600Y-14541500D01*
X14986000Y-14363700D02*
X15341600Y-14363700D01*
X14986000Y-14541500D02*
X14986000Y-14363700D01*
X15341600Y-14541500D02*
X14986000Y-14541500D01*
G04 #@! TO.C,C13*
X25984200Y-3361600D02*
X25984200Y-3539400D01*
X25628600Y-3361600D02*
X25984200Y-3361600D01*
X25628600Y-3539400D02*
X25628600Y-3361600D01*
X25984200Y-3539400D02*
X25628600Y-3539400D01*
G04 #@! TO.C,C12*
X7150100Y-16535400D02*
X7150100Y-16357600D01*
X7505700Y-16535400D02*
X7150100Y-16535400D01*
X7505700Y-16357600D02*
X7505700Y-16535400D01*
X7150100Y-16357600D02*
X7505700Y-16357600D01*
G04 #@! TO.C,C1*
X10566400Y-13792200D02*
X10388600Y-13792200D01*
X10566400Y-13436600D02*
X10566400Y-13792200D01*
X10388600Y-13436600D02*
X10566400Y-13436600D01*
X10388600Y-13792200D02*
X10388600Y-13436600D01*
G04 #@! TO.C,C10*
X23482300Y-15595600D02*
X23660100Y-15595600D01*
X23482300Y-15951200D02*
X23482300Y-15595600D01*
X23660100Y-15951200D02*
X23482300Y-15951200D01*
X23660100Y-15595600D02*
X23660100Y-15951200D01*
G04 #@! TO.C,C9*
X17945100Y-9448800D02*
X17945100Y-9271000D01*
X18300700Y-9448800D02*
X17945100Y-9448800D01*
X18300700Y-9271000D02*
X18300700Y-9448800D01*
X17945100Y-9271000D02*
X18300700Y-9271000D01*
G04 #@! TO.C,C8*
X7177723Y-17018000D02*
X7177723Y-16840200D01*
X7533323Y-17018000D02*
X7177723Y-17018000D01*
X7533323Y-16840200D02*
X7533323Y-17018000D01*
X7177723Y-16840200D02*
X7533323Y-16840200D01*
G04 #@! TO.C,C18*
X16573500Y-9410700D02*
X16573500Y-9232900D01*
X16929100Y-9410700D02*
X16573500Y-9410700D01*
X16929100Y-9232900D02*
X16929100Y-9410700D01*
X16573500Y-9232900D02*
X16929100Y-9232900D01*
G04 #@! TO.C,C47*
X18605500Y-11785600D02*
X18605500Y-12014200D01*
X19011900Y-11785600D02*
X18605500Y-11785600D01*
X19011900Y-12014200D02*
X19011900Y-11785600D01*
X18605500Y-12014200D02*
X19011900Y-12014200D01*
G04 #@! TO.C,C46*
X22720300Y-11760200D02*
X22720300Y-11988800D01*
X23126700Y-11760200D02*
X22720300Y-11760200D01*
X23126700Y-11988800D02*
X23126700Y-11760200D01*
X22720300Y-11988800D02*
X23126700Y-11988800D01*
G04 #@! TO.C,C28*
X22504400Y-9461500D02*
X22504400Y-9232900D01*
X22098000Y-9461500D02*
X22504400Y-9461500D01*
X22098000Y-9232900D02*
X22098000Y-9461500D01*
X22504400Y-9232900D02*
X22098000Y-9232900D01*
G04 #@! TO.C,C31*
X25863300Y-4025900D02*
X25863300Y-4254500D01*
X26269700Y-4025900D02*
X25863300Y-4025900D01*
X26269700Y-4254500D02*
X26269700Y-4025900D01*
X25863300Y-4254500D02*
X26269700Y-4254500D01*
G04 #@! TO.C,C30*
X26949400Y-3340100D02*
X26949400Y-3111500D01*
X26543000Y-3340100D02*
X26949400Y-3340100D01*
X26543000Y-3111500D02*
X26543000Y-3340100D01*
X26949400Y-3111500D02*
X26543000Y-3111500D01*
D14*
G04 #@! TO.C,J15*
X26551400Y-16408200D02*
G75*
G03X27601400Y-16408200I525000J0D01*
G01*
X27601400Y-13408200D02*
G75*
G03X26551400Y-13408200I-525000J0D01*
G01*
X26551400Y-13408200D02*
X26551400Y-16408200D01*
X27601400Y-16408200D02*
X27601400Y-13408200D01*
G04 #@! TO.C,J17*
X26551400Y-11734600D02*
G75*
G03X27601400Y-11734600I525000J0D01*
G01*
X27601400Y-8734600D02*
G75*
G03X26551400Y-8734600I-525000J0D01*
G01*
X26551400Y-8734600D02*
X26551400Y-11734600D01*
X27601400Y-11734600D02*
X27601400Y-8734600D01*
D13*
G04 #@! TO.C,U3*
X9048800Y-10566800D02*
X8921300Y-10566800D01*
X10483800Y-10509300D02*
X10416300Y-10509300D01*
X10483800Y-11944300D02*
X10416300Y-11944300D01*
X9048800Y-11944300D02*
X9116300Y-11944300D01*
X9048800Y-10509300D02*
X9116300Y-10509300D01*
X9048800Y-11944300D02*
X9048800Y-11876800D01*
X10483800Y-11944300D02*
X10483800Y-11876800D01*
X10483800Y-10509300D02*
X10483800Y-10576800D01*
X9048800Y-10509300D02*
X9048800Y-10566800D01*
D12*
G04 #@! TO.C,Y1*
X9855200Y-12954000D02*
X9817100Y-12954000D01*
X9855200Y-12954000D02*
X9855200Y-12890500D01*
X9855200Y-13017500D02*
X9855200Y-12954000D01*
X9982200Y-12954000D02*
X10020300Y-12954000D01*
X9982200Y-12954000D02*
X9982200Y-12890500D01*
X9982200Y-13017500D02*
X9982200Y-12954000D01*
X9893300Y-13017500D02*
X9944100Y-13017500D01*
X9893300Y-12890500D02*
X9893300Y-13017500D01*
X9944100Y-12890500D02*
X9893300Y-12890500D01*
X9944100Y-13017500D02*
X9944100Y-12890500D01*
X10464800Y-13195300D02*
G75*
G03X10490200Y-13169900I0J25400D01*
G01*
X9347200Y-13169900D02*
G75*
G03X9372600Y-13195300I25400J0D01*
G01*
X9372600Y-13195300D02*
X10464800Y-13195300D01*
X10261600Y-13157200D02*
X9575800Y-13157200D01*
X10464800Y-12712700D02*
G75*
G02X10490200Y-12738100I0J-25400D01*
G01*
X10490200Y-12738100D02*
X10490200Y-12839700D01*
X10261600Y-12750800D02*
G75*
G02X10429610Y-12839700I5J-203200D01*
G01*
X9407800Y-12839710D02*
G75*
G02X9575800Y-12750800I168012J-114290D01*
G01*
X9347200Y-12738100D02*
X9347200Y-12839700D01*
X9347200Y-12738100D02*
G75*
G02X9372600Y-12712700I25400J0D01*
G01*
X9372600Y-12712700D02*
X10464800Y-12712700D01*
X9575800Y-12750800D02*
X10261600Y-12750800D01*
X9347200Y-13068300D02*
X9347200Y-13169900D01*
X9407790Y-13068300D02*
G75*
G03X9575800Y-13157200I168005J114300D01*
G01*
X10490200Y-13068300D02*
X10490200Y-13169900D01*
X10261600Y-13157210D02*
G75*
G03X10429610Y-13068300I-7J203210D01*
G01*
G04 #@! TO.C,Y2*
X21424900Y-13716000D02*
X21386800Y-13716000D01*
X21424900Y-13716000D02*
X21424900Y-13652500D01*
X21424900Y-13779500D02*
X21424900Y-13716000D01*
X21551900Y-13716000D02*
X21590000Y-13716000D01*
X21551900Y-13716000D02*
X21551900Y-13652500D01*
X21551900Y-13779500D02*
X21551900Y-13716000D01*
X21463000Y-13779500D02*
X21513800Y-13779500D01*
X21463000Y-13652500D02*
X21463000Y-13779500D01*
X21513800Y-13652500D02*
X21463000Y-13652500D01*
X21513800Y-13779500D02*
X21513800Y-13652500D01*
X22034500Y-13957300D02*
G75*
G03X22059900Y-13931900I0J25400D01*
G01*
X20916900Y-13931900D02*
G75*
G03X20942300Y-13957300I25400J0D01*
G01*
X20942300Y-13957300D02*
X22034500Y-13957300D01*
X21831300Y-13919200D02*
X21145500Y-13919200D01*
X22034500Y-13474700D02*
G75*
G02X22059900Y-13500100I0J-25400D01*
G01*
X22059900Y-13500100D02*
X22059900Y-13601700D01*
X21831300Y-13512800D02*
G75*
G02X21999310Y-13601700I5J-203200D01*
G01*
X20977500Y-13601710D02*
G75*
G02X21145500Y-13512800I168012J-114290D01*
G01*
X20916900Y-13500100D02*
X20916900Y-13601700D01*
X20916900Y-13500100D02*
G75*
G02X20942300Y-13474700I25400J0D01*
G01*
X20942300Y-13474700D02*
X22034500Y-13474700D01*
X21145500Y-13512800D02*
X21831300Y-13512800D01*
X20916900Y-13830300D02*
X20916900Y-13931900D01*
X20977490Y-13830300D02*
G75*
G03X21145500Y-13919200I168005J114300D01*
G01*
X22059900Y-13830300D02*
X22059900Y-13931900D01*
X21831300Y-13919210D02*
G75*
G03X21999310Y-13830300I-7J203210D01*
G01*
G04 #@! TO.C,Y3*
X23812500Y-13716000D02*
X23774400Y-13716000D01*
X23812500Y-13716000D02*
X23812500Y-13652500D01*
X23812500Y-13779500D02*
X23812500Y-13716000D01*
X23939500Y-13716000D02*
X23977600Y-13716000D01*
X23939500Y-13716000D02*
X23939500Y-13652500D01*
X23939500Y-13779500D02*
X23939500Y-13716000D01*
X23850600Y-13779500D02*
X23901400Y-13779500D01*
X23850600Y-13652500D02*
X23850600Y-13779500D01*
X23901400Y-13652500D02*
X23850600Y-13652500D01*
X23901400Y-13779500D02*
X23901400Y-13652500D01*
X24422100Y-13957300D02*
G75*
G03X24447500Y-13931900I0J25400D01*
G01*
X23304500Y-13931900D02*
G75*
G03X23329900Y-13957300I25400J0D01*
G01*
X23329900Y-13957300D02*
X24422100Y-13957300D01*
X24218900Y-13919200D02*
X23533100Y-13919200D01*
X24422100Y-13474700D02*
G75*
G02X24447500Y-13500100I0J-25400D01*
G01*
X24447500Y-13500100D02*
X24447500Y-13601700D01*
X24218900Y-13512800D02*
G75*
G02X24386910Y-13601700I5J-203200D01*
G01*
X23365100Y-13601710D02*
G75*
G02X23533100Y-13512800I168012J-114290D01*
G01*
X23304500Y-13500100D02*
X23304500Y-13601700D01*
X23304500Y-13500100D02*
G75*
G02X23329900Y-13474700I25400J0D01*
G01*
X23329900Y-13474700D02*
X24422100Y-13474700D01*
X23533100Y-13512800D02*
X24218900Y-13512800D01*
X23304500Y-13830300D02*
X23304500Y-13931900D01*
X23365090Y-13830300D02*
G75*
G03X23533100Y-13919200I168005J114300D01*
G01*
X24447500Y-13830300D02*
X24447500Y-13931900D01*
X24218900Y-13919210D02*
G75*
G03X24386910Y-13830300I-7J203210D01*
G01*
G04 #@! TO.C,Y5*
X21386800Y-15176500D02*
X21386800Y-15138400D01*
X21386800Y-15176500D02*
X21450300Y-15176500D01*
X21323300Y-15176500D02*
X21386800Y-15176500D01*
X21386800Y-15303500D02*
X21386800Y-15341600D01*
X21386800Y-15303500D02*
X21450300Y-15303500D01*
X21323300Y-15303500D02*
X21386800Y-15303500D01*
X21323300Y-15214600D02*
X21323300Y-15265400D01*
X21450300Y-15214600D02*
X21323300Y-15214600D01*
X21450300Y-15265400D02*
X21450300Y-15214600D01*
X21323300Y-15265400D02*
X21450300Y-15265400D01*
X21145500Y-15786100D02*
G75*
G03X21170900Y-15811500I25400J0D01*
G01*
X21170900Y-14668500D02*
G75*
G03X21145500Y-14693900I0J-25400D01*
G01*
X21145500Y-14693900D02*
X21145500Y-15786100D01*
X21183600Y-15582900D02*
X21183600Y-14897100D01*
X21628100Y-15786100D02*
G75*
G02X21602700Y-15811500I-25400J0D01*
G01*
X21602700Y-15811500D02*
X21501100Y-15811500D01*
X21590000Y-15582900D02*
G75*
G02X21501100Y-15750910I-203200J-5D01*
G01*
X21501090Y-14729100D02*
G75*
G02X21590000Y-14897100I-114290J-168012D01*
G01*
X21602700Y-14668500D02*
X21501100Y-14668500D01*
X21602700Y-14668500D02*
G75*
G02X21628100Y-14693900I0J-25400D01*
G01*
X21628100Y-14693900D02*
X21628100Y-15786100D01*
X21590000Y-14897100D02*
X21590000Y-15582900D01*
X21272500Y-14668500D02*
X21170900Y-14668500D01*
X21272500Y-14729090D02*
G75*
G03X21183600Y-14897100I114300J-168005D01*
G01*
X21272500Y-15811500D02*
X21170900Y-15811500D01*
X21183590Y-15582900D02*
G75*
G03X21272500Y-15750910I203210J7D01*
G01*
D11*
G04 #@! TO.C,Z1*
X5284800Y-12704000D02*
X5484800Y-12704000D01*
X5284800Y-12714000D02*
X5484800Y-12714000D01*
X5284800Y-12724000D02*
X5484800Y-12724000D01*
X5284800Y-12734000D02*
X5484800Y-12734000D01*
X5284800Y-12744000D02*
X5484800Y-12744000D01*
X5484800Y-12298000D02*
X5484800Y-12744000D01*
X5284800Y-12298000D02*
X5484800Y-12298000D01*
X5284800Y-12744000D02*
X5284800Y-12298000D01*
G04 #@! TO.C,Z2*
X5284800Y-8030400D02*
X5484800Y-8030400D01*
X5284800Y-8040400D02*
X5484800Y-8040400D01*
X5284800Y-8050400D02*
X5484800Y-8050400D01*
X5284800Y-8060400D02*
X5484800Y-8060400D01*
X5284800Y-8070400D02*
X5484800Y-8070400D01*
X5484800Y-7624400D02*
X5484800Y-8070400D01*
X5284800Y-7624400D02*
X5484800Y-7624400D01*
X5284800Y-8070400D02*
X5284800Y-7624400D01*
G04 #@! TO.C,Z3*
X10206800Y-3151200D02*
X10206800Y-3351200D01*
X10196800Y-3151200D02*
X10196800Y-3351200D01*
X10186800Y-3151200D02*
X10186800Y-3351200D01*
X10176800Y-3151200D02*
X10176800Y-3351200D01*
X10166800Y-3151200D02*
X10166800Y-3351200D01*
X10612800Y-3351200D02*
X10166800Y-3351200D01*
X10612800Y-3151200D02*
X10612800Y-3351200D01*
X10166800Y-3151200D02*
X10612800Y-3151200D01*
G04 #@! TO.C,Z4*
X14778800Y-3151200D02*
X14778800Y-3351200D01*
X14768800Y-3151200D02*
X14768800Y-3351200D01*
X14758800Y-3151200D02*
X14758800Y-3351200D01*
X14748800Y-3151200D02*
X14748800Y-3351200D01*
X14738800Y-3151200D02*
X14738800Y-3351200D01*
X15184800Y-3351200D02*
X14738800Y-3351200D01*
X15184800Y-3151200D02*
X15184800Y-3351200D01*
X14738800Y-3151200D02*
X15184800Y-3151200D01*
G04 #@! TO.C,Z5*
X19300000Y-3151200D02*
X19300000Y-3351200D01*
X19290000Y-3151200D02*
X19290000Y-3351200D01*
X19280000Y-3151200D02*
X19280000Y-3351200D01*
X19270000Y-3151200D02*
X19270000Y-3351200D01*
X19260000Y-3151200D02*
X19260000Y-3351200D01*
X19706000Y-3351200D02*
X19260000Y-3351200D01*
X19706000Y-3151200D02*
X19706000Y-3351200D01*
X19260000Y-3151200D02*
X19706000Y-3151200D01*
G04 #@! TO.C,Z6*
X5284800Y-14634400D02*
X5484800Y-14634400D01*
X5284800Y-14644400D02*
X5484800Y-14644400D01*
X5284800Y-14654400D02*
X5484800Y-14654400D01*
X5284800Y-14664400D02*
X5484800Y-14664400D01*
X5284800Y-14674400D02*
X5484800Y-14674400D01*
X5484800Y-14228400D02*
X5484800Y-14674400D01*
X5284800Y-14228400D02*
X5484800Y-14228400D01*
X5284800Y-14674400D02*
X5284800Y-14228400D01*
G04 #@! TO.C,Z7*
X5284800Y-10011600D02*
X5484800Y-10011600D01*
X5284800Y-10021600D02*
X5484800Y-10021600D01*
X5284800Y-10031600D02*
X5484800Y-10031600D01*
X5284800Y-10041600D02*
X5484800Y-10041600D01*
X5284800Y-10051600D02*
X5484800Y-10051600D01*
X5484800Y-9605600D02*
X5484800Y-10051600D01*
X5284800Y-9605600D02*
X5484800Y-9605600D01*
X5284800Y-10051600D02*
X5284800Y-9605600D01*
G04 #@! TO.C,Z8*
X8174800Y-3151200D02*
X8174800Y-3351200D01*
X8164800Y-3151200D02*
X8164800Y-3351200D01*
X8154800Y-3151200D02*
X8154800Y-3351200D01*
X8144800Y-3151200D02*
X8144800Y-3351200D01*
X8134800Y-3151200D02*
X8134800Y-3351200D01*
X8580800Y-3351200D02*
X8134800Y-3351200D01*
X8580800Y-3151200D02*
X8580800Y-3351200D01*
X8134800Y-3151200D02*
X8580800Y-3151200D01*
G04 #@! TO.C,Z9*
X12797600Y-3151200D02*
X12797600Y-3351200D01*
X12787600Y-3151200D02*
X12787600Y-3351200D01*
X12777600Y-3151200D02*
X12777600Y-3351200D01*
X12767600Y-3151200D02*
X12767600Y-3351200D01*
X12757600Y-3151200D02*
X12757600Y-3351200D01*
X13203600Y-3351200D02*
X12757600Y-3351200D01*
X13203600Y-3151200D02*
X13203600Y-3351200D01*
X12757600Y-3151200D02*
X13203600Y-3151200D01*
G04 #@! TO.C,Z10*
X17318800Y-3151200D02*
X17318800Y-3351200D01*
X17308800Y-3151200D02*
X17308800Y-3351200D01*
X17298800Y-3151200D02*
X17298800Y-3351200D01*
X17288800Y-3151200D02*
X17288800Y-3351200D01*
X17278800Y-3151200D02*
X17278800Y-3351200D01*
X17724800Y-3351200D02*
X17278800Y-3351200D01*
X17724800Y-3151200D02*
X17724800Y-3351200D01*
X17278800Y-3151200D02*
X17724800Y-3151200D01*
G04 #@! TO.C,U15*
X24386000Y-11732800D02*
X24336000Y-11732800D01*
X24386000Y-11732800D02*
X24386000Y-11782800D01*
X23366000Y-11732800D02*
X23416000Y-11732800D01*
X23366000Y-11732800D02*
X23366000Y-11782800D01*
X24386000Y-12752800D02*
X24386000Y-12702800D01*
X24386000Y-12752800D02*
X24336000Y-12752800D01*
X23476000Y-12752800D02*
X23476000Y-12852800D01*
X23426000Y-12752800D02*
X23476000Y-12752800D01*
X23366000Y-12692800D02*
X23426000Y-12752800D01*
X23366000Y-12662800D02*
X23366000Y-12692800D01*
G04 #@! TO.C,RLY4*
X15772700Y-5817500D02*
X15710200Y-5817500D01*
X15772700Y-5735000D02*
X15772700Y-5817500D01*
X14097700Y-5817500D02*
X14097700Y-5732500D01*
X14167700Y-5817500D02*
X14097700Y-5817500D01*
X14097700Y-3542500D02*
X14175200Y-3542500D01*
X14097700Y-3655000D02*
X14097700Y-3542500D01*
X15715200Y-3542500D02*
X15577700Y-3542500D01*
X15772700Y-3602500D02*
X15715200Y-3542500D01*
X15772700Y-3625000D02*
X15772700Y-3602500D01*
G04 #@! TO.C,RLY5*
X20344700Y-5817500D02*
X20282200Y-5817500D01*
X20344700Y-5735000D02*
X20344700Y-5817500D01*
X18669700Y-5817500D02*
X18669700Y-5732500D01*
X18739700Y-5817500D02*
X18669700Y-5817500D01*
X18669700Y-3542500D02*
X18747200Y-3542500D01*
X18669700Y-3655000D02*
X18669700Y-3542500D01*
X20287200Y-3542500D02*
X20149700Y-3542500D01*
X20344700Y-3602500D02*
X20287200Y-3542500D01*
X20344700Y-3625000D02*
X20344700Y-3602500D01*
G04 #@! TO.C,RLY6*
X7951100Y-13589700D02*
X7951100Y-13652200D01*
X7868600Y-13589700D02*
X7951100Y-13589700D01*
X7951100Y-15264700D02*
X7866100Y-15264700D01*
X7951100Y-15194700D02*
X7951100Y-15264700D01*
X5676100Y-15264700D02*
X5676100Y-15187200D01*
X5788600Y-15264700D02*
X5676100Y-15264700D01*
X5676100Y-13647200D02*
X5676100Y-13784700D01*
X5736100Y-13589700D02*
X5676100Y-13647200D01*
X5758600Y-13589700D02*
X5736100Y-13589700D01*
G04 #@! TO.C,RLY3*
X11200700Y-5817500D02*
X11138200Y-5817500D01*
X11200700Y-5735000D02*
X11200700Y-5817500D01*
X9525700Y-5817500D02*
X9525700Y-5732500D01*
X9595700Y-5817500D02*
X9525700Y-5817500D01*
X9525700Y-3542500D02*
X9603200Y-3542500D01*
X9525700Y-3655000D02*
X9525700Y-3542500D01*
X11143200Y-3542500D02*
X11005700Y-3542500D01*
X11200700Y-3602500D02*
X11143200Y-3542500D01*
X11200700Y-3625000D02*
X11200700Y-3602500D01*
G04 #@! TO.C,RLY1*
X7951100Y-11608500D02*
X7951100Y-11671000D01*
X7868600Y-11608500D02*
X7951100Y-11608500D01*
X7951100Y-13283500D02*
X7866100Y-13283500D01*
X7951100Y-13213500D02*
X7951100Y-13283500D01*
X5676100Y-13283500D02*
X5676100Y-13206000D01*
X5788600Y-13283500D02*
X5676100Y-13283500D01*
X5676100Y-11666000D02*
X5676100Y-11803500D01*
X5736100Y-11608500D02*
X5676100Y-11666000D01*
X5758600Y-11608500D02*
X5736100Y-11608500D01*
G04 #@! TO.C,RLY7*
X7951100Y-8966900D02*
X7951100Y-9029400D01*
X7868600Y-8966900D02*
X7951100Y-8966900D01*
X7951100Y-10641900D02*
X7866100Y-10641900D01*
X7951100Y-10571900D02*
X7951100Y-10641900D01*
X5676100Y-10641900D02*
X5676100Y-10564400D01*
X5788600Y-10641900D02*
X5676100Y-10641900D01*
X5676100Y-9024400D02*
X5676100Y-9161900D01*
X5736100Y-8966900D02*
X5676100Y-9024400D01*
X5758600Y-8966900D02*
X5736100Y-8966900D01*
G04 #@! TO.C,RLY8*
X9168700Y-5817500D02*
X9106200Y-5817500D01*
X9168700Y-5735000D02*
X9168700Y-5817500D01*
X7493700Y-5817500D02*
X7493700Y-5732500D01*
X7563700Y-5817500D02*
X7493700Y-5817500D01*
X7493700Y-3542500D02*
X7571200Y-3542500D01*
X7493700Y-3655000D02*
X7493700Y-3542500D01*
X9111200Y-3542500D02*
X8973700Y-3542500D01*
X9168700Y-3602500D02*
X9111200Y-3542500D01*
X9168700Y-3625000D02*
X9168700Y-3602500D01*
G04 #@! TO.C,RLY9*
X13791500Y-5817500D02*
X13729000Y-5817500D01*
X13791500Y-5735000D02*
X13791500Y-5817500D01*
X12116500Y-5817500D02*
X12116500Y-5732500D01*
X12186500Y-5817500D02*
X12116500Y-5817500D01*
X12116500Y-3542500D02*
X12194000Y-3542500D01*
X12116500Y-3655000D02*
X12116500Y-3542500D01*
X13734000Y-3542500D02*
X13596500Y-3542500D01*
X13791500Y-3602500D02*
X13734000Y-3542500D01*
X13791500Y-3625000D02*
X13791500Y-3602500D01*
G04 #@! TO.C,RLY10*
X18363500Y-5817500D02*
X18301000Y-5817500D01*
X18363500Y-5735000D02*
X18363500Y-5817500D01*
X16688500Y-5817500D02*
X16688500Y-5732500D01*
X16758500Y-5817500D02*
X16688500Y-5817500D01*
X16688500Y-3542500D02*
X16766000Y-3542500D01*
X16688500Y-3655000D02*
X16688500Y-3542500D01*
X18306000Y-3542500D02*
X18168500Y-3542500D01*
X18363500Y-3602500D02*
X18306000Y-3542500D01*
X18363500Y-3625000D02*
X18363500Y-3602500D01*
G04 #@! TO.C,RLY2*
X7951100Y-6934900D02*
X7951100Y-6997400D01*
X7868600Y-6934900D02*
X7951100Y-6934900D01*
X7951100Y-8609900D02*
X7866100Y-8609900D01*
X7951100Y-8539900D02*
X7951100Y-8609900D01*
X5676100Y-8609900D02*
X5676100Y-8532400D01*
X5788600Y-8609900D02*
X5676100Y-8609900D01*
X5676100Y-6992400D02*
X5676100Y-7129900D01*
X5736100Y-6934900D02*
X5676100Y-6992400D01*
X5758600Y-6934900D02*
X5736100Y-6934900D01*
G04 #@! TO.C,U16*
X12496000Y-6967000D02*
X12496000Y-6997000D01*
X12936000Y-6967000D02*
X12996000Y-6967000D01*
X12936000Y-6997000D02*
X12936000Y-6967000D01*
X12896000Y-6997000D02*
X12936000Y-6997000D01*
X12936000Y-5957000D02*
X12906000Y-5957000D01*
X12936000Y-5987000D02*
X12936000Y-5957000D01*
X12496000Y-6997000D02*
X12526000Y-6997000D01*
X12496000Y-5957000D02*
X12496000Y-5987000D01*
X12496000Y-5957000D02*
X12526000Y-5957000D01*
G04 #@! TO.C,Q2*
X5773200Y-5757200D02*
X5803200Y-5757200D01*
X5773200Y-5317200D02*
X5773200Y-5257200D01*
X5803200Y-5317200D02*
X5773200Y-5317200D01*
X5803200Y-5357200D02*
X5803200Y-5317200D01*
X4763200Y-5317200D02*
X4763200Y-5347200D01*
X4793200Y-5317200D02*
X4763200Y-5317200D01*
X5803200Y-5757200D02*
X5803200Y-5727200D01*
X4763200Y-5757200D02*
X4793200Y-5757200D01*
X4763200Y-5757200D02*
X4763200Y-5727200D01*
G04 #@! TO.C,U2*
X18703000Y-6967000D02*
X18703000Y-6997000D01*
X19143000Y-6967000D02*
X19203000Y-6967000D01*
X19143000Y-6997000D02*
X19143000Y-6967000D01*
X19103000Y-6997000D02*
X19143000Y-6997000D01*
X19143000Y-5957000D02*
X19113000Y-5957000D01*
X19143000Y-5987000D02*
X19143000Y-5957000D01*
X18703000Y-6997000D02*
X18733000Y-6997000D01*
X18703000Y-5957000D02*
X18703000Y-5987000D01*
X18703000Y-5957000D02*
X18733000Y-5957000D01*
G04 #@! TO.C,U1*
X12095700Y-10092400D02*
X12065700Y-10092400D01*
X12095700Y-10532400D02*
X12095700Y-10592400D01*
X12065700Y-10532400D02*
X12095700Y-10532400D01*
X12065700Y-10492400D02*
X12065700Y-10532400D01*
X13105700Y-10532400D02*
X13105700Y-10502400D01*
X13075700Y-10532400D02*
X13105700Y-10532400D01*
X12065700Y-10092400D02*
X12065700Y-10122400D01*
X13105700Y-10092400D02*
X13075700Y-10092400D01*
X13105700Y-10092400D02*
X13105700Y-10122400D01*
G04 #@! TO.C,U6*
X26098600Y-3503600D02*
X26098600Y-3468600D01*
X26133600Y-3503600D02*
X26098600Y-3503600D01*
X26098600Y-3303600D02*
X26133600Y-3303600D01*
X26098600Y-3338600D02*
X26098600Y-3303600D01*
X26428600Y-3503600D02*
X26428600Y-3468600D01*
X26393600Y-3503600D02*
X26428600Y-3503600D01*
X26393600Y-3298600D02*
X26428600Y-3343600D01*
X26393600Y-3238600D02*
X26393600Y-3298600D01*
G04 #@! TO.C,S1*
X8854440Y-12667600D02*
X8854440Y-13134340D01*
X8630920Y-12567920D02*
X8420100Y-12567920D01*
X8629820Y-13178520D02*
X8420300Y-13178520D01*
X8194040Y-13136880D02*
X8195020Y-12607600D01*
X8630260Y-12567920D02*
X8630260Y-12542920D01*
G04 #@! TO.C,S3*
X23243400Y-3612800D02*
X23208400Y-3612800D01*
X23243400Y-3612800D02*
X23243400Y-3562800D01*
X22273400Y-3612800D02*
X22308400Y-3612800D01*
X22273400Y-3612800D02*
X22273400Y-3562800D01*
X22273400Y-3092800D02*
X22273400Y-3142800D01*
X22273400Y-3092800D02*
X22308400Y-3092800D01*
X23243400Y-3092800D02*
X23208400Y-3092800D01*
X23243400Y-3092800D02*
X23243400Y-3142800D01*
G04 #@! TO.C,S2*
X25478600Y-3612800D02*
X25443600Y-3612800D01*
X25478600Y-3612800D02*
X25478600Y-3562800D01*
X24508600Y-3612800D02*
X24543600Y-3612800D01*
X24508600Y-3612800D02*
X24508600Y-3562800D01*
X24508600Y-3092800D02*
X24508600Y-3142800D01*
X24508600Y-3092800D02*
X24543600Y-3092800D01*
X25478600Y-3092800D02*
X25443600Y-3092800D01*
X25478600Y-3092800D02*
X25478600Y-3142800D01*
G04 #@! TO.C,U17*
X13836700Y-9212600D02*
X13851700Y-9242600D01*
X13806700Y-9212600D02*
X13836700Y-9212600D01*
X13366700Y-9212600D02*
X13396700Y-9212600D01*
X13366700Y-9212600D02*
X13351700Y-9242600D01*
D13*
X13406700Y-9527600D02*
G75*
G03X13791700Y-9532600I195000J190000D01*
G01*
D11*
G04 #@! TO.C,J16*
X24042000Y-16584800D02*
X23982000Y-16584800D01*
X24042000Y-16584800D02*
X24042000Y-16644800D01*
X23102000Y-16584800D02*
X23162000Y-16584800D01*
X23102000Y-16584800D02*
X23102000Y-16644800D01*
X23102000Y-17784800D02*
X23102000Y-17724800D01*
X23102000Y-17784800D02*
X23162000Y-17784800D01*
X24042000Y-17784800D02*
X23982000Y-17784800D01*
X24042000Y-17784800D02*
X24042000Y-17724800D01*
X24042000Y-17054800D02*
X24042000Y-17354800D01*
X23102000Y-17054800D02*
X23102000Y-17354800D01*
G04 #@! TO.C,J12*
D13*
X9939348Y-8800638D02*
X9939348Y-8872067D01*
X9934586Y-8886352D01*
X9925062Y-8895876D01*
X9910776Y-8900638D01*
X9901252Y-8900638D01*
X10039348Y-8900638D02*
X9982205Y-8900638D01*
X10010776Y-8900638D02*
X10010776Y-8800638D01*
X10001252Y-8814924D01*
X9991729Y-8824448D01*
X9982205Y-8829210D01*
X10077443Y-8810162D02*
X10082205Y-8805400D01*
X10091729Y-8800638D01*
X10115538Y-8800638D01*
X10125062Y-8805400D01*
X10129824Y-8810162D01*
X10134586Y-8819686D01*
X10134586Y-8829210D01*
X10129824Y-8843495D01*
X10072681Y-8900638D01*
X10134586Y-8900638D01*
G04 #@! TO.C,C5*
D12*
X9028114Y-10080048D02*
X9032876Y-10084810D01*
X9037638Y-10099095D01*
X9037638Y-10108619D01*
X9032876Y-10122905D01*
X9023352Y-10132429D01*
X9013829Y-10137190D01*
X8994781Y-10141952D01*
X8980495Y-10141952D01*
X8961448Y-10137190D01*
X8951924Y-10132429D01*
X8942400Y-10122905D01*
X8937638Y-10108619D01*
X8937638Y-10099095D01*
X8942400Y-10084810D01*
X8947162Y-10080048D01*
X8937638Y-9989571D02*
X8937638Y-10037190D01*
X8985257Y-10041952D01*
X8980495Y-10037190D01*
X8975733Y-10027667D01*
X8975733Y-10003857D01*
X8980495Y-9994333D01*
X8985257Y-9989571D01*
X8994781Y-9984810D01*
X9018590Y-9984810D01*
X9028114Y-9989571D01*
X9032876Y-9994333D01*
X9037638Y-10003857D01*
X9037638Y-10027667D01*
X9032876Y-10037190D01*
X9028114Y-10041952D01*
G04 #@! TO.C,U14*
D13*
X21670390Y-11426038D02*
X21670390Y-11506990D01*
X21675152Y-11516514D01*
X21679914Y-11521276D01*
X21689438Y-11526038D01*
X21708486Y-11526038D01*
X21718010Y-11521276D01*
X21722771Y-11516514D01*
X21727533Y-11506990D01*
X21727533Y-11426038D01*
X21827533Y-11526038D02*
X21770390Y-11526038D01*
X21798962Y-11526038D02*
X21798962Y-11426038D01*
X21789438Y-11440324D01*
X21779914Y-11449848D01*
X21770390Y-11454609D01*
X21913248Y-11459371D02*
X21913248Y-11526038D01*
X21889438Y-11421276D02*
X21865629Y-11492705D01*
X21927533Y-11492705D01*
G04 #@! TO.C,U18*
X19689190Y-11426038D02*
X19689190Y-11506990D01*
X19693952Y-11516514D01*
X19698714Y-11521276D01*
X19708238Y-11526038D01*
X19727286Y-11526038D01*
X19736810Y-11521276D01*
X19741571Y-11516514D01*
X19746333Y-11506990D01*
X19746333Y-11426038D01*
X19846333Y-11526038D02*
X19789190Y-11526038D01*
X19817762Y-11526038D02*
X19817762Y-11426038D01*
X19808238Y-11440324D01*
X19798714Y-11449848D01*
X19789190Y-11454609D01*
X19903476Y-11468895D02*
X19893952Y-11464133D01*
X19889190Y-11459371D01*
X19884429Y-11449848D01*
X19884429Y-11445086D01*
X19889190Y-11435562D01*
X19893952Y-11430800D01*
X19903476Y-11426038D01*
X19922524Y-11426038D01*
X19932048Y-11430800D01*
X19936810Y-11435562D01*
X19941571Y-11445086D01*
X19941571Y-11449848D01*
X19936810Y-11459371D01*
X19932048Y-11464133D01*
X19922524Y-11468895D01*
X19903476Y-11468895D01*
X19893952Y-11473657D01*
X19889190Y-11478419D01*
X19884429Y-11487943D01*
X19884429Y-11506990D01*
X19889190Y-11516514D01*
X19893952Y-11521276D01*
X19903476Y-11526038D01*
X19922524Y-11526038D01*
X19932048Y-11521276D01*
X19936810Y-11516514D01*
X19941571Y-11506990D01*
X19941571Y-11487943D01*
X19936810Y-11478419D01*
X19932048Y-11473657D01*
X19922524Y-11468895D01*
G04 #@! TO.C,U35*
X18443590Y-10937438D02*
X18443590Y-11018390D01*
X18448352Y-11027914D01*
X18453114Y-11032676D01*
X18462638Y-11037438D01*
X18481686Y-11037438D01*
X18491210Y-11032676D01*
X18495971Y-11027914D01*
X18500733Y-11018390D01*
X18500733Y-10937438D01*
X18538829Y-10937438D02*
X18600733Y-10937438D01*
X18567400Y-10975533D01*
X18581686Y-10975533D01*
X18591210Y-10980295D01*
X18595971Y-10985057D01*
X18600733Y-10994581D01*
X18600733Y-11018390D01*
X18595971Y-11027914D01*
X18591210Y-11032676D01*
X18581686Y-11037438D01*
X18553114Y-11037438D01*
X18543590Y-11032676D01*
X18538829Y-11027914D01*
X18691210Y-10937438D02*
X18643590Y-10937438D01*
X18638829Y-10985057D01*
X18643590Y-10980295D01*
X18653114Y-10975533D01*
X18676924Y-10975533D01*
X18686448Y-10980295D01*
X18691210Y-10985057D01*
X18695971Y-10994581D01*
X18695971Y-11018390D01*
X18691210Y-11027914D01*
X18686448Y-11032676D01*
X18676924Y-11037438D01*
X18653114Y-11037438D01*
X18643590Y-11032676D01*
X18638829Y-11027914D01*
G04 #@! TO.C,J14*
X26397638Y-5846852D02*
X26469067Y-5846852D01*
X26483352Y-5851614D01*
X26492876Y-5861138D01*
X26497638Y-5875424D01*
X26497638Y-5884948D01*
X26497638Y-5746852D02*
X26497638Y-5803995D01*
X26497638Y-5775424D02*
X26397638Y-5775424D01*
X26411924Y-5784948D01*
X26421448Y-5794471D01*
X26426209Y-5803995D01*
X26430971Y-5661138D02*
X26497638Y-5661138D01*
X26392876Y-5684948D02*
X26464305Y-5708757D01*
X26464305Y-5646852D01*
G04 #@! TO.C,U4*
X17354560Y-16362338D02*
X17354560Y-16443290D01*
X17359321Y-16452814D01*
X17364083Y-16457576D01*
X17373607Y-16462338D01*
X17392655Y-16462338D01*
X17402179Y-16457576D01*
X17406940Y-16452814D01*
X17411702Y-16443290D01*
X17411702Y-16362338D01*
X17502179Y-16395671D02*
X17502179Y-16462338D01*
X17478369Y-16357576D02*
X17454560Y-16429005D01*
X17516464Y-16429005D01*
G04 #@! TO.C,U5*
X18859510Y-16101988D02*
X18859510Y-16182940D01*
X18864271Y-16192464D01*
X18869033Y-16197226D01*
X18878557Y-16201988D01*
X18897605Y-16201988D01*
X18907129Y-16197226D01*
X18911890Y-16192464D01*
X18916652Y-16182940D01*
X18916652Y-16101988D01*
X19011890Y-16101988D02*
X18964271Y-16101988D01*
X18959510Y-16149607D01*
X18964271Y-16144845D01*
X18973795Y-16140083D01*
X18997605Y-16140083D01*
X19007129Y-16144845D01*
X19011890Y-16149607D01*
X19016652Y-16159131D01*
X19016652Y-16182940D01*
X19011890Y-16192464D01*
X19007129Y-16197226D01*
X18997605Y-16201988D01*
X18973795Y-16201988D01*
X18964271Y-16197226D01*
X18959510Y-16192464D01*
G04 #@! TO.C,C11*
X18979364Y-15711864D02*
X18974602Y-15716626D01*
X18960317Y-15721388D01*
X18950793Y-15721388D01*
X18936507Y-15716626D01*
X18926983Y-15707102D01*
X18922221Y-15697578D01*
X18917460Y-15678531D01*
X18917460Y-15664245D01*
X18922221Y-15645198D01*
X18926983Y-15635674D01*
X18936507Y-15626150D01*
X18950793Y-15621388D01*
X18960317Y-15621388D01*
X18974602Y-15626150D01*
X18979364Y-15630912D01*
X19074602Y-15721388D02*
X19017460Y-15721388D01*
X19046031Y-15721388D02*
X19046031Y-15621388D01*
X19036507Y-15635674D01*
X19026983Y-15645198D01*
X19017460Y-15649959D01*
X19169840Y-15721388D02*
X19112698Y-15721388D01*
X19141269Y-15721388D02*
X19141269Y-15621388D01*
X19131745Y-15635674D01*
X19122221Y-15645198D01*
X19112698Y-15649959D01*
G04 #@! TO.C,C53*
X19722314Y-16072264D02*
X19717552Y-16077026D01*
X19703267Y-16081788D01*
X19693743Y-16081788D01*
X19679457Y-16077026D01*
X19669933Y-16067502D01*
X19665171Y-16057978D01*
X19660410Y-16038931D01*
X19660410Y-16024645D01*
X19665171Y-16005598D01*
X19669933Y-15996074D01*
X19679457Y-15986550D01*
X19693743Y-15981788D01*
X19703267Y-15981788D01*
X19717552Y-15986550D01*
X19722314Y-15991312D01*
X19812790Y-15981788D02*
X19765171Y-15981788D01*
X19760410Y-16029407D01*
X19765171Y-16024645D01*
X19774695Y-16019883D01*
X19798505Y-16019883D01*
X19808029Y-16024645D01*
X19812790Y-16029407D01*
X19817552Y-16038931D01*
X19817552Y-16062740D01*
X19812790Y-16072264D01*
X19808029Y-16077026D01*
X19798505Y-16081788D01*
X19774695Y-16081788D01*
X19765171Y-16077026D01*
X19760410Y-16072264D01*
X19850886Y-15981788D02*
X19912790Y-15981788D01*
X19879457Y-16019883D01*
X19893743Y-16019883D01*
X19903267Y-16024645D01*
X19908029Y-16029407D01*
X19912790Y-16038931D01*
X19912790Y-16062740D01*
X19908029Y-16072264D01*
X19903267Y-16077026D01*
X19893743Y-16081788D01*
X19865171Y-16081788D01*
X19855648Y-16077026D01*
X19850886Y-16072264D01*
G04 #@! TO.C,C17*
X17608014Y-15953164D02*
X17603252Y-15957926D01*
X17588967Y-15962688D01*
X17579443Y-15962688D01*
X17565157Y-15957926D01*
X17555633Y-15948402D01*
X17550871Y-15938878D01*
X17546110Y-15919831D01*
X17546110Y-15905545D01*
X17550871Y-15886498D01*
X17555633Y-15876974D01*
X17565157Y-15867450D01*
X17579443Y-15862688D01*
X17588967Y-15862688D01*
X17603252Y-15867450D01*
X17608014Y-15872212D01*
X17703252Y-15962688D02*
X17646110Y-15962688D01*
X17674681Y-15962688D02*
X17674681Y-15862688D01*
X17665157Y-15876974D01*
X17655633Y-15886498D01*
X17646110Y-15891259D01*
X17736586Y-15862688D02*
X17803252Y-15862688D01*
X17760395Y-15962688D01*
G04 #@! TO.C,C50*
X17404564Y-16638964D02*
X17399802Y-16643726D01*
X17385517Y-16648488D01*
X17375993Y-16648488D01*
X17361707Y-16643726D01*
X17352183Y-16634202D01*
X17347421Y-16624678D01*
X17342660Y-16605631D01*
X17342660Y-16591345D01*
X17347421Y-16572298D01*
X17352183Y-16562774D01*
X17361707Y-16553250D01*
X17375993Y-16548488D01*
X17385517Y-16548488D01*
X17399802Y-16553250D01*
X17404564Y-16558012D01*
X17495040Y-16548488D02*
X17447421Y-16548488D01*
X17442660Y-16596107D01*
X17447421Y-16591345D01*
X17456945Y-16586583D01*
X17480755Y-16586583D01*
X17490279Y-16591345D01*
X17495040Y-16596107D01*
X17499802Y-16605631D01*
X17499802Y-16629440D01*
X17495040Y-16638964D01*
X17490279Y-16643726D01*
X17480755Y-16648488D01*
X17456945Y-16648488D01*
X17447421Y-16643726D01*
X17442660Y-16638964D01*
X17561707Y-16548488D02*
X17571231Y-16548488D01*
X17580755Y-16553250D01*
X17585517Y-16558012D01*
X17590279Y-16567536D01*
X17595040Y-16586583D01*
X17595040Y-16610393D01*
X17590279Y-16629440D01*
X17585517Y-16638964D01*
X17580755Y-16643726D01*
X17571231Y-16648488D01*
X17561707Y-16648488D01*
X17552183Y-16643726D01*
X17547421Y-16638964D01*
X17542660Y-16629440D01*
X17537898Y-16610393D01*
X17537898Y-16586583D01*
X17542660Y-16567536D01*
X17547421Y-16558012D01*
X17552183Y-16553250D01*
X17561707Y-16548488D01*
G04 #@! TO.C,C52*
X18884114Y-16416714D02*
X18879352Y-16421476D01*
X18865067Y-16426238D01*
X18855543Y-16426238D01*
X18841257Y-16421476D01*
X18831733Y-16411952D01*
X18826971Y-16402428D01*
X18822210Y-16383381D01*
X18822210Y-16369095D01*
X18826971Y-16350048D01*
X18831733Y-16340524D01*
X18841257Y-16331000D01*
X18855543Y-16326238D01*
X18865067Y-16326238D01*
X18879352Y-16331000D01*
X18884114Y-16335762D01*
X18974590Y-16326238D02*
X18926971Y-16326238D01*
X18922210Y-16373857D01*
X18926971Y-16369095D01*
X18936495Y-16364333D01*
X18960305Y-16364333D01*
X18969829Y-16369095D01*
X18974590Y-16373857D01*
X18979352Y-16383381D01*
X18979352Y-16407190D01*
X18974590Y-16416714D01*
X18969829Y-16421476D01*
X18960305Y-16426238D01*
X18936495Y-16426238D01*
X18926971Y-16421476D01*
X18922210Y-16416714D01*
X19017448Y-16335762D02*
X19022210Y-16331000D01*
X19031733Y-16326238D01*
X19055543Y-16326238D01*
X19065067Y-16331000D01*
X19069829Y-16335762D01*
X19074590Y-16345286D01*
X19074590Y-16354809D01*
X19069829Y-16369095D01*
X19012686Y-16426238D01*
X19074590Y-16426238D01*
G04 #@! TO.C,C7*
X19481733Y-16771514D02*
X19476971Y-16776276D01*
X19462686Y-16781038D01*
X19453162Y-16781038D01*
X19438876Y-16776276D01*
X19429352Y-16766752D01*
X19424590Y-16757228D01*
X19419829Y-16738181D01*
X19419829Y-16723895D01*
X19424590Y-16704848D01*
X19429352Y-16695324D01*
X19438876Y-16685800D01*
X19453162Y-16681038D01*
X19462686Y-16681038D01*
X19476971Y-16685800D01*
X19481733Y-16690562D01*
X19515067Y-16681038D02*
X19581733Y-16681038D01*
X19538876Y-16781038D01*
G04 #@! TO.C,C14*
X18600314Y-16231386D02*
X18605076Y-16236148D01*
X18609838Y-16250433D01*
X18609838Y-16259957D01*
X18605076Y-16274243D01*
X18595552Y-16283767D01*
X18586029Y-16288528D01*
X18566981Y-16293290D01*
X18552695Y-16293290D01*
X18533648Y-16288528D01*
X18524124Y-16283767D01*
X18514600Y-16274243D01*
X18509838Y-16259957D01*
X18509838Y-16250433D01*
X18514600Y-16236148D01*
X18519362Y-16231386D01*
X18609838Y-16136148D02*
X18609838Y-16193290D01*
X18609838Y-16164719D02*
X18509838Y-16164719D01*
X18524124Y-16174243D01*
X18533648Y-16183767D01*
X18538410Y-16193290D01*
X18543171Y-16050433D02*
X18609838Y-16050433D01*
X18505076Y-16074243D02*
X18576505Y-16098052D01*
X18576505Y-16036148D01*
G04 #@! TO.C,R66*
X18268164Y-15916588D02*
X18234831Y-15868969D01*
X18211021Y-15916588D02*
X18211021Y-15816588D01*
X18249117Y-15816588D01*
X18258640Y-15821350D01*
X18263402Y-15826112D01*
X18268164Y-15835636D01*
X18268164Y-15849921D01*
X18263402Y-15859445D01*
X18258640Y-15864207D01*
X18249117Y-15868969D01*
X18211021Y-15868969D01*
X18353879Y-15816588D02*
X18334831Y-15816588D01*
X18325307Y-15821350D01*
X18320545Y-15826112D01*
X18311021Y-15840398D01*
X18306260Y-15859445D01*
X18306260Y-15897540D01*
X18311021Y-15907064D01*
X18315783Y-15911826D01*
X18325307Y-15916588D01*
X18344355Y-15916588D01*
X18353879Y-15911826D01*
X18358640Y-15907064D01*
X18363402Y-15897540D01*
X18363402Y-15873731D01*
X18358640Y-15864207D01*
X18353879Y-15859445D01*
X18344355Y-15854683D01*
X18325307Y-15854683D01*
X18315783Y-15859445D01*
X18311021Y-15864207D01*
X18306260Y-15873731D01*
X18449117Y-15816588D02*
X18430069Y-15816588D01*
X18420545Y-15821350D01*
X18415783Y-15826112D01*
X18406260Y-15840398D01*
X18401498Y-15859445D01*
X18401498Y-15897540D01*
X18406260Y-15907064D01*
X18411021Y-15911826D01*
X18420545Y-15916588D01*
X18439593Y-15916588D01*
X18449117Y-15911826D01*
X18453879Y-15907064D01*
X18458640Y-15897540D01*
X18458640Y-15873731D01*
X18453879Y-15864207D01*
X18449117Y-15859445D01*
X18439593Y-15854683D01*
X18420545Y-15854683D01*
X18411021Y-15859445D01*
X18406260Y-15864207D01*
X18401498Y-15873731D01*
G04 #@! TO.C,R65*
X18729638Y-15774186D02*
X18682019Y-15807519D01*
X18729638Y-15831328D02*
X18629638Y-15831328D01*
X18629638Y-15793233D01*
X18634400Y-15783709D01*
X18639162Y-15778948D01*
X18648686Y-15774186D01*
X18662971Y-15774186D01*
X18672495Y-15778948D01*
X18677257Y-15783709D01*
X18682019Y-15793233D01*
X18682019Y-15831328D01*
X18629638Y-15688471D02*
X18629638Y-15707519D01*
X18634400Y-15717043D01*
X18639162Y-15721805D01*
X18653448Y-15731328D01*
X18672495Y-15736090D01*
X18710590Y-15736090D01*
X18720114Y-15731328D01*
X18724876Y-15726567D01*
X18729638Y-15717043D01*
X18729638Y-15697995D01*
X18724876Y-15688471D01*
X18720114Y-15683709D01*
X18710590Y-15678948D01*
X18686781Y-15678948D01*
X18677257Y-15683709D01*
X18672495Y-15688471D01*
X18667733Y-15697995D01*
X18667733Y-15717043D01*
X18672495Y-15726567D01*
X18677257Y-15731328D01*
X18686781Y-15736090D01*
X18629638Y-15588471D02*
X18629638Y-15636090D01*
X18677257Y-15640852D01*
X18672495Y-15636090D01*
X18667733Y-15626567D01*
X18667733Y-15602757D01*
X18672495Y-15593233D01*
X18677257Y-15588471D01*
X18686781Y-15583709D01*
X18710590Y-15583709D01*
X18720114Y-15588471D01*
X18724876Y-15593233D01*
X18729638Y-15602757D01*
X18729638Y-15626567D01*
X18724876Y-15636090D01*
X18720114Y-15640852D01*
G04 #@! TO.C,R64*
X19345362Y-15566714D02*
X19392981Y-15533381D01*
X19345362Y-15509571D02*
X19445362Y-15509571D01*
X19445362Y-15547667D01*
X19440600Y-15557190D01*
X19435838Y-15561952D01*
X19426314Y-15566714D01*
X19412029Y-15566714D01*
X19402505Y-15561952D01*
X19397743Y-15557190D01*
X19392981Y-15547667D01*
X19392981Y-15509571D01*
X19445362Y-15652428D02*
X19445362Y-15633381D01*
X19440600Y-15623857D01*
X19435838Y-15619095D01*
X19421552Y-15609571D01*
X19402505Y-15604809D01*
X19364410Y-15604809D01*
X19354886Y-15609571D01*
X19350124Y-15614333D01*
X19345362Y-15623857D01*
X19345362Y-15642905D01*
X19350124Y-15652428D01*
X19354886Y-15657190D01*
X19364410Y-15661952D01*
X19388219Y-15661952D01*
X19397743Y-15657190D01*
X19402505Y-15652428D01*
X19407267Y-15642905D01*
X19407267Y-15623857D01*
X19402505Y-15614333D01*
X19397743Y-15609571D01*
X19388219Y-15604809D01*
X19412029Y-15747667D02*
X19345362Y-15747667D01*
X19450124Y-15723857D02*
X19378695Y-15700048D01*
X19378695Y-15761952D01*
G04 #@! TO.C,R60*
X17851364Y-15987388D02*
X17818031Y-15939769D01*
X17794221Y-15987388D02*
X17794221Y-15887388D01*
X17832317Y-15887388D01*
X17841840Y-15892150D01*
X17846602Y-15896912D01*
X17851364Y-15906436D01*
X17851364Y-15920721D01*
X17846602Y-15930245D01*
X17841840Y-15935007D01*
X17832317Y-15939769D01*
X17794221Y-15939769D01*
X17937079Y-15887388D02*
X17918031Y-15887388D01*
X17908507Y-15892150D01*
X17903745Y-15896912D01*
X17894221Y-15911198D01*
X17889460Y-15930245D01*
X17889460Y-15968340D01*
X17894221Y-15977864D01*
X17898983Y-15982626D01*
X17908507Y-15987388D01*
X17927555Y-15987388D01*
X17937079Y-15982626D01*
X17941840Y-15977864D01*
X17946602Y-15968340D01*
X17946602Y-15944531D01*
X17941840Y-15935007D01*
X17937079Y-15930245D01*
X17927555Y-15925483D01*
X17908507Y-15925483D01*
X17898983Y-15930245D01*
X17894221Y-15935007D01*
X17889460Y-15944531D01*
X18008507Y-15887388D02*
X18018031Y-15887388D01*
X18027555Y-15892150D01*
X18032317Y-15896912D01*
X18037079Y-15906436D01*
X18041840Y-15925483D01*
X18041840Y-15949293D01*
X18037079Y-15968340D01*
X18032317Y-15977864D01*
X18027555Y-15982626D01*
X18018031Y-15987388D01*
X18008507Y-15987388D01*
X17998983Y-15982626D01*
X17994221Y-15977864D01*
X17989460Y-15968340D01*
X17984698Y-15949293D01*
X17984698Y-15925483D01*
X17989460Y-15906436D01*
X17994221Y-15896912D01*
X17998983Y-15892150D01*
X18008507Y-15887388D01*
G04 #@! TO.C,R62*
X16932588Y-16256786D02*
X16884969Y-16290119D01*
X16932588Y-16313928D02*
X16832588Y-16313928D01*
X16832588Y-16275833D01*
X16837350Y-16266309D01*
X16842112Y-16261548D01*
X16851636Y-16256786D01*
X16865921Y-16256786D01*
X16875445Y-16261548D01*
X16880207Y-16266309D01*
X16884969Y-16275833D01*
X16884969Y-16313928D01*
X16832588Y-16171071D02*
X16832588Y-16190119D01*
X16837350Y-16199643D01*
X16842112Y-16204405D01*
X16856398Y-16213928D01*
X16875445Y-16218690D01*
X16913540Y-16218690D01*
X16923064Y-16213928D01*
X16927826Y-16209167D01*
X16932588Y-16199643D01*
X16932588Y-16180595D01*
X16927826Y-16171071D01*
X16923064Y-16166309D01*
X16913540Y-16161548D01*
X16889731Y-16161548D01*
X16880207Y-16166309D01*
X16875445Y-16171071D01*
X16870683Y-16180595D01*
X16870683Y-16199643D01*
X16875445Y-16209167D01*
X16880207Y-16213928D01*
X16889731Y-16218690D01*
X16842112Y-16123452D02*
X16837350Y-16118690D01*
X16832588Y-16109167D01*
X16832588Y-16085357D01*
X16837350Y-16075833D01*
X16842112Y-16071071D01*
X16851636Y-16066309D01*
X16861160Y-16066309D01*
X16875445Y-16071071D01*
X16932588Y-16128214D01*
X16932588Y-16066309D01*
G04 #@! TO.C,R61*
X16655264Y-15879438D02*
X16621931Y-15831819D01*
X16598121Y-15879438D02*
X16598121Y-15779438D01*
X16636217Y-15779438D01*
X16645740Y-15784200D01*
X16650502Y-15788962D01*
X16655264Y-15798486D01*
X16655264Y-15812771D01*
X16650502Y-15822295D01*
X16645740Y-15827057D01*
X16636217Y-15831819D01*
X16598121Y-15831819D01*
X16740978Y-15779438D02*
X16721931Y-15779438D01*
X16712407Y-15784200D01*
X16707645Y-15788962D01*
X16698121Y-15803248D01*
X16693359Y-15822295D01*
X16693359Y-15860390D01*
X16698121Y-15869914D01*
X16702883Y-15874676D01*
X16712407Y-15879438D01*
X16731455Y-15879438D01*
X16740978Y-15874676D01*
X16745740Y-15869914D01*
X16750502Y-15860390D01*
X16750502Y-15836581D01*
X16745740Y-15827057D01*
X16740978Y-15822295D01*
X16731455Y-15817533D01*
X16712407Y-15817533D01*
X16702883Y-15822295D01*
X16698121Y-15827057D01*
X16693359Y-15836581D01*
X16845740Y-15879438D02*
X16788598Y-15879438D01*
X16817169Y-15879438D02*
X16817169Y-15779438D01*
X16807645Y-15793724D01*
X16798121Y-15803248D01*
X16788598Y-15808009D01*
G04 #@! TO.C,L1*
X8790633Y-10300638D02*
X8743014Y-10300638D01*
X8743014Y-10200638D01*
X8876348Y-10300638D02*
X8819205Y-10300638D01*
X8847776Y-10300638D02*
X8847776Y-10200638D01*
X8838252Y-10214924D01*
X8828729Y-10224448D01*
X8819205Y-10229210D01*
G04 #@! TO.C,L8*
X18193388Y-16342517D02*
X18193388Y-16390136D01*
X18093388Y-16390136D01*
X18136245Y-16294898D02*
X18131483Y-16304421D01*
X18126721Y-16309183D01*
X18117198Y-16313945D01*
X18112436Y-16313945D01*
X18102912Y-16309183D01*
X18098150Y-16304421D01*
X18093388Y-16294898D01*
X18093388Y-16275850D01*
X18098150Y-16266326D01*
X18102912Y-16261564D01*
X18112436Y-16256802D01*
X18117198Y-16256802D01*
X18126721Y-16261564D01*
X18131483Y-16266326D01*
X18136245Y-16275850D01*
X18136245Y-16294898D01*
X18141007Y-16304421D01*
X18145769Y-16309183D01*
X18155293Y-16313945D01*
X18174340Y-16313945D01*
X18183864Y-16309183D01*
X18188626Y-16304421D01*
X18193388Y-16294898D01*
X18193388Y-16275850D01*
X18188626Y-16266326D01*
X18183864Y-16261564D01*
X18174340Y-16256802D01*
X18155293Y-16256802D01*
X18145769Y-16261564D01*
X18141007Y-16266326D01*
X18136245Y-16275850D01*
G04 #@! TO.C,L9*
X19660238Y-16094867D02*
X19660238Y-16142486D01*
X19560238Y-16142486D01*
X19660238Y-16056771D02*
X19660238Y-16037724D01*
X19655476Y-16028200D01*
X19650714Y-16023438D01*
X19636429Y-16013914D01*
X19617381Y-16009152D01*
X19579286Y-16009152D01*
X19569762Y-16013914D01*
X19565000Y-16018676D01*
X19560238Y-16028200D01*
X19560238Y-16047248D01*
X19565000Y-16056771D01*
X19569762Y-16061533D01*
X19579286Y-16066295D01*
X19603095Y-16066295D01*
X19612619Y-16061533D01*
X19617381Y-16056771D01*
X19622143Y-16047248D01*
X19622143Y-16028200D01*
X19617381Y-16018676D01*
X19612619Y-16013914D01*
X19603095Y-16009152D01*
G04 #@! TO.C,J19*
X4186248Y-11189438D02*
X4186248Y-11260867D01*
X4181486Y-11275152D01*
X4171962Y-11284676D01*
X4157676Y-11289438D01*
X4148152Y-11289438D01*
X4286248Y-11289438D02*
X4229105Y-11289438D01*
X4257676Y-11289438D02*
X4257676Y-11189438D01*
X4248152Y-11203724D01*
X4238629Y-11213248D01*
X4229105Y-11218009D01*
X4333867Y-11289438D02*
X4352914Y-11289438D01*
X4362438Y-11284676D01*
X4367200Y-11279914D01*
X4376724Y-11265628D01*
X4381486Y-11246581D01*
X4381486Y-11208486D01*
X4376724Y-11198962D01*
X4371962Y-11194200D01*
X4362438Y-11189438D01*
X4343390Y-11189438D01*
X4333867Y-11194200D01*
X4329105Y-11198962D01*
X4324343Y-11208486D01*
X4324343Y-11232295D01*
X4329105Y-11241819D01*
X4333867Y-11246581D01*
X4343390Y-11251343D01*
X4362438Y-11251343D01*
X4371962Y-11246581D01*
X4376724Y-11241819D01*
X4381486Y-11232295D01*
G04 #@! TO.C,U33*
X19942190Y-10937438D02*
X19942190Y-11018390D01*
X19946952Y-11027914D01*
X19951714Y-11032676D01*
X19961238Y-11037438D01*
X19980286Y-11037438D01*
X19989810Y-11032676D01*
X19994571Y-11027914D01*
X19999333Y-11018390D01*
X19999333Y-10937438D01*
X20037429Y-10937438D02*
X20099333Y-10937438D01*
X20066000Y-10975533D01*
X20080286Y-10975533D01*
X20089810Y-10980295D01*
X20094571Y-10985057D01*
X20099333Y-10994581D01*
X20099333Y-11018390D01*
X20094571Y-11027914D01*
X20089810Y-11032676D01*
X20080286Y-11037438D01*
X20051714Y-11037438D01*
X20042190Y-11032676D01*
X20037429Y-11027914D01*
X20132667Y-10937438D02*
X20194571Y-10937438D01*
X20161238Y-10975533D01*
X20175524Y-10975533D01*
X20185048Y-10980295D01*
X20189810Y-10985057D01*
X20194571Y-10994581D01*
X20194571Y-11018390D01*
X20189810Y-11027914D01*
X20185048Y-11032676D01*
X20175524Y-11037438D01*
X20146952Y-11037438D01*
X20137429Y-11032676D01*
X20132667Y-11027914D01*
G04 #@! TO.C,U36*
X23904590Y-10937438D02*
X23904590Y-11018390D01*
X23909352Y-11027914D01*
X23914114Y-11032676D01*
X23923638Y-11037438D01*
X23942686Y-11037438D01*
X23952209Y-11032676D01*
X23956971Y-11027914D01*
X23961733Y-11018390D01*
X23961733Y-10937438D01*
X23999828Y-10937438D02*
X24061733Y-10937438D01*
X24028400Y-10975533D01*
X24042686Y-10975533D01*
X24052209Y-10980295D01*
X24056971Y-10985057D01*
X24061733Y-10994581D01*
X24061733Y-11018390D01*
X24056971Y-11027914D01*
X24052209Y-11032676D01*
X24042686Y-11037438D01*
X24014114Y-11037438D01*
X24004590Y-11032676D01*
X23999828Y-11027914D01*
X24147448Y-10937438D02*
X24128400Y-10937438D01*
X24118876Y-10942200D01*
X24114114Y-10946962D01*
X24104590Y-10961248D01*
X24099828Y-10980295D01*
X24099828Y-11018390D01*
X24104590Y-11027914D01*
X24109352Y-11032676D01*
X24118876Y-11037438D01*
X24137924Y-11037438D01*
X24147448Y-11032676D01*
X24152209Y-11027914D01*
X24156971Y-11018390D01*
X24156971Y-10994581D01*
X24152209Y-10985057D01*
X24147448Y-10980295D01*
X24137924Y-10975533D01*
X24118876Y-10975533D01*
X24109352Y-10980295D01*
X24104590Y-10985057D01*
X24099828Y-10994581D01*
G04 #@! TO.C,U37*
X25225390Y-10937438D02*
X25225390Y-11018390D01*
X25230152Y-11027914D01*
X25234914Y-11032676D01*
X25244438Y-11037438D01*
X25263486Y-11037438D01*
X25273009Y-11032676D01*
X25277771Y-11027914D01*
X25282533Y-11018390D01*
X25282533Y-10937438D01*
X25320628Y-10937438D02*
X25382533Y-10937438D01*
X25349200Y-10975533D01*
X25363486Y-10975533D01*
X25373009Y-10980295D01*
X25377771Y-10985057D01*
X25382533Y-10994581D01*
X25382533Y-11018390D01*
X25377771Y-11027914D01*
X25373009Y-11032676D01*
X25363486Y-11037438D01*
X25334914Y-11037438D01*
X25325390Y-11032676D01*
X25320628Y-11027914D01*
X25415867Y-10937438D02*
X25482533Y-10937438D01*
X25439676Y-11037438D01*
G04 #@! TO.C,U32*
X15522590Y-12905238D02*
X15522590Y-12986190D01*
X15527352Y-12995714D01*
X15532114Y-13000476D01*
X15541638Y-13005238D01*
X15560686Y-13005238D01*
X15570209Y-13000476D01*
X15574971Y-12995714D01*
X15579733Y-12986190D01*
X15579733Y-12905238D01*
X15617828Y-12905238D02*
X15679733Y-12905238D01*
X15646400Y-12943333D01*
X15660686Y-12943333D01*
X15670209Y-12948095D01*
X15674971Y-12952857D01*
X15679733Y-12962381D01*
X15679733Y-12986190D01*
X15674971Y-12995714D01*
X15670209Y-13000476D01*
X15660686Y-13005238D01*
X15632114Y-13005238D01*
X15622590Y-13000476D01*
X15617828Y-12995714D01*
X15717828Y-12914762D02*
X15722590Y-12910000D01*
X15732114Y-12905238D01*
X15755924Y-12905238D01*
X15765448Y-12910000D01*
X15770209Y-12914762D01*
X15774971Y-12924286D01*
X15774971Y-12933809D01*
X15770209Y-12948095D01*
X15713067Y-13005238D01*
X15774971Y-13005238D01*
G04 #@! TO.C,U30*
X22558390Y-10937438D02*
X22558390Y-11018390D01*
X22563152Y-11027914D01*
X22567914Y-11032676D01*
X22577438Y-11037438D01*
X22596486Y-11037438D01*
X22606009Y-11032676D01*
X22610771Y-11027914D01*
X22615533Y-11018390D01*
X22615533Y-10937438D01*
X22653628Y-10937438D02*
X22715533Y-10937438D01*
X22682200Y-10975533D01*
X22696486Y-10975533D01*
X22706009Y-10980295D01*
X22710771Y-10985057D01*
X22715533Y-10994581D01*
X22715533Y-11018390D01*
X22710771Y-11027914D01*
X22706009Y-11032676D01*
X22696486Y-11037438D01*
X22667914Y-11037438D01*
X22658390Y-11032676D01*
X22653628Y-11027914D01*
X22777438Y-10937438D02*
X22786962Y-10937438D01*
X22796486Y-10942200D01*
X22801248Y-10946962D01*
X22806009Y-10956486D01*
X22810771Y-10975533D01*
X22810771Y-10999343D01*
X22806009Y-11018390D01*
X22801248Y-11027914D01*
X22796486Y-11032676D01*
X22786962Y-11037438D01*
X22777438Y-11037438D01*
X22767914Y-11032676D01*
X22763152Y-11027914D01*
X22758390Y-11018390D01*
X22753628Y-10999343D01*
X22753628Y-10975533D01*
X22758390Y-10956486D01*
X22763152Y-10946962D01*
X22767914Y-10942200D01*
X22777438Y-10937438D01*
G04 #@! TO.C,U31*
X21254390Y-10937438D02*
X21254390Y-11018390D01*
X21259152Y-11027914D01*
X21263914Y-11032676D01*
X21273438Y-11037438D01*
X21292486Y-11037438D01*
X21302010Y-11032676D01*
X21306771Y-11027914D01*
X21311533Y-11018390D01*
X21311533Y-10937438D01*
X21349629Y-10937438D02*
X21411533Y-10937438D01*
X21378200Y-10975533D01*
X21392486Y-10975533D01*
X21402010Y-10980295D01*
X21406771Y-10985057D01*
X21411533Y-10994581D01*
X21411533Y-11018390D01*
X21406771Y-11027914D01*
X21402010Y-11032676D01*
X21392486Y-11037438D01*
X21363914Y-11037438D01*
X21354390Y-11032676D01*
X21349629Y-11027914D01*
X21506771Y-11037438D02*
X21449629Y-11037438D01*
X21478200Y-11037438D02*
X21478200Y-10937438D01*
X21468676Y-10951724D01*
X21459152Y-10961248D01*
X21449629Y-10966010D01*
G04 #@! TO.C,U34*
X17097390Y-10937438D02*
X17097390Y-11018390D01*
X17102152Y-11027914D01*
X17106914Y-11032676D01*
X17116438Y-11037438D01*
X17135486Y-11037438D01*
X17145010Y-11032676D01*
X17149771Y-11027914D01*
X17154533Y-11018390D01*
X17154533Y-10937438D01*
X17192629Y-10937438D02*
X17254533Y-10937438D01*
X17221200Y-10975533D01*
X17235486Y-10975533D01*
X17245010Y-10980295D01*
X17249771Y-10985057D01*
X17254533Y-10994581D01*
X17254533Y-11018390D01*
X17249771Y-11027914D01*
X17245010Y-11032676D01*
X17235486Y-11037438D01*
X17206914Y-11037438D01*
X17197390Y-11032676D01*
X17192629Y-11027914D01*
X17340248Y-10970771D02*
X17340248Y-11037438D01*
X17316438Y-10932676D02*
X17292629Y-11004105D01*
X17354533Y-11004105D01*
G04 #@! TO.C,IC1*
X22994281Y-14344738D02*
X22994281Y-14244738D01*
X23099043Y-14335214D02*
X23094281Y-14339976D01*
X23079995Y-14344738D01*
X23070471Y-14344738D01*
X23056186Y-14339976D01*
X23046662Y-14330452D01*
X23041900Y-14320929D01*
X23037138Y-14301881D01*
X23037138Y-14287595D01*
X23041900Y-14268548D01*
X23046662Y-14259024D01*
X23056186Y-14249500D01*
X23070471Y-14244738D01*
X23079995Y-14244738D01*
X23094281Y-14249500D01*
X23099043Y-14254262D01*
X23194281Y-14344738D02*
X23137138Y-14344738D01*
X23165710Y-14344738D02*
X23165710Y-14244738D01*
X23156186Y-14259024D01*
X23146662Y-14268548D01*
X23137138Y-14273310D01*
G04 #@! TO.C,Y4*
D12*
X19877757Y-13963619D02*
X19877757Y-14011238D01*
X19844424Y-13911238D02*
X19877757Y-13963619D01*
X19911090Y-13911238D01*
X19987281Y-13944571D02*
X19987281Y-14011238D01*
X19963471Y-13906476D02*
X19939662Y-13977905D01*
X20001567Y-13977905D01*
G04 #@! TO.C,J18*
D13*
X13745438Y-2265352D02*
X13816867Y-2265352D01*
X13831152Y-2270114D01*
X13840676Y-2279638D01*
X13845438Y-2293924D01*
X13845438Y-2303448D01*
X13845438Y-2165352D02*
X13845438Y-2222495D01*
X13845438Y-2193924D02*
X13745438Y-2193924D01*
X13759724Y-2203448D01*
X13769248Y-2212971D01*
X13774009Y-2222495D01*
X13788295Y-2108210D02*
X13783533Y-2117733D01*
X13778771Y-2122495D01*
X13769248Y-2127257D01*
X13764486Y-2127257D01*
X13754962Y-2122495D01*
X13750200Y-2117733D01*
X13745438Y-2108210D01*
X13745438Y-2089162D01*
X13750200Y-2079638D01*
X13754962Y-2074876D01*
X13764486Y-2070114D01*
X13769248Y-2070114D01*
X13778771Y-2074876D01*
X13783533Y-2079638D01*
X13788295Y-2089162D01*
X13788295Y-2108210D01*
X13793057Y-2117733D01*
X13797819Y-2122495D01*
X13807343Y-2127257D01*
X13826390Y-2127257D01*
X13835914Y-2122495D01*
X13840676Y-2117733D01*
X13845438Y-2108210D01*
X13845438Y-2089162D01*
X13840676Y-2079638D01*
X13835914Y-2074876D01*
X13826390Y-2070114D01*
X13807343Y-2070114D01*
X13797819Y-2074876D01*
X13793057Y-2079638D01*
X13788295Y-2089162D01*
G04 #@! TO.C,J1*
X6465038Y-17923074D02*
X6536467Y-17923074D01*
X6550752Y-17927836D01*
X6560276Y-17937359D01*
X6565038Y-17951645D01*
X6565038Y-17961169D01*
X6565038Y-17823074D02*
X6565038Y-17880217D01*
X6565038Y-17851645D02*
X6465038Y-17851645D01*
X6479324Y-17861169D01*
X6488848Y-17870693D01*
X6493609Y-17880217D01*
G04 #@! TO.C,J2*
X4233867Y-15812238D02*
X4233867Y-15883667D01*
X4229105Y-15897952D01*
X4219581Y-15907476D01*
X4205295Y-15912238D01*
X4195771Y-15912238D01*
X4276724Y-15821762D02*
X4281486Y-15817000D01*
X4291010Y-15812238D01*
X4314819Y-15812238D01*
X4324343Y-15817000D01*
X4329105Y-15821762D01*
X4333867Y-15831286D01*
X4333867Y-15840809D01*
X4329105Y-15855095D01*
X4271962Y-15912238D01*
X4333867Y-15912238D01*
G04 #@! TO.C,J3*
X8751038Y-17914933D02*
X8822467Y-17914933D01*
X8836752Y-17919695D01*
X8846276Y-17929219D01*
X8851038Y-17943505D01*
X8851038Y-17953029D01*
X8751038Y-17876838D02*
X8751038Y-17814933D01*
X8789133Y-17848267D01*
X8789133Y-17833981D01*
X8793895Y-17824457D01*
X8798657Y-17819695D01*
X8808181Y-17814933D01*
X8831990Y-17814933D01*
X8841514Y-17819695D01*
X8846276Y-17824457D01*
X8851038Y-17833981D01*
X8851038Y-17862552D01*
X8846276Y-17872076D01*
X8841514Y-17876838D01*
G04 #@! TO.C,J4*
X4233867Y-13526238D02*
X4233867Y-13597667D01*
X4229105Y-13611952D01*
X4219581Y-13621476D01*
X4205295Y-13626238D01*
X4195771Y-13626238D01*
X4324343Y-13559571D02*
X4324343Y-13626238D01*
X4300533Y-13521476D02*
X4276724Y-13592905D01*
X4338629Y-13592905D01*
G04 #@! TO.C,J5*
X11037038Y-17914933D02*
X11108467Y-17914933D01*
X11122752Y-17919695D01*
X11132276Y-17929219D01*
X11137038Y-17943505D01*
X11137038Y-17953029D01*
X11037038Y-17819695D02*
X11037038Y-17867314D01*
X11084657Y-17872076D01*
X11079895Y-17867314D01*
X11075133Y-17857790D01*
X11075133Y-17833981D01*
X11079895Y-17824457D01*
X11084657Y-17819695D01*
X11094181Y-17814933D01*
X11117990Y-17814933D01*
X11127514Y-17819695D01*
X11132276Y-17824457D01*
X11137038Y-17833981D01*
X11137038Y-17857790D01*
X11132276Y-17867314D01*
X11127514Y-17872076D01*
G04 #@! TO.C,J6*
X16031438Y-2217733D02*
X16102867Y-2217733D01*
X16117152Y-2222495D01*
X16126676Y-2232019D01*
X16131438Y-2246305D01*
X16131438Y-2255829D01*
X16031438Y-2127257D02*
X16031438Y-2146305D01*
X16036200Y-2155829D01*
X16040962Y-2160590D01*
X16055248Y-2170114D01*
X16074295Y-2174876D01*
X16112390Y-2174876D01*
X16121914Y-2170114D01*
X16126676Y-2165352D01*
X16131438Y-2155829D01*
X16131438Y-2136781D01*
X16126676Y-2127257D01*
X16121914Y-2122495D01*
X16112390Y-2117733D01*
X16088581Y-2117733D01*
X16079057Y-2122495D01*
X16074295Y-2127257D01*
X16069533Y-2136781D01*
X16069533Y-2155829D01*
X16074295Y-2165352D01*
X16079057Y-2170114D01*
X16088581Y-2174876D01*
G04 #@! TO.C,J7*
X18317438Y-2217733D02*
X18388867Y-2217733D01*
X18403152Y-2222495D01*
X18412676Y-2232019D01*
X18417438Y-2246305D01*
X18417438Y-2255829D01*
X18317438Y-2179638D02*
X18317438Y-2112971D01*
X18417438Y-2155829D01*
G04 #@! TO.C,J8*
X13323038Y-17914933D02*
X13394467Y-17914933D01*
X13408752Y-17919695D01*
X13418276Y-17929219D01*
X13423038Y-17943505D01*
X13423038Y-17953029D01*
X13365895Y-17853029D02*
X13361133Y-17862552D01*
X13356371Y-17867314D01*
X13346848Y-17872076D01*
X13342086Y-17872076D01*
X13332562Y-17867314D01*
X13327800Y-17862552D01*
X13323038Y-17853029D01*
X13323038Y-17833981D01*
X13327800Y-17824457D01*
X13332562Y-17819695D01*
X13342086Y-17814933D01*
X13346848Y-17814933D01*
X13356371Y-17819695D01*
X13361133Y-17824457D01*
X13365895Y-17833981D01*
X13365895Y-17853029D01*
X13370657Y-17862552D01*
X13375419Y-17867314D01*
X13384943Y-17872076D01*
X13403990Y-17872076D01*
X13413514Y-17867314D01*
X13418276Y-17862552D01*
X13423038Y-17853029D01*
X13423038Y-17833981D01*
X13418276Y-17824457D01*
X13413514Y-17819695D01*
X13403990Y-17814933D01*
X13384943Y-17814933D01*
X13375419Y-17819695D01*
X13370657Y-17824457D01*
X13365895Y-17833981D01*
G04 #@! TO.C,J20*
X4186248Y-8852638D02*
X4186248Y-8924067D01*
X4181486Y-8938352D01*
X4171962Y-8947876D01*
X4157676Y-8952638D01*
X4148152Y-8952638D01*
X4229105Y-8862162D02*
X4233867Y-8857400D01*
X4243390Y-8852638D01*
X4267200Y-8852638D01*
X4276724Y-8857400D01*
X4281486Y-8862162D01*
X4286248Y-8871686D01*
X4286248Y-8881210D01*
X4281486Y-8895495D01*
X4224343Y-8952638D01*
X4286248Y-8952638D01*
X4348152Y-8852638D02*
X4357676Y-8852638D01*
X4367200Y-8857400D01*
X4371962Y-8862162D01*
X4376724Y-8871686D01*
X4381486Y-8890733D01*
X4381486Y-8914543D01*
X4376724Y-8933590D01*
X4371962Y-8943114D01*
X4367200Y-8947876D01*
X4357676Y-8952638D01*
X4348152Y-8952638D01*
X4338629Y-8947876D01*
X4333867Y-8943114D01*
X4329105Y-8933590D01*
X4324343Y-8914543D01*
X4324343Y-8890733D01*
X4329105Y-8871686D01*
X4333867Y-8862162D01*
X4338629Y-8857400D01*
X4348152Y-8852638D01*
G04 #@! TO.C,J22*
X9167944Y-2264763D02*
X9239373Y-2264763D01*
X9253658Y-2269525D01*
X9263182Y-2279049D01*
X9267944Y-2293334D01*
X9267944Y-2302858D01*
X9177468Y-2221906D02*
X9172706Y-2217144D01*
X9167944Y-2207620D01*
X9167944Y-2183811D01*
X9172706Y-2174287D01*
X9177468Y-2169525D01*
X9186992Y-2164763D01*
X9196515Y-2164763D01*
X9210801Y-2169525D01*
X9267944Y-2226668D01*
X9267944Y-2164763D01*
X9177468Y-2126668D02*
X9172706Y-2121906D01*
X9167944Y-2112382D01*
X9167944Y-2088572D01*
X9172706Y-2079048D01*
X9177468Y-2074287D01*
X9186992Y-2069525D01*
X9196515Y-2069525D01*
X9210801Y-2074287D01*
X9267944Y-2131430D01*
X9267944Y-2069525D01*
G04 #@! TO.C,J21*
X6881944Y-2264763D02*
X6953372Y-2264763D01*
X6967658Y-2269525D01*
X6977182Y-2279049D01*
X6981944Y-2293334D01*
X6981944Y-2302858D01*
X6891468Y-2221906D02*
X6886706Y-2217144D01*
X6881944Y-2207620D01*
X6881944Y-2183811D01*
X6886706Y-2174287D01*
X6891468Y-2169525D01*
X6900992Y-2164763D01*
X6910515Y-2164763D01*
X6924801Y-2169525D01*
X6981944Y-2226668D01*
X6981944Y-2164763D01*
X6981944Y-2069525D02*
X6981944Y-2126668D01*
X6981944Y-2098096D02*
X6881944Y-2098096D01*
X6896230Y-2107620D01*
X6905753Y-2117144D01*
X6910515Y-2126668D01*
G04 #@! TO.C,J9*
X17895038Y-17902233D02*
X17966467Y-17902233D01*
X17980752Y-17906995D01*
X17990276Y-17916519D01*
X17995038Y-17930805D01*
X17995038Y-17940329D01*
X17995038Y-17849852D02*
X17995038Y-17830805D01*
X17990276Y-17821281D01*
X17985514Y-17816519D01*
X17971229Y-17806995D01*
X17952181Y-17802233D01*
X17914086Y-17802233D01*
X17904562Y-17806995D01*
X17899800Y-17811757D01*
X17895038Y-17821281D01*
X17895038Y-17840329D01*
X17899800Y-17849852D01*
X17904562Y-17854614D01*
X17914086Y-17859376D01*
X17937895Y-17859376D01*
X17947419Y-17854614D01*
X17952181Y-17849852D01*
X17956943Y-17840329D01*
X17956943Y-17821281D01*
X17952181Y-17811757D01*
X17947419Y-17806995D01*
X17937895Y-17802233D01*
G04 #@! TO.C,J10*
X11459438Y-2265352D02*
X11530867Y-2265352D01*
X11545152Y-2270114D01*
X11554676Y-2279638D01*
X11559438Y-2293924D01*
X11559438Y-2303448D01*
X11559438Y-2165352D02*
X11559438Y-2222495D01*
X11559438Y-2193924D02*
X11459438Y-2193924D01*
X11473724Y-2203448D01*
X11483248Y-2212971D01*
X11488009Y-2222495D01*
X11459438Y-2103448D02*
X11459438Y-2093924D01*
X11464200Y-2084400D01*
X11468962Y-2079638D01*
X11478486Y-2074876D01*
X11497533Y-2070114D01*
X11521343Y-2070114D01*
X11540390Y-2074876D01*
X11549914Y-2079638D01*
X11554676Y-2084400D01*
X11559438Y-2093924D01*
X11559438Y-2103448D01*
X11554676Y-2112971D01*
X11549914Y-2117733D01*
X11540390Y-2122495D01*
X11521343Y-2127257D01*
X11497533Y-2127257D01*
X11478486Y-2122495D01*
X11468962Y-2117733D01*
X11464200Y-2112971D01*
X11459438Y-2103448D01*
G04 #@! TO.C,J11*
X15609038Y-17962552D02*
X15680467Y-17962552D01*
X15694752Y-17967314D01*
X15704276Y-17976838D01*
X15709038Y-17991124D01*
X15709038Y-18000648D01*
X15709038Y-17862552D02*
X15709038Y-17919695D01*
X15709038Y-17891124D02*
X15609038Y-17891124D01*
X15623324Y-17900648D01*
X15632848Y-17910171D01*
X15637609Y-17919695D01*
X15709038Y-17767314D02*
X15709038Y-17824457D01*
X15709038Y-17795886D02*
X15609038Y-17795886D01*
X15623324Y-17805410D01*
X15632848Y-17814933D01*
X15637609Y-17824457D01*
G04 #@! TO.C,J13*
X22008638Y-17537552D02*
X22080067Y-17537552D01*
X22094352Y-17542314D01*
X22103876Y-17551838D01*
X22108638Y-17566124D01*
X22108638Y-17575648D01*
X22108638Y-17437552D02*
X22108638Y-17494695D01*
X22108638Y-17466124D02*
X22008638Y-17466124D01*
X22022924Y-17475648D01*
X22032448Y-17485171D01*
X22037210Y-17494695D01*
X22008638Y-17404219D02*
X22008638Y-17342314D01*
X22046733Y-17375648D01*
X22046733Y-17361362D01*
X22051495Y-17351838D01*
X22056257Y-17347076D01*
X22065781Y-17342314D01*
X22089590Y-17342314D01*
X22099114Y-17347076D01*
X22103876Y-17351838D01*
X22108638Y-17361362D01*
X22108638Y-17389933D01*
X22103876Y-17399457D01*
X22099114Y-17404219D01*
G04 #@! TO.C,C45*
D12*
X20730152Y-11733214D02*
X20725390Y-11737976D01*
X20711105Y-11742738D01*
X20701581Y-11742738D01*
X20687295Y-11737976D01*
X20677771Y-11728452D01*
X20673010Y-11718928D01*
X20668248Y-11699881D01*
X20668248Y-11685595D01*
X20673010Y-11666548D01*
X20677771Y-11657024D01*
X20687295Y-11647500D01*
X20701581Y-11642738D01*
X20711105Y-11642738D01*
X20725390Y-11647500D01*
X20730152Y-11652262D01*
X20815867Y-11676071D02*
X20815867Y-11742738D01*
X20792057Y-11637976D02*
X20768248Y-11709405D01*
X20830152Y-11709405D01*
X20915867Y-11642738D02*
X20868248Y-11642738D01*
X20863486Y-11690357D01*
X20868248Y-11685595D01*
X20877771Y-11680833D01*
X20901581Y-11680833D01*
X20911105Y-11685595D01*
X20915867Y-11690357D01*
X20920629Y-11699881D01*
X20920629Y-11723690D01*
X20915867Y-11733214D01*
X20911105Y-11737976D01*
X20901581Y-11742738D01*
X20877771Y-11742738D01*
X20868248Y-11737976D01*
X20863486Y-11733214D01*
G04 #@! TO.C,C48*
X20988052Y-15911514D02*
X20983290Y-15916276D01*
X20969005Y-15921038D01*
X20959481Y-15921038D01*
X20945195Y-15916276D01*
X20935671Y-15906752D01*
X20930910Y-15897228D01*
X20926148Y-15878181D01*
X20926148Y-15863895D01*
X20930910Y-15844848D01*
X20935671Y-15835324D01*
X20945195Y-15825800D01*
X20959481Y-15821038D01*
X20969005Y-15821038D01*
X20983290Y-15825800D01*
X20988052Y-15830562D01*
X21073767Y-15854371D02*
X21073767Y-15921038D01*
X21049957Y-15816276D02*
X21026148Y-15887705D01*
X21088052Y-15887705D01*
X21140433Y-15863895D02*
X21130910Y-15859133D01*
X21126148Y-15854371D01*
X21121386Y-15844848D01*
X21121386Y-15840086D01*
X21126148Y-15830562D01*
X21130910Y-15825800D01*
X21140433Y-15821038D01*
X21159481Y-15821038D01*
X21169005Y-15825800D01*
X21173767Y-15830562D01*
X21178529Y-15840086D01*
X21178529Y-15844848D01*
X21173767Y-15854371D01*
X21169005Y-15859133D01*
X21159481Y-15863895D01*
X21140433Y-15863895D01*
X21130910Y-15868657D01*
X21126148Y-15873419D01*
X21121386Y-15882943D01*
X21121386Y-15901990D01*
X21126148Y-15911514D01*
X21130910Y-15916276D01*
X21140433Y-15921038D01*
X21159481Y-15921038D01*
X21169005Y-15916276D01*
X21173767Y-15911514D01*
X21178529Y-15901990D01*
X21178529Y-15882943D01*
X21173767Y-15873419D01*
X21169005Y-15868657D01*
X21159481Y-15863895D01*
G04 #@! TO.C,C49*
X20599252Y-14539914D02*
X20594490Y-14544676D01*
X20580205Y-14549438D01*
X20570681Y-14549438D01*
X20556395Y-14544676D01*
X20546871Y-14535152D01*
X20542110Y-14525628D01*
X20537348Y-14506581D01*
X20537348Y-14492295D01*
X20542110Y-14473248D01*
X20546871Y-14463724D01*
X20556395Y-14454200D01*
X20570681Y-14449438D01*
X20580205Y-14449438D01*
X20594490Y-14454200D01*
X20599252Y-14458962D01*
X20684967Y-14482771D02*
X20684967Y-14549438D01*
X20661157Y-14444676D02*
X20637348Y-14516105D01*
X20699252Y-14516105D01*
X20742110Y-14549438D02*
X20761157Y-14549438D01*
X20770681Y-14544676D01*
X20775443Y-14539914D01*
X20784967Y-14525628D01*
X20789729Y-14506581D01*
X20789729Y-14468486D01*
X20784967Y-14458962D01*
X20780205Y-14454200D01*
X20770681Y-14449438D01*
X20751633Y-14449438D01*
X20742110Y-14454200D01*
X20737348Y-14458962D01*
X20732586Y-14468486D01*
X20732586Y-14492295D01*
X20737348Y-14501819D01*
X20742110Y-14506581D01*
X20751633Y-14511343D01*
X20770681Y-14511343D01*
X20780205Y-14506581D01*
X20784967Y-14501819D01*
X20789729Y-14492295D01*
G04 #@! TO.C,C24*
X23502652Y-9256714D02*
X23497890Y-9261476D01*
X23483605Y-9266238D01*
X23474081Y-9266238D01*
X23459795Y-9261476D01*
X23450271Y-9251952D01*
X23445509Y-9242429D01*
X23440748Y-9223381D01*
X23440748Y-9209095D01*
X23445509Y-9190048D01*
X23450271Y-9180524D01*
X23459795Y-9171000D01*
X23474081Y-9166238D01*
X23483605Y-9166238D01*
X23497890Y-9171000D01*
X23502652Y-9175762D01*
X23540748Y-9175762D02*
X23545509Y-9171000D01*
X23555033Y-9166238D01*
X23578843Y-9166238D01*
X23588367Y-9171000D01*
X23593128Y-9175762D01*
X23597890Y-9185286D01*
X23597890Y-9194810D01*
X23593128Y-9209095D01*
X23535986Y-9266238D01*
X23597890Y-9266238D01*
X23683605Y-9199571D02*
X23683605Y-9266238D01*
X23659795Y-9161476D02*
X23635986Y-9232905D01*
X23697890Y-9232905D01*
G04 #@! TO.C,C3*
X9536114Y-9673648D02*
X9540876Y-9678410D01*
X9545638Y-9692695D01*
X9545638Y-9702219D01*
X9540876Y-9716505D01*
X9531352Y-9726029D01*
X9521829Y-9730790D01*
X9502781Y-9735552D01*
X9488495Y-9735552D01*
X9469448Y-9730790D01*
X9459924Y-9726029D01*
X9450400Y-9716505D01*
X9445638Y-9702219D01*
X9445638Y-9692695D01*
X9450400Y-9678410D01*
X9455162Y-9673648D01*
X9445638Y-9640314D02*
X9445638Y-9578410D01*
X9483733Y-9611743D01*
X9483733Y-9597457D01*
X9488495Y-9587933D01*
X9493257Y-9583171D01*
X9502781Y-9578410D01*
X9526590Y-9578410D01*
X9536114Y-9583171D01*
X9540876Y-9587933D01*
X9545638Y-9597457D01*
X9545638Y-9626029D01*
X9540876Y-9635552D01*
X9536114Y-9640314D01*
G04 #@! TO.C,C4*
X8402352Y-10933114D02*
X8397590Y-10937876D01*
X8383305Y-10942638D01*
X8373781Y-10942638D01*
X8359495Y-10937876D01*
X8349971Y-10928352D01*
X8345209Y-10918829D01*
X8340448Y-10899781D01*
X8340448Y-10885495D01*
X8345209Y-10866448D01*
X8349971Y-10856924D01*
X8359495Y-10847400D01*
X8373781Y-10842638D01*
X8383305Y-10842638D01*
X8397590Y-10847400D01*
X8402352Y-10852162D01*
X8488067Y-10875971D02*
X8488067Y-10942638D01*
X8464257Y-10837876D02*
X8440448Y-10909305D01*
X8502352Y-10909305D01*
G04 #@! TO.C,C29*
X12210675Y-10514014D02*
X12205914Y-10518776D01*
X12191628Y-10523538D01*
X12182104Y-10523538D01*
X12167818Y-10518776D01*
X12158295Y-10509252D01*
X12153533Y-10499729D01*
X12148771Y-10480681D01*
X12148771Y-10466395D01*
X12153533Y-10447348D01*
X12158295Y-10437824D01*
X12167818Y-10428300D01*
X12182104Y-10423538D01*
X12191628Y-10423538D01*
X12205914Y-10428300D01*
X12210675Y-10433062D01*
X12248771Y-10433062D02*
X12253533Y-10428300D01*
X12263056Y-10423538D01*
X12286866Y-10423538D01*
X12296390Y-10428300D01*
X12301152Y-10433062D01*
X12305914Y-10442586D01*
X12305914Y-10452110D01*
X12301152Y-10466395D01*
X12244009Y-10523538D01*
X12305914Y-10523538D01*
X12353533Y-10523538D02*
X12372580Y-10523538D01*
X12382104Y-10518776D01*
X12386866Y-10514014D01*
X12396390Y-10499729D01*
X12401152Y-10480681D01*
X12401152Y-10442586D01*
X12396390Y-10433062D01*
X12391628Y-10428300D01*
X12382104Y-10423538D01*
X12363056Y-10423538D01*
X12353533Y-10428300D01*
X12348771Y-10433062D01*
X12344009Y-10442586D01*
X12344009Y-10466395D01*
X12348771Y-10475919D01*
X12353533Y-10480681D01*
X12363056Y-10485443D01*
X12382104Y-10485443D01*
X12391628Y-10480681D01*
X12396390Y-10475919D01*
X12401152Y-10466395D01*
G04 #@! TO.C,C2*
X9472614Y-13318548D02*
X9477376Y-13323309D01*
X9482138Y-13337595D01*
X9482138Y-13347119D01*
X9477376Y-13361405D01*
X9467852Y-13370928D01*
X9458329Y-13375690D01*
X9439281Y-13380452D01*
X9424995Y-13380452D01*
X9405948Y-13375690D01*
X9396424Y-13370928D01*
X9386900Y-13361405D01*
X9382138Y-13347119D01*
X9382138Y-13337595D01*
X9386900Y-13323309D01*
X9391662Y-13318548D01*
X9391662Y-13280452D02*
X9386900Y-13275690D01*
X9382138Y-13266167D01*
X9382138Y-13242357D01*
X9386900Y-13232833D01*
X9391662Y-13228071D01*
X9401186Y-13223309D01*
X9410710Y-13223309D01*
X9424995Y-13228071D01*
X9482138Y-13285214D01*
X9482138Y-13223309D01*
G04 #@! TO.C,C26*
X13465752Y-6259514D02*
X13460990Y-6264276D01*
X13446705Y-6269038D01*
X13437181Y-6269038D01*
X13422895Y-6264276D01*
X13413371Y-6254752D01*
X13408609Y-6245228D01*
X13403848Y-6226181D01*
X13403848Y-6211895D01*
X13408609Y-6192848D01*
X13413371Y-6183324D01*
X13422895Y-6173800D01*
X13437181Y-6169038D01*
X13446705Y-6169038D01*
X13460990Y-6173800D01*
X13465752Y-6178562D01*
X13503848Y-6178562D02*
X13508609Y-6173800D01*
X13518133Y-6169038D01*
X13541943Y-6169038D01*
X13551467Y-6173800D01*
X13556228Y-6178562D01*
X13560990Y-6188086D01*
X13560990Y-6197609D01*
X13556228Y-6211895D01*
X13499086Y-6269038D01*
X13560990Y-6269038D01*
X13646705Y-6169038D02*
X13627657Y-6169038D01*
X13618133Y-6173800D01*
X13613371Y-6178562D01*
X13603848Y-6192848D01*
X13599086Y-6211895D01*
X13599086Y-6249990D01*
X13603848Y-6259514D01*
X13608609Y-6264276D01*
X13618133Y-6269038D01*
X13637181Y-6269038D01*
X13646705Y-6264276D01*
X13651467Y-6259514D01*
X13656228Y-6249990D01*
X13656228Y-6226181D01*
X13651467Y-6216657D01*
X13646705Y-6211895D01*
X13637181Y-6207133D01*
X13618133Y-6207133D01*
X13608609Y-6211895D01*
X13603848Y-6216657D01*
X13599086Y-6226181D01*
G04 #@! TO.C,C6*
X7221252Y-15759114D02*
X7216490Y-15763876D01*
X7202205Y-15768638D01*
X7192681Y-15768638D01*
X7178395Y-15763876D01*
X7168871Y-15754352D01*
X7164109Y-15744828D01*
X7159348Y-15725781D01*
X7159348Y-15711495D01*
X7164109Y-15692448D01*
X7168871Y-15682924D01*
X7178395Y-15673400D01*
X7192681Y-15668638D01*
X7202205Y-15668638D01*
X7216490Y-15673400D01*
X7221252Y-15678162D01*
X7306967Y-15668638D02*
X7287919Y-15668638D01*
X7278395Y-15673400D01*
X7273633Y-15678162D01*
X7264109Y-15692448D01*
X7259348Y-15711495D01*
X7259348Y-15749590D01*
X7264109Y-15759114D01*
X7268871Y-15763876D01*
X7278395Y-15768638D01*
X7297443Y-15768638D01*
X7306967Y-15763876D01*
X7311728Y-15759114D01*
X7316490Y-15749590D01*
X7316490Y-15725781D01*
X7311728Y-15716257D01*
X7306967Y-15711495D01*
X7297443Y-15706733D01*
X7278395Y-15706733D01*
X7268871Y-15711495D01*
X7264109Y-15716257D01*
X7259348Y-15725781D01*
G04 #@! TO.C,C22*
X24819552Y-9269414D02*
X24814790Y-9274176D01*
X24800505Y-9278938D01*
X24790981Y-9278938D01*
X24776695Y-9274176D01*
X24767171Y-9264652D01*
X24762409Y-9255129D01*
X24757648Y-9236081D01*
X24757648Y-9221795D01*
X24762409Y-9202748D01*
X24767171Y-9193224D01*
X24776695Y-9183700D01*
X24790981Y-9178938D01*
X24800505Y-9178938D01*
X24814790Y-9183700D01*
X24819552Y-9188462D01*
X24857648Y-9188462D02*
X24862409Y-9183700D01*
X24871933Y-9178938D01*
X24895743Y-9178938D01*
X24905267Y-9183700D01*
X24910028Y-9188462D01*
X24914790Y-9197986D01*
X24914790Y-9207510D01*
X24910028Y-9221795D01*
X24852886Y-9278938D01*
X24914790Y-9278938D01*
X24952886Y-9188462D02*
X24957648Y-9183700D01*
X24967171Y-9178938D01*
X24990981Y-9178938D01*
X25000505Y-9183700D01*
X25005267Y-9188462D01*
X25010028Y-9197986D01*
X25010028Y-9207510D01*
X25005267Y-9221795D01*
X24948124Y-9278938D01*
X25010028Y-9278938D01*
G04 #@! TO.C,C21*
X18050452Y-6754814D02*
X18045690Y-6759576D01*
X18031405Y-6764338D01*
X18021881Y-6764338D01*
X18007595Y-6759576D01*
X17998071Y-6750052D01*
X17993310Y-6740528D01*
X17988548Y-6721481D01*
X17988548Y-6707195D01*
X17993310Y-6688148D01*
X17998071Y-6678624D01*
X18007595Y-6669100D01*
X18021881Y-6664338D01*
X18031405Y-6664338D01*
X18045690Y-6669100D01*
X18050452Y-6673862D01*
X18088548Y-6673862D02*
X18093310Y-6669100D01*
X18102833Y-6664338D01*
X18126643Y-6664338D01*
X18136167Y-6669100D01*
X18140929Y-6673862D01*
X18145690Y-6683386D01*
X18145690Y-6692909D01*
X18140929Y-6707195D01*
X18083786Y-6764338D01*
X18145690Y-6764338D01*
X18240929Y-6764338D02*
X18183786Y-6764338D01*
X18212357Y-6764338D02*
X18212357Y-6664338D01*
X18202833Y-6678624D01*
X18193310Y-6688148D01*
X18183786Y-6692909D01*
G04 #@! TO.C,C20*
X20806352Y-9256714D02*
X20801590Y-9261476D01*
X20787305Y-9266238D01*
X20777781Y-9266238D01*
X20763495Y-9261476D01*
X20753971Y-9251952D01*
X20749210Y-9242429D01*
X20744448Y-9223381D01*
X20744448Y-9209095D01*
X20749210Y-9190048D01*
X20753971Y-9180524D01*
X20763495Y-9171000D01*
X20777781Y-9166238D01*
X20787305Y-9166238D01*
X20801590Y-9171000D01*
X20806352Y-9175762D01*
X20844448Y-9175762D02*
X20849210Y-9171000D01*
X20858733Y-9166238D01*
X20882543Y-9166238D01*
X20892067Y-9171000D01*
X20896829Y-9175762D01*
X20901590Y-9185286D01*
X20901590Y-9194810D01*
X20896829Y-9209095D01*
X20839686Y-9266238D01*
X20901590Y-9266238D01*
X20963495Y-9166238D02*
X20973019Y-9166238D01*
X20982543Y-9171000D01*
X20987305Y-9175762D01*
X20992067Y-9185286D01*
X20996829Y-9204333D01*
X20996829Y-9228143D01*
X20992067Y-9247190D01*
X20987305Y-9256714D01*
X20982543Y-9261476D01*
X20973019Y-9266238D01*
X20963495Y-9266238D01*
X20953971Y-9261476D01*
X20949210Y-9256714D01*
X20944448Y-9247190D01*
X20939686Y-9228143D01*
X20939686Y-9204333D01*
X20944448Y-9185286D01*
X20949210Y-9175762D01*
X20953971Y-9171000D01*
X20963495Y-9166238D01*
G04 #@! TO.C,C16*
X19523652Y-9218614D02*
X19518890Y-9223376D01*
X19504605Y-9228138D01*
X19495081Y-9228138D01*
X19480795Y-9223376D01*
X19471271Y-9213852D01*
X19466510Y-9204329D01*
X19461748Y-9185281D01*
X19461748Y-9170995D01*
X19466510Y-9151948D01*
X19471271Y-9142424D01*
X19480795Y-9132900D01*
X19495081Y-9128138D01*
X19504605Y-9128138D01*
X19518890Y-9132900D01*
X19523652Y-9137662D01*
X19618890Y-9228138D02*
X19561748Y-9228138D01*
X19590319Y-9228138D02*
X19590319Y-9128138D01*
X19580795Y-9142424D01*
X19571271Y-9151948D01*
X19561748Y-9156710D01*
X19704605Y-9128138D02*
X19685557Y-9128138D01*
X19676033Y-9132900D01*
X19671271Y-9137662D01*
X19661748Y-9151948D01*
X19656986Y-9170995D01*
X19656986Y-9209090D01*
X19661748Y-9218614D01*
X19666510Y-9223376D01*
X19676033Y-9228138D01*
X19695081Y-9228138D01*
X19704605Y-9223376D01*
X19709367Y-9218614D01*
X19714129Y-9209090D01*
X19714129Y-9185281D01*
X19709367Y-9175757D01*
X19704605Y-9170995D01*
X19695081Y-9166233D01*
X19676033Y-9166233D01*
X19666510Y-9170995D01*
X19661748Y-9175757D01*
X19656986Y-9185281D01*
G04 #@! TO.C,C15*
X15459652Y-14565314D02*
X15454890Y-14570076D01*
X15440605Y-14574838D01*
X15431081Y-14574838D01*
X15416795Y-14570076D01*
X15407271Y-14560552D01*
X15402509Y-14551028D01*
X15397748Y-14531981D01*
X15397748Y-14517695D01*
X15402509Y-14498648D01*
X15407271Y-14489124D01*
X15416795Y-14479600D01*
X15431081Y-14474838D01*
X15440605Y-14474838D01*
X15454890Y-14479600D01*
X15459652Y-14484362D01*
X15554890Y-14574838D02*
X15497748Y-14574838D01*
X15526319Y-14574838D02*
X15526319Y-14474838D01*
X15516795Y-14489124D01*
X15507271Y-14498648D01*
X15497748Y-14503409D01*
X15645367Y-14474838D02*
X15597748Y-14474838D01*
X15592986Y-14522457D01*
X15597748Y-14517695D01*
X15607271Y-14512933D01*
X15631081Y-14512933D01*
X15640605Y-14517695D01*
X15645367Y-14522457D01*
X15650128Y-14531981D01*
X15650128Y-14555790D01*
X15645367Y-14565314D01*
X15640605Y-14570076D01*
X15631081Y-14574838D01*
X15607271Y-14574838D01*
X15597748Y-14570076D01*
X15592986Y-14565314D01*
G04 #@! TO.C,C13*
X26102252Y-3563214D02*
X26097490Y-3567976D01*
X26083205Y-3572738D01*
X26073681Y-3572738D01*
X26059395Y-3567976D01*
X26049871Y-3558452D01*
X26045109Y-3548928D01*
X26040348Y-3529881D01*
X26040348Y-3515595D01*
X26045109Y-3496548D01*
X26049871Y-3487024D01*
X26059395Y-3477500D01*
X26073681Y-3472738D01*
X26083205Y-3472738D01*
X26097490Y-3477500D01*
X26102252Y-3482262D01*
X26197490Y-3572738D02*
X26140348Y-3572738D01*
X26168919Y-3572738D02*
X26168919Y-3472738D01*
X26159395Y-3487024D01*
X26149871Y-3496548D01*
X26140348Y-3501309D01*
X26230824Y-3472738D02*
X26292728Y-3472738D01*
X26259395Y-3510833D01*
X26273681Y-3510833D01*
X26283205Y-3515595D01*
X26287967Y-3520357D01*
X26292728Y-3529881D01*
X26292728Y-3553690D01*
X26287967Y-3563214D01*
X26283205Y-3567976D01*
X26273681Y-3572738D01*
X26245109Y-3572738D01*
X26235586Y-3567976D01*
X26230824Y-3563214D01*
G04 #@! TO.C,C12*
X7217352Y-16305214D02*
X7212590Y-16309976D01*
X7198305Y-16314738D01*
X7188781Y-16314738D01*
X7174495Y-16309976D01*
X7164971Y-16300452D01*
X7160209Y-16290928D01*
X7155448Y-16271881D01*
X7155448Y-16257595D01*
X7160209Y-16238548D01*
X7164971Y-16229024D01*
X7174495Y-16219500D01*
X7188781Y-16214738D01*
X7198305Y-16214738D01*
X7212590Y-16219500D01*
X7217352Y-16224262D01*
X7312590Y-16314738D02*
X7255448Y-16314738D01*
X7284019Y-16314738D02*
X7284019Y-16214738D01*
X7274495Y-16229024D01*
X7264971Y-16238548D01*
X7255448Y-16243309D01*
X7350686Y-16224262D02*
X7355448Y-16219500D01*
X7364971Y-16214738D01*
X7388781Y-16214738D01*
X7398305Y-16219500D01*
X7403067Y-16224262D01*
X7407828Y-16233786D01*
X7407828Y-16243309D01*
X7403067Y-16257595D01*
X7345924Y-16314738D01*
X7407828Y-16314738D01*
G04 #@! TO.C,C1*
X10336214Y-13724948D02*
X10340976Y-13729709D01*
X10345738Y-13743995D01*
X10345738Y-13753519D01*
X10340976Y-13767805D01*
X10331452Y-13777328D01*
X10321929Y-13782090D01*
X10302881Y-13786852D01*
X10288595Y-13786852D01*
X10269548Y-13782090D01*
X10260024Y-13777328D01*
X10250500Y-13767805D01*
X10245738Y-13753519D01*
X10245738Y-13743995D01*
X10250500Y-13729709D01*
X10255262Y-13724948D01*
X10345738Y-13629709D02*
X10345738Y-13686852D01*
X10345738Y-13658281D02*
X10245738Y-13658281D01*
X10260024Y-13667805D01*
X10269548Y-13677328D01*
X10274310Y-13686852D01*
G04 #@! TO.C,C10*
X23683914Y-15477548D02*
X23688676Y-15482309D01*
X23693438Y-15496595D01*
X23693438Y-15506119D01*
X23688676Y-15520405D01*
X23679152Y-15529928D01*
X23669628Y-15534690D01*
X23650581Y-15539452D01*
X23636295Y-15539452D01*
X23617248Y-15534690D01*
X23607724Y-15529928D01*
X23598200Y-15520405D01*
X23593438Y-15506119D01*
X23593438Y-15496595D01*
X23598200Y-15482309D01*
X23602962Y-15477548D01*
X23693438Y-15382309D02*
X23693438Y-15439452D01*
X23693438Y-15410881D02*
X23593438Y-15410881D01*
X23607724Y-15420405D01*
X23617248Y-15429928D01*
X23622009Y-15439452D01*
X23593438Y-15320405D02*
X23593438Y-15310881D01*
X23598200Y-15301357D01*
X23602962Y-15296595D01*
X23612486Y-15291833D01*
X23631533Y-15287071D01*
X23655343Y-15287071D01*
X23674390Y-15291833D01*
X23683914Y-15296595D01*
X23688676Y-15301357D01*
X23693438Y-15310881D01*
X23693438Y-15320405D01*
X23688676Y-15329928D01*
X23683914Y-15334690D01*
X23674390Y-15339452D01*
X23655343Y-15344214D01*
X23631533Y-15344214D01*
X23612486Y-15339452D01*
X23602962Y-15334690D01*
X23598200Y-15329928D01*
X23593438Y-15320405D01*
G04 #@! TO.C,C9*
X18012352Y-9218614D02*
X18007590Y-9223376D01*
X17993305Y-9228138D01*
X17983781Y-9228138D01*
X17969495Y-9223376D01*
X17959971Y-9213852D01*
X17955210Y-9204329D01*
X17950448Y-9185281D01*
X17950448Y-9170995D01*
X17955210Y-9151948D01*
X17959971Y-9142424D01*
X17969495Y-9132900D01*
X17983781Y-9128138D01*
X17993305Y-9128138D01*
X18007590Y-9132900D01*
X18012352Y-9137662D01*
X18059971Y-9228138D02*
X18079019Y-9228138D01*
X18088543Y-9223376D01*
X18093305Y-9218614D01*
X18102829Y-9204329D01*
X18107590Y-9185281D01*
X18107590Y-9147186D01*
X18102829Y-9137662D01*
X18098067Y-9132900D01*
X18088543Y-9128138D01*
X18069495Y-9128138D01*
X18059971Y-9132900D01*
X18055210Y-9137662D01*
X18050448Y-9147186D01*
X18050448Y-9170995D01*
X18055210Y-9180519D01*
X18059971Y-9185281D01*
X18069495Y-9190043D01*
X18088543Y-9190043D01*
X18098067Y-9185281D01*
X18102829Y-9180519D01*
X18107590Y-9170995D01*
G04 #@! TO.C,C8*
X7244975Y-16787814D02*
X7240214Y-16792576D01*
X7225928Y-16797338D01*
X7216404Y-16797338D01*
X7202118Y-16792576D01*
X7192595Y-16783052D01*
X7187833Y-16773528D01*
X7183071Y-16754481D01*
X7183071Y-16740195D01*
X7187833Y-16721148D01*
X7192595Y-16711624D01*
X7202118Y-16702100D01*
X7216404Y-16697338D01*
X7225928Y-16697338D01*
X7240214Y-16702100D01*
X7244975Y-16706862D01*
X7302118Y-16740195D02*
X7292595Y-16735433D01*
X7287833Y-16730671D01*
X7283071Y-16721148D01*
X7283071Y-16716386D01*
X7287833Y-16706862D01*
X7292595Y-16702100D01*
X7302118Y-16697338D01*
X7321166Y-16697338D01*
X7330690Y-16702100D01*
X7335452Y-16706862D01*
X7340214Y-16716386D01*
X7340214Y-16721148D01*
X7335452Y-16730671D01*
X7330690Y-16735433D01*
X7321166Y-16740195D01*
X7302118Y-16740195D01*
X7292595Y-16744957D01*
X7287833Y-16749719D01*
X7283071Y-16759243D01*
X7283071Y-16778290D01*
X7287833Y-16787814D01*
X7292595Y-16792576D01*
X7302118Y-16797338D01*
X7321166Y-16797338D01*
X7330690Y-16792576D01*
X7335452Y-16787814D01*
X7340214Y-16778290D01*
X7340214Y-16759243D01*
X7335452Y-16749719D01*
X7330690Y-16744957D01*
X7321166Y-16740195D01*
G04 #@! TO.C,C18*
X16894752Y-9459914D02*
X16889990Y-9464676D01*
X16875705Y-9469438D01*
X16866181Y-9469438D01*
X16851895Y-9464676D01*
X16842371Y-9455152D01*
X16837610Y-9445629D01*
X16832848Y-9426581D01*
X16832848Y-9412295D01*
X16837610Y-9393248D01*
X16842371Y-9383724D01*
X16851895Y-9374200D01*
X16866181Y-9369438D01*
X16875705Y-9369438D01*
X16889990Y-9374200D01*
X16894752Y-9378962D01*
X16989990Y-9469438D02*
X16932848Y-9469438D01*
X16961419Y-9469438D02*
X16961419Y-9369438D01*
X16951895Y-9383724D01*
X16942371Y-9393248D01*
X16932848Y-9398010D01*
X17047133Y-9412295D02*
X17037610Y-9407533D01*
X17032848Y-9402771D01*
X17028086Y-9393248D01*
X17028086Y-9388486D01*
X17032848Y-9378962D01*
X17037610Y-9374200D01*
X17047133Y-9369438D01*
X17066181Y-9369438D01*
X17075705Y-9374200D01*
X17080467Y-9378962D01*
X17085229Y-9388486D01*
X17085229Y-9393248D01*
X17080467Y-9402771D01*
X17075705Y-9407533D01*
X17066181Y-9412295D01*
X17047133Y-9412295D01*
X17037610Y-9417057D01*
X17032848Y-9421819D01*
X17028086Y-9431343D01*
X17028086Y-9450390D01*
X17032848Y-9459914D01*
X17037610Y-9464676D01*
X17047133Y-9469438D01*
X17066181Y-9469438D01*
X17075705Y-9464676D01*
X17080467Y-9459914D01*
X17085229Y-9450390D01*
X17085229Y-9431343D01*
X17080467Y-9421819D01*
X17075705Y-9417057D01*
X17066181Y-9412295D01*
G04 #@! TO.C,C47*
X18672752Y-11733214D02*
X18667990Y-11737976D01*
X18653705Y-11742738D01*
X18644181Y-11742738D01*
X18629895Y-11737976D01*
X18620371Y-11728452D01*
X18615610Y-11718928D01*
X18610848Y-11699881D01*
X18610848Y-11685595D01*
X18615610Y-11666548D01*
X18620371Y-11657024D01*
X18629895Y-11647500D01*
X18644181Y-11642738D01*
X18653705Y-11642738D01*
X18667990Y-11647500D01*
X18672752Y-11652262D01*
X18758467Y-11676071D02*
X18758467Y-11742738D01*
X18734657Y-11637976D02*
X18710848Y-11709405D01*
X18772752Y-11709405D01*
X18801324Y-11642738D02*
X18867990Y-11642738D01*
X18825133Y-11742738D01*
G04 #@! TO.C,C46*
X22787552Y-11707814D02*
X22782790Y-11712576D01*
X22768505Y-11717338D01*
X22758981Y-11717338D01*
X22744695Y-11712576D01*
X22735171Y-11703052D01*
X22730409Y-11693528D01*
X22725648Y-11674481D01*
X22725648Y-11660195D01*
X22730409Y-11641148D01*
X22735171Y-11631624D01*
X22744695Y-11622100D01*
X22758981Y-11617338D01*
X22768505Y-11617338D01*
X22782790Y-11622100D01*
X22787552Y-11626862D01*
X22873267Y-11650671D02*
X22873267Y-11717338D01*
X22849457Y-11612576D02*
X22825648Y-11684005D01*
X22887552Y-11684005D01*
X22968505Y-11617338D02*
X22949457Y-11617338D01*
X22939933Y-11622100D01*
X22935171Y-11626862D01*
X22925648Y-11641148D01*
X22920886Y-11660195D01*
X22920886Y-11698290D01*
X22925648Y-11707814D01*
X22930409Y-11712576D01*
X22939933Y-11717338D01*
X22958981Y-11717338D01*
X22968505Y-11712576D01*
X22973267Y-11707814D01*
X22978028Y-11698290D01*
X22978028Y-11674481D01*
X22973267Y-11664957D01*
X22968505Y-11660195D01*
X22958981Y-11655433D01*
X22939933Y-11655433D01*
X22930409Y-11660195D01*
X22925648Y-11664957D01*
X22920886Y-11674481D01*
G04 #@! TO.C,C28*
X22622452Y-9485314D02*
X22617690Y-9490076D01*
X22603405Y-9494838D01*
X22593881Y-9494838D01*
X22579595Y-9490076D01*
X22570071Y-9480552D01*
X22565309Y-9471029D01*
X22560548Y-9451981D01*
X22560548Y-9437695D01*
X22565309Y-9418648D01*
X22570071Y-9409124D01*
X22579595Y-9399600D01*
X22593881Y-9394838D01*
X22603405Y-9394838D01*
X22617690Y-9399600D01*
X22622452Y-9404362D01*
X22660548Y-9404362D02*
X22665309Y-9399600D01*
X22674833Y-9394838D01*
X22698643Y-9394838D01*
X22708167Y-9399600D01*
X22712928Y-9404362D01*
X22717690Y-9413886D01*
X22717690Y-9423410D01*
X22712928Y-9437695D01*
X22655786Y-9494838D01*
X22717690Y-9494838D01*
X22774833Y-9437695D02*
X22765309Y-9432933D01*
X22760548Y-9428171D01*
X22755786Y-9418648D01*
X22755786Y-9413886D01*
X22760548Y-9404362D01*
X22765309Y-9399600D01*
X22774833Y-9394838D01*
X22793881Y-9394838D01*
X22803405Y-9399600D01*
X22808167Y-9404362D01*
X22812928Y-9413886D01*
X22812928Y-9418648D01*
X22808167Y-9428171D01*
X22803405Y-9432933D01*
X22793881Y-9437695D01*
X22774833Y-9437695D01*
X22765309Y-9442457D01*
X22760548Y-9447219D01*
X22755786Y-9456743D01*
X22755786Y-9475790D01*
X22760548Y-9485314D01*
X22765309Y-9490076D01*
X22774833Y-9494838D01*
X22793881Y-9494838D01*
X22803405Y-9490076D01*
X22808167Y-9485314D01*
X22812928Y-9475790D01*
X22812928Y-9456743D01*
X22808167Y-9447219D01*
X22803405Y-9442457D01*
X22793881Y-9437695D01*
G04 #@! TO.C,C31*
X26387752Y-4164014D02*
X26382990Y-4168776D01*
X26368705Y-4173538D01*
X26359181Y-4173538D01*
X26344895Y-4168776D01*
X26335371Y-4159252D01*
X26330609Y-4149728D01*
X26325848Y-4130681D01*
X26325848Y-4116395D01*
X26330609Y-4097348D01*
X26335371Y-4087824D01*
X26344895Y-4078300D01*
X26359181Y-4073538D01*
X26368705Y-4073538D01*
X26382990Y-4078300D01*
X26387752Y-4083062D01*
X26421086Y-4073538D02*
X26482990Y-4073538D01*
X26449657Y-4111633D01*
X26463943Y-4111633D01*
X26473467Y-4116395D01*
X26478228Y-4121157D01*
X26482990Y-4130681D01*
X26482990Y-4154490D01*
X26478228Y-4164014D01*
X26473467Y-4168776D01*
X26463943Y-4173538D01*
X26435371Y-4173538D01*
X26425848Y-4168776D01*
X26421086Y-4164014D01*
X26578228Y-4173538D02*
X26521086Y-4173538D01*
X26549657Y-4173538D02*
X26549657Y-4073538D01*
X26540133Y-4087824D01*
X26530609Y-4097348D01*
X26521086Y-4102109D01*
G04 #@! TO.C,C30*
X27067452Y-3363914D02*
X27062690Y-3368676D01*
X27048405Y-3373438D01*
X27038881Y-3373438D01*
X27024595Y-3368676D01*
X27015071Y-3359152D01*
X27010309Y-3349628D01*
X27005548Y-3330581D01*
X27005548Y-3316295D01*
X27010309Y-3297248D01*
X27015071Y-3287724D01*
X27024595Y-3278200D01*
X27038881Y-3273438D01*
X27048405Y-3273438D01*
X27062690Y-3278200D01*
X27067452Y-3282962D01*
X27100786Y-3273438D02*
X27162690Y-3273438D01*
X27129357Y-3311533D01*
X27143643Y-3311533D01*
X27153167Y-3316295D01*
X27157928Y-3321057D01*
X27162690Y-3330581D01*
X27162690Y-3354390D01*
X27157928Y-3363914D01*
X27153167Y-3368676D01*
X27143643Y-3373438D01*
X27115071Y-3373438D01*
X27105548Y-3368676D01*
X27100786Y-3363914D01*
X27224595Y-3273438D02*
X27234119Y-3273438D01*
X27243643Y-3278200D01*
X27248405Y-3282962D01*
X27253167Y-3292486D01*
X27257928Y-3311533D01*
X27257928Y-3335343D01*
X27253167Y-3354390D01*
X27248405Y-3363914D01*
X27243643Y-3368676D01*
X27234119Y-3373438D01*
X27224595Y-3373438D01*
X27215071Y-3368676D01*
X27210309Y-3363914D01*
X27205548Y-3354390D01*
X27200786Y-3335343D01*
X27200786Y-3311533D01*
X27205548Y-3292486D01*
X27210309Y-3282962D01*
X27215071Y-3278200D01*
X27224595Y-3273438D01*
G04 #@! TO.C,J15*
D13*
X26397638Y-14990652D02*
X26469067Y-14990652D01*
X26483352Y-14995414D01*
X26492876Y-15004938D01*
X26497638Y-15019224D01*
X26497638Y-15028748D01*
X26497638Y-14890652D02*
X26497638Y-14947795D01*
X26497638Y-14919224D02*
X26397638Y-14919224D01*
X26411924Y-14928748D01*
X26421448Y-14938271D01*
X26426209Y-14947795D01*
X26397638Y-14800176D02*
X26397638Y-14847795D01*
X26445257Y-14852557D01*
X26440495Y-14847795D01*
X26435733Y-14838271D01*
X26435733Y-14814462D01*
X26440495Y-14804938D01*
X26445257Y-14800176D01*
X26454781Y-14795414D01*
X26478590Y-14795414D01*
X26488114Y-14800176D01*
X26492876Y-14804938D01*
X26497638Y-14814462D01*
X26497638Y-14838271D01*
X26492876Y-14847795D01*
X26488114Y-14852557D01*
G04 #@! TO.C,J17*
X26397638Y-10317052D02*
X26469067Y-10317052D01*
X26483352Y-10321814D01*
X26492876Y-10331338D01*
X26497638Y-10345624D01*
X26497638Y-10355148D01*
X26497638Y-10217052D02*
X26497638Y-10274195D01*
X26497638Y-10245624D02*
X26397638Y-10245624D01*
X26411924Y-10255148D01*
X26421448Y-10264671D01*
X26426209Y-10274195D01*
X26397638Y-10183719D02*
X26397638Y-10117052D01*
X26497638Y-10159910D01*
G04 #@! TO.C,U3*
X9690110Y-10227038D02*
X9690110Y-10307990D01*
X9694871Y-10317514D01*
X9699633Y-10322276D01*
X9709157Y-10327038D01*
X9728205Y-10327038D01*
X9737729Y-10322276D01*
X9742490Y-10317514D01*
X9747252Y-10307990D01*
X9747252Y-10227038D01*
X9785348Y-10227038D02*
X9847252Y-10227038D01*
X9813919Y-10265133D01*
X9828205Y-10265133D01*
X9837729Y-10269895D01*
X9842490Y-10274657D01*
X9847252Y-10284181D01*
X9847252Y-10307990D01*
X9842490Y-10317514D01*
X9837729Y-10322276D01*
X9828205Y-10327038D01*
X9799633Y-10327038D01*
X9790110Y-10322276D01*
X9785348Y-10317514D01*
G04 #@! TO.C,R176*
X11726271Y-11265005D02*
X11692937Y-11217386D01*
X11669128Y-11265005D02*
X11669128Y-11165005D01*
X11707223Y-11165005D01*
X11716747Y-11169767D01*
X11721509Y-11174529D01*
X11726271Y-11184052D01*
X11726271Y-11198338D01*
X11721509Y-11207862D01*
X11716747Y-11212624D01*
X11707223Y-11217386D01*
X11669128Y-11217386D01*
X11821509Y-11265005D02*
X11764366Y-11265005D01*
X11792937Y-11265005D02*
X11792937Y-11165005D01*
X11783413Y-11179291D01*
X11773890Y-11188814D01*
X11764366Y-11193576D01*
X11854842Y-11165005D02*
X11921509Y-11165005D01*
X11878652Y-11265005D01*
X12002461Y-11165005D02*
X11983413Y-11165005D01*
X11973890Y-11169767D01*
X11969128Y-11174529D01*
X11959604Y-11188814D01*
X11954842Y-11207862D01*
X11954842Y-11245957D01*
X11959604Y-11255481D01*
X11964366Y-11260243D01*
X11973890Y-11265005D01*
X11992937Y-11265005D01*
X12002461Y-11260243D01*
X12007223Y-11255481D01*
X12011985Y-11245957D01*
X12011985Y-11222148D01*
X12007223Y-11212624D01*
X12002461Y-11207862D01*
X11992937Y-11203100D01*
X11973890Y-11203100D01*
X11964366Y-11207862D01*
X11959604Y-11212624D01*
X11954842Y-11222148D01*
G04 #@! TO.C,R175*
X11730785Y-11888784D02*
X11697452Y-11841165D01*
X11673642Y-11888784D02*
X11673642Y-11788784D01*
X11711737Y-11788784D01*
X11721261Y-11793546D01*
X11726023Y-11798308D01*
X11730785Y-11807832D01*
X11730785Y-11822118D01*
X11726023Y-11831641D01*
X11721261Y-11836403D01*
X11711737Y-11841165D01*
X11673642Y-11841165D01*
X11826023Y-11888784D02*
X11768880Y-11888784D01*
X11797452Y-11888784D02*
X11797452Y-11788784D01*
X11787928Y-11803070D01*
X11778404Y-11812594D01*
X11768880Y-11817356D01*
X11859356Y-11788784D02*
X11926023Y-11788784D01*
X11883166Y-11888784D01*
X12011737Y-11788784D02*
X11964118Y-11788784D01*
X11959356Y-11836403D01*
X11964118Y-11831641D01*
X11973642Y-11826880D01*
X11997452Y-11826880D01*
X12006976Y-11831641D01*
X12011737Y-11836403D01*
X12016499Y-11845927D01*
X12016499Y-11869737D01*
X12011737Y-11879260D01*
X12006976Y-11884022D01*
X11997452Y-11888784D01*
X11973642Y-11888784D01*
X11964118Y-11884022D01*
X11959356Y-11879260D01*
G04 #@! TO.C,R172*
X11000595Y-12732538D02*
X10967262Y-12684919D01*
X10943452Y-12732538D02*
X10943452Y-12632538D01*
X10981548Y-12632538D01*
X10991071Y-12637300D01*
X10995833Y-12642062D01*
X11000595Y-12651586D01*
X11000595Y-12665871D01*
X10995833Y-12675395D01*
X10991071Y-12680157D01*
X10981548Y-12684919D01*
X10943452Y-12684919D01*
X11095833Y-12732538D02*
X11038690Y-12732538D01*
X11067262Y-12732538D02*
X11067262Y-12632538D01*
X11057738Y-12646824D01*
X11048214Y-12656348D01*
X11038690Y-12661109D01*
X11129167Y-12632538D02*
X11195833Y-12632538D01*
X11152976Y-12732538D01*
X11229167Y-12642062D02*
X11233928Y-12637300D01*
X11243452Y-12632538D01*
X11267262Y-12632538D01*
X11276786Y-12637300D01*
X11281548Y-12642062D01*
X11286309Y-12651586D01*
X11286309Y-12661109D01*
X11281548Y-12675395D01*
X11224405Y-12732538D01*
X11286309Y-12732538D01*
G04 #@! TO.C,R171*
X11324385Y-12741984D02*
X11291052Y-12694365D01*
X11267242Y-12741984D02*
X11267242Y-12641984D01*
X11305337Y-12641984D01*
X11314861Y-12646746D01*
X11319623Y-12651508D01*
X11324385Y-12661032D01*
X11324385Y-12675318D01*
X11319623Y-12684841D01*
X11314861Y-12689603D01*
X11305337Y-12694365D01*
X11267242Y-12694365D01*
X11419623Y-12741984D02*
X11362480Y-12741984D01*
X11391052Y-12741984D02*
X11391052Y-12641984D01*
X11381528Y-12656270D01*
X11372004Y-12665794D01*
X11362480Y-12670556D01*
X11452956Y-12641984D02*
X11519623Y-12641984D01*
X11476766Y-12741984D01*
X11610099Y-12741984D02*
X11552956Y-12741984D01*
X11581528Y-12741984D02*
X11581528Y-12641984D01*
X11572004Y-12656270D01*
X11562480Y-12665794D01*
X11552956Y-12670556D01*
G04 #@! TO.C,R10*
X20019638Y-13257286D02*
X19972019Y-13290619D01*
X20019638Y-13314428D02*
X19919638Y-13314428D01*
X19919638Y-13276333D01*
X19924400Y-13266809D01*
X19929162Y-13262048D01*
X19938686Y-13257286D01*
X19952971Y-13257286D01*
X19962495Y-13262048D01*
X19967257Y-13266809D01*
X19972019Y-13276333D01*
X19972019Y-13314428D01*
X20019638Y-13162048D02*
X20019638Y-13219190D01*
X20019638Y-13190619D02*
X19919638Y-13190619D01*
X19933924Y-13200143D01*
X19943448Y-13209667D01*
X19948210Y-13219190D01*
X19919638Y-13100143D02*
X19919638Y-13090619D01*
X19924400Y-13081095D01*
X19929162Y-13076333D01*
X19938686Y-13071571D01*
X19957733Y-13066809D01*
X19981543Y-13066809D01*
X20000590Y-13071571D01*
X20010114Y-13076333D01*
X20014876Y-13081095D01*
X20019638Y-13090619D01*
X20019638Y-13100143D01*
X20014876Y-13109667D01*
X20010114Y-13114428D01*
X20000590Y-13119190D01*
X19981543Y-13123952D01*
X19957733Y-13123952D01*
X19938686Y-13119190D01*
X19929162Y-13114428D01*
X19924400Y-13109667D01*
X19919638Y-13100143D01*
G04 #@! TO.C,R9*
X19615938Y-13211967D02*
X19568319Y-13245300D01*
X19615938Y-13269109D02*
X19515938Y-13269109D01*
X19515938Y-13231014D01*
X19520700Y-13221490D01*
X19525462Y-13216728D01*
X19534986Y-13211967D01*
X19549271Y-13211967D01*
X19558795Y-13216728D01*
X19563557Y-13221490D01*
X19568319Y-13231014D01*
X19568319Y-13269109D01*
X19615938Y-13164348D02*
X19615938Y-13145300D01*
X19611176Y-13135776D01*
X19606414Y-13131014D01*
X19592129Y-13121490D01*
X19573081Y-13116728D01*
X19534986Y-13116728D01*
X19525462Y-13121490D01*
X19520700Y-13126252D01*
X19515938Y-13135776D01*
X19515938Y-13154824D01*
X19520700Y-13164348D01*
X19525462Y-13169109D01*
X19534986Y-13173871D01*
X19558795Y-13173871D01*
X19568319Y-13169109D01*
X19573081Y-13164348D01*
X19577843Y-13154824D01*
X19577843Y-13135776D01*
X19573081Y-13126252D01*
X19568319Y-13121490D01*
X19558795Y-13116728D01*
G04 #@! TO.C,R8*
X24083638Y-13148467D02*
X24036019Y-13181800D01*
X24083638Y-13205609D02*
X23983638Y-13205609D01*
X23983638Y-13167514D01*
X23988400Y-13157990D01*
X23993162Y-13153228D01*
X24002686Y-13148467D01*
X24016971Y-13148467D01*
X24026495Y-13153228D01*
X24031257Y-13157990D01*
X24036019Y-13167514D01*
X24036019Y-13205609D01*
X24026495Y-13091324D02*
X24021733Y-13100848D01*
X24016971Y-13105609D01*
X24007448Y-13110371D01*
X24002686Y-13110371D01*
X23993162Y-13105609D01*
X23988400Y-13100848D01*
X23983638Y-13091324D01*
X23983638Y-13072276D01*
X23988400Y-13062752D01*
X23993162Y-13057990D01*
X24002686Y-13053228D01*
X24007448Y-13053228D01*
X24016971Y-13057990D01*
X24021733Y-13062752D01*
X24026495Y-13072276D01*
X24026495Y-13091324D01*
X24031257Y-13100848D01*
X24036019Y-13105609D01*
X24045543Y-13110371D01*
X24064590Y-13110371D01*
X24074114Y-13105609D01*
X24078876Y-13100848D01*
X24083638Y-13091324D01*
X24083638Y-13072276D01*
X24078876Y-13062752D01*
X24074114Y-13057990D01*
X24064590Y-13053228D01*
X24045543Y-13053228D01*
X24036019Y-13057990D01*
X24031257Y-13062752D01*
X24026495Y-13072276D01*
G04 #@! TO.C,R7*
X21988138Y-13262767D02*
X21940519Y-13296100D01*
X21988138Y-13319909D02*
X21888138Y-13319909D01*
X21888138Y-13281814D01*
X21892900Y-13272290D01*
X21897662Y-13267528D01*
X21907186Y-13262767D01*
X21921471Y-13262767D01*
X21930995Y-13267528D01*
X21935757Y-13272290D01*
X21940519Y-13281814D01*
X21940519Y-13319909D01*
X21888138Y-13229433D02*
X21888138Y-13162767D01*
X21988138Y-13205624D01*
G04 #@! TO.C,R6*
X23664538Y-13135767D02*
X23616919Y-13169100D01*
X23664538Y-13192909D02*
X23564538Y-13192909D01*
X23564538Y-13154814D01*
X23569300Y-13145290D01*
X23574062Y-13140528D01*
X23583586Y-13135767D01*
X23597871Y-13135767D01*
X23607395Y-13140528D01*
X23612157Y-13145290D01*
X23616919Y-13154814D01*
X23616919Y-13192909D01*
X23564538Y-13050052D02*
X23564538Y-13069100D01*
X23569300Y-13078624D01*
X23574062Y-13083386D01*
X23588348Y-13092909D01*
X23607395Y-13097671D01*
X23645490Y-13097671D01*
X23655014Y-13092909D01*
X23659776Y-13088148D01*
X23664538Y-13078624D01*
X23664538Y-13059576D01*
X23659776Y-13050052D01*
X23655014Y-13045290D01*
X23645490Y-13040528D01*
X23621681Y-13040528D01*
X23612157Y-13045290D01*
X23607395Y-13050052D01*
X23602633Y-13059576D01*
X23602633Y-13078624D01*
X23607395Y-13088148D01*
X23612157Y-13092909D01*
X23621681Y-13097671D01*
G04 #@! TO.C,R5*
X21607138Y-13275467D02*
X21559519Y-13308800D01*
X21607138Y-13332609D02*
X21507138Y-13332609D01*
X21507138Y-13294514D01*
X21511900Y-13284990D01*
X21516662Y-13280228D01*
X21526186Y-13275467D01*
X21540471Y-13275467D01*
X21549995Y-13280228D01*
X21554757Y-13284990D01*
X21559519Y-13294514D01*
X21559519Y-13332609D01*
X21507138Y-13184990D02*
X21507138Y-13232609D01*
X21554757Y-13237371D01*
X21549995Y-13232609D01*
X21545233Y-13223086D01*
X21545233Y-13199276D01*
X21549995Y-13189752D01*
X21554757Y-13184990D01*
X21564281Y-13180228D01*
X21588090Y-13180228D01*
X21597614Y-13184990D01*
X21602376Y-13189752D01*
X21607138Y-13199276D01*
X21607138Y-13223086D01*
X21602376Y-13232609D01*
X21597614Y-13237371D01*
G04 #@! TO.C,R3*
X9902033Y-13573438D02*
X9868700Y-13525819D01*
X9844890Y-13573438D02*
X9844890Y-13473438D01*
X9882986Y-13473438D01*
X9892510Y-13478200D01*
X9897271Y-13482962D01*
X9902033Y-13492486D01*
X9902033Y-13506771D01*
X9897271Y-13516295D01*
X9892510Y-13521057D01*
X9882986Y-13525819D01*
X9844890Y-13525819D01*
X9935367Y-13473438D02*
X9997271Y-13473438D01*
X9963938Y-13511533D01*
X9978224Y-13511533D01*
X9987748Y-13516295D01*
X9992510Y-13521057D01*
X9997271Y-13530581D01*
X9997271Y-13554390D01*
X9992510Y-13563914D01*
X9987748Y-13568676D01*
X9978224Y-13573438D01*
X9949652Y-13573438D01*
X9940129Y-13568676D01*
X9935367Y-13563914D01*
G04 #@! TO.C,R2*
X8697523Y-16802573D02*
X8664190Y-16754954D01*
X8640380Y-16802573D02*
X8640380Y-16702573D01*
X8678475Y-16702573D01*
X8687999Y-16707335D01*
X8692761Y-16712097D01*
X8697523Y-16721620D01*
X8697523Y-16735906D01*
X8692761Y-16745430D01*
X8687999Y-16750192D01*
X8678475Y-16754954D01*
X8640380Y-16754954D01*
X8735618Y-16712097D02*
X8740380Y-16707335D01*
X8749904Y-16702573D01*
X8773714Y-16702573D01*
X8783237Y-16707335D01*
X8787999Y-16712097D01*
X8792761Y-16721620D01*
X8792761Y-16731144D01*
X8787999Y-16745430D01*
X8730856Y-16802573D01*
X8792761Y-16802573D01*
G04 #@! TO.C,R1*
X9114633Y-16793838D02*
X9081300Y-16746219D01*
X9057490Y-16793838D02*
X9057490Y-16693838D01*
X9095586Y-16693838D01*
X9105110Y-16698600D01*
X9109871Y-16703362D01*
X9114633Y-16712886D01*
X9114633Y-16727171D01*
X9109871Y-16736695D01*
X9105110Y-16741457D01*
X9095586Y-16746219D01*
X9057490Y-16746219D01*
X9209871Y-16793838D02*
X9152729Y-16793838D01*
X9181300Y-16793838D02*
X9181300Y-16693838D01*
X9171776Y-16708124D01*
X9162252Y-16717648D01*
X9152729Y-16722409D01*
G04 #@! TO.C,R4*
X9432133Y-12285338D02*
X9398800Y-12237719D01*
X9374990Y-12285338D02*
X9374990Y-12185338D01*
X9413086Y-12185338D01*
X9422610Y-12190100D01*
X9427371Y-12194862D01*
X9432133Y-12204386D01*
X9432133Y-12218671D01*
X9427371Y-12228195D01*
X9422610Y-12232957D01*
X9413086Y-12237719D01*
X9374990Y-12237719D01*
X9517848Y-12218671D02*
X9517848Y-12285338D01*
X9494038Y-12180576D02*
X9470229Y-12252005D01*
X9532133Y-12252005D01*
G04 #@! TO.C,Y1*
D12*
X10543257Y-13201619D02*
X10543257Y-13249238D01*
X10509924Y-13149238D02*
X10543257Y-13201619D01*
X10576590Y-13149238D01*
X10662305Y-13249238D02*
X10605162Y-13249238D01*
X10633733Y-13249238D02*
X10633733Y-13149238D01*
X10624210Y-13163524D01*
X10614686Y-13173048D01*
X10605162Y-13177809D01*
G04 #@! TO.C,Y2*
X22112957Y-13963619D02*
X22112957Y-14011238D01*
X22079624Y-13911238D02*
X22112957Y-13963619D01*
X22146290Y-13911238D01*
X22174862Y-13920762D02*
X22179624Y-13916000D01*
X22189148Y-13911238D01*
X22212957Y-13911238D01*
X22222481Y-13916000D01*
X22227243Y-13920762D01*
X22232005Y-13930286D01*
X22232005Y-13939809D01*
X22227243Y-13954095D01*
X22170100Y-14011238D01*
X22232005Y-14011238D01*
G04 #@! TO.C,Y3*
X24500557Y-13963619D02*
X24500557Y-14011238D01*
X24467224Y-13911238D02*
X24500557Y-13963619D01*
X24533890Y-13911238D01*
X24557700Y-13911238D02*
X24619605Y-13911238D01*
X24586271Y-13949333D01*
X24600557Y-13949333D01*
X24610081Y-13954095D01*
X24614843Y-13958857D01*
X24619605Y-13968381D01*
X24619605Y-13992190D01*
X24614843Y-14001714D01*
X24610081Y-14006476D01*
X24600557Y-14011238D01*
X24571986Y-14011238D01*
X24562462Y-14006476D01*
X24557700Y-14001714D01*
G04 #@! TO.C,Y5*
X21034419Y-15755443D02*
X21082038Y-15755443D01*
X20982038Y-15788776D02*
X21034419Y-15755443D01*
X20982038Y-15722109D01*
X20982038Y-15641157D02*
X20982038Y-15688776D01*
X21029657Y-15693538D01*
X21024895Y-15688776D01*
X21020133Y-15679252D01*
X21020133Y-15655443D01*
X21024895Y-15645919D01*
X21029657Y-15641157D01*
X21039181Y-15636395D01*
X21062990Y-15636395D01*
X21072514Y-15641157D01*
X21077276Y-15645919D01*
X21082038Y-15655443D01*
X21082038Y-15679252D01*
X21077276Y-15688776D01*
X21072514Y-15693538D01*
G04 #@! TO.C,Z1*
D13*
X5120038Y-12579952D02*
X5120038Y-12513286D01*
X5220038Y-12579952D01*
X5220038Y-12513286D01*
X5220038Y-12422809D02*
X5220038Y-12479952D01*
X5220038Y-12451381D02*
X5120038Y-12451381D01*
X5134324Y-12460905D01*
X5143848Y-12470428D01*
X5148610Y-12479952D01*
G04 #@! TO.C,Z2*
X5120038Y-7906352D02*
X5120038Y-7839686D01*
X5220038Y-7906352D01*
X5220038Y-7839686D01*
X5129562Y-7806352D02*
X5124800Y-7801590D01*
X5120038Y-7792067D01*
X5120038Y-7768257D01*
X5124800Y-7758733D01*
X5129562Y-7753971D01*
X5139086Y-7749209D01*
X5148610Y-7749209D01*
X5162895Y-7753971D01*
X5220038Y-7811114D01*
X5220038Y-7749209D01*
G04 #@! TO.C,Z3*
X10330848Y-2986438D02*
X10397514Y-2986438D01*
X10330848Y-3086438D01*
X10397514Y-3086438D01*
X10426086Y-2986438D02*
X10487990Y-2986438D01*
X10454657Y-3024533D01*
X10468943Y-3024533D01*
X10478467Y-3029295D01*
X10483229Y-3034057D01*
X10487990Y-3043581D01*
X10487990Y-3067390D01*
X10483229Y-3076914D01*
X10478467Y-3081676D01*
X10468943Y-3086438D01*
X10440371Y-3086438D01*
X10430848Y-3081676D01*
X10426086Y-3076914D01*
G04 #@! TO.C,Z4*
X14902848Y-2986438D02*
X14969514Y-2986438D01*
X14902848Y-3086438D01*
X14969514Y-3086438D01*
X15050467Y-3019771D02*
X15050467Y-3086438D01*
X15026657Y-2981676D02*
X15002848Y-3053105D01*
X15064752Y-3053105D01*
G04 #@! TO.C,Z5*
X19424048Y-2986438D02*
X19490714Y-2986438D01*
X19424048Y-3086438D01*
X19490714Y-3086438D01*
X19576429Y-2986438D02*
X19528810Y-2986438D01*
X19524048Y-3034057D01*
X19528810Y-3029295D01*
X19538333Y-3024533D01*
X19562143Y-3024533D01*
X19571667Y-3029295D01*
X19576429Y-3034057D01*
X19581190Y-3043581D01*
X19581190Y-3067390D01*
X19576429Y-3076914D01*
X19571667Y-3081676D01*
X19562143Y-3086438D01*
X19538333Y-3086438D01*
X19528810Y-3081676D01*
X19524048Y-3076914D01*
G04 #@! TO.C,Z6*
X5120038Y-14510352D02*
X5120038Y-14443686D01*
X5220038Y-14510352D01*
X5220038Y-14443686D01*
X5120038Y-14362733D02*
X5120038Y-14381781D01*
X5124800Y-14391305D01*
X5129562Y-14396067D01*
X5143848Y-14405590D01*
X5162895Y-14410352D01*
X5200990Y-14410352D01*
X5210514Y-14405590D01*
X5215276Y-14400828D01*
X5220038Y-14391305D01*
X5220038Y-14372257D01*
X5215276Y-14362733D01*
X5210514Y-14357971D01*
X5200990Y-14353209D01*
X5177181Y-14353209D01*
X5167657Y-14357971D01*
X5162895Y-14362733D01*
X5158133Y-14372257D01*
X5158133Y-14391305D01*
X5162895Y-14400828D01*
X5167657Y-14405590D01*
X5177181Y-14410352D01*
G04 #@! TO.C,Z7*
X5120038Y-9887552D02*
X5120038Y-9820886D01*
X5220038Y-9887552D01*
X5220038Y-9820886D01*
X5120038Y-9792314D02*
X5120038Y-9725648D01*
X5220038Y-9768505D01*
G04 #@! TO.C,Z8*
X8298848Y-2986438D02*
X8365514Y-2986438D01*
X8298848Y-3086438D01*
X8365514Y-3086438D01*
X8417895Y-3029295D02*
X8408371Y-3024533D01*
X8403610Y-3019771D01*
X8398848Y-3010248D01*
X8398848Y-3005486D01*
X8403610Y-2995962D01*
X8408371Y-2991200D01*
X8417895Y-2986438D01*
X8436943Y-2986438D01*
X8446467Y-2991200D01*
X8451229Y-2995962D01*
X8455990Y-3005486D01*
X8455990Y-3010248D01*
X8451229Y-3019771D01*
X8446467Y-3024533D01*
X8436943Y-3029295D01*
X8417895Y-3029295D01*
X8408371Y-3034057D01*
X8403610Y-3038819D01*
X8398848Y-3048343D01*
X8398848Y-3067390D01*
X8403610Y-3076914D01*
X8408371Y-3081676D01*
X8417895Y-3086438D01*
X8436943Y-3086438D01*
X8446467Y-3081676D01*
X8451229Y-3076914D01*
X8455990Y-3067390D01*
X8455990Y-3048343D01*
X8451229Y-3038819D01*
X8446467Y-3034057D01*
X8436943Y-3029295D01*
G04 #@! TO.C,Z9*
X12921648Y-2986438D02*
X12988314Y-2986438D01*
X12921648Y-3086438D01*
X12988314Y-3086438D01*
X13031171Y-3086438D02*
X13050219Y-3086438D01*
X13059743Y-3081676D01*
X13064505Y-3076914D01*
X13074028Y-3062628D01*
X13078790Y-3043581D01*
X13078790Y-3005486D01*
X13074028Y-2995962D01*
X13069267Y-2991200D01*
X13059743Y-2986438D01*
X13040695Y-2986438D01*
X13031171Y-2991200D01*
X13026409Y-2995962D01*
X13021648Y-3005486D01*
X13021648Y-3029295D01*
X13026409Y-3038819D01*
X13031171Y-3043581D01*
X13040695Y-3048343D01*
X13059743Y-3048343D01*
X13069267Y-3043581D01*
X13074028Y-3038819D01*
X13078790Y-3029295D01*
G04 #@! TO.C,Z10*
X17395229Y-2986438D02*
X17461895Y-2986438D01*
X17395229Y-3086438D01*
X17461895Y-3086438D01*
X17552371Y-3086438D02*
X17495229Y-3086438D01*
X17523800Y-3086438D02*
X17523800Y-2986438D01*
X17514276Y-3000724D01*
X17504752Y-3010248D01*
X17495229Y-3015009D01*
X17614276Y-2986438D02*
X17623800Y-2986438D01*
X17633324Y-2991200D01*
X17638086Y-2995962D01*
X17642848Y-3005486D01*
X17647610Y-3024533D01*
X17647610Y-3048343D01*
X17642848Y-3067390D01*
X17638086Y-3076914D01*
X17633324Y-3081676D01*
X17623800Y-3086438D01*
X17614276Y-3086438D01*
X17604752Y-3081676D01*
X17599990Y-3076914D01*
X17595229Y-3067390D01*
X17590467Y-3048343D01*
X17590467Y-3024533D01*
X17595229Y-3005486D01*
X17599990Y-2995962D01*
X17604752Y-2991200D01*
X17614276Y-2986438D01*
G04 #@! TO.C,U15*
X23753190Y-11426038D02*
X23753190Y-11506990D01*
X23757952Y-11516514D01*
X23762714Y-11521276D01*
X23772238Y-11526038D01*
X23791286Y-11526038D01*
X23800809Y-11521276D01*
X23805571Y-11516514D01*
X23810333Y-11506990D01*
X23810333Y-11426038D01*
X23910333Y-11526038D02*
X23853190Y-11526038D01*
X23881762Y-11526038D02*
X23881762Y-11426038D01*
X23872238Y-11440324D01*
X23862714Y-11449848D01*
X23853190Y-11454609D01*
X24000809Y-11426038D02*
X23953190Y-11426038D01*
X23948428Y-11473657D01*
X23953190Y-11468895D01*
X23962714Y-11464133D01*
X23986524Y-11464133D01*
X23996048Y-11468895D01*
X24000809Y-11473657D01*
X24005571Y-11483181D01*
X24005571Y-11506990D01*
X24000809Y-11516514D01*
X23996048Y-11521276D01*
X23986524Y-11526038D01*
X23962714Y-11526038D01*
X23953190Y-11521276D01*
X23948428Y-11516514D01*
G04 #@! TO.C,RLY4*
X15902938Y-4730000D02*
X15855319Y-4763333D01*
X15902938Y-4787143D02*
X15802938Y-4787143D01*
X15802938Y-4749048D01*
X15807700Y-4739524D01*
X15812462Y-4734762D01*
X15821986Y-4730000D01*
X15836271Y-4730000D01*
X15845795Y-4734762D01*
X15850557Y-4739524D01*
X15855319Y-4749048D01*
X15855319Y-4787143D01*
X15902938Y-4639524D02*
X15902938Y-4687143D01*
X15802938Y-4687143D01*
X15855319Y-4587143D02*
X15902938Y-4587143D01*
X15802938Y-4620476D02*
X15855319Y-4587143D01*
X15802938Y-4553810D01*
X15836271Y-4477619D02*
X15902938Y-4477619D01*
X15798176Y-4501429D02*
X15869605Y-4525238D01*
X15869605Y-4463333D01*
G04 #@! TO.C,RLY5*
X20474938Y-4730000D02*
X20427319Y-4763333D01*
X20474938Y-4787143D02*
X20374938Y-4787143D01*
X20374938Y-4749048D01*
X20379700Y-4739524D01*
X20384462Y-4734762D01*
X20393986Y-4730000D01*
X20408271Y-4730000D01*
X20417795Y-4734762D01*
X20422557Y-4739524D01*
X20427319Y-4749048D01*
X20427319Y-4787143D01*
X20474938Y-4639524D02*
X20474938Y-4687143D01*
X20374938Y-4687143D01*
X20427319Y-4587143D02*
X20474938Y-4587143D01*
X20374938Y-4620476D02*
X20427319Y-4587143D01*
X20374938Y-4553810D01*
X20374938Y-4472857D02*
X20374938Y-4520476D01*
X20422557Y-4525238D01*
X20417795Y-4520476D01*
X20413033Y-4510952D01*
X20413033Y-4487143D01*
X20417795Y-4477619D01*
X20422557Y-4472857D01*
X20432081Y-4468095D01*
X20455890Y-4468095D01*
X20465414Y-4472857D01*
X20470176Y-4477619D01*
X20474938Y-4487143D01*
X20474938Y-4510952D01*
X20470176Y-4520476D01*
X20465414Y-4525238D01*
G04 #@! TO.C,RLY6*
X6663600Y-13549938D02*
X6630267Y-13502319D01*
X6606457Y-13549938D02*
X6606457Y-13449938D01*
X6644552Y-13449938D01*
X6654076Y-13454700D01*
X6658838Y-13459462D01*
X6663600Y-13468986D01*
X6663600Y-13483271D01*
X6658838Y-13492795D01*
X6654076Y-13497557D01*
X6644552Y-13502319D01*
X6606457Y-13502319D01*
X6754076Y-13549938D02*
X6706457Y-13549938D01*
X6706457Y-13449938D01*
X6806457Y-13502319D02*
X6806457Y-13549938D01*
X6773124Y-13449938D02*
X6806457Y-13502319D01*
X6839790Y-13449938D01*
X6915981Y-13449938D02*
X6896933Y-13449938D01*
X6887409Y-13454700D01*
X6882648Y-13459462D01*
X6873124Y-13473748D01*
X6868362Y-13492795D01*
X6868362Y-13530890D01*
X6873124Y-13540414D01*
X6877886Y-13545176D01*
X6887409Y-13549938D01*
X6906457Y-13549938D01*
X6915981Y-13545176D01*
X6920743Y-13540414D01*
X6925505Y-13530890D01*
X6925505Y-13507081D01*
X6920743Y-13497557D01*
X6915981Y-13492795D01*
X6906457Y-13488033D01*
X6887409Y-13488033D01*
X6877886Y-13492795D01*
X6873124Y-13497557D01*
X6868362Y-13507081D01*
G04 #@! TO.C,RLY3*
X11330938Y-4730000D02*
X11283319Y-4763333D01*
X11330938Y-4787143D02*
X11230938Y-4787143D01*
X11230938Y-4749048D01*
X11235700Y-4739524D01*
X11240462Y-4734762D01*
X11249986Y-4730000D01*
X11264271Y-4730000D01*
X11273795Y-4734762D01*
X11278557Y-4739524D01*
X11283319Y-4749048D01*
X11283319Y-4787143D01*
X11330938Y-4639524D02*
X11330938Y-4687143D01*
X11230938Y-4687143D01*
X11283319Y-4587143D02*
X11330938Y-4587143D01*
X11230938Y-4620476D02*
X11283319Y-4587143D01*
X11230938Y-4553810D01*
X11230938Y-4530000D02*
X11230938Y-4468095D01*
X11269033Y-4501429D01*
X11269033Y-4487143D01*
X11273795Y-4477619D01*
X11278557Y-4472857D01*
X11288081Y-4468095D01*
X11311890Y-4468095D01*
X11321414Y-4472857D01*
X11326176Y-4477619D01*
X11330938Y-4487143D01*
X11330938Y-4515714D01*
X11326176Y-4525238D01*
X11321414Y-4530000D01*
G04 #@! TO.C,RLY1*
X6663600Y-11568738D02*
X6630267Y-11521119D01*
X6606457Y-11568738D02*
X6606457Y-11468738D01*
X6644552Y-11468738D01*
X6654076Y-11473500D01*
X6658838Y-11478262D01*
X6663600Y-11487786D01*
X6663600Y-11502071D01*
X6658838Y-11511595D01*
X6654076Y-11516357D01*
X6644552Y-11521119D01*
X6606457Y-11521119D01*
X6754076Y-11568738D02*
X6706457Y-11568738D01*
X6706457Y-11468738D01*
X6806457Y-11521119D02*
X6806457Y-11568738D01*
X6773124Y-11468738D02*
X6806457Y-11521119D01*
X6839790Y-11468738D01*
X6925505Y-11568738D02*
X6868362Y-11568738D01*
X6896933Y-11568738D02*
X6896933Y-11468738D01*
X6887409Y-11483024D01*
X6877886Y-11492548D01*
X6868362Y-11497309D01*
G04 #@! TO.C,RLY7*
X6663600Y-8927138D02*
X6630267Y-8879519D01*
X6606457Y-8927138D02*
X6606457Y-8827138D01*
X6644552Y-8827138D01*
X6654076Y-8831900D01*
X6658838Y-8836662D01*
X6663600Y-8846186D01*
X6663600Y-8860471D01*
X6658838Y-8869995D01*
X6654076Y-8874757D01*
X6644552Y-8879519D01*
X6606457Y-8879519D01*
X6754076Y-8927138D02*
X6706457Y-8927138D01*
X6706457Y-8827138D01*
X6806457Y-8879519D02*
X6806457Y-8927138D01*
X6773124Y-8827138D02*
X6806457Y-8879519D01*
X6839790Y-8827138D01*
X6863600Y-8827138D02*
X6930267Y-8827138D01*
X6887409Y-8927138D01*
G04 #@! TO.C,RLY8*
X9298938Y-4730000D02*
X9251319Y-4763333D01*
X9298938Y-4787143D02*
X9198938Y-4787143D01*
X9198938Y-4749048D01*
X9203700Y-4739524D01*
X9208462Y-4734762D01*
X9217986Y-4730000D01*
X9232271Y-4730000D01*
X9241795Y-4734762D01*
X9246557Y-4739524D01*
X9251319Y-4749048D01*
X9251319Y-4787143D01*
X9298938Y-4639524D02*
X9298938Y-4687143D01*
X9198938Y-4687143D01*
X9251319Y-4587143D02*
X9298938Y-4587143D01*
X9198938Y-4620476D02*
X9251319Y-4587143D01*
X9198938Y-4553810D01*
X9241795Y-4506190D02*
X9237033Y-4515714D01*
X9232271Y-4520476D01*
X9222748Y-4525238D01*
X9217986Y-4525238D01*
X9208462Y-4520476D01*
X9203700Y-4515714D01*
X9198938Y-4506190D01*
X9198938Y-4487143D01*
X9203700Y-4477619D01*
X9208462Y-4472857D01*
X9217986Y-4468095D01*
X9222748Y-4468095D01*
X9232271Y-4472857D01*
X9237033Y-4477619D01*
X9241795Y-4487143D01*
X9241795Y-4506190D01*
X9246557Y-4515714D01*
X9251319Y-4520476D01*
X9260843Y-4525238D01*
X9279890Y-4525238D01*
X9289414Y-4520476D01*
X9294176Y-4515714D01*
X9298938Y-4506190D01*
X9298938Y-4487143D01*
X9294176Y-4477619D01*
X9289414Y-4472857D01*
X9279890Y-4468095D01*
X9260843Y-4468095D01*
X9251319Y-4472857D01*
X9246557Y-4477619D01*
X9241795Y-4487143D01*
G04 #@! TO.C,RLY9*
X13921738Y-4730000D02*
X13874119Y-4763333D01*
X13921738Y-4787143D02*
X13821738Y-4787143D01*
X13821738Y-4749048D01*
X13826500Y-4739524D01*
X13831262Y-4734762D01*
X13840786Y-4730000D01*
X13855071Y-4730000D01*
X13864595Y-4734762D01*
X13869357Y-4739524D01*
X13874119Y-4749048D01*
X13874119Y-4787143D01*
X13921738Y-4639524D02*
X13921738Y-4687143D01*
X13821738Y-4687143D01*
X13874119Y-4587143D02*
X13921738Y-4587143D01*
X13821738Y-4620476D02*
X13874119Y-4587143D01*
X13821738Y-4553810D01*
X13921738Y-4515714D02*
X13921738Y-4496667D01*
X13916976Y-4487143D01*
X13912214Y-4482381D01*
X13897928Y-4472857D01*
X13878881Y-4468095D01*
X13840786Y-4468095D01*
X13831262Y-4472857D01*
X13826500Y-4477619D01*
X13821738Y-4487143D01*
X13821738Y-4506190D01*
X13826500Y-4515714D01*
X13831262Y-4520476D01*
X13840786Y-4525238D01*
X13864595Y-4525238D01*
X13874119Y-4520476D01*
X13878881Y-4515714D01*
X13883643Y-4506190D01*
X13883643Y-4487143D01*
X13878881Y-4477619D01*
X13874119Y-4472857D01*
X13864595Y-4468095D01*
G04 #@! TO.C,RLY10*
X18493738Y-4777619D02*
X18446119Y-4810952D01*
X18493738Y-4834762D02*
X18393738Y-4834762D01*
X18393738Y-4796667D01*
X18398500Y-4787143D01*
X18403262Y-4782381D01*
X18412786Y-4777619D01*
X18427071Y-4777619D01*
X18436595Y-4782381D01*
X18441357Y-4787143D01*
X18446119Y-4796667D01*
X18446119Y-4834762D01*
X18493738Y-4687143D02*
X18493738Y-4734762D01*
X18393738Y-4734762D01*
X18446119Y-4634762D02*
X18493738Y-4634762D01*
X18393738Y-4668095D02*
X18446119Y-4634762D01*
X18393738Y-4601429D01*
X18493738Y-4515714D02*
X18493738Y-4572857D01*
X18493738Y-4544286D02*
X18393738Y-4544286D01*
X18408024Y-4553810D01*
X18417548Y-4563333D01*
X18422310Y-4572857D01*
X18393738Y-4453810D02*
X18393738Y-4444286D01*
X18398500Y-4434762D01*
X18403262Y-4430000D01*
X18412786Y-4425238D01*
X18431833Y-4420476D01*
X18455643Y-4420476D01*
X18474690Y-4425238D01*
X18484214Y-4430000D01*
X18488976Y-4434762D01*
X18493738Y-4444286D01*
X18493738Y-4453810D01*
X18488976Y-4463333D01*
X18484214Y-4468095D01*
X18474690Y-4472857D01*
X18455643Y-4477619D01*
X18431833Y-4477619D01*
X18412786Y-4472857D01*
X18403262Y-4468095D01*
X18398500Y-4463333D01*
X18393738Y-4453810D01*
G04 #@! TO.C,RLY2*
X6663600Y-6895138D02*
X6630267Y-6847519D01*
X6606457Y-6895138D02*
X6606457Y-6795138D01*
X6644552Y-6795138D01*
X6654076Y-6799900D01*
X6658838Y-6804662D01*
X6663600Y-6814186D01*
X6663600Y-6828471D01*
X6658838Y-6837995D01*
X6654076Y-6842757D01*
X6644552Y-6847519D01*
X6606457Y-6847519D01*
X6754076Y-6895138D02*
X6706457Y-6895138D01*
X6706457Y-6795138D01*
X6806457Y-6847519D02*
X6806457Y-6895138D01*
X6773124Y-6795138D02*
X6806457Y-6847519D01*
X6839790Y-6795138D01*
X6868362Y-6804662D02*
X6873124Y-6799900D01*
X6882648Y-6795138D01*
X6906457Y-6795138D01*
X6915981Y-6799900D01*
X6920743Y-6804662D01*
X6925505Y-6814186D01*
X6925505Y-6823709D01*
X6920743Y-6837995D01*
X6863600Y-6895138D01*
X6925505Y-6895138D01*
G04 #@! TO.C,U16*
X12181238Y-6600809D02*
X12262190Y-6600809D01*
X12271714Y-6596048D01*
X12276476Y-6591286D01*
X12281238Y-6581762D01*
X12281238Y-6562714D01*
X12276476Y-6553190D01*
X12271714Y-6548428D01*
X12262190Y-6543667D01*
X12181238Y-6543667D01*
X12281238Y-6443667D02*
X12281238Y-6500809D01*
X12281238Y-6472238D02*
X12181238Y-6472238D01*
X12195524Y-6481762D01*
X12205048Y-6491286D01*
X12209809Y-6500809D01*
X12181238Y-6357952D02*
X12181238Y-6377000D01*
X12186000Y-6386524D01*
X12190762Y-6391286D01*
X12205048Y-6400809D01*
X12224095Y-6405571D01*
X12262190Y-6405571D01*
X12271714Y-6400809D01*
X12276476Y-6396048D01*
X12281238Y-6386524D01*
X12281238Y-6367476D01*
X12276476Y-6357952D01*
X12271714Y-6353190D01*
X12262190Y-6348428D01*
X12238381Y-6348428D01*
X12228857Y-6353190D01*
X12224095Y-6357952D01*
X12219333Y-6367476D01*
X12219333Y-6386524D01*
X12224095Y-6396048D01*
X12228857Y-6400809D01*
X12238381Y-6405571D01*
G04 #@! TO.C,Q2*
X5273676Y-6071962D02*
X5264152Y-6067200D01*
X5254629Y-6057676D01*
X5240343Y-6043390D01*
X5230819Y-6038628D01*
X5221295Y-6038628D01*
X5226057Y-6062438D02*
X5216533Y-6057676D01*
X5207010Y-6048152D01*
X5202248Y-6029105D01*
X5202248Y-5995771D01*
X5207010Y-5976724D01*
X5216533Y-5967200D01*
X5226057Y-5962438D01*
X5245105Y-5962438D01*
X5254629Y-5967200D01*
X5264152Y-5976724D01*
X5268914Y-5995771D01*
X5268914Y-6029105D01*
X5264152Y-6048152D01*
X5254629Y-6057676D01*
X5245105Y-6062438D01*
X5226057Y-6062438D01*
X5307010Y-5971962D02*
X5311771Y-5967200D01*
X5321295Y-5962438D01*
X5345105Y-5962438D01*
X5354629Y-5967200D01*
X5359390Y-5971962D01*
X5364152Y-5981486D01*
X5364152Y-5991009D01*
X5359390Y-6005295D01*
X5302248Y-6062438D01*
X5364152Y-6062438D01*
G04 #@! TO.C,U2*
X18388238Y-6553190D02*
X18469190Y-6553190D01*
X18478714Y-6548428D01*
X18483476Y-6543667D01*
X18488238Y-6534143D01*
X18488238Y-6515095D01*
X18483476Y-6505571D01*
X18478714Y-6500809D01*
X18469190Y-6496048D01*
X18388238Y-6496048D01*
X18397762Y-6453190D02*
X18393000Y-6448428D01*
X18388238Y-6438905D01*
X18388238Y-6415095D01*
X18393000Y-6405571D01*
X18397762Y-6400809D01*
X18407286Y-6396048D01*
X18416810Y-6396048D01*
X18431095Y-6400809D01*
X18488238Y-6457952D01*
X18488238Y-6396048D01*
G04 #@! TO.C,U1*
X12509509Y-9777638D02*
X12509509Y-9858590D01*
X12514271Y-9868114D01*
X12519033Y-9872876D01*
X12528557Y-9877638D01*
X12547605Y-9877638D01*
X12557128Y-9872876D01*
X12561890Y-9868114D01*
X12566652Y-9858590D01*
X12566652Y-9777638D01*
X12666652Y-9877638D02*
X12609509Y-9877638D01*
X12638081Y-9877638D02*
X12638081Y-9777638D01*
X12628557Y-9791924D01*
X12619033Y-9801448D01*
X12609509Y-9806210D01*
G04 #@! TO.C,U6*
X26174709Y-2929738D02*
X26174709Y-3010690D01*
X26179471Y-3020214D01*
X26184233Y-3024976D01*
X26193757Y-3029738D01*
X26212805Y-3029738D01*
X26222328Y-3024976D01*
X26227090Y-3020214D01*
X26231852Y-3010690D01*
X26231852Y-2929738D01*
X26322328Y-2929738D02*
X26303281Y-2929738D01*
X26293757Y-2934500D01*
X26288995Y-2939262D01*
X26279471Y-2953548D01*
X26274709Y-2972595D01*
X26274709Y-3010690D01*
X26279471Y-3020214D01*
X26284233Y-3024976D01*
X26293757Y-3029738D01*
X26312805Y-3029738D01*
X26322328Y-3024976D01*
X26327090Y-3020214D01*
X26331852Y-3010690D01*
X26331852Y-2986881D01*
X26327090Y-2977357D01*
X26322328Y-2972595D01*
X26312805Y-2967833D01*
X26293757Y-2967833D01*
X26284233Y-2972595D01*
X26279471Y-2977357D01*
X26274709Y-2986881D01*
G04 #@! TO.C,S1*
X9024456Y-13004790D02*
X9029218Y-12990505D01*
X9029218Y-12966695D01*
X9024456Y-12957171D01*
X9019694Y-12952409D01*
X9010170Y-12947648D01*
X9000647Y-12947648D01*
X8991123Y-12952409D01*
X8986361Y-12957171D01*
X8981599Y-12966695D01*
X8976837Y-12985743D01*
X8972075Y-12995267D01*
X8967313Y-13000028D01*
X8957790Y-13004790D01*
X8948266Y-13004790D01*
X8938742Y-13000028D01*
X8933980Y-12995267D01*
X8929218Y-12985743D01*
X8929218Y-12961933D01*
X8933980Y-12947648D01*
X9029218Y-12852409D02*
X9029218Y-12909552D01*
X9029218Y-12880981D02*
X8929218Y-12880981D01*
X8943504Y-12890505D01*
X8953028Y-12900028D01*
X8957790Y-12909552D01*
G04 #@! TO.C,S3*
X22676209Y-3746276D02*
X22690495Y-3751038D01*
X22714305Y-3751038D01*
X22723828Y-3746276D01*
X22728590Y-3741514D01*
X22733352Y-3731990D01*
X22733352Y-3722467D01*
X22728590Y-3712943D01*
X22723828Y-3708181D01*
X22714305Y-3703419D01*
X22695257Y-3698657D01*
X22685733Y-3693895D01*
X22680971Y-3689133D01*
X22676209Y-3679609D01*
X22676209Y-3670086D01*
X22680971Y-3660562D01*
X22685733Y-3655800D01*
X22695257Y-3651038D01*
X22719067Y-3651038D01*
X22733352Y-3655800D01*
X22766686Y-3651038D02*
X22828590Y-3651038D01*
X22795257Y-3689133D01*
X22809543Y-3689133D01*
X22819067Y-3693895D01*
X22823828Y-3698657D01*
X22828590Y-3708181D01*
X22828590Y-3731990D01*
X22823828Y-3741514D01*
X22819067Y-3746276D01*
X22809543Y-3751038D01*
X22780971Y-3751038D01*
X22771448Y-3746276D01*
X22766686Y-3741514D01*
G04 #@! TO.C,S2*
X24911409Y-3746276D02*
X24925695Y-3751038D01*
X24949505Y-3751038D01*
X24959028Y-3746276D01*
X24963790Y-3741514D01*
X24968552Y-3731990D01*
X24968552Y-3722467D01*
X24963790Y-3712943D01*
X24959028Y-3708181D01*
X24949505Y-3703419D01*
X24930457Y-3698657D01*
X24920933Y-3693895D01*
X24916171Y-3689133D01*
X24911409Y-3679609D01*
X24911409Y-3670086D01*
X24916171Y-3660562D01*
X24920933Y-3655800D01*
X24930457Y-3651038D01*
X24954267Y-3651038D01*
X24968552Y-3655800D01*
X25006648Y-3660562D02*
X25011409Y-3655800D01*
X25020933Y-3651038D01*
X25044743Y-3651038D01*
X25054267Y-3655800D01*
X25059028Y-3660562D01*
X25063790Y-3670086D01*
X25063790Y-3679609D01*
X25059028Y-3693895D01*
X25001886Y-3751038D01*
X25063790Y-3751038D01*
G04 #@! TO.C,U17*
X13477890Y-9652838D02*
X13477890Y-9733790D01*
X13482652Y-9743314D01*
X13487414Y-9748076D01*
X13496938Y-9752838D01*
X13515986Y-9752838D01*
X13525509Y-9748076D01*
X13530271Y-9743314D01*
X13535033Y-9733790D01*
X13535033Y-9652838D01*
X13635033Y-9752838D02*
X13577890Y-9752838D01*
X13606462Y-9752838D02*
X13606462Y-9652838D01*
X13596938Y-9667124D01*
X13587414Y-9676648D01*
X13577890Y-9681410D01*
X13668367Y-9652838D02*
X13735033Y-9652838D01*
X13692176Y-9752838D01*
G04 #@! TO.C,J16*
X23499048Y-16368038D02*
X23499048Y-16439467D01*
X23494286Y-16453752D01*
X23484762Y-16463276D01*
X23470476Y-16468038D01*
X23460952Y-16468038D01*
X23599048Y-16468038D02*
X23541905Y-16468038D01*
X23570476Y-16468038D02*
X23570476Y-16368038D01*
X23560952Y-16382324D01*
X23551428Y-16391848D01*
X23541905Y-16396609D01*
X23684762Y-16368038D02*
X23665714Y-16368038D01*
X23656190Y-16372800D01*
X23651428Y-16377562D01*
X23641905Y-16391848D01*
X23637143Y-16410895D01*
X23637143Y-16448990D01*
X23641905Y-16458514D01*
X23646667Y-16463276D01*
X23656190Y-16468038D01*
X23675238Y-16468038D01*
X23684762Y-16463276D01*
X23689524Y-16458514D01*
X23694286Y-16448990D01*
X23694286Y-16425181D01*
X23689524Y-16415657D01*
X23684762Y-16410895D01*
X23675238Y-16406133D01*
X23656190Y-16406133D01*
X23646667Y-16410895D01*
X23641905Y-16415657D01*
X23637143Y-16425181D01*
G04 #@! TD*
M02*
