G04 #@! TF.GenerationSoftware,KiCad,Pcbnew,(5.0.2)-1*
G04 #@! TF.CreationDate,2019-03-25T23:56:42-07:00*
G04 #@! TF.ProjectId,SwitcheroModule,53776974-6368-4657-926f-4d6f64756c65,rev?*
G04 #@! TF.SameCoordinates,Original*
G04 #@! TF.FileFunction,Legend,Top*
G04 #@! TF.FilePolarity,Positive*
%FSLAX46Y46*%
G04 Gerber Fmt 4.6, Leading zero omitted, Abs format (unit mm)*
G04 Created by KiCad (PCBNEW (5.0.2)-1) date 3/25/2019 11:56:42 PM*
%MOMM*%
%LPD*%
G01*
G04 APERTURE LIST*
%ADD10C,0.120000*%
%ADD11C,0.150000*%
%ADD12C,0.100000*%
%ADD13C,0.062500*%
G04 APERTURE END LIST*
D10*
G04 #@! TO.C,U3*
X198358500Y-44626000D02*
X198358500Y-44081000D01*
X198358500Y-44081000D02*
X197813500Y-44081000D01*
X192088500Y-44626000D02*
X192088500Y-44081000D01*
X192088500Y-44081000D02*
X192633500Y-44081000D01*
X192088500Y-49806000D02*
X192088500Y-50351000D01*
X192088500Y-50351000D02*
X192633500Y-50351000D01*
X198358500Y-50351000D02*
X197813500Y-50351000D01*
D11*
G04 #@! TO.C,U4*
X213145000Y-83397000D02*
X213145000Y-83272000D01*
X208495000Y-83397000D02*
X208495000Y-83172000D01*
X208495000Y-78147000D02*
X208495000Y-78372000D01*
X213145000Y-78147000D02*
X213145000Y-78372000D01*
X213145000Y-83397000D02*
X208495000Y-83397000D01*
X213145000Y-78147000D02*
X208495000Y-78147000D01*
X213145000Y-83272000D02*
X214495000Y-83272000D01*
D10*
G04 #@! TO.C,C3*
X212088000Y-42627733D02*
X212088000Y-42970267D01*
X213108000Y-42627733D02*
X213108000Y-42970267D01*
G04 #@! TO.C,C4*
X218696000Y-42373733D02*
X218696000Y-42716267D01*
X217676000Y-42373733D02*
X217676000Y-42716267D01*
G04 #@! TO.C,C5*
X221994000Y-53676733D02*
X221994000Y-54019267D01*
X223014000Y-53676733D02*
X223014000Y-54019267D01*
D11*
G04 #@! TO.C,U2*
X198798000Y-60868000D02*
X198798000Y-60818000D01*
X194648000Y-60868000D02*
X194648000Y-60723000D01*
X194648000Y-55718000D02*
X194648000Y-55863000D01*
X198798000Y-55718000D02*
X198798000Y-55863000D01*
X198798000Y-60868000D02*
X194648000Y-60868000D01*
X198798000Y-55718000D02*
X194648000Y-55718000D01*
X198798000Y-60818000D02*
X200198000Y-60818000D01*
D12*
G04 #@! TO.C,Q2*
X227551000Y-48342000D02*
X227876000Y-48042000D01*
X227876000Y-48042000D02*
X228276000Y-48042000D01*
X226276000Y-48042000D02*
X226276000Y-48342000D01*
X226276000Y-48342000D02*
X226576000Y-48342000D01*
X227876000Y-46167000D02*
X227876000Y-45892000D01*
X227876000Y-45892000D02*
X227626000Y-45892000D01*
X226276000Y-46192000D02*
X226276000Y-45892000D01*
X226276000Y-45892000D02*
X226501000Y-45892000D01*
D10*
G04 #@! TO.C,U1*
X187349500Y-52296000D02*
X187349500Y-51661000D01*
X187349500Y-51661000D02*
X187984500Y-51661000D01*
D11*
G04 #@! TO.C,U5*
X213145000Y-77555000D02*
X213145000Y-77430000D01*
X208495000Y-77555000D02*
X208495000Y-77330000D01*
X208495000Y-72305000D02*
X208495000Y-72530000D01*
X213145000Y-72305000D02*
X213145000Y-72530000D01*
X213145000Y-77555000D02*
X208495000Y-77555000D01*
X213145000Y-72305000D02*
X208495000Y-72305000D01*
X213145000Y-77430000D02*
X214495000Y-77430000D01*
G04 #@! TO.C,U13*
X240181000Y-62206000D02*
X241431000Y-62206000D01*
X240181000Y-59031000D02*
X236831000Y-59031000D01*
X240181000Y-62381000D02*
X236831000Y-62381000D01*
X240181000Y-59031000D02*
X240181000Y-59281000D01*
X236831000Y-59031000D02*
X236831000Y-59281000D01*
X236831000Y-62381000D02*
X236831000Y-62131000D01*
X240181000Y-62381000D02*
X240181000Y-62206000D01*
D10*
G04 #@! TO.C,SW1*
X205154000Y-92310000D02*
X205154000Y-85490000D01*
X216994000Y-92310000D02*
X216994000Y-85490000D01*
X205154000Y-92310000D02*
X206464000Y-92310000D01*
X208064000Y-92310000D02*
X209004000Y-92310000D01*
X210604000Y-92310000D02*
X211544000Y-92310000D01*
X213144000Y-92310000D02*
X214084000Y-92310000D01*
X215684000Y-92310000D02*
X216994000Y-92310000D01*
X215684000Y-85490000D02*
X216994000Y-85490000D01*
X213144000Y-85490000D02*
X214084000Y-85490000D01*
X210604000Y-85490000D02*
X211544000Y-85490000D01*
X205154000Y-85490000D02*
X206464000Y-85490000D01*
X208064000Y-85490000D02*
X209004000Y-85490000D01*
X204914000Y-92550000D02*
X204914000Y-91167000D01*
X204914000Y-92550000D02*
X206297000Y-92550000D01*
X206629000Y-90710000D02*
X207899000Y-90710000D01*
X207899000Y-90710000D02*
X207899000Y-87090000D01*
X207899000Y-87090000D02*
X206629000Y-87090000D01*
X206629000Y-87090000D02*
X206629000Y-90710000D01*
X206749000Y-90710000D02*
X206749000Y-89503333D01*
X206869000Y-90710000D02*
X206869000Y-89503333D01*
X206989000Y-90710000D02*
X206989000Y-89503333D01*
X207109000Y-90710000D02*
X207109000Y-89503333D01*
X207229000Y-90710000D02*
X207229000Y-89503333D01*
X207349000Y-90710000D02*
X207349000Y-89503333D01*
X207469000Y-90710000D02*
X207469000Y-89503333D01*
X207589000Y-90710000D02*
X207589000Y-89503333D01*
X207709000Y-90710000D02*
X207709000Y-89503333D01*
X207829000Y-90710000D02*
X207829000Y-89503333D01*
X206629000Y-89503333D02*
X207899000Y-89503333D01*
X209169000Y-90710000D02*
X210439000Y-90710000D01*
X210439000Y-90710000D02*
X210439000Y-87090000D01*
X210439000Y-87090000D02*
X209169000Y-87090000D01*
X209169000Y-87090000D02*
X209169000Y-90710000D01*
X209289000Y-90710000D02*
X209289000Y-89503333D01*
X209409000Y-90710000D02*
X209409000Y-89503333D01*
X209529000Y-90710000D02*
X209529000Y-89503333D01*
X209649000Y-90710000D02*
X209649000Y-89503333D01*
X209769000Y-90710000D02*
X209769000Y-89503333D01*
X209889000Y-90710000D02*
X209889000Y-89503333D01*
X210009000Y-90710000D02*
X210009000Y-89503333D01*
X210129000Y-90710000D02*
X210129000Y-89503333D01*
X210249000Y-90710000D02*
X210249000Y-89503333D01*
X210369000Y-90710000D02*
X210369000Y-89503333D01*
X209169000Y-89503333D02*
X210439000Y-89503333D01*
X211709000Y-90710000D02*
X212979000Y-90710000D01*
X212979000Y-90710000D02*
X212979000Y-87090000D01*
X212979000Y-87090000D02*
X211709000Y-87090000D01*
X211709000Y-87090000D02*
X211709000Y-90710000D01*
X211829000Y-90710000D02*
X211829000Y-89503333D01*
X211949000Y-90710000D02*
X211949000Y-89503333D01*
X212069000Y-90710000D02*
X212069000Y-89503333D01*
X212189000Y-90710000D02*
X212189000Y-89503333D01*
X212309000Y-90710000D02*
X212309000Y-89503333D01*
X212429000Y-90710000D02*
X212429000Y-89503333D01*
X212549000Y-90710000D02*
X212549000Y-89503333D01*
X212669000Y-90710000D02*
X212669000Y-89503333D01*
X212789000Y-90710000D02*
X212789000Y-89503333D01*
X212909000Y-90710000D02*
X212909000Y-89503333D01*
X211709000Y-89503333D02*
X212979000Y-89503333D01*
X214249000Y-90710000D02*
X215519000Y-90710000D01*
X215519000Y-90710000D02*
X215519000Y-87090000D01*
X215519000Y-87090000D02*
X214249000Y-87090000D01*
X214249000Y-87090000D02*
X214249000Y-90710000D01*
X214369000Y-90710000D02*
X214369000Y-89503333D01*
X214489000Y-90710000D02*
X214489000Y-89503333D01*
X214609000Y-90710000D02*
X214609000Y-89503333D01*
X214729000Y-90710000D02*
X214729000Y-89503333D01*
X214849000Y-90710000D02*
X214849000Y-89503333D01*
X214969000Y-90710000D02*
X214969000Y-89503333D01*
X215089000Y-90710000D02*
X215089000Y-89503333D01*
X215209000Y-90710000D02*
X215209000Y-89503333D01*
X215329000Y-90710000D02*
X215329000Y-89503333D01*
X215449000Y-90710000D02*
X215449000Y-89503333D01*
X214249000Y-89503333D02*
X215519000Y-89503333D01*
D12*
G04 #@! TO.C,Q5*
X221443000Y-52921000D02*
X221443000Y-53146000D01*
X221143000Y-52921000D02*
X221443000Y-52921000D01*
X221443000Y-54521000D02*
X221443000Y-54271000D01*
X221168000Y-54521000D02*
X221443000Y-54521000D01*
X218993000Y-52921000D02*
X218993000Y-53221000D01*
X219293000Y-52921000D02*
X218993000Y-52921000D01*
X219293000Y-54521000D02*
X219293000Y-54921000D01*
X218993000Y-54196000D02*
X219293000Y-54521000D01*
G04 #@! TO.C,Q4*
X219247000Y-42958531D02*
X219547000Y-43283531D01*
X219547000Y-43283531D02*
X219547000Y-43683531D01*
X219547000Y-41683531D02*
X219247000Y-41683531D01*
X219247000Y-41683531D02*
X219247000Y-41983531D01*
X221422000Y-43283531D02*
X221697000Y-43283531D01*
X221697000Y-43283531D02*
X221697000Y-43033531D01*
X221397000Y-41683531D02*
X221697000Y-41683531D01*
X221697000Y-41683531D02*
X221697000Y-41908531D01*
G04 #@! TO.C,U8*
X199580000Y-30810000D02*
X199430000Y-30510000D01*
X199880000Y-30810000D02*
X199580000Y-30810000D01*
X204280000Y-30810000D02*
X203980000Y-30810000D01*
X204280000Y-30810000D02*
X204430000Y-30510000D01*
D11*
X203880000Y-27660000D02*
G75*
G03X200030000Y-27610000I-1950000J-1900000D01*
G01*
G04 #@! TO.C,U9*
X203880000Y-32740000D02*
G75*
G03X200030000Y-32690000I-1950000J-1900000D01*
G01*
D12*
X204280000Y-35890000D02*
X204430000Y-35590000D01*
X204280000Y-35890000D02*
X203980000Y-35890000D01*
X199880000Y-35890000D02*
X199580000Y-35890000D01*
X199580000Y-35890000D02*
X199430000Y-35590000D01*
G04 #@! TO.C,U6*
X212674000Y-32164000D02*
X212974000Y-32164000D01*
X212974000Y-32164000D02*
X213074000Y-32064000D01*
X213074000Y-32064000D02*
X214374000Y-32064000D01*
X213474000Y-26964000D02*
X213474000Y-26764000D01*
X213474000Y-26764000D02*
X213074000Y-26764000D01*
X208674000Y-31964000D02*
X208674000Y-32164000D01*
X208674000Y-32164000D02*
X209074000Y-32164000D01*
X208674000Y-26864000D02*
X208674000Y-26964000D01*
X208674000Y-26964000D02*
X208674000Y-26764000D01*
X208674000Y-26764000D02*
X209174000Y-26764000D01*
G04 #@! TO.C,U14*
X232392000Y-54690000D02*
X232392000Y-53790000D01*
X232792000Y-54690000D02*
X232392000Y-54690000D01*
X232792000Y-55290000D02*
X232792000Y-54690000D01*
X232792000Y-59290000D02*
X232792000Y-58890000D01*
X232392000Y-59290000D02*
X232792000Y-59290000D01*
X223392000Y-59390000D02*
X223392000Y-58890000D01*
X223792000Y-59390000D02*
X223392000Y-59390000D01*
X223492000Y-54690000D02*
X223492000Y-55090000D01*
X223792000Y-54690000D02*
X223492000Y-54690000D01*
G04 #@! TO.C,Q9*
X224148277Y-62998484D02*
X224448277Y-63323484D01*
X224448277Y-63323484D02*
X224448277Y-63723484D01*
X224448277Y-61723484D02*
X224148277Y-61723484D01*
X224148277Y-61723484D02*
X224148277Y-62023484D01*
X226323277Y-63323484D02*
X226598277Y-63323484D01*
X226598277Y-63323484D02*
X226598277Y-63073484D01*
X226298277Y-61723484D02*
X226598277Y-61723484D01*
X226598277Y-61723484D02*
X226598277Y-61948484D01*
G04 #@! TO.C,U7*
X175346000Y-23248000D02*
X175646000Y-23248000D01*
X175346000Y-23248000D02*
X175346000Y-23548000D01*
X175346000Y-33648000D02*
X175646000Y-33648000D01*
X179746000Y-23548000D02*
X179746000Y-23248000D01*
X179746000Y-23248000D02*
X179446000Y-23248000D01*
X179346000Y-33648000D02*
X179746000Y-33648000D01*
X179746000Y-33648000D02*
X179746000Y-33348000D01*
X179746000Y-33348000D02*
X180346000Y-33348000D01*
X175346000Y-33348000D02*
X175346000Y-33648000D01*
G04 #@! TO.C,Q3*
X216209456Y-41810531D02*
X216209456Y-42035531D01*
X215909456Y-41810531D02*
X216209456Y-41810531D01*
X216209456Y-43410531D02*
X216209456Y-43160531D01*
X215934456Y-43410531D02*
X216209456Y-43410531D01*
X213759456Y-41810531D02*
X213759456Y-42110531D01*
X214059456Y-41810531D02*
X213759456Y-41810531D01*
X214059456Y-43410531D02*
X214059456Y-43810531D01*
X213759456Y-43085531D02*
X214059456Y-43410531D01*
G04 #@! TO.C,Q8*
X240830000Y-69170000D02*
X240605000Y-69170000D01*
X240830000Y-68870000D02*
X240830000Y-69170000D01*
X239230000Y-69170000D02*
X239480000Y-69170000D01*
X239230000Y-68895000D02*
X239230000Y-69170000D01*
X240830000Y-66720000D02*
X240530000Y-66720000D01*
X240830000Y-67020000D02*
X240830000Y-66720000D01*
X239230000Y-67020000D02*
X238830000Y-67020000D01*
X239555000Y-66720000D02*
X239230000Y-67020000D01*
G04 #@! TO.C,Q7*
X214929000Y-54196000D02*
X215229000Y-54521000D01*
X215229000Y-54521000D02*
X215229000Y-54921000D01*
X215229000Y-52921000D02*
X214929000Y-52921000D01*
X214929000Y-52921000D02*
X214929000Y-53221000D01*
X217104000Y-54521000D02*
X217379000Y-54521000D01*
X217379000Y-54521000D02*
X217379000Y-54271000D01*
X217079000Y-52921000D02*
X217379000Y-52921000D01*
X217379000Y-52921000D02*
X217379000Y-53146000D01*
G04 #@! TO.C,Q6*
X227038000Y-50464000D02*
X227263000Y-50464000D01*
X227038000Y-50764000D02*
X227038000Y-50464000D01*
X228638000Y-50464000D02*
X228388000Y-50464000D01*
X228638000Y-50739000D02*
X228638000Y-50464000D01*
X227038000Y-52914000D02*
X227338000Y-52914000D01*
X227038000Y-52614000D02*
X227038000Y-52914000D01*
X228638000Y-52614000D02*
X229038000Y-52614000D01*
X228313000Y-52914000D02*
X228638000Y-52614000D01*
G04 #@! TO.C,U12*
X222486000Y-50306000D02*
X222786000Y-50306000D01*
X222786000Y-50306000D02*
X222786000Y-49906000D01*
X222486000Y-45606000D02*
X222886000Y-45606000D01*
X222886000Y-45606000D02*
X222886000Y-46106000D01*
X213886000Y-45706000D02*
X213486000Y-45706000D01*
X213486000Y-45706000D02*
X213486000Y-46106000D01*
X213486000Y-49706000D02*
X213486000Y-50306000D01*
X213486000Y-50306000D02*
X213886000Y-50306000D01*
X213886000Y-50306000D02*
X213886000Y-51206000D01*
D10*
G04 #@! TO.C,C2*
X208602000Y-45631000D02*
X208602000Y-52566000D01*
X208602000Y-52566000D02*
X212022000Y-52566000D01*
X212022000Y-52566000D02*
X212022000Y-45631000D01*
G04 #@! TO.C,C1*
X209033564Y-65906000D02*
X207829436Y-65906000D01*
X209033564Y-64086000D02*
X207829436Y-64086000D01*
G04 #@! TO.C,IC1*
X212020000Y-62889000D02*
X212020000Y-62414000D01*
X212020000Y-62414000D02*
X212495000Y-62414000D01*
X217240000Y-67159000D02*
X217240000Y-67634000D01*
X217240000Y-67634000D02*
X216765000Y-67634000D01*
X217240000Y-62889000D02*
X217240000Y-62414000D01*
X217240000Y-62414000D02*
X216765000Y-62414000D01*
X212020000Y-67159000D02*
X212020000Y-67634000D01*
D11*
G04 #@! TO.C,U15*
X240181000Y-66191000D02*
X240181000Y-66016000D01*
X236831000Y-66191000D02*
X236831000Y-65941000D01*
X236831000Y-62841000D02*
X236831000Y-63091000D01*
X240181000Y-62841000D02*
X240181000Y-63091000D01*
X240181000Y-66191000D02*
X236831000Y-66191000D01*
X240181000Y-62841000D02*
X236831000Y-62841000D01*
X240181000Y-66016000D02*
X241431000Y-66016000D01*
D12*
G04 #@! TO.C,Q10*
X230296000Y-62959000D02*
X230596000Y-63284000D01*
X230596000Y-63284000D02*
X230596000Y-63684000D01*
X230596000Y-61684000D02*
X230296000Y-61684000D01*
X230296000Y-61684000D02*
X230296000Y-61984000D01*
X232471000Y-63284000D02*
X232746000Y-63284000D01*
X232746000Y-63284000D02*
X232746000Y-63034000D01*
X232446000Y-61684000D02*
X232746000Y-61684000D01*
X232746000Y-61684000D02*
X232746000Y-61909000D01*
G04 #@! TO.C,U3*
D13*
X194956833Y-51524333D02*
X194956833Y-51807666D01*
X194973500Y-51841000D01*
X194990166Y-51857666D01*
X195023500Y-51874333D01*
X195090166Y-51874333D01*
X195123500Y-51857666D01*
X195140166Y-51841000D01*
X195156833Y-51807666D01*
X195156833Y-51524333D01*
X195290166Y-51524333D02*
X195506833Y-51524333D01*
X195390166Y-51657666D01*
X195440166Y-51657666D01*
X195473500Y-51674333D01*
X195490166Y-51691000D01*
X195506833Y-51724333D01*
X195506833Y-51807666D01*
X195490166Y-51841000D01*
X195473500Y-51857666D01*
X195440166Y-51874333D01*
X195340166Y-51874333D01*
X195306833Y-51857666D01*
X195290166Y-51841000D01*
G04 #@! TO.C,U4*
X210705733Y-81240733D02*
X210705733Y-81524066D01*
X210722400Y-81557400D01*
X210739066Y-81574066D01*
X210772400Y-81590733D01*
X210839066Y-81590733D01*
X210872400Y-81574066D01*
X210889066Y-81557400D01*
X210905733Y-81524066D01*
X210905733Y-81240733D01*
X211222400Y-81357400D02*
X211222400Y-81590733D01*
X211139066Y-81224066D02*
X211055733Y-81474066D01*
X211272400Y-81474066D01*
G04 #@! TO.C,C3*
X211427600Y-42920833D02*
X211444266Y-42937500D01*
X211460933Y-42987500D01*
X211460933Y-43020833D01*
X211444266Y-43070833D01*
X211410933Y-43104166D01*
X211377600Y-43120833D01*
X211310933Y-43137500D01*
X211260933Y-43137500D01*
X211194266Y-43120833D01*
X211160933Y-43104166D01*
X211127600Y-43070833D01*
X211110933Y-43020833D01*
X211110933Y-42987500D01*
X211127600Y-42937500D01*
X211144266Y-42920833D01*
X211110933Y-42804166D02*
X211110933Y-42587500D01*
X211244266Y-42704166D01*
X211244266Y-42654166D01*
X211260933Y-42620833D01*
X211277600Y-42604166D01*
X211310933Y-42587500D01*
X211394266Y-42587500D01*
X211427600Y-42604166D01*
X211444266Y-42620833D01*
X211460933Y-42654166D01*
X211460933Y-42754166D01*
X211444266Y-42787500D01*
X211427600Y-42804166D01*
G04 #@! TO.C,C4*
X218285600Y-40482433D02*
X218302266Y-40499100D01*
X218318933Y-40549100D01*
X218318933Y-40582433D01*
X218302266Y-40632433D01*
X218268933Y-40665766D01*
X218235600Y-40682433D01*
X218168933Y-40699100D01*
X218118933Y-40699100D01*
X218052266Y-40682433D01*
X218018933Y-40665766D01*
X217985600Y-40632433D01*
X217968933Y-40582433D01*
X217968933Y-40549100D01*
X217985600Y-40499100D01*
X218002266Y-40482433D01*
X218085600Y-40182433D02*
X218318933Y-40182433D01*
X217952266Y-40265766D02*
X218202266Y-40349100D01*
X218202266Y-40132433D01*
G04 #@! TO.C,C5*
X222921100Y-55989133D02*
X222937766Y-56005800D01*
X222954433Y-56055800D01*
X222954433Y-56089133D01*
X222937766Y-56139133D01*
X222904433Y-56172466D01*
X222871100Y-56189133D01*
X222804433Y-56205800D01*
X222754433Y-56205800D01*
X222687766Y-56189133D01*
X222654433Y-56172466D01*
X222621100Y-56139133D01*
X222604433Y-56089133D01*
X222604433Y-56055800D01*
X222621100Y-56005800D01*
X222637766Y-55989133D01*
X222604433Y-55672466D02*
X222604433Y-55839133D01*
X222771100Y-55855800D01*
X222754433Y-55839133D01*
X222737766Y-55805800D01*
X222737766Y-55722466D01*
X222754433Y-55689133D01*
X222771100Y-55672466D01*
X222804433Y-55655800D01*
X222887766Y-55655800D01*
X222921100Y-55672466D01*
X222937766Y-55689133D01*
X222954433Y-55722466D01*
X222954433Y-55805800D01*
X222937766Y-55839133D01*
X222921100Y-55855800D01*
G04 #@! TO.C,H1*
X250598333Y-18176333D02*
X250598333Y-17826333D01*
X250598333Y-17993000D02*
X250798333Y-17993000D01*
X250798333Y-18176333D02*
X250798333Y-17826333D01*
X251148333Y-18176333D02*
X250948333Y-18176333D01*
X251048333Y-18176333D02*
X251048333Y-17826333D01*
X251015000Y-17876333D01*
X250981666Y-17909666D01*
X250948333Y-17926333D01*
G04 #@! TO.C,H4*
X169075133Y-91247933D02*
X169075133Y-90897933D01*
X169075133Y-91064600D02*
X169275133Y-91064600D01*
X169275133Y-91247933D02*
X169275133Y-90897933D01*
X169591800Y-91014600D02*
X169591800Y-91247933D01*
X169508466Y-90881266D02*
X169425133Y-91131266D01*
X169641800Y-91131266D01*
G04 #@! TO.C,R2*
X215550333Y-79903233D02*
X215383666Y-80019900D01*
X215550333Y-80103233D02*
X215200333Y-80103233D01*
X215200333Y-79969900D01*
X215217000Y-79936566D01*
X215233666Y-79919900D01*
X215267000Y-79903233D01*
X215317000Y-79903233D01*
X215350333Y-79919900D01*
X215367000Y-79936566D01*
X215383666Y-79969900D01*
X215383666Y-80103233D01*
X215233666Y-79769900D02*
X215217000Y-79753233D01*
X215200333Y-79719900D01*
X215200333Y-79636566D01*
X215217000Y-79603233D01*
X215233666Y-79586566D01*
X215267000Y-79569900D01*
X215300333Y-79569900D01*
X215350333Y-79586566D01*
X215550333Y-79786566D01*
X215550333Y-79569900D01*
G04 #@! TO.C,R9*
X226245333Y-47683333D02*
X226078666Y-47800000D01*
X226245333Y-47883333D02*
X225895333Y-47883333D01*
X225895333Y-47750000D01*
X225912000Y-47716666D01*
X225928666Y-47700000D01*
X225962000Y-47683333D01*
X226012000Y-47683333D01*
X226045333Y-47700000D01*
X226062000Y-47716666D01*
X226078666Y-47750000D01*
X226078666Y-47883333D01*
X226245333Y-47516666D02*
X226245333Y-47450000D01*
X226228666Y-47416666D01*
X226212000Y-47400000D01*
X226162000Y-47366666D01*
X226095333Y-47350000D01*
X225962000Y-47350000D01*
X225928666Y-47366666D01*
X225912000Y-47383333D01*
X225895333Y-47416666D01*
X225895333Y-47483333D01*
X225912000Y-47516666D01*
X225928666Y-47533333D01*
X225962000Y-47550000D01*
X226045333Y-47550000D01*
X226078666Y-47533333D01*
X226095333Y-47516666D01*
X226112000Y-47483333D01*
X226112000Y-47416666D01*
X226095333Y-47383333D01*
X226078666Y-47366666D01*
X226045333Y-47350000D01*
G04 #@! TO.C,R3*
X207511233Y-81300233D02*
X207344566Y-81416900D01*
X207511233Y-81500233D02*
X207161233Y-81500233D01*
X207161233Y-81366900D01*
X207177900Y-81333566D01*
X207194566Y-81316900D01*
X207227900Y-81300233D01*
X207277900Y-81300233D01*
X207311233Y-81316900D01*
X207327900Y-81333566D01*
X207344566Y-81366900D01*
X207344566Y-81500233D01*
X207161233Y-81183566D02*
X207161233Y-80966900D01*
X207294566Y-81083566D01*
X207294566Y-81033566D01*
X207311233Y-81000233D01*
X207327900Y-80983566D01*
X207361233Y-80966900D01*
X207444566Y-80966900D01*
X207477900Y-80983566D01*
X207494566Y-81000233D01*
X207511233Y-81033566D01*
X207511233Y-81133566D01*
X207494566Y-81166900D01*
X207477900Y-81183566D01*
G04 #@! TO.C,R7*
X229444133Y-45613233D02*
X229277466Y-45729900D01*
X229444133Y-45813233D02*
X229094133Y-45813233D01*
X229094133Y-45679900D01*
X229110800Y-45646566D01*
X229127466Y-45629900D01*
X229160800Y-45613233D01*
X229210800Y-45613233D01*
X229244133Y-45629900D01*
X229260800Y-45646566D01*
X229277466Y-45679900D01*
X229277466Y-45813233D01*
X229094133Y-45496566D02*
X229094133Y-45263233D01*
X229444133Y-45413233D01*
G04 #@! TO.C,R4*
X218864266Y-83927533D02*
X218747600Y-83760866D01*
X218664266Y-83927533D02*
X218664266Y-83577533D01*
X218797600Y-83577533D01*
X218830933Y-83594200D01*
X218847600Y-83610866D01*
X218864266Y-83644200D01*
X218864266Y-83694200D01*
X218847600Y-83727533D01*
X218830933Y-83744200D01*
X218797600Y-83760866D01*
X218664266Y-83760866D01*
X219164266Y-83694200D02*
X219164266Y-83927533D01*
X219080933Y-83560866D02*
X218997600Y-83810866D01*
X219214266Y-83810866D01*
G04 #@! TO.C,H2*
X250598333Y-91074333D02*
X250598333Y-90724333D01*
X250598333Y-90891000D02*
X250798333Y-90891000D01*
X250798333Y-91074333D02*
X250798333Y-90724333D01*
X250948333Y-90757666D02*
X250965000Y-90741000D01*
X250998333Y-90724333D01*
X251081666Y-90724333D01*
X251115000Y-90741000D01*
X251131666Y-90757666D01*
X251148333Y-90791000D01*
X251148333Y-90824333D01*
X251131666Y-90874333D01*
X250931666Y-91074333D01*
X251148333Y-91074333D01*
G04 #@! TO.C,R21*
X220389033Y-58022700D02*
X220222366Y-58139366D01*
X220389033Y-58222700D02*
X220039033Y-58222700D01*
X220039033Y-58089366D01*
X220055700Y-58056033D01*
X220072366Y-58039366D01*
X220105700Y-58022700D01*
X220155700Y-58022700D01*
X220189033Y-58039366D01*
X220205700Y-58056033D01*
X220222366Y-58089366D01*
X220222366Y-58222700D01*
X220072366Y-57889366D02*
X220055700Y-57872700D01*
X220039033Y-57839366D01*
X220039033Y-57756033D01*
X220055700Y-57722700D01*
X220072366Y-57706033D01*
X220105700Y-57689366D01*
X220139033Y-57689366D01*
X220189033Y-57706033D01*
X220389033Y-57906033D01*
X220389033Y-57689366D01*
X220389033Y-57356033D02*
X220389033Y-57556033D01*
X220389033Y-57456033D02*
X220039033Y-57456033D01*
X220089033Y-57489366D01*
X220122366Y-57522700D01*
X220139033Y-57556033D01*
G04 #@! TO.C,H3*
X172328233Y-19911033D02*
X172328233Y-19561033D01*
X172328233Y-19727700D02*
X172528233Y-19727700D01*
X172528233Y-19911033D02*
X172528233Y-19561033D01*
X172661566Y-19561033D02*
X172878233Y-19561033D01*
X172761566Y-19694366D01*
X172811566Y-19694366D01*
X172844900Y-19711033D01*
X172861566Y-19727700D01*
X172878233Y-19761033D01*
X172878233Y-19844366D01*
X172861566Y-19877700D01*
X172844900Y-19894366D01*
X172811566Y-19911033D01*
X172711566Y-19911033D01*
X172678233Y-19894366D01*
X172661566Y-19877700D01*
G04 #@! TO.C,R10*
X227054200Y-50056633D02*
X226937533Y-49889966D01*
X226854200Y-50056633D02*
X226854200Y-49706633D01*
X226987533Y-49706633D01*
X227020866Y-49723300D01*
X227037533Y-49739966D01*
X227054200Y-49773300D01*
X227054200Y-49823300D01*
X227037533Y-49856633D01*
X227020866Y-49873300D01*
X226987533Y-49889966D01*
X226854200Y-49889966D01*
X227387533Y-50056633D02*
X227187533Y-50056633D01*
X227287533Y-50056633D02*
X227287533Y-49706633D01*
X227254200Y-49756633D01*
X227220866Y-49789966D01*
X227187533Y-49806633D01*
X227604200Y-49706633D02*
X227637533Y-49706633D01*
X227670866Y-49723300D01*
X227687533Y-49739966D01*
X227704200Y-49773300D01*
X227720866Y-49839966D01*
X227720866Y-49923300D01*
X227704200Y-49989966D01*
X227687533Y-50023300D01*
X227670866Y-50039966D01*
X227637533Y-50056633D01*
X227604200Y-50056633D01*
X227570866Y-50039966D01*
X227554200Y-50023300D01*
X227537533Y-49989966D01*
X227520866Y-49923300D01*
X227520866Y-49839966D01*
X227537533Y-49773300D01*
X227554200Y-49739966D01*
X227570866Y-49723300D01*
X227604200Y-49706633D01*
G04 #@! TO.C,R11*
X211816533Y-67687400D02*
X211649866Y-67804066D01*
X211816533Y-67887400D02*
X211466533Y-67887400D01*
X211466533Y-67754066D01*
X211483200Y-67720733D01*
X211499866Y-67704066D01*
X211533200Y-67687400D01*
X211583200Y-67687400D01*
X211616533Y-67704066D01*
X211633200Y-67720733D01*
X211649866Y-67754066D01*
X211649866Y-67887400D01*
X211816533Y-67354066D02*
X211816533Y-67554066D01*
X211816533Y-67454066D02*
X211466533Y-67454066D01*
X211516533Y-67487400D01*
X211549866Y-67520733D01*
X211566533Y-67554066D01*
X211816533Y-67020733D02*
X211816533Y-67220733D01*
X211816533Y-67120733D02*
X211466533Y-67120733D01*
X211516533Y-67154066D01*
X211549866Y-67187400D01*
X211566533Y-67220733D01*
G04 #@! TO.C,U2*
X196456333Y-61601333D02*
X196456333Y-61884666D01*
X196473000Y-61918000D01*
X196489666Y-61934666D01*
X196523000Y-61951333D01*
X196589666Y-61951333D01*
X196623000Y-61934666D01*
X196639666Y-61918000D01*
X196656333Y-61884666D01*
X196656333Y-61601333D01*
X196806333Y-61634666D02*
X196823000Y-61618000D01*
X196856333Y-61601333D01*
X196939666Y-61601333D01*
X196973000Y-61618000D01*
X196989666Y-61634666D01*
X197006333Y-61668000D01*
X197006333Y-61701333D01*
X196989666Y-61751333D01*
X196789666Y-61951333D01*
X197006333Y-61951333D01*
G04 #@! TO.C,R14*
X214204133Y-38540900D02*
X214037466Y-38657566D01*
X214204133Y-38740900D02*
X213854133Y-38740900D01*
X213854133Y-38607566D01*
X213870800Y-38574233D01*
X213887466Y-38557566D01*
X213920800Y-38540900D01*
X213970800Y-38540900D01*
X214004133Y-38557566D01*
X214020800Y-38574233D01*
X214037466Y-38607566D01*
X214037466Y-38740900D01*
X214204133Y-38207566D02*
X214204133Y-38407566D01*
X214204133Y-38307566D02*
X213854133Y-38307566D01*
X213904133Y-38340900D01*
X213937466Y-38374233D01*
X213954133Y-38407566D01*
X213970800Y-37907566D02*
X214204133Y-37907566D01*
X213837466Y-37990900D02*
X214087466Y-38074233D01*
X214087466Y-37857566D01*
G04 #@! TO.C,Q2*
X227242266Y-47658333D02*
X227225600Y-47691666D01*
X227192266Y-47725000D01*
X227142266Y-47775000D01*
X227125600Y-47808333D01*
X227125600Y-47841666D01*
X227208933Y-47825000D02*
X227192266Y-47858333D01*
X227158933Y-47891666D01*
X227092266Y-47908333D01*
X226975600Y-47908333D01*
X226908933Y-47891666D01*
X226875600Y-47858333D01*
X226858933Y-47825000D01*
X226858933Y-47758333D01*
X226875600Y-47725000D01*
X226908933Y-47691666D01*
X226975600Y-47675000D01*
X227092266Y-47675000D01*
X227158933Y-47691666D01*
X227192266Y-47725000D01*
X227208933Y-47758333D01*
X227208933Y-47825000D01*
X226892266Y-47541666D02*
X226875600Y-47525000D01*
X226858933Y-47491666D01*
X226858933Y-47408333D01*
X226875600Y-47375000D01*
X226892266Y-47358333D01*
X226925600Y-47341666D01*
X226958933Y-47341666D01*
X227008933Y-47358333D01*
X227208933Y-47558333D01*
X227208933Y-47341666D01*
G04 #@! TO.C,U1*
X185727833Y-55102666D02*
X186011166Y-55102666D01*
X186044500Y-55086000D01*
X186061166Y-55069333D01*
X186077833Y-55036000D01*
X186077833Y-54969333D01*
X186061166Y-54936000D01*
X186044500Y-54919333D01*
X186011166Y-54902666D01*
X185727833Y-54902666D01*
X186077833Y-54552666D02*
X186077833Y-54752666D01*
X186077833Y-54652666D02*
X185727833Y-54652666D01*
X185777833Y-54686000D01*
X185811166Y-54719333D01*
X185827833Y-54752666D01*
G04 #@! TO.C,U5*
X210731133Y-74903433D02*
X210731133Y-75186766D01*
X210747800Y-75220100D01*
X210764466Y-75236766D01*
X210797800Y-75253433D01*
X210864466Y-75253433D01*
X210897800Y-75236766D01*
X210914466Y-75220100D01*
X210931133Y-75186766D01*
X210931133Y-74903433D01*
X211264466Y-74903433D02*
X211097800Y-74903433D01*
X211081133Y-75070100D01*
X211097800Y-75053433D01*
X211131133Y-75036766D01*
X211214466Y-75036766D01*
X211247800Y-75053433D01*
X211264466Y-75070100D01*
X211281133Y-75103433D01*
X211281133Y-75186766D01*
X211264466Y-75220100D01*
X211247800Y-75236766D01*
X211214466Y-75253433D01*
X211131133Y-75253433D01*
X211097800Y-75236766D01*
X211081133Y-75220100D01*
G04 #@! TO.C,R57*
X227589933Y-64321900D02*
X227423266Y-64438566D01*
X227589933Y-64521900D02*
X227239933Y-64521900D01*
X227239933Y-64388566D01*
X227256600Y-64355233D01*
X227273266Y-64338566D01*
X227306600Y-64321900D01*
X227356600Y-64321900D01*
X227389933Y-64338566D01*
X227406600Y-64355233D01*
X227423266Y-64388566D01*
X227423266Y-64521900D01*
X227239933Y-64005233D02*
X227239933Y-64171900D01*
X227406600Y-64188566D01*
X227389933Y-64171900D01*
X227373266Y-64138566D01*
X227373266Y-64055233D01*
X227389933Y-64021900D01*
X227406600Y-64005233D01*
X227439933Y-63988566D01*
X227523266Y-63988566D01*
X227556600Y-64005233D01*
X227573266Y-64021900D01*
X227589933Y-64055233D01*
X227589933Y-64138566D01*
X227573266Y-64171900D01*
X227556600Y-64188566D01*
X227239933Y-63871900D02*
X227239933Y-63638566D01*
X227589933Y-63788566D01*
G04 #@! TO.C,R39*
X223424333Y-61045300D02*
X223257666Y-61161966D01*
X223424333Y-61245300D02*
X223074333Y-61245300D01*
X223074333Y-61111966D01*
X223091000Y-61078633D01*
X223107666Y-61061966D01*
X223141000Y-61045300D01*
X223191000Y-61045300D01*
X223224333Y-61061966D01*
X223241000Y-61078633D01*
X223257666Y-61111966D01*
X223257666Y-61245300D01*
X223074333Y-60928633D02*
X223074333Y-60711966D01*
X223207666Y-60828633D01*
X223207666Y-60778633D01*
X223224333Y-60745300D01*
X223241000Y-60728633D01*
X223274333Y-60711966D01*
X223357666Y-60711966D01*
X223391000Y-60728633D01*
X223407666Y-60745300D01*
X223424333Y-60778633D01*
X223424333Y-60878633D01*
X223407666Y-60911966D01*
X223391000Y-60928633D01*
X223424333Y-60545300D02*
X223424333Y-60478633D01*
X223407666Y-60445300D01*
X223391000Y-60428633D01*
X223341000Y-60395300D01*
X223274333Y-60378633D01*
X223141000Y-60378633D01*
X223107666Y-60395300D01*
X223091000Y-60411966D01*
X223074333Y-60445300D01*
X223074333Y-60511966D01*
X223091000Y-60545300D01*
X223107666Y-60561966D01*
X223141000Y-60578633D01*
X223224333Y-60578633D01*
X223257666Y-60561966D01*
X223274333Y-60545300D01*
X223291000Y-60511966D01*
X223291000Y-60445300D01*
X223274333Y-60411966D01*
X223257666Y-60395300D01*
X223224333Y-60378633D01*
G04 #@! TO.C,R36*
X244099933Y-59686400D02*
X243933266Y-59803066D01*
X244099933Y-59886400D02*
X243749933Y-59886400D01*
X243749933Y-59753066D01*
X243766600Y-59719733D01*
X243783266Y-59703066D01*
X243816600Y-59686400D01*
X243866600Y-59686400D01*
X243899933Y-59703066D01*
X243916600Y-59719733D01*
X243933266Y-59753066D01*
X243933266Y-59886400D01*
X243749933Y-59569733D02*
X243749933Y-59353066D01*
X243883266Y-59469733D01*
X243883266Y-59419733D01*
X243899933Y-59386400D01*
X243916600Y-59369733D01*
X243949933Y-59353066D01*
X244033266Y-59353066D01*
X244066600Y-59369733D01*
X244083266Y-59386400D01*
X244099933Y-59419733D01*
X244099933Y-59519733D01*
X244083266Y-59553066D01*
X244066600Y-59569733D01*
X243749933Y-59053066D02*
X243749933Y-59119733D01*
X243766600Y-59153066D01*
X243783266Y-59169733D01*
X243833266Y-59203066D01*
X243899933Y-59219733D01*
X244033266Y-59219733D01*
X244066600Y-59203066D01*
X244083266Y-59186400D01*
X244099933Y-59153066D01*
X244099933Y-59086400D01*
X244083266Y-59053066D01*
X244066600Y-59036400D01*
X244033266Y-59019733D01*
X243949933Y-59019733D01*
X243916600Y-59036400D01*
X243899933Y-59053066D01*
X243883266Y-59086400D01*
X243883266Y-59153066D01*
X243899933Y-59186400D01*
X243916600Y-59203066D01*
X243949933Y-59219733D01*
G04 #@! TO.C,R38*
X229621933Y-64461600D02*
X229455266Y-64578266D01*
X229621933Y-64661600D02*
X229271933Y-64661600D01*
X229271933Y-64528266D01*
X229288600Y-64494933D01*
X229305266Y-64478266D01*
X229338600Y-64461600D01*
X229388600Y-64461600D01*
X229421933Y-64478266D01*
X229438600Y-64494933D01*
X229455266Y-64528266D01*
X229455266Y-64661600D01*
X229271933Y-64344933D02*
X229271933Y-64128266D01*
X229405266Y-64244933D01*
X229405266Y-64194933D01*
X229421933Y-64161600D01*
X229438600Y-64144933D01*
X229471933Y-64128266D01*
X229555266Y-64128266D01*
X229588600Y-64144933D01*
X229605266Y-64161600D01*
X229621933Y-64194933D01*
X229621933Y-64294933D01*
X229605266Y-64328266D01*
X229588600Y-64344933D01*
X229421933Y-63928266D02*
X229405266Y-63961600D01*
X229388600Y-63978266D01*
X229355266Y-63994933D01*
X229338600Y-63994933D01*
X229305266Y-63978266D01*
X229288600Y-63961600D01*
X229271933Y-63928266D01*
X229271933Y-63861600D01*
X229288600Y-63828266D01*
X229305266Y-63811600D01*
X229338600Y-63794933D01*
X229355266Y-63794933D01*
X229388600Y-63811600D01*
X229405266Y-63828266D01*
X229421933Y-63861600D01*
X229421933Y-63928266D01*
X229438600Y-63961600D01*
X229455266Y-63978266D01*
X229488600Y-63994933D01*
X229555266Y-63994933D01*
X229588600Y-63978266D01*
X229605266Y-63961600D01*
X229621933Y-63928266D01*
X229621933Y-63861600D01*
X229605266Y-63828266D01*
X229588600Y-63811600D01*
X229555266Y-63794933D01*
X229488600Y-63794933D01*
X229455266Y-63811600D01*
X229438600Y-63828266D01*
X229421933Y-63861600D01*
G04 #@! TO.C,R1*
X218597566Y-82708333D02*
X218480900Y-82541666D01*
X218397566Y-82708333D02*
X218397566Y-82358333D01*
X218530900Y-82358333D01*
X218564233Y-82375000D01*
X218580900Y-82391666D01*
X218597566Y-82425000D01*
X218597566Y-82475000D01*
X218580900Y-82508333D01*
X218564233Y-82525000D01*
X218530900Y-82541666D01*
X218397566Y-82541666D01*
X218930900Y-82708333D02*
X218730900Y-82708333D01*
X218830900Y-82708333D02*
X218830900Y-82358333D01*
X218797566Y-82408333D01*
X218764233Y-82441666D01*
X218730900Y-82458333D01*
G04 #@! TO.C,R55*
X245433433Y-59559400D02*
X245266766Y-59676066D01*
X245433433Y-59759400D02*
X245083433Y-59759400D01*
X245083433Y-59626066D01*
X245100100Y-59592733D01*
X245116766Y-59576066D01*
X245150100Y-59559400D01*
X245200100Y-59559400D01*
X245233433Y-59576066D01*
X245250100Y-59592733D01*
X245266766Y-59626066D01*
X245266766Y-59759400D01*
X245083433Y-59242733D02*
X245083433Y-59409400D01*
X245250100Y-59426066D01*
X245233433Y-59409400D01*
X245216766Y-59376066D01*
X245216766Y-59292733D01*
X245233433Y-59259400D01*
X245250100Y-59242733D01*
X245283433Y-59226066D01*
X245366766Y-59226066D01*
X245400100Y-59242733D01*
X245416766Y-59259400D01*
X245433433Y-59292733D01*
X245433433Y-59376066D01*
X245416766Y-59409400D01*
X245400100Y-59426066D01*
X245083433Y-58909400D02*
X245083433Y-59076066D01*
X245250100Y-59092733D01*
X245233433Y-59076066D01*
X245216766Y-59042733D01*
X245216766Y-58959400D01*
X245233433Y-58926066D01*
X245250100Y-58909400D01*
X245283433Y-58892733D01*
X245366766Y-58892733D01*
X245400100Y-58909400D01*
X245416766Y-58926066D01*
X245433433Y-58959400D01*
X245433433Y-59042733D01*
X245416766Y-59076066D01*
X245400100Y-59092733D01*
G04 #@! TO.C,R12*
X220183500Y-67061933D02*
X220066833Y-66895266D01*
X219983500Y-67061933D02*
X219983500Y-66711933D01*
X220116833Y-66711933D01*
X220150166Y-66728600D01*
X220166833Y-66745266D01*
X220183500Y-66778600D01*
X220183500Y-66828600D01*
X220166833Y-66861933D01*
X220150166Y-66878600D01*
X220116833Y-66895266D01*
X219983500Y-66895266D01*
X220516833Y-67061933D02*
X220316833Y-67061933D01*
X220416833Y-67061933D02*
X220416833Y-66711933D01*
X220383500Y-66761933D01*
X220350166Y-66795266D01*
X220316833Y-66811933D01*
X220650166Y-66745266D02*
X220666833Y-66728600D01*
X220700166Y-66711933D01*
X220783500Y-66711933D01*
X220816833Y-66728600D01*
X220833500Y-66745266D01*
X220850166Y-66778600D01*
X220850166Y-66811933D01*
X220833500Y-66861933D01*
X220633500Y-67061933D01*
X220850166Y-67061933D01*
G04 #@! TO.C,R61*
X224286333Y-65249000D02*
X224119666Y-65365666D01*
X224286333Y-65449000D02*
X223936333Y-65449000D01*
X223936333Y-65315666D01*
X223953000Y-65282333D01*
X223969666Y-65265666D01*
X224003000Y-65249000D01*
X224053000Y-65249000D01*
X224086333Y-65265666D01*
X224103000Y-65282333D01*
X224119666Y-65315666D01*
X224119666Y-65449000D01*
X223936333Y-64949000D02*
X223936333Y-65015666D01*
X223953000Y-65049000D01*
X223969666Y-65065666D01*
X224019666Y-65099000D01*
X224086333Y-65115666D01*
X224219666Y-65115666D01*
X224253000Y-65099000D01*
X224269666Y-65082333D01*
X224286333Y-65049000D01*
X224286333Y-64982333D01*
X224269666Y-64949000D01*
X224253000Y-64932333D01*
X224219666Y-64915666D01*
X224136333Y-64915666D01*
X224103000Y-64932333D01*
X224086333Y-64949000D01*
X224069666Y-64982333D01*
X224069666Y-65049000D01*
X224086333Y-65082333D01*
X224103000Y-65099000D01*
X224136333Y-65115666D01*
X224286333Y-64582333D02*
X224286333Y-64782333D01*
X224286333Y-64682333D02*
X223936333Y-64682333D01*
X223986333Y-64715666D01*
X224019666Y-64749000D01*
X224036333Y-64782333D01*
G04 #@! TO.C,R62*
X230206133Y-50555100D02*
X230039466Y-50671766D01*
X230206133Y-50755100D02*
X229856133Y-50755100D01*
X229856133Y-50621766D01*
X229872800Y-50588433D01*
X229889466Y-50571766D01*
X229922800Y-50555100D01*
X229972800Y-50555100D01*
X230006133Y-50571766D01*
X230022800Y-50588433D01*
X230039466Y-50621766D01*
X230039466Y-50755100D01*
X229856133Y-50255100D02*
X229856133Y-50321766D01*
X229872800Y-50355100D01*
X229889466Y-50371766D01*
X229939466Y-50405100D01*
X230006133Y-50421766D01*
X230139466Y-50421766D01*
X230172800Y-50405100D01*
X230189466Y-50388433D01*
X230206133Y-50355100D01*
X230206133Y-50288433D01*
X230189466Y-50255100D01*
X230172800Y-50238433D01*
X230139466Y-50221766D01*
X230056133Y-50221766D01*
X230022800Y-50238433D01*
X230006133Y-50255100D01*
X229989466Y-50288433D01*
X229989466Y-50355100D01*
X230006133Y-50388433D01*
X230022800Y-50405100D01*
X230056133Y-50421766D01*
X229889466Y-50088433D02*
X229872800Y-50071766D01*
X229856133Y-50038433D01*
X229856133Y-49955100D01*
X229872800Y-49921766D01*
X229889466Y-49905100D01*
X229922800Y-49888433D01*
X229956133Y-49888433D01*
X230006133Y-49905100D01*
X230206133Y-50105100D01*
X230206133Y-49888433D01*
G04 #@! TO.C,R29*
X237836922Y-71054103D02*
X237670255Y-71170769D01*
X237836922Y-71254103D02*
X237486922Y-71254103D01*
X237486922Y-71120769D01*
X237503589Y-71087436D01*
X237520255Y-71070769D01*
X237553589Y-71054103D01*
X237603589Y-71054103D01*
X237636922Y-71070769D01*
X237653589Y-71087436D01*
X237670255Y-71120769D01*
X237670255Y-71254103D01*
X237520255Y-70920769D02*
X237503589Y-70904103D01*
X237486922Y-70870769D01*
X237486922Y-70787436D01*
X237503589Y-70754103D01*
X237520255Y-70737436D01*
X237553589Y-70720769D01*
X237586922Y-70720769D01*
X237636922Y-70737436D01*
X237836922Y-70937436D01*
X237836922Y-70720769D01*
X237836922Y-70554103D02*
X237836922Y-70487436D01*
X237820255Y-70454103D01*
X237803589Y-70437436D01*
X237753589Y-70404103D01*
X237686922Y-70387436D01*
X237553589Y-70387436D01*
X237520255Y-70404103D01*
X237503589Y-70420769D01*
X237486922Y-70454103D01*
X237486922Y-70520769D01*
X237503589Y-70554103D01*
X237520255Y-70570769D01*
X237553589Y-70587436D01*
X237636922Y-70587436D01*
X237670255Y-70570769D01*
X237686922Y-70554103D01*
X237703589Y-70520769D01*
X237703589Y-70454103D01*
X237686922Y-70420769D01*
X237670255Y-70404103D01*
X237636922Y-70387436D01*
G04 #@! TO.C,R15*
X216413933Y-38540900D02*
X216247266Y-38657566D01*
X216413933Y-38740900D02*
X216063933Y-38740900D01*
X216063933Y-38607566D01*
X216080600Y-38574233D01*
X216097266Y-38557566D01*
X216130600Y-38540900D01*
X216180600Y-38540900D01*
X216213933Y-38557566D01*
X216230600Y-38574233D01*
X216247266Y-38607566D01*
X216247266Y-38740900D01*
X216413933Y-38207566D02*
X216413933Y-38407566D01*
X216413933Y-38307566D02*
X216063933Y-38307566D01*
X216113933Y-38340900D01*
X216147266Y-38374233D01*
X216163933Y-38407566D01*
X216063933Y-37890900D02*
X216063933Y-38057566D01*
X216230600Y-38074233D01*
X216213933Y-38057566D01*
X216197266Y-38024233D01*
X216197266Y-37940900D01*
X216213933Y-37907566D01*
X216230600Y-37890900D01*
X216263933Y-37874233D01*
X216347266Y-37874233D01*
X216380600Y-37890900D01*
X216397266Y-37907566D01*
X216413933Y-37940900D01*
X216413933Y-38024233D01*
X216397266Y-38057566D01*
X216380600Y-38074233D01*
G04 #@! TO.C,R19*
X221570133Y-38604400D02*
X221403466Y-38721066D01*
X221570133Y-38804400D02*
X221220133Y-38804400D01*
X221220133Y-38671066D01*
X221236800Y-38637733D01*
X221253466Y-38621066D01*
X221286800Y-38604400D01*
X221336800Y-38604400D01*
X221370133Y-38621066D01*
X221386800Y-38637733D01*
X221403466Y-38671066D01*
X221403466Y-38804400D01*
X221570133Y-38271066D02*
X221570133Y-38471066D01*
X221570133Y-38371066D02*
X221220133Y-38371066D01*
X221270133Y-38404400D01*
X221303466Y-38437733D01*
X221320133Y-38471066D01*
X221570133Y-38104400D02*
X221570133Y-38037733D01*
X221553466Y-38004400D01*
X221536800Y-37987733D01*
X221486800Y-37954400D01*
X221420133Y-37937733D01*
X221286800Y-37937733D01*
X221253466Y-37954400D01*
X221236800Y-37971066D01*
X221220133Y-38004400D01*
X221220133Y-38071066D01*
X221236800Y-38104400D01*
X221253466Y-38121066D01*
X221286800Y-38137733D01*
X221370133Y-38137733D01*
X221403466Y-38121066D01*
X221420133Y-38104400D01*
X221436800Y-38071066D01*
X221436800Y-38004400D01*
X221420133Y-37971066D01*
X221403466Y-37954400D01*
X221370133Y-37937733D01*
G04 #@! TO.C,R16*
X215296333Y-38579000D02*
X215129666Y-38695666D01*
X215296333Y-38779000D02*
X214946333Y-38779000D01*
X214946333Y-38645666D01*
X214963000Y-38612333D01*
X214979666Y-38595666D01*
X215013000Y-38579000D01*
X215063000Y-38579000D01*
X215096333Y-38595666D01*
X215113000Y-38612333D01*
X215129666Y-38645666D01*
X215129666Y-38779000D01*
X215296333Y-38245666D02*
X215296333Y-38445666D01*
X215296333Y-38345666D02*
X214946333Y-38345666D01*
X214996333Y-38379000D01*
X215029666Y-38412333D01*
X215046333Y-38445666D01*
X214946333Y-37945666D02*
X214946333Y-38012333D01*
X214963000Y-38045666D01*
X214979666Y-38062333D01*
X215029666Y-38095666D01*
X215096333Y-38112333D01*
X215229666Y-38112333D01*
X215263000Y-38095666D01*
X215279666Y-38079000D01*
X215296333Y-38045666D01*
X215296333Y-37979000D01*
X215279666Y-37945666D01*
X215263000Y-37929000D01*
X215229666Y-37912333D01*
X215146333Y-37912333D01*
X215113000Y-37929000D01*
X215096333Y-37945666D01*
X215079666Y-37979000D01*
X215079666Y-38045666D01*
X215096333Y-38079000D01*
X215113000Y-38095666D01*
X215146333Y-38112333D01*
G04 #@! TO.C,R20*
X220528733Y-38477400D02*
X220362066Y-38594066D01*
X220528733Y-38677400D02*
X220178733Y-38677400D01*
X220178733Y-38544066D01*
X220195400Y-38510733D01*
X220212066Y-38494066D01*
X220245400Y-38477400D01*
X220295400Y-38477400D01*
X220328733Y-38494066D01*
X220345400Y-38510733D01*
X220362066Y-38544066D01*
X220362066Y-38677400D01*
X220212066Y-38344066D02*
X220195400Y-38327400D01*
X220178733Y-38294066D01*
X220178733Y-38210733D01*
X220195400Y-38177400D01*
X220212066Y-38160733D01*
X220245400Y-38144066D01*
X220278733Y-38144066D01*
X220328733Y-38160733D01*
X220528733Y-38360733D01*
X220528733Y-38144066D01*
X220178733Y-37927400D02*
X220178733Y-37894066D01*
X220195400Y-37860733D01*
X220212066Y-37844066D01*
X220245400Y-37827400D01*
X220312066Y-37810733D01*
X220395400Y-37810733D01*
X220462066Y-37827400D01*
X220495400Y-37844066D01*
X220512066Y-37860733D01*
X220528733Y-37894066D01*
X220528733Y-37927400D01*
X220512066Y-37960733D01*
X220495400Y-37977400D01*
X220462066Y-37994066D01*
X220395400Y-38010733D01*
X220312066Y-38010733D01*
X220245400Y-37994066D01*
X220212066Y-37977400D01*
X220195400Y-37960733D01*
X220178733Y-37927400D01*
G04 #@! TO.C,R23*
X224910233Y-50986900D02*
X224743566Y-51103566D01*
X224910233Y-51186900D02*
X224560233Y-51186900D01*
X224560233Y-51053566D01*
X224576900Y-51020233D01*
X224593566Y-51003566D01*
X224626900Y-50986900D01*
X224676900Y-50986900D01*
X224710233Y-51003566D01*
X224726900Y-51020233D01*
X224743566Y-51053566D01*
X224743566Y-51186900D01*
X224593566Y-50853566D02*
X224576900Y-50836900D01*
X224560233Y-50803566D01*
X224560233Y-50720233D01*
X224576900Y-50686900D01*
X224593566Y-50670233D01*
X224626900Y-50653566D01*
X224660233Y-50653566D01*
X224710233Y-50670233D01*
X224910233Y-50870233D01*
X224910233Y-50653566D01*
X224560233Y-50536900D02*
X224560233Y-50320233D01*
X224693566Y-50436900D01*
X224693566Y-50386900D01*
X224710233Y-50353566D01*
X224726900Y-50336900D01*
X224760233Y-50320233D01*
X224843566Y-50320233D01*
X224876900Y-50336900D01*
X224893566Y-50353566D01*
X224910233Y-50386900D01*
X224910233Y-50486900D01*
X224893566Y-50520233D01*
X224876900Y-50536900D01*
G04 #@! TO.C,R22*
X218344333Y-50898000D02*
X218177666Y-51014666D01*
X218344333Y-51098000D02*
X217994333Y-51098000D01*
X217994333Y-50964666D01*
X218011000Y-50931333D01*
X218027666Y-50914666D01*
X218061000Y-50898000D01*
X218111000Y-50898000D01*
X218144333Y-50914666D01*
X218161000Y-50931333D01*
X218177666Y-50964666D01*
X218177666Y-51098000D01*
X218027666Y-50764666D02*
X218011000Y-50748000D01*
X217994333Y-50714666D01*
X217994333Y-50631333D01*
X218011000Y-50598000D01*
X218027666Y-50581333D01*
X218061000Y-50564666D01*
X218094333Y-50564666D01*
X218144333Y-50581333D01*
X218344333Y-50781333D01*
X218344333Y-50564666D01*
X218027666Y-50431333D02*
X218011000Y-50414666D01*
X217994333Y-50381333D01*
X217994333Y-50298000D01*
X218011000Y-50264666D01*
X218027666Y-50248000D01*
X218061000Y-50231333D01*
X218094333Y-50231333D01*
X218144333Y-50248000D01*
X218344333Y-50448000D01*
X218344333Y-50231333D01*
G04 #@! TO.C,R33*
X242436233Y-64093300D02*
X242269566Y-64209966D01*
X242436233Y-64293300D02*
X242086233Y-64293300D01*
X242086233Y-64159966D01*
X242102900Y-64126633D01*
X242119566Y-64109966D01*
X242152900Y-64093300D01*
X242202900Y-64093300D01*
X242236233Y-64109966D01*
X242252900Y-64126633D01*
X242269566Y-64159966D01*
X242269566Y-64293300D01*
X242086233Y-63976633D02*
X242086233Y-63759966D01*
X242219566Y-63876633D01*
X242219566Y-63826633D01*
X242236233Y-63793300D01*
X242252900Y-63776633D01*
X242286233Y-63759966D01*
X242369566Y-63759966D01*
X242402900Y-63776633D01*
X242419566Y-63793300D01*
X242436233Y-63826633D01*
X242436233Y-63926633D01*
X242419566Y-63959966D01*
X242402900Y-63976633D01*
X242086233Y-63643300D02*
X242086233Y-63426633D01*
X242219566Y-63543300D01*
X242219566Y-63493300D01*
X242236233Y-63459966D01*
X242252900Y-63443300D01*
X242286233Y-63426633D01*
X242369566Y-63426633D01*
X242402900Y-63443300D01*
X242419566Y-63459966D01*
X242436233Y-63493300D01*
X242436233Y-63593300D01*
X242419566Y-63626633D01*
X242402900Y-63643300D01*
G04 #@! TO.C,R31*
X244747633Y-63966300D02*
X244580966Y-64082966D01*
X244747633Y-64166300D02*
X244397633Y-64166300D01*
X244397633Y-64032966D01*
X244414300Y-63999633D01*
X244430966Y-63982966D01*
X244464300Y-63966300D01*
X244514300Y-63966300D01*
X244547633Y-63982966D01*
X244564300Y-63999633D01*
X244580966Y-64032966D01*
X244580966Y-64166300D01*
X244397633Y-63849633D02*
X244397633Y-63632966D01*
X244530966Y-63749633D01*
X244530966Y-63699633D01*
X244547633Y-63666300D01*
X244564300Y-63649633D01*
X244597633Y-63632966D01*
X244680966Y-63632966D01*
X244714300Y-63649633D01*
X244730966Y-63666300D01*
X244747633Y-63699633D01*
X244747633Y-63799633D01*
X244730966Y-63832966D01*
X244714300Y-63849633D01*
X244747633Y-63299633D02*
X244747633Y-63499633D01*
X244747633Y-63399633D02*
X244397633Y-63399633D01*
X244447633Y-63432966D01*
X244480966Y-63466300D01*
X244497633Y-63499633D01*
G04 #@! TO.C,R25*
X217544233Y-58086200D02*
X217377566Y-58202866D01*
X217544233Y-58286200D02*
X217194233Y-58286200D01*
X217194233Y-58152866D01*
X217210900Y-58119533D01*
X217227566Y-58102866D01*
X217260900Y-58086200D01*
X217310900Y-58086200D01*
X217344233Y-58102866D01*
X217360900Y-58119533D01*
X217377566Y-58152866D01*
X217377566Y-58286200D01*
X217227566Y-57952866D02*
X217210900Y-57936200D01*
X217194233Y-57902866D01*
X217194233Y-57819533D01*
X217210900Y-57786200D01*
X217227566Y-57769533D01*
X217260900Y-57752866D01*
X217294233Y-57752866D01*
X217344233Y-57769533D01*
X217544233Y-57969533D01*
X217544233Y-57752866D01*
X217194233Y-57436200D02*
X217194233Y-57602866D01*
X217360900Y-57619533D01*
X217344233Y-57602866D01*
X217327566Y-57569533D01*
X217327566Y-57486200D01*
X217344233Y-57452866D01*
X217360900Y-57436200D01*
X217394233Y-57419533D01*
X217477566Y-57419533D01*
X217510900Y-57436200D01*
X217527566Y-57452866D01*
X217544233Y-57486200D01*
X217544233Y-57569533D01*
X217527566Y-57602866D01*
X217510900Y-57619533D01*
G04 #@! TO.C,R27*
X233863733Y-60181700D02*
X233697066Y-60298366D01*
X233863733Y-60381700D02*
X233513733Y-60381700D01*
X233513733Y-60248366D01*
X233530400Y-60215033D01*
X233547066Y-60198366D01*
X233580400Y-60181700D01*
X233630400Y-60181700D01*
X233663733Y-60198366D01*
X233680400Y-60215033D01*
X233697066Y-60248366D01*
X233697066Y-60381700D01*
X233547066Y-60048366D02*
X233530400Y-60031700D01*
X233513733Y-59998366D01*
X233513733Y-59915033D01*
X233530400Y-59881700D01*
X233547066Y-59865033D01*
X233580400Y-59848366D01*
X233613733Y-59848366D01*
X233663733Y-59865033D01*
X233863733Y-60065033D01*
X233863733Y-59848366D01*
X233513733Y-59731700D02*
X233513733Y-59498366D01*
X233863733Y-59648366D01*
G04 #@! TO.C,R32*
X243553833Y-64169500D02*
X243387166Y-64286166D01*
X243553833Y-64369500D02*
X243203833Y-64369500D01*
X243203833Y-64236166D01*
X243220500Y-64202833D01*
X243237166Y-64186166D01*
X243270500Y-64169500D01*
X243320500Y-64169500D01*
X243353833Y-64186166D01*
X243370500Y-64202833D01*
X243387166Y-64236166D01*
X243387166Y-64369500D01*
X243203833Y-64052833D02*
X243203833Y-63836166D01*
X243337166Y-63952833D01*
X243337166Y-63902833D01*
X243353833Y-63869500D01*
X243370500Y-63852833D01*
X243403833Y-63836166D01*
X243487166Y-63836166D01*
X243520500Y-63852833D01*
X243537166Y-63869500D01*
X243553833Y-63902833D01*
X243553833Y-64002833D01*
X243537166Y-64036166D01*
X243520500Y-64052833D01*
X243237166Y-63702833D02*
X243220500Y-63686166D01*
X243203833Y-63652833D01*
X243203833Y-63569500D01*
X243220500Y-63536166D01*
X243237166Y-63519500D01*
X243270500Y-63502833D01*
X243303833Y-63502833D01*
X243353833Y-63519500D01*
X243553833Y-63719500D01*
X243553833Y-63502833D01*
G04 #@! TO.C,R18*
X219284133Y-38566300D02*
X219117466Y-38682966D01*
X219284133Y-38766300D02*
X218934133Y-38766300D01*
X218934133Y-38632966D01*
X218950800Y-38599633D01*
X218967466Y-38582966D01*
X219000800Y-38566300D01*
X219050800Y-38566300D01*
X219084133Y-38582966D01*
X219100800Y-38599633D01*
X219117466Y-38632966D01*
X219117466Y-38766300D01*
X219284133Y-38232966D02*
X219284133Y-38432966D01*
X219284133Y-38332966D02*
X218934133Y-38332966D01*
X218984133Y-38366300D01*
X219017466Y-38399633D01*
X219034133Y-38432966D01*
X219084133Y-38032966D02*
X219067466Y-38066300D01*
X219050800Y-38082966D01*
X219017466Y-38099633D01*
X219000800Y-38099633D01*
X218967466Y-38082966D01*
X218950800Y-38066300D01*
X218934133Y-38032966D01*
X218934133Y-37966300D01*
X218950800Y-37932966D01*
X218967466Y-37916300D01*
X219000800Y-37899633D01*
X219017466Y-37899633D01*
X219050800Y-37916300D01*
X219067466Y-37932966D01*
X219084133Y-37966300D01*
X219084133Y-38032966D01*
X219100800Y-38066300D01*
X219117466Y-38082966D01*
X219150800Y-38099633D01*
X219217466Y-38099633D01*
X219250800Y-38082966D01*
X219267466Y-38066300D01*
X219284133Y-38032966D01*
X219284133Y-37966300D01*
X219267466Y-37932966D01*
X219250800Y-37916300D01*
X219217466Y-37899633D01*
X219150800Y-37899633D01*
X219117466Y-37916300D01*
X219100800Y-37932966D01*
X219084133Y-37966300D01*
G04 #@! TO.C,R30*
X241811600Y-66960333D02*
X241694933Y-66793666D01*
X241611600Y-66960333D02*
X241611600Y-66610333D01*
X241744933Y-66610333D01*
X241778266Y-66627000D01*
X241794933Y-66643666D01*
X241811600Y-66677000D01*
X241811600Y-66727000D01*
X241794933Y-66760333D01*
X241778266Y-66777000D01*
X241744933Y-66793666D01*
X241611600Y-66793666D01*
X241928266Y-66610333D02*
X242144933Y-66610333D01*
X242028266Y-66743666D01*
X242078266Y-66743666D01*
X242111600Y-66760333D01*
X242128266Y-66777000D01*
X242144933Y-66810333D01*
X242144933Y-66893666D01*
X242128266Y-66927000D01*
X242111600Y-66943666D01*
X242078266Y-66960333D01*
X241978266Y-66960333D01*
X241944933Y-66943666D01*
X241928266Y-66927000D01*
X242361600Y-66610333D02*
X242394933Y-66610333D01*
X242428266Y-66627000D01*
X242444933Y-66643666D01*
X242461600Y-66677000D01*
X242478266Y-66743666D01*
X242478266Y-66827000D01*
X242461600Y-66893666D01*
X242444933Y-66927000D01*
X242428266Y-66943666D01*
X242394933Y-66960333D01*
X242361600Y-66960333D01*
X242328266Y-66943666D01*
X242311600Y-66927000D01*
X242294933Y-66893666D01*
X242278266Y-66827000D01*
X242278266Y-66743666D01*
X242294933Y-66677000D01*
X242311600Y-66643666D01*
X242328266Y-66627000D01*
X242361600Y-66610333D01*
G04 #@! TO.C,R26*
X214280333Y-50390000D02*
X214113666Y-50506666D01*
X214280333Y-50590000D02*
X213930333Y-50590000D01*
X213930333Y-50456666D01*
X213947000Y-50423333D01*
X213963666Y-50406666D01*
X213997000Y-50390000D01*
X214047000Y-50390000D01*
X214080333Y-50406666D01*
X214097000Y-50423333D01*
X214113666Y-50456666D01*
X214113666Y-50590000D01*
X213963666Y-50256666D02*
X213947000Y-50240000D01*
X213930333Y-50206666D01*
X213930333Y-50123333D01*
X213947000Y-50090000D01*
X213963666Y-50073333D01*
X213997000Y-50056666D01*
X214030333Y-50056666D01*
X214080333Y-50073333D01*
X214280333Y-50273333D01*
X214280333Y-50056666D01*
X213930333Y-49756666D02*
X213930333Y-49823333D01*
X213947000Y-49856666D01*
X213963666Y-49873333D01*
X214013666Y-49906666D01*
X214080333Y-49923333D01*
X214213666Y-49923333D01*
X214247000Y-49906666D01*
X214263666Y-49890000D01*
X214280333Y-49856666D01*
X214280333Y-49790000D01*
X214263666Y-49756666D01*
X214247000Y-49740000D01*
X214213666Y-49723333D01*
X214130333Y-49723333D01*
X214097000Y-49740000D01*
X214080333Y-49756666D01*
X214063666Y-49790000D01*
X214063666Y-49856666D01*
X214080333Y-49890000D01*
X214097000Y-49906666D01*
X214130333Y-49923333D01*
G04 #@! TO.C,R8*
X225075333Y-44228933D02*
X224908666Y-44345600D01*
X225075333Y-44428933D02*
X224725333Y-44428933D01*
X224725333Y-44295600D01*
X224742000Y-44262266D01*
X224758666Y-44245600D01*
X224792000Y-44228933D01*
X224842000Y-44228933D01*
X224875333Y-44245600D01*
X224892000Y-44262266D01*
X224908666Y-44295600D01*
X224908666Y-44428933D01*
X224875333Y-44028933D02*
X224858666Y-44062266D01*
X224842000Y-44078933D01*
X224808666Y-44095600D01*
X224792000Y-44095600D01*
X224758666Y-44078933D01*
X224742000Y-44062266D01*
X224725333Y-44028933D01*
X224725333Y-43962266D01*
X224742000Y-43928933D01*
X224758666Y-43912266D01*
X224792000Y-43895600D01*
X224808666Y-43895600D01*
X224842000Y-43912266D01*
X224858666Y-43928933D01*
X224875333Y-43962266D01*
X224875333Y-44028933D01*
X224892000Y-44062266D01*
X224908666Y-44078933D01*
X224942000Y-44095600D01*
X225008666Y-44095600D01*
X225042000Y-44078933D01*
X225058666Y-44062266D01*
X225075333Y-44028933D01*
X225075333Y-43962266D01*
X225058666Y-43928933D01*
X225042000Y-43912266D01*
X225008666Y-43895600D01*
X224942000Y-43895600D01*
X224908666Y-43912266D01*
X224892000Y-43928933D01*
X224875333Y-43962266D01*
G04 #@! TO.C,R40*
X233863733Y-64474300D02*
X233697066Y-64590966D01*
X233863733Y-64674300D02*
X233513733Y-64674300D01*
X233513733Y-64540966D01*
X233530400Y-64507633D01*
X233547066Y-64490966D01*
X233580400Y-64474300D01*
X233630400Y-64474300D01*
X233663733Y-64490966D01*
X233680400Y-64507633D01*
X233697066Y-64540966D01*
X233697066Y-64674300D01*
X233630400Y-64174300D02*
X233863733Y-64174300D01*
X233497066Y-64257633D02*
X233747066Y-64340966D01*
X233747066Y-64124300D01*
X233513733Y-63924300D02*
X233513733Y-63890966D01*
X233530400Y-63857633D01*
X233547066Y-63840966D01*
X233580400Y-63824300D01*
X233647066Y-63807633D01*
X233730400Y-63807633D01*
X233797066Y-63824300D01*
X233830400Y-63840966D01*
X233847066Y-63857633D01*
X233863733Y-63890966D01*
X233863733Y-63924300D01*
X233847066Y-63957633D01*
X233830400Y-63974300D01*
X233797066Y-63990966D01*
X233730400Y-64007633D01*
X233647066Y-64007633D01*
X233580400Y-63990966D01*
X233547066Y-63974300D01*
X233530400Y-63957633D01*
X233513733Y-63924300D01*
G04 #@! TO.C,R42*
X232390533Y-66963500D02*
X232223866Y-67080166D01*
X232390533Y-67163500D02*
X232040533Y-67163500D01*
X232040533Y-67030166D01*
X232057200Y-66996833D01*
X232073866Y-66980166D01*
X232107200Y-66963500D01*
X232157200Y-66963500D01*
X232190533Y-66980166D01*
X232207200Y-66996833D01*
X232223866Y-67030166D01*
X232223866Y-67163500D01*
X232157200Y-66663500D02*
X232390533Y-66663500D01*
X232023866Y-66746833D02*
X232273866Y-66830166D01*
X232273866Y-66613500D01*
X232073866Y-66496833D02*
X232057200Y-66480166D01*
X232040533Y-66446833D01*
X232040533Y-66363500D01*
X232057200Y-66330166D01*
X232073866Y-66313500D01*
X232107200Y-66296833D01*
X232140533Y-66296833D01*
X232190533Y-66313500D01*
X232390533Y-66513500D01*
X232390533Y-66296833D01*
G04 #@! TO.C,R35*
X243134733Y-59686400D02*
X242968066Y-59803066D01*
X243134733Y-59886400D02*
X242784733Y-59886400D01*
X242784733Y-59753066D01*
X242801400Y-59719733D01*
X242818066Y-59703066D01*
X242851400Y-59686400D01*
X242901400Y-59686400D01*
X242934733Y-59703066D01*
X242951400Y-59719733D01*
X242968066Y-59753066D01*
X242968066Y-59886400D01*
X242784733Y-59569733D02*
X242784733Y-59353066D01*
X242918066Y-59469733D01*
X242918066Y-59419733D01*
X242934733Y-59386400D01*
X242951400Y-59369733D01*
X242984733Y-59353066D01*
X243068066Y-59353066D01*
X243101400Y-59369733D01*
X243118066Y-59386400D01*
X243134733Y-59419733D01*
X243134733Y-59519733D01*
X243118066Y-59553066D01*
X243101400Y-59569733D01*
X242784733Y-59036400D02*
X242784733Y-59203066D01*
X242951400Y-59219733D01*
X242934733Y-59203066D01*
X242918066Y-59169733D01*
X242918066Y-59086400D01*
X242934733Y-59053066D01*
X242951400Y-59036400D01*
X242984733Y-59019733D01*
X243068066Y-59019733D01*
X243101400Y-59036400D01*
X243118066Y-59053066D01*
X243134733Y-59086400D01*
X243134733Y-59169733D01*
X243118066Y-59203066D01*
X243101400Y-59219733D01*
G04 #@! TO.C,R37*
X225926233Y-50948800D02*
X225759566Y-51065466D01*
X225926233Y-51148800D02*
X225576233Y-51148800D01*
X225576233Y-51015466D01*
X225592900Y-50982133D01*
X225609566Y-50965466D01*
X225642900Y-50948800D01*
X225692900Y-50948800D01*
X225726233Y-50965466D01*
X225742900Y-50982133D01*
X225759566Y-51015466D01*
X225759566Y-51148800D01*
X225576233Y-50832133D02*
X225576233Y-50615466D01*
X225709566Y-50732133D01*
X225709566Y-50682133D01*
X225726233Y-50648800D01*
X225742900Y-50632133D01*
X225776233Y-50615466D01*
X225859566Y-50615466D01*
X225892900Y-50632133D01*
X225909566Y-50648800D01*
X225926233Y-50682133D01*
X225926233Y-50782133D01*
X225909566Y-50815466D01*
X225892900Y-50832133D01*
X225576233Y-50498800D02*
X225576233Y-50265466D01*
X225926233Y-50415466D01*
G04 #@! TO.C,R41*
X228542433Y-64271100D02*
X228375766Y-64387766D01*
X228542433Y-64471100D02*
X228192433Y-64471100D01*
X228192433Y-64337766D01*
X228209100Y-64304433D01*
X228225766Y-64287766D01*
X228259100Y-64271100D01*
X228309100Y-64271100D01*
X228342433Y-64287766D01*
X228359100Y-64304433D01*
X228375766Y-64337766D01*
X228375766Y-64471100D01*
X228309100Y-63971100D02*
X228542433Y-63971100D01*
X228175766Y-64054433D02*
X228425766Y-64137766D01*
X228425766Y-63921100D01*
X228542433Y-63604433D02*
X228542433Y-63804433D01*
X228542433Y-63704433D02*
X228192433Y-63704433D01*
X228242433Y-63737766D01*
X228275766Y-63771100D01*
X228292433Y-63804433D01*
G04 #@! TO.C,R13*
X217214033Y-41411100D02*
X217047366Y-41527766D01*
X217214033Y-41611100D02*
X216864033Y-41611100D01*
X216864033Y-41477766D01*
X216880700Y-41444433D01*
X216897366Y-41427766D01*
X216930700Y-41411100D01*
X216980700Y-41411100D01*
X217014033Y-41427766D01*
X217030700Y-41444433D01*
X217047366Y-41477766D01*
X217047366Y-41611100D01*
X217214033Y-41077766D02*
X217214033Y-41277766D01*
X217214033Y-41177766D02*
X216864033Y-41177766D01*
X216914033Y-41211100D01*
X216947366Y-41244433D01*
X216964033Y-41277766D01*
X216864033Y-40961100D02*
X216864033Y-40744433D01*
X216997366Y-40861100D01*
X216997366Y-40811100D01*
X217014033Y-40777766D01*
X217030700Y-40761100D01*
X217064033Y-40744433D01*
X217147366Y-40744433D01*
X217180700Y-40761100D01*
X217197366Y-40777766D01*
X217214033Y-40811100D01*
X217214033Y-40911100D01*
X217197366Y-40944433D01*
X217180700Y-40961100D01*
G04 #@! TO.C,R28*
X233899922Y-55038200D02*
X233733255Y-55154866D01*
X233899922Y-55238200D02*
X233549922Y-55238200D01*
X233549922Y-55104866D01*
X233566589Y-55071533D01*
X233583255Y-55054866D01*
X233616589Y-55038200D01*
X233666589Y-55038200D01*
X233699922Y-55054866D01*
X233716589Y-55071533D01*
X233733255Y-55104866D01*
X233733255Y-55238200D01*
X233583255Y-54904866D02*
X233566589Y-54888200D01*
X233549922Y-54854866D01*
X233549922Y-54771533D01*
X233566589Y-54738200D01*
X233583255Y-54721533D01*
X233616589Y-54704866D01*
X233649922Y-54704866D01*
X233699922Y-54721533D01*
X233899922Y-54921533D01*
X233899922Y-54704866D01*
X233699922Y-54504866D02*
X233683255Y-54538200D01*
X233666589Y-54554866D01*
X233633255Y-54571533D01*
X233616589Y-54571533D01*
X233583255Y-54554866D01*
X233566589Y-54538200D01*
X233549922Y-54504866D01*
X233549922Y-54438200D01*
X233566589Y-54404866D01*
X233583255Y-54388200D01*
X233616589Y-54371533D01*
X233633255Y-54371533D01*
X233666589Y-54388200D01*
X233683255Y-54404866D01*
X233699922Y-54438200D01*
X233699922Y-54504866D01*
X233716589Y-54538200D01*
X233733255Y-54554866D01*
X233766589Y-54571533D01*
X233833255Y-54571533D01*
X233866589Y-54554866D01*
X233883255Y-54538200D01*
X233899922Y-54504866D01*
X233899922Y-54438200D01*
X233883255Y-54404866D01*
X233866589Y-54388200D01*
X233833255Y-54371533D01*
X233766589Y-54371533D01*
X233733255Y-54388200D01*
X233716589Y-54404866D01*
X233699922Y-54438200D01*
G04 #@! TO.C,R21*
X221493933Y-57984600D02*
X221327266Y-58101266D01*
X221493933Y-58184600D02*
X221143933Y-58184600D01*
X221143933Y-58051266D01*
X221160600Y-58017933D01*
X221177266Y-58001266D01*
X221210600Y-57984600D01*
X221260600Y-57984600D01*
X221293933Y-58001266D01*
X221310600Y-58017933D01*
X221327266Y-58051266D01*
X221327266Y-58184600D01*
X221177266Y-57851266D02*
X221160600Y-57834600D01*
X221143933Y-57801266D01*
X221143933Y-57717933D01*
X221160600Y-57684600D01*
X221177266Y-57667933D01*
X221210600Y-57651266D01*
X221243933Y-57651266D01*
X221293933Y-57667933D01*
X221493933Y-57867933D01*
X221493933Y-57651266D01*
X221493933Y-57317933D02*
X221493933Y-57517933D01*
X221493933Y-57417933D02*
X221143933Y-57417933D01*
X221193933Y-57451266D01*
X221227266Y-57484600D01*
X221243933Y-57517933D01*
G04 #@! TO.C,R24*
X223995833Y-50834500D02*
X223829166Y-50951166D01*
X223995833Y-51034500D02*
X223645833Y-51034500D01*
X223645833Y-50901166D01*
X223662500Y-50867833D01*
X223679166Y-50851166D01*
X223712500Y-50834500D01*
X223762500Y-50834500D01*
X223795833Y-50851166D01*
X223812500Y-50867833D01*
X223829166Y-50901166D01*
X223829166Y-51034500D01*
X223679166Y-50701166D02*
X223662500Y-50684500D01*
X223645833Y-50651166D01*
X223645833Y-50567833D01*
X223662500Y-50534500D01*
X223679166Y-50517833D01*
X223712500Y-50501166D01*
X223745833Y-50501166D01*
X223795833Y-50517833D01*
X223995833Y-50717833D01*
X223995833Y-50501166D01*
X223762500Y-50201166D02*
X223995833Y-50201166D01*
X223629166Y-50284500D02*
X223879166Y-50367833D01*
X223879166Y-50151166D01*
G04 #@! TO.C,R17*
X222662333Y-41296800D02*
X222495666Y-41413466D01*
X222662333Y-41496800D02*
X222312333Y-41496800D01*
X222312333Y-41363466D01*
X222329000Y-41330133D01*
X222345666Y-41313466D01*
X222379000Y-41296800D01*
X222429000Y-41296800D01*
X222462333Y-41313466D01*
X222479000Y-41330133D01*
X222495666Y-41363466D01*
X222495666Y-41496800D01*
X222662333Y-40963466D02*
X222662333Y-41163466D01*
X222662333Y-41063466D02*
X222312333Y-41063466D01*
X222362333Y-41096800D01*
X222395666Y-41130133D01*
X222412333Y-41163466D01*
X222312333Y-40846800D02*
X222312333Y-40613466D01*
X222662333Y-40763466D01*
G04 #@! TO.C,U13*
X238072666Y-59625333D02*
X238072666Y-59908666D01*
X238089333Y-59942000D01*
X238106000Y-59958666D01*
X238139333Y-59975333D01*
X238206000Y-59975333D01*
X238239333Y-59958666D01*
X238256000Y-59942000D01*
X238272666Y-59908666D01*
X238272666Y-59625333D01*
X238622666Y-59975333D02*
X238422666Y-59975333D01*
X238522666Y-59975333D02*
X238522666Y-59625333D01*
X238489333Y-59675333D01*
X238456000Y-59708666D01*
X238422666Y-59725333D01*
X238739333Y-59625333D02*
X238956000Y-59625333D01*
X238839333Y-59758666D01*
X238889333Y-59758666D01*
X238922666Y-59775333D01*
X238939333Y-59792000D01*
X238956000Y-59825333D01*
X238956000Y-59908666D01*
X238939333Y-59942000D01*
X238922666Y-59958666D01*
X238889333Y-59975333D01*
X238789333Y-59975333D01*
X238756000Y-59958666D01*
X238739333Y-59942000D01*
G04 #@! TO.C,SW1*
X204295666Y-89366666D02*
X204312333Y-89316666D01*
X204312333Y-89233333D01*
X204295666Y-89200000D01*
X204279000Y-89183333D01*
X204245666Y-89166666D01*
X204212333Y-89166666D01*
X204179000Y-89183333D01*
X204162333Y-89200000D01*
X204145666Y-89233333D01*
X204129000Y-89300000D01*
X204112333Y-89333333D01*
X204095666Y-89350000D01*
X204062333Y-89366666D01*
X204029000Y-89366666D01*
X203995666Y-89350000D01*
X203979000Y-89333333D01*
X203962333Y-89300000D01*
X203962333Y-89216666D01*
X203979000Y-89166666D01*
X203962333Y-89050000D02*
X204312333Y-88966666D01*
X204062333Y-88900000D01*
X204312333Y-88833333D01*
X203962333Y-88750000D01*
X204312333Y-88433333D02*
X204312333Y-88633333D01*
X204312333Y-88533333D02*
X203962333Y-88533333D01*
X204012333Y-88566666D01*
X204045666Y-88600000D01*
X204062333Y-88633333D01*
G04 #@! TO.C,R34*
X234968633Y-64448900D02*
X234801966Y-64565566D01*
X234968633Y-64648900D02*
X234618633Y-64648900D01*
X234618633Y-64515566D01*
X234635300Y-64482233D01*
X234651966Y-64465566D01*
X234685300Y-64448900D01*
X234735300Y-64448900D01*
X234768633Y-64465566D01*
X234785300Y-64482233D01*
X234801966Y-64515566D01*
X234801966Y-64648900D01*
X234618633Y-64332233D02*
X234618633Y-64115566D01*
X234751966Y-64232233D01*
X234751966Y-64182233D01*
X234768633Y-64148900D01*
X234785300Y-64132233D01*
X234818633Y-64115566D01*
X234901966Y-64115566D01*
X234935300Y-64132233D01*
X234951966Y-64148900D01*
X234968633Y-64182233D01*
X234968633Y-64282233D01*
X234951966Y-64315566D01*
X234935300Y-64332233D01*
X234735300Y-63815566D02*
X234968633Y-63815566D01*
X234601966Y-63898900D02*
X234851966Y-63982233D01*
X234851966Y-63765566D01*
G04 #@! TO.C,Q5*
X219943366Y-53823766D02*
X219910033Y-53807100D01*
X219876700Y-53773766D01*
X219826700Y-53723766D01*
X219793366Y-53707100D01*
X219760033Y-53707100D01*
X219776700Y-53790433D02*
X219743366Y-53773766D01*
X219710033Y-53740433D01*
X219693366Y-53673766D01*
X219693366Y-53557100D01*
X219710033Y-53490433D01*
X219743366Y-53457100D01*
X219776700Y-53440433D01*
X219843366Y-53440433D01*
X219876700Y-53457100D01*
X219910033Y-53490433D01*
X219926700Y-53557100D01*
X219926700Y-53673766D01*
X219910033Y-53740433D01*
X219876700Y-53773766D01*
X219843366Y-53790433D01*
X219776700Y-53790433D01*
X220243366Y-53440433D02*
X220076700Y-53440433D01*
X220060033Y-53607100D01*
X220076700Y-53590433D01*
X220110033Y-53573766D01*
X220193366Y-53573766D01*
X220226700Y-53590433D01*
X220243366Y-53607100D01*
X220260033Y-53640433D01*
X220260033Y-53723766D01*
X220243366Y-53757100D01*
X220226700Y-53773766D01*
X220193366Y-53790433D01*
X220110033Y-53790433D01*
X220076700Y-53773766D01*
X220060033Y-53757100D01*
G04 #@! TO.C,Q4*
X220502166Y-42698566D02*
X220468833Y-42681900D01*
X220435500Y-42648566D01*
X220385500Y-42598566D01*
X220352166Y-42581900D01*
X220318833Y-42581900D01*
X220335500Y-42665233D02*
X220302166Y-42648566D01*
X220268833Y-42615233D01*
X220252166Y-42548566D01*
X220252166Y-42431900D01*
X220268833Y-42365233D01*
X220302166Y-42331900D01*
X220335500Y-42315233D01*
X220402166Y-42315233D01*
X220435500Y-42331900D01*
X220468833Y-42365233D01*
X220485500Y-42431900D01*
X220485500Y-42548566D01*
X220468833Y-42615233D01*
X220435500Y-42648566D01*
X220402166Y-42665233D01*
X220335500Y-42665233D01*
X220785500Y-42431900D02*
X220785500Y-42665233D01*
X220702166Y-42298566D02*
X220618833Y-42548566D01*
X220835500Y-42548566D01*
G04 #@! TO.C,U8*
X201663333Y-25668333D02*
X201663333Y-25951666D01*
X201680000Y-25985000D01*
X201696666Y-26001666D01*
X201730000Y-26018333D01*
X201796666Y-26018333D01*
X201830000Y-26001666D01*
X201846666Y-25985000D01*
X201863333Y-25951666D01*
X201863333Y-25668333D01*
X202080000Y-25818333D02*
X202046666Y-25801666D01*
X202030000Y-25785000D01*
X202013333Y-25751666D01*
X202013333Y-25735000D01*
X202030000Y-25701666D01*
X202046666Y-25685000D01*
X202080000Y-25668333D01*
X202146666Y-25668333D01*
X202180000Y-25685000D01*
X202196666Y-25701666D01*
X202213333Y-25735000D01*
X202213333Y-25751666D01*
X202196666Y-25785000D01*
X202180000Y-25801666D01*
X202146666Y-25818333D01*
X202080000Y-25818333D01*
X202046666Y-25835000D01*
X202030000Y-25851666D01*
X202013333Y-25885000D01*
X202013333Y-25951666D01*
X202030000Y-25985000D01*
X202046666Y-26001666D01*
X202080000Y-26018333D01*
X202146666Y-26018333D01*
X202180000Y-26001666D01*
X202196666Y-25985000D01*
X202213333Y-25951666D01*
X202213333Y-25885000D01*
X202196666Y-25851666D01*
X202180000Y-25835000D01*
X202146666Y-25818333D01*
G04 #@! TO.C,U9*
X201663333Y-30748333D02*
X201663333Y-31031666D01*
X201680000Y-31065000D01*
X201696666Y-31081666D01*
X201730000Y-31098333D01*
X201796666Y-31098333D01*
X201830000Y-31081666D01*
X201846666Y-31065000D01*
X201863333Y-31031666D01*
X201863333Y-30748333D01*
X202046666Y-31098333D02*
X202113333Y-31098333D01*
X202146666Y-31081666D01*
X202163333Y-31065000D01*
X202196666Y-31015000D01*
X202213333Y-30948333D01*
X202213333Y-30815000D01*
X202196666Y-30781666D01*
X202180000Y-30765000D01*
X202146666Y-30748333D01*
X202080000Y-30748333D01*
X202046666Y-30765000D01*
X202030000Y-30781666D01*
X202013333Y-30815000D01*
X202013333Y-30898333D01*
X202030000Y-30931666D01*
X202046666Y-30948333D01*
X202080000Y-30965000D01*
X202146666Y-30965000D01*
X202180000Y-30948333D01*
X202196666Y-30931666D01*
X202213333Y-30898333D01*
G04 #@! TO.C,U6*
X205682333Y-29730666D02*
X205965666Y-29730666D01*
X205999000Y-29714000D01*
X206015666Y-29697333D01*
X206032333Y-29664000D01*
X206032333Y-29597333D01*
X206015666Y-29564000D01*
X205999000Y-29547333D01*
X205965666Y-29530666D01*
X205682333Y-29530666D01*
X205682333Y-29214000D02*
X205682333Y-29280666D01*
X205699000Y-29314000D01*
X205715666Y-29330666D01*
X205765666Y-29364000D01*
X205832333Y-29380666D01*
X205965666Y-29380666D01*
X205999000Y-29364000D01*
X206015666Y-29347333D01*
X206032333Y-29314000D01*
X206032333Y-29247333D01*
X206015666Y-29214000D01*
X205999000Y-29197333D01*
X205965666Y-29180666D01*
X205882333Y-29180666D01*
X205849000Y-29197333D01*
X205832333Y-29214000D01*
X205815666Y-29247333D01*
X205815666Y-29314000D01*
X205832333Y-29347333D01*
X205849000Y-29364000D01*
X205882333Y-29380666D01*
G04 #@! TO.C,U14*
X227734866Y-57255533D02*
X227734866Y-57538866D01*
X227751533Y-57572200D01*
X227768200Y-57588866D01*
X227801533Y-57605533D01*
X227868200Y-57605533D01*
X227901533Y-57588866D01*
X227918200Y-57572200D01*
X227934866Y-57538866D01*
X227934866Y-57255533D01*
X228284866Y-57605533D02*
X228084866Y-57605533D01*
X228184866Y-57605533D02*
X228184866Y-57255533D01*
X228151533Y-57305533D01*
X228118200Y-57338866D01*
X228084866Y-57355533D01*
X228584866Y-57372200D02*
X228584866Y-57605533D01*
X228501533Y-57238866D02*
X228418200Y-57488866D01*
X228634866Y-57488866D01*
G04 #@! TO.C,Q9*
X225404366Y-62713766D02*
X225371033Y-62697100D01*
X225337700Y-62663766D01*
X225287700Y-62613766D01*
X225254366Y-62597100D01*
X225221033Y-62597100D01*
X225237700Y-62680433D02*
X225204366Y-62663766D01*
X225171033Y-62630433D01*
X225154366Y-62563766D01*
X225154366Y-62447100D01*
X225171033Y-62380433D01*
X225204366Y-62347100D01*
X225237700Y-62330433D01*
X225304366Y-62330433D01*
X225337700Y-62347100D01*
X225371033Y-62380433D01*
X225387700Y-62447100D01*
X225387700Y-62563766D01*
X225371033Y-62630433D01*
X225337700Y-62663766D01*
X225304366Y-62680433D01*
X225237700Y-62680433D01*
X225554366Y-62680433D02*
X225621033Y-62680433D01*
X225654366Y-62663766D01*
X225671033Y-62647100D01*
X225704366Y-62597100D01*
X225721033Y-62530433D01*
X225721033Y-62397100D01*
X225704366Y-62363766D01*
X225687700Y-62347100D01*
X225654366Y-62330433D01*
X225587700Y-62330433D01*
X225554366Y-62347100D01*
X225537700Y-62363766D01*
X225521033Y-62397100D01*
X225521033Y-62480433D01*
X225537700Y-62513766D01*
X225554366Y-62530433D01*
X225587700Y-62547100D01*
X225654366Y-62547100D01*
X225687700Y-62530433D01*
X225704366Y-62513766D01*
X225721033Y-62480433D01*
G04 #@! TO.C,U7*
X172554333Y-28714666D02*
X172837666Y-28714666D01*
X172871000Y-28698000D01*
X172887666Y-28681333D01*
X172904333Y-28648000D01*
X172904333Y-28581333D01*
X172887666Y-28548000D01*
X172871000Y-28531333D01*
X172837666Y-28514666D01*
X172554333Y-28514666D01*
X172554333Y-28381333D02*
X172554333Y-28148000D01*
X172904333Y-28298000D01*
G04 #@! TO.C,Q3*
X214825266Y-42800166D02*
X214791933Y-42783500D01*
X214758600Y-42750166D01*
X214708600Y-42700166D01*
X214675266Y-42683500D01*
X214641933Y-42683500D01*
X214658600Y-42766833D02*
X214625266Y-42750166D01*
X214591933Y-42716833D01*
X214575266Y-42650166D01*
X214575266Y-42533500D01*
X214591933Y-42466833D01*
X214625266Y-42433500D01*
X214658600Y-42416833D01*
X214725266Y-42416833D01*
X214758600Y-42433500D01*
X214791933Y-42466833D01*
X214808600Y-42533500D01*
X214808600Y-42650166D01*
X214791933Y-42716833D01*
X214758600Y-42750166D01*
X214725266Y-42766833D01*
X214658600Y-42766833D01*
X214925266Y-42416833D02*
X215141933Y-42416833D01*
X215025266Y-42550166D01*
X215075266Y-42550166D01*
X215108600Y-42566833D01*
X215125266Y-42583500D01*
X215141933Y-42616833D01*
X215141933Y-42700166D01*
X215125266Y-42733500D01*
X215108600Y-42750166D01*
X215075266Y-42766833D01*
X214975266Y-42766833D01*
X214941933Y-42750166D01*
X214925266Y-42733500D01*
G04 #@! TO.C,Q8*
X240196266Y-67775133D02*
X240179600Y-67808466D01*
X240146266Y-67841800D01*
X240096266Y-67891800D01*
X240079600Y-67925133D01*
X240079600Y-67958466D01*
X240162933Y-67941800D02*
X240146266Y-67975133D01*
X240112933Y-68008466D01*
X240046266Y-68025133D01*
X239929600Y-68025133D01*
X239862933Y-68008466D01*
X239829600Y-67975133D01*
X239812933Y-67941800D01*
X239812933Y-67875133D01*
X239829600Y-67841800D01*
X239862933Y-67808466D01*
X239929600Y-67791800D01*
X240046266Y-67791800D01*
X240112933Y-67808466D01*
X240146266Y-67841800D01*
X240162933Y-67875133D01*
X240162933Y-67941800D01*
X239962933Y-67591800D02*
X239946266Y-67625133D01*
X239929600Y-67641800D01*
X239896266Y-67658466D01*
X239879600Y-67658466D01*
X239846266Y-67641800D01*
X239829600Y-67625133D01*
X239812933Y-67591800D01*
X239812933Y-67525133D01*
X239829600Y-67491800D01*
X239846266Y-67475133D01*
X239879600Y-67458466D01*
X239896266Y-67458466D01*
X239929600Y-67475133D01*
X239946266Y-67491800D01*
X239962933Y-67525133D01*
X239962933Y-67591800D01*
X239979600Y-67625133D01*
X239996266Y-67641800D01*
X240029600Y-67658466D01*
X240096266Y-67658466D01*
X240129600Y-67641800D01*
X240146266Y-67625133D01*
X240162933Y-67591800D01*
X240162933Y-67525133D01*
X240146266Y-67491800D01*
X240129600Y-67475133D01*
X240096266Y-67458466D01*
X240029600Y-67458466D01*
X239996266Y-67475133D01*
X239979600Y-67491800D01*
X239962933Y-67525133D01*
G04 #@! TO.C,Q7*
X216069866Y-53988866D02*
X216036533Y-53972200D01*
X216003200Y-53938866D01*
X215953200Y-53888866D01*
X215919866Y-53872200D01*
X215886533Y-53872200D01*
X215903200Y-53955533D02*
X215869866Y-53938866D01*
X215836533Y-53905533D01*
X215819866Y-53838866D01*
X215819866Y-53722200D01*
X215836533Y-53655533D01*
X215869866Y-53622200D01*
X215903200Y-53605533D01*
X215969866Y-53605533D01*
X216003200Y-53622200D01*
X216036533Y-53655533D01*
X216053200Y-53722200D01*
X216053200Y-53838866D01*
X216036533Y-53905533D01*
X216003200Y-53938866D01*
X215969866Y-53955533D01*
X215903200Y-53955533D01*
X216169866Y-53605533D02*
X216403200Y-53605533D01*
X216253200Y-53955533D01*
G04 #@! TO.C,Q6*
X227877266Y-51684233D02*
X227860600Y-51717566D01*
X227827266Y-51750900D01*
X227777266Y-51800900D01*
X227760600Y-51834233D01*
X227760600Y-51867566D01*
X227843933Y-51850900D02*
X227827266Y-51884233D01*
X227793933Y-51917566D01*
X227727266Y-51934233D01*
X227610600Y-51934233D01*
X227543933Y-51917566D01*
X227510600Y-51884233D01*
X227493933Y-51850900D01*
X227493933Y-51784233D01*
X227510600Y-51750900D01*
X227543933Y-51717566D01*
X227610600Y-51700900D01*
X227727266Y-51700900D01*
X227793933Y-51717566D01*
X227827266Y-51750900D01*
X227843933Y-51784233D01*
X227843933Y-51850900D01*
X227493933Y-51400900D02*
X227493933Y-51467566D01*
X227510600Y-51500900D01*
X227527266Y-51517566D01*
X227577266Y-51550900D01*
X227643933Y-51567566D01*
X227777266Y-51567566D01*
X227810600Y-51550900D01*
X227827266Y-51534233D01*
X227843933Y-51500900D01*
X227843933Y-51434233D01*
X227827266Y-51400900D01*
X227810600Y-51384233D01*
X227777266Y-51367566D01*
X227693933Y-51367566D01*
X227660600Y-51384233D01*
X227643933Y-51400900D01*
X227627266Y-51434233D01*
X227627266Y-51500900D01*
X227643933Y-51534233D01*
X227660600Y-51550900D01*
X227693933Y-51567566D01*
G04 #@! TO.C,U12*
X217752666Y-47293633D02*
X217752666Y-47576966D01*
X217769333Y-47610300D01*
X217786000Y-47626966D01*
X217819333Y-47643633D01*
X217886000Y-47643633D01*
X217919333Y-47626966D01*
X217936000Y-47610300D01*
X217952666Y-47576966D01*
X217952666Y-47293633D01*
X218302666Y-47643633D02*
X218102666Y-47643633D01*
X218202666Y-47643633D02*
X218202666Y-47293633D01*
X218169333Y-47343633D01*
X218136000Y-47376966D01*
X218102666Y-47393633D01*
X218436000Y-47326966D02*
X218452666Y-47310300D01*
X218486000Y-47293633D01*
X218569333Y-47293633D01*
X218602666Y-47310300D01*
X218619333Y-47326966D01*
X218636000Y-47360300D01*
X218636000Y-47393633D01*
X218619333Y-47443633D01*
X218419333Y-47643633D01*
X218636000Y-47643633D01*
G04 #@! TO.C,C2*
X207887000Y-48689333D02*
X207903666Y-48706000D01*
X207920333Y-48756000D01*
X207920333Y-48789333D01*
X207903666Y-48839333D01*
X207870333Y-48872666D01*
X207837000Y-48889333D01*
X207770333Y-48906000D01*
X207720333Y-48906000D01*
X207653666Y-48889333D01*
X207620333Y-48872666D01*
X207587000Y-48839333D01*
X207570333Y-48789333D01*
X207570333Y-48756000D01*
X207587000Y-48706000D01*
X207603666Y-48689333D01*
X207603666Y-48556000D02*
X207587000Y-48539333D01*
X207570333Y-48506000D01*
X207570333Y-48422666D01*
X207587000Y-48389333D01*
X207603666Y-48372666D01*
X207637000Y-48356000D01*
X207670333Y-48356000D01*
X207720333Y-48372666D01*
X207920333Y-48572666D01*
X207920333Y-48356000D01*
G04 #@! TO.C,C1*
X208373166Y-66941000D02*
X208356500Y-66957666D01*
X208306500Y-66974333D01*
X208273166Y-66974333D01*
X208223166Y-66957666D01*
X208189833Y-66924333D01*
X208173166Y-66891000D01*
X208156500Y-66824333D01*
X208156500Y-66774333D01*
X208173166Y-66707666D01*
X208189833Y-66674333D01*
X208223166Y-66641000D01*
X208273166Y-66624333D01*
X208306500Y-66624333D01*
X208356500Y-66641000D01*
X208373166Y-66657666D01*
X208706500Y-66974333D02*
X208506500Y-66974333D01*
X208606500Y-66974333D02*
X208606500Y-66624333D01*
X208573166Y-66674333D01*
X208539833Y-66707666D01*
X208506500Y-66724333D01*
G04 #@! TO.C,IC1*
X210968333Y-65365666D02*
X210618333Y-65365666D01*
X210935000Y-64999000D02*
X210951666Y-65015666D01*
X210968333Y-65065666D01*
X210968333Y-65099000D01*
X210951666Y-65149000D01*
X210918333Y-65182333D01*
X210885000Y-65199000D01*
X210818333Y-65215666D01*
X210768333Y-65215666D01*
X210701666Y-65199000D01*
X210668333Y-65182333D01*
X210635000Y-65149000D01*
X210618333Y-65099000D01*
X210618333Y-65065666D01*
X210635000Y-65015666D01*
X210651666Y-64999000D01*
X210968333Y-64665666D02*
X210968333Y-64865666D01*
X210968333Y-64765666D02*
X210618333Y-64765666D01*
X210668333Y-64799000D01*
X210701666Y-64832333D01*
X210718333Y-64865666D01*
G04 #@! TO.C,U15*
X238034566Y-64679933D02*
X238034566Y-64963266D01*
X238051233Y-64996600D01*
X238067900Y-65013266D01*
X238101233Y-65029933D01*
X238167900Y-65029933D01*
X238201233Y-65013266D01*
X238217900Y-64996600D01*
X238234566Y-64963266D01*
X238234566Y-64679933D01*
X238584566Y-65029933D02*
X238384566Y-65029933D01*
X238484566Y-65029933D02*
X238484566Y-64679933D01*
X238451233Y-64729933D01*
X238417900Y-64763266D01*
X238384566Y-64779933D01*
X238901233Y-64679933D02*
X238734566Y-64679933D01*
X238717900Y-64846600D01*
X238734566Y-64829933D01*
X238767900Y-64813266D01*
X238851233Y-64813266D01*
X238884566Y-64829933D01*
X238901233Y-64846600D01*
X238917900Y-64879933D01*
X238917900Y-64963266D01*
X238901233Y-64996600D01*
X238884566Y-65013266D01*
X238851233Y-65029933D01*
X238767900Y-65029933D01*
X238734566Y-65013266D01*
X238717900Y-64996600D01*
G04 #@! TO.C,Q10*
X231308300Y-62434366D02*
X231274966Y-62417700D01*
X231241633Y-62384366D01*
X231191633Y-62334366D01*
X231158300Y-62317700D01*
X231124966Y-62317700D01*
X231141633Y-62401033D02*
X231108300Y-62384366D01*
X231074966Y-62351033D01*
X231058300Y-62284366D01*
X231058300Y-62167700D01*
X231074966Y-62101033D01*
X231108300Y-62067700D01*
X231141633Y-62051033D01*
X231208300Y-62051033D01*
X231241633Y-62067700D01*
X231274966Y-62101033D01*
X231291633Y-62167700D01*
X231291633Y-62284366D01*
X231274966Y-62351033D01*
X231241633Y-62384366D01*
X231208300Y-62401033D01*
X231141633Y-62401033D01*
X231624966Y-62401033D02*
X231424966Y-62401033D01*
X231524966Y-62401033D02*
X231524966Y-62051033D01*
X231491633Y-62101033D01*
X231458300Y-62134366D01*
X231424966Y-62151033D01*
X231841633Y-62051033D02*
X231874966Y-62051033D01*
X231908300Y-62067700D01*
X231924966Y-62084366D01*
X231941633Y-62117700D01*
X231958300Y-62184366D01*
X231958300Y-62267700D01*
X231941633Y-62334366D01*
X231924966Y-62367700D01*
X231908300Y-62384366D01*
X231874966Y-62401033D01*
X231841633Y-62401033D01*
X231808300Y-62384366D01*
X231791633Y-62367700D01*
X231774966Y-62334366D01*
X231758300Y-62267700D01*
X231758300Y-62184366D01*
X231774966Y-62117700D01*
X231791633Y-62084366D01*
X231808300Y-62067700D01*
X231841633Y-62051033D01*
G04 #@! TD*
M02*
