M48
;DRILL file {KiCad (5.0.2)-1} date 3/25/2019 11:56:44 PM
;FORMAT={-:-/ absolute / inch / decimal}
FMAT,2
INCH,TZ
T1C0.0079
T2C0.0130
T3C0.0217
T4C0.0315
T5C0.0472
%
G90
G05
T1
X6.6616Y-1.2922
X6.7366Y-2.0072
X6.7666Y-1.4422
X6.7716Y-0.9772
X6.7716Y-1.3722
X6.7716Y-1.8322
X6.7816Y-1.5222
X6.7916Y-2.1822
X6.8016Y-1.9372
X6.8116Y-1.2772
X6.8116Y-1.6522
X6.8181Y-3.1522
X6.8201Y-3.0732
X6.8216Y-1.5922
X6.8357Y-3.4539
X6.8366Y-0.8122
X6.841Y-2.7389
X6.851Y-2.7689
X6.851Y-3.5539
X6.866Y-1.7939
X6.871Y-1.3989
X6.871Y-3.3589
X6.8862Y-3.0767
X6.8862Y-3.2172
X6.8876Y-3.3077
X6.901Y-2.7689
X6.9066Y-2.5372
X6.92Y-1.3
X6.9215Y-3.1385
X6.9215Y-3.2117
X6.9266Y-1.4522
X6.9466Y-1.2622
X6.9466Y-2.4322
X6.9516Y-0.9022
X6.9566Y-1.1972
X6.9616Y-1.4567
X6.9616Y-1.7422
X6.9616Y-2.3622
X6.9666Y-1.5922
X6.98Y-0.985
X6.9884Y-2.1822
X6.992Y-1.003
X6.9984Y-1.9372
X7.0052Y-1.0202
X7.03Y-0.895
X7.0365Y-2.437
X7.041Y-2.0889
X7.0416Y-1.2272
X7.0466Y-1.4372
X7.0666Y-0.7922
X7.0816Y-2.9177
X7.0816Y-3.1146
X7.0899Y-0.8014
X7.0916Y-2.3772
X7.0916Y-2.4927
X7.0916Y-2.6896
X7.105Y-0.855
X7.1116Y-1.4872
X7.1166Y-1.3222
X7.1213Y-0.92
X7.1492Y-1.2422
X7.1616Y-1.5022
X7.1766Y-3.4027
X7.1766Y-3.5996
X7.1853Y-2.1822
X7.1866Y-1.4372
X7.1916Y-1.7522
X7.1953Y-1.9372
X7.2016Y-0.9372
X7.2066Y-0.8322
X7.2466Y-1.1372
X7.2616Y-2.2872
X7.2716Y-1.7522
X7.2766Y-1.7972
X7.2784Y-2.9177
X7.2784Y-3.1146
X7.2884Y-2.3772
X7.2884Y-2.4927
X7.2884Y-2.6896
X7.3116Y-1.2022
X7.3116Y-2.1522
X7.3734Y-3.4027
X7.3734Y-3.5996
X7.3885Y-1.414
X7.4416Y-1.8872
X7.4466Y-1.0522
X7.4516Y-1.6622
X7.4753Y-2.9177
X7.4753Y-3.1146
X7.4766Y-1.9789
X7.4853Y-2.3772
X7.4853Y-2.4927
X7.4853Y-2.6896
X7.4866Y-2.0669
X7.4916Y-1.8522
X7.4966Y-1.0222
X7.4966Y-1.6522
X7.506Y-1.8139
X7.5075Y-2.0974
X7.5113Y-1.9272
X7.5166Y-1.3072
X7.517Y-1.743
X7.518Y-2.04
X7.5245Y-3.2565
X7.5266Y-1.8772
X7.5266Y-2.3172
X7.5316Y-1.7922
X7.5357Y-1.8296
X7.5418Y-1.9572
X7.5465Y-2.139
X7.5703Y-3.4027
X7.5703Y-3.5996
X7.5716Y-1.6822
X7.5816Y-3.0572
X7.5816Y-3.1822
X7.584Y-2.1222
X7.5866Y-1.2422
X7.5866Y-1.3322
X7.6066Y-1.7122
X7.612Y-1.5975
X7.615Y-2.1789
X7.6348Y-2.0141
X7.6375Y-2.1395
X7.6385Y-2.1775
X7.6416Y-2.5822
X7.649Y-2.0716
X7.6516Y-1.5372
X7.656Y-2.0089
X7.6616Y-1.3122
X7.671Y-2.1589
X7.6721Y-2.9177
X7.6721Y-3.1146
X7.6776Y-2.0089
X7.6821Y-2.4927
X7.6821Y-2.6896
X7.686Y-2.2439
X7.6866Y-1.6472
X7.6916Y-1.6822
X7.692Y-2.0251
X7.699Y-1.6095
X7.703Y-1.7057
X7.7116Y-2.3122
X7.7166Y-2.3672
X7.7316Y-2.0072
X7.746Y-2.2689
X7.7466Y-1.7124
X7.7508Y-1.7644
X7.761Y-2.2139
X7.764Y-1.62
X7.7671Y-3.4027
X7.7671Y-3.5996
X7.7716Y-1.0422
X7.7724Y-1.7653
X7.7803Y-1.9428
X7.7805Y-1.7939
X7.7816Y-2.3022
X7.783Y-2.243
X7.7835Y-2.18
X7.7916Y-2.0716
X7.7916Y-2.1572
X7.806Y-2.3139
X7.81Y-1.44
X7.8155Y-1.6025
X7.816Y-1.9658
X7.8313Y-1.7787
X7.8384Y-2.5822
X7.8465Y-1.8969
X7.856Y-1.7989
X7.8616Y-2.0022
X7.865Y-1.08
X7.8666Y-1.7322
X7.8666Y-1.8622
X7.869Y-2.9177
X7.869Y-3.1146
X7.8766Y-1.2072
X7.879Y-2.4927
X7.879Y-2.6896
X7.8966Y-2.1022
X7.898Y-3.2775
X7.9116Y-2.7772
X7.9166Y-2.1772
X7.9216Y-2.2722
X7.9266Y-2.3222
X7.934Y-1.7345
X7.9366Y-1.6872
X7.9516Y-2.3672
X7.964Y-3.4027
X7.964Y-3.5996
X7.9816Y-2.1972
X8.0066Y-2.3472
X8.0353Y-2.5822
X8.044Y-3.208
X8.0485Y-1.477
X8.0566Y-1.5872
X8.0597Y-2.0072
X8.0716Y-1.8922
X8.075Y-1.9274
X8.075Y-2.0722
X8.075Y-2.95
X8.0903Y-1.9579
X8.1016Y-3.4772
X8.1066Y-1.1822
X8.1066Y-1.4072
X8.1066Y-2.0222
X8.1166Y-1.2272
X8.1166Y-1.2622
X8.1215Y-3.123
X8.1266Y-1.4172
X8.1266Y-2.0522
X8.141Y-3.2289
X8.1425Y-3.1789
X8.1466Y-1.1722
X8.1466Y-1.6472
X8.1515Y-1.809
X8.1515Y-1.8795
X8.155Y-0.83
X8.1653Y-1.045
X8.1711Y-1.7122
X8.1711Y-1.8572
X8.1784Y-2.1972
X8.1795Y-1.008
X8.1863Y-1.8922
X8.1886Y-1.9292
X8.1916Y-3.4722
X8.202Y-1.375
X8.2034Y-2.3472
X8.2116Y-1.4672
X8.215Y-3.35
X8.2252Y-3.255
X8.2266Y-1.4872
X8.2308Y-1.9253
X8.2335Y-2.0945
X8.235Y-3.13
X8.2366Y-2.4372
X8.24Y-3.28
X8.2448Y-3.3011
X8.2591Y-3.2405
X8.274Y-1.552
X8.2766Y-2.1072
X8.277Y-1.335
X8.28Y-3.18
X8.295Y-3.
X8.3166Y-0.9822
X8.3166Y-2.3122
X8.3166Y-2.5522
X8.3166Y-2.7672
X8.32Y-3.3153
X8.3236Y-3.1962
X8.3416Y-0.8272
X8.3421Y-3.1544
X8.346Y-3.4789
X8.3461Y-3.2222
X8.3466Y-1.8822
X8.3485Y-1.7795
X8.35Y-3.1
X8.3565Y-1.8495
X8.3616Y-1.9572
X8.3616Y-2.0422
X8.37Y-2.925
X8.37Y-3.3
X8.3716Y-3.5072
X8.375Y-3.
X8.375Y-3.18
X8.3753Y-2.1972
X8.3808Y-3.0836
X8.3816Y-2.1527
X8.39Y-1.555
X8.395Y-1.775
X8.3966Y-2.1122
X8.3966Y-2.1122
X8.4Y-1.435
X8.4Y-1.665
X8.4Y-2.685
X8.4Y-2.73
X8.4Y-2.789
X8.4003Y-2.3472
X8.4016Y-1.4619
X8.4066Y-0.9572
X8.4166Y-1.4124
X8.4166Y-1.7472
X8.4216Y-1.2647
X8.4216Y-2.6839
X8.426Y-2.7455
X8.4266Y-1.5072
X8.4384Y-1.66
X8.4474Y-1.416
X8.45Y-3.3
X8.455Y-1.74
X8.455Y-3.025
X8.4592Y-2.4042
X8.46Y-2.4392
X8.46Y-2.685
X8.465Y-3.205
X8.466Y-1.6647
X8.4666Y-1.1972
X8.4666Y-1.2272
X8.47Y-1.17
X8.4715Y-1.4325
X8.4716Y-1.0372
X8.4716Y-1.4922
X8.475Y-2.955
X8.4803Y-3.13
X8.4803Y-3.1539
X8.4843Y-3.1953
X8.4843Y-2.7269
X8.489Y-1.5676
X8.489Y-1.6176
X8.49Y-1.825
X8.495Y-1.95
X8.4966Y-1.2172
X8.5063Y-1.6936
X8.5116Y-1.5097
X8.5134Y-2.7672
X8.515Y-2.4303
X8.53Y-1.49
X8.5366Y-3.1272
X8.545Y-1.5403
X8.547Y-2.6725
X8.55Y-2.055
X8.55Y-2.11
X8.5561Y-1.7425
X8.5566Y-2.2672
X8.5616Y-1.4472
X8.5616Y-1.9653
X8.5645Y-1.8215
X8.5766Y-1.5622
X8.582Y-1.029
X8.5845Y-1.382
X8.59Y-1.2555
X8.59Y-1.505
X8.595Y-2.28
X8.596Y-2.4539
X8.615Y-1.665
X8.616Y-2.0686
X8.6165Y-1.9653
X8.62Y-2.1412
X8.621Y-1.7389
X8.6216Y-3.3172
X8.625Y-2.105
X8.6266Y-3.1522
X8.6345Y-2.675
X8.6366Y-3.0522
X8.6415Y-1.201
X8.6416Y-2.9122
X8.6566Y-1.6822
X8.6666Y-2.2622
X8.6666Y-3.4422
X8.6748Y-2.1097
X8.6766Y-3.3472
X8.6776Y-1.5215
X8.68Y-1.66
X8.68Y-2.05
X8.685Y-1.95
X8.6866Y-3.2772
X8.695Y-1.565
X8.7026Y-2.2638
X8.705Y-1.615
X8.7103Y-2.7672
X8.715Y-1.8122
X8.7232Y-2.0782
X8.725Y-2.125
X8.73Y-2.44
X8.7365Y-1.9253
X8.7366Y-1.2147
X8.738Y-1.8265
X8.74Y-2.195
X8.745Y-2.2647
X8.7545Y-2.7115
X8.756Y-1.9539
X8.756Y-2.4239
X8.7566Y-2.4522
X8.7595Y-3.426
X8.7607Y-1.6022
X8.761Y-1.7439
X8.766Y-2.2953
X8.7666Y-2.5022
X8.7698Y-2.743
X8.7716Y-1.981
X8.7716Y-2.0222
X8.7747Y-2.3565
X8.78Y-2.715
X8.7875Y-3.3435
X8.79Y-1.94
X8.7905Y-1.8235
X8.796Y-1.7755
X8.7995Y-1.8505
X8.803Y-1.8855
X8.803Y-2.782
X8.8066Y-2.1822
X8.808Y-3.5515
X8.81Y-1.91
X8.8166Y-1.7147
X8.8166Y-1.8272
X8.8166Y-1.9572
X8.8166Y-2.5522
X8.8216Y-1.3772
X8.8216Y-1.5472
X8.8416Y-1.6322
X8.8472Y-2.3141
X8.8516Y-2.6922
X8.8532Y-2.3932
X8.854Y-1.751
X8.86Y-2.16
X8.8616Y-2.6172
X8.8666Y-1.0122
X8.8682Y-2.0997
X8.87Y-1.92
X8.8816Y-2.9172
X8.8816Y-3.0522
X8.8916Y-2.0122
X8.8966Y-3.3122
X8.8966Y-3.509
X8.8966Y-3.7059
X8.9006Y-1.505
X8.9064Y-2.3722
X8.9166Y-1.7759
X8.9216Y-1.8172
X8.9216Y-1.9547
X8.9216Y-2.4172
X8.9316Y-2.3922
X8.933Y-1.6055
X8.947Y-1.256
X8.96Y-2.34
X8.965Y-2.2647
X8.9666Y-1.9974
X8.97Y-2.4
X8.97Y-2.465
X8.9716Y-1.0722
X8.9766Y-1.9022
X8.98Y-2.05
X8.9816Y-1.9372
X8.9816Y-2.0822
X8.986Y-2.1839
X8.986Y-2.2953
X8.9885Y-1.602
X8.9941Y-1.1046
X8.995Y-1.9669
X9.0016Y-1.2522
X9.015Y-2.31
X9.0166Y-2.4153
X9.0181Y-1.7022
X9.025Y-2.185
X9.0366Y-2.5272
X9.0416Y-1.3872
X9.0466Y-1.9472
X9.0484Y-2.6922
X9.0566Y-1.6572
X9.057Y-1.9205
X9.0616Y-2.5272
X9.0647Y-2.4
X9.066Y-1.8595
X9.0666Y-1.1295
X9.0766Y-2.0072
X9.08Y-2.05
X9.0835Y-1.902
X9.0866Y-1.4822
X9.0866Y-2.2572
X9.09Y-2.525
X9.0934Y-3.3122
X9.0934Y-3.509
X9.0934Y-3.7059
X9.1004Y-2.3983
X9.1031Y-2.3167
X9.1116Y-1.8722
X9.1266Y-1.5372
X9.1266Y-2.0272
X9.141Y-1.7539
X9.1416Y-1.1822
X9.1416Y-2.6122
X9.1447Y-2.3083
X9.1547Y-2.4272
X9.16Y-2.21
X9.16Y-2.35
X9.17Y-2.47
X9.175Y-2.385
X9.1766Y-2.0772
X9.1966Y-1.1922
X9.1966Y-3.2122
X9.2Y-1.135
X9.2Y-2.35
X9.2016Y-2.9172
X9.2066Y-1.5372
X9.21Y-2.425
X9.2116Y-3.0522
X9.2216Y-2.2972
X9.2366Y-1.0772
X9.24Y-2.35
X9.24Y-2.4003
X9.2416Y-1.8922
X9.2416Y-2.0822
X9.2453Y-2.6922
X9.2566Y-1.2122
X9.2616Y-1.4322
X9.2616Y-1.8022
X9.2866Y-2.0172
X9.2866Y-2.1772
X9.2903Y-3.3122
X9.2903Y-3.509
X9.2903Y-3.7059
X9.3175Y-2.0347
X9.32Y-1.7375
X9.3215Y-2.227
X9.3216Y-2.9472
X9.3397Y-2.48
X9.3416Y-2.6272
X9.3416Y-2.7522
X9.3425Y-1.891
X9.345Y-2.405
X9.35Y-2.545
X9.3566Y-1.2972
X9.3566Y-1.4122
X9.36Y-1.24
X9.365Y-2.57
X9.3666Y-0.8872
X9.3703Y-2.43
X9.39Y-2.48
X9.394Y-0.954
X9.4266Y-2.6272
X9.4316Y-3.0372
X9.435Y-1.995
X9.435Y-2.5
X9.44Y-1.3915
X9.44Y-2.35
X9.4425Y-1.813
X9.4616Y-2.7272
X9.4666Y-0.8522
X9.48Y-1.05
X9.4871Y-3.3122
X9.4871Y-3.509
X9.4871Y-3.7059
X9.5016Y-2.7672
X9.5097Y-2.6347
X9.5097Y-2.4028
X9.525Y-2.38
X9.525Y-2.51
X9.5347Y-2.165
X9.5405Y-2.64
X9.55Y-2.05
X9.56Y-2.35
X9.5634Y-0.8872
X9.5653Y-2.1669
X9.5916Y-2.4722
X9.5966Y-1.3335
X9.5966Y-1.5303
X9.5966Y-1.7272
X9.613Y-1.9235
X9.6155Y-2.0045
X9.6266Y-2.0603
X9.6266Y-2.2572
X9.6316Y-2.9172
X9.6366Y-1.2222
X9.6366Y-2.7422
X9.6375Y-1.3845
X9.6466Y-3.0422
X9.6616Y-1.0272
X9.6816Y-1.0772
X9.6816Y-2.6372
X9.6816Y-2.8222
X9.684Y-3.3122
X9.684Y-3.509
X9.684Y-3.7059
X9.7266Y-1.1522
X9.7295Y-2.9898
X9.7475Y-0.9605
X9.756Y-3.1772
X9.756Y-3.4939
X9.7603Y-0.8872
X9.9Y-1.2575
X8.4106Y-2.5206
X8.4106Y-2.56
X8.4106Y-2.5994
X8.45Y-2.5206
X8.45Y-2.56
X8.45Y-2.5994
X8.4894Y-2.5206
X8.4894Y-2.56
X8.4894Y-2.5994
T2
X8.2805Y-1.1009
X8.2805Y-1.16
X8.2805Y-1.2191
X8.3395Y-1.1009
X8.3395Y-1.16
X8.3395Y-1.2191
T3
X7.9Y-1.35
X7.95Y-1.35
X8.Y-1.35
X7.9Y-1.15
X7.95Y-1.15
X8.Y-1.15
T4
X9.8213Y-1.1005
X9.8213Y-1.1792
X9.8213Y-1.258
X9.8213Y-1.3367
X9.8213Y-1.4155
X9.8213Y-1.4942
X9.8213Y-1.5729
X9.8213Y-1.6517
X9.8213Y-1.7304
X9.8213Y-1.8092
X9.8213Y-1.8879
X9.8213Y-1.9666
X9.8213Y-2.0454
X9.8213Y-2.1241
X9.8213Y-2.2029
X9.8213Y-2.2816
X9.8213Y-2.3603
X9.8213Y-2.4391
X9.8213Y-2.5178
X9.8213Y-2.5966
X9.8213Y-2.6753
X9.8213Y-2.754
X9.8213Y-2.8328
X9.8213Y-2.9115
X9.8213Y-2.9903
X9.8213Y-3.069
X9.8213Y-3.1477
X9.8213Y-3.2265
X9.8213Y-3.3052
X9.8213Y-3.384
X9.8213Y-3.4627
X9.8213Y-3.5414
X9.9Y-1.1005
X9.9Y-1.1792
X9.9Y-1.258
X9.9Y-1.3367
X9.9Y-1.4155
X9.9Y-1.4942
X9.9Y-1.5729
X9.9Y-1.6517
X9.9Y-1.7304
X9.9Y-1.8092
X9.9Y-1.8879
X9.9Y-1.9666
X9.9Y-2.0454
X9.9Y-2.1241
X9.9Y-2.2029
X9.9Y-2.2816
X9.9Y-2.3603
X9.9Y-2.4391
X9.9Y-2.5178
X9.9Y-2.5966
X9.9Y-2.6753
X9.9Y-2.754
X9.9Y-2.8328
X9.9Y-2.9115
X9.9Y-2.9903
X9.9Y-3.069
X9.9Y-3.1477
X9.9Y-3.2265
X9.9Y-3.3052
X9.9Y-3.384
X9.9Y-3.4627
X9.9Y-3.5414
X6.6213Y-1.1
X6.6213Y-1.1787
X6.6213Y-1.2575
X6.6213Y-1.3362
X6.6213Y-1.415
X6.6213Y-1.4937
X6.6213Y-1.5724
X6.6213Y-1.6512
X6.6213Y-1.7299
X6.6213Y-1.8087
X6.6213Y-1.8874
X6.6213Y-1.9661
X6.6213Y-2.0449
X6.6213Y-2.1236
X6.6213Y-2.2024
X6.6213Y-2.2811
X6.6213Y-2.3598
X6.6213Y-2.4386
X6.6213Y-2.5173
X6.6213Y-2.5961
X6.6213Y-2.6748
X6.6213Y-2.7535
X6.6213Y-2.8323
X6.6213Y-2.911
X6.6213Y-2.9898
X6.6213Y-3.0685
X6.6213Y-3.1472
X6.6213Y-3.226
X6.6213Y-3.3047
X6.6213Y-3.3835
X6.6213Y-3.4622
X6.6213Y-3.5409
X6.7Y-1.1
X6.7Y-1.1787
X6.7Y-1.2575
X6.7Y-1.3362
X6.7Y-1.415
X6.7Y-1.4937
X6.7Y-1.5724
X6.7Y-1.6512
X6.7Y-1.7299
X6.7Y-1.8087
X6.7Y-1.8874
X6.7Y-1.9661
X6.7Y-2.0449
X6.7Y-2.1236
X6.7Y-2.2024
X6.7Y-2.2811
X6.7Y-2.3598
X6.7Y-2.4386
X6.7Y-2.5173
X6.7Y-2.5961
X6.7Y-2.6748
X6.7Y-2.7535
X6.7Y-2.8323
X6.7Y-2.911
X6.7Y-2.9898
X6.7Y-3.0685
X6.7Y-3.1472
X6.7Y-3.226
X6.7Y-3.3047
X6.7Y-3.3835
X6.7Y-3.4622
X6.7Y-3.5409
T5
X8.5457Y-0.8291
X8.5457Y-0.948
X8.6638Y-0.8291
X8.6638Y-0.948
X8.7819Y-0.8291
X8.7819Y-0.948
X8.9Y-0.8291
X8.9Y-0.948
X9.0181Y-0.8291
X9.0181Y-0.948
X9.1362Y-0.8291
X9.1362Y-0.948
X9.2543Y-0.8291
X9.2543Y-0.948
X7.3457Y-0.8291
X7.3457Y-0.948
X7.4638Y-0.8291
X7.4638Y-0.948
X7.5819Y-0.8291
X7.5819Y-0.948
X7.7Y-0.8291
X7.7Y-0.948
X7.8181Y-0.8291
X7.8181Y-0.948
X7.9362Y-0.8291
X7.9362Y-0.948
X8.0543Y-0.8291
X8.0543Y-0.948
T0
M30
