G04 #@! TF.GenerationSoftware,KiCad,Pcbnew,(5.0.2)-1*
G04 #@! TF.CreationDate,2019-03-25T23:56:42-07:00*
G04 #@! TF.ProjectId,SwitcheroModule,53776974-6368-4657-926f-4d6f64756c65,rev?*
G04 #@! TF.SameCoordinates,Original*
G04 #@! TF.FileFunction,Paste,Bot*
G04 #@! TF.FilePolarity,Positive*
%FSLAX46Y46*%
G04 Gerber Fmt 4.6, Leading zero omitted, Abs format (unit mm)*
G04 Created by KiCad (PCBNEW (5.0.2)-1) date 3/25/2019 11:56:42 PM*
%MOMM*%
%LPD*%
G01*
G04 APERTURE LIST*
%ADD10C,0.100000*%
%ADD11C,0.950000*%
%ADD12R,1.780000X2.000000*%
%ADD13C,0.590000*%
%ADD14R,1.250000X2.500000*%
%ADD15R,0.600000X0.420000*%
%ADD16C,2.250000*%
G04 APERTURE END LIST*
D10*
G04 #@! TO.C,C6*
G36*
X231984779Y-57366144D02*
X232007834Y-57369563D01*
X232030443Y-57375227D01*
X232052387Y-57383079D01*
X232073457Y-57393044D01*
X232093448Y-57405026D01*
X232112168Y-57418910D01*
X232129438Y-57434562D01*
X232145090Y-57451832D01*
X232158974Y-57470552D01*
X232170956Y-57490543D01*
X232180921Y-57511613D01*
X232188773Y-57533557D01*
X232194437Y-57556166D01*
X232197856Y-57579221D01*
X232199000Y-57602500D01*
X232199000Y-58077500D01*
X232197856Y-58100779D01*
X232194437Y-58123834D01*
X232188773Y-58146443D01*
X232180921Y-58168387D01*
X232170956Y-58189457D01*
X232158974Y-58209448D01*
X232145090Y-58228168D01*
X232129438Y-58245438D01*
X232112168Y-58261090D01*
X232093448Y-58274974D01*
X232073457Y-58286956D01*
X232052387Y-58296921D01*
X232030443Y-58304773D01*
X232007834Y-58310437D01*
X231984779Y-58313856D01*
X231961500Y-58315000D01*
X231386500Y-58315000D01*
X231363221Y-58313856D01*
X231340166Y-58310437D01*
X231317557Y-58304773D01*
X231295613Y-58296921D01*
X231274543Y-58286956D01*
X231254552Y-58274974D01*
X231235832Y-58261090D01*
X231218562Y-58245438D01*
X231202910Y-58228168D01*
X231189026Y-58209448D01*
X231177044Y-58189457D01*
X231167079Y-58168387D01*
X231159227Y-58146443D01*
X231153563Y-58123834D01*
X231150144Y-58100779D01*
X231149000Y-58077500D01*
X231149000Y-57602500D01*
X231150144Y-57579221D01*
X231153563Y-57556166D01*
X231159227Y-57533557D01*
X231167079Y-57511613D01*
X231177044Y-57490543D01*
X231189026Y-57470552D01*
X231202910Y-57451832D01*
X231218562Y-57434562D01*
X231235832Y-57418910D01*
X231254552Y-57405026D01*
X231274543Y-57393044D01*
X231295613Y-57383079D01*
X231317557Y-57375227D01*
X231340166Y-57369563D01*
X231363221Y-57366144D01*
X231386500Y-57365000D01*
X231961500Y-57365000D01*
X231984779Y-57366144D01*
X231984779Y-57366144D01*
G37*
D11*
X231674000Y-57840000D03*
D10*
G36*
X230234779Y-57366144D02*
X230257834Y-57369563D01*
X230280443Y-57375227D01*
X230302387Y-57383079D01*
X230323457Y-57393044D01*
X230343448Y-57405026D01*
X230362168Y-57418910D01*
X230379438Y-57434562D01*
X230395090Y-57451832D01*
X230408974Y-57470552D01*
X230420956Y-57490543D01*
X230430921Y-57511613D01*
X230438773Y-57533557D01*
X230444437Y-57556166D01*
X230447856Y-57579221D01*
X230449000Y-57602500D01*
X230449000Y-58077500D01*
X230447856Y-58100779D01*
X230444437Y-58123834D01*
X230438773Y-58146443D01*
X230430921Y-58168387D01*
X230420956Y-58189457D01*
X230408974Y-58209448D01*
X230395090Y-58228168D01*
X230379438Y-58245438D01*
X230362168Y-58261090D01*
X230343448Y-58274974D01*
X230323457Y-58286956D01*
X230302387Y-58296921D01*
X230280443Y-58304773D01*
X230257834Y-58310437D01*
X230234779Y-58313856D01*
X230211500Y-58315000D01*
X229636500Y-58315000D01*
X229613221Y-58313856D01*
X229590166Y-58310437D01*
X229567557Y-58304773D01*
X229545613Y-58296921D01*
X229524543Y-58286956D01*
X229504552Y-58274974D01*
X229485832Y-58261090D01*
X229468562Y-58245438D01*
X229452910Y-58228168D01*
X229439026Y-58209448D01*
X229427044Y-58189457D01*
X229417079Y-58168387D01*
X229409227Y-58146443D01*
X229403563Y-58123834D01*
X229400144Y-58100779D01*
X229399000Y-58077500D01*
X229399000Y-57602500D01*
X229400144Y-57579221D01*
X229403563Y-57556166D01*
X229409227Y-57533557D01*
X229417079Y-57511613D01*
X229427044Y-57490543D01*
X229439026Y-57470552D01*
X229452910Y-57451832D01*
X229468562Y-57434562D01*
X229485832Y-57418910D01*
X229504552Y-57405026D01*
X229524543Y-57393044D01*
X229545613Y-57383079D01*
X229567557Y-57375227D01*
X229590166Y-57369563D01*
X229613221Y-57366144D01*
X229636500Y-57365000D01*
X230211500Y-57365000D01*
X230234779Y-57366144D01*
X230234779Y-57366144D01*
G37*
D11*
X229924000Y-57840000D03*
G04 #@! TD*
D12*
G04 #@! TO.C,U11*
X226060000Y-36830000D03*
X220980000Y-29210000D03*
X223520000Y-36830000D03*
X223520000Y-29210000D03*
X220980000Y-36830000D03*
X226060000Y-29210000D03*
G04 #@! TD*
G04 #@! TO.C,U10*
X196850000Y-29210000D03*
X191770000Y-36830000D03*
X194310000Y-29210000D03*
X194310000Y-36830000D03*
X191770000Y-29210000D03*
X196850000Y-36830000D03*
G04 #@! TD*
D10*
G04 #@! TO.C,R5*
G36*
X212911958Y-36812710D02*
X212926276Y-36814834D01*
X212940317Y-36818351D01*
X212953946Y-36823228D01*
X212967031Y-36829417D01*
X212979447Y-36836858D01*
X212991073Y-36845481D01*
X213001798Y-36855202D01*
X213011519Y-36865927D01*
X213020142Y-36877553D01*
X213027583Y-36889969D01*
X213033772Y-36903054D01*
X213038649Y-36916683D01*
X213042166Y-36930724D01*
X213044290Y-36945042D01*
X213045000Y-36959500D01*
X213045000Y-37254500D01*
X213044290Y-37268958D01*
X213042166Y-37283276D01*
X213038649Y-37297317D01*
X213033772Y-37310946D01*
X213027583Y-37324031D01*
X213020142Y-37336447D01*
X213011519Y-37348073D01*
X213001798Y-37358798D01*
X212991073Y-37368519D01*
X212979447Y-37377142D01*
X212967031Y-37384583D01*
X212953946Y-37390772D01*
X212940317Y-37395649D01*
X212926276Y-37399166D01*
X212911958Y-37401290D01*
X212897500Y-37402000D01*
X212552500Y-37402000D01*
X212538042Y-37401290D01*
X212523724Y-37399166D01*
X212509683Y-37395649D01*
X212496054Y-37390772D01*
X212482969Y-37384583D01*
X212470553Y-37377142D01*
X212458927Y-37368519D01*
X212448202Y-37358798D01*
X212438481Y-37348073D01*
X212429858Y-37336447D01*
X212422417Y-37324031D01*
X212416228Y-37310946D01*
X212411351Y-37297317D01*
X212407834Y-37283276D01*
X212405710Y-37268958D01*
X212405000Y-37254500D01*
X212405000Y-36959500D01*
X212405710Y-36945042D01*
X212407834Y-36930724D01*
X212411351Y-36916683D01*
X212416228Y-36903054D01*
X212422417Y-36889969D01*
X212429858Y-36877553D01*
X212438481Y-36865927D01*
X212448202Y-36855202D01*
X212458927Y-36845481D01*
X212470553Y-36836858D01*
X212482969Y-36829417D01*
X212496054Y-36823228D01*
X212509683Y-36818351D01*
X212523724Y-36814834D01*
X212538042Y-36812710D01*
X212552500Y-36812000D01*
X212897500Y-36812000D01*
X212911958Y-36812710D01*
X212911958Y-36812710D01*
G37*
D13*
X212725000Y-37107000D03*
D10*
G36*
X212911958Y-37782710D02*
X212926276Y-37784834D01*
X212940317Y-37788351D01*
X212953946Y-37793228D01*
X212967031Y-37799417D01*
X212979447Y-37806858D01*
X212991073Y-37815481D01*
X213001798Y-37825202D01*
X213011519Y-37835927D01*
X213020142Y-37847553D01*
X213027583Y-37859969D01*
X213033772Y-37873054D01*
X213038649Y-37886683D01*
X213042166Y-37900724D01*
X213044290Y-37915042D01*
X213045000Y-37929500D01*
X213045000Y-38224500D01*
X213044290Y-38238958D01*
X213042166Y-38253276D01*
X213038649Y-38267317D01*
X213033772Y-38280946D01*
X213027583Y-38294031D01*
X213020142Y-38306447D01*
X213011519Y-38318073D01*
X213001798Y-38328798D01*
X212991073Y-38338519D01*
X212979447Y-38347142D01*
X212967031Y-38354583D01*
X212953946Y-38360772D01*
X212940317Y-38365649D01*
X212926276Y-38369166D01*
X212911958Y-38371290D01*
X212897500Y-38372000D01*
X212552500Y-38372000D01*
X212538042Y-38371290D01*
X212523724Y-38369166D01*
X212509683Y-38365649D01*
X212496054Y-38360772D01*
X212482969Y-38354583D01*
X212470553Y-38347142D01*
X212458927Y-38338519D01*
X212448202Y-38328798D01*
X212438481Y-38318073D01*
X212429858Y-38306447D01*
X212422417Y-38294031D01*
X212416228Y-38280946D01*
X212411351Y-38267317D01*
X212407834Y-38253276D01*
X212405710Y-38238958D01*
X212405000Y-38224500D01*
X212405000Y-37929500D01*
X212405710Y-37915042D01*
X212407834Y-37900724D01*
X212411351Y-37886683D01*
X212416228Y-37873054D01*
X212422417Y-37859969D01*
X212429858Y-37847553D01*
X212438481Y-37835927D01*
X212448202Y-37825202D01*
X212458927Y-37815481D01*
X212470553Y-37806858D01*
X212482969Y-37799417D01*
X212496054Y-37793228D01*
X212509683Y-37788351D01*
X212523724Y-37784834D01*
X212538042Y-37782710D01*
X212552500Y-37782000D01*
X212897500Y-37782000D01*
X212911958Y-37782710D01*
X212911958Y-37782710D01*
G37*
D13*
X212725000Y-38077000D03*
G04 #@! TD*
D10*
G04 #@! TO.C,R6*
G36*
X218372958Y-36431710D02*
X218387276Y-36433834D01*
X218401317Y-36437351D01*
X218414946Y-36442228D01*
X218428031Y-36448417D01*
X218440447Y-36455858D01*
X218452073Y-36464481D01*
X218462798Y-36474202D01*
X218472519Y-36484927D01*
X218481142Y-36496553D01*
X218488583Y-36508969D01*
X218494772Y-36522054D01*
X218499649Y-36535683D01*
X218503166Y-36549724D01*
X218505290Y-36564042D01*
X218506000Y-36578500D01*
X218506000Y-36873500D01*
X218505290Y-36887958D01*
X218503166Y-36902276D01*
X218499649Y-36916317D01*
X218494772Y-36929946D01*
X218488583Y-36943031D01*
X218481142Y-36955447D01*
X218472519Y-36967073D01*
X218462798Y-36977798D01*
X218452073Y-36987519D01*
X218440447Y-36996142D01*
X218428031Y-37003583D01*
X218414946Y-37009772D01*
X218401317Y-37014649D01*
X218387276Y-37018166D01*
X218372958Y-37020290D01*
X218358500Y-37021000D01*
X218013500Y-37021000D01*
X217999042Y-37020290D01*
X217984724Y-37018166D01*
X217970683Y-37014649D01*
X217957054Y-37009772D01*
X217943969Y-37003583D01*
X217931553Y-36996142D01*
X217919927Y-36987519D01*
X217909202Y-36977798D01*
X217899481Y-36967073D01*
X217890858Y-36955447D01*
X217883417Y-36943031D01*
X217877228Y-36929946D01*
X217872351Y-36916317D01*
X217868834Y-36902276D01*
X217866710Y-36887958D01*
X217866000Y-36873500D01*
X217866000Y-36578500D01*
X217866710Y-36564042D01*
X217868834Y-36549724D01*
X217872351Y-36535683D01*
X217877228Y-36522054D01*
X217883417Y-36508969D01*
X217890858Y-36496553D01*
X217899481Y-36484927D01*
X217909202Y-36474202D01*
X217919927Y-36464481D01*
X217931553Y-36455858D01*
X217943969Y-36448417D01*
X217957054Y-36442228D01*
X217970683Y-36437351D01*
X217984724Y-36433834D01*
X217999042Y-36431710D01*
X218013500Y-36431000D01*
X218358500Y-36431000D01*
X218372958Y-36431710D01*
X218372958Y-36431710D01*
G37*
D13*
X218186000Y-36726000D03*
D10*
G36*
X218372958Y-37401710D02*
X218387276Y-37403834D01*
X218401317Y-37407351D01*
X218414946Y-37412228D01*
X218428031Y-37418417D01*
X218440447Y-37425858D01*
X218452073Y-37434481D01*
X218462798Y-37444202D01*
X218472519Y-37454927D01*
X218481142Y-37466553D01*
X218488583Y-37478969D01*
X218494772Y-37492054D01*
X218499649Y-37505683D01*
X218503166Y-37519724D01*
X218505290Y-37534042D01*
X218506000Y-37548500D01*
X218506000Y-37843500D01*
X218505290Y-37857958D01*
X218503166Y-37872276D01*
X218499649Y-37886317D01*
X218494772Y-37899946D01*
X218488583Y-37913031D01*
X218481142Y-37925447D01*
X218472519Y-37937073D01*
X218462798Y-37947798D01*
X218452073Y-37957519D01*
X218440447Y-37966142D01*
X218428031Y-37973583D01*
X218414946Y-37979772D01*
X218401317Y-37984649D01*
X218387276Y-37988166D01*
X218372958Y-37990290D01*
X218358500Y-37991000D01*
X218013500Y-37991000D01*
X217999042Y-37990290D01*
X217984724Y-37988166D01*
X217970683Y-37984649D01*
X217957054Y-37979772D01*
X217943969Y-37973583D01*
X217931553Y-37966142D01*
X217919927Y-37957519D01*
X217909202Y-37947798D01*
X217899481Y-37937073D01*
X217890858Y-37925447D01*
X217883417Y-37913031D01*
X217877228Y-37899946D01*
X217872351Y-37886317D01*
X217868834Y-37872276D01*
X217866710Y-37857958D01*
X217866000Y-37843500D01*
X217866000Y-37548500D01*
X217866710Y-37534042D01*
X217868834Y-37519724D01*
X217872351Y-37505683D01*
X217877228Y-37492054D01*
X217883417Y-37478969D01*
X217890858Y-37466553D01*
X217899481Y-37454927D01*
X217909202Y-37444202D01*
X217919927Y-37434481D01*
X217931553Y-37425858D01*
X217943969Y-37418417D01*
X217957054Y-37412228D01*
X217970683Y-37407351D01*
X217984724Y-37403834D01*
X217999042Y-37401710D01*
X218013500Y-37401000D01*
X218358500Y-37401000D01*
X218372958Y-37401710D01*
X218372958Y-37401710D01*
G37*
D13*
X218186000Y-37696000D03*
G04 #@! TD*
D14*
G04 #@! TO.C,S2*
X231305069Y-41808858D03*
X233805069Y-41808858D03*
X236305069Y-41808858D03*
G04 #@! TD*
G04 #@! TO.C,S4*
X182539000Y-32722000D03*
X185039000Y-32722000D03*
X187539000Y-32722000D03*
G04 #@! TD*
G04 #@! TO.C,S1*
X187539000Y-41866000D03*
X185039000Y-41866000D03*
X182539000Y-41866000D03*
G04 #@! TD*
G04 #@! TO.C,S3*
X236305069Y-32918858D03*
X233805069Y-32918858D03*
X231305069Y-32918858D03*
G04 #@! TD*
D15*
G04 #@! TO.C,Q1*
X215961000Y-37734000D03*
X215961000Y-37084000D03*
X215961000Y-36434000D03*
X214061000Y-37734000D03*
X214061000Y-37084000D03*
X214061000Y-36434000D03*
G04 #@! TD*
D10*
G04 #@! TO.C,C7*
G36*
X204316505Y-49487204D02*
X204340773Y-49490804D01*
X204364572Y-49496765D01*
X204387671Y-49505030D01*
X204409850Y-49515520D01*
X204430893Y-49528132D01*
X204450599Y-49542747D01*
X204468777Y-49559223D01*
X204485253Y-49577401D01*
X204499868Y-49597107D01*
X204512480Y-49618150D01*
X204522970Y-49640329D01*
X204531235Y-49663428D01*
X204537196Y-49687227D01*
X204540796Y-49711495D01*
X204542000Y-49735999D01*
X204542000Y-51486001D01*
X204540796Y-51510505D01*
X204537196Y-51534773D01*
X204531235Y-51558572D01*
X204522970Y-51581671D01*
X204512480Y-51603850D01*
X204499868Y-51624893D01*
X204485253Y-51644599D01*
X204468777Y-51662777D01*
X204450599Y-51679253D01*
X204430893Y-51693868D01*
X204409850Y-51706480D01*
X204387671Y-51716970D01*
X204364572Y-51725235D01*
X204340773Y-51731196D01*
X204316505Y-51734796D01*
X204292001Y-51736000D01*
X202441999Y-51736000D01*
X202417495Y-51734796D01*
X202393227Y-51731196D01*
X202369428Y-51725235D01*
X202346329Y-51716970D01*
X202324150Y-51706480D01*
X202303107Y-51693868D01*
X202283401Y-51679253D01*
X202265223Y-51662777D01*
X202248747Y-51644599D01*
X202234132Y-51624893D01*
X202221520Y-51603850D01*
X202211030Y-51581671D01*
X202202765Y-51558572D01*
X202196804Y-51534773D01*
X202193204Y-51510505D01*
X202192000Y-51486001D01*
X202192000Y-49735999D01*
X202193204Y-49711495D01*
X202196804Y-49687227D01*
X202202765Y-49663428D01*
X202211030Y-49640329D01*
X202221520Y-49618150D01*
X202234132Y-49597107D01*
X202248747Y-49577401D01*
X202265223Y-49559223D01*
X202283401Y-49542747D01*
X202303107Y-49528132D01*
X202324150Y-49515520D01*
X202346329Y-49505030D01*
X202369428Y-49496765D01*
X202393227Y-49490804D01*
X202417495Y-49487204D01*
X202441999Y-49486000D01*
X204292001Y-49486000D01*
X204316505Y-49487204D01*
X204316505Y-49487204D01*
G37*
D16*
X203367000Y-50611000D03*
D10*
G36*
X204316505Y-44387204D02*
X204340773Y-44390804D01*
X204364572Y-44396765D01*
X204387671Y-44405030D01*
X204409850Y-44415520D01*
X204430893Y-44428132D01*
X204450599Y-44442747D01*
X204468777Y-44459223D01*
X204485253Y-44477401D01*
X204499868Y-44497107D01*
X204512480Y-44518150D01*
X204522970Y-44540329D01*
X204531235Y-44563428D01*
X204537196Y-44587227D01*
X204540796Y-44611495D01*
X204542000Y-44635999D01*
X204542000Y-46386001D01*
X204540796Y-46410505D01*
X204537196Y-46434773D01*
X204531235Y-46458572D01*
X204522970Y-46481671D01*
X204512480Y-46503850D01*
X204499868Y-46524893D01*
X204485253Y-46544599D01*
X204468777Y-46562777D01*
X204450599Y-46579253D01*
X204430893Y-46593868D01*
X204409850Y-46606480D01*
X204387671Y-46616970D01*
X204364572Y-46625235D01*
X204340773Y-46631196D01*
X204316505Y-46634796D01*
X204292001Y-46636000D01*
X202441999Y-46636000D01*
X202417495Y-46634796D01*
X202393227Y-46631196D01*
X202369428Y-46625235D01*
X202346329Y-46616970D01*
X202324150Y-46606480D01*
X202303107Y-46593868D01*
X202283401Y-46579253D01*
X202265223Y-46562777D01*
X202248747Y-46544599D01*
X202234132Y-46524893D01*
X202221520Y-46503850D01*
X202211030Y-46481671D01*
X202202765Y-46458572D01*
X202196804Y-46434773D01*
X202193204Y-46410505D01*
X202192000Y-46386001D01*
X202192000Y-44635999D01*
X202193204Y-44611495D01*
X202196804Y-44587227D01*
X202202765Y-44563428D01*
X202211030Y-44540329D01*
X202221520Y-44518150D01*
X202234132Y-44497107D01*
X202248747Y-44477401D01*
X202265223Y-44459223D01*
X202283401Y-44442747D01*
X202303107Y-44428132D01*
X202324150Y-44415520D01*
X202346329Y-44405030D01*
X202369428Y-44396765D01*
X202393227Y-44390804D01*
X202417495Y-44387204D01*
X202441999Y-44386000D01*
X204292001Y-44386000D01*
X204316505Y-44387204D01*
X204316505Y-44387204D01*
G37*
D16*
X203367000Y-45511000D03*
G04 #@! TD*
M02*
