G04 #@! TF.GenerationSoftware,KiCad,Pcbnew,(5.0.2)-1*
G04 #@! TF.CreationDate,2019-03-25T23:56:42-07:00*
G04 #@! TF.ProjectId,SwitcheroModule,53776974-6368-4657-926f-4d6f64756c65,rev?*
G04 #@! TF.SameCoordinates,Original*
G04 #@! TF.FileFunction,Legend,Bot*
G04 #@! TF.FilePolarity,Positive*
%FSLAX46Y46*%
G04 Gerber Fmt 4.6, Leading zero omitted, Abs format (unit mm)*
G04 Created by KiCad (PCBNEW (5.0.2)-1) date 3/25/2019 11:56:42 PM*
%MOMM*%
%LPD*%
G01*
G04 APERTURE LIST*
%ADD10C,0.120000*%
%ADD11C,0.150000*%
%ADD12C,0.100000*%
%ADD13C,0.062500*%
G04 APERTURE END LIST*
D10*
G04 #@! TO.C,J1*
X248020000Y-26892700D02*
X248020000Y-91012700D01*
X248020000Y-91012700D02*
X246400000Y-91012700D01*
X246400000Y-91012700D02*
X246400000Y-26892700D01*
X246400000Y-26892700D02*
X248020000Y-26892700D01*
X246400000Y-27642700D02*
X242200000Y-27642700D01*
X242200000Y-27642700D02*
X242200000Y-28262700D01*
X242200000Y-28262700D02*
X246400000Y-28262700D01*
X246400000Y-27702700D02*
X242200000Y-27702700D01*
X246400000Y-27822700D02*
X242200000Y-27822700D01*
X246400000Y-27942700D02*
X242200000Y-27942700D01*
X246400000Y-28062700D02*
X242200000Y-28062700D01*
X246400000Y-28182700D02*
X242200000Y-28182700D01*
X248577886Y-27642700D02*
X248020000Y-27642700D01*
X248577886Y-28262700D02*
X248020000Y-28262700D01*
X250525000Y-27642700D02*
X250342114Y-27642700D01*
X250525000Y-28262700D02*
X250342114Y-28262700D01*
X248020000Y-28952700D02*
X246400000Y-28952700D01*
X246400000Y-29642700D02*
X242200000Y-29642700D01*
X242200000Y-29642700D02*
X242200000Y-30262700D01*
X242200000Y-30262700D02*
X246400000Y-30262700D01*
X248577886Y-29642700D02*
X248020000Y-29642700D01*
X248577886Y-30262700D02*
X248020000Y-30262700D01*
X250577886Y-29642700D02*
X250342114Y-29642700D01*
X250577886Y-30262700D02*
X250342114Y-30262700D01*
X248020000Y-30952700D02*
X246400000Y-30952700D01*
X246400000Y-31642700D02*
X242200000Y-31642700D01*
X242200000Y-31642700D02*
X242200000Y-32262700D01*
X242200000Y-32262700D02*
X246400000Y-32262700D01*
X248577886Y-31642700D02*
X248020000Y-31642700D01*
X248577886Y-32262700D02*
X248020000Y-32262700D01*
X250577886Y-31642700D02*
X250342114Y-31642700D01*
X250577886Y-32262700D02*
X250342114Y-32262700D01*
X248020000Y-32952700D02*
X246400000Y-32952700D01*
X246400000Y-33642700D02*
X242200000Y-33642700D01*
X242200000Y-33642700D02*
X242200000Y-34262700D01*
X242200000Y-34262700D02*
X246400000Y-34262700D01*
X248577886Y-33642700D02*
X248020000Y-33642700D01*
X248577886Y-34262700D02*
X248020000Y-34262700D01*
X250577886Y-33642700D02*
X250342114Y-33642700D01*
X250577886Y-34262700D02*
X250342114Y-34262700D01*
X248020000Y-34952700D02*
X246400000Y-34952700D01*
X246400000Y-35642700D02*
X242200000Y-35642700D01*
X242200000Y-35642700D02*
X242200000Y-36262700D01*
X242200000Y-36262700D02*
X246400000Y-36262700D01*
X248577886Y-35642700D02*
X248020000Y-35642700D01*
X248577886Y-36262700D02*
X248020000Y-36262700D01*
X250577886Y-35642700D02*
X250342114Y-35642700D01*
X250577886Y-36262700D02*
X250342114Y-36262700D01*
X248020000Y-36952700D02*
X246400000Y-36952700D01*
X246400000Y-37642700D02*
X242200000Y-37642700D01*
X242200000Y-37642700D02*
X242200000Y-38262700D01*
X242200000Y-38262700D02*
X246400000Y-38262700D01*
X248577886Y-37642700D02*
X248020000Y-37642700D01*
X248577886Y-38262700D02*
X248020000Y-38262700D01*
X250577886Y-37642700D02*
X250342114Y-37642700D01*
X250577886Y-38262700D02*
X250342114Y-38262700D01*
X248020000Y-38952700D02*
X246400000Y-38952700D01*
X246400000Y-39642700D02*
X242200000Y-39642700D01*
X242200000Y-39642700D02*
X242200000Y-40262700D01*
X242200000Y-40262700D02*
X246400000Y-40262700D01*
X248577886Y-39642700D02*
X248020000Y-39642700D01*
X248577886Y-40262700D02*
X248020000Y-40262700D01*
X250577886Y-39642700D02*
X250342114Y-39642700D01*
X250577886Y-40262700D02*
X250342114Y-40262700D01*
X248020000Y-40952700D02*
X246400000Y-40952700D01*
X246400000Y-41642700D02*
X242200000Y-41642700D01*
X242200000Y-41642700D02*
X242200000Y-42262700D01*
X242200000Y-42262700D02*
X246400000Y-42262700D01*
X248577886Y-41642700D02*
X248020000Y-41642700D01*
X248577886Y-42262700D02*
X248020000Y-42262700D01*
X250577886Y-41642700D02*
X250342114Y-41642700D01*
X250577886Y-42262700D02*
X250342114Y-42262700D01*
X248020000Y-42952700D02*
X246400000Y-42952700D01*
X246400000Y-43642700D02*
X242200000Y-43642700D01*
X242200000Y-43642700D02*
X242200000Y-44262700D01*
X242200000Y-44262700D02*
X246400000Y-44262700D01*
X248577886Y-43642700D02*
X248020000Y-43642700D01*
X248577886Y-44262700D02*
X248020000Y-44262700D01*
X250577886Y-43642700D02*
X250342114Y-43642700D01*
X250577886Y-44262700D02*
X250342114Y-44262700D01*
X248020000Y-44952700D02*
X246400000Y-44952700D01*
X246400000Y-45642700D02*
X242200000Y-45642700D01*
X242200000Y-45642700D02*
X242200000Y-46262700D01*
X242200000Y-46262700D02*
X246400000Y-46262700D01*
X248577886Y-45642700D02*
X248020000Y-45642700D01*
X248577886Y-46262700D02*
X248020000Y-46262700D01*
X250577886Y-45642700D02*
X250342114Y-45642700D01*
X250577886Y-46262700D02*
X250342114Y-46262700D01*
X248020000Y-46952700D02*
X246400000Y-46952700D01*
X246400000Y-47642700D02*
X242200000Y-47642700D01*
X242200000Y-47642700D02*
X242200000Y-48262700D01*
X242200000Y-48262700D02*
X246400000Y-48262700D01*
X248577886Y-47642700D02*
X248020000Y-47642700D01*
X248577886Y-48262700D02*
X248020000Y-48262700D01*
X250577886Y-47642700D02*
X250342114Y-47642700D01*
X250577886Y-48262700D02*
X250342114Y-48262700D01*
X248020000Y-48952700D02*
X246400000Y-48952700D01*
X246400000Y-49642700D02*
X242200000Y-49642700D01*
X242200000Y-49642700D02*
X242200000Y-50262700D01*
X242200000Y-50262700D02*
X246400000Y-50262700D01*
X248577886Y-49642700D02*
X248020000Y-49642700D01*
X248577886Y-50262700D02*
X248020000Y-50262700D01*
X250577886Y-49642700D02*
X250342114Y-49642700D01*
X250577886Y-50262700D02*
X250342114Y-50262700D01*
X248020000Y-50952700D02*
X246400000Y-50952700D01*
X246400000Y-51642700D02*
X242200000Y-51642700D01*
X242200000Y-51642700D02*
X242200000Y-52262700D01*
X242200000Y-52262700D02*
X246400000Y-52262700D01*
X248577886Y-51642700D02*
X248020000Y-51642700D01*
X248577886Y-52262700D02*
X248020000Y-52262700D01*
X250577886Y-51642700D02*
X250342114Y-51642700D01*
X250577886Y-52262700D02*
X250342114Y-52262700D01*
X248020000Y-52952700D02*
X246400000Y-52952700D01*
X246400000Y-53642700D02*
X242200000Y-53642700D01*
X242200000Y-53642700D02*
X242200000Y-54262700D01*
X242200000Y-54262700D02*
X246400000Y-54262700D01*
X248577886Y-53642700D02*
X248020000Y-53642700D01*
X248577886Y-54262700D02*
X248020000Y-54262700D01*
X250577886Y-53642700D02*
X250342114Y-53642700D01*
X250577886Y-54262700D02*
X250342114Y-54262700D01*
X248020000Y-54952700D02*
X246400000Y-54952700D01*
X246400000Y-55642700D02*
X242200000Y-55642700D01*
X242200000Y-55642700D02*
X242200000Y-56262700D01*
X242200000Y-56262700D02*
X246400000Y-56262700D01*
X248577886Y-55642700D02*
X248020000Y-55642700D01*
X248577886Y-56262700D02*
X248020000Y-56262700D01*
X250577886Y-55642700D02*
X250342114Y-55642700D01*
X250577886Y-56262700D02*
X250342114Y-56262700D01*
X248020000Y-56952700D02*
X246400000Y-56952700D01*
X246400000Y-57642700D02*
X242200000Y-57642700D01*
X242200000Y-57642700D02*
X242200000Y-58262700D01*
X242200000Y-58262700D02*
X246400000Y-58262700D01*
X248577886Y-57642700D02*
X248020000Y-57642700D01*
X248577886Y-58262700D02*
X248020000Y-58262700D01*
X250577886Y-57642700D02*
X250342114Y-57642700D01*
X250577886Y-58262700D02*
X250342114Y-58262700D01*
X248020000Y-58952700D02*
X246400000Y-58952700D01*
X246400000Y-59642700D02*
X242200000Y-59642700D01*
X242200000Y-59642700D02*
X242200000Y-60262700D01*
X242200000Y-60262700D02*
X246400000Y-60262700D01*
X248577886Y-59642700D02*
X248020000Y-59642700D01*
X248577886Y-60262700D02*
X248020000Y-60262700D01*
X250577886Y-59642700D02*
X250342114Y-59642700D01*
X250577886Y-60262700D02*
X250342114Y-60262700D01*
X248020000Y-60952700D02*
X246400000Y-60952700D01*
X246400000Y-61642700D02*
X242200000Y-61642700D01*
X242200000Y-61642700D02*
X242200000Y-62262700D01*
X242200000Y-62262700D02*
X246400000Y-62262700D01*
X248577886Y-61642700D02*
X248020000Y-61642700D01*
X248577886Y-62262700D02*
X248020000Y-62262700D01*
X250577886Y-61642700D02*
X250342114Y-61642700D01*
X250577886Y-62262700D02*
X250342114Y-62262700D01*
X248020000Y-62952700D02*
X246400000Y-62952700D01*
X246400000Y-63642700D02*
X242200000Y-63642700D01*
X242200000Y-63642700D02*
X242200000Y-64262700D01*
X242200000Y-64262700D02*
X246400000Y-64262700D01*
X248577886Y-63642700D02*
X248020000Y-63642700D01*
X248577886Y-64262700D02*
X248020000Y-64262700D01*
X250577886Y-63642700D02*
X250342114Y-63642700D01*
X250577886Y-64262700D02*
X250342114Y-64262700D01*
X248020000Y-64952700D02*
X246400000Y-64952700D01*
X246400000Y-65642700D02*
X242200000Y-65642700D01*
X242200000Y-65642700D02*
X242200000Y-66262700D01*
X242200000Y-66262700D02*
X246400000Y-66262700D01*
X248577886Y-65642700D02*
X248020000Y-65642700D01*
X248577886Y-66262700D02*
X248020000Y-66262700D01*
X250577886Y-65642700D02*
X250342114Y-65642700D01*
X250577886Y-66262700D02*
X250342114Y-66262700D01*
X248020000Y-66952700D02*
X246400000Y-66952700D01*
X246400000Y-67642700D02*
X242200000Y-67642700D01*
X242200000Y-67642700D02*
X242200000Y-68262700D01*
X242200000Y-68262700D02*
X246400000Y-68262700D01*
X248577886Y-67642700D02*
X248020000Y-67642700D01*
X248577886Y-68262700D02*
X248020000Y-68262700D01*
X250577886Y-67642700D02*
X250342114Y-67642700D01*
X250577886Y-68262700D02*
X250342114Y-68262700D01*
X248020000Y-68952700D02*
X246400000Y-68952700D01*
X246400000Y-69642700D02*
X242200000Y-69642700D01*
X242200000Y-69642700D02*
X242200000Y-70262700D01*
X242200000Y-70262700D02*
X246400000Y-70262700D01*
X248577886Y-69642700D02*
X248020000Y-69642700D01*
X248577886Y-70262700D02*
X248020000Y-70262700D01*
X250577886Y-69642700D02*
X250342114Y-69642700D01*
X250577886Y-70262700D02*
X250342114Y-70262700D01*
X248020000Y-70952700D02*
X246400000Y-70952700D01*
X246400000Y-71642700D02*
X242200000Y-71642700D01*
X242200000Y-71642700D02*
X242200000Y-72262700D01*
X242200000Y-72262700D02*
X246400000Y-72262700D01*
X248577886Y-71642700D02*
X248020000Y-71642700D01*
X248577886Y-72262700D02*
X248020000Y-72262700D01*
X250577886Y-71642700D02*
X250342114Y-71642700D01*
X250577886Y-72262700D02*
X250342114Y-72262700D01*
X248020000Y-72952700D02*
X246400000Y-72952700D01*
X246400000Y-73642700D02*
X242200000Y-73642700D01*
X242200000Y-73642700D02*
X242200000Y-74262700D01*
X242200000Y-74262700D02*
X246400000Y-74262700D01*
X248577886Y-73642700D02*
X248020000Y-73642700D01*
X248577886Y-74262700D02*
X248020000Y-74262700D01*
X250577886Y-73642700D02*
X250342114Y-73642700D01*
X250577886Y-74262700D02*
X250342114Y-74262700D01*
X248020000Y-74952700D02*
X246400000Y-74952700D01*
X246400000Y-75642700D02*
X242200000Y-75642700D01*
X242200000Y-75642700D02*
X242200000Y-76262700D01*
X242200000Y-76262700D02*
X246400000Y-76262700D01*
X248577886Y-75642700D02*
X248020000Y-75642700D01*
X248577886Y-76262700D02*
X248020000Y-76262700D01*
X250577886Y-75642700D02*
X250342114Y-75642700D01*
X250577886Y-76262700D02*
X250342114Y-76262700D01*
X248020000Y-76952700D02*
X246400000Y-76952700D01*
X246400000Y-77642700D02*
X242200000Y-77642700D01*
X242200000Y-77642700D02*
X242200000Y-78262700D01*
X242200000Y-78262700D02*
X246400000Y-78262700D01*
X248577886Y-77642700D02*
X248020000Y-77642700D01*
X248577886Y-78262700D02*
X248020000Y-78262700D01*
X250577886Y-77642700D02*
X250342114Y-77642700D01*
X250577886Y-78262700D02*
X250342114Y-78262700D01*
X248020000Y-78952700D02*
X246400000Y-78952700D01*
X246400000Y-79642700D02*
X242200000Y-79642700D01*
X242200000Y-79642700D02*
X242200000Y-80262700D01*
X242200000Y-80262700D02*
X246400000Y-80262700D01*
X248577886Y-79642700D02*
X248020000Y-79642700D01*
X248577886Y-80262700D02*
X248020000Y-80262700D01*
X250577886Y-79642700D02*
X250342114Y-79642700D01*
X250577886Y-80262700D02*
X250342114Y-80262700D01*
X248020000Y-80952700D02*
X246400000Y-80952700D01*
X246400000Y-81642700D02*
X242200000Y-81642700D01*
X242200000Y-81642700D02*
X242200000Y-82262700D01*
X242200000Y-82262700D02*
X246400000Y-82262700D01*
X248577886Y-81642700D02*
X248020000Y-81642700D01*
X248577886Y-82262700D02*
X248020000Y-82262700D01*
X250577886Y-81642700D02*
X250342114Y-81642700D01*
X250577886Y-82262700D02*
X250342114Y-82262700D01*
X248020000Y-82952700D02*
X246400000Y-82952700D01*
X246400000Y-83642700D02*
X242200000Y-83642700D01*
X242200000Y-83642700D02*
X242200000Y-84262700D01*
X242200000Y-84262700D02*
X246400000Y-84262700D01*
X248577886Y-83642700D02*
X248020000Y-83642700D01*
X248577886Y-84262700D02*
X248020000Y-84262700D01*
X250577886Y-83642700D02*
X250342114Y-83642700D01*
X250577886Y-84262700D02*
X250342114Y-84262700D01*
X248020000Y-84952700D02*
X246400000Y-84952700D01*
X246400000Y-85642700D02*
X242200000Y-85642700D01*
X242200000Y-85642700D02*
X242200000Y-86262700D01*
X242200000Y-86262700D02*
X246400000Y-86262700D01*
X248577886Y-85642700D02*
X248020000Y-85642700D01*
X248577886Y-86262700D02*
X248020000Y-86262700D01*
X250577886Y-85642700D02*
X250342114Y-85642700D01*
X250577886Y-86262700D02*
X250342114Y-86262700D01*
X248020000Y-86952700D02*
X246400000Y-86952700D01*
X246400000Y-87642700D02*
X242200000Y-87642700D01*
X242200000Y-87642700D02*
X242200000Y-88262700D01*
X242200000Y-88262700D02*
X246400000Y-88262700D01*
X248577886Y-87642700D02*
X248020000Y-87642700D01*
X248577886Y-88262700D02*
X248020000Y-88262700D01*
X250577886Y-87642700D02*
X250342114Y-87642700D01*
X250577886Y-88262700D02*
X250342114Y-88262700D01*
X248020000Y-88952700D02*
X246400000Y-88952700D01*
X246400000Y-89642700D02*
X242200000Y-89642700D01*
X242200000Y-89642700D02*
X242200000Y-90262700D01*
X242200000Y-90262700D02*
X246400000Y-90262700D01*
X248577886Y-89642700D02*
X248020000Y-89642700D01*
X248577886Y-90262700D02*
X248020000Y-90262700D01*
X250577886Y-89642700D02*
X250342114Y-89642700D01*
X250577886Y-90262700D02*
X250342114Y-90262700D01*
X252460000Y-27952700D02*
X252460000Y-26952700D01*
X252460000Y-26952700D02*
X251460000Y-26952700D01*
G04 #@! TO.C,C6*
X230970267Y-57330000D02*
X230627733Y-57330000D01*
X230970267Y-58350000D02*
X230627733Y-58350000D01*
G04 #@! TO.C,U11*
X227390000Y-32020000D02*
G75*
G03X227390000Y-34020000I0J-1000000D01*
G01*
X227390000Y-34020000D02*
X227390000Y-35470000D01*
X227390000Y-35470000D02*
X219650000Y-35470000D01*
X219650000Y-35470000D02*
X219650000Y-30570000D01*
X219650000Y-30570000D02*
X227390000Y-30570000D01*
X227390000Y-30570000D02*
X227390000Y-32020000D01*
G04 #@! TO.C,U10*
X198180000Y-30570000D02*
X198180000Y-32020000D01*
X190440000Y-30570000D02*
X198180000Y-30570000D01*
X190440000Y-35470000D02*
X190440000Y-30570000D01*
X198180000Y-35470000D02*
X190440000Y-35470000D01*
X198180000Y-34020000D02*
X198180000Y-35470000D01*
X198180000Y-32020000D02*
G75*
G03X198180000Y-34020000I0J-1000000D01*
G01*
G04 #@! TO.C,S2*
X237005069Y-40958858D02*
X238405069Y-40958858D01*
X238405069Y-40958858D02*
X238405069Y-37158858D01*
X229205069Y-37158858D02*
X229205069Y-40958858D01*
X229205069Y-40958858D02*
X230605069Y-40958858D01*
X235605069Y-40958858D02*
X234505069Y-40958858D01*
X234505069Y-40958858D02*
X234505069Y-40958858D01*
X233105069Y-40958858D02*
X232005069Y-40958858D01*
X232005069Y-40958858D02*
X232005069Y-40958858D01*
X238405069Y-37158858D02*
X236705069Y-37158858D01*
X236705069Y-37158858D02*
X236705069Y-36858858D01*
X236705069Y-36858858D02*
X235905069Y-36858858D01*
X235905069Y-36858858D02*
X235905069Y-37158858D01*
X235905069Y-37158858D02*
X234205069Y-37158858D01*
X234205069Y-37158858D02*
X234205069Y-36858858D01*
X234205069Y-36858858D02*
X233405069Y-36858858D01*
X233405069Y-36858858D02*
X233405069Y-37158858D01*
X233405069Y-37158858D02*
X231705069Y-37158858D01*
X231705069Y-37158858D02*
X231705069Y-36858858D01*
X231705069Y-36858858D02*
X230905069Y-36858858D01*
X230905069Y-36858858D02*
X230905069Y-37158858D01*
X230905069Y-37158858D02*
X229205069Y-37158858D01*
X229205069Y-37158858D02*
X229205069Y-37158858D01*
X231805069Y-35258858D02*
X231805069Y-35758858D01*
X231805069Y-35758858D02*
X231805069Y-35758858D01*
X231805069Y-35258858D02*
X232305069Y-35258858D01*
X232305069Y-35258858D02*
X232305069Y-35258858D01*
X235805069Y-35258858D02*
X235305069Y-35258858D01*
X235305069Y-35258858D02*
X235305069Y-35258858D01*
X235805069Y-35258858D02*
X235805069Y-35758858D01*
X235805069Y-35758858D02*
X235805069Y-35758858D01*
X235805069Y-36058858D02*
X235805069Y-36558858D01*
X235805069Y-36558858D02*
X235805069Y-36558858D01*
X231805069Y-36058858D02*
X231805069Y-36558858D01*
X231805069Y-36558858D02*
X231805069Y-36558858D01*
X232605069Y-35258858D02*
X233105069Y-35258858D01*
X233105069Y-35258858D02*
X233105069Y-35258858D01*
X235005069Y-35258858D02*
X234505069Y-35258858D01*
X234505069Y-35258858D02*
X234505069Y-35258858D01*
X234205069Y-35258858D02*
X233405069Y-35258858D01*
X233405069Y-35258858D02*
X233405069Y-35258858D01*
G04 #@! TO.C,S4*
X188239000Y-31872000D02*
X189639000Y-31872000D01*
X189639000Y-31872000D02*
X189639000Y-28072000D01*
X180439000Y-28072000D02*
X180439000Y-31872000D01*
X180439000Y-31872000D02*
X181839000Y-31872000D01*
X186839000Y-31872000D02*
X185739000Y-31872000D01*
X185739000Y-31872000D02*
X185739000Y-31872000D01*
X184339000Y-31872000D02*
X183239000Y-31872000D01*
X183239000Y-31872000D02*
X183239000Y-31872000D01*
X189639000Y-28072000D02*
X187939000Y-28072000D01*
X187939000Y-28072000D02*
X187939000Y-27772000D01*
X187939000Y-27772000D02*
X187139000Y-27772000D01*
X187139000Y-27772000D02*
X187139000Y-28072000D01*
X187139000Y-28072000D02*
X185439000Y-28072000D01*
X185439000Y-28072000D02*
X185439000Y-27772000D01*
X185439000Y-27772000D02*
X184639000Y-27772000D01*
X184639000Y-27772000D02*
X184639000Y-28072000D01*
X184639000Y-28072000D02*
X182939000Y-28072000D01*
X182939000Y-28072000D02*
X182939000Y-27772000D01*
X182939000Y-27772000D02*
X182139000Y-27772000D01*
X182139000Y-27772000D02*
X182139000Y-28072000D01*
X182139000Y-28072000D02*
X180439000Y-28072000D01*
X180439000Y-28072000D02*
X180439000Y-28072000D01*
X183039000Y-26172000D02*
X183039000Y-26672000D01*
X183039000Y-26672000D02*
X183039000Y-26672000D01*
X183039000Y-26172000D02*
X183539000Y-26172000D01*
X183539000Y-26172000D02*
X183539000Y-26172000D01*
X187039000Y-26172000D02*
X186539000Y-26172000D01*
X186539000Y-26172000D02*
X186539000Y-26172000D01*
X187039000Y-26172000D02*
X187039000Y-26672000D01*
X187039000Y-26672000D02*
X187039000Y-26672000D01*
X187039000Y-26972000D02*
X187039000Y-27472000D01*
X187039000Y-27472000D02*
X187039000Y-27472000D01*
X183039000Y-26972000D02*
X183039000Y-27472000D01*
X183039000Y-27472000D02*
X183039000Y-27472000D01*
X183839000Y-26172000D02*
X184339000Y-26172000D01*
X184339000Y-26172000D02*
X184339000Y-26172000D01*
X186239000Y-26172000D02*
X185739000Y-26172000D01*
X185739000Y-26172000D02*
X185739000Y-26172000D01*
X185439000Y-26172000D02*
X184639000Y-26172000D01*
X184639000Y-26172000D02*
X184639000Y-26172000D01*
G04 #@! TO.C,S1*
X184639000Y-35316000D02*
X184639000Y-35316000D01*
X185439000Y-35316000D02*
X184639000Y-35316000D01*
X185739000Y-35316000D02*
X185739000Y-35316000D01*
X186239000Y-35316000D02*
X185739000Y-35316000D01*
X184339000Y-35316000D02*
X184339000Y-35316000D01*
X183839000Y-35316000D02*
X184339000Y-35316000D01*
X183039000Y-36616000D02*
X183039000Y-36616000D01*
X183039000Y-36116000D02*
X183039000Y-36616000D01*
X187039000Y-36616000D02*
X187039000Y-36616000D01*
X187039000Y-36116000D02*
X187039000Y-36616000D01*
X187039000Y-35816000D02*
X187039000Y-35816000D01*
X187039000Y-35316000D02*
X187039000Y-35816000D01*
X186539000Y-35316000D02*
X186539000Y-35316000D01*
X187039000Y-35316000D02*
X186539000Y-35316000D01*
X183539000Y-35316000D02*
X183539000Y-35316000D01*
X183039000Y-35316000D02*
X183539000Y-35316000D01*
X183039000Y-35816000D02*
X183039000Y-35816000D01*
X183039000Y-35316000D02*
X183039000Y-35816000D01*
X180439000Y-37216000D02*
X180439000Y-37216000D01*
X182139000Y-37216000D02*
X180439000Y-37216000D01*
X182139000Y-36916000D02*
X182139000Y-37216000D01*
X182939000Y-36916000D02*
X182139000Y-36916000D01*
X182939000Y-37216000D02*
X182939000Y-36916000D01*
X184639000Y-37216000D02*
X182939000Y-37216000D01*
X184639000Y-36916000D02*
X184639000Y-37216000D01*
X185439000Y-36916000D02*
X184639000Y-36916000D01*
X185439000Y-37216000D02*
X185439000Y-36916000D01*
X187139000Y-37216000D02*
X185439000Y-37216000D01*
X187139000Y-36916000D02*
X187139000Y-37216000D01*
X187939000Y-36916000D02*
X187139000Y-36916000D01*
X187939000Y-37216000D02*
X187939000Y-36916000D01*
X189639000Y-37216000D02*
X187939000Y-37216000D01*
X183239000Y-41016000D02*
X183239000Y-41016000D01*
X184339000Y-41016000D02*
X183239000Y-41016000D01*
X185739000Y-41016000D02*
X185739000Y-41016000D01*
X186839000Y-41016000D02*
X185739000Y-41016000D01*
X180439000Y-41016000D02*
X181839000Y-41016000D01*
X180439000Y-37216000D02*
X180439000Y-41016000D01*
X189639000Y-41016000D02*
X189639000Y-37216000D01*
X188239000Y-41016000D02*
X189639000Y-41016000D01*
G04 #@! TO.C,S3*
X233405069Y-26368858D02*
X233405069Y-26368858D01*
X234205069Y-26368858D02*
X233405069Y-26368858D01*
X234505069Y-26368858D02*
X234505069Y-26368858D01*
X235005069Y-26368858D02*
X234505069Y-26368858D01*
X233105069Y-26368858D02*
X233105069Y-26368858D01*
X232605069Y-26368858D02*
X233105069Y-26368858D01*
X231805069Y-27668858D02*
X231805069Y-27668858D01*
X231805069Y-27168858D02*
X231805069Y-27668858D01*
X235805069Y-27668858D02*
X235805069Y-27668858D01*
X235805069Y-27168858D02*
X235805069Y-27668858D01*
X235805069Y-26868858D02*
X235805069Y-26868858D01*
X235805069Y-26368858D02*
X235805069Y-26868858D01*
X235305069Y-26368858D02*
X235305069Y-26368858D01*
X235805069Y-26368858D02*
X235305069Y-26368858D01*
X232305069Y-26368858D02*
X232305069Y-26368858D01*
X231805069Y-26368858D02*
X232305069Y-26368858D01*
X231805069Y-26868858D02*
X231805069Y-26868858D01*
X231805069Y-26368858D02*
X231805069Y-26868858D01*
X229205069Y-28268858D02*
X229205069Y-28268858D01*
X230905069Y-28268858D02*
X229205069Y-28268858D01*
X230905069Y-27968858D02*
X230905069Y-28268858D01*
X231705069Y-27968858D02*
X230905069Y-27968858D01*
X231705069Y-28268858D02*
X231705069Y-27968858D01*
X233405069Y-28268858D02*
X231705069Y-28268858D01*
X233405069Y-27968858D02*
X233405069Y-28268858D01*
X234205069Y-27968858D02*
X233405069Y-27968858D01*
X234205069Y-28268858D02*
X234205069Y-27968858D01*
X235905069Y-28268858D02*
X234205069Y-28268858D01*
X235905069Y-27968858D02*
X235905069Y-28268858D01*
X236705069Y-27968858D02*
X235905069Y-27968858D01*
X236705069Y-28268858D02*
X236705069Y-27968858D01*
X238405069Y-28268858D02*
X236705069Y-28268858D01*
X232005069Y-32068858D02*
X232005069Y-32068858D01*
X233105069Y-32068858D02*
X232005069Y-32068858D01*
X234505069Y-32068858D02*
X234505069Y-32068858D01*
X235605069Y-32068858D02*
X234505069Y-32068858D01*
X229205069Y-32068858D02*
X230605069Y-32068858D01*
X229205069Y-28268858D02*
X229205069Y-32068858D01*
X238405069Y-32068858D02*
X238405069Y-28268858D01*
X237005069Y-32068858D02*
X238405069Y-32068858D01*
D11*
G04 #@! TO.C,J2*
X236410000Y-25429999D02*
X215710000Y-25430000D01*
X215710000Y-19210001D02*
X236410000Y-19210000D01*
X236410000Y-19210000D02*
X236410000Y-22616667D01*
X236410000Y-22023333D02*
X236410000Y-25429999D01*
X215660000Y-19210000D02*
X215660000Y-22616667D01*
X215660000Y-22020000D02*
X215660000Y-25426666D01*
G04 #@! TO.C,J3*
X185180000Y-22020000D02*
X185180000Y-25426666D01*
X185180000Y-19210000D02*
X185180000Y-22616667D01*
X205930000Y-22023333D02*
X205930000Y-25429999D01*
X205930000Y-19210000D02*
X205930000Y-22616667D01*
X185230000Y-19210001D02*
X205930000Y-19210000D01*
X205930000Y-25429999D02*
X185230000Y-25430000D01*
D12*
G04 #@! TO.C,Q1*
X214211000Y-38309000D02*
X214436000Y-38309000D01*
X214211000Y-38009000D02*
X214211000Y-38309000D01*
X215811000Y-38309000D02*
X215561000Y-38309000D01*
X215811000Y-38034000D02*
X215811000Y-38309000D01*
X214211000Y-35859000D02*
X214511000Y-35859000D01*
X214211000Y-36159000D02*
X214211000Y-35859000D01*
X215811000Y-36159000D02*
X216211000Y-36159000D01*
X215486000Y-35859000D02*
X215811000Y-36159000D01*
D10*
G04 #@! TO.C,C7*
X205077000Y-44126000D02*
X205077000Y-51061000D01*
X201657000Y-44126000D02*
X205077000Y-44126000D01*
X201657000Y-51061000D02*
X201657000Y-44126000D01*
G04 #@! TO.C,J6*
X166740000Y-26880000D02*
X166740000Y-91000000D01*
X166740000Y-91000000D02*
X165120000Y-91000000D01*
X165120000Y-91000000D02*
X165120000Y-26880000D01*
X165120000Y-26880000D02*
X166740000Y-26880000D01*
X165120000Y-27630000D02*
X160920000Y-27630000D01*
X160920000Y-27630000D02*
X160920000Y-28250000D01*
X160920000Y-28250000D02*
X165120000Y-28250000D01*
X165120000Y-27690000D02*
X160920000Y-27690000D01*
X165120000Y-27810000D02*
X160920000Y-27810000D01*
X165120000Y-27930000D02*
X160920000Y-27930000D01*
X165120000Y-28050000D02*
X160920000Y-28050000D01*
X165120000Y-28170000D02*
X160920000Y-28170000D01*
X167297886Y-27630000D02*
X166740000Y-27630000D01*
X167297886Y-28250000D02*
X166740000Y-28250000D01*
X169245000Y-27630000D02*
X169062114Y-27630000D01*
X169245000Y-28250000D02*
X169062114Y-28250000D01*
X166740000Y-28940000D02*
X165120000Y-28940000D01*
X165120000Y-29630000D02*
X160920000Y-29630000D01*
X160920000Y-29630000D02*
X160920000Y-30250000D01*
X160920000Y-30250000D02*
X165120000Y-30250000D01*
X167297886Y-29630000D02*
X166740000Y-29630000D01*
X167297886Y-30250000D02*
X166740000Y-30250000D01*
X169297886Y-29630000D02*
X169062114Y-29630000D01*
X169297886Y-30250000D02*
X169062114Y-30250000D01*
X166740000Y-30940000D02*
X165120000Y-30940000D01*
X165120000Y-31630000D02*
X160920000Y-31630000D01*
X160920000Y-31630000D02*
X160920000Y-32250000D01*
X160920000Y-32250000D02*
X165120000Y-32250000D01*
X167297886Y-31630000D02*
X166740000Y-31630000D01*
X167297886Y-32250000D02*
X166740000Y-32250000D01*
X169297886Y-31630000D02*
X169062114Y-31630000D01*
X169297886Y-32250000D02*
X169062114Y-32250000D01*
X166740000Y-32940000D02*
X165120000Y-32940000D01*
X165120000Y-33630000D02*
X160920000Y-33630000D01*
X160920000Y-33630000D02*
X160920000Y-34250000D01*
X160920000Y-34250000D02*
X165120000Y-34250000D01*
X167297886Y-33630000D02*
X166740000Y-33630000D01*
X167297886Y-34250000D02*
X166740000Y-34250000D01*
X169297886Y-33630000D02*
X169062114Y-33630000D01*
X169297886Y-34250000D02*
X169062114Y-34250000D01*
X166740000Y-34940000D02*
X165120000Y-34940000D01*
X165120000Y-35630000D02*
X160920000Y-35630000D01*
X160920000Y-35630000D02*
X160920000Y-36250000D01*
X160920000Y-36250000D02*
X165120000Y-36250000D01*
X167297886Y-35630000D02*
X166740000Y-35630000D01*
X167297886Y-36250000D02*
X166740000Y-36250000D01*
X169297886Y-35630000D02*
X169062114Y-35630000D01*
X169297886Y-36250000D02*
X169062114Y-36250000D01*
X166740000Y-36940000D02*
X165120000Y-36940000D01*
X165120000Y-37630000D02*
X160920000Y-37630000D01*
X160920000Y-37630000D02*
X160920000Y-38250000D01*
X160920000Y-38250000D02*
X165120000Y-38250000D01*
X167297886Y-37630000D02*
X166740000Y-37630000D01*
X167297886Y-38250000D02*
X166740000Y-38250000D01*
X169297886Y-37630000D02*
X169062114Y-37630000D01*
X169297886Y-38250000D02*
X169062114Y-38250000D01*
X166740000Y-38940000D02*
X165120000Y-38940000D01*
X165120000Y-39630000D02*
X160920000Y-39630000D01*
X160920000Y-39630000D02*
X160920000Y-40250000D01*
X160920000Y-40250000D02*
X165120000Y-40250000D01*
X167297886Y-39630000D02*
X166740000Y-39630000D01*
X167297886Y-40250000D02*
X166740000Y-40250000D01*
X169297886Y-39630000D02*
X169062114Y-39630000D01*
X169297886Y-40250000D02*
X169062114Y-40250000D01*
X166740000Y-40940000D02*
X165120000Y-40940000D01*
X165120000Y-41630000D02*
X160920000Y-41630000D01*
X160920000Y-41630000D02*
X160920000Y-42250000D01*
X160920000Y-42250000D02*
X165120000Y-42250000D01*
X167297886Y-41630000D02*
X166740000Y-41630000D01*
X167297886Y-42250000D02*
X166740000Y-42250000D01*
X169297886Y-41630000D02*
X169062114Y-41630000D01*
X169297886Y-42250000D02*
X169062114Y-42250000D01*
X166740000Y-42940000D02*
X165120000Y-42940000D01*
X165120000Y-43630000D02*
X160920000Y-43630000D01*
X160920000Y-43630000D02*
X160920000Y-44250000D01*
X160920000Y-44250000D02*
X165120000Y-44250000D01*
X167297886Y-43630000D02*
X166740000Y-43630000D01*
X167297886Y-44250000D02*
X166740000Y-44250000D01*
X169297886Y-43630000D02*
X169062114Y-43630000D01*
X169297886Y-44250000D02*
X169062114Y-44250000D01*
X166740000Y-44940000D02*
X165120000Y-44940000D01*
X165120000Y-45630000D02*
X160920000Y-45630000D01*
X160920000Y-45630000D02*
X160920000Y-46250000D01*
X160920000Y-46250000D02*
X165120000Y-46250000D01*
X167297886Y-45630000D02*
X166740000Y-45630000D01*
X167297886Y-46250000D02*
X166740000Y-46250000D01*
X169297886Y-45630000D02*
X169062114Y-45630000D01*
X169297886Y-46250000D02*
X169062114Y-46250000D01*
X166740000Y-46940000D02*
X165120000Y-46940000D01*
X165120000Y-47630000D02*
X160920000Y-47630000D01*
X160920000Y-47630000D02*
X160920000Y-48250000D01*
X160920000Y-48250000D02*
X165120000Y-48250000D01*
X167297886Y-47630000D02*
X166740000Y-47630000D01*
X167297886Y-48250000D02*
X166740000Y-48250000D01*
X169297886Y-47630000D02*
X169062114Y-47630000D01*
X169297886Y-48250000D02*
X169062114Y-48250000D01*
X166740000Y-48940000D02*
X165120000Y-48940000D01*
X165120000Y-49630000D02*
X160920000Y-49630000D01*
X160920000Y-49630000D02*
X160920000Y-50250000D01*
X160920000Y-50250000D02*
X165120000Y-50250000D01*
X167297886Y-49630000D02*
X166740000Y-49630000D01*
X167297886Y-50250000D02*
X166740000Y-50250000D01*
X169297886Y-49630000D02*
X169062114Y-49630000D01*
X169297886Y-50250000D02*
X169062114Y-50250000D01*
X166740000Y-50940000D02*
X165120000Y-50940000D01*
X165120000Y-51630000D02*
X160920000Y-51630000D01*
X160920000Y-51630000D02*
X160920000Y-52250000D01*
X160920000Y-52250000D02*
X165120000Y-52250000D01*
X167297886Y-51630000D02*
X166740000Y-51630000D01*
X167297886Y-52250000D02*
X166740000Y-52250000D01*
X169297886Y-51630000D02*
X169062114Y-51630000D01*
X169297886Y-52250000D02*
X169062114Y-52250000D01*
X166740000Y-52940000D02*
X165120000Y-52940000D01*
X165120000Y-53630000D02*
X160920000Y-53630000D01*
X160920000Y-53630000D02*
X160920000Y-54250000D01*
X160920000Y-54250000D02*
X165120000Y-54250000D01*
X167297886Y-53630000D02*
X166740000Y-53630000D01*
X167297886Y-54250000D02*
X166740000Y-54250000D01*
X169297886Y-53630000D02*
X169062114Y-53630000D01*
X169297886Y-54250000D02*
X169062114Y-54250000D01*
X166740000Y-54940000D02*
X165120000Y-54940000D01*
X165120000Y-55630000D02*
X160920000Y-55630000D01*
X160920000Y-55630000D02*
X160920000Y-56250000D01*
X160920000Y-56250000D02*
X165120000Y-56250000D01*
X167297886Y-55630000D02*
X166740000Y-55630000D01*
X167297886Y-56250000D02*
X166740000Y-56250000D01*
X169297886Y-55630000D02*
X169062114Y-55630000D01*
X169297886Y-56250000D02*
X169062114Y-56250000D01*
X166740000Y-56940000D02*
X165120000Y-56940000D01*
X165120000Y-57630000D02*
X160920000Y-57630000D01*
X160920000Y-57630000D02*
X160920000Y-58250000D01*
X160920000Y-58250000D02*
X165120000Y-58250000D01*
X167297886Y-57630000D02*
X166740000Y-57630000D01*
X167297886Y-58250000D02*
X166740000Y-58250000D01*
X169297886Y-57630000D02*
X169062114Y-57630000D01*
X169297886Y-58250000D02*
X169062114Y-58250000D01*
X166740000Y-58940000D02*
X165120000Y-58940000D01*
X165120000Y-59630000D02*
X160920000Y-59630000D01*
X160920000Y-59630000D02*
X160920000Y-60250000D01*
X160920000Y-60250000D02*
X165120000Y-60250000D01*
X167297886Y-59630000D02*
X166740000Y-59630000D01*
X167297886Y-60250000D02*
X166740000Y-60250000D01*
X169297886Y-59630000D02*
X169062114Y-59630000D01*
X169297886Y-60250000D02*
X169062114Y-60250000D01*
X166740000Y-60940000D02*
X165120000Y-60940000D01*
X165120000Y-61630000D02*
X160920000Y-61630000D01*
X160920000Y-61630000D02*
X160920000Y-62250000D01*
X160920000Y-62250000D02*
X165120000Y-62250000D01*
X167297886Y-61630000D02*
X166740000Y-61630000D01*
X167297886Y-62250000D02*
X166740000Y-62250000D01*
X169297886Y-61630000D02*
X169062114Y-61630000D01*
X169297886Y-62250000D02*
X169062114Y-62250000D01*
X166740000Y-62940000D02*
X165120000Y-62940000D01*
X165120000Y-63630000D02*
X160920000Y-63630000D01*
X160920000Y-63630000D02*
X160920000Y-64250000D01*
X160920000Y-64250000D02*
X165120000Y-64250000D01*
X167297886Y-63630000D02*
X166740000Y-63630000D01*
X167297886Y-64250000D02*
X166740000Y-64250000D01*
X169297886Y-63630000D02*
X169062114Y-63630000D01*
X169297886Y-64250000D02*
X169062114Y-64250000D01*
X166740000Y-64940000D02*
X165120000Y-64940000D01*
X165120000Y-65630000D02*
X160920000Y-65630000D01*
X160920000Y-65630000D02*
X160920000Y-66250000D01*
X160920000Y-66250000D02*
X165120000Y-66250000D01*
X167297886Y-65630000D02*
X166740000Y-65630000D01*
X167297886Y-66250000D02*
X166740000Y-66250000D01*
X169297886Y-65630000D02*
X169062114Y-65630000D01*
X169297886Y-66250000D02*
X169062114Y-66250000D01*
X166740000Y-66940000D02*
X165120000Y-66940000D01*
X165120000Y-67630000D02*
X160920000Y-67630000D01*
X160920000Y-67630000D02*
X160920000Y-68250000D01*
X160920000Y-68250000D02*
X165120000Y-68250000D01*
X167297886Y-67630000D02*
X166740000Y-67630000D01*
X167297886Y-68250000D02*
X166740000Y-68250000D01*
X169297886Y-67630000D02*
X169062114Y-67630000D01*
X169297886Y-68250000D02*
X169062114Y-68250000D01*
X166740000Y-68940000D02*
X165120000Y-68940000D01*
X165120000Y-69630000D02*
X160920000Y-69630000D01*
X160920000Y-69630000D02*
X160920000Y-70250000D01*
X160920000Y-70250000D02*
X165120000Y-70250000D01*
X167297886Y-69630000D02*
X166740000Y-69630000D01*
X167297886Y-70250000D02*
X166740000Y-70250000D01*
X169297886Y-69630000D02*
X169062114Y-69630000D01*
X169297886Y-70250000D02*
X169062114Y-70250000D01*
X166740000Y-70940000D02*
X165120000Y-70940000D01*
X165120000Y-71630000D02*
X160920000Y-71630000D01*
X160920000Y-71630000D02*
X160920000Y-72250000D01*
X160920000Y-72250000D02*
X165120000Y-72250000D01*
X167297886Y-71630000D02*
X166740000Y-71630000D01*
X167297886Y-72250000D02*
X166740000Y-72250000D01*
X169297886Y-71630000D02*
X169062114Y-71630000D01*
X169297886Y-72250000D02*
X169062114Y-72250000D01*
X166740000Y-72940000D02*
X165120000Y-72940000D01*
X165120000Y-73630000D02*
X160920000Y-73630000D01*
X160920000Y-73630000D02*
X160920000Y-74250000D01*
X160920000Y-74250000D02*
X165120000Y-74250000D01*
X167297886Y-73630000D02*
X166740000Y-73630000D01*
X167297886Y-74250000D02*
X166740000Y-74250000D01*
X169297886Y-73630000D02*
X169062114Y-73630000D01*
X169297886Y-74250000D02*
X169062114Y-74250000D01*
X166740000Y-74940000D02*
X165120000Y-74940000D01*
X165120000Y-75630000D02*
X160920000Y-75630000D01*
X160920000Y-75630000D02*
X160920000Y-76250000D01*
X160920000Y-76250000D02*
X165120000Y-76250000D01*
X167297886Y-75630000D02*
X166740000Y-75630000D01*
X167297886Y-76250000D02*
X166740000Y-76250000D01*
X169297886Y-75630000D02*
X169062114Y-75630000D01*
X169297886Y-76250000D02*
X169062114Y-76250000D01*
X166740000Y-76940000D02*
X165120000Y-76940000D01*
X165120000Y-77630000D02*
X160920000Y-77630000D01*
X160920000Y-77630000D02*
X160920000Y-78250000D01*
X160920000Y-78250000D02*
X165120000Y-78250000D01*
X167297886Y-77630000D02*
X166740000Y-77630000D01*
X167297886Y-78250000D02*
X166740000Y-78250000D01*
X169297886Y-77630000D02*
X169062114Y-77630000D01*
X169297886Y-78250000D02*
X169062114Y-78250000D01*
X166740000Y-78940000D02*
X165120000Y-78940000D01*
X165120000Y-79630000D02*
X160920000Y-79630000D01*
X160920000Y-79630000D02*
X160920000Y-80250000D01*
X160920000Y-80250000D02*
X165120000Y-80250000D01*
X167297886Y-79630000D02*
X166740000Y-79630000D01*
X167297886Y-80250000D02*
X166740000Y-80250000D01*
X169297886Y-79630000D02*
X169062114Y-79630000D01*
X169297886Y-80250000D02*
X169062114Y-80250000D01*
X166740000Y-80940000D02*
X165120000Y-80940000D01*
X165120000Y-81630000D02*
X160920000Y-81630000D01*
X160920000Y-81630000D02*
X160920000Y-82250000D01*
X160920000Y-82250000D02*
X165120000Y-82250000D01*
X167297886Y-81630000D02*
X166740000Y-81630000D01*
X167297886Y-82250000D02*
X166740000Y-82250000D01*
X169297886Y-81630000D02*
X169062114Y-81630000D01*
X169297886Y-82250000D02*
X169062114Y-82250000D01*
X166740000Y-82940000D02*
X165120000Y-82940000D01*
X165120000Y-83630000D02*
X160920000Y-83630000D01*
X160920000Y-83630000D02*
X160920000Y-84250000D01*
X160920000Y-84250000D02*
X165120000Y-84250000D01*
X167297886Y-83630000D02*
X166740000Y-83630000D01*
X167297886Y-84250000D02*
X166740000Y-84250000D01*
X169297886Y-83630000D02*
X169062114Y-83630000D01*
X169297886Y-84250000D02*
X169062114Y-84250000D01*
X166740000Y-84940000D02*
X165120000Y-84940000D01*
X165120000Y-85630000D02*
X160920000Y-85630000D01*
X160920000Y-85630000D02*
X160920000Y-86250000D01*
X160920000Y-86250000D02*
X165120000Y-86250000D01*
X167297886Y-85630000D02*
X166740000Y-85630000D01*
X167297886Y-86250000D02*
X166740000Y-86250000D01*
X169297886Y-85630000D02*
X169062114Y-85630000D01*
X169297886Y-86250000D02*
X169062114Y-86250000D01*
X166740000Y-86940000D02*
X165120000Y-86940000D01*
X165120000Y-87630000D02*
X160920000Y-87630000D01*
X160920000Y-87630000D02*
X160920000Y-88250000D01*
X160920000Y-88250000D02*
X165120000Y-88250000D01*
X167297886Y-87630000D02*
X166740000Y-87630000D01*
X167297886Y-88250000D02*
X166740000Y-88250000D01*
X169297886Y-87630000D02*
X169062114Y-87630000D01*
X169297886Y-88250000D02*
X169062114Y-88250000D01*
X166740000Y-88940000D02*
X165120000Y-88940000D01*
X165120000Y-89630000D02*
X160920000Y-89630000D01*
X160920000Y-89630000D02*
X160920000Y-90250000D01*
X160920000Y-90250000D02*
X165120000Y-90250000D01*
X167297886Y-89630000D02*
X166740000Y-89630000D01*
X167297886Y-90250000D02*
X166740000Y-90250000D01*
X169297886Y-89630000D02*
X169062114Y-89630000D01*
X169297886Y-90250000D02*
X169062114Y-90250000D01*
X171180000Y-27940000D02*
X171180000Y-26940000D01*
X171180000Y-26940000D02*
X170180000Y-26940000D01*
G04 #@! TO.C,J1*
D11*
X247693333Y-25405080D02*
X247693333Y-26119366D01*
X247740952Y-26262223D01*
X247836190Y-26357461D01*
X247979047Y-26405080D01*
X248074285Y-26405080D01*
X246693333Y-26405080D02*
X247264761Y-26405080D01*
X246979047Y-26405080D02*
X246979047Y-25405080D01*
X247074285Y-25547938D01*
X247169523Y-25643176D01*
X247264761Y-25690795D01*
G04 #@! TO.C,C6*
D13*
X230857333Y-56535000D02*
X230874000Y-56551666D01*
X230924000Y-56568333D01*
X230957333Y-56568333D01*
X231007333Y-56551666D01*
X231040666Y-56518333D01*
X231057333Y-56485000D01*
X231074000Y-56418333D01*
X231074000Y-56368333D01*
X231057333Y-56301666D01*
X231040666Y-56268333D01*
X231007333Y-56235000D01*
X230957333Y-56218333D01*
X230924000Y-56218333D01*
X230874000Y-56235000D01*
X230857333Y-56251666D01*
X230557333Y-56218333D02*
X230624000Y-56218333D01*
X230657333Y-56235000D01*
X230674000Y-56251666D01*
X230707333Y-56301666D01*
X230724000Y-56368333D01*
X230724000Y-56501666D01*
X230707333Y-56535000D01*
X230690666Y-56551666D01*
X230657333Y-56568333D01*
X230590666Y-56568333D01*
X230557333Y-56551666D01*
X230540666Y-56535000D01*
X230524000Y-56501666D01*
X230524000Y-56418333D01*
X230540666Y-56385000D01*
X230557333Y-56368333D01*
X230590666Y-56351666D01*
X230657333Y-56351666D01*
X230690666Y-56368333D01*
X230707333Y-56385000D01*
X230724000Y-56418333D01*
G04 #@! TO.C,U11*
X228198333Y-32586666D02*
X228481666Y-32586666D01*
X228515000Y-32603333D01*
X228531666Y-32620000D01*
X228548333Y-32653333D01*
X228548333Y-32720000D01*
X228531666Y-32753333D01*
X228515000Y-32770000D01*
X228481666Y-32786666D01*
X228198333Y-32786666D01*
X228548333Y-33136666D02*
X228548333Y-32936666D01*
X228548333Y-33036666D02*
X228198333Y-33036666D01*
X228248333Y-33003333D01*
X228281666Y-32970000D01*
X228298333Y-32936666D01*
X228548333Y-33470000D02*
X228548333Y-33270000D01*
X228548333Y-33370000D02*
X228198333Y-33370000D01*
X228248333Y-33336666D01*
X228281666Y-33303333D01*
X228298333Y-33270000D01*
G04 #@! TO.C,U10*
X198988333Y-32586666D02*
X199271666Y-32586666D01*
X199305000Y-32603333D01*
X199321666Y-32620000D01*
X199338333Y-32653333D01*
X199338333Y-32720000D01*
X199321666Y-32753333D01*
X199305000Y-32770000D01*
X199271666Y-32786666D01*
X198988333Y-32786666D01*
X199338333Y-33136666D02*
X199338333Y-32936666D01*
X199338333Y-33036666D02*
X198988333Y-33036666D01*
X199038333Y-33003333D01*
X199071666Y-32970000D01*
X199088333Y-32936666D01*
X198988333Y-33353333D02*
X198988333Y-33386666D01*
X199005000Y-33420000D01*
X199021666Y-33436666D01*
X199055000Y-33453333D01*
X199121666Y-33470000D01*
X199205000Y-33470000D01*
X199271666Y-33453333D01*
X199305000Y-33436666D01*
X199321666Y-33420000D01*
X199338333Y-33386666D01*
X199338333Y-33353333D01*
X199321666Y-33320000D01*
X199305000Y-33303333D01*
X199271666Y-33286666D01*
X199205000Y-33270000D01*
X199121666Y-33270000D01*
X199055000Y-33286666D01*
X199021666Y-33303333D01*
X199005000Y-33320000D01*
X198988333Y-33353333D01*
G04 #@! TO.C,R5*
X211740333Y-37660666D02*
X211573666Y-37544000D01*
X211740333Y-37460666D02*
X211390333Y-37460666D01*
X211390333Y-37594000D01*
X211407000Y-37627333D01*
X211423666Y-37644000D01*
X211457000Y-37660666D01*
X211507000Y-37660666D01*
X211540333Y-37644000D01*
X211557000Y-37627333D01*
X211573666Y-37594000D01*
X211573666Y-37460666D01*
X211390333Y-37977333D02*
X211390333Y-37810666D01*
X211557000Y-37794000D01*
X211540333Y-37810666D01*
X211523666Y-37844000D01*
X211523666Y-37927333D01*
X211540333Y-37960666D01*
X211557000Y-37977333D01*
X211590333Y-37994000D01*
X211673666Y-37994000D01*
X211707000Y-37977333D01*
X211723666Y-37960666D01*
X211740333Y-37927333D01*
X211740333Y-37844000D01*
X211723666Y-37810666D01*
X211707000Y-37794000D01*
G04 #@! TO.C,R6*
X218246512Y-35189684D02*
X218079845Y-35073018D01*
X218246512Y-34989684D02*
X217896512Y-34989684D01*
X217896512Y-35123018D01*
X217913179Y-35156351D01*
X217929845Y-35173018D01*
X217963179Y-35189684D01*
X218013179Y-35189684D01*
X218046512Y-35173018D01*
X218063179Y-35156351D01*
X218079845Y-35123018D01*
X218079845Y-34989684D01*
X217896512Y-35489684D02*
X217896512Y-35423018D01*
X217913179Y-35389684D01*
X217929845Y-35373018D01*
X217979845Y-35339684D01*
X218046512Y-35323018D01*
X218179845Y-35323018D01*
X218213179Y-35339684D01*
X218229845Y-35356351D01*
X218246512Y-35389684D01*
X218246512Y-35456351D01*
X218229845Y-35489684D01*
X218213179Y-35506351D01*
X218179845Y-35523018D01*
X218096512Y-35523018D01*
X218063179Y-35506351D01*
X218046512Y-35489684D01*
X218029845Y-35456351D01*
X218029845Y-35389684D01*
X218046512Y-35356351D01*
X218063179Y-35339684D01*
X218096512Y-35323018D01*
G04 #@! TO.C,S2*
X234071735Y-44000524D02*
X234021735Y-44017191D01*
X233938402Y-44017191D01*
X233905069Y-44000524D01*
X233888402Y-43983858D01*
X233871735Y-43950524D01*
X233871735Y-43917191D01*
X233888402Y-43883858D01*
X233905069Y-43867191D01*
X233938402Y-43850524D01*
X234005069Y-43833858D01*
X234038402Y-43817191D01*
X234055069Y-43800524D01*
X234071735Y-43767191D01*
X234071735Y-43733858D01*
X234055069Y-43700524D01*
X234038402Y-43683858D01*
X234005069Y-43667191D01*
X233921735Y-43667191D01*
X233871735Y-43683858D01*
X233738402Y-43700524D02*
X233721735Y-43683858D01*
X233688402Y-43667191D01*
X233605069Y-43667191D01*
X233571735Y-43683858D01*
X233555069Y-43700524D01*
X233538402Y-43733858D01*
X233538402Y-43767191D01*
X233555069Y-43817191D01*
X233755069Y-44017191D01*
X233538402Y-44017191D01*
G04 #@! TO.C,S4*
X185178666Y-30177166D02*
X185128666Y-30193833D01*
X185045333Y-30193833D01*
X185012000Y-30177166D01*
X184995333Y-30160500D01*
X184978666Y-30127166D01*
X184978666Y-30093833D01*
X184995333Y-30060500D01*
X185012000Y-30043833D01*
X185045333Y-30027166D01*
X185112000Y-30010500D01*
X185145333Y-29993833D01*
X185162000Y-29977166D01*
X185178666Y-29943833D01*
X185178666Y-29910500D01*
X185162000Y-29877166D01*
X185145333Y-29860500D01*
X185112000Y-29843833D01*
X185028666Y-29843833D01*
X184978666Y-29860500D01*
X184678666Y-29960500D02*
X184678666Y-30193833D01*
X184762000Y-29827166D02*
X184845333Y-30077166D01*
X184628666Y-30077166D01*
G04 #@! TO.C,S1*
X185267566Y-39194166D02*
X185217566Y-39210833D01*
X185134233Y-39210833D01*
X185100900Y-39194166D01*
X185084233Y-39177500D01*
X185067566Y-39144166D01*
X185067566Y-39110833D01*
X185084233Y-39077500D01*
X185100900Y-39060833D01*
X185134233Y-39044166D01*
X185200900Y-39027500D01*
X185234233Y-39010833D01*
X185250900Y-38994166D01*
X185267566Y-38960833D01*
X185267566Y-38927500D01*
X185250900Y-38894166D01*
X185234233Y-38877500D01*
X185200900Y-38860833D01*
X185117566Y-38860833D01*
X185067566Y-38877500D01*
X184734233Y-39210833D02*
X184934233Y-39210833D01*
X184834233Y-39210833D02*
X184834233Y-38860833D01*
X184867566Y-38910833D01*
X184900900Y-38944166D01*
X184934233Y-38960833D01*
G04 #@! TO.C,S3*
X234071735Y-35110524D02*
X234021735Y-35127191D01*
X233938402Y-35127191D01*
X233905069Y-35110524D01*
X233888402Y-35093858D01*
X233871735Y-35060524D01*
X233871735Y-35027191D01*
X233888402Y-34993858D01*
X233905069Y-34977191D01*
X233938402Y-34960524D01*
X234005069Y-34943858D01*
X234038402Y-34927191D01*
X234055069Y-34910524D01*
X234071735Y-34877191D01*
X234071735Y-34843858D01*
X234055069Y-34810524D01*
X234038402Y-34793858D01*
X234005069Y-34777191D01*
X233921735Y-34777191D01*
X233871735Y-34793858D01*
X233755069Y-34777191D02*
X233538402Y-34777191D01*
X233655069Y-34910524D01*
X233605069Y-34910524D01*
X233571735Y-34927191D01*
X233555069Y-34943858D01*
X233538402Y-34977191D01*
X233538402Y-35060524D01*
X233555069Y-35093858D01*
X233571735Y-35110524D01*
X233605069Y-35127191D01*
X233705069Y-35127191D01*
X233738402Y-35110524D01*
X233755069Y-35093858D01*
G04 #@! TO.C,J2*
X237218333Y-20203333D02*
X237468333Y-20203333D01*
X237518333Y-20186666D01*
X237551666Y-20153333D01*
X237568333Y-20103333D01*
X237568333Y-20070000D01*
X237251666Y-20353333D02*
X237235000Y-20370000D01*
X237218333Y-20403333D01*
X237218333Y-20486666D01*
X237235000Y-20520000D01*
X237251666Y-20536666D01*
X237285000Y-20553333D01*
X237318333Y-20553333D01*
X237368333Y-20536666D01*
X237568333Y-20336666D01*
X237568333Y-20553333D01*
G04 #@! TO.C,J3*
X206738333Y-20203333D02*
X206988333Y-20203333D01*
X207038333Y-20186666D01*
X207071666Y-20153333D01*
X207088333Y-20103333D01*
X207088333Y-20070000D01*
X206738333Y-20336666D02*
X206738333Y-20553333D01*
X206871666Y-20436666D01*
X206871666Y-20486666D01*
X206888333Y-20520000D01*
X206905000Y-20536666D01*
X206938333Y-20553333D01*
X207021666Y-20553333D01*
X207055000Y-20536666D01*
X207071666Y-20520000D01*
X207088333Y-20486666D01*
X207088333Y-20386666D01*
X207071666Y-20353333D01*
X207055000Y-20336666D01*
G04 #@! TO.C,Q1*
X214663333Y-35116666D02*
X214696666Y-35100000D01*
X214730000Y-35066666D01*
X214780000Y-35016666D01*
X214813333Y-35000000D01*
X214846666Y-35000000D01*
X214830000Y-35083333D02*
X214863333Y-35066666D01*
X214896666Y-35033333D01*
X214913333Y-34966666D01*
X214913333Y-34850000D01*
X214896666Y-34783333D01*
X214863333Y-34750000D01*
X214830000Y-34733333D01*
X214763333Y-34733333D01*
X214730000Y-34750000D01*
X214696666Y-34783333D01*
X214680000Y-34850000D01*
X214680000Y-34966666D01*
X214696666Y-35033333D01*
X214730000Y-35066666D01*
X214763333Y-35083333D01*
X214830000Y-35083333D01*
X214346666Y-35083333D02*
X214546666Y-35083333D01*
X214446666Y-35083333D02*
X214446666Y-34733333D01*
X214480000Y-34783333D01*
X214513333Y-34816666D01*
X214546666Y-34833333D01*
G04 #@! TO.C,C7*
X200942000Y-48002666D02*
X200958666Y-47986000D01*
X200975333Y-47936000D01*
X200975333Y-47902666D01*
X200958666Y-47852666D01*
X200925333Y-47819333D01*
X200892000Y-47802666D01*
X200825333Y-47786000D01*
X200775333Y-47786000D01*
X200708666Y-47802666D01*
X200675333Y-47819333D01*
X200642000Y-47852666D01*
X200625333Y-47902666D01*
X200625333Y-47936000D01*
X200642000Y-47986000D01*
X200658666Y-48002666D01*
X200625333Y-48119333D02*
X200625333Y-48352666D01*
X200975333Y-48202666D01*
G04 #@! TO.C,J6*
X166196666Y-25748333D02*
X166196666Y-25998333D01*
X166213333Y-26048333D01*
X166246666Y-26081666D01*
X166296666Y-26098333D01*
X166330000Y-26098333D01*
X165880000Y-25748333D02*
X165946666Y-25748333D01*
X165980000Y-25765000D01*
X165996666Y-25781666D01*
X166030000Y-25831666D01*
X166046666Y-25898333D01*
X166046666Y-26031666D01*
X166030000Y-26065000D01*
X166013333Y-26081666D01*
X165980000Y-26098333D01*
X165913333Y-26098333D01*
X165880000Y-26081666D01*
X165863333Y-26065000D01*
X165846666Y-26031666D01*
X165846666Y-25948333D01*
X165863333Y-25915000D01*
X165880000Y-25898333D01*
X165913333Y-25881666D01*
X165980000Y-25881666D01*
X166013333Y-25898333D01*
X166030000Y-25915000D01*
X166046666Y-25948333D01*
G04 #@! TD*
M02*
