  0
SECTION
  2
HEADER
  9
$ANGBASE
  50
0.0
  9
$ANGDIR
  70
  1
  9
$MEASUREMENT
  70
0
  0
ENDSEC
  0
SECTION
  2
TABLES
  0
TABLE
  2
LTYPE
  70
4
  0
LTYPE
  5
40F
  2
CONTINUOUS
  70
0
  3
Solid line
  72
65
  73
0
  40
0.0
  0
LTYPE
  5
410
  2
DASHDOT
 70
0
  3
Dash Dot ____ _ ____ _
 72
65
 73
4
 40
2.0
 49
1.25
 49
-0.25
 49
0.25
 49
-0.25
  0
LTYPE
  5
411
  2
DASHED
 70
0
  3
Dashed __ __ __ __ __
 72
65
 73
2
 40
0.75
 49
0.5
 49
-0.25
  0
LTYPE
  5
43B
  2
DOTTED
 70
0
  3
Dotted .  .  .  .
 72
65
 73
2
 40
0.2
 49
0.0
 49
-0.2
  0
ENDTAB
  0
TABLE
  2
STYLE
  70
4
  0
STYLE
  2
KICAD
  70
0
  40
0
  41
1
  42
1
  50
0
  71
0
  3
isocp.shx
  0
STYLE
  2
KICADB
  70
0
  40
0
  41
1
  42
1
  50
0
  71
0
  3
isocp.shx
  0
STYLE
  2
KICADI
  70
0
  40
0
  41
1
  42
1
  50
15
  71
0
  3
isocp.shx
  0
STYLE
  2
KICADBI
  70
0
  40
0
  41
1
  42
1
  50
15
  71
0
  3
isocp.shx
  0
ENDTAB
  0
TABLE
  2
LAYER
  70
30
  0
LAYER
  2
BLACK
  70
0
  62
7
  6
CONTINUOUS
  0
LAYER
  2
GRAY1
  70
0
  62
251
  6
CONTINUOUS
  0
LAYER
  2
GRAY2
  70
0
  62
8
  6
CONTINUOUS
  0
LAYER
  2
GRAY3
  70
0
  62
9
  6
CONTINUOUS
  0
LAYER
  2
WHITE
  70
0
  62
7
  6
CONTINUOUS
  0
LAYER
  2
LYELLOW
  70
0
  62
51
  6
CONTINUOUS
  0
LAYER
  2
BLUE1
  70
0
  62
178
  6
CONTINUOUS
  0
LAYER
  2
GREEN1
  70
0
  62
98
  6
CONTINUOUS
  0
LAYER
  2
CYAN1
  70
0
  62
138
  6
CONTINUOUS
  0
LAYER
  2
RED1
  70
0
  62
18
  6
CONTINUOUS
  0
LAYER
  2
MAGENTA1
  70
0
  62
228
  6
CONTINUOUS
  0
LAYER
  2
BROWN1
  70
0
  62
58
  6
CONTINUOUS
  0
LAYER
  2
BLUE2
  70
0
  62
5
  6
CONTINUOUS
  0
LAYER
  2
GREEN2
  70
0
  62
3
  6
CONTINUOUS
  0
LAYER
  2
CYAN2
  70
0
  62
4
  6
CONTINUOUS
  0
LAYER
  2
RED2
  70
0
  62
1
  6
CONTINUOUS
  0
LAYER
  2
MAGENTA2
  70
0
  62
6
  6
CONTINUOUS
  0
LAYER
  2
BROWN2
  70
0
  62
54
  6
CONTINUOUS
  0
LAYER
  2
BLUE3
  70
0
  62
171
  6
CONTINUOUS
  0
LAYER
  2
GREEN3
  70
0
  62
91
  6
CONTINUOUS
  0
LAYER
  2
CYAN3
  70
0
  62
131
  6
CONTINUOUS
  0
LAYER
  2
RED3
  70
0
  62
11
  6
CONTINUOUS
  0
LAYER
  2
MAGENTA3
  70
0
  62
221
  6
CONTINUOUS
  0
LAYER
  2
YELLOW3
  70
0
  62
2
  6
CONTINUOUS
  0
LAYER
  2
BLUE4
  70
0
  62
5
  6
CONTINUOUS
  0
LAYER
  2
GREEN4
  70
0
  62
3
  6
CONTINUOUS
  0
LAYER
  2
CYAN4
  70
0
  62
4
  6
CONTINUOUS
  0
LAYER
  2
RED4
  70
0
  62
1
  6
CONTINUOUS
  0
LAYER
  2
MAGENTA4
  70
0
  62
6
  6
CONTINUOUS
  0
LAYER
  2
YELLOW4
  70
0
  62
2
  6
CONTINUOUS
  0
ENDTAB
  0
ENDSEC
  0
SECTION
  2
ENTITIES
0
LINE
8
BLACK
6
CONTINUOUS
10
116.137
20
-63.923
11
112.235
21
-63.923
0
LINE
8
BLACK
6
CONTINUOUS
10
112.235
20
-63.923
11
112.235
21
-62.821
0
LINE
8
BLACK
6
CONTINUOUS
10
112.235
20
-62.821
11
116.137
21
-62.821
0
LINE
8
BLACK
6
CONTINUOUS
10
116.137
20
-62.821
11
116.137
21
-63.923
0
LINE
8
BLACK
6
CONTINUOUS
10
108.487
20
-62.696
11
108.489
21
-62.7204
0
LINE
8
BLACK
6
CONTINUOUS
10
108.489
20
-62.7204
11
108.496
21
-62.7438
0
LINE
8
BLACK
6
CONTINUOUS
10
108.496
20
-62.7438
11
108.508
21
-62.7654
0
LINE
8
BLACK
6
CONTINUOUS
10
108.508
20
-62.7654
11
108.523
21
-62.7844
0
LINE
8
BLACK
6
CONTINUOUS
10
108.523
20
-62.7844
11
108.542
21
-62.7999
0
LINE
8
BLACK
6
CONTINUOUS
10
108.542
20
-62.7999
11
108.564
21
-62.8115
0
LINE
8
BLACK
6
CONTINUOUS
10
108.564
20
-62.8115
11
108.587
21
-62.8186
0
LINE
8
BLACK
6
CONTINUOUS
10
108.587
20
-62.8186
11
108.612
21
-62.821
0
LINE
8
BLACK
6
CONTINUOUS
10
108.612
20
-62.821
11
110.137
21
-62.821
0
LINE
8
BLACK
6
CONTINUOUS
10
110.137
20
-62.821
11
110.137
21
-63.923
0
LINE
8
BLACK
6
CONTINUOUS
10
110.137
20
-63.923
11
107.385
21
-63.923
0
LINE
8
BLACK
6
CONTINUOUS
10
107.385
20
-63.923
11
107.385
21
-60.691
0
LINE
8
BLACK
6
CONTINUOUS
10
107.385
20
-60.691
11
108.487
21
-60.691
0
LINE
8
BLACK
6
CONTINUOUS
10
108.487
20
-60.691
11
108.487
21
-62.696
0
LINE
8
BLACK
6
CONTINUOUS
10
120.987
20
-63.923
11
118.235
21
-63.923
0
LINE
8
BLACK
6
CONTINUOUS
10
118.235
20
-63.923
11
118.235
21
-62.821
0
LINE
8
BLACK
6
CONTINUOUS
10
118.235
20
-62.821
11
119.76
21
-62.821
0
LINE
8
BLACK
6
CONTINUOUS
10
119.76
20
-62.821
11
119.784
21
-62.8186
0
LINE
8
BLACK
6
CONTINUOUS
10
119.784
20
-62.8186
11
119.808
21
-62.8115
0
LINE
8
BLACK
6
CONTINUOUS
10
119.808
20
-62.8115
11
119.829
21
-62.7999
0
LINE
8
BLACK
6
CONTINUOUS
10
119.829
20
-62.7999
11
119.848
21
-62.7844
0
LINE
8
BLACK
6
CONTINUOUS
10
119.848
20
-62.7844
11
119.864
21
-62.7654
0
LINE
8
BLACK
6
CONTINUOUS
10
119.864
20
-62.7654
11
119.875
21
-62.7438
0
LINE
8
BLACK
6
CONTINUOUS
10
119.875
20
-62.7438
11
119.882
21
-62.7204
0
LINE
8
BLACK
6
CONTINUOUS
10
119.882
20
-62.7204
11
119.885
21
-62.696
0
LINE
8
BLACK
6
CONTINUOUS
10
119.885
20
-62.696
11
119.885
21
-60.691
0
LINE
8
BLACK
6
CONTINUOUS
10
119.885
20
-60.691
11
120.987
21
-60.691
0
LINE
8
BLACK
6
CONTINUOUS
10
120.987
20
-60.691
11
120.987
21
-63.923
0
LINE
8
BLACK
6
CONTINUOUS
10
120.987
20
-58.593
11
119.885
21
-58.593
0
LINE
8
BLACK
6
CONTINUOUS
10
119.885
20
-58.593
11
119.885
21
-54.691
0
LINE
8
BLACK
6
CONTINUOUS
10
119.885
20
-54.691
11
120.987
21
-54.691
0
LINE
8
BLACK
6
CONTINUOUS
10
120.987
20
-54.691
11
120.987
21
-58.593
0
LINE
8
BLACK
6
CONTINUOUS
10
108.487
20
-58.593
11
107.385
21
-58.593
0
LINE
8
BLACK
6
CONTINUOUS
10
107.385
20
-58.593
11
107.385
21
-54.691
0
LINE
8
BLACK
6
CONTINUOUS
10
107.385
20
-54.691
11
108.487
21
-54.691
0
LINE
8
BLACK
6
CONTINUOUS
10
108.487
20
-54.691
11
108.487
21
-58.593
0
LINE
8
BLACK
6
CONTINUOUS
10
120.987
20
-52.593
11
119.885
21
-52.593
0
LINE
8
BLACK
6
CONTINUOUS
10
119.885
20
-52.593
11
119.885
21
-50.588
0
LINE
8
BLACK
6
CONTINUOUS
10
119.885
20
-50.588
11
119.882
21
-50.5636
0
LINE
8
BLACK
6
CONTINUOUS
10
119.882
20
-50.5636
11
119.875
21
-50.5402
0
LINE
8
BLACK
6
CONTINUOUS
10
119.875
20
-50.5402
11
119.864
21
-50.5186
0
LINE
8
BLACK
6
CONTINUOUS
10
119.864
20
-50.5186
11
119.848
21
-50.4996
0
LINE
8
BLACK
6
CONTINUOUS
10
119.848
20
-50.4996
11
119.829
21
-50.4841
0
LINE
8
BLACK
6
CONTINUOUS
10
119.829
20
-50.4841
11
119.808
21
-50.4725
0
LINE
8
BLACK
6
CONTINUOUS
10
119.808
20
-50.4725
11
119.784
21
-50.4654
0
LINE
8
BLACK
6
CONTINUOUS
10
119.784
20
-50.4654
11
119.76
21
-50.463
0
LINE
8
BLACK
6
CONTINUOUS
10
119.76
20
-50.463
11
118.235
21
-50.463
0
LINE
8
BLACK
6
CONTINUOUS
10
118.235
20
-50.463
11
118.235
21
-49.361
0
LINE
8
BLACK
6
CONTINUOUS
10
118.235
20
-49.361
11
120.987
21
-49.361
0
LINE
8
BLACK
6
CONTINUOUS
10
120.987
20
-49.361
11
120.987
21
-52.593
0
LINE
8
BLACK
6
CONTINUOUS
10
110.137
20
-50.463
11
108.612
21
-50.463
0
LINE
8
BLACK
6
CONTINUOUS
10
108.612
20
-50.463
11
108.587
21
-50.4654
0
LINE
8
BLACK
6
CONTINUOUS
10
108.587
20
-50.4654
11
108.564
21
-50.4725
0
LINE
8
BLACK
6
CONTINUOUS
10
108.564
20
-50.4725
11
108.542
21
-50.4841
0
LINE
8
BLACK
6
CONTINUOUS
10
108.542
20
-50.4841
11
108.523
21
-50.4996
0
LINE
8
BLACK
6
CONTINUOUS
10
108.523
20
-50.4996
11
108.508
21
-50.5186
0
LINE
8
BLACK
6
CONTINUOUS
10
108.508
20
-50.5186
11
108.496
21
-50.5402
0
LINE
8
BLACK
6
CONTINUOUS
10
108.496
20
-50.5402
11
108.489
21
-50.5636
0
LINE
8
BLACK
6
CONTINUOUS
10
108.489
20
-50.5636
11
108.487
21
-50.588
0
LINE
8
BLACK
6
CONTINUOUS
10
108.487
20
-50.588
11
108.487
21
-52.593
0
LINE
8
BLACK
6
CONTINUOUS
10
108.487
20
-52.593
11
107.385
21
-52.593
0
LINE
8
BLACK
6
CONTINUOUS
10
107.385
20
-52.593
11
107.385
21
-49.361
0
LINE
8
BLACK
6
CONTINUOUS
10
107.385
20
-49.361
11
110.137
21
-49.361
0
LINE
8
BLACK
6
CONTINUOUS
10
110.137
20
-49.361
11
110.137
21
-50.463
0
LINE
8
BLACK
6
CONTINUOUS
10
116.137
20
-50.463
11
112.235
21
-50.463
0
LINE
8
BLACK
6
CONTINUOUS
10
112.235
20
-50.463
11
112.235
21
-49.361
0
LINE
8
BLACK
6
CONTINUOUS
10
112.235
20
-49.361
11
116.137
21
-49.361
0
LINE
8
BLACK
6
CONTINUOUS
10
116.137
20
-49.361
11
116.137
21
-50.463
  0
ENDSEC
  0
EOF
