  0
SECTION
  2
HEADER
  9
$ANGBASE
  50
0.0
  9
$ANGDIR
  70
  1
  9
$MEASUREMENT
  70
0
  0
ENDSEC
  0
SECTION
  2
TABLES
  0
TABLE
  2
LTYPE
  70
4
  0
LTYPE
  5
40F
  2
CONTINUOUS
  70
0
  3
Solid line
  72
65
  73
0
  40
0.0
  0
LTYPE
  5
410
  2
DASHDOT
 70
0
  3
Dash Dot ____ _ ____ _
 72
65
 73
4
 40
2.0
 49
1.25
 49
-0.25
 49
0.25
 49
-0.25
  0
LTYPE
  5
411
  2
DASHED
 70
0
  3
Dashed __ __ __ __ __
 72
65
 73
2
 40
0.75
 49
0.5
 49
-0.25
  0
LTYPE
  5
43B
  2
DOTTED
 70
0
  3
Dotted .  .  .  .
 72
65
 73
2
 40
0.2
 49
0.0
 49
-0.2
  0
ENDTAB
  0
TABLE
  2
STYLE
  70
4
  0
STYLE
  2
KICAD
  70
0
  40
0
  41
1
  42
1
  50
0
  71
0
  3
isocp.shx
  0
STYLE
  2
KICADB
  70
0
  40
0
  41
1
  42
1
  50
0
  71
0
  3
isocp.shx
  0
STYLE
  2
KICADI
  70
0
  40
0
  41
1
  42
1
  50
15
  71
0
  3
isocp.shx
  0
STYLE
  2
KICADBI
  70
0
  40
0
  41
1
  42
1
  50
15
  71
0
  3
isocp.shx
  0
ENDTAB
  0
TABLE
  2
LAYER
  70
30
  0
LAYER
  2
BLACK
  70
0
  62
7
  6
CONTINUOUS
  0
LAYER
  2
GRAY1
  70
0
  62
251
  6
CONTINUOUS
  0
LAYER
  2
GRAY2
  70
0
  62
8
  6
CONTINUOUS
  0
LAYER
  2
GRAY3
  70
0
  62
9
  6
CONTINUOUS
  0
LAYER
  2
WHITE
  70
0
  62
7
  6
CONTINUOUS
  0
LAYER
  2
LYELLOW
  70
0
  62
51
  6
CONTINUOUS
  0
LAYER
  2
BLUE1
  70
0
  62
178
  6
CONTINUOUS
  0
LAYER
  2
GREEN1
  70
0
  62
98
  6
CONTINUOUS
  0
LAYER
  2
CYAN1
  70
0
  62
138
  6
CONTINUOUS
  0
LAYER
  2
RED1
  70
0
  62
18
  6
CONTINUOUS
  0
LAYER
  2
MAGENTA1
  70
0
  62
228
  6
CONTINUOUS
  0
LAYER
  2
BROWN1
  70
0
  62
58
  6
CONTINUOUS
  0
LAYER
  2
BLUE2
  70
0
  62
5
  6
CONTINUOUS
  0
LAYER
  2
GREEN2
  70
0
  62
3
  6
CONTINUOUS
  0
LAYER
  2
CYAN2
  70
0
  62
4
  6
CONTINUOUS
  0
LAYER
  2
RED2
  70
0
  62
1
  6
CONTINUOUS
  0
LAYER
  2
MAGENTA2
  70
0
  62
6
  6
CONTINUOUS
  0
LAYER
  2
BROWN2
  70
0
  62
54
  6
CONTINUOUS
  0
LAYER
  2
BLUE3
  70
0
  62
171
  6
CONTINUOUS
  0
LAYER
  2
GREEN3
  70
0
  62
91
  6
CONTINUOUS
  0
LAYER
  2
CYAN3
  70
0
  62
131
  6
CONTINUOUS
  0
LAYER
  2
RED3
  70
0
  62
11
  6
CONTINUOUS
  0
LAYER
  2
MAGENTA3
  70
0
  62
221
  6
CONTINUOUS
  0
LAYER
  2
YELLOW3
  70
0
  62
2
  6
CONTINUOUS
  0
LAYER
  2
BLUE4
  70
0
  62
5
  6
CONTINUOUS
  0
LAYER
  2
GREEN4
  70
0
  62
3
  6
CONTINUOUS
  0
LAYER
  2
CYAN4
  70
0
  62
4
  6
CONTINUOUS
  0
LAYER
  2
RED4
  70
0
  62
1
  6
CONTINUOUS
  0
LAYER
  2
MAGENTA4
  70
0
  62
6
  6
CONTINUOUS
  0
LAYER
  2
YELLOW4
  70
0
  62
2
  6
CONTINUOUS
  0
ENDTAB
  0
ENDSEC
  0
SECTION
  2
ENTITIES
0
LINE
8
BLACK
6
CONTINUOUS
10
117.997
20
-63.5629
11
118.009
21
-63.5663
0
LINE
8
BLACK
6
CONTINUOUS
10
118.009
20
-63.5663
11
118.019
21
-63.5719
0
LINE
8
BLACK
6
CONTINUOUS
10
118.019
20
-63.5719
11
118.028
21
-63.5794
0
LINE
8
BLACK
6
CONTINUOUS
10
118.028
20
-63.5794
11
118.036
21
-63.5885
0
LINE
8
BLACK
6
CONTINUOUS
10
118.036
20
-63.5885
11
118.041
21
-63.5989
0
LINE
8
BLACK
6
CONTINUOUS
10
118.041
20
-63.5989
11
118.045
21
-63.6102
0
LINE
8
BLACK
6
CONTINUOUS
10
118.045
20
-63.6102
11
118.046
21
-63.622
0
LINE
8
BLACK
6
CONTINUOUS
10
118.046
20
-63.622
11
118.045
21
-63.6338
0
LINE
8
BLACK
6
CONTINUOUS
10
118.045
20
-63.6338
11
118.041
21
-63.6451
0
LINE
8
BLACK
6
CONTINUOUS
10
118.041
20
-63.6451
11
118.036
21
-63.6555
0
LINE
8
BLACK
6
CONTINUOUS
10
118.036
20
-63.6555
11
118.028
21
-63.6646
0
LINE
8
BLACK
6
CONTINUOUS
10
118.028
20
-63.6646
11
118.019
21
-63.6721
0
LINE
8
BLACK
6
CONTINUOUS
10
118.019
20
-63.6721
11
118.009
21
-63.6777
0
LINE
8
BLACK
6
CONTINUOUS
10
118.009
20
-63.6777
11
117.997
21
-63.6811
0
LINE
8
BLACK
6
CONTINUOUS
10
117.997
20
-63.6811
11
117.989
21
-63.682
0
LINE
8
BLACK
6
CONTINUOUS
10
117.989
20
-63.682
11
116.383
21
-63.682
0
LINE
8
BLACK
6
CONTINUOUS
10
116.383
20
-63.682
11
116.374
21
-63.6811
0
LINE
8
BLACK
6
CONTINUOUS
10
116.374
20
-63.6811
11
116.363
21
-63.6777
0
LINE
8
BLACK
6
CONTINUOUS
10
116.363
20
-63.6777
11
116.352
21
-63.6721
0
LINE
8
BLACK
6
CONTINUOUS
10
116.352
20
-63.6721
11
116.343
21
-63.6646
0
LINE
8
BLACK
6
CONTINUOUS
10
116.343
20
-63.6646
11
116.336
21
-63.6555
0
LINE
8
BLACK
6
CONTINUOUS
10
116.336
20
-63.6555
11
116.33
21
-63.6451
0
LINE
8
BLACK
6
CONTINUOUS
10
116.33
20
-63.6451
11
116.327
21
-63.6338
0
LINE
8
BLACK
6
CONTINUOUS
10
116.327
20
-63.6338
11
116.325
21
-63.622
0
LINE
8
BLACK
6
CONTINUOUS
10
116.325
20
-63.622
11
116.327
21
-63.6102
0
LINE
8
BLACK
6
CONTINUOUS
10
116.327
20
-63.6102
11
116.33
21
-63.5989
0
LINE
8
BLACK
6
CONTINUOUS
10
116.33
20
-63.5989
11
116.336
21
-63.5885
0
LINE
8
BLACK
6
CONTINUOUS
10
116.336
20
-63.5885
11
116.343
21
-63.5794
0
LINE
8
BLACK
6
CONTINUOUS
10
116.343
20
-63.5794
11
116.352
21
-63.5719
0
LINE
8
BLACK
6
CONTINUOUS
10
116.352
20
-63.5719
11
116.363
21
-63.5663
0
LINE
8
BLACK
6
CONTINUOUS
10
116.363
20
-63.5663
11
116.374
21
-63.5629
0
LINE
8
BLACK
6
CONTINUOUS
10
116.374
20
-63.5629
11
116.383
21
-63.562
0
LINE
8
BLACK
6
CONTINUOUS
10
116.383
20
-63.562
11
117.989
21
-63.562
0
LINE
8
BLACK
6
CONTINUOUS
10
117.989
20
-63.562
11
117.997
21
-63.5629
0
LINE
8
BLACK
6
CONTINUOUS
10
111.997
20
-63.5629
11
112.009
21
-63.5663
0
LINE
8
BLACK
6
CONTINUOUS
10
112.009
20
-63.5663
11
112.019
21
-63.5719
0
LINE
8
BLACK
6
CONTINUOUS
10
112.019
20
-63.5719
11
112.028
21
-63.5794
0
LINE
8
BLACK
6
CONTINUOUS
10
112.028
20
-63.5794
11
112.036
21
-63.5885
0
LINE
8
BLACK
6
CONTINUOUS
10
112.036
20
-63.5885
11
112.041
21
-63.5989
0
LINE
8
BLACK
6
CONTINUOUS
10
112.041
20
-63.5989
11
112.045
21
-63.6102
0
LINE
8
BLACK
6
CONTINUOUS
10
112.045
20
-63.6102
11
112.046
21
-63.622
0
LINE
8
BLACK
6
CONTINUOUS
10
112.046
20
-63.622
11
112.045
21
-63.6338
0
LINE
8
BLACK
6
CONTINUOUS
10
112.045
20
-63.6338
11
112.041
21
-63.6451
0
LINE
8
BLACK
6
CONTINUOUS
10
112.041
20
-63.6451
11
112.036
21
-63.6555
0
LINE
8
BLACK
6
CONTINUOUS
10
112.036
20
-63.6555
11
112.028
21
-63.6646
0
LINE
8
BLACK
6
CONTINUOUS
10
112.028
20
-63.6646
11
112.019
21
-63.6721
0
LINE
8
BLACK
6
CONTINUOUS
10
112.019
20
-63.6721
11
112.009
21
-63.6777
0
LINE
8
BLACK
6
CONTINUOUS
10
112.009
20
-63.6777
11
111.997
21
-63.6811
0
LINE
8
BLACK
6
CONTINUOUS
10
111.997
20
-63.6811
11
111.989
21
-63.682
0
LINE
8
BLACK
6
CONTINUOUS
10
111.989
20
-63.682
11
110.383
21
-63.682
0
LINE
8
BLACK
6
CONTINUOUS
10
110.383
20
-63.682
11
110.374
21
-63.6811
0
LINE
8
BLACK
6
CONTINUOUS
10
110.374
20
-63.6811
11
110.363
21
-63.6777
0
LINE
8
BLACK
6
CONTINUOUS
10
110.363
20
-63.6777
11
110.352
21
-63.6721
0
LINE
8
BLACK
6
CONTINUOUS
10
110.352
20
-63.6721
11
110.343
21
-63.6646
0
LINE
8
BLACK
6
CONTINUOUS
10
110.343
20
-63.6646
11
110.336
21
-63.6555
0
LINE
8
BLACK
6
CONTINUOUS
10
110.336
20
-63.6555
11
110.33
21
-63.6451
0
LINE
8
BLACK
6
CONTINUOUS
10
110.33
20
-63.6451
11
110.327
21
-63.6338
0
LINE
8
BLACK
6
CONTINUOUS
10
110.327
20
-63.6338
11
110.325
21
-63.622
0
LINE
8
BLACK
6
CONTINUOUS
10
110.325
20
-63.622
11
110.327
21
-63.6102
0
LINE
8
BLACK
6
CONTINUOUS
10
110.327
20
-63.6102
11
110.33
21
-63.5989
0
LINE
8
BLACK
6
CONTINUOUS
10
110.33
20
-63.5989
11
110.336
21
-63.5885
0
LINE
8
BLACK
6
CONTINUOUS
10
110.336
20
-63.5885
11
110.343
21
-63.5794
0
LINE
8
BLACK
6
CONTINUOUS
10
110.343
20
-63.5794
11
110.352
21
-63.5719
0
LINE
8
BLACK
6
CONTINUOUS
10
110.352
20
-63.5719
11
110.363
21
-63.5663
0
LINE
8
BLACK
6
CONTINUOUS
10
110.363
20
-63.5663
11
110.374
21
-63.5629
0
LINE
8
BLACK
6
CONTINUOUS
10
110.374
20
-63.5629
11
110.383
21
-63.562
0
LINE
8
BLACK
6
CONTINUOUS
10
110.383
20
-63.562
11
111.989
21
-63.562
0
LINE
8
BLACK
6
CONTINUOUS
10
111.989
20
-63.562
11
111.997
21
-63.5629
0
LINE
8
BLACK
6
CONTINUOUS
10
107.697
20
-58.7829
11
107.709
21
-58.7863
0
LINE
8
BLACK
6
CONTINUOUS
10
107.709
20
-58.7863
11
107.719
21
-58.7919
0
LINE
8
BLACK
6
CONTINUOUS
10
107.719
20
-58.7919
11
107.728
21
-58.7994
0
LINE
8
BLACK
6
CONTINUOUS
10
107.728
20
-58.7994
11
107.736
21
-58.8085
0
LINE
8
BLACK
6
CONTINUOUS
10
107.736
20
-58.8085
11
107.741
21
-58.8189
0
LINE
8
BLACK
6
CONTINUOUS
10
107.741
20
-58.8189
11
107.745
21
-58.8302
0
LINE
8
BLACK
6
CONTINUOUS
10
107.745
20
-58.8302
11
107.746
21
-58.8391
0
LINE
8
BLACK
6
CONTINUOUS
10
107.746
20
-58.8391
11
107.746
21
-60.4449
0
LINE
8
BLACK
6
CONTINUOUS
10
107.746
20
-60.4449
11
107.745
21
-60.4538
0
LINE
8
BLACK
6
CONTINUOUS
10
107.745
20
-60.4538
11
107.741
21
-60.4651
0
LINE
8
BLACK
6
CONTINUOUS
10
107.741
20
-60.4651
11
107.736
21
-60.4755
0
LINE
8
BLACK
6
CONTINUOUS
10
107.736
20
-60.4755
11
107.728
21
-60.4846
0
LINE
8
BLACK
6
CONTINUOUS
10
107.728
20
-60.4846
11
107.719
21
-60.4921
0
LINE
8
BLACK
6
CONTINUOUS
10
107.719
20
-60.4921
11
107.709
21
-60.4977
0
LINE
8
BLACK
6
CONTINUOUS
10
107.709
20
-60.4977
11
107.697
21
-60.5011
0
LINE
8
BLACK
6
CONTINUOUS
10
107.697
20
-60.5011
11
107.686
21
-60.5023
0
LINE
8
BLACK
6
CONTINUOUS
10
107.686
20
-60.5023
11
107.674
21
-60.5011
0
LINE
8
BLACK
6
CONTINUOUS
10
107.674
20
-60.5011
11
107.663
21
-60.4977
0
LINE
8
BLACK
6
CONTINUOUS
10
107.663
20
-60.4977
11
107.652
21
-60.4921
0
LINE
8
BLACK
6
CONTINUOUS
10
107.652
20
-60.4921
11
107.643
21
-60.4846
0
LINE
8
BLACK
6
CONTINUOUS
10
107.643
20
-60.4846
11
107.636
21
-60.4755
0
LINE
8
BLACK
6
CONTINUOUS
10
107.636
20
-60.4755
11
107.63
21
-60.4651
0
LINE
8
BLACK
6
CONTINUOUS
10
107.63
20
-60.4651
11
107.627
21
-60.4538
0
LINE
8
BLACK
6
CONTINUOUS
10
107.627
20
-60.4538
11
107.626
21
-60.4449
0
LINE
8
BLACK
6
CONTINUOUS
10
107.626
20
-60.4449
11
107.626
21
-58.8391
0
LINE
8
BLACK
6
CONTINUOUS
10
107.626
20
-58.8391
11
107.627
21
-58.8302
0
LINE
8
BLACK
6
CONTINUOUS
10
107.627
20
-58.8302
11
107.63
21
-58.8189
0
LINE
8
BLACK
6
CONTINUOUS
10
107.63
20
-58.8189
11
107.636
21
-58.8085
0
LINE
8
BLACK
6
CONTINUOUS
10
107.636
20
-58.8085
11
107.643
21
-58.7994
0
LINE
8
BLACK
6
CONTINUOUS
10
107.643
20
-58.7994
11
107.652
21
-58.7919
0
LINE
8
BLACK
6
CONTINUOUS
10
107.652
20
-58.7919
11
107.663
21
-58.7863
0
LINE
8
BLACK
6
CONTINUOUS
10
107.663
20
-58.7863
11
107.674
21
-58.7829
0
LINE
8
BLACK
6
CONTINUOUS
10
107.674
20
-58.7829
11
107.686
21
-58.7817
0
LINE
8
BLACK
6
CONTINUOUS
10
107.686
20
-58.7817
11
107.697
21
-58.7829
0
LINE
8
BLACK
6
CONTINUOUS
10
120.697
20
-58.7829
11
120.709
21
-58.7863
0
LINE
8
BLACK
6
CONTINUOUS
10
120.709
20
-58.7863
11
120.719
21
-58.7919
0
LINE
8
BLACK
6
CONTINUOUS
10
120.719
20
-58.7919
11
120.728
21
-58.7994
0
LINE
8
BLACK
6
CONTINUOUS
10
120.728
20
-58.7994
11
120.736
21
-58.8085
0
LINE
8
BLACK
6
CONTINUOUS
10
120.736
20
-58.8085
11
120.741
21
-58.8189
0
LINE
8
BLACK
6
CONTINUOUS
10
120.741
20
-58.8189
11
120.745
21
-58.8302
0
LINE
8
BLACK
6
CONTINUOUS
10
120.745
20
-58.8302
11
120.746
21
-58.8391
0
LINE
8
BLACK
6
CONTINUOUS
10
120.746
20
-58.8391
11
120.746
21
-60.4449
0
LINE
8
BLACK
6
CONTINUOUS
10
120.746
20
-60.4449
11
120.745
21
-60.4538
0
LINE
8
BLACK
6
CONTINUOUS
10
120.745
20
-60.4538
11
120.741
21
-60.4651
0
LINE
8
BLACK
6
CONTINUOUS
10
120.741
20
-60.4651
11
120.736
21
-60.4755
0
LINE
8
BLACK
6
CONTINUOUS
10
120.736
20
-60.4755
11
120.728
21
-60.4846
0
LINE
8
BLACK
6
CONTINUOUS
10
120.728
20
-60.4846
11
120.719
21
-60.4921
0
LINE
8
BLACK
6
CONTINUOUS
10
120.719
20
-60.4921
11
120.709
21
-60.4977
0
LINE
8
BLACK
6
CONTINUOUS
10
120.709
20
-60.4977
11
120.697
21
-60.5011
0
LINE
8
BLACK
6
CONTINUOUS
10
120.697
20
-60.5011
11
120.686
21
-60.5023
0
LINE
8
BLACK
6
CONTINUOUS
10
120.686
20
-60.5023
11
120.674
21
-60.5011
0
LINE
8
BLACK
6
CONTINUOUS
10
120.674
20
-60.5011
11
120.663
21
-60.4977
0
LINE
8
BLACK
6
CONTINUOUS
10
120.663
20
-60.4977
11
120.652
21
-60.4921
0
LINE
8
BLACK
6
CONTINUOUS
10
120.652
20
-60.4921
11
120.643
21
-60.4846
0
LINE
8
BLACK
6
CONTINUOUS
10
120.643
20
-60.4846
11
120.636
21
-60.4755
0
LINE
8
BLACK
6
CONTINUOUS
10
120.636
20
-60.4755
11
120.63
21
-60.4651
0
LINE
8
BLACK
6
CONTINUOUS
10
120.63
20
-60.4651
11
120.627
21
-60.4538
0
LINE
8
BLACK
6
CONTINUOUS
10
120.627
20
-60.4538
11
120.626
21
-60.4449
0
LINE
8
BLACK
6
CONTINUOUS
10
120.626
20
-60.4449
11
120.626
21
-58.8391
0
LINE
8
BLACK
6
CONTINUOUS
10
120.626
20
-58.8391
11
120.627
21
-58.8302
0
LINE
8
BLACK
6
CONTINUOUS
10
120.627
20
-58.8302
11
120.63
21
-58.8189
0
LINE
8
BLACK
6
CONTINUOUS
10
120.63
20
-58.8189
11
120.636
21
-58.8085
0
LINE
8
BLACK
6
CONTINUOUS
10
120.636
20
-58.8085
11
120.643
21
-58.7994
0
LINE
8
BLACK
6
CONTINUOUS
10
120.643
20
-58.7994
11
120.652
21
-58.7919
0
LINE
8
BLACK
6
CONTINUOUS
10
120.652
20
-58.7919
11
120.663
21
-58.7863
0
LINE
8
BLACK
6
CONTINUOUS
10
120.663
20
-58.7863
11
120.674
21
-58.7829
0
LINE
8
BLACK
6
CONTINUOUS
10
120.674
20
-58.7829
11
120.686
21
-58.7817
0
LINE
8
BLACK
6
CONTINUOUS
10
120.686
20
-58.7817
11
120.697
21
-58.7829
0
LINE
8
BLACK
6
CONTINUOUS
10
120.697
20
-52.7829
11
120.709
21
-52.7863
0
LINE
8
BLACK
6
CONTINUOUS
10
120.709
20
-52.7863
11
120.719
21
-52.7919
0
LINE
8
BLACK
6
CONTINUOUS
10
120.719
20
-52.7919
11
120.728
21
-52.7994
0
LINE
8
BLACK
6
CONTINUOUS
10
120.728
20
-52.7994
11
120.736
21
-52.8085
0
LINE
8
BLACK
6
CONTINUOUS
10
120.736
20
-52.8085
11
120.741
21
-52.8189
0
LINE
8
BLACK
6
CONTINUOUS
10
120.741
20
-52.8189
11
120.745
21
-52.8302
0
LINE
8
BLACK
6
CONTINUOUS
10
120.745
20
-52.8302
11
120.746
21
-52.8391
0
LINE
8
BLACK
6
CONTINUOUS
10
120.746
20
-52.8391
11
120.746
21
-54.4449
0
LINE
8
BLACK
6
CONTINUOUS
10
120.746
20
-54.4449
11
120.745
21
-54.4538
0
LINE
8
BLACK
6
CONTINUOUS
10
120.745
20
-54.4538
11
120.741
21
-54.4651
0
LINE
8
BLACK
6
CONTINUOUS
10
120.741
20
-54.4651
11
120.736
21
-54.4755
0
LINE
8
BLACK
6
CONTINUOUS
10
120.736
20
-54.4755
11
120.728
21
-54.4846
0
LINE
8
BLACK
6
CONTINUOUS
10
120.728
20
-54.4846
11
120.719
21
-54.4921
0
LINE
8
BLACK
6
CONTINUOUS
10
120.719
20
-54.4921
11
120.709
21
-54.4977
0
LINE
8
BLACK
6
CONTINUOUS
10
120.709
20
-54.4977
11
120.697
21
-54.5011
0
LINE
8
BLACK
6
CONTINUOUS
10
120.697
20
-54.5011
11
120.686
21
-54.5023
0
LINE
8
BLACK
6
CONTINUOUS
10
120.686
20
-54.5023
11
120.674
21
-54.5011
0
LINE
8
BLACK
6
CONTINUOUS
10
120.674
20
-54.5011
11
120.663
21
-54.4977
0
LINE
8
BLACK
6
CONTINUOUS
10
120.663
20
-54.4977
11
120.652
21
-54.4921
0
LINE
8
BLACK
6
CONTINUOUS
10
120.652
20
-54.4921
11
120.643
21
-54.4846
0
LINE
8
BLACK
6
CONTINUOUS
10
120.643
20
-54.4846
11
120.636
21
-54.4755
0
LINE
8
BLACK
6
CONTINUOUS
10
120.636
20
-54.4755
11
120.63
21
-54.4651
0
LINE
8
BLACK
6
CONTINUOUS
10
120.63
20
-54.4651
11
120.627
21
-54.4538
0
LINE
8
BLACK
6
CONTINUOUS
10
120.627
20
-54.4538
11
120.626
21
-54.4449
0
LINE
8
BLACK
6
CONTINUOUS
10
120.626
20
-54.4449
11
120.626
21
-52.8391
0
LINE
8
BLACK
6
CONTINUOUS
10
120.626
20
-52.8391
11
120.627
21
-52.8302
0
LINE
8
BLACK
6
CONTINUOUS
10
120.627
20
-52.8302
11
120.63
21
-52.8189
0
LINE
8
BLACK
6
CONTINUOUS
10
120.63
20
-52.8189
11
120.636
21
-52.8085
0
LINE
8
BLACK
6
CONTINUOUS
10
120.636
20
-52.8085
11
120.643
21
-52.7994
0
LINE
8
BLACK
6
CONTINUOUS
10
120.643
20
-52.7994
11
120.652
21
-52.7919
0
LINE
8
BLACK
6
CONTINUOUS
10
120.652
20
-52.7919
11
120.663
21
-52.7863
0
LINE
8
BLACK
6
CONTINUOUS
10
120.663
20
-52.7863
11
120.674
21
-52.7829
0
LINE
8
BLACK
6
CONTINUOUS
10
120.674
20
-52.7829
11
120.686
21
-52.7817
0
LINE
8
BLACK
6
CONTINUOUS
10
120.686
20
-52.7817
11
120.697
21
-52.7829
0
LINE
8
BLACK
6
CONTINUOUS
10
107.697
20
-52.7829
11
107.709
21
-52.7863
0
LINE
8
BLACK
6
CONTINUOUS
10
107.709
20
-52.7863
11
107.719
21
-52.7919
0
LINE
8
BLACK
6
CONTINUOUS
10
107.719
20
-52.7919
11
107.728
21
-52.7994
0
LINE
8
BLACK
6
CONTINUOUS
10
107.728
20
-52.7994
11
107.736
21
-52.8085
0
LINE
8
BLACK
6
CONTINUOUS
10
107.736
20
-52.8085
11
107.741
21
-52.8189
0
LINE
8
BLACK
6
CONTINUOUS
10
107.741
20
-52.8189
11
107.745
21
-52.8302
0
LINE
8
BLACK
6
CONTINUOUS
10
107.745
20
-52.8302
11
107.746
21
-52.8391
0
LINE
8
BLACK
6
CONTINUOUS
10
107.746
20
-52.8391
11
107.746
21
-54.4449
0
LINE
8
BLACK
6
CONTINUOUS
10
107.746
20
-54.4449
11
107.745
21
-54.4538
0
LINE
8
BLACK
6
CONTINUOUS
10
107.745
20
-54.4538
11
107.741
21
-54.4651
0
LINE
8
BLACK
6
CONTINUOUS
10
107.741
20
-54.4651
11
107.736
21
-54.4755
0
LINE
8
BLACK
6
CONTINUOUS
10
107.736
20
-54.4755
11
107.728
21
-54.4846
0
LINE
8
BLACK
6
CONTINUOUS
10
107.728
20
-54.4846
11
107.719
21
-54.4921
0
LINE
8
BLACK
6
CONTINUOUS
10
107.719
20
-54.4921
11
107.709
21
-54.4977
0
LINE
8
BLACK
6
CONTINUOUS
10
107.709
20
-54.4977
11
107.697
21
-54.5011
0
LINE
8
BLACK
6
CONTINUOUS
10
107.697
20
-54.5011
11
107.686
21
-54.5023
0
LINE
8
BLACK
6
CONTINUOUS
10
107.686
20
-54.5023
11
107.674
21
-54.5011
0
LINE
8
BLACK
6
CONTINUOUS
10
107.674
20
-54.5011
11
107.663
21
-54.4977
0
LINE
8
BLACK
6
CONTINUOUS
10
107.663
20
-54.4977
11
107.652
21
-54.4921
0
LINE
8
BLACK
6
CONTINUOUS
10
107.652
20
-54.4921
11
107.643
21
-54.4846
0
LINE
8
BLACK
6
CONTINUOUS
10
107.643
20
-54.4846
11
107.636
21
-54.4755
0
LINE
8
BLACK
6
CONTINUOUS
10
107.636
20
-54.4755
11
107.63
21
-54.4651
0
LINE
8
BLACK
6
CONTINUOUS
10
107.63
20
-54.4651
11
107.627
21
-54.4538
0
LINE
8
BLACK
6
CONTINUOUS
10
107.627
20
-54.4538
11
107.626
21
-54.4449
0
LINE
8
BLACK
6
CONTINUOUS
10
107.626
20
-54.4449
11
107.626
21
-52.8391
0
LINE
8
BLACK
6
CONTINUOUS
10
107.626
20
-52.8391
11
107.627
21
-52.8302
0
LINE
8
BLACK
6
CONTINUOUS
10
107.627
20
-52.8302
11
107.63
21
-52.8189
0
LINE
8
BLACK
6
CONTINUOUS
10
107.63
20
-52.8189
11
107.636
21
-52.8085
0
LINE
8
BLACK
6
CONTINUOUS
10
107.636
20
-52.8085
11
107.643
21
-52.7994
0
LINE
8
BLACK
6
CONTINUOUS
10
107.643
20
-52.7994
11
107.652
21
-52.7919
0
LINE
8
BLACK
6
CONTINUOUS
10
107.652
20
-52.7919
11
107.663
21
-52.7863
0
LINE
8
BLACK
6
CONTINUOUS
10
107.663
20
-52.7863
11
107.674
21
-52.7829
0
LINE
8
BLACK
6
CONTINUOUS
10
107.674
20
-52.7829
11
107.686
21
-52.7817
0
LINE
8
BLACK
6
CONTINUOUS
10
107.686
20
-52.7817
11
107.697
21
-52.7829
0
LINE
8
BLACK
6
CONTINUOUS
10
117.997
20
-49.6029
11
118.009
21
-49.6063
0
LINE
8
BLACK
6
CONTINUOUS
10
118.009
20
-49.6063
11
118.019
21
-49.6119
0
LINE
8
BLACK
6
CONTINUOUS
10
118.019
20
-49.6119
11
118.028
21
-49.6194
0
LINE
8
BLACK
6
CONTINUOUS
10
118.028
20
-49.6194
11
118.036
21
-49.6285
0
LINE
8
BLACK
6
CONTINUOUS
10
118.036
20
-49.6285
11
118.041
21
-49.6389
0
LINE
8
BLACK
6
CONTINUOUS
10
118.041
20
-49.6389
11
118.045
21
-49.6502
0
LINE
8
BLACK
6
CONTINUOUS
10
118.045
20
-49.6502
11
118.046
21
-49.662
0
LINE
8
BLACK
6
CONTINUOUS
10
118.046
20
-49.662
11
118.045
21
-49.6738
0
LINE
8
BLACK
6
CONTINUOUS
10
118.045
20
-49.6738
11
118.041
21
-49.6851
0
LINE
8
BLACK
6
CONTINUOUS
10
118.041
20
-49.6851
11
118.036
21
-49.6955
0
LINE
8
BLACK
6
CONTINUOUS
10
118.036
20
-49.6955
11
118.028
21
-49.7046
0
LINE
8
BLACK
6
CONTINUOUS
10
118.028
20
-49.7046
11
118.019
21
-49.7121
0
LINE
8
BLACK
6
CONTINUOUS
10
118.019
20
-49.7121
11
118.009
21
-49.7177
0
LINE
8
BLACK
6
CONTINUOUS
10
118.009
20
-49.7177
11
117.997
21
-49.7211
0
LINE
8
BLACK
6
CONTINUOUS
10
117.997
20
-49.7211
11
117.989
21
-49.722
0
LINE
8
BLACK
6
CONTINUOUS
10
117.989
20
-49.722
11
116.383
21
-49.722
0
LINE
8
BLACK
6
CONTINUOUS
10
116.383
20
-49.722
11
116.374
21
-49.7211
0
LINE
8
BLACK
6
CONTINUOUS
10
116.374
20
-49.7211
11
116.363
21
-49.7177
0
LINE
8
BLACK
6
CONTINUOUS
10
116.363
20
-49.7177
11
116.352
21
-49.7121
0
LINE
8
BLACK
6
CONTINUOUS
10
116.352
20
-49.7121
11
116.343
21
-49.7046
0
LINE
8
BLACK
6
CONTINUOUS
10
116.343
20
-49.7046
11
116.336
21
-49.6955
0
LINE
8
BLACK
6
CONTINUOUS
10
116.336
20
-49.6955
11
116.33
21
-49.6851
0
LINE
8
BLACK
6
CONTINUOUS
10
116.33
20
-49.6851
11
116.327
21
-49.6738
0
LINE
8
BLACK
6
CONTINUOUS
10
116.327
20
-49.6738
11
116.325
21
-49.662
0
LINE
8
BLACK
6
CONTINUOUS
10
116.325
20
-49.662
11
116.327
21
-49.6502
0
LINE
8
BLACK
6
CONTINUOUS
10
116.327
20
-49.6502
11
116.33
21
-49.6389
0
LINE
8
BLACK
6
CONTINUOUS
10
116.33
20
-49.6389
11
116.336
21
-49.6285
0
LINE
8
BLACK
6
CONTINUOUS
10
116.336
20
-49.6285
11
116.343
21
-49.6194
0
LINE
8
BLACK
6
CONTINUOUS
10
116.343
20
-49.6194
11
116.352
21
-49.6119
0
LINE
8
BLACK
6
CONTINUOUS
10
116.352
20
-49.6119
11
116.363
21
-49.6063
0
LINE
8
BLACK
6
CONTINUOUS
10
116.363
20
-49.6063
11
116.374
21
-49.6029
0
LINE
8
BLACK
6
CONTINUOUS
10
116.374
20
-49.6029
11
116.383
21
-49.602
0
LINE
8
BLACK
6
CONTINUOUS
10
116.383
20
-49.602
11
117.989
21
-49.602
0
LINE
8
BLACK
6
CONTINUOUS
10
117.989
20
-49.602
11
117.997
21
-49.6029
0
LINE
8
BLACK
6
CONTINUOUS
10
111.997
20
-49.6029
11
112.009
21
-49.6063
0
LINE
8
BLACK
6
CONTINUOUS
10
112.009
20
-49.6063
11
112.019
21
-49.6119
0
LINE
8
BLACK
6
CONTINUOUS
10
112.019
20
-49.6119
11
112.028
21
-49.6194
0
LINE
8
BLACK
6
CONTINUOUS
10
112.028
20
-49.6194
11
112.036
21
-49.6285
0
LINE
8
BLACK
6
CONTINUOUS
10
112.036
20
-49.6285
11
112.041
21
-49.6389
0
LINE
8
BLACK
6
CONTINUOUS
10
112.041
20
-49.6389
11
112.045
21
-49.6502
0
LINE
8
BLACK
6
CONTINUOUS
10
112.045
20
-49.6502
11
112.046
21
-49.662
0
LINE
8
BLACK
6
CONTINUOUS
10
112.046
20
-49.662
11
112.045
21
-49.6738
0
LINE
8
BLACK
6
CONTINUOUS
10
112.045
20
-49.6738
11
112.041
21
-49.6851
0
LINE
8
BLACK
6
CONTINUOUS
10
112.041
20
-49.6851
11
112.036
21
-49.6955
0
LINE
8
BLACK
6
CONTINUOUS
10
112.036
20
-49.6955
11
112.028
21
-49.7046
0
LINE
8
BLACK
6
CONTINUOUS
10
112.028
20
-49.7046
11
112.019
21
-49.7121
0
LINE
8
BLACK
6
CONTINUOUS
10
112.019
20
-49.7121
11
112.009
21
-49.7177
0
LINE
8
BLACK
6
CONTINUOUS
10
112.009
20
-49.7177
11
111.997
21
-49.7211
0
LINE
8
BLACK
6
CONTINUOUS
10
111.997
20
-49.7211
11
111.989
21
-49.722
0
LINE
8
BLACK
6
CONTINUOUS
10
111.989
20
-49.722
11
110.383
21
-49.722
0
LINE
8
BLACK
6
CONTINUOUS
10
110.383
20
-49.722
11
110.374
21
-49.7211
0
LINE
8
BLACK
6
CONTINUOUS
10
110.374
20
-49.7211
11
110.363
21
-49.7177
0
LINE
8
BLACK
6
CONTINUOUS
10
110.363
20
-49.7177
11
110.352
21
-49.7121
0
LINE
8
BLACK
6
CONTINUOUS
10
110.352
20
-49.7121
11
110.343
21
-49.7046
0
LINE
8
BLACK
6
CONTINUOUS
10
110.343
20
-49.7046
11
110.336
21
-49.6955
0
LINE
8
BLACK
6
CONTINUOUS
10
110.336
20
-49.6955
11
110.33
21
-49.6851
0
LINE
8
BLACK
6
CONTINUOUS
10
110.33
20
-49.6851
11
110.327
21
-49.6738
0
LINE
8
BLACK
6
CONTINUOUS
10
110.327
20
-49.6738
11
110.325
21
-49.662
0
LINE
8
BLACK
6
CONTINUOUS
10
110.325
20
-49.662
11
110.327
21
-49.6502
0
LINE
8
BLACK
6
CONTINUOUS
10
110.327
20
-49.6502
11
110.33
21
-49.6389
0
LINE
8
BLACK
6
CONTINUOUS
10
110.33
20
-49.6389
11
110.336
21
-49.6285
0
LINE
8
BLACK
6
CONTINUOUS
10
110.336
20
-49.6285
11
110.343
21
-49.6194
0
LINE
8
BLACK
6
CONTINUOUS
10
110.343
20
-49.6194
11
110.352
21
-49.6119
0
LINE
8
BLACK
6
CONTINUOUS
10
110.352
20
-49.6119
11
110.363
21
-49.6063
0
LINE
8
BLACK
6
CONTINUOUS
10
110.363
20
-49.6063
11
110.374
21
-49.6029
0
LINE
8
BLACK
6
CONTINUOUS
10
110.374
20
-49.6029
11
110.383
21
-49.602
0
LINE
8
BLACK
6
CONTINUOUS
10
110.383
20
-49.602
11
111.989
21
-49.602
0
LINE
8
BLACK
6
CONTINUOUS
10
111.989
20
-49.602
11
111.997
21
-49.6029
0
LINE
8
BLACK
6
CONTINUOUS
10
113.867
20
-47.7909
11
113.881
21
-47.7952
0
LINE
8
BLACK
6
CONTINUOUS
10
113.881
20
-47.7952
11
113.894
21
-47.8022
0
LINE
8
BLACK
6
CONTINUOUS
10
113.894
20
-47.8022
11
113.906
21
-47.8115
0
LINE
8
BLACK
6
CONTINUOUS
10
113.906
20
-47.8115
11
113.915
21
-47.8229
0
LINE
8
BLACK
6
CONTINUOUS
10
113.915
20
-47.8229
11
113.922
21
-47.8358
0
LINE
8
BLACK
6
CONTINUOUS
10
113.922
20
-47.8358
11
113.926
21
-47.8498
0
LINE
8
BLACK
6
CONTINUOUS
10
113.926
20
-47.8498
11
113.927
21
-47.8644
0
LINE
8
BLACK
6
CONTINUOUS
10
113.927
20
-47.8644
11
113.927
21
-48.5787
0
LINE
8
BLACK
6
CONTINUOUS
10
113.927
20
-48.5787
11
113.927
21
-48.5797
0
LINE
8
BLACK
6
CONTINUOUS
10
113.927
20
-48.5797
11
113.927
21
-48.5839
0
LINE
8
BLACK
6
CONTINUOUS
10
113.927
20
-48.5839
11
113.927
21
-48.5881
0
LINE
8
BLACK
6
CONTINUOUS
10
113.927
20
-48.5881
11
113.926
21
-48.5912
0
LINE
8
BLACK
6
CONTINUOUS
10
113.926
20
-48.5912
11
113.926
21
-48.5943
0
LINE
8
BLACK
6
CONTINUOUS
10
113.926
20
-48.5943
11
113.924
21
-48.5983
0
LINE
8
BLACK
6
CONTINUOUS
10
113.924
20
-48.5983
11
113.924
21
-48.6024
0
LINE
8
BLACK
6
CONTINUOUS
10
113.924
20
-48.6024
11
113.876
21
-48.7452
0
LINE
8
BLACK
6
CONTINUOUS
10
113.876
20
-48.7452
11
113.876
21
-48.7462
0
LINE
8
BLACK
6
CONTINUOUS
10
113.876
20
-48.7462
11
113.875
21
-48.7482
0
LINE
8
BLACK
6
CONTINUOUS
10
113.875
20
-48.7482
11
113.874
21
-48.7503
0
LINE
8
BLACK
6
CONTINUOUS
10
113.874
20
-48.7503
11
113.872
21
-48.7549
0
LINE
8
BLACK
6
CONTINUOUS
10
113.872
20
-48.7549
11
113.869
21
-48.7595
0
LINE
8
BLACK
6
CONTINUOUS
10
113.869
20
-48.7595
11
113.868
21
-48.7613
0
LINE
8
BLACK
6
CONTINUOUS
10
113.868
20
-48.7613
11
113.867
21
-48.7632
0
LINE
8
BLACK
6
CONTINUOUS
10
113.867
20
-48.7632
11
113.864
21
-48.7672
0
LINE
8
BLACK
6
CONTINUOUS
10
113.864
20
-48.7672
11
113.861
21
-48.7714
0
LINE
8
BLACK
6
CONTINUOUS
10
113.861
20
-48.7714
11
113.859
21
-48.7729
0
LINE
8
BLACK
6
CONTINUOUS
10
113.859
20
-48.7729
11
113.858
21
-48.7746
0
LINE
8
BLACK
6
CONTINUOUS
10
113.858
20
-48.7746
11
113.763
21
-48.8698
0
LINE
8
BLACK
6
CONTINUOUS
10
113.763
20
-48.8698
11
113.762
21
-48.8705
0
LINE
8
BLACK
6
CONTINUOUS
10
113.762
20
-48.8705
11
113.76
21
-48.8719
0
LINE
8
BLACK
6
CONTINUOUS
10
113.76
20
-48.8719
11
113.759
21
-48.8735
0
LINE
8
BLACK
6
CONTINUOUS
10
113.759
20
-48.8735
11
113.754
21
-48.8765
0
LINE
8
BLACK
6
CONTINUOUS
10
113.754
20
-48.8765
11
113.75
21
-48.8797
0
LINE
8
BLACK
6
CONTINUOUS
10
113.75
20
-48.8797
11
113.748
21
-48.8807
0
LINE
8
BLACK
6
CONTINUOUS
10
113.748
20
-48.8807
11
113.747
21
-48.882
0
LINE
8
BLACK
6
CONTINUOUS
10
113.747
20
-48.882
11
113.742
21
-48.884
0
LINE
8
BLACK
6
CONTINUOUS
10
113.742
20
-48.884
11
113.737
21
-48.8864
0
LINE
8
BLACK
6
CONTINUOUS
10
113.737
20
-48.8864
11
113.735
21
-48.887
0
LINE
8
BLACK
6
CONTINUOUS
10
113.735
20
-48.887
11
113.733
21
-48.8879
0
LINE
8
BLACK
6
CONTINUOUS
10
113.733
20
-48.8879
11
113.59
21
-48.9355
0
LINE
8
BLACK
6
CONTINUOUS
10
113.59
20
-48.9355
11
113.589
21
-48.9359
0
LINE
8
BLACK
6
CONTINUOUS
10
113.589
20
-48.9359
11
113.585
21
-48.9367
0
LINE
8
BLACK
6
CONTINUOUS
10
113.585
20
-48.9367
11
113.581
21
-48.938
0
LINE
8
BLACK
6
CONTINUOUS
10
113.581
20
-48.938
11
113.578
21
-48.9383
0
LINE
8
BLACK
6
CONTINUOUS
10
113.578
20
-48.9383
11
113.575
21
-48.9389
0
LINE
8
BLACK
6
CONTINUOUS
10
113.575
20
-48.9389
11
113.571
21
-48.939
0
LINE
8
BLACK
6
CONTINUOUS
10
113.571
20
-48.939
11
113.567
21
-48.9394
0
LINE
8
BLACK
6
CONTINUOUS
10
113.567
20
-48.9394
11
113.471
21
-48.9394
0
LINE
8
BLACK
6
CONTINUOUS
10
113.471
20
-48.9394
11
113.47
21
-48.9394
0
LINE
8
BLACK
6
CONTINUOUS
10
113.47
20
-48.9394
11
113.456
21
-48.9377
0
LINE
8
BLACK
6
CONTINUOUS
10
113.456
20
-48.9377
11
113.442
21
-48.9333
0
LINE
8
BLACK
6
CONTINUOUS
10
113.442
20
-48.9333
11
113.429
21
-48.9263
0
LINE
8
BLACK
6
CONTINUOUS
10
113.429
20
-48.9263
11
113.418
21
-48.9169
0
LINE
8
BLACK
6
CONTINUOUS
10
113.418
20
-48.9169
11
113.409
21
-48.9054
0
LINE
8
BLACK
6
CONTINUOUS
10
113.409
20
-48.9054
11
113.402
21
-48.8925
0
LINE
8
BLACK
6
CONTINUOUS
10
113.402
20
-48.8925
11
113.398
21
-48.8784
0
LINE
8
BLACK
6
CONTINUOUS
10
113.398
20
-48.8784
11
113.396
21
-48.8639
0
LINE
8
BLACK
6
CONTINUOUS
10
113.396
20
-48.8639
11
113.398
21
-48.8493
0
LINE
8
BLACK
6
CONTINUOUS
10
113.398
20
-48.8493
11
113.402
21
-48.8353
0
LINE
8
BLACK
6
CONTINUOUS
10
113.402
20
-48.8353
11
113.409
21
-48.8224
0
LINE
8
BLACK
6
CONTINUOUS
10
113.409
20
-48.8224
11
113.419
21
-48.8112
0
LINE
8
BLACK
6
CONTINUOUS
10
113.419
20
-48.8112
11
113.43
21
-48.8019
0
LINE
8
BLACK
6
CONTINUOUS
10
113.43
20
-48.8019
11
113.443
21
-48.795
0
LINE
8
BLACK
6
CONTINUOUS
10
113.443
20
-48.795
11
113.457
21
-48.7908
0
LINE
8
BLACK
6
CONTINUOUS
10
113.457
20
-48.7908
11
113.471
21
-48.7894
0
LINE
8
BLACK
6
CONTINUOUS
10
113.471
20
-48.7894
11
113.554
21
-48.7894
0
LINE
8
BLACK
6
CONTINUOUS
10
113.554
20
-48.7894
11
113.669
21
-48.7512
0
LINE
8
BLACK
6
CONTINUOUS
10
113.669
20
-48.7512
11
113.739
21
-48.681
0
LINE
8
BLACK
6
CONTINUOUS
10
113.739
20
-48.681
11
113.777
21
-48.5665
0
LINE
8
BLACK
6
CONTINUOUS
10
113.777
20
-48.5665
11
113.777
21
-47.8644
0
LINE
8
BLACK
6
CONTINUOUS
10
113.777
20
-47.8644
11
113.777
21
-47.8633
0
LINE
8
BLACK
6
CONTINUOUS
10
113.777
20
-47.8633
11
113.779
21
-47.8488
0
LINE
8
BLACK
6
CONTINUOUS
10
113.779
20
-47.8488
11
113.783
21
-47.8348
0
LINE
8
BLACK
6
CONTINUOUS
10
113.783
20
-47.8348
11
113.79
21
-47.822
0
LINE
8
BLACK
6
CONTINUOUS
10
113.79
20
-47.822
11
113.8
21
-47.8108
0
LINE
8
BLACK
6
CONTINUOUS
10
113.8
20
-47.8108
11
113.811
21
-47.8016
0
LINE
8
BLACK
6
CONTINUOUS
10
113.811
20
-47.8016
11
113.824
21
-47.7948
0
LINE
8
BLACK
6
CONTINUOUS
10
113.824
20
-47.7948
11
113.838
21
-47.7907
0
LINE
8
BLACK
6
CONTINUOUS
10
113.838
20
-47.7907
11
113.853
21
-47.7894
0
LINE
8
BLACK
6
CONTINUOUS
10
113.853
20
-47.7894
11
113.867
21
-47.7909
0
LINE
8
BLACK
6
CONTINUOUS
10
114.567
20
-47.7894
11
114.567
21
-47.7894
0
LINE
8
BLACK
6
CONTINUOUS
10
114.567
20
-47.7894
11
114.575
21
-47.7902
0
LINE
8
BLACK
6
CONTINUOUS
10
114.575
20
-47.7902
11
114.582
21
-47.7909
0
LINE
8
BLACK
6
CONTINUOUS
10
114.582
20
-47.7909
11
114.582
21
-47.7909
0
LINE
8
BLACK
6
CONTINUOUS
10
114.582
20
-47.7909
11
114.582
21
-47.7909
0
LINE
8
BLACK
6
CONTINUOUS
10
114.582
20
-47.7909
11
114.589
21
-47.7932
0
LINE
8
BLACK
6
CONTINUOUS
10
114.589
20
-47.7932
11
114.596
21
-47.7952
0
LINE
8
BLACK
6
CONTINUOUS
10
114.596
20
-47.7952
11
114.596
21
-47.7953
0
LINE
8
BLACK
6
CONTINUOUS
10
114.596
20
-47.7953
11
114.596
21
-47.7953
0
LINE
8
BLACK
6
CONTINUOUS
10
114.596
20
-47.7953
11
114.602
21
-47.7988
0
LINE
8
BLACK
6
CONTINUOUS
10
114.602
20
-47.7988
11
114.609
21
-47.8022
0
LINE
8
BLACK
6
CONTINUOUS
10
114.609
20
-47.8022
11
114.609
21
-47.8022
0
LINE
8
BLACK
6
CONTINUOUS
10
114.609
20
-47.8022
11
114.609
21
-47.8023
0
LINE
8
BLACK
6
CONTINUOUS
10
114.609
20
-47.8023
11
114.614
21
-47.8069
0
LINE
8
BLACK
6
CONTINUOUS
10
114.614
20
-47.8069
11
114.62
21
-47.8115
0
LINE
8
BLACK
6
CONTINUOUS
10
114.62
20
-47.8115
11
114.62
21
-47.8116
0
LINE
8
BLACK
6
CONTINUOUS
10
114.62
20
-47.8116
11
114.62
21
-47.8116
0
LINE
8
BLACK
6
CONTINUOUS
10
114.62
20
-47.8116
11
114.625
21
-47.8176
0
LINE
8
BLACK
6
CONTINUOUS
10
114.625
20
-47.8176
11
114.629
21
-47.8229
0
LINE
8
BLACK
6
CONTINUOUS
10
114.629
20
-47.8229
11
114.629
21
-47.8229
0
LINE
8
BLACK
6
CONTINUOUS
10
114.629
20
-47.8229
11
114.629
21
-47.823
0
LINE
8
BLACK
6
CONTINUOUS
10
114.629
20
-47.823
11
114.633
21
-47.8299
0
LINE
8
BLACK
6
CONTINUOUS
10
114.633
20
-47.8299
11
114.636
21
-47.8358
0
LINE
8
BLACK
6
CONTINUOUS
10
114.636
20
-47.8358
11
114.636
21
-47.8359
0
LINE
8
BLACK
6
CONTINUOUS
10
114.636
20
-47.8359
11
114.636
21
-47.8359
0
LINE
8
BLACK
6
CONTINUOUS
10
114.636
20
-47.8359
11
114.638
21
-47.8431
0
LINE
8
BLACK
6
CONTINUOUS
10
114.638
20
-47.8431
11
114.64
21
-47.8498
0
LINE
8
BLACK
6
CONTINUOUS
10
114.64
20
-47.8498
11
114.64
21
-47.8499
0
LINE
8
BLACK
6
CONTINUOUS
10
114.64
20
-47.8499
11
114.64
21
-47.8499
0
LINE
8
BLACK
6
CONTINUOUS
10
114.64
20
-47.8499
11
114.641
21
-47.8573
0
LINE
8
BLACK
6
CONTINUOUS
10
114.641
20
-47.8573
11
114.642
21
-47.8644
0
LINE
8
BLACK
6
CONTINUOUS
10
114.642
20
-47.8644
11
114.642
21
-48.7894
0
LINE
8
BLACK
6
CONTINUOUS
10
114.642
20
-48.7894
11
114.852
21
-48.7894
0
LINE
8
BLACK
6
CONTINUOUS
10
114.852
20
-48.7894
11
114.853
21
-48.7894
0
LINE
8
BLACK
6
CONTINUOUS
10
114.853
20
-48.7894
11
114.868
21
-48.791
0
LINE
8
BLACK
6
CONTINUOUS
10
114.868
20
-48.791
11
114.882
21
-48.7954
0
LINE
8
BLACK
6
CONTINUOUS
10
114.882
20
-48.7954
11
114.895
21
-48.8025
0
LINE
8
BLACK
6
CONTINUOUS
10
114.895
20
-48.8025
11
114.906
21
-48.8119
0
LINE
8
BLACK
6
CONTINUOUS
10
114.906
20
-48.8119
11
114.915
21
-48.8233
0
LINE
8
BLACK
6
CONTINUOUS
10
114.915
20
-48.8233
11
114.922
21
-48.8363
0
LINE
8
BLACK
6
CONTINUOUS
10
114.922
20
-48.8363
11
114.926
21
-48.8503
0
LINE
8
BLACK
6
CONTINUOUS
10
114.926
20
-48.8503
11
114.927
21
-48.8649
0
LINE
8
BLACK
6
CONTINUOUS
10
114.927
20
-48.8649
11
114.926
21
-48.8795
0
LINE
8
BLACK
6
CONTINUOUS
10
114.926
20
-48.8795
11
114.922
21
-48.8934
0
LINE
8
BLACK
6
CONTINUOUS
10
114.922
20
-48.8934
11
114.915
21
-48.9063
0
LINE
8
BLACK
6
CONTINUOUS
10
114.915
20
-48.9063
11
114.905
21
-48.9176
0
LINE
8
BLACK
6
CONTINUOUS
10
114.905
20
-48.9176
11
114.894
21
-48.9268
0
LINE
8
BLACK
6
CONTINUOUS
10
114.894
20
-48.9268
11
114.881
21
-48.9337
0
LINE
8
BLACK
6
CONTINUOUS
10
114.881
20
-48.9337
11
114.867
21
-48.938
0
LINE
8
BLACK
6
CONTINUOUS
10
114.867
20
-48.938
11
114.852
21
-48.9394
0
LINE
8
BLACK
6
CONTINUOUS
10
114.852
20
-48.9394
11
114.281
21
-48.9394
0
LINE
8
BLACK
6
CONTINUOUS
10
114.281
20
-48.9394
11
114.28
21
-48.9394
0
LINE
8
BLACK
6
CONTINUOUS
10
114.28
20
-48.9394
11
114.265
21
-48.9377
0
LINE
8
BLACK
6
CONTINUOUS
10
114.265
20
-48.9377
11
114.251
21
-48.9333
0
LINE
8
BLACK
6
CONTINUOUS
10
114.251
20
-48.9333
11
114.239
21
-48.9263
0
LINE
8
BLACK
6
CONTINUOUS
10
114.239
20
-48.9263
11
114.227
21
-48.9169
0
LINE
8
BLACK
6
CONTINUOUS
10
114.227
20
-48.9169
11
114.218
21
-48.9054
0
LINE
8
BLACK
6
CONTINUOUS
10
114.218
20
-48.9054
11
114.211
21
-48.8925
0
LINE
8
BLACK
6
CONTINUOUS
10
114.211
20
-48.8925
11
114.207
21
-48.8784
0
LINE
8
BLACK
6
CONTINUOUS
10
114.207
20
-48.8784
11
114.206
21
-48.8639
0
LINE
8
BLACK
6
CONTINUOUS
10
114.206
20
-48.8639
11
114.207
21
-48.8493
0
LINE
8
BLACK
6
CONTINUOUS
10
114.207
20
-48.8493
11
114.212
21
-48.8353
0
LINE
8
BLACK
6
CONTINUOUS
10
114.212
20
-48.8353
11
114.219
21
-48.8224
0
LINE
8
BLACK
6
CONTINUOUS
10
114.219
20
-48.8224
11
114.228
21
-48.8112
0
LINE
8
BLACK
6
CONTINUOUS
10
114.228
20
-48.8112
11
114.239
21
-48.8019
0
LINE
8
BLACK
6
CONTINUOUS
10
114.239
20
-48.8019
11
114.252
21
-48.795
0
LINE
8
BLACK
6
CONTINUOUS
10
114.252
20
-48.795
11
114.266
21
-48.7908
0
LINE
8
BLACK
6
CONTINUOUS
10
114.266
20
-48.7908
11
114.281
21
-48.7894
0
LINE
8
BLACK
6
CONTINUOUS
10
114.281
20
-48.7894
11
114.492
21
-48.7894
0
LINE
8
BLACK
6
CONTINUOUS
10
114.492
20
-48.7894
11
114.492
21
-48.0931
0
LINE
8
BLACK
6
CONTINUOUS
10
114.492
20
-48.0931
11
114.429
21
-48.1555
0
LINE
8
BLACK
6
CONTINUOUS
10
114.429
20
-48.1555
11
114.428
21
-48.1562
0
LINE
8
BLACK
6
CONTINUOUS
10
114.428
20
-48.1562
11
114.425
21
-48.1589
0
LINE
8
BLACK
6
CONTINUOUS
10
114.425
20
-48.1589
11
114.422
21
-48.1618
0
LINE
8
BLACK
6
CONTINUOUS
10
114.422
20
-48.1618
11
114.419
21
-48.1634
0
LINE
8
BLACK
6
CONTINUOUS
10
114.419
20
-48.1634
11
114.417
21
-48.1654
0
LINE
8
BLACK
6
CONTINUOUS
10
114.417
20
-48.1654
11
114.413
21
-48.1673
0
LINE
8
BLACK
6
CONTINUOUS
10
114.413
20
-48.1673
11
114.41
21
-48.1696
0
LINE
8
BLACK
6
CONTINUOUS
10
114.41
20
-48.1696
11
114.314
21
-48.2172
0
LINE
8
BLACK
6
CONTINUOUS
10
114.314
20
-48.2172
11
114.314
21
-48.2176
0
LINE
8
BLACK
6
CONTINUOUS
10
114.314
20
-48.2176
11
114.3
21
-48.2227
0
LINE
8
BLACK
6
CONTINUOUS
10
114.3
20
-48.2227
11
114.285
21
-48.225
0
LINE
8
BLACK
6
CONTINUOUS
10
114.285
20
-48.225
11
114.271
21
-48.2244
0
LINE
8
BLACK
6
CONTINUOUS
10
114.271
20
-48.2244
11
114.256
21
-48.221
0
LINE
8
BLACK
6
CONTINUOUS
10
114.256
20
-48.221
11
114.243
21
-48.2149
0
LINE
8
BLACK
6
CONTINUOUS
10
114.243
20
-48.2149
11
114.231
21
-48.2063
0
LINE
8
BLACK
6
CONTINUOUS
10
114.231
20
-48.2063
11
114.221
21
-48.1956
0
LINE
8
BLACK
6
CONTINUOUS
10
114.221
20
-48.1956
11
114.214
21
-48.1832
0
LINE
8
BLACK
6
CONTINUOUS
10
114.214
20
-48.1832
11
114.208
21
-48.1695
0
LINE
8
BLACK
6
CONTINUOUS
10
114.208
20
-48.1695
11
114.206
21
-48.155
0
LINE
8
BLACK
6
CONTINUOUS
10
114.206
20
-48.155
11
114.207
21
-48.1404
0
LINE
8
BLACK
6
CONTINUOUS
10
114.207
20
-48.1404
11
114.21
21
-48.1261
0
LINE
8
BLACK
6
CONTINUOUS
10
114.21
20
-48.1261
11
114.216
21
-48.1128
0
LINE
8
BLACK
6
CONTINUOUS
10
114.216
20
-48.1128
11
114.224
21
-48.1009
0
LINE
8
BLACK
6
CONTINUOUS
10
114.224
20
-48.1009
11
114.235
21
-48.0908
0
LINE
8
BLACK
6
CONTINUOUS
10
114.235
20
-48.0908
11
114.247
21
-48.083
0
LINE
8
BLACK
6
CONTINUOUS
10
114.247
20
-48.083
11
114.332
21
-48.0408
0
LINE
8
BLACK
6
CONTINUOUS
10
114.332
20
-48.0408
11
114.413
21
-47.9595
0
LINE
8
BLACK
6
CONTINUOUS
10
114.413
20
-47.9595
11
114.504
21
-47.8228
0
LINE
8
BLACK
6
CONTINUOUS
10
114.504
20
-47.8228
11
114.505
21
-47.822
0
LINE
8
BLACK
6
CONTINUOUS
10
114.505
20
-47.822
11
114.505
21
-47.822
0
LINE
8
BLACK
6
CONTINUOUS
10
114.505
20
-47.822
11
114.505
21
-47.822
0
LINE
8
BLACK
6
CONTINUOUS
10
114.505
20
-47.822
11
114.505
21
-47.8219
0
LINE
8
BLACK
6
CONTINUOUS
10
114.505
20
-47.8219
11
114.51
21
-47.8163
0
LINE
8
BLACK
6
CONTINUOUS
10
114.51
20
-47.8163
11
114.514
21
-47.8108
0
LINE
8
BLACK
6
CONTINUOUS
10
114.514
20
-47.8108
11
114.514
21
-47.8108
0
LINE
8
BLACK
6
CONTINUOUS
10
114.514
20
-47.8108
11
114.514
21
-47.8107
0
LINE
8
BLACK
6
CONTINUOUS
10
114.514
20
-47.8107
11
114.52
21
-47.806
0
LINE
8
BLACK
6
CONTINUOUS
10
114.52
20
-47.806
11
114.526
21
-47.8016
0
LINE
8
BLACK
6
CONTINUOUS
10
114.526
20
-47.8016
11
114.526
21
-47.8016
0
LINE
8
BLACK
6
CONTINUOUS
10
114.526
20
-47.8016
11
114.526
21
-47.8016
0
LINE
8
BLACK
6
CONTINUOUS
10
114.526
20
-47.8016
11
114.532
21
-47.798
0
LINE
8
BLACK
6
CONTINUOUS
10
114.532
20
-47.798
11
114.539
21
-47.7948
0
LINE
8
BLACK
6
CONTINUOUS
10
114.539
20
-47.7948
11
114.539
21
-47.7948
0
LINE
8
BLACK
6
CONTINUOUS
10
114.539
20
-47.7948
11
114.539
21
-47.7948
0
LINE
8
BLACK
6
CONTINUOUS
10
114.539
20
-47.7948
11
114.546
21
-47.7927
0
LINE
8
BLACK
6
CONTINUOUS
10
114.546
20
-47.7927
11
114.553
21
-47.7907
0
LINE
8
BLACK
6
CONTINUOUS
10
114.553
20
-47.7907
11
114.553
21
-47.7907
0
LINE
8
BLACK
6
CONTINUOUS
10
114.553
20
-47.7907
11
114.553
21
-47.7907
0
LINE
8
BLACK
6
CONTINUOUS
10
114.553
20
-47.7907
11
114.56
21
-47.79
0
LINE
8
BLACK
6
CONTINUOUS
10
114.56
20
-47.79
11
114.567
21
-47.7894
0
LINE
8
BLACK
6
CONTINUOUS
10
114.567
20
-47.7894
11
114.567
21
-47.7894
  0
ENDSEC
  0
EOF
